M48
; DRILL file {KiCad (6.0.1)} date Mon Jul  4 18:27:00 2022
; FORMAT={-:-/ absolute / inch / decimal}
; #@! TF.CreationDate,2022-07-04T18:27:00+02:00
; #@! TF.GenerationSoftware,Kicad,Pcbnew,(6.0.1)
; #@! TF.FileFunction,MixedPlating,1,2
FMAT,2
INCH
; #@! TA.AperFunction,Plated,PTH,ViaDrill
T1C0.0157
; #@! TA.AperFunction,Plated,PTH,ComponentDrill
T2C0.0315
; #@! TA.AperFunction,Plated,PTH,ComponentDrill
T3C0.0354
; #@! TA.AperFunction,Plated,PTH,ComponentDrill
T4C0.0394
%
G90
G05
T1
X1.44Y-3.78
X1.44Y-3.82
X1.4515Y-4.14
X1.5Y-6.24
X1.6Y-3.78
X1.6Y-3.82
X1.6Y-4.0
X1.66Y-2.14
X1.66Y-3.96
X1.68Y-1.86
X1.72Y-3.82
X1.8Y-1.18
X1.8Y-6.2
X1.92Y-1.86
X1.98Y-1.74
X1.98Y-2.34
X1.98Y-2.6
X2.1Y-6.16
X2.16Y-3.94
X2.16Y-4.16
X2.18Y-2.28
X2.2Y-2.22
X2.3695Y-3.6621
X2.4Y-6.12
X2.5Y-4.0
X2.64Y-4.06
X2.64Y-4.1
X2.64Y-5.26
X2.64Y-5.58
X2.6915Y-3.6598
X2.6915Y-4.9
X2.7Y-1.64
X2.7Y-5.44
X2.7Y-6.08
X2.7285Y-2.7002
X2.7285Y-3.5402
X2.74Y-1.56
X2.74Y-4.4
X2.74Y-5.52
X2.74Y-5.96
X2.74Y-6.02
X2.76Y-1.46
X2.7685Y-1.94
X2.7685Y-3.8688
X2.7885Y-1.8289
X2.7885Y-2.5085
X2.7885Y-3.6112
X2.8Y-5.96
X2.82Y-1.5
X2.8262Y-2.4634
X2.8315Y-2.5488
X2.84Y-3.94
X2.8485Y-3.76
X2.86Y-1.86
X2.86Y-3.84
X2.86Y-5.64
X2.86Y-5.96
X2.8607Y-5.4862
X2.8685Y-2.7598
X2.8885Y-2.8398
X2.8885Y-3.665
X2.897Y-2.337
X2.92Y-5.96
X2.96Y-2.2
X2.96Y-3.32
X2.98Y-5.96
X3.0Y-1.9
X3.0Y-2.8
X3.0Y-3.76
X3.0Y-4.1
X3.04Y-4.06
X3.04Y-4.72
X3.04Y-4.8
X3.04Y-4.9
X3.04Y-5.96
X3.0402Y-3.7598
X3.08Y-3.32
X3.1Y-2.18
X3.1Y-2.34
X3.1Y-5.96
X3.1498Y-5.9702
X3.26Y-2.8
X3.44Y-5.5
X3.44Y-6.8
X3.48Y-5.64
X3.48Y-6.36
X3.5858Y-3.1961
X3.6Y-1.68
X3.6Y-5.54
X3.6Y-6.64
X3.6163Y-3.2209
X3.62Y-1.72
X3.6515Y-5.2002
X3.66Y-1.74
X3.68Y-1.78
X3.68Y-5.24
X3.7Y-1.5
X3.7044Y-4.2048
X3.7056Y-2.2245
X3.7115Y-2.2635
X3.72Y-1.18
X3.7315Y-4.2333
X3.7398Y-2.1085
X3.74Y-3.3
X3.7515Y-5.1002
X3.7775Y-3.3415
X3.78Y-2.16
X3.78Y-2.66
X3.78Y-3.1
X3.78Y-5.16
X3.78Y-5.24
X3.8Y-3.14
X3.8085Y-2.7202
X3.8085Y-4.0898
X3.8085Y-4.1402
X3.8316Y-2.7521
X3.8477Y-2.788
X3.8538Y-4.9802
X3.8685Y-3.27
X3.8715Y-3.3151
X3.8715Y-5.04
X3.8767Y-4.3405
X3.88Y-2.08
X3.88Y-5.34
X3.9Y-2.04
X3.9161Y-3.0593
X3.92Y-3.0
X3.92Y-3.76
X3.9338Y-3.6231
X3.9338Y-3.6993
X3.9338Y-3.8193
X3.9515Y-4.3365
X3.98Y-4.66
X3.9885Y-4.74
X3.9885Y-4.9402
X3.9885Y-5.2485
X3.9915Y-2.9598
X4.02Y-2.92
X4.02Y-4.7
X4.06Y-3.98
X4.08Y-3.94
X4.08Y-5.22
X4.12Y-5.26
X4.14Y-1.96
X4.14Y-5.48
X4.1515Y-5.2888
X4.18Y-1.92
X4.18Y-4.78
X4.2Y-5.4
X4.2146Y-5.3342
X4.26Y-5.54
X4.28Y-5.18
X4.3Y-5.5
X4.42Y-5.58
X4.48Y-1.18
X4.54Y-6.8
X4.62Y-6.8
X4.7Y-5.3
X4.7Y-6.52
X4.76Y-6.42
X4.78Y-1.5
X4.78Y-1.56
X4.8511Y-1.6315
X5.0419Y-5.2016
X5.24Y-4.52
X5.26Y-5.28
X5.26Y-5.4
X5.28Y-5.24
X5.32Y-3.0
X5.32Y-4.84
X5.3202Y-1.9915
X5.3202Y-3.9915
X5.36Y-1.9315
X5.36Y-3.94
X5.3602Y-2.9315
X5.3602Y-4.9798
X5.38Y-1.54
X5.3802Y-1.5798
X5.4Y-2.12
X5.4Y-3.14
X5.4Y-4.14
X5.4Y-5.02
X5.4Y-6.84
X5.44Y-1.3
X5.44Y-2.0485
X5.44Y-3.0485
X5.44Y-5.12
X5.4402Y-4.0485
X5.4598Y-6.8115
X5.48Y-1.5
X5.48Y-1.96
X5.48Y-2.96
X5.48Y-3.98
X5.48Y-4.9315
X5.5Y-1.3
X5.5Y-5.18
X5.5Y-6.78
X5.5039Y-6.7406
X5.52Y-1.86
X5.52Y-2.86
X5.52Y-3.84
X5.52Y-4.96
X5.55Y-6.7
X5.56Y-2.06
X5.56Y-3.06
X5.56Y-4.06
X5.56Y-5.04
X5.6Y-1.175
X5.6Y-2.02
X5.6Y-3.02
X5.6Y-4.02
X5.6Y-5.12
X5.6Y-6.84
X5.6398Y-6.8115
X5.64Y-6.7328
X5.6401Y-6.7721
X5.66Y-1.48
X5.6984Y-1.5467
X5.7Y-4.52
X5.7Y-6.5
X5.7Y-6.84
X5.7003Y-1.586
X5.7078Y-1.5085
X5.7389Y-6.6719
X5.7398Y-6.7683
X5.74Y-6.7289
X5.7426Y-6.8075
X5.8Y-2.24
X5.8Y-2.42
X5.8Y-3.28
X5.8Y-3.46
X5.82Y-6.38
X5.9Y-6.84
X5.95Y-1.67
X6.32Y-6.34
X6.66Y-2.98
X6.66Y-3.98
X6.66Y-4.84
X6.6602Y-1.9715
X6.7Y-3.9315
X6.7Y-4.98
X6.7005Y-1.931
X6.7005Y-2.9315
X6.74Y-2.1
X6.74Y-3.14
X6.74Y-4.14
X6.74Y-5.02
X6.7802Y-2.0285
X6.7802Y-4.0485
X6.7802Y-5.1014
X6.7804Y-3.0399
X6.82Y-1.96
X6.82Y-2.96
X6.82Y-3.96
X6.8202Y-4.9315
X6.86Y-1.86
X6.86Y-2.86
X6.86Y-3.88
X6.86Y-4.96
X6.9Y-2.06
X6.9Y-3.1
X6.9Y-4.08
X6.9Y-5.08
X6.94Y-2.0
X6.94Y-3.0
X6.94Y-4.02
X6.94Y-5.12
T2
X1.15Y-6.65
X1.15Y-6.95
X1.45Y-5.4516
X1.45Y-5.6484
X1.45Y-6.65
X1.45Y-6.95
X1.6Y-5.4
X1.6Y-5.7
X1.7Y-5.4
X1.7Y-5.7
X1.75Y-6.65
X1.75Y-6.95
X1.8Y-1.45
X1.8Y-1.55
X1.8Y-1.65
X1.8Y-1.75
X1.8Y-1.85
X1.8Y-1.95
X1.8Y-2.05
X1.8Y-2.35
X1.8Y-2.45
X1.8Y-2.55
X1.8Y-2.65
X1.8Y-2.75
X1.8Y-2.85
X1.8Y-2.95
X1.8Y-5.4
X1.8Y-5.7
X1.8516Y-1.3
X1.8516Y-2.2
X1.9Y-5.4
X1.9Y-5.7
X2.0Y-5.4
X2.0Y-5.7
X2.0484Y-1.3
X2.0484Y-2.2
X2.05Y-6.65
X2.05Y-6.95
X2.1Y-1.45
X2.1Y-1.55
X2.1Y-1.65
X2.1Y-1.75
X2.1Y-1.85
X2.1Y-1.95
X2.1Y-2.05
X2.1Y-2.35
X2.1Y-2.45
X2.1Y-2.55
X2.1Y-2.65
X2.1Y-2.75
X2.1Y-2.85
X2.1Y-2.95
X2.1Y-5.4
X2.1Y-5.7
X2.2Y-5.4
X2.2Y-5.7
X2.2994Y-1.4498
X2.2994Y-1.5498
X2.2994Y-1.6498
X2.2994Y-1.7498
X2.2994Y-1.8498
X2.2994Y-1.9498
X2.2994Y-2.0498
X2.2994Y-2.3498
X2.2994Y-2.4498
X2.2994Y-2.5498
X2.2994Y-2.6498
X2.2994Y-2.7498
X2.2994Y-2.8498
X2.2994Y-2.9498
X2.2994Y-4.3498
X2.2994Y-4.4498
X2.2994Y-4.5498
X2.2994Y-4.6498
X2.2994Y-4.7498
X2.2994Y-4.8498
X2.2994Y-4.9498
X2.3Y-3.35
X2.3Y-3.45
X2.3Y-3.55
X2.3Y-3.65
X2.3Y-3.75
X2.3Y-3.85
X2.3Y-3.95
X2.3Y-5.4
X2.3Y-5.7
X2.35Y-6.65
X2.35Y-6.95
X2.3516Y-1.3
X2.3516Y-2.2
X2.3516Y-3.2
X2.3516Y-4.2
X2.4Y-5.4
X2.4Y-5.7
X2.5Y-5.4
X2.5Y-5.7
X2.5484Y-1.3
X2.5484Y-2.2
X2.5484Y-3.2
X2.5484Y-4.2
X2.5994Y-1.4498
X2.5994Y-1.5498
X2.5994Y-1.6498
X2.5994Y-1.7498
X2.5994Y-1.8498
X2.5994Y-1.9498
X2.5994Y-2.0498
X2.5994Y-2.3498
X2.5994Y-2.4498
X2.5994Y-2.5498
X2.5994Y-2.6498
X2.5994Y-2.7498
X2.5994Y-2.8498
X2.5994Y-2.9498
X2.5994Y-4.3498
X2.5994Y-4.4498
X2.5994Y-4.5498
X2.5994Y-4.6498
X2.5994Y-4.7498
X2.5994Y-4.8498
X2.5994Y-4.9498
X2.6Y-3.35
X2.6Y-3.45
X2.6Y-3.55
X2.6Y-3.65
X2.6Y-3.75
X2.6Y-3.85
X2.6Y-3.95
X2.65Y-6.65
X2.65Y-6.95
X2.95Y-6.65
X2.95Y-6.95
X3.1994Y-1.6506
X3.1994Y-1.7506
X3.1994Y-1.8506
X3.1994Y-1.9506
X3.1994Y-2.0506
X3.1994Y-2.1506
X3.1994Y-2.2506
X3.1994Y-2.3506
X3.1994Y-2.6506
X3.1994Y-2.7506
X3.1994Y-2.8506
X3.1994Y-2.9506
X3.1994Y-3.0506
X3.1994Y-3.1506
X3.1994Y-3.2506
X3.1994Y-3.3506
X3.1994Y-3.6506
X3.1994Y-3.7506
X3.1994Y-3.8506
X3.1994Y-3.9506
X3.1994Y-4.0506
X3.1994Y-4.1506
X3.1994Y-4.2506
X3.1994Y-4.3506
X3.1994Y-4.6506
X3.1994Y-4.7506
X3.1994Y-4.8506
X3.1994Y-4.9506
X3.1994Y-5.0506
X3.1994Y-5.1506
X3.1994Y-5.2506
X3.1994Y-5.3506
X3.25Y-6.65
X3.25Y-6.95
X3.251Y-2.5
X3.2516Y-3.5
X3.2516Y-4.5
X3.2616Y-1.5
X3.4478Y-2.5
X3.4484Y-3.5
X3.4484Y-4.5
X3.4584Y-1.5
X3.4994Y-1.6506
X3.4994Y-1.7506
X3.4994Y-1.8506
X3.4994Y-1.9506
X3.4994Y-2.0506
X3.4994Y-2.1506
X3.4994Y-2.2506
X3.4994Y-2.3506
X3.4994Y-2.6506
X3.4994Y-2.7506
X3.4994Y-2.8506
X3.4994Y-2.9506
X3.4994Y-3.0506
X3.4994Y-3.1506
X3.4994Y-3.2506
X3.4994Y-3.3506
X3.4994Y-3.6506
X3.4994Y-3.7506
X3.4994Y-3.8506
X3.4994Y-3.9506
X3.4994Y-4.0506
X3.4994Y-4.1506
X3.4994Y-4.2506
X3.4994Y-4.3506
X3.4994Y-4.6506
X3.4994Y-4.7506
X3.4994Y-4.8506
X3.4994Y-4.9506
X3.4994Y-5.0506
X3.4994Y-5.1506
X3.4994Y-5.2506
X3.4994Y-5.3506
X4.35Y-4.9016
X4.35Y-5.0984
X4.4002Y-1.0994
X4.4002Y-1.3994
X4.45Y-1.9016
X4.45Y-2.0984
X4.45Y-2.9016
X4.45Y-3.0984
X4.45Y-3.9016
X4.45Y-4.0984
X4.4502Y-6.5852
X4.4502Y-6.8852
X4.5Y-4.85
X4.5Y-5.15
X4.5002Y-1.0994
X4.5002Y-1.3994
X4.5202Y-5.5494
X4.5202Y-5.8494
X4.5202Y-5.9994
X4.5202Y-6.2994
X4.5502Y-6.5852
X4.5502Y-6.8852
X4.5998Y-1.8506
X4.5998Y-2.1506
X4.5998Y-2.8506
X4.5998Y-3.1506
X4.6Y-3.85
X4.6Y-4.15
X4.6Y-4.85
X4.6Y-5.15
X4.6002Y-1.0994
X4.6002Y-1.3994
X4.6202Y-5.5494
X4.6202Y-5.8494
X4.6202Y-5.9994
X4.6202Y-6.2994
X4.6502Y-6.5852
X4.6502Y-6.8852
X4.6998Y-1.8506
X4.6998Y-2.1506
X4.6998Y-2.8506
X4.6998Y-3.1506
X4.7Y-3.85
X4.7Y-4.15
X4.7Y-4.85
X4.7Y-5.15
X4.7002Y-1.0994
X4.7002Y-1.3994
X4.7202Y-5.5494
X4.7202Y-5.8494
X4.7202Y-5.9994
X4.7202Y-6.2994
X4.7502Y-6.5852
X4.7502Y-6.8852
X4.7998Y-1.8506
X4.7998Y-2.1506
X4.7998Y-2.8506
X4.7998Y-3.1506
X4.8Y-3.85
X4.8Y-4.15
X4.8Y-4.85
X4.8Y-5.15
X4.8002Y-1.0994
X4.8002Y-1.3994
X4.8202Y-5.5494
X4.8202Y-5.8494
X4.8202Y-5.9994
X4.8202Y-6.2994
X4.8502Y-6.5852
X4.8502Y-6.8852
X4.8998Y-1.8506
X4.8998Y-2.1506
X4.8998Y-2.8506
X4.8998Y-3.1506
X4.9Y-3.85
X4.9Y-4.15
X4.9Y-4.85
X4.9Y-5.15
X4.9002Y-1.0994
X4.9002Y-1.3994
X4.9202Y-5.5494
X4.9202Y-5.8494
X4.9202Y-5.9994
X4.9202Y-6.2994
X4.9502Y-6.5852
X4.9502Y-6.8852
X4.9998Y-1.8506
X4.9998Y-2.1506
X4.9998Y-2.8506
X4.9998Y-3.1506
X5.0Y-3.85
X5.0Y-4.15
X5.0Y-4.85
X5.0Y-5.15
X5.0002Y-1.0994
X5.0002Y-1.3994
X5.0202Y-5.5494
X5.0202Y-5.8494
X5.0202Y-5.9994
X5.0202Y-6.2994
X5.0502Y-6.5852
X5.0502Y-6.8852
X5.0998Y-1.8506
X5.0998Y-2.1506
X5.0998Y-2.8506
X5.0998Y-3.1506
X5.1Y-3.85
X5.1Y-4.15
X5.1Y-4.85
X5.1Y-5.15
X5.1202Y-5.5494
X5.1202Y-5.8494
X5.1202Y-5.9994
X5.1202Y-6.2994
X5.15Y-1.1516
X5.15Y-1.3484
X5.1998Y-1.8506
X5.1998Y-2.1506
X5.1998Y-2.8506
X5.1998Y-3.1506
X5.2Y-3.85
X5.2Y-4.15
X5.2Y-4.85
X5.2Y-5.15
X5.2Y-6.6373
X5.2Y-6.8342
X5.25Y-5.6016
X5.25Y-5.7984
X5.25Y-6.0516
X5.25Y-6.2484
X5.3502Y-1.0994
X5.3502Y-1.3994
X5.3502Y-6.601
X5.3502Y-6.901
X5.4502Y-1.0994
X5.4502Y-1.3994
X5.4502Y-6.601
X5.4502Y-6.901
X5.5502Y-1.0994
X5.5502Y-1.3994
X5.5502Y-6.601
X5.5502Y-6.901
X5.6502Y-1.0994
X5.6502Y-1.3994
X5.6502Y-6.601
X5.6502Y-6.901
X5.7Y-4.9016
X5.7Y-5.0984
X5.7502Y-1.0994
X5.7502Y-1.3994
X5.7502Y-6.601
X5.7502Y-6.901
X5.8Y-1.9016
X5.8Y-2.0984
X5.8Y-2.9016
X5.8Y-3.0984
X5.8Y-3.9016
X5.8Y-4.0984
X5.8502Y-1.0994
X5.8502Y-1.3994
X5.8502Y-6.601
X5.8502Y-6.901
X5.8506Y-4.8506
X5.8506Y-5.1506
X5.9498Y-2.8506
X5.9498Y-3.1506
X5.95Y-1.85
X5.95Y-2.15
X5.95Y-3.85
X5.95Y-4.15
X5.9502Y-1.0994
X5.9502Y-1.3994
X5.9502Y-6.601
X5.9502Y-6.901
X5.9506Y-4.8506
X5.9506Y-5.1506
X6.0498Y-2.8506
X6.0498Y-3.1506
X6.05Y-1.85
X6.05Y-2.15
X6.05Y-3.85
X6.05Y-4.15
X6.0506Y-4.8506
X6.0506Y-5.1506
X6.1Y-1.1516
X6.1Y-1.3484
X6.1Y-6.6531
X6.1Y-6.85
X6.1498Y-2.8506
X6.1498Y-3.1506
X6.15Y-1.85
X6.15Y-2.15
X6.15Y-3.85
X6.15Y-4.15
X6.1506Y-4.8506
X6.1506Y-5.1506
X6.2498Y-2.8506
X6.2498Y-3.1506
X6.25Y-1.85
X6.25Y-2.15
X6.25Y-3.85
X6.25Y-4.15
X6.2506Y-4.8506
X6.2506Y-5.1506
X6.3498Y-2.8506
X6.3498Y-3.1506
X6.35Y-1.85
X6.35Y-2.15
X6.35Y-3.85
X6.35Y-4.15
X6.3506Y-4.8506
X6.3506Y-5.1506
X6.4498Y-2.8506
X6.4498Y-3.1506
X6.45Y-1.85
X6.45Y-2.15
X6.45Y-3.85
X6.45Y-4.15
X6.4506Y-4.8506
X6.4506Y-5.1506
X6.5498Y-2.8506
X6.5498Y-3.1506
X6.55Y-1.85
X6.55Y-2.15
X6.55Y-3.85
X6.55Y-4.15
X6.5506Y-4.8506
X6.5506Y-5.1506
T3
X1.15Y-6.4
X1.15Y-6.5
X1.45Y-6.4
X1.45Y-6.5
X1.75Y-6.4
X1.75Y-6.5
X2.05Y-6.4
X2.05Y-6.5
X2.35Y-6.4
X2.35Y-6.5
X2.65Y-6.4
X2.65Y-6.5
X2.95Y-6.4
X2.95Y-6.5
X3.25Y-6.4
X3.25Y-6.5
T4
X1.15Y-3.05
X1.15Y-3.15
X1.15Y-3.25
X1.15Y-3.35
X1.15Y-3.45
X1.15Y-3.55
X1.15Y-3.65
X1.15Y-3.75
X1.15Y-3.85
X1.15Y-3.95
X1.15Y-4.05
X1.15Y-4.15
X1.15Y-4.25
X1.15Y-4.35
X1.15Y-4.45
X1.15Y-4.55
X1.15Y-4.65
X1.15Y-4.75
X1.15Y-4.85
X1.15Y-4.95
X1.25Y-3.05
X1.25Y-3.15
X1.25Y-3.25
X1.25Y-3.35
X1.25Y-3.45
X1.25Y-3.55
X1.25Y-3.65
X1.25Y-3.75
X1.25Y-3.85
X1.25Y-3.95
X1.25Y-4.05
X1.25Y-4.15
X1.25Y-4.25
X1.25Y-4.35
X1.25Y-4.45
X1.25Y-4.55
X1.25Y-4.65
X1.25Y-4.75
X1.25Y-4.85
X1.25Y-4.95
X6.25Y-1.4
X6.25Y-6.6
X6.35Y-1.4
X6.35Y-6.6
X6.45Y-1.4
X6.45Y-6.6
X6.55Y-1.4
X6.55Y-6.6
X6.65Y-1.4
X6.65Y-6.6
X6.75Y-1.4
X6.75Y-6.6
X6.85Y-1.4
X6.85Y-6.6
X6.95Y-1.4
X6.95Y-6.6
T0
M30
