M48
; DRILL file {KiCad (6.0.1)} date Mon Mar 28 18:22:43 2022
; FORMAT={-:-/ absolute / inch / decimal}
; #@! TF.CreationDate,2022-03-28T18:22:43+02:00
; #@! TF.GenerationSoftware,Kicad,Pcbnew,(6.0.1)
; #@! TF.FileFunction,MixedPlating,1,2
FMAT,2
INCH
; #@! TA.AperFunction,Plated,PTH,ComponentDrill
T1C0.0315
; #@! TA.AperFunction,Plated,PTH,ComponentDrill
T2C0.0394
%
G90
G05
T1
X1.25Y-2.0016
X1.25Y-2.1984
X1.4Y-1.95
X1.4Y-2.25
X1.5Y-1.95
X1.5Y-2.25
X1.6Y-1.95
X1.6Y-2.25
X1.7Y-1.95
X1.7Y-2.25
X1.8Y-1.95
X1.8Y-2.25
X1.9Y-1.95
X1.9Y-2.25
X2.0Y-1.95
X2.0Y-2.25
X2.1Y-1.95
X2.1Y-2.25
X2.8Y-2.0031
X2.8Y-2.2
X2.9506Y-1.9506
X2.9506Y-2.2506
X3.0506Y-1.9506
X3.0506Y-2.2506
X3.1506Y-1.9506
X3.1506Y-2.2506
X3.2506Y-1.9506
X3.2506Y-2.2506
X3.3506Y-1.9506
X3.3506Y-2.2506
X3.4506Y-1.9506
X3.4506Y-2.2506
X3.5506Y-1.9506
X3.5506Y-2.2506
X3.6506Y-1.9506
X3.6506Y-2.2506
T2
X1.05Y-2.8409
X1.15Y-2.8409
X1.25Y-2.8409
X1.35Y-2.8409
X1.45Y-2.8409
X1.55Y-2.8409
X1.65Y-2.8409
X1.75Y-2.8409
X6.5118Y-1.05
X6.5118Y-1.15
X6.5118Y-1.25
X6.5118Y-1.35
X6.5118Y-1.45
X6.5118Y-1.55
X6.5118Y-1.65
X6.5118Y-1.75
X6.5118Y-1.85
X6.5118Y-1.95
X6.5118Y-2.05
X6.5118Y-2.15
X6.5118Y-2.25
X6.5118Y-2.35
X6.5118Y-2.45
X6.5118Y-2.55
X6.5118Y-2.65
X6.5118Y-2.75
X6.5118Y-2.85
X6.5118Y-2.95
X6.6118Y-1.05
X6.6118Y-1.15
X6.6118Y-1.25
X6.6118Y-1.35
X6.6118Y-1.45
X6.6118Y-1.55
X6.6118Y-1.65
X6.6118Y-1.75
X6.6118Y-1.85
X6.6118Y-1.95
X6.6118Y-2.05
X6.6118Y-2.15
X6.6118Y-2.25
X6.6118Y-2.35
X6.6118Y-2.45
X6.6118Y-2.55
X6.6118Y-2.65
X6.6118Y-2.75
X6.6118Y-2.85
X6.6118Y-2.95
T0
M30
