%TF.GenerationSoftware,KiCad,Pcbnew,(6.0.1)*%
%TF.CreationDate,2022-03-28T18:22:40+02:00*%
%TF.ProjectId,InstructionRegister,496e7374-7275-4637-9469-6f6e52656769,rev?*%
%TF.SameCoordinates,Original*%
%TF.FileFunction,Copper,L2,Bot*%
%TF.FilePolarity,Positive*%
%FSLAX46Y46*%
G04 Gerber Fmt 4.6, Leading zero omitted, Abs format (unit mm)*
G04 Created by KiCad (PCBNEW (6.0.1)) date 2022-03-28 18:22:40*
%MOMM*%
%LPD*%
G01*
G04 APERTURE LIST*
%TA.AperFunction,ComponentPad*%
%ADD10C,1.600000*%
%TD*%
%TA.AperFunction,ComponentPad*%
%ADD11R,1.600000X2.400000*%
%TD*%
%TA.AperFunction,ComponentPad*%
%ADD12O,1.600000X2.400000*%
%TD*%
%TA.AperFunction,ComponentPad*%
%ADD13R,1.700000X1.700000*%
%TD*%
%TA.AperFunction,ComponentPad*%
%ADD14O,1.700000X1.700000*%
%TD*%
%TA.AperFunction,Conductor*%
%ADD15C,0.250000*%
%TD*%
G04 APERTURE END LIST*
D10*
%TO.P,C2,1*%
%TO.N,/VCC*%
X31750000Y-50840000D03*
%TO.P,C2,2*%
%TO.N,/GND*%
X31750000Y-55840000D03*
%TD*%
%TO.P,C1,1*%
%TO.N,/VCC*%
X71120000Y-50880000D03*
%TO.P,C1,2*%
%TO.N,/GND*%
X71120000Y-55880000D03*
%TD*%
D11*
%TO.P,U1,1,Oe1*%
%TO.N,/GND*%
X74945000Y-57165000D03*
D12*
%TO.P,U1,2,Oe2*%
X77485000Y-57165000D03*
%TO.P,U1,3,Q0*%
%TO.N,/IR_3*%
X80025000Y-57165000D03*
%TO.P,U1,4,Q1*%
%TO.N,/IR_2*%
X82565000Y-57165000D03*
%TO.P,U1,5,Q2*%
%TO.N,/IR_1*%
X85105000Y-57165000D03*
%TO.P,U1,6,Q3*%
%TO.N,/IR_0*%
X87645000Y-57165000D03*
%TO.P,U1,7,Cp*%
%TO.N,/CLK*%
X90185000Y-57165000D03*
%TO.P,U1,8,GND*%
%TO.N,/GND*%
X92725000Y-57165000D03*
%TO.P,U1,9,E1*%
%TO.N,/~{IRIN}*%
X92725000Y-49545000D03*
%TO.P,U1,10,E2*%
X90185000Y-49545000D03*
%TO.P,U1,11,D3*%
%TO.N,/BUS_0*%
X87645000Y-49545000D03*
%TO.P,U1,12,D2*%
%TO.N,/BUS_1*%
X85105000Y-49545000D03*
%TO.P,U1,13,D1*%
%TO.N,/BUS_2*%
X82565000Y-49545000D03*
%TO.P,U1,14,D0*%
%TO.N,/BUS_3*%
X80025000Y-49545000D03*
%TO.P,U1,15,Mr*%
%TO.N,/CLR*%
X77485000Y-49545000D03*
%TO.P,U1,16,VCC*%
%TO.N,/VCC*%
X74945000Y-49545000D03*
%TD*%
D13*
%TO.P,J2,1,Pin_1*%
%TO.N,/IR_0*%
X44450000Y-72160000D03*
D14*
%TO.P,J2,2,Pin_2*%
%TO.N,/IR_1*%
X41910000Y-72160000D03*
%TO.P,J2,3,Pin_3*%
%TO.N,/IR_2*%
X39370000Y-72160000D03*
%TO.P,J2,4,Pin_4*%
%TO.N,/IR_3*%
X36830000Y-72160000D03*
%TO.P,J2,5,Pin_5*%
%TO.N,/IR_4*%
X34290000Y-72160000D03*
%TO.P,J2,6,Pin_6*%
%TO.N,/IR_5*%
X31750000Y-72160000D03*
%TO.P,J2,7,Pin_7*%
%TO.N,/IR_6*%
X29210000Y-72160000D03*
%TO.P,J2,8,Pin_8*%
%TO.N,/IR_7*%
X26670000Y-72160000D03*
%TD*%
D13*
%TO.P,J1,1,Pin_1*%
%TO.N,/VCC*%
X165400000Y-74930000D03*
D14*
%TO.P,J1,2,Pin_2*%
%TO.N,/BUS_0*%
X167940000Y-74930000D03*
%TO.P,J1,3,Pin_3*%
%TO.N,/CLK*%
X165400000Y-72390000D03*
%TO.P,J1,4,Pin_4*%
%TO.N,/BUS_1*%
X167940000Y-72390000D03*
%TO.P,J1,5,Pin_5*%
%TO.N,unconnected-(J1-Pad5)*%
X165400000Y-69850000D03*
%TO.P,J1,6,Pin_6*%
%TO.N,/BUS_2*%
X167940000Y-69850000D03*
%TO.P,J1,7,Pin_7*%
%TO.N,unconnected-(J1-Pad7)*%
X165400000Y-67310000D03*
%TO.P,J1,8,Pin_8*%
%TO.N,/BUS_3*%
X167940000Y-67310000D03*
%TO.P,J1,9,Pin_9*%
%TO.N,unconnected-(J1-Pad9)*%
X165400000Y-64770000D03*
%TO.P,J1,10,Pin_10*%
%TO.N,/BUS_4*%
X167940000Y-64770000D03*
%TO.P,J1,11,Pin_11*%
%TO.N,unconnected-(J1-Pad11)*%
X165400000Y-62230000D03*
%TO.P,J1,12,Pin_12*%
%TO.N,/BUS_5*%
X167940000Y-62230000D03*
%TO.P,J1,13,Pin_13*%
%TO.N,unconnected-(J1-Pad13)*%
X165400000Y-59690000D03*
%TO.P,J1,14,Pin_14*%
%TO.N,/BUS_6*%
X167940000Y-59690000D03*
%TO.P,J1,15,Pin_15*%
%TO.N,unconnected-(J1-Pad15)*%
X165400000Y-57150000D03*
%TO.P,J1,16,Pin_16*%
%TO.N,/BUS_7*%
X167940000Y-57150000D03*
%TO.P,J1,17,Pin_17*%
%TO.N,unconnected-(J1-Pad17)*%
X165400000Y-54610000D03*
%TO.P,J1,18,Pin_18*%
%TO.N,unconnected-(J1-Pad18)*%
X167940000Y-54610000D03*
%TO.P,J1,19,Pin_19*%
%TO.N,unconnected-(J1-Pad19)*%
X165400000Y-52070000D03*
%TO.P,J1,20,Pin_20*%
%TO.N,unconnected-(J1-Pad20)*%
X167940000Y-52070000D03*
%TO.P,J1,21,Pin_21*%
%TO.N,unconnected-(J1-Pad21)*%
X165400000Y-49530000D03*
%TO.P,J1,22,Pin_22*%
%TO.N,unconnected-(J1-Pad22)*%
X167940000Y-49530000D03*
%TO.P,J1,23,Pin_23*%
%TO.N,unconnected-(J1-Pad23)*%
X165400000Y-46990000D03*
%TO.P,J1,24,Pin_24*%
%TO.N,unconnected-(J1-Pad24)*%
X167940000Y-46990000D03*
%TO.P,J1,25,Pin_25*%
%TO.N,unconnected-(J1-Pad25)*%
X165400000Y-44450000D03*
%TO.P,J1,26,Pin_26*%
%TO.N,/~{IRIN}*%
X167940000Y-44450000D03*
%TO.P,J1,27,Pin_27*%
%TO.N,unconnected-(J1-Pad27)*%
X165400000Y-41910000D03*
%TO.P,J1,28,Pin_28*%
%TO.N,unconnected-(J1-Pad28)*%
X167940000Y-41910000D03*
%TO.P,J1,29,Pin_29*%
%TO.N,unconnected-(J1-Pad29)*%
X165400000Y-39370000D03*
%TO.P,J1,30,Pin_30*%
%TO.N,unconnected-(J1-Pad30)*%
X167940000Y-39370000D03*
%TO.P,J1,31,Pin_31*%
%TO.N,unconnected-(J1-Pad31)*%
X165400000Y-36830000D03*
%TO.P,J1,32,Pin_32*%
%TO.N,unconnected-(J1-Pad32)*%
X167940000Y-36830000D03*
%TO.P,J1,33,Pin_33*%
%TO.N,unconnected-(J1-Pad33)*%
X165400000Y-34290000D03*
%TO.P,J1,34,Pin_34*%
%TO.N,unconnected-(J1-Pad34)*%
X167940000Y-34290000D03*
%TO.P,J1,35,Pin_35*%
%TO.N,unconnected-(J1-Pad35)*%
X165400000Y-31750000D03*
%TO.P,J1,36,Pin_36*%
%TO.N,unconnected-(J1-Pad36)*%
X167940000Y-31750000D03*
%TO.P,J1,37,Pin_37*%
%TO.N,/CLR*%
X165400000Y-29210000D03*
%TO.P,J1,38,Pin_38*%
%TO.N,unconnected-(J1-Pad38)*%
X167940000Y-29210000D03*
%TO.P,J1,39,Pin_39*%
%TO.N,/GND*%
X165400000Y-26670000D03*
%TO.P,J1,40,Pin_40*%
%TO.N,unconnected-(J1-Pad40)*%
X167940000Y-26670000D03*
%TD*%
D11*
%TO.P,U2,1,Oe1*%
%TO.N,/GND*%
X35560000Y-57150000D03*
D12*
%TO.P,U2,2,Oe2*%
X38100000Y-57150000D03*
%TO.P,U2,3,Q0*%
%TO.N,/IR_7*%
X40640000Y-57150000D03*
%TO.P,U2,4,Q1*%
%TO.N,/IR_6*%
X43180000Y-57150000D03*
%TO.P,U2,5,Q2*%
%TO.N,/IR_5*%
X45720000Y-57150000D03*
%TO.P,U2,6,Q3*%
%TO.N,/IR_4*%
X48260000Y-57150000D03*
%TO.P,U2,7,Cp*%
%TO.N,/CLK*%
X50800000Y-57150000D03*
%TO.P,U2,8,GND*%
%TO.N,/GND*%
X53340000Y-57150000D03*
%TO.P,U2,9,E1*%
%TO.N,/~{IRIN}*%
X53340000Y-49530000D03*
%TO.P,U2,10,E2*%
X50800000Y-49530000D03*
%TO.P,U2,11,D3*%
%TO.N,/BUS_4*%
X48260000Y-49530000D03*
%TO.P,U2,12,D2*%
%TO.N,/BUS_5*%
X45720000Y-49530000D03*
%TO.P,U2,13,D1*%
%TO.N,/BUS_6*%
X43180000Y-49530000D03*
%TO.P,U2,14,D0*%
%TO.N,/BUS_7*%
X40640000Y-49530000D03*
%TO.P,U2,15,Mr*%
%TO.N,/CLR*%
X38100000Y-49530000D03*
%TO.P,U2,16,VCC*%
%TO.N,/VCC*%
X35560000Y-49530000D03*
%TD*%
D15*
%TO.N,/CLK*%
X105410000Y-72390000D02*
X90185000Y-57165000D01*
X105410000Y-72390000D02*
X66040000Y-72390000D01*
X66040000Y-72390000D02*
X50800000Y-57150000D01*
X165400000Y-72390000D02*
X105410000Y-72390000D01*
%TO.N,/~{IRIN}*%
X96454511Y-45815489D02*
X92725000Y-49545000D01*
X92725000Y-49545000D02*
X90185000Y-49545000D01*
X166574511Y-45815489D02*
X96454511Y-45815489D01*
X57150000Y-53340000D02*
X53340000Y-49530000D01*
X167940000Y-44450000D02*
X166574511Y-45815489D01*
X53340000Y-49530000D02*
X50800000Y-49530000D01*
X86390000Y-53340000D02*
X57150000Y-53340000D01*
X90185000Y-49545000D02*
X86390000Y-53340000D01*
%TO.N,/CLR*%
X58420000Y-29210000D02*
X38100000Y-49530000D01*
X165400000Y-29210000D02*
X97820000Y-29210000D01*
X97820000Y-29210000D02*
X77485000Y-49545000D01*
X97820000Y-29210000D02*
X58420000Y-29210000D01*
%TD*%
%TA.AperFunction,Conductor*%
%TO.N,/GND*%
G36*
X166666628Y-25928002D02*
G01*
X166713121Y-25981658D01*
X166723225Y-26051932D01*
X166712795Y-26087049D01*
X166660688Y-26199305D01*
X166600989Y-26414570D01*
X166577251Y-26636695D01*
X166577548Y-26641848D01*
X166577548Y-26641851D01*
X166583011Y-26736590D01*
X166590110Y-26859715D01*
X166591247Y-26864761D01*
X166591248Y-26864767D01*
X166611119Y-26952939D01*
X166639222Y-27077639D01*
X166723266Y-27284616D01*
X166839987Y-27475088D01*
X166986250Y-27643938D01*
X167158126Y-27786632D01*
X167228595Y-27827811D01*
X167231445Y-27829476D01*
X167280169Y-27881114D01*
X167293240Y-27950897D01*
X167266509Y-28016669D01*
X167226055Y-28050027D01*
X167213607Y-28056507D01*
X167209474Y-28059610D01*
X167209471Y-28059612D01*
X167185247Y-28077800D01*
X167034965Y-28190635D01*
X166880629Y-28352138D01*
X166773201Y-28509621D01*
X166718293Y-28554621D01*
X166647768Y-28562792D01*
X166584021Y-28531538D01*
X166563324Y-28507054D01*
X166482822Y-28382617D01*
X166482820Y-28382614D01*
X166480014Y-28378277D01*
X166329670Y-28213051D01*
X166325619Y-28209852D01*
X166325615Y-28209848D01*
X166158414Y-28077800D01*
X166158410Y-28077798D01*
X166154359Y-28074598D01*
X165958789Y-27966638D01*
X165953920Y-27964914D01*
X165953916Y-27964912D01*
X165753087Y-27893795D01*
X165753083Y-27893794D01*
X165748212Y-27892069D01*
X165743119Y-27891162D01*
X165743116Y-27891161D01*
X165533373Y-27853800D01*
X165533367Y-27853799D01*
X165528284Y-27852894D01*
X165454452Y-27851992D01*
X165310081Y-27850228D01*
X165310079Y-27850228D01*
X165304911Y-27850165D01*
X165084091Y-27883955D01*
X164871756Y-27953357D01*
X164673607Y-28056507D01*
X164669474Y-28059610D01*
X164669471Y-28059612D01*
X164645247Y-28077800D01*
X164494965Y-28190635D01*
X164340629Y-28352138D01*
X164337720Y-28356403D01*
X164337714Y-28356411D01*
X164225095Y-28521504D01*
X164170184Y-28566507D01*
X164121007Y-28576500D01*
X97898767Y-28576500D01*
X97887584Y-28575973D01*
X97880091Y-28574298D01*
X97872165Y-28574547D01*
X97872164Y-28574547D01*
X97812001Y-28576438D01*
X97808043Y-28576500D01*
X58498768Y-28576500D01*
X58487585Y-28575973D01*
X58480092Y-28574298D01*
X58472166Y-28574547D01*
X58472165Y-28574547D01*
X58412002Y-28576438D01*
X58408044Y-28576500D01*
X58380144Y-28576500D01*
X58376154Y-28577004D01*
X58364320Y-28577936D01*
X58320111Y-28579326D01*
X58312495Y-28581539D01*
X58312493Y-28581539D01*
X58300652Y-28584979D01*
X58281293Y-28588988D01*
X58279983Y-28589154D01*
X58261203Y-28591526D01*
X58253837Y-28594442D01*
X58253831Y-28594444D01*
X58220098Y-28607800D01*
X58208868Y-28611645D01*
X58174017Y-28621770D01*
X58166407Y-28623981D01*
X58159584Y-28628016D01*
X58148966Y-28634295D01*
X58131213Y-28642992D01*
X58123568Y-28646019D01*
X58112383Y-28650448D01*
X58105968Y-28655109D01*
X58076612Y-28676437D01*
X58066695Y-28682951D01*
X58028638Y-28705458D01*
X58014317Y-28719779D01*
X57999284Y-28732619D01*
X57982893Y-28744528D01*
X57977842Y-28750634D01*
X57954702Y-28778605D01*
X57946712Y-28787384D01*
X38808815Y-47925280D01*
X38746503Y-47959306D01*
X38675688Y-47954241D01*
X38666483Y-47950386D01*
X38549243Y-47895716D01*
X38543935Y-47894294D01*
X38543933Y-47894293D01*
X38333402Y-47837881D01*
X38333400Y-47837881D01*
X38328087Y-47836457D01*
X38100000Y-47816502D01*
X37871913Y-47836457D01*
X37866600Y-47837881D01*
X37866598Y-47837881D01*
X37656067Y-47894293D01*
X37656065Y-47894294D01*
X37650757Y-47895716D01*
X37645776Y-47898039D01*
X37645775Y-47898039D01*
X37448238Y-47990151D01*
X37448233Y-47990154D01*
X37443251Y-47992477D01*
X37393192Y-48027529D01*
X37260211Y-48120643D01*
X37260208Y-48120645D01*
X37255700Y-48123802D01*
X37093802Y-48285700D01*
X37090645Y-48290208D01*
X37090643Y-48290211D01*
X37083299Y-48300700D01*
X36962477Y-48473251D01*
X36960154Y-48478233D01*
X36960151Y-48478238D01*
X36944195Y-48512457D01*
X36897278Y-48565742D01*
X36829001Y-48585203D01*
X36761041Y-48564661D01*
X36715805Y-48512457D01*
X36699849Y-48478238D01*
X36699846Y-48478233D01*
X36697523Y-48473251D01*
X36576701Y-48300700D01*
X36569357Y-48290211D01*
X36569355Y-48290208D01*
X36566198Y-48285700D01*
X36404300Y-48123802D01*
X36399792Y-48120645D01*
X36399789Y-48120643D01*
X36266808Y-48027529D01*
X36216749Y-47992477D01*
X36211767Y-47990154D01*
X36211762Y-47990151D01*
X36014225Y-47898039D01*
X36014224Y-47898039D01*
X36009243Y-47895716D01*
X36003935Y-47894294D01*
X36003933Y-47894293D01*
X35793402Y-47837881D01*
X35793400Y-47837881D01*
X35788087Y-47836457D01*
X35560000Y-47816502D01*
X35331913Y-47836457D01*
X35326600Y-47837881D01*
X35326598Y-47837881D01*
X35116067Y-47894293D01*
X35116065Y-47894294D01*
X35110757Y-47895716D01*
X35105776Y-47898039D01*
X35105775Y-47898039D01*
X34908238Y-47990151D01*
X34908233Y-47990154D01*
X34903251Y-47992477D01*
X34853192Y-48027529D01*
X34720211Y-48120643D01*
X34720208Y-48120645D01*
X34715700Y-48123802D01*
X34553802Y-48285700D01*
X34550645Y-48290208D01*
X34550643Y-48290211D01*
X34543299Y-48300700D01*
X34422477Y-48473251D01*
X34420154Y-48478233D01*
X34420151Y-48478238D01*
X34331478Y-48668401D01*
X34325716Y-48680757D01*
X34324294Y-48686065D01*
X34324293Y-48686067D01*
X34279955Y-48851538D01*
X34266457Y-48901913D01*
X34251500Y-49072873D01*
X34251500Y-49987127D01*
X34251738Y-49989844D01*
X34251738Y-49989851D01*
X34255815Y-50036453D01*
X34266457Y-50158087D01*
X34267881Y-50163400D01*
X34267881Y-50163402D01*
X34313885Y-50335088D01*
X34325716Y-50379243D01*
X34328039Y-50384224D01*
X34328039Y-50384225D01*
X34420151Y-50581762D01*
X34420154Y-50581767D01*
X34422477Y-50586749D01*
X34471943Y-50657393D01*
X34501013Y-50698909D01*
X34553802Y-50774300D01*
X34715700Y-50936198D01*
X34720208Y-50939355D01*
X34720211Y-50939357D01*
X34798389Y-50994098D01*
X34903251Y-51067523D01*
X34908233Y-51069846D01*
X34908238Y-51069849D01*
X35032814Y-51127939D01*
X35110757Y-51164284D01*
X35116065Y-51165706D01*
X35116067Y-51165707D01*
X35326598Y-51222119D01*
X35326600Y-51222119D01*
X35331913Y-51223543D01*
X35560000Y-51243498D01*
X35788087Y-51223543D01*
X35793400Y-51222119D01*
X35793402Y-51222119D01*
X36003933Y-51165707D01*
X36003935Y-51165706D01*
X36009243Y-51164284D01*
X36087186Y-51127939D01*
X36211762Y-51069849D01*
X36211767Y-51069846D01*
X36216749Y-51067523D01*
X36321611Y-50994098D01*
X36399789Y-50939357D01*
X36399792Y-50939355D01*
X36404300Y-50936198D01*
X36566198Y-50774300D01*
X36618988Y-50698909D01*
X36648057Y-50657393D01*
X36697523Y-50586749D01*
X36699846Y-50581767D01*
X36699849Y-50581762D01*
X36715805Y-50547543D01*
X36762722Y-50494258D01*
X36830999Y-50474797D01*
X36898959Y-50495339D01*
X36944195Y-50547543D01*
X36960151Y-50581762D01*
X36960154Y-50581767D01*
X36962477Y-50586749D01*
X37011943Y-50657393D01*
X37041013Y-50698909D01*
X37093802Y-50774300D01*
X37255700Y-50936198D01*
X37260208Y-50939355D01*
X37260211Y-50939357D01*
X37338389Y-50994098D01*
X37443251Y-51067523D01*
X37448233Y-51069846D01*
X37448238Y-51069849D01*
X37572814Y-51127939D01*
X37650757Y-51164284D01*
X37656065Y-51165706D01*
X37656067Y-51165707D01*
X37866598Y-51222119D01*
X37866600Y-51222119D01*
X37871913Y-51223543D01*
X38100000Y-51243498D01*
X38328087Y-51223543D01*
X38333400Y-51222119D01*
X38333402Y-51222119D01*
X38543933Y-51165707D01*
X38543935Y-51165706D01*
X38549243Y-51164284D01*
X38627186Y-51127939D01*
X38751762Y-51069849D01*
X38751767Y-51069846D01*
X38756749Y-51067523D01*
X38861611Y-50994098D01*
X38939789Y-50939357D01*
X38939792Y-50939355D01*
X38944300Y-50936198D01*
X39106198Y-50774300D01*
X39158988Y-50698909D01*
X39188057Y-50657393D01*
X39237523Y-50586749D01*
X39239846Y-50581767D01*
X39239849Y-50581762D01*
X39255805Y-50547543D01*
X39302722Y-50494258D01*
X39370999Y-50474797D01*
X39438959Y-50495339D01*
X39484195Y-50547543D01*
X39500151Y-50581762D01*
X39500154Y-50581767D01*
X39502477Y-50586749D01*
X39551943Y-50657393D01*
X39581013Y-50698909D01*
X39633802Y-50774300D01*
X39795700Y-50936198D01*
X39800208Y-50939355D01*
X39800211Y-50939357D01*
X39878389Y-50994098D01*
X39983251Y-51067523D01*
X39988233Y-51069846D01*
X39988238Y-51069849D01*
X40112814Y-51127939D01*
X40190757Y-51164284D01*
X40196065Y-51165706D01*
X40196067Y-51165707D01*
X40406598Y-51222119D01*
X40406600Y-51222119D01*
X40411913Y-51223543D01*
X40640000Y-51243498D01*
X40868087Y-51223543D01*
X40873400Y-51222119D01*
X40873402Y-51222119D01*
X41083933Y-51165707D01*
X41083935Y-51165706D01*
X41089243Y-51164284D01*
X41167186Y-51127939D01*
X41291762Y-51069849D01*
X41291767Y-51069846D01*
X41296749Y-51067523D01*
X41401611Y-50994098D01*
X41479789Y-50939357D01*
X41479792Y-50939355D01*
X41484300Y-50936198D01*
X41646198Y-50774300D01*
X41698988Y-50698909D01*
X41728057Y-50657393D01*
X41777523Y-50586749D01*
X41779846Y-50581767D01*
X41779849Y-50581762D01*
X41795805Y-50547543D01*
X41842722Y-50494258D01*
X41910999Y-50474797D01*
X41978959Y-50495339D01*
X42024195Y-50547543D01*
X42040151Y-50581762D01*
X42040154Y-50581767D01*
X42042477Y-50586749D01*
X42091943Y-50657393D01*
X42121013Y-50698909D01*
X42173802Y-50774300D01*
X42335700Y-50936198D01*
X42340208Y-50939355D01*
X42340211Y-50939357D01*
X42418389Y-50994098D01*
X42523251Y-51067523D01*
X42528233Y-51069846D01*
X42528238Y-51069849D01*
X42652814Y-51127939D01*
X42730757Y-51164284D01*
X42736065Y-51165706D01*
X42736067Y-51165707D01*
X42946598Y-51222119D01*
X42946600Y-51222119D01*
X42951913Y-51223543D01*
X43180000Y-51243498D01*
X43408087Y-51223543D01*
X43413400Y-51222119D01*
X43413402Y-51222119D01*
X43623933Y-51165707D01*
X43623935Y-51165706D01*
X43629243Y-51164284D01*
X43707186Y-51127939D01*
X43831762Y-51069849D01*
X43831767Y-51069846D01*
X43836749Y-51067523D01*
X43941611Y-50994098D01*
X44019789Y-50939357D01*
X44019792Y-50939355D01*
X44024300Y-50936198D01*
X44186198Y-50774300D01*
X44238988Y-50698909D01*
X44268057Y-50657393D01*
X44317523Y-50586749D01*
X44319846Y-50581767D01*
X44319849Y-50581762D01*
X44335805Y-50547543D01*
X44382722Y-50494258D01*
X44450999Y-50474797D01*
X44518959Y-50495339D01*
X44564195Y-50547543D01*
X44580151Y-50581762D01*
X44580154Y-50581767D01*
X44582477Y-50586749D01*
X44631943Y-50657393D01*
X44661013Y-50698909D01*
X44713802Y-50774300D01*
X44875700Y-50936198D01*
X44880208Y-50939355D01*
X44880211Y-50939357D01*
X44958389Y-50994098D01*
X45063251Y-51067523D01*
X45068233Y-51069846D01*
X45068238Y-51069849D01*
X45192814Y-51127939D01*
X45270757Y-51164284D01*
X45276065Y-51165706D01*
X45276067Y-51165707D01*
X45486598Y-51222119D01*
X45486600Y-51222119D01*
X45491913Y-51223543D01*
X45720000Y-51243498D01*
X45948087Y-51223543D01*
X45953400Y-51222119D01*
X45953402Y-51222119D01*
X46163933Y-51165707D01*
X46163935Y-51165706D01*
X46169243Y-51164284D01*
X46247186Y-51127939D01*
X46371762Y-51069849D01*
X46371767Y-51069846D01*
X46376749Y-51067523D01*
X46481611Y-50994098D01*
X46559789Y-50939357D01*
X46559792Y-50939355D01*
X46564300Y-50936198D01*
X46726198Y-50774300D01*
X46778988Y-50698909D01*
X46808057Y-50657393D01*
X46857523Y-50586749D01*
X46859846Y-50581767D01*
X46859849Y-50581762D01*
X46875805Y-50547543D01*
X46922722Y-50494258D01*
X46990999Y-50474797D01*
X47058959Y-50495339D01*
X47104195Y-50547543D01*
X47120151Y-50581762D01*
X47120154Y-50581767D01*
X47122477Y-50586749D01*
X47171943Y-50657393D01*
X47201013Y-50698909D01*
X47253802Y-50774300D01*
X47415700Y-50936198D01*
X47420208Y-50939355D01*
X47420211Y-50939357D01*
X47498389Y-50994098D01*
X47603251Y-51067523D01*
X47608233Y-51069846D01*
X47608238Y-51069849D01*
X47732814Y-51127939D01*
X47810757Y-51164284D01*
X47816065Y-51165706D01*
X47816067Y-51165707D01*
X48026598Y-51222119D01*
X48026600Y-51222119D01*
X48031913Y-51223543D01*
X48260000Y-51243498D01*
X48488087Y-51223543D01*
X48493400Y-51222119D01*
X48493402Y-51222119D01*
X48703933Y-51165707D01*
X48703935Y-51165706D01*
X48709243Y-51164284D01*
X48787186Y-51127939D01*
X48911762Y-51069849D01*
X48911767Y-51069846D01*
X48916749Y-51067523D01*
X49021611Y-50994098D01*
X49099789Y-50939357D01*
X49099792Y-50939355D01*
X49104300Y-50936198D01*
X49266198Y-50774300D01*
X49318988Y-50698909D01*
X49348057Y-50657393D01*
X49397523Y-50586749D01*
X49399846Y-50581767D01*
X49399849Y-50581762D01*
X49415805Y-50547543D01*
X49462722Y-50494258D01*
X49530999Y-50474797D01*
X49598959Y-50495339D01*
X49644195Y-50547543D01*
X49660151Y-50581762D01*
X49660154Y-50581767D01*
X49662477Y-50586749D01*
X49711943Y-50657393D01*
X49741013Y-50698909D01*
X49793802Y-50774300D01*
X49955700Y-50936198D01*
X49960208Y-50939355D01*
X49960211Y-50939357D01*
X50038389Y-50994098D01*
X50143251Y-51067523D01*
X50148233Y-51069846D01*
X50148238Y-51069849D01*
X50272814Y-51127939D01*
X50350757Y-51164284D01*
X50356065Y-51165706D01*
X50356067Y-51165707D01*
X50566598Y-51222119D01*
X50566600Y-51222119D01*
X50571913Y-51223543D01*
X50800000Y-51243498D01*
X51028087Y-51223543D01*
X51033400Y-51222119D01*
X51033402Y-51222119D01*
X51243933Y-51165707D01*
X51243935Y-51165706D01*
X51249243Y-51164284D01*
X51327186Y-51127939D01*
X51451762Y-51069849D01*
X51451767Y-51069846D01*
X51456749Y-51067523D01*
X51561611Y-50994098D01*
X51639789Y-50939357D01*
X51639792Y-50939355D01*
X51644300Y-50936198D01*
X51806198Y-50774300D01*
X51858988Y-50698909D01*
X51888057Y-50657393D01*
X51937523Y-50586749D01*
X51939846Y-50581767D01*
X51939849Y-50581762D01*
X51955805Y-50547543D01*
X52002722Y-50494258D01*
X52070999Y-50474797D01*
X52138959Y-50495339D01*
X52184195Y-50547543D01*
X52200151Y-50581762D01*
X52200154Y-50581767D01*
X52202477Y-50586749D01*
X52251943Y-50657393D01*
X52281013Y-50698909D01*
X52333802Y-50774300D01*
X52495700Y-50936198D01*
X52500208Y-50939355D01*
X52500211Y-50939357D01*
X52578389Y-50994098D01*
X52683251Y-51067523D01*
X52688233Y-51069846D01*
X52688238Y-51069849D01*
X52812814Y-51127939D01*
X52890757Y-51164284D01*
X52896065Y-51165706D01*
X52896067Y-51165707D01*
X53106598Y-51222119D01*
X53106600Y-51222119D01*
X53111913Y-51223543D01*
X53340000Y-51243498D01*
X53568087Y-51223543D01*
X53573400Y-51222119D01*
X53573402Y-51222119D01*
X53678665Y-51193914D01*
X53789243Y-51164284D01*
X53794228Y-51161959D01*
X53794232Y-51161958D01*
X53906472Y-51109620D01*
X53976663Y-51098959D01*
X54041476Y-51127939D01*
X54048816Y-51134720D01*
X56646343Y-53732247D01*
X56653887Y-53740537D01*
X56658000Y-53747018D01*
X56663777Y-53752443D01*
X56707667Y-53793658D01*
X56710509Y-53796413D01*
X56730231Y-53816135D01*
X56733355Y-53818558D01*
X56733359Y-53818562D01*
X56733424Y-53818612D01*
X56742445Y-53826317D01*
X56774679Y-53856586D01*
X56781627Y-53860405D01*
X56781629Y-53860407D01*
X56792432Y-53866346D01*
X56808959Y-53877202D01*
X56818698Y-53884757D01*
X56818700Y-53884758D01*
X56824960Y-53889614D01*
X56865540Y-53907174D01*
X56876188Y-53912391D01*
X56900976Y-53926018D01*
X56914940Y-53933695D01*
X56922616Y-53935666D01*
X56922619Y-53935667D01*
X56934562Y-53938733D01*
X56953267Y-53945137D01*
X56971855Y-53953181D01*
X56979678Y-53954420D01*
X56979688Y-53954423D01*
X57015524Y-53960099D01*
X57027144Y-53962505D01*
X57058959Y-53970673D01*
X57069970Y-53973500D01*
X57090224Y-53973500D01*
X57109934Y-53975051D01*
X57129943Y-53978220D01*
X57137835Y-53977474D01*
X57156580Y-53975702D01*
X57173962Y-53974059D01*
X57185819Y-53973500D01*
X86311233Y-53973500D01*
X86322416Y-53974027D01*
X86329909Y-53975702D01*
X86337835Y-53975453D01*
X86337836Y-53975453D01*
X86397986Y-53973562D01*
X86401945Y-53973500D01*
X86429856Y-53973500D01*
X86433791Y-53973003D01*
X86433856Y-53972995D01*
X86445693Y-53972062D01*
X86477951Y-53971048D01*
X86481970Y-53970922D01*
X86489889Y-53970673D01*
X86509343Y-53965021D01*
X86528700Y-53961013D01*
X86540930Y-53959468D01*
X86540931Y-53959468D01*
X86548797Y-53958474D01*
X86556168Y-53955555D01*
X86556170Y-53955555D01*
X86589912Y-53942196D01*
X86601142Y-53938351D01*
X86635983Y-53928229D01*
X86635984Y-53928229D01*
X86643593Y-53926018D01*
X86650412Y-53921985D01*
X86650417Y-53921983D01*
X86661028Y-53915707D01*
X86678776Y-53907012D01*
X86697617Y-53899552D01*
X86733387Y-53873564D01*
X86743307Y-53867048D01*
X86774535Y-53848580D01*
X86774538Y-53848578D01*
X86781362Y-53844542D01*
X86795683Y-53830221D01*
X86810717Y-53817380D01*
X86812431Y-53816135D01*
X86827107Y-53805472D01*
X86855298Y-53771395D01*
X86863288Y-53762616D01*
X89476184Y-51149720D01*
X89538496Y-51115694D01*
X89609311Y-51120759D01*
X89618528Y-51124620D01*
X89730768Y-51176958D01*
X89730772Y-51176959D01*
X89735757Y-51179284D01*
X89741079Y-51180710D01*
X89951598Y-51237119D01*
X89951600Y-51237119D01*
X89956913Y-51238543D01*
X90185000Y-51258498D01*
X90413087Y-51238543D01*
X90418400Y-51237119D01*
X90418402Y-51237119D01*
X90628933Y-51180707D01*
X90628935Y-51180706D01*
X90634243Y-51179284D01*
X90663357Y-51165708D01*
X90836762Y-51084849D01*
X90836767Y-51084846D01*
X90841749Y-51082523D01*
X90946611Y-51009098D01*
X91024789Y-50954357D01*
X91024792Y-50954355D01*
X91029300Y-50951198D01*
X91191198Y-50789300D01*
X91198973Y-50778197D01*
X91261096Y-50689476D01*
X91322523Y-50601749D01*
X91324846Y-50596767D01*
X91324849Y-50596762D01*
X91340805Y-50562543D01*
X91387722Y-50509258D01*
X91455999Y-50489797D01*
X91523959Y-50510339D01*
X91569195Y-50562543D01*
X91585151Y-50596762D01*
X91585154Y-50596767D01*
X91587477Y-50601749D01*
X91648904Y-50689476D01*
X91711028Y-50778197D01*
X91718802Y-50789300D01*
X91880700Y-50951198D01*
X91885208Y-50954355D01*
X91885211Y-50954357D01*
X91963389Y-51009098D01*
X92068251Y-51082523D01*
X92073233Y-51084846D01*
X92073238Y-51084849D01*
X92246643Y-51165708D01*
X92275757Y-51179284D01*
X92281065Y-51180706D01*
X92281067Y-51180707D01*
X92491598Y-51237119D01*
X92491600Y-51237119D01*
X92496913Y-51238543D01*
X92725000Y-51258498D01*
X92953087Y-51238543D01*
X92958400Y-51237119D01*
X92958402Y-51237119D01*
X93168933Y-51180707D01*
X93168935Y-51180706D01*
X93174243Y-51179284D01*
X93203357Y-51165708D01*
X93376762Y-51084849D01*
X93376767Y-51084846D01*
X93381749Y-51082523D01*
X93486611Y-51009098D01*
X93564789Y-50954357D01*
X93564792Y-50954355D01*
X93569300Y-50951198D01*
X93731198Y-50789300D01*
X93738973Y-50778197D01*
X93801096Y-50689476D01*
X93862523Y-50601749D01*
X93864846Y-50596767D01*
X93864849Y-50596762D01*
X93956961Y-50399225D01*
X93956961Y-50399224D01*
X93959284Y-50394243D01*
X93961969Y-50384225D01*
X94017119Y-50178402D01*
X94017119Y-50178400D01*
X94018543Y-50173087D01*
X94030904Y-50031803D01*
X94033262Y-50004851D01*
X94033262Y-50004844D01*
X94033500Y-50002127D01*
X94033500Y-49184594D01*
X94053502Y-49116473D01*
X94070405Y-49095499D01*
X96680011Y-46485894D01*
X96742323Y-46451868D01*
X96769106Y-46448989D01*
X163974490Y-46448989D01*
X164042611Y-46468991D01*
X164089104Y-46522647D01*
X164099208Y-46592921D01*
X164095907Y-46608661D01*
X164060989Y-46734570D01*
X164037251Y-46956695D01*
X164037548Y-46961848D01*
X164037548Y-46961851D01*
X164043011Y-47056590D01*
X164050110Y-47179715D01*
X164051247Y-47184761D01*
X164051248Y-47184767D01*
X164071119Y-47272939D01*
X164099222Y-47397639D01*
X164183266Y-47604616D01*
X164231841Y-47683883D01*
X164297291Y-47790688D01*
X164299987Y-47795088D01*
X164446250Y-47963938D01*
X164618126Y-48106632D01*
X164642103Y-48120643D01*
X164691445Y-48149476D01*
X164740169Y-48201114D01*
X164753240Y-48270897D01*
X164726509Y-48336669D01*
X164686055Y-48370027D01*
X164673607Y-48376507D01*
X164669474Y-48379610D01*
X164669471Y-48379612D01*
X164499100Y-48507530D01*
X164494965Y-48510635D01*
X164340629Y-48672138D01*
X164337720Y-48676403D01*
X164337714Y-48676411D01*
X164331127Y-48686067D01*
X164214743Y-48856680D01*
X164120688Y-49059305D01*
X164060989Y-49274570D01*
X164037251Y-49496695D01*
X164037548Y-49501848D01*
X164037548Y-49501851D01*
X164043011Y-49596590D01*
X164050110Y-49719715D01*
X164051247Y-49724761D01*
X164051248Y-49724767D01*
X164055951Y-49745634D01*
X164099222Y-49937639D01*
X164183266Y-50144616D01*
X164228691Y-50218743D01*
X164297291Y-50330688D01*
X164299987Y-50335088D01*
X164446250Y-50503938D01*
X164618126Y-50646632D01*
X164688595Y-50687811D01*
X164691445Y-50689476D01*
X164740169Y-50741114D01*
X164753240Y-50810897D01*
X164726509Y-50876669D01*
X164686055Y-50910027D01*
X164673607Y-50916507D01*
X164669474Y-50919610D01*
X164669471Y-50919612D01*
X164623195Y-50954357D01*
X164494965Y-51050635D01*
X164445299Y-51102607D01*
X164384999Y-51165708D01*
X164340629Y-51212138D01*
X164337720Y-51216403D01*
X164337714Y-51216411D01*
X164284633Y-51294225D01*
X164214743Y-51396680D01*
X164120688Y-51599305D01*
X164060989Y-51814570D01*
X164037251Y-52036695D01*
X164037548Y-52041848D01*
X164037548Y-52041851D01*
X164042835Y-52133543D01*
X164050110Y-52259715D01*
X164051247Y-52264761D01*
X164051248Y-52264767D01*
X164071119Y-52352939D01*
X164099222Y-52477639D01*
X164137461Y-52571811D01*
X164177167Y-52669595D01*
X164183266Y-52684616D01*
X164234019Y-52767438D01*
X164297291Y-52870688D01*
X164299987Y-52875088D01*
X164446250Y-53043938D01*
X164618126Y-53186632D01*
X164688595Y-53227811D01*
X164691445Y-53229476D01*
X164740169Y-53281114D01*
X164753240Y-53350897D01*
X164726509Y-53416669D01*
X164686055Y-53450027D01*
X164673607Y-53456507D01*
X164669474Y-53459610D01*
X164669471Y-53459612D01*
X164645247Y-53477800D01*
X164494965Y-53590635D01*
X164491393Y-53594373D01*
X164353667Y-53738495D01*
X164340629Y-53752138D01*
X164337720Y-53756403D01*
X164337714Y-53756411D01*
X164287364Y-53830221D01*
X164214743Y-53936680D01*
X164120688Y-54139305D01*
X164060989Y-54354570D01*
X164037251Y-54576695D01*
X164037548Y-54581848D01*
X164037548Y-54581851D01*
X164043011Y-54676590D01*
X164050110Y-54799715D01*
X164051247Y-54804761D01*
X164051248Y-54804767D01*
X164071119Y-54892939D01*
X164099222Y-55017639D01*
X164183266Y-55224616D01*
X164234019Y-55307438D01*
X164297291Y-55410688D01*
X164299987Y-55415088D01*
X164446250Y-55583938D01*
X164618126Y-55726632D01*
X164642103Y-55740643D01*
X164691445Y-55769476D01*
X164740169Y-55821114D01*
X164753240Y-55890897D01*
X164726509Y-55956669D01*
X164686055Y-55990027D01*
X164673607Y-55996507D01*
X164669474Y-55999610D01*
X164669471Y-55999612D01*
X164499100Y-56127530D01*
X164494965Y-56130635D01*
X164340629Y-56292138D01*
X164337720Y-56296403D01*
X164337714Y-56296411D01*
X164331127Y-56306067D01*
X164214743Y-56476680D01*
X164120688Y-56679305D01*
X164060989Y-56894570D01*
X164037251Y-57116695D01*
X164037548Y-57121848D01*
X164037548Y-57121851D01*
X164043011Y-57216590D01*
X164050110Y-57339715D01*
X164051247Y-57344761D01*
X164051248Y-57344767D01*
X164071119Y-57432939D01*
X164099222Y-57557639D01*
X164183266Y-57764616D01*
X164234019Y-57847438D01*
X164297291Y-57950688D01*
X164299987Y-57955088D01*
X164446250Y-58123938D01*
X164618126Y-58266632D01*
X164688595Y-58307811D01*
X164691445Y-58309476D01*
X164740169Y-58361114D01*
X164753240Y-58430897D01*
X164726509Y-58496669D01*
X164686055Y-58530027D01*
X164673607Y-58536507D01*
X164669474Y-58539610D01*
X164669471Y-58539612D01*
X164623195Y-58574357D01*
X164494965Y-58670635D01*
X164438598Y-58729620D01*
X164384999Y-58785708D01*
X164340629Y-58832138D01*
X164214743Y-59016680D01*
X164120688Y-59219305D01*
X164060989Y-59434570D01*
X164037251Y-59656695D01*
X164037548Y-59661848D01*
X164037548Y-59661851D01*
X164043011Y-59756590D01*
X164050110Y-59879715D01*
X164051247Y-59884761D01*
X164051248Y-59884767D01*
X164071119Y-59972939D01*
X164099222Y-60097639D01*
X164183266Y-60304616D01*
X164234019Y-60387438D01*
X164297291Y-60490688D01*
X164299987Y-60495088D01*
X164446250Y-60663938D01*
X164618126Y-60806632D01*
X164688595Y-60847811D01*
X164691445Y-60849476D01*
X164740169Y-60901114D01*
X164753240Y-60970897D01*
X164726509Y-61036669D01*
X164686055Y-61070027D01*
X164673607Y-61076507D01*
X164669474Y-61079610D01*
X164669471Y-61079612D01*
X164645247Y-61097800D01*
X164494965Y-61210635D01*
X164340629Y-61372138D01*
X164214743Y-61556680D01*
X164120688Y-61759305D01*
X164060989Y-61974570D01*
X164037251Y-62196695D01*
X164037548Y-62201848D01*
X164037548Y-62201851D01*
X164043011Y-62296590D01*
X164050110Y-62419715D01*
X164051247Y-62424761D01*
X164051248Y-62424767D01*
X164071119Y-62512939D01*
X164099222Y-62637639D01*
X164183266Y-62844616D01*
X164234019Y-62927438D01*
X164297291Y-63030688D01*
X164299987Y-63035088D01*
X164446250Y-63203938D01*
X164618126Y-63346632D01*
X164688595Y-63387811D01*
X164691445Y-63389476D01*
X164740169Y-63441114D01*
X164753240Y-63510897D01*
X164726509Y-63576669D01*
X164686055Y-63610027D01*
X164673607Y-63616507D01*
X164669474Y-63619610D01*
X164669471Y-63619612D01*
X164645247Y-63637800D01*
X164494965Y-63750635D01*
X164340629Y-63912138D01*
X164214743Y-64096680D01*
X164120688Y-64299305D01*
X164060989Y-64514570D01*
X164037251Y-64736695D01*
X164037548Y-64741848D01*
X164037548Y-64741851D01*
X164043011Y-64836590D01*
X164050110Y-64959715D01*
X164051247Y-64964761D01*
X164051248Y-64964767D01*
X164071119Y-65052939D01*
X164099222Y-65177639D01*
X164183266Y-65384616D01*
X164234019Y-65467438D01*
X164297291Y-65570688D01*
X164299987Y-65575088D01*
X164446250Y-65743938D01*
X164618126Y-65886632D01*
X164688595Y-65927811D01*
X164691445Y-65929476D01*
X164740169Y-65981114D01*
X164753240Y-66050897D01*
X164726509Y-66116669D01*
X164686055Y-66150027D01*
X164673607Y-66156507D01*
X164669474Y-66159610D01*
X164669471Y-66159612D01*
X164645247Y-66177800D01*
X164494965Y-66290635D01*
X164340629Y-66452138D01*
X164214743Y-66636680D01*
X164120688Y-66839305D01*
X164060989Y-67054570D01*
X164037251Y-67276695D01*
X164037548Y-67281848D01*
X164037548Y-67281851D01*
X164043011Y-67376590D01*
X164050110Y-67499715D01*
X164051247Y-67504761D01*
X164051248Y-67504767D01*
X164071119Y-67592939D01*
X164099222Y-67717639D01*
X164183266Y-67924616D01*
X164234019Y-68007438D01*
X164297291Y-68110688D01*
X164299987Y-68115088D01*
X164446250Y-68283938D01*
X164618126Y-68426632D01*
X164688595Y-68467811D01*
X164691445Y-68469476D01*
X164740169Y-68521114D01*
X164753240Y-68590897D01*
X164726509Y-68656669D01*
X164686055Y-68690027D01*
X164673607Y-68696507D01*
X164669474Y-68699610D01*
X164669471Y-68699612D01*
X164645247Y-68717800D01*
X164494965Y-68830635D01*
X164340629Y-68992138D01*
X164214743Y-69176680D01*
X164120688Y-69379305D01*
X164060989Y-69594570D01*
X164037251Y-69816695D01*
X164037548Y-69821848D01*
X164037548Y-69821851D01*
X164043011Y-69916590D01*
X164050110Y-70039715D01*
X164051247Y-70044761D01*
X164051248Y-70044767D01*
X164071119Y-70132939D01*
X164099222Y-70257639D01*
X164183266Y-70464616D01*
X164234019Y-70547438D01*
X164297291Y-70650688D01*
X164299987Y-70655088D01*
X164446250Y-70823938D01*
X164618126Y-70966632D01*
X164682276Y-71004118D01*
X164691445Y-71009476D01*
X164740169Y-71061114D01*
X164753240Y-71130897D01*
X164726509Y-71196669D01*
X164686055Y-71230027D01*
X164673607Y-71236507D01*
X164669474Y-71239610D01*
X164669471Y-71239612D01*
X164545600Y-71332617D01*
X164494965Y-71370635D01*
X164491393Y-71374373D01*
X164388984Y-71481538D01*
X164340629Y-71532138D01*
X164337720Y-71536403D01*
X164337714Y-71536411D01*
X164225095Y-71701504D01*
X164170184Y-71746507D01*
X164121007Y-71756500D01*
X105724595Y-71756500D01*
X105656474Y-71736498D01*
X105635500Y-71719595D01*
X91530405Y-57614500D01*
X91496379Y-57552188D01*
X91493500Y-57525405D01*
X91493500Y-56707873D01*
X91492428Y-56695613D01*
X91479022Y-56542393D01*
X91478543Y-56536913D01*
X91463662Y-56481375D01*
X91420707Y-56321067D01*
X91420706Y-56321065D01*
X91419284Y-56315757D01*
X91414766Y-56306067D01*
X91324849Y-56113238D01*
X91324846Y-56113233D01*
X91322523Y-56108251D01*
X91191198Y-55920700D01*
X91029300Y-55758802D01*
X91024792Y-55755645D01*
X91024789Y-55755643D01*
X90946611Y-55700902D01*
X90841749Y-55627477D01*
X90836767Y-55625154D01*
X90836762Y-55625151D01*
X90639225Y-55533039D01*
X90639224Y-55533039D01*
X90634243Y-55530716D01*
X90628935Y-55529294D01*
X90628933Y-55529293D01*
X90418402Y-55472881D01*
X90418400Y-55472881D01*
X90413087Y-55471457D01*
X90185000Y-55451502D01*
X89956913Y-55471457D01*
X89951600Y-55472881D01*
X89951598Y-55472881D01*
X89741067Y-55529293D01*
X89741065Y-55529294D01*
X89735757Y-55530716D01*
X89730776Y-55533039D01*
X89730775Y-55533039D01*
X89533238Y-55625151D01*
X89533233Y-55625154D01*
X89528251Y-55627477D01*
X89423389Y-55700902D01*
X89345211Y-55755643D01*
X89345208Y-55755645D01*
X89340700Y-55758802D01*
X89178802Y-55920700D01*
X89047477Y-56108251D01*
X89045154Y-56113233D01*
X89045151Y-56113238D01*
X89029195Y-56147457D01*
X88982278Y-56200742D01*
X88914001Y-56220203D01*
X88846041Y-56199661D01*
X88800805Y-56147457D01*
X88784849Y-56113238D01*
X88784846Y-56113233D01*
X88782523Y-56108251D01*
X88651198Y-55920700D01*
X88489300Y-55758802D01*
X88484792Y-55755645D01*
X88484789Y-55755643D01*
X88406611Y-55700902D01*
X88301749Y-55627477D01*
X88296767Y-55625154D01*
X88296762Y-55625151D01*
X88099225Y-55533039D01*
X88099224Y-55533039D01*
X88094243Y-55530716D01*
X88088935Y-55529294D01*
X88088933Y-55529293D01*
X87878402Y-55472881D01*
X87878400Y-55472881D01*
X87873087Y-55471457D01*
X87645000Y-55451502D01*
X87416913Y-55471457D01*
X87411600Y-55472881D01*
X87411598Y-55472881D01*
X87201067Y-55529293D01*
X87201065Y-55529294D01*
X87195757Y-55530716D01*
X87190776Y-55533039D01*
X87190775Y-55533039D01*
X86993238Y-55625151D01*
X86993233Y-55625154D01*
X86988251Y-55627477D01*
X86883389Y-55700902D01*
X86805211Y-55755643D01*
X86805208Y-55755645D01*
X86800700Y-55758802D01*
X86638802Y-55920700D01*
X86507477Y-56108251D01*
X86505154Y-56113233D01*
X86505151Y-56113238D01*
X86489195Y-56147457D01*
X86442278Y-56200742D01*
X86374001Y-56220203D01*
X86306041Y-56199661D01*
X86260805Y-56147457D01*
X86244849Y-56113238D01*
X86244846Y-56113233D01*
X86242523Y-56108251D01*
X86111198Y-55920700D01*
X85949300Y-55758802D01*
X85944792Y-55755645D01*
X85944789Y-55755643D01*
X85866611Y-55700902D01*
X85761749Y-55627477D01*
X85756767Y-55625154D01*
X85756762Y-55625151D01*
X85559225Y-55533039D01*
X85559224Y-55533039D01*
X85554243Y-55530716D01*
X85548935Y-55529294D01*
X85548933Y-55529293D01*
X85338402Y-55472881D01*
X85338400Y-55472881D01*
X85333087Y-55471457D01*
X85105000Y-55451502D01*
X84876913Y-55471457D01*
X84871600Y-55472881D01*
X84871598Y-55472881D01*
X84661067Y-55529293D01*
X84661065Y-55529294D01*
X84655757Y-55530716D01*
X84650776Y-55533039D01*
X84650775Y-55533039D01*
X84453238Y-55625151D01*
X84453233Y-55625154D01*
X84448251Y-55627477D01*
X84343389Y-55700902D01*
X84265211Y-55755643D01*
X84265208Y-55755645D01*
X84260700Y-55758802D01*
X84098802Y-55920700D01*
X83967477Y-56108251D01*
X83965154Y-56113233D01*
X83965151Y-56113238D01*
X83949195Y-56147457D01*
X83902278Y-56200742D01*
X83834001Y-56220203D01*
X83766041Y-56199661D01*
X83720805Y-56147457D01*
X83704849Y-56113238D01*
X83704846Y-56113233D01*
X83702523Y-56108251D01*
X83571198Y-55920700D01*
X83409300Y-55758802D01*
X83404792Y-55755645D01*
X83404789Y-55755643D01*
X83326611Y-55700902D01*
X83221749Y-55627477D01*
X83216767Y-55625154D01*
X83216762Y-55625151D01*
X83019225Y-55533039D01*
X83019224Y-55533039D01*
X83014243Y-55530716D01*
X83008935Y-55529294D01*
X83008933Y-55529293D01*
X82798402Y-55472881D01*
X82798400Y-55472881D01*
X82793087Y-55471457D01*
X82565000Y-55451502D01*
X82336913Y-55471457D01*
X82331600Y-55472881D01*
X82331598Y-55472881D01*
X82121067Y-55529293D01*
X82121065Y-55529294D01*
X82115757Y-55530716D01*
X82110776Y-55533039D01*
X82110775Y-55533039D01*
X81913238Y-55625151D01*
X81913233Y-55625154D01*
X81908251Y-55627477D01*
X81803389Y-55700902D01*
X81725211Y-55755643D01*
X81725208Y-55755645D01*
X81720700Y-55758802D01*
X81558802Y-55920700D01*
X81427477Y-56108251D01*
X81425154Y-56113233D01*
X81425151Y-56113238D01*
X81409195Y-56147457D01*
X81362278Y-56200742D01*
X81294001Y-56220203D01*
X81226041Y-56199661D01*
X81180805Y-56147457D01*
X81164849Y-56113238D01*
X81164846Y-56113233D01*
X81162523Y-56108251D01*
X81031198Y-55920700D01*
X80869300Y-55758802D01*
X80864792Y-55755645D01*
X80864789Y-55755643D01*
X80786611Y-55700902D01*
X80681749Y-55627477D01*
X80676767Y-55625154D01*
X80676762Y-55625151D01*
X80479225Y-55533039D01*
X80479224Y-55533039D01*
X80474243Y-55530716D01*
X80468935Y-55529294D01*
X80468933Y-55529293D01*
X80258402Y-55472881D01*
X80258400Y-55472881D01*
X80253087Y-55471457D01*
X80025000Y-55451502D01*
X79796913Y-55471457D01*
X79791600Y-55472881D01*
X79791598Y-55472881D01*
X79581067Y-55529293D01*
X79581065Y-55529294D01*
X79575757Y-55530716D01*
X79570776Y-55533039D01*
X79570775Y-55533039D01*
X79373238Y-55625151D01*
X79373233Y-55625154D01*
X79368251Y-55627477D01*
X79263389Y-55700902D01*
X79185211Y-55755643D01*
X79185208Y-55755645D01*
X79180700Y-55758802D01*
X79018802Y-55920700D01*
X78887477Y-56108251D01*
X78885154Y-56113233D01*
X78885151Y-56113238D01*
X78795234Y-56306067D01*
X78790716Y-56315757D01*
X78789294Y-56321065D01*
X78789293Y-56321067D01*
X78746338Y-56481375D01*
X78731457Y-56536913D01*
X78730978Y-56542393D01*
X78717573Y-56695613D01*
X78716500Y-56707873D01*
X78716500Y-57622127D01*
X78716738Y-57624844D01*
X78716738Y-57624851D01*
X78719097Y-57651811D01*
X78731457Y-57793087D01*
X78732881Y-57798400D01*
X78732881Y-57798402D01*
X78788032Y-58004225D01*
X78790716Y-58014243D01*
X78793039Y-58019224D01*
X78793039Y-58019225D01*
X78885151Y-58216762D01*
X78885154Y-58216767D01*
X78887477Y-58221749D01*
X78918905Y-58266632D01*
X79011028Y-58398197D01*
X79018802Y-58409300D01*
X79180700Y-58571198D01*
X79185208Y-58574355D01*
X79185211Y-58574357D01*
X79263389Y-58629098D01*
X79368251Y-58702523D01*
X79373233Y-58704846D01*
X79373238Y-58704849D01*
X79546643Y-58785708D01*
X79575757Y-58799284D01*
X79581065Y-58800706D01*
X79581067Y-58800707D01*
X79791598Y-58857119D01*
X79791600Y-58857119D01*
X79796913Y-58858543D01*
X80025000Y-58878498D01*
X80253087Y-58858543D01*
X80258400Y-58857119D01*
X80258402Y-58857119D01*
X80468933Y-58800707D01*
X80468935Y-58800706D01*
X80474243Y-58799284D01*
X80503357Y-58785708D01*
X80676762Y-58704849D01*
X80676767Y-58704846D01*
X80681749Y-58702523D01*
X80786611Y-58629098D01*
X80864789Y-58574357D01*
X80864792Y-58574355D01*
X80869300Y-58571198D01*
X81031198Y-58409300D01*
X81038973Y-58398197D01*
X81131095Y-58266632D01*
X81162523Y-58221749D01*
X81164846Y-58216767D01*
X81164849Y-58216762D01*
X81180805Y-58182543D01*
X81227722Y-58129258D01*
X81295999Y-58109797D01*
X81363959Y-58130339D01*
X81409195Y-58182543D01*
X81425151Y-58216762D01*
X81425154Y-58216767D01*
X81427477Y-58221749D01*
X81458905Y-58266632D01*
X81551028Y-58398197D01*
X81558802Y-58409300D01*
X81720700Y-58571198D01*
X81725208Y-58574355D01*
X81725211Y-58574357D01*
X81803389Y-58629098D01*
X81908251Y-58702523D01*
X81913233Y-58704846D01*
X81913238Y-58704849D01*
X82086643Y-58785708D01*
X82115757Y-58799284D01*
X82121065Y-58800706D01*
X82121067Y-58800707D01*
X82331598Y-58857119D01*
X82331600Y-58857119D01*
X82336913Y-58858543D01*
X82565000Y-58878498D01*
X82793087Y-58858543D01*
X82798400Y-58857119D01*
X82798402Y-58857119D01*
X83008933Y-58800707D01*
X83008935Y-58800706D01*
X83014243Y-58799284D01*
X83043357Y-58785708D01*
X83216762Y-58704849D01*
X83216767Y-58704846D01*
X83221749Y-58702523D01*
X83326611Y-58629098D01*
X83404789Y-58574357D01*
X83404792Y-58574355D01*
X83409300Y-58571198D01*
X83571198Y-58409300D01*
X83578973Y-58398197D01*
X83671095Y-58266632D01*
X83702523Y-58221749D01*
X83704846Y-58216767D01*
X83704849Y-58216762D01*
X83720805Y-58182543D01*
X83767722Y-58129258D01*
X83835999Y-58109797D01*
X83903959Y-58130339D01*
X83949195Y-58182543D01*
X83965151Y-58216762D01*
X83965154Y-58216767D01*
X83967477Y-58221749D01*
X83998905Y-58266632D01*
X84091028Y-58398197D01*
X84098802Y-58409300D01*
X84260700Y-58571198D01*
X84265208Y-58574355D01*
X84265211Y-58574357D01*
X84343389Y-58629098D01*
X84448251Y-58702523D01*
X84453233Y-58704846D01*
X84453238Y-58704849D01*
X84626643Y-58785708D01*
X84655757Y-58799284D01*
X84661065Y-58800706D01*
X84661067Y-58800707D01*
X84871598Y-58857119D01*
X84871600Y-58857119D01*
X84876913Y-58858543D01*
X85105000Y-58878498D01*
X85333087Y-58858543D01*
X85338400Y-58857119D01*
X85338402Y-58857119D01*
X85548933Y-58800707D01*
X85548935Y-58800706D01*
X85554243Y-58799284D01*
X85583357Y-58785708D01*
X85756762Y-58704849D01*
X85756767Y-58704846D01*
X85761749Y-58702523D01*
X85866611Y-58629098D01*
X85944789Y-58574357D01*
X85944792Y-58574355D01*
X85949300Y-58571198D01*
X86111198Y-58409300D01*
X86118973Y-58398197D01*
X86211095Y-58266632D01*
X86242523Y-58221749D01*
X86244846Y-58216767D01*
X86244849Y-58216762D01*
X86260805Y-58182543D01*
X86307722Y-58129258D01*
X86375999Y-58109797D01*
X86443959Y-58130339D01*
X86489195Y-58182543D01*
X86505151Y-58216762D01*
X86505154Y-58216767D01*
X86507477Y-58221749D01*
X86538905Y-58266632D01*
X86631028Y-58398197D01*
X86638802Y-58409300D01*
X86800700Y-58571198D01*
X86805208Y-58574355D01*
X86805211Y-58574357D01*
X86883389Y-58629098D01*
X86988251Y-58702523D01*
X86993233Y-58704846D01*
X86993238Y-58704849D01*
X87166643Y-58785708D01*
X87195757Y-58799284D01*
X87201065Y-58800706D01*
X87201067Y-58800707D01*
X87411598Y-58857119D01*
X87411600Y-58857119D01*
X87416913Y-58858543D01*
X87645000Y-58878498D01*
X87873087Y-58858543D01*
X87878400Y-58857119D01*
X87878402Y-58857119D01*
X88088933Y-58800707D01*
X88088935Y-58800706D01*
X88094243Y-58799284D01*
X88123357Y-58785708D01*
X88296762Y-58704849D01*
X88296767Y-58704846D01*
X88301749Y-58702523D01*
X88406611Y-58629098D01*
X88484789Y-58574357D01*
X88484792Y-58574355D01*
X88489300Y-58571198D01*
X88651198Y-58409300D01*
X88658973Y-58398197D01*
X88751095Y-58266632D01*
X88782523Y-58221749D01*
X88784846Y-58216767D01*
X88784849Y-58216762D01*
X88800805Y-58182543D01*
X88847722Y-58129258D01*
X88915999Y-58109797D01*
X88983959Y-58130339D01*
X89029195Y-58182543D01*
X89045151Y-58216762D01*
X89045154Y-58216767D01*
X89047477Y-58221749D01*
X89078905Y-58266632D01*
X89171028Y-58398197D01*
X89178802Y-58409300D01*
X89340700Y-58571198D01*
X89345208Y-58574355D01*
X89345211Y-58574357D01*
X89423389Y-58629098D01*
X89528251Y-58702523D01*
X89533233Y-58704846D01*
X89533238Y-58704849D01*
X89706643Y-58785708D01*
X89735757Y-58799284D01*
X89741065Y-58800706D01*
X89741067Y-58800707D01*
X89951598Y-58857119D01*
X89951600Y-58857119D01*
X89956913Y-58858543D01*
X90185000Y-58878498D01*
X90413087Y-58858543D01*
X90418400Y-58857119D01*
X90418402Y-58857119D01*
X90525578Y-58828401D01*
X90634243Y-58799284D01*
X90639228Y-58796959D01*
X90639232Y-58796958D01*
X90751472Y-58744620D01*
X90821663Y-58733959D01*
X90886476Y-58762939D01*
X90893816Y-58769720D01*
X103665501Y-71541405D01*
X103699527Y-71603717D01*
X103694462Y-71674532D01*
X103651915Y-71731368D01*
X103585395Y-71756179D01*
X103576406Y-71756500D01*
X66354594Y-71756500D01*
X66286473Y-71736498D01*
X66265499Y-71719595D01*
X52145405Y-57599500D01*
X52111379Y-57537188D01*
X52108500Y-57510405D01*
X52108500Y-56692873D01*
X52093543Y-56521913D01*
X52080045Y-56471538D01*
X52035707Y-56306067D01*
X52035706Y-56306065D01*
X52034284Y-56300757D01*
X52028522Y-56288401D01*
X51939849Y-56098238D01*
X51939846Y-56098233D01*
X51937523Y-56093251D01*
X51816701Y-55920700D01*
X51809357Y-55910211D01*
X51809355Y-55910208D01*
X51806198Y-55905700D01*
X51644300Y-55743802D01*
X51639792Y-55740645D01*
X51639789Y-55740643D01*
X51506808Y-55647529D01*
X51456749Y-55612477D01*
X51451767Y-55610154D01*
X51451762Y-55610151D01*
X51254225Y-55518039D01*
X51254224Y-55518039D01*
X51249243Y-55515716D01*
X51243935Y-55514294D01*
X51243933Y-55514293D01*
X51033402Y-55457881D01*
X51033400Y-55457881D01*
X51028087Y-55456457D01*
X50800000Y-55436502D01*
X50571913Y-55456457D01*
X50566600Y-55457881D01*
X50566598Y-55457881D01*
X50356067Y-55514293D01*
X50356065Y-55514294D01*
X50350757Y-55515716D01*
X50345776Y-55518039D01*
X50345775Y-55518039D01*
X50148238Y-55610151D01*
X50148233Y-55610154D01*
X50143251Y-55612477D01*
X50093192Y-55647529D01*
X49960211Y-55740643D01*
X49960208Y-55740645D01*
X49955700Y-55743802D01*
X49793802Y-55905700D01*
X49790645Y-55910208D01*
X49790643Y-55910211D01*
X49783299Y-55920700D01*
X49662477Y-56093251D01*
X49660154Y-56098233D01*
X49660151Y-56098238D01*
X49644195Y-56132457D01*
X49597278Y-56185742D01*
X49529001Y-56205203D01*
X49461041Y-56184661D01*
X49415805Y-56132457D01*
X49399849Y-56098238D01*
X49399846Y-56098233D01*
X49397523Y-56093251D01*
X49276701Y-55920700D01*
X49269357Y-55910211D01*
X49269355Y-55910208D01*
X49266198Y-55905700D01*
X49104300Y-55743802D01*
X49099792Y-55740645D01*
X49099789Y-55740643D01*
X48966808Y-55647529D01*
X48916749Y-55612477D01*
X48911767Y-55610154D01*
X48911762Y-55610151D01*
X48714225Y-55518039D01*
X48714224Y-55518039D01*
X48709243Y-55515716D01*
X48703935Y-55514294D01*
X48703933Y-55514293D01*
X48493402Y-55457881D01*
X48493400Y-55457881D01*
X48488087Y-55456457D01*
X48260000Y-55436502D01*
X48031913Y-55456457D01*
X48026600Y-55457881D01*
X48026598Y-55457881D01*
X47816067Y-55514293D01*
X47816065Y-55514294D01*
X47810757Y-55515716D01*
X47805776Y-55518039D01*
X47805775Y-55518039D01*
X47608238Y-55610151D01*
X47608233Y-55610154D01*
X47603251Y-55612477D01*
X47553192Y-55647529D01*
X47420211Y-55740643D01*
X47420208Y-55740645D01*
X47415700Y-55743802D01*
X47253802Y-55905700D01*
X47250645Y-55910208D01*
X47250643Y-55910211D01*
X47243299Y-55920700D01*
X47122477Y-56093251D01*
X47120154Y-56098233D01*
X47120151Y-56098238D01*
X47104195Y-56132457D01*
X47057278Y-56185742D01*
X46989001Y-56205203D01*
X46921041Y-56184661D01*
X46875805Y-56132457D01*
X46859849Y-56098238D01*
X46859846Y-56098233D01*
X46857523Y-56093251D01*
X46736701Y-55920700D01*
X46729357Y-55910211D01*
X46729355Y-55910208D01*
X46726198Y-55905700D01*
X46564300Y-55743802D01*
X46559792Y-55740645D01*
X46559789Y-55740643D01*
X46426808Y-55647529D01*
X46376749Y-55612477D01*
X46371767Y-55610154D01*
X46371762Y-55610151D01*
X46174225Y-55518039D01*
X46174224Y-55518039D01*
X46169243Y-55515716D01*
X46163935Y-55514294D01*
X46163933Y-55514293D01*
X45953402Y-55457881D01*
X45953400Y-55457881D01*
X45948087Y-55456457D01*
X45720000Y-55436502D01*
X45491913Y-55456457D01*
X45486600Y-55457881D01*
X45486598Y-55457881D01*
X45276067Y-55514293D01*
X45276065Y-55514294D01*
X45270757Y-55515716D01*
X45265776Y-55518039D01*
X45265775Y-55518039D01*
X45068238Y-55610151D01*
X45068233Y-55610154D01*
X45063251Y-55612477D01*
X45013192Y-55647529D01*
X44880211Y-55740643D01*
X44880208Y-55740645D01*
X44875700Y-55743802D01*
X44713802Y-55905700D01*
X44710645Y-55910208D01*
X44710643Y-55910211D01*
X44703299Y-55920700D01*
X44582477Y-56093251D01*
X44580154Y-56098233D01*
X44580151Y-56098238D01*
X44564195Y-56132457D01*
X44517278Y-56185742D01*
X44449001Y-56205203D01*
X44381041Y-56184661D01*
X44335805Y-56132457D01*
X44319849Y-56098238D01*
X44319846Y-56098233D01*
X44317523Y-56093251D01*
X44196701Y-55920700D01*
X44189357Y-55910211D01*
X44189355Y-55910208D01*
X44186198Y-55905700D01*
X44024300Y-55743802D01*
X44019792Y-55740645D01*
X44019789Y-55740643D01*
X43886808Y-55647529D01*
X43836749Y-55612477D01*
X43831767Y-55610154D01*
X43831762Y-55610151D01*
X43634225Y-55518039D01*
X43634224Y-55518039D01*
X43629243Y-55515716D01*
X43623935Y-55514294D01*
X43623933Y-55514293D01*
X43413402Y-55457881D01*
X43413400Y-55457881D01*
X43408087Y-55456457D01*
X43180000Y-55436502D01*
X42951913Y-55456457D01*
X42946600Y-55457881D01*
X42946598Y-55457881D01*
X42736067Y-55514293D01*
X42736065Y-55514294D01*
X42730757Y-55515716D01*
X42725776Y-55518039D01*
X42725775Y-55518039D01*
X42528238Y-55610151D01*
X42528233Y-55610154D01*
X42523251Y-55612477D01*
X42473192Y-55647529D01*
X42340211Y-55740643D01*
X42340208Y-55740645D01*
X42335700Y-55743802D01*
X42173802Y-55905700D01*
X42170645Y-55910208D01*
X42170643Y-55910211D01*
X42163299Y-55920700D01*
X42042477Y-56093251D01*
X42040154Y-56098233D01*
X42040151Y-56098238D01*
X42024195Y-56132457D01*
X41977278Y-56185742D01*
X41909001Y-56205203D01*
X41841041Y-56184661D01*
X41795805Y-56132457D01*
X41779849Y-56098238D01*
X41779846Y-56098233D01*
X41777523Y-56093251D01*
X41656701Y-55920700D01*
X41649357Y-55910211D01*
X41649355Y-55910208D01*
X41646198Y-55905700D01*
X41484300Y-55743802D01*
X41479792Y-55740645D01*
X41479789Y-55740643D01*
X41346808Y-55647529D01*
X41296749Y-55612477D01*
X41291767Y-55610154D01*
X41291762Y-55610151D01*
X41094225Y-55518039D01*
X41094224Y-55518039D01*
X41089243Y-55515716D01*
X41083935Y-55514294D01*
X41083933Y-55514293D01*
X40873402Y-55457881D01*
X40873400Y-55457881D01*
X40868087Y-55456457D01*
X40640000Y-55436502D01*
X40411913Y-55456457D01*
X40406600Y-55457881D01*
X40406598Y-55457881D01*
X40196067Y-55514293D01*
X40196065Y-55514294D01*
X40190757Y-55515716D01*
X40185776Y-55518039D01*
X40185775Y-55518039D01*
X39988238Y-55610151D01*
X39988233Y-55610154D01*
X39983251Y-55612477D01*
X39933192Y-55647529D01*
X39800211Y-55740643D01*
X39800208Y-55740645D01*
X39795700Y-55743802D01*
X39633802Y-55905700D01*
X39630645Y-55910208D01*
X39630643Y-55910211D01*
X39623299Y-55920700D01*
X39502477Y-56093251D01*
X39500154Y-56098233D01*
X39500151Y-56098238D01*
X39411478Y-56288401D01*
X39405716Y-56300757D01*
X39404294Y-56306065D01*
X39404293Y-56306067D01*
X39359955Y-56471538D01*
X39346457Y-56521913D01*
X39331500Y-56692873D01*
X39331500Y-57607127D01*
X39331738Y-57609844D01*
X39331738Y-57609851D01*
X39334173Y-57637680D01*
X39346457Y-57778087D01*
X39347881Y-57783400D01*
X39347881Y-57783402D01*
X39393885Y-57955088D01*
X39405716Y-57999243D01*
X39408039Y-58004224D01*
X39408039Y-58004225D01*
X39500151Y-58201762D01*
X39500154Y-58201767D01*
X39502477Y-58206749D01*
X39544408Y-58266632D01*
X39581013Y-58318909D01*
X39633802Y-58394300D01*
X39795700Y-58556198D01*
X39800208Y-58559355D01*
X39800211Y-58559357D01*
X39878389Y-58614098D01*
X39983251Y-58687523D01*
X39988233Y-58689846D01*
X39988238Y-58689849D01*
X40112814Y-58747939D01*
X40190757Y-58784284D01*
X40196065Y-58785706D01*
X40196067Y-58785707D01*
X40406598Y-58842119D01*
X40406600Y-58842119D01*
X40411913Y-58843543D01*
X40640000Y-58863498D01*
X40868087Y-58843543D01*
X40873400Y-58842119D01*
X40873402Y-58842119D01*
X41083933Y-58785707D01*
X41083935Y-58785706D01*
X41089243Y-58784284D01*
X41167186Y-58747939D01*
X41291762Y-58689849D01*
X41291767Y-58689846D01*
X41296749Y-58687523D01*
X41401611Y-58614098D01*
X41479789Y-58559357D01*
X41479792Y-58559355D01*
X41484300Y-58556198D01*
X41646198Y-58394300D01*
X41698988Y-58318909D01*
X41735592Y-58266632D01*
X41777523Y-58206749D01*
X41779846Y-58201767D01*
X41779849Y-58201762D01*
X41795805Y-58167543D01*
X41842722Y-58114258D01*
X41910999Y-58094797D01*
X41978959Y-58115339D01*
X42024195Y-58167543D01*
X42040151Y-58201762D01*
X42040154Y-58201767D01*
X42042477Y-58206749D01*
X42084408Y-58266632D01*
X42121013Y-58318909D01*
X42173802Y-58394300D01*
X42335700Y-58556198D01*
X42340208Y-58559355D01*
X42340211Y-58559357D01*
X42418389Y-58614098D01*
X42523251Y-58687523D01*
X42528233Y-58689846D01*
X42528238Y-58689849D01*
X42652814Y-58747939D01*
X42730757Y-58784284D01*
X42736065Y-58785706D01*
X42736067Y-58785707D01*
X42946598Y-58842119D01*
X42946600Y-58842119D01*
X42951913Y-58843543D01*
X43180000Y-58863498D01*
X43408087Y-58843543D01*
X43413400Y-58842119D01*
X43413402Y-58842119D01*
X43623933Y-58785707D01*
X43623935Y-58785706D01*
X43629243Y-58784284D01*
X43707186Y-58747939D01*
X43831762Y-58689849D01*
X43831767Y-58689846D01*
X43836749Y-58687523D01*
X43941611Y-58614098D01*
X44019789Y-58559357D01*
X44019792Y-58559355D01*
X44024300Y-58556198D01*
X44186198Y-58394300D01*
X44238988Y-58318909D01*
X44275592Y-58266632D01*
X44317523Y-58206749D01*
X44319846Y-58201767D01*
X44319849Y-58201762D01*
X44335805Y-58167543D01*
X44382722Y-58114258D01*
X44450999Y-58094797D01*
X44518959Y-58115339D01*
X44564195Y-58167543D01*
X44580151Y-58201762D01*
X44580154Y-58201767D01*
X44582477Y-58206749D01*
X44624408Y-58266632D01*
X44661013Y-58318909D01*
X44713802Y-58394300D01*
X44875700Y-58556198D01*
X44880208Y-58559355D01*
X44880211Y-58559357D01*
X44958389Y-58614098D01*
X45063251Y-58687523D01*
X45068233Y-58689846D01*
X45068238Y-58689849D01*
X45192814Y-58747939D01*
X45270757Y-58784284D01*
X45276065Y-58785706D01*
X45276067Y-58785707D01*
X45486598Y-58842119D01*
X45486600Y-58842119D01*
X45491913Y-58843543D01*
X45720000Y-58863498D01*
X45948087Y-58843543D01*
X45953400Y-58842119D01*
X45953402Y-58842119D01*
X46163933Y-58785707D01*
X46163935Y-58785706D01*
X46169243Y-58784284D01*
X46247186Y-58747939D01*
X46371762Y-58689849D01*
X46371767Y-58689846D01*
X46376749Y-58687523D01*
X46481611Y-58614098D01*
X46559789Y-58559357D01*
X46559792Y-58559355D01*
X46564300Y-58556198D01*
X46726198Y-58394300D01*
X46778988Y-58318909D01*
X46815592Y-58266632D01*
X46857523Y-58206749D01*
X46859846Y-58201767D01*
X46859849Y-58201762D01*
X46875805Y-58167543D01*
X46922722Y-58114258D01*
X46990999Y-58094797D01*
X47058959Y-58115339D01*
X47104195Y-58167543D01*
X47120151Y-58201762D01*
X47120154Y-58201767D01*
X47122477Y-58206749D01*
X47164408Y-58266632D01*
X47201013Y-58318909D01*
X47253802Y-58394300D01*
X47415700Y-58556198D01*
X47420208Y-58559355D01*
X47420211Y-58559357D01*
X47498389Y-58614098D01*
X47603251Y-58687523D01*
X47608233Y-58689846D01*
X47608238Y-58689849D01*
X47732814Y-58747939D01*
X47810757Y-58784284D01*
X47816065Y-58785706D01*
X47816067Y-58785707D01*
X48026598Y-58842119D01*
X48026600Y-58842119D01*
X48031913Y-58843543D01*
X48260000Y-58863498D01*
X48488087Y-58843543D01*
X48493400Y-58842119D01*
X48493402Y-58842119D01*
X48703933Y-58785707D01*
X48703935Y-58785706D01*
X48709243Y-58784284D01*
X48787186Y-58747939D01*
X48911762Y-58689849D01*
X48911767Y-58689846D01*
X48916749Y-58687523D01*
X49021611Y-58614098D01*
X49099789Y-58559357D01*
X49099792Y-58559355D01*
X49104300Y-58556198D01*
X49266198Y-58394300D01*
X49318988Y-58318909D01*
X49355592Y-58266632D01*
X49397523Y-58206749D01*
X49399846Y-58201767D01*
X49399849Y-58201762D01*
X49415805Y-58167543D01*
X49462722Y-58114258D01*
X49530999Y-58094797D01*
X49598959Y-58115339D01*
X49644195Y-58167543D01*
X49660151Y-58201762D01*
X49660154Y-58201767D01*
X49662477Y-58206749D01*
X49704408Y-58266632D01*
X49741013Y-58318909D01*
X49793802Y-58394300D01*
X49955700Y-58556198D01*
X49960208Y-58559355D01*
X49960211Y-58559357D01*
X50038389Y-58614098D01*
X50143251Y-58687523D01*
X50148233Y-58689846D01*
X50148238Y-58689849D01*
X50272814Y-58747939D01*
X50350757Y-58784284D01*
X50356065Y-58785706D01*
X50356067Y-58785707D01*
X50566598Y-58842119D01*
X50566600Y-58842119D01*
X50571913Y-58843543D01*
X50800000Y-58863498D01*
X51028087Y-58843543D01*
X51033400Y-58842119D01*
X51033402Y-58842119D01*
X51187952Y-58800707D01*
X51249243Y-58784284D01*
X51254228Y-58781959D01*
X51254232Y-58781958D01*
X51366472Y-58729620D01*
X51436663Y-58718959D01*
X51501476Y-58747939D01*
X51508816Y-58754720D01*
X65536343Y-72782247D01*
X65543887Y-72790537D01*
X65548000Y-72797018D01*
X65553777Y-72802443D01*
X65597667Y-72843658D01*
X65600509Y-72846413D01*
X65620231Y-72866135D01*
X65623373Y-72868572D01*
X65623433Y-72868619D01*
X65632445Y-72876317D01*
X65648945Y-72891811D01*
X65664679Y-72906586D01*
X65671622Y-72910403D01*
X65682431Y-72916345D01*
X65698953Y-72927198D01*
X65714959Y-72939614D01*
X65722237Y-72942764D01*
X65722238Y-72942764D01*
X65755537Y-72957174D01*
X65766187Y-72962391D01*
X65804940Y-72983695D01*
X65812615Y-72985666D01*
X65812616Y-72985666D01*
X65824562Y-72988733D01*
X65843267Y-72995137D01*
X65861855Y-73003181D01*
X65869678Y-73004420D01*
X65869688Y-73004423D01*
X65905524Y-73010099D01*
X65917144Y-73012505D01*
X65952289Y-73021528D01*
X65959970Y-73023500D01*
X65980224Y-73023500D01*
X65999934Y-73025051D01*
X66019943Y-73028220D01*
X66027835Y-73027474D01*
X66063961Y-73024059D01*
X66075819Y-73023500D01*
X105350231Y-73023500D01*
X105369940Y-73025051D01*
X105389943Y-73028219D01*
X105397835Y-73027473D01*
X105403062Y-73026979D01*
X105433954Y-73024059D01*
X105445811Y-73023500D01*
X164124274Y-73023500D01*
X164192395Y-73043502D01*
X164231707Y-73083665D01*
X164299987Y-73195088D01*
X164446250Y-73363938D01*
X164450230Y-73367242D01*
X164454981Y-73371187D01*
X164494616Y-73430090D01*
X164496113Y-73501071D01*
X164458997Y-73561593D01*
X164418725Y-73586112D01*
X164330095Y-73619338D01*
X164303295Y-73629385D01*
X164186739Y-73716739D01*
X164099385Y-73833295D01*
X164048255Y-73969684D01*
X164041500Y-74031866D01*
X164041500Y-75566000D01*
X164021498Y-75634121D01*
X163967842Y-75680614D01*
X163915500Y-75692000D01*
X26719328Y-75692000D01*
X26699943Y-75690500D01*
X26685142Y-75688195D01*
X26685139Y-75688195D01*
X26676270Y-75686814D01*
X26665272Y-75688252D01*
X26636589Y-75688709D01*
X26533693Y-75678575D01*
X26509469Y-75673756D01*
X26390267Y-75637596D01*
X26367447Y-75628144D01*
X26257600Y-75569430D01*
X26237062Y-75555707D01*
X26140777Y-75476688D01*
X26123312Y-75459223D01*
X26044293Y-75362938D01*
X26030570Y-75342400D01*
X25971856Y-75232553D01*
X25962404Y-75209733D01*
X25926244Y-75090531D01*
X25921425Y-75066305D01*
X25911956Y-74970163D01*
X25912408Y-74954124D01*
X25911695Y-74954115D01*
X25911805Y-74945142D01*
X25913186Y-74936270D01*
X25911928Y-74926646D01*
X25909064Y-74904749D01*
X25908000Y-74888411D01*
X25908000Y-73506065D01*
X25928002Y-73437944D01*
X25981658Y-73391451D01*
X26051932Y-73381347D01*
X26080713Y-73390089D01*
X26081000Y-73389338D01*
X26289692Y-73469030D01*
X26294760Y-73470061D01*
X26294763Y-73470062D01*
X26402017Y-73491883D01*
X26508597Y-73513567D01*
X26513772Y-73513757D01*
X26513774Y-73513757D01*
X26726673Y-73521564D01*
X26726677Y-73521564D01*
X26731837Y-73521753D01*
X26736957Y-73521097D01*
X26736959Y-73521097D01*
X26948288Y-73494025D01*
X26948289Y-73494025D01*
X26953416Y-73493368D01*
X26958366Y-73491883D01*
X27162429Y-73430661D01*
X27162434Y-73430659D01*
X27167384Y-73429174D01*
X27367994Y-73330896D01*
X27549860Y-73201173D01*
X27555967Y-73195088D01*
X27655123Y-73096277D01*
X27708096Y-73043489D01*
X27722460Y-73023500D01*
X27838453Y-72862077D01*
X27839776Y-72863028D01*
X27886645Y-72819857D01*
X27956580Y-72807625D01*
X28022026Y-72835144D01*
X28049875Y-72866994D01*
X28109987Y-72965088D01*
X28256250Y-73133938D01*
X28428126Y-73276632D01*
X28621000Y-73389338D01*
X28829692Y-73469030D01*
X28834760Y-73470061D01*
X28834763Y-73470062D01*
X28942017Y-73491883D01*
X29048597Y-73513567D01*
X29053772Y-73513757D01*
X29053774Y-73513757D01*
X29266673Y-73521564D01*
X29266677Y-73521564D01*
X29271837Y-73521753D01*
X29276957Y-73521097D01*
X29276959Y-73521097D01*
X29488288Y-73494025D01*
X29488289Y-73494025D01*
X29493416Y-73493368D01*
X29498366Y-73491883D01*
X29702429Y-73430661D01*
X29702434Y-73430659D01*
X29707384Y-73429174D01*
X29907994Y-73330896D01*
X30089860Y-73201173D01*
X30095967Y-73195088D01*
X30195123Y-73096277D01*
X30248096Y-73043489D01*
X30262460Y-73023500D01*
X30378453Y-72862077D01*
X30379776Y-72863028D01*
X30426645Y-72819857D01*
X30496580Y-72807625D01*
X30562026Y-72835144D01*
X30589875Y-72866994D01*
X30649987Y-72965088D01*
X30796250Y-73133938D01*
X30968126Y-73276632D01*
X31161000Y-73389338D01*
X31369692Y-73469030D01*
X31374760Y-73470061D01*
X31374763Y-73470062D01*
X31482017Y-73491883D01*
X31588597Y-73513567D01*
X31593772Y-73513757D01*
X31593774Y-73513757D01*
X31806673Y-73521564D01*
X31806677Y-73521564D01*
X31811837Y-73521753D01*
X31816957Y-73521097D01*
X31816959Y-73521097D01*
X32028288Y-73494025D01*
X32028289Y-73494025D01*
X32033416Y-73493368D01*
X32038366Y-73491883D01*
X32242429Y-73430661D01*
X32242434Y-73430659D01*
X32247384Y-73429174D01*
X32447994Y-73330896D01*
X32629860Y-73201173D01*
X32635967Y-73195088D01*
X32735123Y-73096277D01*
X32788096Y-73043489D01*
X32802460Y-73023500D01*
X32918453Y-72862077D01*
X32919776Y-72863028D01*
X32966645Y-72819857D01*
X33036580Y-72807625D01*
X33102026Y-72835144D01*
X33129875Y-72866994D01*
X33189987Y-72965088D01*
X33336250Y-73133938D01*
X33508126Y-73276632D01*
X33701000Y-73389338D01*
X33909692Y-73469030D01*
X33914760Y-73470061D01*
X33914763Y-73470062D01*
X34022017Y-73491883D01*
X34128597Y-73513567D01*
X34133772Y-73513757D01*
X34133774Y-73513757D01*
X34346673Y-73521564D01*
X34346677Y-73521564D01*
X34351837Y-73521753D01*
X34356957Y-73521097D01*
X34356959Y-73521097D01*
X34568288Y-73494025D01*
X34568289Y-73494025D01*
X34573416Y-73493368D01*
X34578366Y-73491883D01*
X34782429Y-73430661D01*
X34782434Y-73430659D01*
X34787384Y-73429174D01*
X34987994Y-73330896D01*
X35169860Y-73201173D01*
X35175967Y-73195088D01*
X35275123Y-73096277D01*
X35328096Y-73043489D01*
X35342460Y-73023500D01*
X35458453Y-72862077D01*
X35459776Y-72863028D01*
X35506645Y-72819857D01*
X35576580Y-72807625D01*
X35642026Y-72835144D01*
X35669875Y-72866994D01*
X35729987Y-72965088D01*
X35876250Y-73133938D01*
X36048126Y-73276632D01*
X36241000Y-73389338D01*
X36449692Y-73469030D01*
X36454760Y-73470061D01*
X36454763Y-73470062D01*
X36562017Y-73491883D01*
X36668597Y-73513567D01*
X36673772Y-73513757D01*
X36673774Y-73513757D01*
X36886673Y-73521564D01*
X36886677Y-73521564D01*
X36891837Y-73521753D01*
X36896957Y-73521097D01*
X36896959Y-73521097D01*
X37108288Y-73494025D01*
X37108289Y-73494025D01*
X37113416Y-73493368D01*
X37118366Y-73491883D01*
X37322429Y-73430661D01*
X37322434Y-73430659D01*
X37327384Y-73429174D01*
X37527994Y-73330896D01*
X37709860Y-73201173D01*
X37715967Y-73195088D01*
X37815123Y-73096277D01*
X37868096Y-73043489D01*
X37882460Y-73023500D01*
X37998453Y-72862077D01*
X37999776Y-72863028D01*
X38046645Y-72819857D01*
X38116580Y-72807625D01*
X38182026Y-72835144D01*
X38209875Y-72866994D01*
X38269987Y-72965088D01*
X38416250Y-73133938D01*
X38588126Y-73276632D01*
X38781000Y-73389338D01*
X38989692Y-73469030D01*
X38994760Y-73470061D01*
X38994763Y-73470062D01*
X39102017Y-73491883D01*
X39208597Y-73513567D01*
X39213772Y-73513757D01*
X39213774Y-73513757D01*
X39426673Y-73521564D01*
X39426677Y-73521564D01*
X39431837Y-73521753D01*
X39436957Y-73521097D01*
X39436959Y-73521097D01*
X39648288Y-73494025D01*
X39648289Y-73494025D01*
X39653416Y-73493368D01*
X39658366Y-73491883D01*
X39862429Y-73430661D01*
X39862434Y-73430659D01*
X39867384Y-73429174D01*
X40067994Y-73330896D01*
X40249860Y-73201173D01*
X40255967Y-73195088D01*
X40355123Y-73096277D01*
X40408096Y-73043489D01*
X40422460Y-73023500D01*
X40538453Y-72862077D01*
X40539776Y-72863028D01*
X40586645Y-72819857D01*
X40656580Y-72807625D01*
X40722026Y-72835144D01*
X40749875Y-72866994D01*
X40809987Y-72965088D01*
X40956250Y-73133938D01*
X41128126Y-73276632D01*
X41321000Y-73389338D01*
X41529692Y-73469030D01*
X41534760Y-73470061D01*
X41534763Y-73470062D01*
X41642017Y-73491883D01*
X41748597Y-73513567D01*
X41753772Y-73513757D01*
X41753774Y-73513757D01*
X41966673Y-73521564D01*
X41966677Y-73521564D01*
X41971837Y-73521753D01*
X41976957Y-73521097D01*
X41976959Y-73521097D01*
X42188288Y-73494025D01*
X42188289Y-73494025D01*
X42193416Y-73493368D01*
X42198366Y-73491883D01*
X42402429Y-73430661D01*
X42402434Y-73430659D01*
X42407384Y-73429174D01*
X42607994Y-73330896D01*
X42789860Y-73201173D01*
X42898091Y-73093319D01*
X42960462Y-73059404D01*
X43031268Y-73064592D01*
X43088030Y-73107238D01*
X43105012Y-73138341D01*
X43128567Y-73201173D01*
X43149385Y-73256705D01*
X43236739Y-73373261D01*
X43353295Y-73460615D01*
X43489684Y-73511745D01*
X43551866Y-73518500D01*
X45348134Y-73518500D01*
X45410316Y-73511745D01*
X45546705Y-73460615D01*
X45663261Y-73373261D01*
X45750615Y-73256705D01*
X45801745Y-73120316D01*
X45808500Y-73058134D01*
X45808500Y-71261866D01*
X45801745Y-71199684D01*
X45750615Y-71063295D01*
X45663261Y-70946739D01*
X45546705Y-70859385D01*
X45410316Y-70808255D01*
X45348134Y-70801500D01*
X43551866Y-70801500D01*
X43489684Y-70808255D01*
X43353295Y-70859385D01*
X43236739Y-70946739D01*
X43149385Y-71063295D01*
X43146233Y-71071703D01*
X43104919Y-71181907D01*
X43062277Y-71238671D01*
X42995716Y-71263371D01*
X42926367Y-71248163D01*
X42893743Y-71222476D01*
X42843151Y-71166875D01*
X42843142Y-71166866D01*
X42839670Y-71163051D01*
X42835619Y-71159852D01*
X42835615Y-71159848D01*
X42668414Y-71027800D01*
X42668410Y-71027798D01*
X42664359Y-71024598D01*
X42654054Y-71018909D01*
X42553366Y-70963327D01*
X42468789Y-70916638D01*
X42463920Y-70914914D01*
X42463916Y-70914912D01*
X42263087Y-70843795D01*
X42263083Y-70843794D01*
X42258212Y-70842069D01*
X42253119Y-70841162D01*
X42253116Y-70841161D01*
X42043373Y-70803800D01*
X42043367Y-70803799D01*
X42038284Y-70802894D01*
X41964452Y-70801992D01*
X41820081Y-70800228D01*
X41820079Y-70800228D01*
X41814911Y-70800165D01*
X41594091Y-70833955D01*
X41381756Y-70903357D01*
X41183607Y-71006507D01*
X41179474Y-71009610D01*
X41179471Y-71009612D01*
X41014658Y-71133357D01*
X41004965Y-71140635D01*
X40966043Y-71181364D01*
X40911280Y-71238671D01*
X40850629Y-71302138D01*
X40743201Y-71459621D01*
X40688293Y-71504621D01*
X40617768Y-71512792D01*
X40554021Y-71481538D01*
X40533324Y-71457054D01*
X40452822Y-71332617D01*
X40452820Y-71332614D01*
X40450014Y-71328277D01*
X40299670Y-71163051D01*
X40295619Y-71159852D01*
X40295615Y-71159848D01*
X40128414Y-71027800D01*
X40128410Y-71027798D01*
X40124359Y-71024598D01*
X40114054Y-71018909D01*
X40013366Y-70963327D01*
X39928789Y-70916638D01*
X39923920Y-70914914D01*
X39923916Y-70914912D01*
X39723087Y-70843795D01*
X39723083Y-70843794D01*
X39718212Y-70842069D01*
X39713119Y-70841162D01*
X39713116Y-70841161D01*
X39503373Y-70803800D01*
X39503367Y-70803799D01*
X39498284Y-70802894D01*
X39424452Y-70801992D01*
X39280081Y-70800228D01*
X39280079Y-70800228D01*
X39274911Y-70800165D01*
X39054091Y-70833955D01*
X38841756Y-70903357D01*
X38643607Y-71006507D01*
X38639474Y-71009610D01*
X38639471Y-71009612D01*
X38474658Y-71133357D01*
X38464965Y-71140635D01*
X38426043Y-71181364D01*
X38371280Y-71238671D01*
X38310629Y-71302138D01*
X38203201Y-71459621D01*
X38148293Y-71504621D01*
X38077768Y-71512792D01*
X38014021Y-71481538D01*
X37993324Y-71457054D01*
X37912822Y-71332617D01*
X37912820Y-71332614D01*
X37910014Y-71328277D01*
X37759670Y-71163051D01*
X37755619Y-71159852D01*
X37755615Y-71159848D01*
X37588414Y-71027800D01*
X37588410Y-71027798D01*
X37584359Y-71024598D01*
X37574054Y-71018909D01*
X37473366Y-70963327D01*
X37388789Y-70916638D01*
X37383920Y-70914914D01*
X37383916Y-70914912D01*
X37183087Y-70843795D01*
X37183083Y-70843794D01*
X37178212Y-70842069D01*
X37173119Y-70841162D01*
X37173116Y-70841161D01*
X36963373Y-70803800D01*
X36963367Y-70803799D01*
X36958284Y-70802894D01*
X36884452Y-70801992D01*
X36740081Y-70800228D01*
X36740079Y-70800228D01*
X36734911Y-70800165D01*
X36514091Y-70833955D01*
X36301756Y-70903357D01*
X36103607Y-71006507D01*
X36099474Y-71009610D01*
X36099471Y-71009612D01*
X35934658Y-71133357D01*
X35924965Y-71140635D01*
X35886043Y-71181364D01*
X35831280Y-71238671D01*
X35770629Y-71302138D01*
X35663201Y-71459621D01*
X35608293Y-71504621D01*
X35537768Y-71512792D01*
X35474021Y-71481538D01*
X35453324Y-71457054D01*
X35372822Y-71332617D01*
X35372820Y-71332614D01*
X35370014Y-71328277D01*
X35219670Y-71163051D01*
X35215619Y-71159852D01*
X35215615Y-71159848D01*
X35048414Y-71027800D01*
X35048410Y-71027798D01*
X35044359Y-71024598D01*
X35034054Y-71018909D01*
X34933366Y-70963327D01*
X34848789Y-70916638D01*
X34843920Y-70914914D01*
X34843916Y-70914912D01*
X34643087Y-70843795D01*
X34643083Y-70843794D01*
X34638212Y-70842069D01*
X34633119Y-70841162D01*
X34633116Y-70841161D01*
X34423373Y-70803800D01*
X34423367Y-70803799D01*
X34418284Y-70802894D01*
X34344452Y-70801992D01*
X34200081Y-70800228D01*
X34200079Y-70800228D01*
X34194911Y-70800165D01*
X33974091Y-70833955D01*
X33761756Y-70903357D01*
X33563607Y-71006507D01*
X33559474Y-71009610D01*
X33559471Y-71009612D01*
X33394658Y-71133357D01*
X33384965Y-71140635D01*
X33346043Y-71181364D01*
X33291280Y-71238671D01*
X33230629Y-71302138D01*
X33123201Y-71459621D01*
X33068293Y-71504621D01*
X32997768Y-71512792D01*
X32934021Y-71481538D01*
X32913324Y-71457054D01*
X32832822Y-71332617D01*
X32832820Y-71332614D01*
X32830014Y-71328277D01*
X32679670Y-71163051D01*
X32675619Y-71159852D01*
X32675615Y-71159848D01*
X32508414Y-71027800D01*
X32508410Y-71027798D01*
X32504359Y-71024598D01*
X32494054Y-71018909D01*
X32393366Y-70963327D01*
X32308789Y-70916638D01*
X32303920Y-70914914D01*
X32303916Y-70914912D01*
X32103087Y-70843795D01*
X32103083Y-70843794D01*
X32098212Y-70842069D01*
X32093119Y-70841162D01*
X32093116Y-70841161D01*
X31883373Y-70803800D01*
X31883367Y-70803799D01*
X31878284Y-70802894D01*
X31804452Y-70801992D01*
X31660081Y-70800228D01*
X31660079Y-70800228D01*
X31654911Y-70800165D01*
X31434091Y-70833955D01*
X31221756Y-70903357D01*
X31023607Y-71006507D01*
X31019474Y-71009610D01*
X31019471Y-71009612D01*
X30854658Y-71133357D01*
X30844965Y-71140635D01*
X30806043Y-71181364D01*
X30751280Y-71238671D01*
X30690629Y-71302138D01*
X30583201Y-71459621D01*
X30528293Y-71504621D01*
X30457768Y-71512792D01*
X30394021Y-71481538D01*
X30373324Y-71457054D01*
X30292822Y-71332617D01*
X30292820Y-71332614D01*
X30290014Y-71328277D01*
X30139670Y-71163051D01*
X30135619Y-71159852D01*
X30135615Y-71159848D01*
X29968414Y-71027800D01*
X29968410Y-71027798D01*
X29964359Y-71024598D01*
X29954054Y-71018909D01*
X29853366Y-70963327D01*
X29768789Y-70916638D01*
X29763920Y-70914914D01*
X29763916Y-70914912D01*
X29563087Y-70843795D01*
X29563083Y-70843794D01*
X29558212Y-70842069D01*
X29553119Y-70841162D01*
X29553116Y-70841161D01*
X29343373Y-70803800D01*
X29343367Y-70803799D01*
X29338284Y-70802894D01*
X29264452Y-70801992D01*
X29120081Y-70800228D01*
X29120079Y-70800228D01*
X29114911Y-70800165D01*
X28894091Y-70833955D01*
X28681756Y-70903357D01*
X28483607Y-71006507D01*
X28479474Y-71009610D01*
X28479471Y-71009612D01*
X28314658Y-71133357D01*
X28304965Y-71140635D01*
X28266043Y-71181364D01*
X28211280Y-71238671D01*
X28150629Y-71302138D01*
X28043201Y-71459621D01*
X27988293Y-71504621D01*
X27917768Y-71512792D01*
X27854021Y-71481538D01*
X27833324Y-71457054D01*
X27752822Y-71332617D01*
X27752820Y-71332614D01*
X27750014Y-71328277D01*
X27599670Y-71163051D01*
X27595619Y-71159852D01*
X27595615Y-71159848D01*
X27428414Y-71027800D01*
X27428410Y-71027798D01*
X27424359Y-71024598D01*
X27414054Y-71018909D01*
X27313366Y-70963327D01*
X27228789Y-70916638D01*
X27223920Y-70914914D01*
X27223916Y-70914912D01*
X27023087Y-70843795D01*
X27023083Y-70843794D01*
X27018212Y-70842069D01*
X27013119Y-70841162D01*
X27013116Y-70841161D01*
X26803373Y-70803800D01*
X26803367Y-70803799D01*
X26798284Y-70802894D01*
X26724452Y-70801992D01*
X26580081Y-70800228D01*
X26580079Y-70800228D01*
X26574911Y-70800165D01*
X26354091Y-70833955D01*
X26141756Y-70903357D01*
X26092178Y-70929166D01*
X26022521Y-70942878D01*
X25956506Y-70916753D01*
X25915095Y-70859085D01*
X25908000Y-70817402D01*
X25908000Y-50840000D01*
X30436502Y-50840000D01*
X30456457Y-51068087D01*
X30457881Y-51073400D01*
X30457881Y-51073402D01*
X30503459Y-51243498D01*
X30515716Y-51289243D01*
X30518039Y-51294224D01*
X30518039Y-51294225D01*
X30610151Y-51491762D01*
X30610154Y-51491767D01*
X30612477Y-51496749D01*
X30643642Y-51541257D01*
X30702948Y-51625954D01*
X30743802Y-51684300D01*
X30905700Y-51846198D01*
X30910208Y-51849355D01*
X30910211Y-51849357D01*
X30957260Y-51882301D01*
X31093251Y-51977523D01*
X31098233Y-51979846D01*
X31098238Y-51979849D01*
X31284377Y-52066646D01*
X31300757Y-52074284D01*
X31306065Y-52075706D01*
X31306067Y-52075707D01*
X31516598Y-52132119D01*
X31516600Y-52132119D01*
X31521913Y-52133543D01*
X31750000Y-52153498D01*
X31978087Y-52133543D01*
X31983400Y-52132119D01*
X31983402Y-52132119D01*
X32193933Y-52075707D01*
X32193935Y-52075706D01*
X32199243Y-52074284D01*
X32215623Y-52066646D01*
X32401762Y-51979849D01*
X32401767Y-51979846D01*
X32406749Y-51977523D01*
X32542740Y-51882301D01*
X32589789Y-51849357D01*
X32589792Y-51849355D01*
X32594300Y-51846198D01*
X32756198Y-51684300D01*
X32797053Y-51625954D01*
X32856358Y-51541257D01*
X32887523Y-51496749D01*
X32889846Y-51491767D01*
X32889849Y-51491762D01*
X32981961Y-51294225D01*
X32981961Y-51294224D01*
X32984284Y-51289243D01*
X32996542Y-51243498D01*
X33042119Y-51073402D01*
X33042119Y-51073400D01*
X33043543Y-51068087D01*
X33063498Y-50840000D01*
X33043543Y-50611913D01*
X33042119Y-50606598D01*
X32985707Y-50396067D01*
X32985706Y-50396065D01*
X32984284Y-50390757D01*
X32960145Y-50338990D01*
X32889849Y-50188238D01*
X32889846Y-50188233D01*
X32887523Y-50183251D01*
X32784734Y-50036453D01*
X32759357Y-50000211D01*
X32759355Y-50000208D01*
X32756198Y-49995700D01*
X32594300Y-49833802D01*
X32589792Y-49830645D01*
X32589789Y-49830643D01*
X32468383Y-49745634D01*
X32406749Y-49702477D01*
X32401767Y-49700154D01*
X32401762Y-49700151D01*
X32204225Y-49608039D01*
X32204224Y-49608039D01*
X32199243Y-49605716D01*
X32193935Y-49604294D01*
X32193933Y-49604293D01*
X31983402Y-49547881D01*
X31983400Y-49547881D01*
X31978087Y-49546457D01*
X31750000Y-49526502D01*
X31521913Y-49546457D01*
X31516600Y-49547881D01*
X31516598Y-49547881D01*
X31306067Y-49604293D01*
X31306065Y-49604294D01*
X31300757Y-49605716D01*
X31295776Y-49608039D01*
X31295775Y-49608039D01*
X31098238Y-49700151D01*
X31098233Y-49700154D01*
X31093251Y-49702477D01*
X31031617Y-49745634D01*
X30910211Y-49830643D01*
X30910208Y-49830645D01*
X30905700Y-49833802D01*
X30743802Y-49995700D01*
X30740645Y-50000208D01*
X30740643Y-50000211D01*
X30715266Y-50036453D01*
X30612477Y-50183251D01*
X30610154Y-50188233D01*
X30610151Y-50188238D01*
X30539855Y-50338990D01*
X30515716Y-50390757D01*
X30514294Y-50396065D01*
X30514293Y-50396067D01*
X30457881Y-50606598D01*
X30456457Y-50611913D01*
X30436502Y-50840000D01*
X25908000Y-50840000D01*
X25908000Y-26719328D01*
X25909500Y-26699943D01*
X25911805Y-26685142D01*
X25911805Y-26685139D01*
X25913186Y-26676270D01*
X25911748Y-26665272D01*
X25911291Y-26636588D01*
X25921425Y-26533695D01*
X25926244Y-26509469D01*
X25962404Y-26390267D01*
X25971856Y-26367447D01*
X26030570Y-26257600D01*
X26044293Y-26237062D01*
X26123312Y-26140777D01*
X26140777Y-26123312D01*
X26237062Y-26044293D01*
X26257600Y-26030570D01*
X26367447Y-25971856D01*
X26390267Y-25962404D01*
X26509469Y-25926244D01*
X26533693Y-25921425D01*
X26629837Y-25911956D01*
X26645876Y-25912408D01*
X26645885Y-25911695D01*
X26654858Y-25911805D01*
X26663730Y-25913186D01*
X26672632Y-25912022D01*
X26672635Y-25912022D01*
X26695251Y-25909064D01*
X26711589Y-25908000D01*
X166598507Y-25908000D01*
X166666628Y-25928002D01*
G37*
%TD.AperFunction*%
%TD*%
M02*
