M48
; DRILL file {KiCad (6.0.1)} date Mon Feb 21 18:17:09 2022
; FORMAT={-:-/ absolute / inch / decimal}
; #@! TF.CreationDate,2022-02-21T18:17:09+01:00
; #@! TF.GenerationSoftware,Kicad,Pcbnew,(6.0.1)
; #@! TF.FileFunction,MixedPlating,1,2
FMAT,2
INCH
; #@! TA.AperFunction,Plated,PTH,ViaDrill
T1C0.0157
; #@! TA.AperFunction,Plated,PTH,ComponentDrill
T2C0.0315
; #@! TA.AperFunction,Plated,PTH,ComponentDrill
T3C0.0354
; #@! TA.AperFunction,Plated,PTH,ComponentDrill
T4C0.0394
%
G90
G05
T1
X0.4Y-0.725
X0.45Y-0.725
X0.5Y-0.725
X0.52Y-0.42
X0.55Y-0.725
X0.6Y-0.725
X0.65Y-0.725
X0.7Y-0.725
X0.75Y-0.725
X0.8Y-0.25
X0.94Y-0.62
X1.96Y-0.62
X2.04Y-0.66
X2.1Y-0.9
X2.4Y-0.76
X2.4Y-1.0
X2.64Y-1.1
X2.72Y-1.14
X3.3Y-1.18
X3.6Y-1.22
X3.7Y-1.26
X3.78Y-0.46
X4.05Y-1.01
T2
X0.85Y-0.8
X0.85Y-0.9
X0.85Y-1.0
X0.85Y-1.1
X0.85Y-1.2
X0.85Y-1.3
X0.85Y-1.4
X0.85Y-1.5
X0.85Y-1.6
X0.85Y-1.7
X0.9Y-1.85
X1.0969Y-1.85
X1.15Y-0.8
X1.15Y-0.9
X1.15Y-1.0
X1.15Y-1.1
X1.15Y-1.2
X1.15Y-1.3
X1.15Y-1.4
X1.15Y-1.5
X1.15Y-1.6
X1.15Y-1.7
X2.0Y-1.65
X2.0Y-1.95
X2.3Y-0.35
X2.3Y-0.65
X2.3Y-1.65
X2.3Y-1.95
X2.4Y-0.35
X2.4Y-0.65
X2.5Y-0.35
X2.5Y-0.65
X2.6Y-0.35
X2.6Y-0.65
X2.6Y-1.65
X2.6Y-1.95
X2.7Y-0.35
X2.7Y-0.65
X2.8Y-0.35
X2.8Y-0.65
X2.9Y-0.35
X2.9Y-0.65
X2.9Y-1.65
X2.9Y-1.95
X3.0Y-0.35
X3.0Y-0.65
X3.15Y-0.4016
X3.15Y-0.5984
X3.2Y-1.65
X3.2Y-1.95
X3.5Y-1.65
X3.5Y-1.95
X3.55Y-0.35
X3.55Y-0.65
X3.65Y-0.35
X3.65Y-0.65
X3.75Y-0.35
X3.75Y-0.65
X3.8Y-1.65
X3.8Y-1.95
X3.85Y-0.35
X3.85Y-0.65
X3.95Y-0.35
X3.95Y-0.65
X4.05Y-0.35
X4.05Y-0.65
X4.1Y-1.65
X4.1Y-1.95
X4.15Y-0.35
X4.15Y-0.65
X4.25Y-0.35
X4.25Y-0.65
X4.4Y-0.4016
X4.4Y-0.5984
T3
X2.0Y-1.45
X2.1Y-1.45
X2.3Y-1.45
X2.4Y-1.45
X2.6Y-1.45
X2.7Y-1.45
X2.9Y-1.45
X3.0Y-1.45
X3.2Y-1.45
X3.3Y-1.45
X3.5Y-1.45
X3.6Y-1.45
X3.8Y-1.45
X3.9Y-1.45
X4.1Y-1.45
X4.2Y-1.45
T4
X0.1591Y-0.05
X0.1591Y-0.15
X0.1591Y-0.25
X0.1591Y-0.35
X0.1591Y-0.45
X0.1591Y-0.55
X0.1591Y-0.65
X0.1591Y-0.75
X0.1591Y-0.85
X0.1591Y-0.95
X0.1591Y-1.05
X0.1591Y-1.15
X0.1591Y-1.25
X0.1591Y-1.35
X0.1591Y-1.45
X0.1591Y-1.55
X0.1591Y-1.65
X0.1591Y-1.75
X0.1591Y-1.85
X0.1591Y-1.95
X0.2591Y-0.05
X0.2591Y-0.15
X0.2591Y-0.25
X0.2591Y-0.35
X0.2591Y-0.45
X0.2591Y-0.55
X0.2591Y-0.65
X0.2591Y-0.75
X0.2591Y-0.85
X0.2591Y-0.95
X0.2591Y-1.05
X0.2591Y-1.15
X0.2591Y-1.25
X0.2591Y-1.35
X0.2591Y-1.45
X0.2591Y-1.55
X0.2591Y-1.65
X0.2591Y-1.75
X0.2591Y-1.85
X0.2591Y-1.95
T0
M30
