%TF.GenerationSoftware,KiCad,Pcbnew,(6.0.1)*%
%TF.CreationDate,2022-02-21T18:17:07+01:00*%
%TF.ProjectId,ProgrammCounter,50726f67-7261-46d6-9d43-6f756e746572,rev?*%
%TF.SameCoordinates,Original*%
%TF.FileFunction,Copper,L2,Bot*%
%TF.FilePolarity,Positive*%
%FSLAX46Y46*%
G04 Gerber Fmt 4.6, Leading zero omitted, Abs format (unit mm)*
G04 Created by KiCad (PCBNEW (6.0.1)) date 2022-02-21 18:17:07*
%MOMM*%
%LPD*%
G01*
G04 APERTURE LIST*
%TA.AperFunction,ComponentPad*%
%ADD10C,1.600000*%
%TD*%
%TA.AperFunction,ComponentPad*%
%ADD11R,1.800000X1.800000*%
%TD*%
%TA.AperFunction,ComponentPad*%
%ADD12C,1.800000*%
%TD*%
%TA.AperFunction,ComponentPad*%
%ADD13R,1.700000X1.700000*%
%TD*%
%TA.AperFunction,ComponentPad*%
%ADD14O,1.700000X1.700000*%
%TD*%
%TA.AperFunction,ComponentPad*%
%ADD15O,1.600000X1.600000*%
%TD*%
%TA.AperFunction,ComponentPad*%
%ADD16R,2.400000X1.600000*%
%TD*%
%TA.AperFunction,ComponentPad*%
%ADD17O,2.400000X1.600000*%
%TD*%
%TA.AperFunction,ComponentPad*%
%ADD18R,1.600000X2.400000*%
%TD*%
%TA.AperFunction,ComponentPad*%
%ADD19O,1.600000X2.400000*%
%TD*%
%TA.AperFunction,ViaPad*%
%ADD20C,0.800000*%
%TD*%
%TA.AperFunction,Conductor*%
%ADD21C,0.250000*%
%TD*%
G04 APERTURE END LIST*
D10*
%TO.P,C1,1*%
%TO.N,/VCC*%
X22860000Y-46990000D03*
%TO.P,C1,2*%
%TO.N,/GND*%
X27860000Y-46990000D03*
%TD*%
%TO.P,C2,1*%
%TO.N,/VCC*%
X80010000Y-15200000D03*
%TO.P,C2,2*%
%TO.N,/GND*%
X80010000Y-10200000D03*
%TD*%
%TO.P,C3,1*%
%TO.N,/VCC*%
X111760000Y-15200000D03*
%TO.P,C3,2*%
%TO.N,/GND*%
X111760000Y-10200000D03*
%TD*%
D11*
%TO.P,D1,1*%
%TO.N,Net-(D1-Pad1)*%
X50800000Y-36830000D03*
D12*
%TO.P,D1,2*%
%TO.N,Net-(D1-Pad2)*%
X53340000Y-36830000D03*
%TD*%
D11*
%TO.P,D2,1*%
%TO.N,Net-(D2-Pad1)*%
X58420000Y-36830000D03*
D12*
%TO.P,D2,2*%
%TO.N,Net-(D2-Pad2)*%
X60960000Y-36830000D03*
%TD*%
D11*
%TO.P,D3,1*%
%TO.N,Net-(D3-Pad1)*%
X66040000Y-36830000D03*
D12*
%TO.P,D3,2*%
%TO.N,Net-(D3-Pad2)*%
X68580000Y-36830000D03*
%TD*%
D11*
%TO.P,D4,1*%
%TO.N,Net-(D4-Pad1)*%
X73660000Y-36830000D03*
D12*
%TO.P,D4,2*%
%TO.N,Net-(D4-Pad2)*%
X76200000Y-36830000D03*
%TD*%
D11*
%TO.P,D5,1*%
%TO.N,Net-(D5-Pad1)*%
X81280000Y-36830000D03*
D12*
%TO.P,D5,2*%
%TO.N,Net-(D5-Pad2)*%
X83820000Y-36830000D03*
%TD*%
D11*
%TO.P,D6,1*%
%TO.N,Net-(D6-Pad1)*%
X88900000Y-36830000D03*
D12*
%TO.P,D6,2*%
%TO.N,Net-(D6-Pad2)*%
X91440000Y-36830000D03*
%TD*%
D11*
%TO.P,D7,1*%
%TO.N,Net-(D7-Pad1)*%
X96520000Y-36830000D03*
D12*
%TO.P,D7,2*%
%TO.N,Net-(D7-Pad2)*%
X99060000Y-36830000D03*
%TD*%
D11*
%TO.P,D8,1*%
%TO.N,Net-(D8-Pad1)*%
X104140000Y-36830000D03*
D12*
%TO.P,D8,2*%
%TO.N,Net-(D8-Pad2)*%
X106680000Y-36830000D03*
%TD*%
D13*
%TO.P,J1,1*%
%TO.N,/VCC*%
X6580000Y-49530000D03*
D14*
%TO.P,J1,2*%
%TO.N,/BUS_0*%
X4040000Y-49530000D03*
%TO.P,J1,3*%
%TO.N,/CLK*%
X6580000Y-46990000D03*
%TO.P,J1,4*%
%TO.N,/BUS_1*%
X4040000Y-46990000D03*
%TO.P,J1,5*%
%TO.N,Net-(J1-Pad5)*%
X6580000Y-44450000D03*
%TO.P,J1,6*%
%TO.N,/BUS_2*%
X4040000Y-44450000D03*
%TO.P,J1,7*%
%TO.N,Net-(J1-Pad7)*%
X6580000Y-41910000D03*
%TO.P,J1,8*%
%TO.N,/BUS_3*%
X4040000Y-41910000D03*
%TO.P,J1,9*%
%TO.N,Net-(J1-Pad9)*%
X6580000Y-39370000D03*
%TO.P,J1,10*%
%TO.N,/BUS_4*%
X4040000Y-39370000D03*
%TO.P,J1,11*%
%TO.N,Net-(J1-Pad11)*%
X6580000Y-36830000D03*
%TO.P,J1,12*%
%TO.N,/BUS_5*%
X4040000Y-36830000D03*
%TO.P,J1,13*%
%TO.N,Net-(J1-Pad13)*%
X6580000Y-34290000D03*
%TO.P,J1,14*%
%TO.N,/BUS_6*%
X4040000Y-34290000D03*
%TO.P,J1,15*%
%TO.N,Net-(J1-Pad15)*%
X6580000Y-31750000D03*
%TO.P,J1,16*%
%TO.N,/BUS_7*%
X4040000Y-31750000D03*
%TO.P,J1,17*%
%TO.N,/PCUP*%
X6580000Y-29210000D03*
%TO.P,J1,18*%
%TO.N,Net-(J1-Pad18)*%
X4040000Y-29210000D03*
%TO.P,J1,19*%
%TO.N,/~{PCOUT}*%
X6580000Y-26670000D03*
%TO.P,J1,20*%
%TO.N,Net-(J1-Pad20)*%
X4040000Y-26670000D03*
%TO.P,J1,21*%
%TO.N,/~{PCIN}*%
X6580000Y-24130000D03*
%TO.P,J1,22*%
%TO.N,Net-(J1-Pad22)*%
X4040000Y-24130000D03*
%TO.P,J1,23*%
%TO.N,Net-(J1-Pad23)*%
X6580000Y-21590000D03*
%TO.P,J1,24*%
%TO.N,Net-(J1-Pad24)*%
X4040000Y-21590000D03*
%TO.P,J1,25*%
%TO.N,Net-(J1-Pad25)*%
X6580000Y-19050000D03*
%TO.P,J1,26*%
%TO.N,Net-(J1-Pad26)*%
X4040000Y-19050000D03*
%TO.P,J1,27*%
%TO.N,Net-(J1-Pad27)*%
X6580000Y-16510000D03*
%TO.P,J1,28*%
%TO.N,Net-(J1-Pad28)*%
X4040000Y-16510000D03*
%TO.P,J1,29*%
%TO.N,Net-(J1-Pad29)*%
X6580000Y-13970000D03*
%TO.P,J1,30*%
%TO.N,Net-(J1-Pad30)*%
X4040000Y-13970000D03*
%TO.P,J1,31*%
%TO.N,Net-(J1-Pad31)*%
X6580000Y-11430000D03*
%TO.P,J1,32*%
%TO.N,Net-(J1-Pad32)*%
X4040000Y-11430000D03*
%TO.P,J1,33*%
%TO.N,Net-(J1-Pad33)*%
X6580000Y-8890000D03*
%TO.P,J1,34*%
%TO.N,Net-(J1-Pad34)*%
X4040000Y-8890000D03*
%TO.P,J1,35*%
%TO.N,/~{CLR}*%
X6580000Y-6350000D03*
%TO.P,J1,36*%
%TO.N,Net-(J1-Pad36)*%
X4040000Y-6350000D03*
%TO.P,J1,37*%
%TO.N,Net-(J1-Pad37)*%
X6580000Y-3810000D03*
%TO.P,J1,38*%
%TO.N,Net-(J1-Pad38)*%
X4040000Y-3810000D03*
%TO.P,J1,39*%
%TO.N,/GND*%
X6580000Y-1270000D03*
%TO.P,J1,40*%
%TO.N,Net-(J1-Pad40)*%
X4040000Y-1270000D03*
%TD*%
D10*
%TO.P,R1,1*%
%TO.N,Net-(D1-Pad1)*%
X50800000Y-41910000D03*
D15*
%TO.P,R1,2*%
%TO.N,/GND*%
X50800000Y-49530000D03*
%TD*%
D10*
%TO.P,R2,1*%
%TO.N,Net-(D2-Pad1)*%
X58420000Y-41910000D03*
D15*
%TO.P,R2,2*%
%TO.N,/GND*%
X58420000Y-49530000D03*
%TD*%
D10*
%TO.P,R3,1*%
%TO.N,Net-(D3-Pad1)*%
X66040000Y-41910000D03*
D15*
%TO.P,R3,2*%
%TO.N,/GND*%
X66040000Y-49530000D03*
%TD*%
D10*
%TO.P,R4,1*%
%TO.N,Net-(D4-Pad1)*%
X73660000Y-41910000D03*
D15*
%TO.P,R4,2*%
%TO.N,/GND*%
X73660000Y-49530000D03*
%TD*%
D10*
%TO.P,R5,1*%
%TO.N,Net-(D5-Pad1)*%
X81280000Y-41910000D03*
D15*
%TO.P,R5,2*%
%TO.N,/GND*%
X81280000Y-49530000D03*
%TD*%
D10*
%TO.P,R6,1*%
%TO.N,Net-(D6-Pad1)*%
X88900000Y-41910000D03*
D15*
%TO.P,R6,2*%
%TO.N,/GND*%
X88900000Y-49530000D03*
%TD*%
D10*
%TO.P,R7,1*%
%TO.N,Net-(D7-Pad1)*%
X96520000Y-41910000D03*
D15*
%TO.P,R7,2*%
%TO.N,/GND*%
X96520000Y-49530000D03*
%TD*%
D10*
%TO.P,R8,1*%
%TO.N,Net-(D8-Pad1)*%
X104140000Y-41910000D03*
D15*
%TO.P,R8,2*%
%TO.N,/GND*%
X104140000Y-49530000D03*
%TD*%
D16*
%TO.P,U2,1*%
%TO.N,/VCC*%
X29210000Y-43180000D03*
D17*
%TO.P,U2,2*%
%TO.N,Net-(D8-Pad2)*%
X29210000Y-40640000D03*
%TO.P,U2,3*%
%TO.N,Net-(D7-Pad2)*%
X29210000Y-38100000D03*
%TO.P,U2,4*%
%TO.N,Net-(D6-Pad2)*%
X29210000Y-35560000D03*
%TO.P,U2,5*%
%TO.N,Net-(D5-Pad2)*%
X29210000Y-33020000D03*
%TO.P,U2,6*%
%TO.N,Net-(D4-Pad2)*%
X29210000Y-30480000D03*
%TO.P,U2,7*%
%TO.N,Net-(D3-Pad2)*%
X29210000Y-27940000D03*
%TO.P,U2,8*%
%TO.N,Net-(D2-Pad2)*%
X29210000Y-25400000D03*
%TO.P,U2,9*%
%TO.N,Net-(D1-Pad2)*%
X29210000Y-22860000D03*
%TO.P,U2,10*%
%TO.N,/GND*%
X29210000Y-20320000D03*
%TO.P,U2,11*%
%TO.N,/BUS_7*%
X21590000Y-20320000D03*
%TO.P,U2,12*%
%TO.N,/BUS_6*%
X21590000Y-22860000D03*
%TO.P,U2,13*%
%TO.N,/BUS_5*%
X21590000Y-25400000D03*
%TO.P,U2,14*%
%TO.N,/BUS_4*%
X21590000Y-27940000D03*
%TO.P,U2,15*%
%TO.N,/BUS_3*%
X21590000Y-30480000D03*
%TO.P,U2,16*%
%TO.N,/BUS_2*%
X21590000Y-33020000D03*
%TO.P,U2,17*%
%TO.N,/BUS_1*%
X21590000Y-35560000D03*
%TO.P,U2,18*%
%TO.N,/BUS_0*%
X21590000Y-38100000D03*
%TO.P,U2,19*%
%TO.N,/~{PCOUT}*%
X21590000Y-40640000D03*
%TO.P,U2,20*%
%TO.N,/VCC*%
X21590000Y-43180000D03*
%TD*%
D18*
%TO.P,U3,1*%
%TO.N,/~{CLR}*%
X76200000Y-8890000D03*
D19*
%TO.P,U3,2*%
%TO.N,/CLK*%
X73660000Y-8890000D03*
%TO.P,U3,3*%
%TO.N,/BUS_4*%
X71120000Y-8890000D03*
%TO.P,U3,4*%
%TO.N,/BUS_5*%
X68580000Y-8890000D03*
%TO.P,U3,5*%
%TO.N,/BUS_6*%
X66040000Y-8890000D03*
%TO.P,U3,6*%
%TO.N,/BUS_7*%
X63500000Y-8890000D03*
%TO.P,U3,7*%
%TO.N,/PCUP*%
X60960000Y-8890000D03*
%TO.P,U3,8*%
%TO.N,/GND*%
X58420000Y-8890000D03*
%TO.P,U3,9*%
%TO.N,/~{PCIN}*%
X58420000Y-16510000D03*
%TO.P,U3,10*%
%TO.N,Net-(U3-Pad10)*%
X60960000Y-16510000D03*
%TO.P,U3,11*%
%TO.N,Net-(D1-Pad2)*%
X63500000Y-16510000D03*
%TO.P,U3,12*%
%TO.N,Net-(D2-Pad2)*%
X66040000Y-16510000D03*
%TO.P,U3,13*%
%TO.N,Net-(D3-Pad2)*%
X68580000Y-16510000D03*
%TO.P,U3,14*%
%TO.N,Net-(D4-Pad2)*%
X71120000Y-16510000D03*
%TO.P,U3,15*%
%TO.N,Net-(U3-Pad15)*%
X73660000Y-16510000D03*
%TO.P,U3,16*%
%TO.N,/VCC*%
X76200000Y-16510000D03*
%TD*%
D18*
%TO.P,U4,1*%
%TO.N,/~{CLR}*%
X107950000Y-8890000D03*
D19*
%TO.P,U4,2*%
%TO.N,/CLK*%
X105410000Y-8890000D03*
%TO.P,U4,3*%
%TO.N,/BUS_0*%
X102870000Y-8890000D03*
%TO.P,U4,4*%
%TO.N,/BUS_1*%
X100330000Y-8890000D03*
%TO.P,U4,5*%
%TO.N,/BUS_2*%
X97790000Y-8890000D03*
%TO.P,U4,6*%
%TO.N,/BUS_3*%
X95250000Y-8890000D03*
%TO.P,U4,7*%
%TO.N,/PCUP*%
X92710000Y-8890000D03*
%TO.P,U4,8*%
%TO.N,/GND*%
X90170000Y-8890000D03*
%TO.P,U4,9*%
%TO.N,/~{PCIN}*%
X90170000Y-16510000D03*
%TO.P,U4,10*%
%TO.N,/PCUP*%
X92710000Y-16510000D03*
%TO.P,U4,11*%
%TO.N,Net-(D5-Pad2)*%
X95250000Y-16510000D03*
%TO.P,U4,12*%
%TO.N,Net-(D6-Pad2)*%
X97790000Y-16510000D03*
%TO.P,U4,13*%
%TO.N,Net-(D7-Pad2)*%
X100330000Y-16510000D03*
%TO.P,U4,14*%
%TO.N,Net-(D8-Pad2)*%
X102870000Y-16510000D03*
%TO.P,U4,15*%
%TO.N,Net-(U3-Pad10)*%
X105410000Y-16510000D03*
%TO.P,U4,16*%
%TO.N,/VCC*%
X107950000Y-16510000D03*
%TD*%
D20*
%TO.N,Net-(D1-Pad2)*%
X53340000Y-22860000D03*
%TO.N,Net-(D2-Pad2)*%
X60960000Y-25400000D03*
%TO.N,Net-(D3-Pad2)*%
X67056000Y-27940000D03*
%TO.N,Net-(D4-Pad2)*%
X69088000Y-28956000D03*
%TO.N,Net-(D5-Pad2)*%
X83820000Y-29972000D03*
%TO.N,Net-(D6-Pad2)*%
X91440000Y-30988000D03*
%TO.N,Net-(D7-Pad2)*%
X93980000Y-32004000D03*
%TO.N,Net-(D8-Pad2)*%
X102870000Y-25654000D03*
%TO.N,/~{CLR}*%
X96012000Y-11684000D03*
X20320000Y-6350000D03*
%TO.N,/~{PCIN}*%
X49784000Y-15748000D03*
X23876000Y-15748000D03*
%TO.N,/PCUP*%
X13208000Y-10668000D03*
%TO.N,/BUS_7*%
X19050000Y-18415000D03*
%TO.N,/BUS_6*%
X17780000Y-18415000D03*
%TO.N,/BUS_5*%
X16510000Y-18415000D03*
%TO.N,/BUS_4*%
X15240000Y-18415000D03*
%TO.N,/BUS_3*%
X13970000Y-18415000D03*
%TO.N,/BUS_2*%
X12700000Y-18415000D03*
%TO.N,/BUS_1*%
X11430000Y-18415000D03*
%TO.N,/CLK*%
X51816000Y-16764000D03*
%TO.N,/BUS_0*%
X10160000Y-18415000D03*
%TO.N,Net-(U3-Pad10)*%
X60960000Y-19304000D03*
%TD*%
D21*
%TO.N,Net-(D1-Pad2)*%
X53340000Y-36830000D02*
X53340000Y-22860000D01*
%TO.N,Net-(D2-Pad2)*%
X60960000Y-36830000D02*
X60960000Y-25400000D01*
%TO.N,Net-(D3-Pad2)*%
X68580000Y-36830000D02*
X67056000Y-35306000D01*
X67056000Y-35306000D02*
X67056000Y-27940000D01*
%TO.N,Net-(D4-Pad2)*%
X76200000Y-36830000D02*
X69088000Y-29718000D01*
X69088000Y-29718000D02*
X69088000Y-28956000D01*
%TO.N,Net-(D5-Pad2)*%
X83820000Y-36830000D02*
X83820000Y-29972000D01*
%TO.N,Net-(D6-Pad2)*%
X91440000Y-36830000D02*
X91440000Y-30988000D01*
%TO.N,Net-(D7-Pad2)*%
X99060000Y-36830000D02*
X94234000Y-32004000D01*
X94234000Y-32004000D02*
X93980000Y-32004000D01*
%TO.N,Net-(D8-Pad2)*%
X106680000Y-36830000D02*
X106680000Y-29464000D01*
X106680000Y-29464000D02*
X102870000Y-25654000D01*
%TO.N,/~{CLR}*%
X76708000Y-11684000D02*
X96012000Y-11684000D01*
X76200000Y-11176000D02*
X76708000Y-11684000D01*
X76200000Y-8890000D02*
X76200000Y-11176000D01*
X73660000Y-6350000D02*
X76200000Y-8890000D01*
X20320000Y-6350000D02*
X73660000Y-6350000D01*
%TO.N,/~{PCIN}*%
X9144000Y-17272000D02*
X10668000Y-15748000D01*
X57658000Y-15748000D02*
X58420000Y-16510000D01*
X57658000Y-15748000D02*
X49784000Y-15748000D01*
X6580000Y-24130000D02*
X9144000Y-21566000D01*
X88644990Y-18035010D02*
X90170000Y-16510000D01*
X23876000Y-15748000D02*
X10668000Y-15748000D01*
X59945010Y-18035010D02*
X88644990Y-18035010D01*
X58420000Y-16510000D02*
X59945010Y-18035010D01*
X9144000Y-21566000D02*
X9144000Y-17272000D01*
%TO.N,/~{PCOUT}*%
X6580000Y-26670000D02*
X20550000Y-40640000D01*
X20550000Y-40640000D02*
X21590000Y-40640000D01*
%TO.N,/PCUP*%
X13208000Y-10668000D02*
X16511010Y-7364990D01*
X60960000Y-8890000D02*
X65405000Y-13335000D01*
X16511010Y-7364990D02*
X59434990Y-7364990D01*
X92710000Y-16510000D02*
X89535000Y-13335000D01*
X89535000Y-13335000D02*
X65405000Y-13335000D01*
X59434990Y-7364990D02*
X60960000Y-8890000D01*
%TO.N,/BUS_7*%
X21590000Y-20320000D02*
X20955000Y-20320000D01*
X20955000Y-20320000D02*
X19050000Y-18415000D01*
%TO.N,/BUS_6*%
X17780000Y-19050000D02*
X17780000Y-18415000D01*
X21590000Y-22860000D02*
X17780000Y-19050000D01*
%TO.N,/BUS_5*%
X16510000Y-20320000D02*
X16510000Y-18415000D01*
X21590000Y-25400000D02*
X16510000Y-20320000D01*
%TO.N,/BUS_4*%
X15240000Y-21590000D02*
X15240000Y-18415000D01*
X21590000Y-27940000D02*
X15240000Y-21590000D01*
%TO.N,/BUS_3*%
X13970000Y-22860000D02*
X13970000Y-18415000D01*
X21590000Y-30480000D02*
X13970000Y-22860000D01*
%TO.N,/BUS_2*%
X12700000Y-24130000D02*
X12700000Y-18415000D01*
X21590000Y-33020000D02*
X12700000Y-24130000D01*
%TO.N,/BUS_1*%
X11430000Y-25400000D02*
X11430000Y-18415000D01*
X21590000Y-35560000D02*
X11430000Y-25400000D01*
%TO.N,/CLK*%
X6580000Y-46990000D02*
X7705001Y-45864999D01*
X103340998Y-12409002D02*
X105410000Y-10340000D01*
X51816000Y-25908000D02*
X51816000Y-20320000D01*
X51816000Y-20320000D02*
X51816000Y-16764000D01*
X7705001Y-45864999D02*
X31859001Y-45864999D01*
X31859001Y-45864999D02*
X51816000Y-25908000D01*
X75729002Y-12409002D02*
X103340998Y-12409002D01*
X73660000Y-10340000D02*
X75729002Y-12409002D01*
X105410000Y-10340000D02*
X105410000Y-8890000D01*
X73660000Y-8890000D02*
X73660000Y-10340000D01*
%TO.N,/BUS_0*%
X21590000Y-38100000D02*
X10160000Y-26670000D01*
X10160000Y-26670000D02*
X10160000Y-18415000D01*
%TO.N,Net-(U3-Pad10)*%
X60960000Y-19304000D02*
X102616000Y-19304000D01*
X102616000Y-19304000D02*
X105410000Y-16510000D01*
%TD*%
%TA.AperFunction,Conductor*%
%TO.N,/GND*%
G36*
X149830057Y-509500D02*
G01*
X149844858Y-511805D01*
X149844861Y-511805D01*
X149853730Y-513186D01*
X149869999Y-511059D01*
X149894567Y-510266D01*
X150116985Y-524844D01*
X150133326Y-526995D01*
X150377824Y-575629D01*
X150393743Y-579895D01*
X150629790Y-660022D01*
X150645017Y-666329D01*
X150868592Y-776584D01*
X150882865Y-784825D01*
X151090133Y-923316D01*
X151103206Y-933346D01*
X151239100Y-1052522D01*
X151290632Y-1097714D01*
X151302286Y-1109368D01*
X151446108Y-1273365D01*
X151466651Y-1296790D01*
X151476684Y-1309867D01*
X151615175Y-1517135D01*
X151623416Y-1531408D01*
X151733671Y-1754983D01*
X151739978Y-1770210D01*
X151820105Y-2006257D01*
X151824371Y-2022176D01*
X151873005Y-2266673D01*
X151875156Y-2283014D01*
X151889264Y-2498268D01*
X151888239Y-2521304D01*
X151888196Y-2524854D01*
X151886814Y-2533730D01*
X151889274Y-2552539D01*
X151890936Y-2565251D01*
X151892000Y-2581589D01*
X151892000Y-48210672D01*
X151890500Y-48230056D01*
X151886814Y-48253730D01*
X151888941Y-48269999D01*
X151889734Y-48294567D01*
X151875156Y-48516985D01*
X151873005Y-48533326D01*
X151824371Y-48777824D01*
X151820105Y-48793743D01*
X151739978Y-49029790D01*
X151733671Y-49045017D01*
X151623416Y-49268592D01*
X151615175Y-49282865D01*
X151476684Y-49490133D01*
X151466651Y-49503210D01*
X151302286Y-49690632D01*
X151290632Y-49702286D01*
X151103210Y-49866651D01*
X151090133Y-49876684D01*
X150882865Y-50015175D01*
X150868592Y-50023416D01*
X150645017Y-50133671D01*
X150629790Y-50139978D01*
X150393743Y-50220105D01*
X150377824Y-50224371D01*
X150133327Y-50273005D01*
X150116986Y-50275156D01*
X149901732Y-50289264D01*
X149878696Y-50288239D01*
X149875146Y-50288196D01*
X149866270Y-50286814D01*
X149837762Y-50290542D01*
X149834749Y-50290936D01*
X149818411Y-50292000D01*
X8064500Y-50292000D01*
X7996379Y-50271998D01*
X7949886Y-50218342D01*
X7938500Y-50166000D01*
X7938500Y-48631866D01*
X7931745Y-48569684D01*
X7880615Y-48433295D01*
X7793261Y-48316739D01*
X7676705Y-48229385D01*
X7644519Y-48217319D01*
X7558203Y-48184960D01*
X7501439Y-48142318D01*
X7476739Y-48075756D01*
X7491947Y-48006408D01*
X7513493Y-47977727D01*
X7614435Y-47877137D01*
X7618096Y-47873489D01*
X7649498Y-47829789D01*
X7745435Y-47696277D01*
X7748453Y-47692077D01*
X7768628Y-47651257D01*
X7845136Y-47496453D01*
X7845137Y-47496451D01*
X7847430Y-47491811D01*
X7912370Y-47278069D01*
X7941529Y-47056590D01*
X7943156Y-46990000D01*
X7924852Y-46767361D01*
X7896821Y-46655765D01*
X7899625Y-46584823D01*
X7929930Y-46535974D01*
X7930500Y-46535404D01*
X7992812Y-46501378D01*
X8019595Y-46498499D01*
X21472832Y-46498499D01*
X21540953Y-46518501D01*
X21587446Y-46572157D01*
X21597550Y-46642431D01*
X21594539Y-46657110D01*
X21573784Y-46734570D01*
X21566457Y-46761913D01*
X21546502Y-46990000D01*
X21566457Y-47218087D01*
X21567881Y-47223400D01*
X21567881Y-47223402D01*
X21615851Y-47402425D01*
X21625716Y-47439243D01*
X21628039Y-47444224D01*
X21628039Y-47444225D01*
X21720151Y-47641762D01*
X21720154Y-47641767D01*
X21722477Y-47646749D01*
X21750968Y-47687438D01*
X21829078Y-47798990D01*
X21853802Y-47834300D01*
X22015700Y-47996198D01*
X22020208Y-47999355D01*
X22020211Y-47999357D01*
X22065649Y-48031173D01*
X22203251Y-48127523D01*
X22208233Y-48129846D01*
X22208238Y-48129849D01*
X22395820Y-48217319D01*
X22410757Y-48224284D01*
X22416065Y-48225706D01*
X22416067Y-48225707D01*
X22626598Y-48282119D01*
X22626600Y-48282119D01*
X22631913Y-48283543D01*
X22860000Y-48303498D01*
X23088087Y-48283543D01*
X23093400Y-48282119D01*
X23093402Y-48282119D01*
X23303933Y-48225707D01*
X23303935Y-48225706D01*
X23309243Y-48224284D01*
X23324180Y-48217319D01*
X23511762Y-48129849D01*
X23511767Y-48129846D01*
X23516749Y-48127523D01*
X23654351Y-48031173D01*
X23699789Y-47999357D01*
X23699792Y-47999355D01*
X23704300Y-47996198D01*
X23866198Y-47834300D01*
X23890923Y-47798990D01*
X23969032Y-47687438D01*
X23997523Y-47646749D01*
X23999846Y-47641767D01*
X23999849Y-47641762D01*
X24091961Y-47444225D01*
X24091961Y-47444224D01*
X24094284Y-47439243D01*
X24104150Y-47402425D01*
X24152119Y-47223402D01*
X24152119Y-47223400D01*
X24153543Y-47218087D01*
X24173498Y-46990000D01*
X24153543Y-46761913D01*
X24146217Y-46734570D01*
X24125461Y-46657110D01*
X24127151Y-46586134D01*
X24166945Y-46527338D01*
X24232209Y-46499390D01*
X24247168Y-46498499D01*
X31780234Y-46498499D01*
X31791417Y-46499026D01*
X31798910Y-46500701D01*
X31806836Y-46500452D01*
X31806837Y-46500452D01*
X31866987Y-46498561D01*
X31870946Y-46498499D01*
X31898857Y-46498499D01*
X31902792Y-46498002D01*
X31902857Y-46497994D01*
X31914694Y-46497061D01*
X31946952Y-46496047D01*
X31950971Y-46495921D01*
X31958890Y-46495672D01*
X31978344Y-46490020D01*
X31997701Y-46486012D01*
X32009931Y-46484467D01*
X32009932Y-46484467D01*
X32017798Y-46483473D01*
X32025169Y-46480554D01*
X32025171Y-46480554D01*
X32058913Y-46467195D01*
X32070143Y-46463350D01*
X32104984Y-46453228D01*
X32104985Y-46453228D01*
X32112594Y-46451017D01*
X32119413Y-46446984D01*
X32119418Y-46446982D01*
X32130029Y-46440706D01*
X32147777Y-46432011D01*
X32166618Y-46424551D01*
X32202388Y-46398563D01*
X32212308Y-46392047D01*
X32243536Y-46373579D01*
X32243539Y-46373577D01*
X32250363Y-46369541D01*
X32264684Y-46355220D01*
X32279718Y-46342379D01*
X32289695Y-46335130D01*
X32296108Y-46330471D01*
X32324299Y-46296394D01*
X32332289Y-46287615D01*
X36709904Y-41910000D01*
X49486502Y-41910000D01*
X49506457Y-42138087D01*
X49507881Y-42143400D01*
X49507881Y-42143402D01*
X49559408Y-42335700D01*
X49565716Y-42359243D01*
X49568039Y-42364224D01*
X49568039Y-42364225D01*
X49660151Y-42561762D01*
X49660154Y-42561767D01*
X49662477Y-42566749D01*
X49690968Y-42607438D01*
X49773829Y-42725775D01*
X49793802Y-42754300D01*
X49955700Y-42916198D01*
X49960208Y-42919355D01*
X49960211Y-42919357D01*
X50000445Y-42947529D01*
X50143251Y-43047523D01*
X50148233Y-43049846D01*
X50148238Y-43049849D01*
X50267618Y-43105516D01*
X50350757Y-43144284D01*
X50356065Y-43145706D01*
X50356067Y-43145707D01*
X50566598Y-43202119D01*
X50566600Y-43202119D01*
X50571913Y-43203543D01*
X50800000Y-43223498D01*
X51028087Y-43203543D01*
X51033400Y-43202119D01*
X51033402Y-43202119D01*
X51243933Y-43145707D01*
X51243935Y-43145706D01*
X51249243Y-43144284D01*
X51332382Y-43105516D01*
X51451762Y-43049849D01*
X51451767Y-43049846D01*
X51456749Y-43047523D01*
X51599555Y-42947529D01*
X51639789Y-42919357D01*
X51639792Y-42919355D01*
X51644300Y-42916198D01*
X51806198Y-42754300D01*
X51826172Y-42725775D01*
X51909032Y-42607438D01*
X51937523Y-42566749D01*
X51939846Y-42561767D01*
X51939849Y-42561762D01*
X52031961Y-42364225D01*
X52031961Y-42364224D01*
X52034284Y-42359243D01*
X52040593Y-42335700D01*
X52092119Y-42143402D01*
X52092119Y-42143400D01*
X52093543Y-42138087D01*
X52113498Y-41910000D01*
X57106502Y-41910000D01*
X57126457Y-42138087D01*
X57127881Y-42143400D01*
X57127881Y-42143402D01*
X57179408Y-42335700D01*
X57185716Y-42359243D01*
X57188039Y-42364224D01*
X57188039Y-42364225D01*
X57280151Y-42561762D01*
X57280154Y-42561767D01*
X57282477Y-42566749D01*
X57310968Y-42607438D01*
X57393829Y-42725775D01*
X57413802Y-42754300D01*
X57575700Y-42916198D01*
X57580208Y-42919355D01*
X57580211Y-42919357D01*
X57620445Y-42947529D01*
X57763251Y-43047523D01*
X57768233Y-43049846D01*
X57768238Y-43049849D01*
X57887618Y-43105516D01*
X57970757Y-43144284D01*
X57976065Y-43145706D01*
X57976067Y-43145707D01*
X58186598Y-43202119D01*
X58186600Y-43202119D01*
X58191913Y-43203543D01*
X58420000Y-43223498D01*
X58648087Y-43203543D01*
X58653400Y-43202119D01*
X58653402Y-43202119D01*
X58863933Y-43145707D01*
X58863935Y-43145706D01*
X58869243Y-43144284D01*
X58952382Y-43105516D01*
X59071762Y-43049849D01*
X59071767Y-43049846D01*
X59076749Y-43047523D01*
X59219555Y-42947529D01*
X59259789Y-42919357D01*
X59259792Y-42919355D01*
X59264300Y-42916198D01*
X59426198Y-42754300D01*
X59446172Y-42725775D01*
X59529032Y-42607438D01*
X59557523Y-42566749D01*
X59559846Y-42561767D01*
X59559849Y-42561762D01*
X59651961Y-42364225D01*
X59651961Y-42364224D01*
X59654284Y-42359243D01*
X59660593Y-42335700D01*
X59712119Y-42143402D01*
X59712119Y-42143400D01*
X59713543Y-42138087D01*
X59733498Y-41910000D01*
X64726502Y-41910000D01*
X64746457Y-42138087D01*
X64747881Y-42143400D01*
X64747881Y-42143402D01*
X64799408Y-42335700D01*
X64805716Y-42359243D01*
X64808039Y-42364224D01*
X64808039Y-42364225D01*
X64900151Y-42561762D01*
X64900154Y-42561767D01*
X64902477Y-42566749D01*
X64930968Y-42607438D01*
X65013829Y-42725775D01*
X65033802Y-42754300D01*
X65195700Y-42916198D01*
X65200208Y-42919355D01*
X65200211Y-42919357D01*
X65240445Y-42947529D01*
X65383251Y-43047523D01*
X65388233Y-43049846D01*
X65388238Y-43049849D01*
X65507618Y-43105516D01*
X65590757Y-43144284D01*
X65596065Y-43145706D01*
X65596067Y-43145707D01*
X65806598Y-43202119D01*
X65806600Y-43202119D01*
X65811913Y-43203543D01*
X66040000Y-43223498D01*
X66268087Y-43203543D01*
X66273400Y-43202119D01*
X66273402Y-43202119D01*
X66483933Y-43145707D01*
X66483935Y-43145706D01*
X66489243Y-43144284D01*
X66572382Y-43105516D01*
X66691762Y-43049849D01*
X66691767Y-43049846D01*
X66696749Y-43047523D01*
X66839555Y-42947529D01*
X66879789Y-42919357D01*
X66879792Y-42919355D01*
X66884300Y-42916198D01*
X67046198Y-42754300D01*
X67066172Y-42725775D01*
X67149032Y-42607438D01*
X67177523Y-42566749D01*
X67179846Y-42561767D01*
X67179849Y-42561762D01*
X67271961Y-42364225D01*
X67271961Y-42364224D01*
X67274284Y-42359243D01*
X67280593Y-42335700D01*
X67332119Y-42143402D01*
X67332119Y-42143400D01*
X67333543Y-42138087D01*
X67353498Y-41910000D01*
X72346502Y-41910000D01*
X72366457Y-42138087D01*
X72367881Y-42143400D01*
X72367881Y-42143402D01*
X72419408Y-42335700D01*
X72425716Y-42359243D01*
X72428039Y-42364224D01*
X72428039Y-42364225D01*
X72520151Y-42561762D01*
X72520154Y-42561767D01*
X72522477Y-42566749D01*
X72550968Y-42607438D01*
X72633829Y-42725775D01*
X72653802Y-42754300D01*
X72815700Y-42916198D01*
X72820208Y-42919355D01*
X72820211Y-42919357D01*
X72860445Y-42947529D01*
X73003251Y-43047523D01*
X73008233Y-43049846D01*
X73008238Y-43049849D01*
X73127618Y-43105516D01*
X73210757Y-43144284D01*
X73216065Y-43145706D01*
X73216067Y-43145707D01*
X73426598Y-43202119D01*
X73426600Y-43202119D01*
X73431913Y-43203543D01*
X73660000Y-43223498D01*
X73888087Y-43203543D01*
X73893400Y-43202119D01*
X73893402Y-43202119D01*
X74103933Y-43145707D01*
X74103935Y-43145706D01*
X74109243Y-43144284D01*
X74192382Y-43105516D01*
X74311762Y-43049849D01*
X74311767Y-43049846D01*
X74316749Y-43047523D01*
X74459555Y-42947529D01*
X74499789Y-42919357D01*
X74499792Y-42919355D01*
X74504300Y-42916198D01*
X74666198Y-42754300D01*
X74686172Y-42725775D01*
X74769032Y-42607438D01*
X74797523Y-42566749D01*
X74799846Y-42561767D01*
X74799849Y-42561762D01*
X74891961Y-42364225D01*
X74891961Y-42364224D01*
X74894284Y-42359243D01*
X74900593Y-42335700D01*
X74952119Y-42143402D01*
X74952119Y-42143400D01*
X74953543Y-42138087D01*
X74973498Y-41910000D01*
X79966502Y-41910000D01*
X79986457Y-42138087D01*
X79987881Y-42143400D01*
X79987881Y-42143402D01*
X80039408Y-42335700D01*
X80045716Y-42359243D01*
X80048039Y-42364224D01*
X80048039Y-42364225D01*
X80140151Y-42561762D01*
X80140154Y-42561767D01*
X80142477Y-42566749D01*
X80170968Y-42607438D01*
X80253829Y-42725775D01*
X80273802Y-42754300D01*
X80435700Y-42916198D01*
X80440208Y-42919355D01*
X80440211Y-42919357D01*
X80480445Y-42947529D01*
X80623251Y-43047523D01*
X80628233Y-43049846D01*
X80628238Y-43049849D01*
X80747618Y-43105516D01*
X80830757Y-43144284D01*
X80836065Y-43145706D01*
X80836067Y-43145707D01*
X81046598Y-43202119D01*
X81046600Y-43202119D01*
X81051913Y-43203543D01*
X81280000Y-43223498D01*
X81508087Y-43203543D01*
X81513400Y-43202119D01*
X81513402Y-43202119D01*
X81723933Y-43145707D01*
X81723935Y-43145706D01*
X81729243Y-43144284D01*
X81812382Y-43105516D01*
X81931762Y-43049849D01*
X81931767Y-43049846D01*
X81936749Y-43047523D01*
X82079555Y-42947529D01*
X82119789Y-42919357D01*
X82119792Y-42919355D01*
X82124300Y-42916198D01*
X82286198Y-42754300D01*
X82306172Y-42725775D01*
X82389032Y-42607438D01*
X82417523Y-42566749D01*
X82419846Y-42561767D01*
X82419849Y-42561762D01*
X82511961Y-42364225D01*
X82511961Y-42364224D01*
X82514284Y-42359243D01*
X82520593Y-42335700D01*
X82572119Y-42143402D01*
X82572119Y-42143400D01*
X82573543Y-42138087D01*
X82593498Y-41910000D01*
X87586502Y-41910000D01*
X87606457Y-42138087D01*
X87607881Y-42143400D01*
X87607881Y-42143402D01*
X87659408Y-42335700D01*
X87665716Y-42359243D01*
X87668039Y-42364224D01*
X87668039Y-42364225D01*
X87760151Y-42561762D01*
X87760154Y-42561767D01*
X87762477Y-42566749D01*
X87790968Y-42607438D01*
X87873829Y-42725775D01*
X87893802Y-42754300D01*
X88055700Y-42916198D01*
X88060208Y-42919355D01*
X88060211Y-42919357D01*
X88100445Y-42947529D01*
X88243251Y-43047523D01*
X88248233Y-43049846D01*
X88248238Y-43049849D01*
X88367618Y-43105516D01*
X88450757Y-43144284D01*
X88456065Y-43145706D01*
X88456067Y-43145707D01*
X88666598Y-43202119D01*
X88666600Y-43202119D01*
X88671913Y-43203543D01*
X88900000Y-43223498D01*
X89128087Y-43203543D01*
X89133400Y-43202119D01*
X89133402Y-43202119D01*
X89343933Y-43145707D01*
X89343935Y-43145706D01*
X89349243Y-43144284D01*
X89432382Y-43105516D01*
X89551762Y-43049849D01*
X89551767Y-43049846D01*
X89556749Y-43047523D01*
X89699555Y-42947529D01*
X89739789Y-42919357D01*
X89739792Y-42919355D01*
X89744300Y-42916198D01*
X89906198Y-42754300D01*
X89926172Y-42725775D01*
X90009032Y-42607438D01*
X90037523Y-42566749D01*
X90039846Y-42561767D01*
X90039849Y-42561762D01*
X90131961Y-42364225D01*
X90131961Y-42364224D01*
X90134284Y-42359243D01*
X90140593Y-42335700D01*
X90192119Y-42143402D01*
X90192119Y-42143400D01*
X90193543Y-42138087D01*
X90213498Y-41910000D01*
X95206502Y-41910000D01*
X95226457Y-42138087D01*
X95227881Y-42143400D01*
X95227881Y-42143402D01*
X95279408Y-42335700D01*
X95285716Y-42359243D01*
X95288039Y-42364224D01*
X95288039Y-42364225D01*
X95380151Y-42561762D01*
X95380154Y-42561767D01*
X95382477Y-42566749D01*
X95410968Y-42607438D01*
X95493829Y-42725775D01*
X95513802Y-42754300D01*
X95675700Y-42916198D01*
X95680208Y-42919355D01*
X95680211Y-42919357D01*
X95720445Y-42947529D01*
X95863251Y-43047523D01*
X95868233Y-43049846D01*
X95868238Y-43049849D01*
X95987618Y-43105516D01*
X96070757Y-43144284D01*
X96076065Y-43145706D01*
X96076067Y-43145707D01*
X96286598Y-43202119D01*
X96286600Y-43202119D01*
X96291913Y-43203543D01*
X96520000Y-43223498D01*
X96748087Y-43203543D01*
X96753400Y-43202119D01*
X96753402Y-43202119D01*
X96963933Y-43145707D01*
X96963935Y-43145706D01*
X96969243Y-43144284D01*
X97052382Y-43105516D01*
X97171762Y-43049849D01*
X97171767Y-43049846D01*
X97176749Y-43047523D01*
X97319555Y-42947529D01*
X97359789Y-42919357D01*
X97359792Y-42919355D01*
X97364300Y-42916198D01*
X97526198Y-42754300D01*
X97546172Y-42725775D01*
X97629032Y-42607438D01*
X97657523Y-42566749D01*
X97659846Y-42561767D01*
X97659849Y-42561762D01*
X97751961Y-42364225D01*
X97751961Y-42364224D01*
X97754284Y-42359243D01*
X97760593Y-42335700D01*
X97812119Y-42143402D01*
X97812119Y-42143400D01*
X97813543Y-42138087D01*
X97833498Y-41910000D01*
X102826502Y-41910000D01*
X102846457Y-42138087D01*
X102847881Y-42143400D01*
X102847881Y-42143402D01*
X102899408Y-42335700D01*
X102905716Y-42359243D01*
X102908039Y-42364224D01*
X102908039Y-42364225D01*
X103000151Y-42561762D01*
X103000154Y-42561767D01*
X103002477Y-42566749D01*
X103030968Y-42607438D01*
X103113829Y-42725775D01*
X103133802Y-42754300D01*
X103295700Y-42916198D01*
X103300208Y-42919355D01*
X103300211Y-42919357D01*
X103340445Y-42947529D01*
X103483251Y-43047523D01*
X103488233Y-43049846D01*
X103488238Y-43049849D01*
X103607618Y-43105516D01*
X103690757Y-43144284D01*
X103696065Y-43145706D01*
X103696067Y-43145707D01*
X103906598Y-43202119D01*
X103906600Y-43202119D01*
X103911913Y-43203543D01*
X104140000Y-43223498D01*
X104368087Y-43203543D01*
X104373400Y-43202119D01*
X104373402Y-43202119D01*
X104583933Y-43145707D01*
X104583935Y-43145706D01*
X104589243Y-43144284D01*
X104672382Y-43105516D01*
X104791762Y-43049849D01*
X104791767Y-43049846D01*
X104796749Y-43047523D01*
X104939555Y-42947529D01*
X104979789Y-42919357D01*
X104979792Y-42919355D01*
X104984300Y-42916198D01*
X105146198Y-42754300D01*
X105166172Y-42725775D01*
X105249032Y-42607438D01*
X105277523Y-42566749D01*
X105279846Y-42561767D01*
X105279849Y-42561762D01*
X105371961Y-42364225D01*
X105371961Y-42364224D01*
X105374284Y-42359243D01*
X105380593Y-42335700D01*
X105432119Y-42143402D01*
X105432119Y-42143400D01*
X105433543Y-42138087D01*
X105453498Y-41910000D01*
X105433543Y-41681913D01*
X105427540Y-41659510D01*
X105375707Y-41466067D01*
X105375706Y-41466065D01*
X105374284Y-41460757D01*
X105362092Y-41434610D01*
X105279849Y-41258238D01*
X105279846Y-41258233D01*
X105277523Y-41253251D01*
X105204098Y-41148389D01*
X105149357Y-41070211D01*
X105149355Y-41070208D01*
X105146198Y-41065700D01*
X104984300Y-40903802D01*
X104979792Y-40900645D01*
X104979789Y-40900643D01*
X104901611Y-40845902D01*
X104796749Y-40772477D01*
X104791767Y-40770154D01*
X104791762Y-40770151D01*
X104594225Y-40678039D01*
X104594224Y-40678039D01*
X104589243Y-40675716D01*
X104583935Y-40674294D01*
X104583933Y-40674293D01*
X104373402Y-40617881D01*
X104373400Y-40617881D01*
X104368087Y-40616457D01*
X104140000Y-40596502D01*
X103911913Y-40616457D01*
X103906600Y-40617881D01*
X103906598Y-40617881D01*
X103696067Y-40674293D01*
X103696065Y-40674294D01*
X103690757Y-40675716D01*
X103685776Y-40678039D01*
X103685775Y-40678039D01*
X103488238Y-40770151D01*
X103488233Y-40770154D01*
X103483251Y-40772477D01*
X103378389Y-40845902D01*
X103300211Y-40900643D01*
X103300208Y-40900645D01*
X103295700Y-40903802D01*
X103133802Y-41065700D01*
X103130645Y-41070208D01*
X103130643Y-41070211D01*
X103075902Y-41148389D01*
X103002477Y-41253251D01*
X103000154Y-41258233D01*
X103000151Y-41258238D01*
X102917908Y-41434610D01*
X102905716Y-41460757D01*
X102904294Y-41466065D01*
X102904293Y-41466067D01*
X102852460Y-41659510D01*
X102846457Y-41681913D01*
X102826502Y-41910000D01*
X97833498Y-41910000D01*
X97813543Y-41681913D01*
X97807540Y-41659510D01*
X97755707Y-41466067D01*
X97755706Y-41466065D01*
X97754284Y-41460757D01*
X97742092Y-41434610D01*
X97659849Y-41258238D01*
X97659846Y-41258233D01*
X97657523Y-41253251D01*
X97584098Y-41148389D01*
X97529357Y-41070211D01*
X97529355Y-41070208D01*
X97526198Y-41065700D01*
X97364300Y-40903802D01*
X97359792Y-40900645D01*
X97359789Y-40900643D01*
X97281611Y-40845902D01*
X97176749Y-40772477D01*
X97171767Y-40770154D01*
X97171762Y-40770151D01*
X96974225Y-40678039D01*
X96974224Y-40678039D01*
X96969243Y-40675716D01*
X96963935Y-40674294D01*
X96963933Y-40674293D01*
X96753402Y-40617881D01*
X96753400Y-40617881D01*
X96748087Y-40616457D01*
X96520000Y-40596502D01*
X96291913Y-40616457D01*
X96286600Y-40617881D01*
X96286598Y-40617881D01*
X96076067Y-40674293D01*
X96076065Y-40674294D01*
X96070757Y-40675716D01*
X96065776Y-40678039D01*
X96065775Y-40678039D01*
X95868238Y-40770151D01*
X95868233Y-40770154D01*
X95863251Y-40772477D01*
X95758389Y-40845902D01*
X95680211Y-40900643D01*
X95680208Y-40900645D01*
X95675700Y-40903802D01*
X95513802Y-41065700D01*
X95510645Y-41070208D01*
X95510643Y-41070211D01*
X95455902Y-41148389D01*
X95382477Y-41253251D01*
X95380154Y-41258233D01*
X95380151Y-41258238D01*
X95297908Y-41434610D01*
X95285716Y-41460757D01*
X95284294Y-41466065D01*
X95284293Y-41466067D01*
X95232460Y-41659510D01*
X95226457Y-41681913D01*
X95206502Y-41910000D01*
X90213498Y-41910000D01*
X90193543Y-41681913D01*
X90187540Y-41659510D01*
X90135707Y-41466067D01*
X90135706Y-41466065D01*
X90134284Y-41460757D01*
X90122092Y-41434610D01*
X90039849Y-41258238D01*
X90039846Y-41258233D01*
X90037523Y-41253251D01*
X89964098Y-41148389D01*
X89909357Y-41070211D01*
X89909355Y-41070208D01*
X89906198Y-41065700D01*
X89744300Y-40903802D01*
X89739792Y-40900645D01*
X89739789Y-40900643D01*
X89661611Y-40845902D01*
X89556749Y-40772477D01*
X89551767Y-40770154D01*
X89551762Y-40770151D01*
X89354225Y-40678039D01*
X89354224Y-40678039D01*
X89349243Y-40675716D01*
X89343935Y-40674294D01*
X89343933Y-40674293D01*
X89133402Y-40617881D01*
X89133400Y-40617881D01*
X89128087Y-40616457D01*
X88900000Y-40596502D01*
X88671913Y-40616457D01*
X88666600Y-40617881D01*
X88666598Y-40617881D01*
X88456067Y-40674293D01*
X88456065Y-40674294D01*
X88450757Y-40675716D01*
X88445776Y-40678039D01*
X88445775Y-40678039D01*
X88248238Y-40770151D01*
X88248233Y-40770154D01*
X88243251Y-40772477D01*
X88138389Y-40845902D01*
X88060211Y-40900643D01*
X88060208Y-40900645D01*
X88055700Y-40903802D01*
X87893802Y-41065700D01*
X87890645Y-41070208D01*
X87890643Y-41070211D01*
X87835902Y-41148389D01*
X87762477Y-41253251D01*
X87760154Y-41258233D01*
X87760151Y-41258238D01*
X87677908Y-41434610D01*
X87665716Y-41460757D01*
X87664294Y-41466065D01*
X87664293Y-41466067D01*
X87612460Y-41659510D01*
X87606457Y-41681913D01*
X87586502Y-41910000D01*
X82593498Y-41910000D01*
X82573543Y-41681913D01*
X82567540Y-41659510D01*
X82515707Y-41466067D01*
X82515706Y-41466065D01*
X82514284Y-41460757D01*
X82502092Y-41434610D01*
X82419849Y-41258238D01*
X82419846Y-41258233D01*
X82417523Y-41253251D01*
X82344098Y-41148389D01*
X82289357Y-41070211D01*
X82289355Y-41070208D01*
X82286198Y-41065700D01*
X82124300Y-40903802D01*
X82119792Y-40900645D01*
X82119789Y-40900643D01*
X82041611Y-40845902D01*
X81936749Y-40772477D01*
X81931767Y-40770154D01*
X81931762Y-40770151D01*
X81734225Y-40678039D01*
X81734224Y-40678039D01*
X81729243Y-40675716D01*
X81723935Y-40674294D01*
X81723933Y-40674293D01*
X81513402Y-40617881D01*
X81513400Y-40617881D01*
X81508087Y-40616457D01*
X81280000Y-40596502D01*
X81051913Y-40616457D01*
X81046600Y-40617881D01*
X81046598Y-40617881D01*
X80836067Y-40674293D01*
X80836065Y-40674294D01*
X80830757Y-40675716D01*
X80825776Y-40678039D01*
X80825775Y-40678039D01*
X80628238Y-40770151D01*
X80628233Y-40770154D01*
X80623251Y-40772477D01*
X80518389Y-40845902D01*
X80440211Y-40900643D01*
X80440208Y-40900645D01*
X80435700Y-40903802D01*
X80273802Y-41065700D01*
X80270645Y-41070208D01*
X80270643Y-41070211D01*
X80215902Y-41148389D01*
X80142477Y-41253251D01*
X80140154Y-41258233D01*
X80140151Y-41258238D01*
X80057908Y-41434610D01*
X80045716Y-41460757D01*
X80044294Y-41466065D01*
X80044293Y-41466067D01*
X79992460Y-41659510D01*
X79986457Y-41681913D01*
X79966502Y-41910000D01*
X74973498Y-41910000D01*
X74953543Y-41681913D01*
X74947540Y-41659510D01*
X74895707Y-41466067D01*
X74895706Y-41466065D01*
X74894284Y-41460757D01*
X74882092Y-41434610D01*
X74799849Y-41258238D01*
X74799846Y-41258233D01*
X74797523Y-41253251D01*
X74724098Y-41148389D01*
X74669357Y-41070211D01*
X74669355Y-41070208D01*
X74666198Y-41065700D01*
X74504300Y-40903802D01*
X74499792Y-40900645D01*
X74499789Y-40900643D01*
X74421611Y-40845902D01*
X74316749Y-40772477D01*
X74311767Y-40770154D01*
X74311762Y-40770151D01*
X74114225Y-40678039D01*
X74114224Y-40678039D01*
X74109243Y-40675716D01*
X74103935Y-40674294D01*
X74103933Y-40674293D01*
X73893402Y-40617881D01*
X73893400Y-40617881D01*
X73888087Y-40616457D01*
X73660000Y-40596502D01*
X73431913Y-40616457D01*
X73426600Y-40617881D01*
X73426598Y-40617881D01*
X73216067Y-40674293D01*
X73216065Y-40674294D01*
X73210757Y-40675716D01*
X73205776Y-40678039D01*
X73205775Y-40678039D01*
X73008238Y-40770151D01*
X73008233Y-40770154D01*
X73003251Y-40772477D01*
X72898389Y-40845902D01*
X72820211Y-40900643D01*
X72820208Y-40900645D01*
X72815700Y-40903802D01*
X72653802Y-41065700D01*
X72650645Y-41070208D01*
X72650643Y-41070211D01*
X72595902Y-41148389D01*
X72522477Y-41253251D01*
X72520154Y-41258233D01*
X72520151Y-41258238D01*
X72437908Y-41434610D01*
X72425716Y-41460757D01*
X72424294Y-41466065D01*
X72424293Y-41466067D01*
X72372460Y-41659510D01*
X72366457Y-41681913D01*
X72346502Y-41910000D01*
X67353498Y-41910000D01*
X67333543Y-41681913D01*
X67327540Y-41659510D01*
X67275707Y-41466067D01*
X67275706Y-41466065D01*
X67274284Y-41460757D01*
X67262092Y-41434610D01*
X67179849Y-41258238D01*
X67179846Y-41258233D01*
X67177523Y-41253251D01*
X67104098Y-41148389D01*
X67049357Y-41070211D01*
X67049355Y-41070208D01*
X67046198Y-41065700D01*
X66884300Y-40903802D01*
X66879792Y-40900645D01*
X66879789Y-40900643D01*
X66801611Y-40845902D01*
X66696749Y-40772477D01*
X66691767Y-40770154D01*
X66691762Y-40770151D01*
X66494225Y-40678039D01*
X66494224Y-40678039D01*
X66489243Y-40675716D01*
X66483935Y-40674294D01*
X66483933Y-40674293D01*
X66273402Y-40617881D01*
X66273400Y-40617881D01*
X66268087Y-40616457D01*
X66040000Y-40596502D01*
X65811913Y-40616457D01*
X65806600Y-40617881D01*
X65806598Y-40617881D01*
X65596067Y-40674293D01*
X65596065Y-40674294D01*
X65590757Y-40675716D01*
X65585776Y-40678039D01*
X65585775Y-40678039D01*
X65388238Y-40770151D01*
X65388233Y-40770154D01*
X65383251Y-40772477D01*
X65278389Y-40845902D01*
X65200211Y-40900643D01*
X65200208Y-40900645D01*
X65195700Y-40903802D01*
X65033802Y-41065700D01*
X65030645Y-41070208D01*
X65030643Y-41070211D01*
X64975902Y-41148389D01*
X64902477Y-41253251D01*
X64900154Y-41258233D01*
X64900151Y-41258238D01*
X64817908Y-41434610D01*
X64805716Y-41460757D01*
X64804294Y-41466065D01*
X64804293Y-41466067D01*
X64752460Y-41659510D01*
X64746457Y-41681913D01*
X64726502Y-41910000D01*
X59733498Y-41910000D01*
X59713543Y-41681913D01*
X59707540Y-41659510D01*
X59655707Y-41466067D01*
X59655706Y-41466065D01*
X59654284Y-41460757D01*
X59642092Y-41434610D01*
X59559849Y-41258238D01*
X59559846Y-41258233D01*
X59557523Y-41253251D01*
X59484098Y-41148389D01*
X59429357Y-41070211D01*
X59429355Y-41070208D01*
X59426198Y-41065700D01*
X59264300Y-40903802D01*
X59259792Y-40900645D01*
X59259789Y-40900643D01*
X59181611Y-40845902D01*
X59076749Y-40772477D01*
X59071767Y-40770154D01*
X59071762Y-40770151D01*
X58874225Y-40678039D01*
X58874224Y-40678039D01*
X58869243Y-40675716D01*
X58863935Y-40674294D01*
X58863933Y-40674293D01*
X58653402Y-40617881D01*
X58653400Y-40617881D01*
X58648087Y-40616457D01*
X58420000Y-40596502D01*
X58191913Y-40616457D01*
X58186600Y-40617881D01*
X58186598Y-40617881D01*
X57976067Y-40674293D01*
X57976065Y-40674294D01*
X57970757Y-40675716D01*
X57965776Y-40678039D01*
X57965775Y-40678039D01*
X57768238Y-40770151D01*
X57768233Y-40770154D01*
X57763251Y-40772477D01*
X57658389Y-40845902D01*
X57580211Y-40900643D01*
X57580208Y-40900645D01*
X57575700Y-40903802D01*
X57413802Y-41065700D01*
X57410645Y-41070208D01*
X57410643Y-41070211D01*
X57355902Y-41148389D01*
X57282477Y-41253251D01*
X57280154Y-41258233D01*
X57280151Y-41258238D01*
X57197908Y-41434610D01*
X57185716Y-41460757D01*
X57184294Y-41466065D01*
X57184293Y-41466067D01*
X57132460Y-41659510D01*
X57126457Y-41681913D01*
X57106502Y-41910000D01*
X52113498Y-41910000D01*
X52093543Y-41681913D01*
X52087540Y-41659510D01*
X52035707Y-41466067D01*
X52035706Y-41466065D01*
X52034284Y-41460757D01*
X52022092Y-41434610D01*
X51939849Y-41258238D01*
X51939846Y-41258233D01*
X51937523Y-41253251D01*
X51864098Y-41148389D01*
X51809357Y-41070211D01*
X51809355Y-41070208D01*
X51806198Y-41065700D01*
X51644300Y-40903802D01*
X51639792Y-40900645D01*
X51639789Y-40900643D01*
X51561611Y-40845902D01*
X51456749Y-40772477D01*
X51451767Y-40770154D01*
X51451762Y-40770151D01*
X51254225Y-40678039D01*
X51254224Y-40678039D01*
X51249243Y-40675716D01*
X51243935Y-40674294D01*
X51243933Y-40674293D01*
X51033402Y-40617881D01*
X51033400Y-40617881D01*
X51028087Y-40616457D01*
X50800000Y-40596502D01*
X50571913Y-40616457D01*
X50566600Y-40617881D01*
X50566598Y-40617881D01*
X50356067Y-40674293D01*
X50356065Y-40674294D01*
X50350757Y-40675716D01*
X50345776Y-40678039D01*
X50345775Y-40678039D01*
X50148238Y-40770151D01*
X50148233Y-40770154D01*
X50143251Y-40772477D01*
X50038389Y-40845902D01*
X49960211Y-40900643D01*
X49960208Y-40900645D01*
X49955700Y-40903802D01*
X49793802Y-41065700D01*
X49790645Y-41070208D01*
X49790643Y-41070211D01*
X49735902Y-41148389D01*
X49662477Y-41253251D01*
X49660154Y-41258233D01*
X49660151Y-41258238D01*
X49577908Y-41434610D01*
X49565716Y-41460757D01*
X49564294Y-41466065D01*
X49564293Y-41466067D01*
X49512460Y-41659510D01*
X49506457Y-41681913D01*
X49486502Y-41910000D01*
X36709904Y-41910000D01*
X52208247Y-26411657D01*
X52216537Y-26404113D01*
X52223018Y-26400000D01*
X52269659Y-26350332D01*
X52272413Y-26347491D01*
X52292135Y-26327769D01*
X52294612Y-26324576D01*
X52302317Y-26315555D01*
X52327159Y-26289100D01*
X52332586Y-26283321D01*
X52336407Y-26276371D01*
X52342346Y-26265568D01*
X52353202Y-26249041D01*
X52360757Y-26239302D01*
X52360758Y-26239300D01*
X52365614Y-26233040D01*
X52383174Y-26192460D01*
X52388391Y-26181812D01*
X52405875Y-26150009D01*
X52405876Y-26150007D01*
X52409695Y-26143060D01*
X52414733Y-26123437D01*
X52421137Y-26104734D01*
X52426033Y-26093420D01*
X52426033Y-26093419D01*
X52429181Y-26086145D01*
X52430420Y-26078322D01*
X52430423Y-26078312D01*
X52436099Y-26042476D01*
X52438505Y-26030856D01*
X52447528Y-25995711D01*
X52447528Y-25995710D01*
X52449500Y-25988030D01*
X52449500Y-25967776D01*
X52451051Y-25948065D01*
X52452980Y-25935886D01*
X52454220Y-25928057D01*
X52450059Y-25884038D01*
X52449500Y-25872181D01*
X52449500Y-23556971D01*
X52469502Y-23488850D01*
X52523158Y-23442357D01*
X52593432Y-23432253D01*
X52658012Y-23461747D01*
X52669128Y-23472652D01*
X52674137Y-23478215D01*
X52704853Y-23542220D01*
X52706500Y-23562524D01*
X52706500Y-35495319D01*
X52686498Y-35563440D01*
X52638679Y-35607083D01*
X52591463Y-35631662D01*
X52586872Y-35634052D01*
X52582734Y-35637159D01*
X52521287Y-35683295D01*
X52401655Y-35773117D01*
X52392586Y-35782607D01*
X52384170Y-35791414D01*
X52322646Y-35826844D01*
X52251733Y-35823387D01*
X52193947Y-35782141D01*
X52175094Y-35748592D01*
X52153768Y-35691705D01*
X52153767Y-35691703D01*
X52150615Y-35683295D01*
X52063261Y-35566739D01*
X51946705Y-35479385D01*
X51810316Y-35428255D01*
X51748134Y-35421500D01*
X49851866Y-35421500D01*
X49789684Y-35428255D01*
X49653295Y-35479385D01*
X49536739Y-35566739D01*
X49449385Y-35683295D01*
X49398255Y-35819684D01*
X49391500Y-35881866D01*
X49391500Y-37778134D01*
X49398255Y-37840316D01*
X49449385Y-37976705D01*
X49536739Y-38093261D01*
X49653295Y-38180615D01*
X49789684Y-38231745D01*
X49851866Y-38238500D01*
X51748134Y-38238500D01*
X51810316Y-38231745D01*
X51946705Y-38180615D01*
X52063261Y-38093261D01*
X52150615Y-37976705D01*
X52175180Y-37911178D01*
X52217822Y-37854414D01*
X52284383Y-37829714D01*
X52353732Y-37844921D01*
X52373647Y-37858464D01*
X52438724Y-37912492D01*
X52529349Y-37987730D01*
X52729322Y-38104584D01*
X52945694Y-38187209D01*
X52950760Y-38188240D01*
X52950761Y-38188240D01*
X53003846Y-38199040D01*
X53172656Y-38233385D01*
X53302089Y-38238131D01*
X53398949Y-38241683D01*
X53398953Y-38241683D01*
X53404113Y-38241872D01*
X53409233Y-38241216D01*
X53409235Y-38241216D01*
X53483166Y-38231745D01*
X53633847Y-38212442D01*
X53638795Y-38210957D01*
X53638802Y-38210956D01*
X53850747Y-38147369D01*
X53855690Y-38145886D01*
X53860324Y-38143616D01*
X54059049Y-38046262D01*
X54059052Y-38046260D01*
X54063684Y-38043991D01*
X54252243Y-37909494D01*
X54384062Y-37778134D01*
X57011500Y-37778134D01*
X57018255Y-37840316D01*
X57069385Y-37976705D01*
X57156739Y-38093261D01*
X57273295Y-38180615D01*
X57409684Y-38231745D01*
X57471866Y-38238500D01*
X59368134Y-38238500D01*
X59430316Y-38231745D01*
X59566705Y-38180615D01*
X59683261Y-38093261D01*
X59770615Y-37976705D01*
X59795180Y-37911178D01*
X59837822Y-37854414D01*
X59904383Y-37829714D01*
X59973732Y-37844921D01*
X59993647Y-37858464D01*
X60058724Y-37912492D01*
X60149349Y-37987730D01*
X60349322Y-38104584D01*
X60565694Y-38187209D01*
X60570760Y-38188240D01*
X60570761Y-38188240D01*
X60623846Y-38199040D01*
X60792656Y-38233385D01*
X60922089Y-38238131D01*
X61018949Y-38241683D01*
X61018953Y-38241683D01*
X61024113Y-38241872D01*
X61029233Y-38241216D01*
X61029235Y-38241216D01*
X61103166Y-38231745D01*
X61253847Y-38212442D01*
X61258795Y-38210957D01*
X61258802Y-38210956D01*
X61470747Y-38147369D01*
X61475690Y-38145886D01*
X61480324Y-38143616D01*
X61679049Y-38046262D01*
X61679052Y-38046260D01*
X61683684Y-38043991D01*
X61872243Y-37909494D01*
X62004062Y-37778134D01*
X64631500Y-37778134D01*
X64638255Y-37840316D01*
X64689385Y-37976705D01*
X64776739Y-38093261D01*
X64893295Y-38180615D01*
X65029684Y-38231745D01*
X65091866Y-38238500D01*
X66988134Y-38238500D01*
X67050316Y-38231745D01*
X67186705Y-38180615D01*
X67303261Y-38093261D01*
X67390615Y-37976705D01*
X67415180Y-37911178D01*
X67457822Y-37854414D01*
X67524383Y-37829714D01*
X67593732Y-37844921D01*
X67613647Y-37858464D01*
X67678724Y-37912492D01*
X67769349Y-37987730D01*
X67969322Y-38104584D01*
X68185694Y-38187209D01*
X68190760Y-38188240D01*
X68190761Y-38188240D01*
X68243846Y-38199040D01*
X68412656Y-38233385D01*
X68542089Y-38238131D01*
X68638949Y-38241683D01*
X68638953Y-38241683D01*
X68644113Y-38241872D01*
X68649233Y-38241216D01*
X68649235Y-38241216D01*
X68723166Y-38231745D01*
X68873847Y-38212442D01*
X68878795Y-38210957D01*
X68878802Y-38210956D01*
X69090747Y-38147369D01*
X69095690Y-38145886D01*
X69100324Y-38143616D01*
X69299049Y-38046262D01*
X69299052Y-38046260D01*
X69303684Y-38043991D01*
X69492243Y-37909494D01*
X69656303Y-37746005D01*
X69791458Y-37557917D01*
X69843066Y-37453497D01*
X69891784Y-37354922D01*
X69891785Y-37354920D01*
X69894078Y-37350280D01*
X69961408Y-37128671D01*
X69991640Y-36899041D01*
X69993327Y-36830000D01*
X69987032Y-36753434D01*
X69974773Y-36604318D01*
X69974772Y-36604312D01*
X69974349Y-36599167D01*
X69923247Y-36395720D01*
X69919184Y-36379544D01*
X69919183Y-36379540D01*
X69917925Y-36374533D01*
X69915866Y-36369797D01*
X69827630Y-36166868D01*
X69827628Y-36166865D01*
X69825570Y-36162131D01*
X69699764Y-35967665D01*
X69543887Y-35796358D01*
X69539836Y-35793159D01*
X69539832Y-35793155D01*
X69366177Y-35656011D01*
X69366172Y-35656008D01*
X69362123Y-35652810D01*
X69357607Y-35650317D01*
X69357604Y-35650315D01*
X69163879Y-35543373D01*
X69163875Y-35543371D01*
X69159355Y-35540876D01*
X69154486Y-35539152D01*
X69154482Y-35539150D01*
X68945903Y-35465288D01*
X68945899Y-35465287D01*
X68941028Y-35463562D01*
X68935935Y-35462655D01*
X68935932Y-35462654D01*
X68718095Y-35423851D01*
X68718089Y-35423850D01*
X68713006Y-35422945D01*
X68640096Y-35422054D01*
X68486581Y-35420179D01*
X68486579Y-35420179D01*
X68481411Y-35420116D01*
X68252464Y-35455150D01*
X68211885Y-35468413D01*
X68140922Y-35470563D01*
X68083647Y-35437742D01*
X67726405Y-35080500D01*
X67692379Y-35018188D01*
X67689500Y-34991405D01*
X67689500Y-28956000D01*
X68174496Y-28956000D01*
X68175186Y-28962565D01*
X68191293Y-29115810D01*
X68194458Y-29145928D01*
X68253473Y-29327556D01*
X68256776Y-29333278D01*
X68256777Y-29333279D01*
X68260745Y-29340151D01*
X68348960Y-29492944D01*
X68353378Y-29497851D01*
X68353379Y-29497852D01*
X68420485Y-29572381D01*
X68451203Y-29636388D01*
X68451932Y-29657921D01*
X68452298Y-29657909D01*
X68454438Y-29725986D01*
X68454500Y-29729945D01*
X68454500Y-29757856D01*
X68454997Y-29761790D01*
X68454997Y-29761791D01*
X68455005Y-29761856D01*
X68455938Y-29773693D01*
X68457327Y-29817889D01*
X68462978Y-29837339D01*
X68466987Y-29856700D01*
X68469526Y-29876797D01*
X68472445Y-29884168D01*
X68472445Y-29884170D01*
X68485804Y-29917912D01*
X68489649Y-29929142D01*
X68501982Y-29971593D01*
X68506015Y-29978412D01*
X68506017Y-29978417D01*
X68512293Y-29989028D01*
X68520988Y-30006776D01*
X68528448Y-30025617D01*
X68533110Y-30032033D01*
X68533110Y-30032034D01*
X68554436Y-30061387D01*
X68560952Y-30071307D01*
X68574071Y-30093489D01*
X68583458Y-30109362D01*
X68597779Y-30123683D01*
X68610619Y-30138716D01*
X68622528Y-30155107D01*
X68638362Y-30168206D01*
X68656605Y-30183298D01*
X68665384Y-30191288D01*
X73680500Y-35206405D01*
X73714526Y-35268717D01*
X73709461Y-35339532D01*
X73666914Y-35396368D01*
X73600394Y-35421179D01*
X73591405Y-35421500D01*
X72711866Y-35421500D01*
X72649684Y-35428255D01*
X72513295Y-35479385D01*
X72396739Y-35566739D01*
X72309385Y-35683295D01*
X72258255Y-35819684D01*
X72251500Y-35881866D01*
X72251500Y-37778134D01*
X72258255Y-37840316D01*
X72309385Y-37976705D01*
X72396739Y-38093261D01*
X72513295Y-38180615D01*
X72649684Y-38231745D01*
X72711866Y-38238500D01*
X74608134Y-38238500D01*
X74670316Y-38231745D01*
X74806705Y-38180615D01*
X74923261Y-38093261D01*
X75010615Y-37976705D01*
X75035180Y-37911178D01*
X75077822Y-37854414D01*
X75144383Y-37829714D01*
X75213732Y-37844921D01*
X75233647Y-37858464D01*
X75298724Y-37912492D01*
X75389349Y-37987730D01*
X75589322Y-38104584D01*
X75805694Y-38187209D01*
X75810760Y-38188240D01*
X75810761Y-38188240D01*
X75863846Y-38199040D01*
X76032656Y-38233385D01*
X76162089Y-38238131D01*
X76258949Y-38241683D01*
X76258953Y-38241683D01*
X76264113Y-38241872D01*
X76269233Y-38241216D01*
X76269235Y-38241216D01*
X76343166Y-38231745D01*
X76493847Y-38212442D01*
X76498795Y-38210957D01*
X76498802Y-38210956D01*
X76710747Y-38147369D01*
X76715690Y-38145886D01*
X76720324Y-38143616D01*
X76919049Y-38046262D01*
X76919052Y-38046260D01*
X76923684Y-38043991D01*
X77112243Y-37909494D01*
X77244062Y-37778134D01*
X79871500Y-37778134D01*
X79878255Y-37840316D01*
X79929385Y-37976705D01*
X80016739Y-38093261D01*
X80133295Y-38180615D01*
X80269684Y-38231745D01*
X80331866Y-38238500D01*
X82228134Y-38238500D01*
X82290316Y-38231745D01*
X82426705Y-38180615D01*
X82543261Y-38093261D01*
X82630615Y-37976705D01*
X82655180Y-37911178D01*
X82697822Y-37854414D01*
X82764383Y-37829714D01*
X82833732Y-37844921D01*
X82853647Y-37858464D01*
X82918724Y-37912492D01*
X83009349Y-37987730D01*
X83209322Y-38104584D01*
X83425694Y-38187209D01*
X83430760Y-38188240D01*
X83430761Y-38188240D01*
X83483846Y-38199040D01*
X83652656Y-38233385D01*
X83782089Y-38238131D01*
X83878949Y-38241683D01*
X83878953Y-38241683D01*
X83884113Y-38241872D01*
X83889233Y-38241216D01*
X83889235Y-38241216D01*
X83963166Y-38231745D01*
X84113847Y-38212442D01*
X84118795Y-38210957D01*
X84118802Y-38210956D01*
X84330747Y-38147369D01*
X84335690Y-38145886D01*
X84340324Y-38143616D01*
X84539049Y-38046262D01*
X84539052Y-38046260D01*
X84543684Y-38043991D01*
X84732243Y-37909494D01*
X84864062Y-37778134D01*
X87491500Y-37778134D01*
X87498255Y-37840316D01*
X87549385Y-37976705D01*
X87636739Y-38093261D01*
X87753295Y-38180615D01*
X87889684Y-38231745D01*
X87951866Y-38238500D01*
X89848134Y-38238500D01*
X89910316Y-38231745D01*
X90046705Y-38180615D01*
X90163261Y-38093261D01*
X90250615Y-37976705D01*
X90275180Y-37911178D01*
X90317822Y-37854414D01*
X90384383Y-37829714D01*
X90453732Y-37844921D01*
X90473647Y-37858464D01*
X90538724Y-37912492D01*
X90629349Y-37987730D01*
X90829322Y-38104584D01*
X91045694Y-38187209D01*
X91050760Y-38188240D01*
X91050761Y-38188240D01*
X91103846Y-38199040D01*
X91272656Y-38233385D01*
X91402089Y-38238131D01*
X91498949Y-38241683D01*
X91498953Y-38241683D01*
X91504113Y-38241872D01*
X91509233Y-38241216D01*
X91509235Y-38241216D01*
X91583166Y-38231745D01*
X91733847Y-38212442D01*
X91738795Y-38210957D01*
X91738802Y-38210956D01*
X91950747Y-38147369D01*
X91955690Y-38145886D01*
X91960324Y-38143616D01*
X92159049Y-38046262D01*
X92159052Y-38046260D01*
X92163684Y-38043991D01*
X92352243Y-37909494D01*
X92516303Y-37746005D01*
X92651458Y-37557917D01*
X92703066Y-37453497D01*
X92751784Y-37354922D01*
X92751785Y-37354920D01*
X92754078Y-37350280D01*
X92821408Y-37128671D01*
X92851640Y-36899041D01*
X92853327Y-36830000D01*
X92847032Y-36753434D01*
X92834773Y-36604318D01*
X92834772Y-36604312D01*
X92834349Y-36599167D01*
X92783247Y-36395720D01*
X92779184Y-36379544D01*
X92779183Y-36379540D01*
X92777925Y-36374533D01*
X92775866Y-36369797D01*
X92687630Y-36166868D01*
X92687628Y-36166865D01*
X92685570Y-36162131D01*
X92559764Y-35967665D01*
X92403887Y-35796358D01*
X92399836Y-35793159D01*
X92399832Y-35793155D01*
X92226178Y-35656012D01*
X92226175Y-35656010D01*
X92222123Y-35652810D01*
X92138607Y-35606707D01*
X92088636Y-35556274D01*
X92073500Y-35496398D01*
X92073500Y-32004000D01*
X93066496Y-32004000D01*
X93067186Y-32010565D01*
X93084133Y-32171803D01*
X93086458Y-32193928D01*
X93145473Y-32375556D01*
X93148776Y-32381278D01*
X93148777Y-32381279D01*
X93165277Y-32409857D01*
X93240960Y-32540944D01*
X93245378Y-32545851D01*
X93245379Y-32545852D01*
X93320509Y-32629292D01*
X93368747Y-32682866D01*
X93467843Y-32754864D01*
X93512803Y-32787529D01*
X93523248Y-32795118D01*
X93529276Y-32797802D01*
X93529278Y-32797803D01*
X93689734Y-32869242D01*
X93697712Y-32872794D01*
X93791112Y-32892647D01*
X93878056Y-32911128D01*
X93878061Y-32911128D01*
X93884513Y-32912500D01*
X94075487Y-32912500D01*
X94089799Y-32909458D01*
X94149686Y-32896729D01*
X94220476Y-32902131D01*
X94264977Y-32930881D01*
X96540501Y-35206405D01*
X96574527Y-35268717D01*
X96569462Y-35339532D01*
X96526915Y-35396368D01*
X96460395Y-35421179D01*
X96451406Y-35421500D01*
X95571866Y-35421500D01*
X95509684Y-35428255D01*
X95373295Y-35479385D01*
X95256739Y-35566739D01*
X95169385Y-35683295D01*
X95118255Y-35819684D01*
X95111500Y-35881866D01*
X95111500Y-37778134D01*
X95118255Y-37840316D01*
X95169385Y-37976705D01*
X95256739Y-38093261D01*
X95373295Y-38180615D01*
X95509684Y-38231745D01*
X95571866Y-38238500D01*
X97468134Y-38238500D01*
X97530316Y-38231745D01*
X97666705Y-38180615D01*
X97783261Y-38093261D01*
X97870615Y-37976705D01*
X97895180Y-37911178D01*
X97937822Y-37854414D01*
X98004383Y-37829714D01*
X98073732Y-37844921D01*
X98093647Y-37858464D01*
X98158724Y-37912492D01*
X98249349Y-37987730D01*
X98449322Y-38104584D01*
X98665694Y-38187209D01*
X98670760Y-38188240D01*
X98670761Y-38188240D01*
X98723846Y-38199040D01*
X98892656Y-38233385D01*
X99022089Y-38238131D01*
X99118949Y-38241683D01*
X99118953Y-38241683D01*
X99124113Y-38241872D01*
X99129233Y-38241216D01*
X99129235Y-38241216D01*
X99203166Y-38231745D01*
X99353847Y-38212442D01*
X99358795Y-38210957D01*
X99358802Y-38210956D01*
X99570747Y-38147369D01*
X99575690Y-38145886D01*
X99580324Y-38143616D01*
X99779049Y-38046262D01*
X99779052Y-38046260D01*
X99783684Y-38043991D01*
X99972243Y-37909494D01*
X100136303Y-37746005D01*
X100271458Y-37557917D01*
X100323066Y-37453497D01*
X100371784Y-37354922D01*
X100371785Y-37354920D01*
X100374078Y-37350280D01*
X100441408Y-37128671D01*
X100471640Y-36899041D01*
X100473327Y-36830000D01*
X100467032Y-36753434D01*
X100454773Y-36604318D01*
X100454772Y-36604312D01*
X100454349Y-36599167D01*
X100403247Y-36395720D01*
X100399184Y-36379544D01*
X100399183Y-36379540D01*
X100397925Y-36374533D01*
X100395866Y-36369797D01*
X100307630Y-36166868D01*
X100307628Y-36166865D01*
X100305570Y-36162131D01*
X100179764Y-35967665D01*
X100023887Y-35796358D01*
X100019836Y-35793159D01*
X100019832Y-35793155D01*
X99846177Y-35656011D01*
X99846172Y-35656008D01*
X99842123Y-35652810D01*
X99837607Y-35650317D01*
X99837604Y-35650315D01*
X99643879Y-35543373D01*
X99643875Y-35543371D01*
X99639355Y-35540876D01*
X99634486Y-35539152D01*
X99634482Y-35539150D01*
X99425903Y-35465288D01*
X99425899Y-35465287D01*
X99421028Y-35463562D01*
X99415935Y-35462655D01*
X99415932Y-35462654D01*
X99198095Y-35423851D01*
X99198089Y-35423850D01*
X99193006Y-35422945D01*
X99120096Y-35422054D01*
X98966581Y-35420179D01*
X98966579Y-35420179D01*
X98961411Y-35420116D01*
X98846219Y-35437743D01*
X98737573Y-35454368D01*
X98737571Y-35454369D01*
X98732464Y-35455150D01*
X98727549Y-35456757D01*
X98727547Y-35456757D01*
X98691889Y-35468412D01*
X98620925Y-35470565D01*
X98563647Y-35437743D01*
X96715523Y-33589618D01*
X94862956Y-31737051D01*
X94832218Y-31686892D01*
X94826802Y-31670221D01*
X94814527Y-31632444D01*
X94799383Y-31606213D01*
X94732049Y-31489588D01*
X94719040Y-31467056D01*
X94591253Y-31325134D01*
X94436752Y-31212882D01*
X94430724Y-31210198D01*
X94430722Y-31210197D01*
X94268319Y-31137891D01*
X94268318Y-31137891D01*
X94262288Y-31135206D01*
X94168887Y-31115353D01*
X94081944Y-31096872D01*
X94081939Y-31096872D01*
X94075487Y-31095500D01*
X93884513Y-31095500D01*
X93878061Y-31096872D01*
X93878056Y-31096872D01*
X93791113Y-31115353D01*
X93697712Y-31135206D01*
X93691682Y-31137891D01*
X93691681Y-31137891D01*
X93529278Y-31210197D01*
X93529276Y-31210198D01*
X93523248Y-31212882D01*
X93368747Y-31325134D01*
X93240960Y-31467056D01*
X93227951Y-31489588D01*
X93160618Y-31606213D01*
X93145473Y-31632444D01*
X93086458Y-31814072D01*
X93085768Y-31820633D01*
X93085768Y-31820635D01*
X93072722Y-31944767D01*
X93066496Y-32004000D01*
X92073500Y-32004000D01*
X92073500Y-31690524D01*
X92093502Y-31622403D01*
X92105858Y-31606221D01*
X92179040Y-31524944D01*
X92274527Y-31359556D01*
X92333542Y-31177928D01*
X92338177Y-31133834D01*
X92352814Y-30994565D01*
X92353504Y-30988000D01*
X92347852Y-30934225D01*
X92334232Y-30804635D01*
X92334232Y-30804633D01*
X92333542Y-30798072D01*
X92274527Y-30616444D01*
X92259383Y-30590213D01*
X92209160Y-30503226D01*
X92179040Y-30451056D01*
X92147639Y-30416181D01*
X92055675Y-30314045D01*
X92055674Y-30314044D01*
X92051253Y-30309134D01*
X91896752Y-30196882D01*
X91890724Y-30194198D01*
X91890722Y-30194197D01*
X91728319Y-30121891D01*
X91728318Y-30121891D01*
X91722288Y-30119206D01*
X91601300Y-30093489D01*
X91541944Y-30080872D01*
X91541939Y-30080872D01*
X91535487Y-30079500D01*
X91344513Y-30079500D01*
X91338061Y-30080872D01*
X91338056Y-30080872D01*
X91278700Y-30093489D01*
X91157712Y-30119206D01*
X91151682Y-30121891D01*
X91151681Y-30121891D01*
X90989278Y-30194197D01*
X90989276Y-30194198D01*
X90983248Y-30196882D01*
X90828747Y-30309134D01*
X90824326Y-30314044D01*
X90824325Y-30314045D01*
X90732362Y-30416181D01*
X90700960Y-30451056D01*
X90670840Y-30503226D01*
X90620618Y-30590213D01*
X90605473Y-30616444D01*
X90546458Y-30798072D01*
X90545768Y-30804633D01*
X90545768Y-30804635D01*
X90532148Y-30934225D01*
X90526496Y-30988000D01*
X90527186Y-30994565D01*
X90541824Y-31133834D01*
X90546458Y-31177928D01*
X90605473Y-31359556D01*
X90700960Y-31524944D01*
X90774137Y-31606215D01*
X90804853Y-31670221D01*
X90806500Y-31690524D01*
X90806500Y-35495319D01*
X90786498Y-35563440D01*
X90738679Y-35607083D01*
X90691463Y-35631662D01*
X90686872Y-35634052D01*
X90682734Y-35637159D01*
X90621287Y-35683295D01*
X90501655Y-35773117D01*
X90492586Y-35782607D01*
X90484170Y-35791414D01*
X90422646Y-35826844D01*
X90351733Y-35823387D01*
X90293947Y-35782141D01*
X90275094Y-35748592D01*
X90253768Y-35691705D01*
X90253767Y-35691703D01*
X90250615Y-35683295D01*
X90163261Y-35566739D01*
X90046705Y-35479385D01*
X89910316Y-35428255D01*
X89848134Y-35421500D01*
X87951866Y-35421500D01*
X87889684Y-35428255D01*
X87753295Y-35479385D01*
X87636739Y-35566739D01*
X87549385Y-35683295D01*
X87498255Y-35819684D01*
X87491500Y-35881866D01*
X87491500Y-37778134D01*
X84864062Y-37778134D01*
X84896303Y-37746005D01*
X85031458Y-37557917D01*
X85083066Y-37453497D01*
X85131784Y-37354922D01*
X85131785Y-37354920D01*
X85134078Y-37350280D01*
X85201408Y-37128671D01*
X85231640Y-36899041D01*
X85233327Y-36830000D01*
X85227032Y-36753434D01*
X85214773Y-36604318D01*
X85214772Y-36604312D01*
X85214349Y-36599167D01*
X85163247Y-36395720D01*
X85159184Y-36379544D01*
X85159183Y-36379540D01*
X85157925Y-36374533D01*
X85155866Y-36369797D01*
X85067630Y-36166868D01*
X85067628Y-36166865D01*
X85065570Y-36162131D01*
X84939764Y-35967665D01*
X84783887Y-35796358D01*
X84779836Y-35793159D01*
X84779832Y-35793155D01*
X84606178Y-35656012D01*
X84606175Y-35656010D01*
X84602123Y-35652810D01*
X84518607Y-35606707D01*
X84468636Y-35556274D01*
X84453500Y-35496398D01*
X84453500Y-30674524D01*
X84473502Y-30606403D01*
X84485858Y-30590221D01*
X84559040Y-30508944D01*
X84654527Y-30343556D01*
X84713542Y-30161928D01*
X84716825Y-30130697D01*
X84732814Y-29978565D01*
X84733504Y-29972000D01*
X84732661Y-29963983D01*
X84714232Y-29788635D01*
X84714232Y-29788633D01*
X84713542Y-29782072D01*
X84654527Y-29600444D01*
X84620917Y-29542229D01*
X84562341Y-29440774D01*
X84559040Y-29435056D01*
X84459221Y-29324195D01*
X84435675Y-29298045D01*
X84435674Y-29298044D01*
X84431253Y-29293134D01*
X84315454Y-29209001D01*
X84282094Y-29184763D01*
X84282093Y-29184762D01*
X84276752Y-29180882D01*
X84270724Y-29178198D01*
X84270722Y-29178197D01*
X84108319Y-29105891D01*
X84108318Y-29105891D01*
X84102288Y-29103206D01*
X83981460Y-29077523D01*
X83921944Y-29064872D01*
X83921939Y-29064872D01*
X83915487Y-29063500D01*
X83724513Y-29063500D01*
X83718061Y-29064872D01*
X83718056Y-29064872D01*
X83658540Y-29077523D01*
X83537712Y-29103206D01*
X83531682Y-29105891D01*
X83531681Y-29105891D01*
X83369278Y-29178197D01*
X83369276Y-29178198D01*
X83363248Y-29180882D01*
X83357907Y-29184762D01*
X83357906Y-29184763D01*
X83324546Y-29209001D01*
X83208747Y-29293134D01*
X83204326Y-29298044D01*
X83204325Y-29298045D01*
X83180780Y-29324195D01*
X83080960Y-29435056D01*
X83077659Y-29440774D01*
X83019084Y-29542229D01*
X82985473Y-29600444D01*
X82926458Y-29782072D01*
X82925768Y-29788633D01*
X82925768Y-29788635D01*
X82907339Y-29963983D01*
X82906496Y-29972000D01*
X82907186Y-29978565D01*
X82923176Y-30130697D01*
X82926458Y-30161928D01*
X82985473Y-30343556D01*
X83080960Y-30508944D01*
X83154137Y-30590215D01*
X83184853Y-30654221D01*
X83186500Y-30674524D01*
X83186500Y-35495319D01*
X83166498Y-35563440D01*
X83118679Y-35607083D01*
X83071463Y-35631662D01*
X83066872Y-35634052D01*
X83062734Y-35637159D01*
X83001287Y-35683295D01*
X82881655Y-35773117D01*
X82872586Y-35782607D01*
X82864170Y-35791414D01*
X82802646Y-35826844D01*
X82731733Y-35823387D01*
X82673947Y-35782141D01*
X82655094Y-35748592D01*
X82633768Y-35691705D01*
X82633767Y-35691703D01*
X82630615Y-35683295D01*
X82543261Y-35566739D01*
X82426705Y-35479385D01*
X82290316Y-35428255D01*
X82228134Y-35421500D01*
X80331866Y-35421500D01*
X80269684Y-35428255D01*
X80133295Y-35479385D01*
X80016739Y-35566739D01*
X79929385Y-35683295D01*
X79878255Y-35819684D01*
X79871500Y-35881866D01*
X79871500Y-37778134D01*
X77244062Y-37778134D01*
X77276303Y-37746005D01*
X77411458Y-37557917D01*
X77463066Y-37453497D01*
X77511784Y-37354922D01*
X77511785Y-37354920D01*
X77514078Y-37350280D01*
X77581408Y-37128671D01*
X77611640Y-36899041D01*
X77613327Y-36830000D01*
X77607032Y-36753434D01*
X77594773Y-36604318D01*
X77594772Y-36604312D01*
X77594349Y-36599167D01*
X77543247Y-36395720D01*
X77539184Y-36379544D01*
X77539183Y-36379540D01*
X77537925Y-36374533D01*
X77535866Y-36369797D01*
X77447630Y-36166868D01*
X77447628Y-36166865D01*
X77445570Y-36162131D01*
X77319764Y-35967665D01*
X77163887Y-35796358D01*
X77159836Y-35793159D01*
X77159832Y-35793155D01*
X76986177Y-35656011D01*
X76986172Y-35656008D01*
X76982123Y-35652810D01*
X76977607Y-35650317D01*
X76977604Y-35650315D01*
X76783879Y-35543373D01*
X76783875Y-35543371D01*
X76779355Y-35540876D01*
X76774486Y-35539152D01*
X76774482Y-35539150D01*
X76565903Y-35465288D01*
X76565899Y-35465287D01*
X76561028Y-35463562D01*
X76555935Y-35462655D01*
X76555932Y-35462654D01*
X76338095Y-35423851D01*
X76338089Y-35423850D01*
X76333006Y-35422945D01*
X76260096Y-35422054D01*
X76106581Y-35420179D01*
X76106579Y-35420179D01*
X76101411Y-35420116D01*
X75986219Y-35437743D01*
X75877573Y-35454368D01*
X75877571Y-35454369D01*
X75872464Y-35455150D01*
X75867549Y-35456757D01*
X75867547Y-35456757D01*
X75831889Y-35468412D01*
X75760925Y-35470565D01*
X75703647Y-35437743D01*
X69870446Y-29604541D01*
X69836420Y-29542229D01*
X69841485Y-29471414D01*
X69850422Y-29452446D01*
X69919223Y-29333279D01*
X69919224Y-29333278D01*
X69922527Y-29327556D01*
X69981542Y-29145928D01*
X69984708Y-29115810D01*
X70000814Y-28962565D01*
X70001504Y-28956000D01*
X69994048Y-28885060D01*
X69982232Y-28772635D01*
X69982232Y-28772633D01*
X69981542Y-28766072D01*
X69922527Y-28584444D01*
X69907383Y-28558213D01*
X69830341Y-28424774D01*
X69827040Y-28419056D01*
X69790323Y-28378277D01*
X69703675Y-28282045D01*
X69703674Y-28282044D01*
X69699253Y-28277134D01*
X69544752Y-28164882D01*
X69538724Y-28162198D01*
X69538722Y-28162197D01*
X69376319Y-28089891D01*
X69376318Y-28089891D01*
X69370288Y-28087206D01*
X69276887Y-28067353D01*
X69189944Y-28048872D01*
X69189939Y-28048872D01*
X69183487Y-28047500D01*
X68992513Y-28047500D01*
X68986061Y-28048872D01*
X68986056Y-28048872D01*
X68899113Y-28067353D01*
X68805712Y-28087206D01*
X68799682Y-28089891D01*
X68799681Y-28089891D01*
X68637278Y-28162197D01*
X68637276Y-28162198D01*
X68631248Y-28164882D01*
X68476747Y-28277134D01*
X68472326Y-28282044D01*
X68472325Y-28282045D01*
X68385678Y-28378277D01*
X68348960Y-28419056D01*
X68345659Y-28424774D01*
X68268618Y-28558213D01*
X68253473Y-28584444D01*
X68194458Y-28766072D01*
X68193768Y-28772633D01*
X68193768Y-28772635D01*
X68181952Y-28885060D01*
X68174496Y-28956000D01*
X67689500Y-28956000D01*
X67689500Y-28642524D01*
X67709502Y-28574403D01*
X67721858Y-28558221D01*
X67795040Y-28476944D01*
X67867097Y-28352138D01*
X67887223Y-28317279D01*
X67887224Y-28317278D01*
X67890527Y-28311556D01*
X67949542Y-28129928D01*
X67954177Y-28085834D01*
X67968814Y-27946565D01*
X67969504Y-27940000D01*
X67949542Y-27750072D01*
X67890527Y-27568444D01*
X67795040Y-27403056D01*
X67767147Y-27372077D01*
X67671675Y-27266045D01*
X67671674Y-27266044D01*
X67667253Y-27261134D01*
X67544311Y-27171811D01*
X67518094Y-27152763D01*
X67518093Y-27152762D01*
X67512752Y-27148882D01*
X67506724Y-27146198D01*
X67506722Y-27146197D01*
X67344319Y-27073891D01*
X67344318Y-27073891D01*
X67338288Y-27071206D01*
X67244887Y-27051353D01*
X67157944Y-27032872D01*
X67157939Y-27032872D01*
X67151487Y-27031500D01*
X66960513Y-27031500D01*
X66954061Y-27032872D01*
X66954056Y-27032872D01*
X66867112Y-27051353D01*
X66773712Y-27071206D01*
X66767682Y-27073891D01*
X66767681Y-27073891D01*
X66605278Y-27146197D01*
X66605276Y-27146198D01*
X66599248Y-27148882D01*
X66593907Y-27152762D01*
X66593906Y-27152763D01*
X66567689Y-27171811D01*
X66444747Y-27261134D01*
X66440326Y-27266044D01*
X66440325Y-27266045D01*
X66344854Y-27372077D01*
X66316960Y-27403056D01*
X66221473Y-27568444D01*
X66162458Y-27750072D01*
X66142496Y-27940000D01*
X66143186Y-27946565D01*
X66157824Y-28085834D01*
X66162458Y-28129928D01*
X66221473Y-28311556D01*
X66224776Y-28317278D01*
X66224777Y-28317279D01*
X66244903Y-28352138D01*
X66316960Y-28476944D01*
X66390137Y-28558215D01*
X66420853Y-28622221D01*
X66422500Y-28642524D01*
X66422500Y-35227233D01*
X66421973Y-35238416D01*
X66420298Y-35245909D01*
X66420547Y-35253835D01*
X66420547Y-35253837D01*
X66421732Y-35291542D01*
X66403879Y-35360258D01*
X66351710Y-35408413D01*
X66295794Y-35421500D01*
X65091866Y-35421500D01*
X65029684Y-35428255D01*
X64893295Y-35479385D01*
X64776739Y-35566739D01*
X64689385Y-35683295D01*
X64638255Y-35819684D01*
X64631500Y-35881866D01*
X64631500Y-37778134D01*
X62004062Y-37778134D01*
X62036303Y-37746005D01*
X62171458Y-37557917D01*
X62223066Y-37453497D01*
X62271784Y-37354922D01*
X62271785Y-37354920D01*
X62274078Y-37350280D01*
X62341408Y-37128671D01*
X62371640Y-36899041D01*
X62373327Y-36830000D01*
X62367032Y-36753434D01*
X62354773Y-36604318D01*
X62354772Y-36604312D01*
X62354349Y-36599167D01*
X62303247Y-36395720D01*
X62299184Y-36379544D01*
X62299183Y-36379540D01*
X62297925Y-36374533D01*
X62295866Y-36369797D01*
X62207630Y-36166868D01*
X62207628Y-36166865D01*
X62205570Y-36162131D01*
X62079764Y-35967665D01*
X61923887Y-35796358D01*
X61919836Y-35793159D01*
X61919832Y-35793155D01*
X61746178Y-35656012D01*
X61746175Y-35656010D01*
X61742123Y-35652810D01*
X61658607Y-35606707D01*
X61608636Y-35556274D01*
X61593500Y-35496398D01*
X61593500Y-26102524D01*
X61613502Y-26034403D01*
X61625858Y-26018221D01*
X61699040Y-25936944D01*
X61771097Y-25812138D01*
X61791223Y-25777279D01*
X61791224Y-25777278D01*
X61794527Y-25771556D01*
X61832724Y-25654000D01*
X101956496Y-25654000D01*
X101957186Y-25660565D01*
X101975463Y-25834457D01*
X101976458Y-25843928D01*
X102035473Y-26025556D01*
X102038776Y-26031278D01*
X102038777Y-26031279D01*
X102045242Y-26042476D01*
X102130960Y-26190944D01*
X102135378Y-26195851D01*
X102135379Y-26195852D01*
X102219340Y-26289100D01*
X102258747Y-26332866D01*
X102413248Y-26445118D01*
X102419276Y-26447802D01*
X102419278Y-26447803D01*
X102581681Y-26520109D01*
X102587712Y-26522794D01*
X102667949Y-26539849D01*
X102768056Y-26561128D01*
X102768061Y-26561128D01*
X102774513Y-26562500D01*
X102830406Y-26562500D01*
X102898527Y-26582502D01*
X102919501Y-26599405D01*
X106009595Y-29689499D01*
X106043621Y-29751811D01*
X106046500Y-29778594D01*
X106046500Y-35495319D01*
X106026498Y-35563440D01*
X105978679Y-35607083D01*
X105931463Y-35631662D01*
X105926872Y-35634052D01*
X105922734Y-35637159D01*
X105861287Y-35683295D01*
X105741655Y-35773117D01*
X105732586Y-35782607D01*
X105724170Y-35791414D01*
X105662646Y-35826844D01*
X105591733Y-35823387D01*
X105533947Y-35782141D01*
X105515094Y-35748592D01*
X105493768Y-35691705D01*
X105493767Y-35691703D01*
X105490615Y-35683295D01*
X105403261Y-35566739D01*
X105286705Y-35479385D01*
X105150316Y-35428255D01*
X105088134Y-35421500D01*
X103191866Y-35421500D01*
X103129684Y-35428255D01*
X102993295Y-35479385D01*
X102876739Y-35566739D01*
X102789385Y-35683295D01*
X102738255Y-35819684D01*
X102731500Y-35881866D01*
X102731500Y-37778134D01*
X102738255Y-37840316D01*
X102789385Y-37976705D01*
X102876739Y-38093261D01*
X102993295Y-38180615D01*
X103129684Y-38231745D01*
X103191866Y-38238500D01*
X105088134Y-38238500D01*
X105150316Y-38231745D01*
X105286705Y-38180615D01*
X105403261Y-38093261D01*
X105490615Y-37976705D01*
X105515180Y-37911178D01*
X105557822Y-37854414D01*
X105624383Y-37829714D01*
X105693732Y-37844921D01*
X105713647Y-37858464D01*
X105778724Y-37912492D01*
X105869349Y-37987730D01*
X106069322Y-38104584D01*
X106285694Y-38187209D01*
X106290760Y-38188240D01*
X106290761Y-38188240D01*
X106343846Y-38199040D01*
X106512656Y-38233385D01*
X106642089Y-38238131D01*
X106738949Y-38241683D01*
X106738953Y-38241683D01*
X106744113Y-38241872D01*
X106749233Y-38241216D01*
X106749235Y-38241216D01*
X106823166Y-38231745D01*
X106973847Y-38212442D01*
X106978795Y-38210957D01*
X106978802Y-38210956D01*
X107190747Y-38147369D01*
X107195690Y-38145886D01*
X107200324Y-38143616D01*
X107399049Y-38046262D01*
X107399052Y-38046260D01*
X107403684Y-38043991D01*
X107592243Y-37909494D01*
X107756303Y-37746005D01*
X107891458Y-37557917D01*
X107943066Y-37453497D01*
X107991784Y-37354922D01*
X107991785Y-37354920D01*
X107994078Y-37350280D01*
X108061408Y-37128671D01*
X108091640Y-36899041D01*
X108093327Y-36830000D01*
X108087032Y-36753434D01*
X108074773Y-36604318D01*
X108074772Y-36604312D01*
X108074349Y-36599167D01*
X108023247Y-36395720D01*
X108019184Y-36379544D01*
X108019183Y-36379540D01*
X108017925Y-36374533D01*
X108015866Y-36369797D01*
X107927630Y-36166868D01*
X107927628Y-36166865D01*
X107925570Y-36162131D01*
X107799764Y-35967665D01*
X107643887Y-35796358D01*
X107639836Y-35793159D01*
X107639832Y-35793155D01*
X107466178Y-35656012D01*
X107466175Y-35656010D01*
X107462123Y-35652810D01*
X107378607Y-35606707D01*
X107328636Y-35556274D01*
X107313500Y-35496398D01*
X107313500Y-29542768D01*
X107314027Y-29531585D01*
X107315702Y-29524092D01*
X107313562Y-29456001D01*
X107313500Y-29452044D01*
X107313500Y-29424144D01*
X107312996Y-29420153D01*
X107312063Y-29408311D01*
X107311631Y-29394547D01*
X107310674Y-29364111D01*
X107305021Y-29344652D01*
X107301012Y-29325293D01*
X107300504Y-29321271D01*
X107298474Y-29305203D01*
X107295558Y-29297837D01*
X107295556Y-29297831D01*
X107282200Y-29264098D01*
X107278355Y-29252868D01*
X107268230Y-29218017D01*
X107268230Y-29218016D01*
X107266019Y-29210407D01*
X107255705Y-29192966D01*
X107247008Y-29175213D01*
X107242472Y-29163758D01*
X107239552Y-29156383D01*
X107213563Y-29120612D01*
X107207047Y-29110692D01*
X107202620Y-29103206D01*
X107184542Y-29072638D01*
X107170221Y-29058317D01*
X107157380Y-29043283D01*
X107150131Y-29033306D01*
X107145472Y-29026893D01*
X107111395Y-28998702D01*
X107102616Y-28990712D01*
X103817122Y-25705217D01*
X103783096Y-25642905D01*
X103780907Y-25629292D01*
X103780205Y-25622607D01*
X103771291Y-25537800D01*
X103764232Y-25470635D01*
X103764232Y-25470633D01*
X103763542Y-25464072D01*
X103704527Y-25282444D01*
X103609040Y-25117056D01*
X103595485Y-25102001D01*
X103485675Y-24980045D01*
X103485674Y-24980044D01*
X103481253Y-24975134D01*
X103326752Y-24862882D01*
X103320724Y-24860198D01*
X103320722Y-24860197D01*
X103158319Y-24787891D01*
X103158318Y-24787891D01*
X103152288Y-24785206D01*
X103058888Y-24765353D01*
X102971944Y-24746872D01*
X102971939Y-24746872D01*
X102965487Y-24745500D01*
X102774513Y-24745500D01*
X102768061Y-24746872D01*
X102768056Y-24746872D01*
X102681112Y-24765353D01*
X102587712Y-24785206D01*
X102581682Y-24787891D01*
X102581681Y-24787891D01*
X102419278Y-24860197D01*
X102419276Y-24860198D01*
X102413248Y-24862882D01*
X102258747Y-24975134D01*
X102254326Y-24980044D01*
X102254325Y-24980045D01*
X102144516Y-25102001D01*
X102130960Y-25117056D01*
X102035473Y-25282444D01*
X101976458Y-25464072D01*
X101975768Y-25470633D01*
X101975768Y-25470635D01*
X101968709Y-25537800D01*
X101956496Y-25654000D01*
X61832724Y-25654000D01*
X61853542Y-25589928D01*
X61859620Y-25532104D01*
X61872814Y-25406565D01*
X61873504Y-25400000D01*
X61867188Y-25339909D01*
X61854232Y-25216635D01*
X61854232Y-25216633D01*
X61853542Y-25210072D01*
X61794527Y-25028444D01*
X61699040Y-24863056D01*
X61671147Y-24832077D01*
X61575675Y-24726045D01*
X61575674Y-24726044D01*
X61571253Y-24721134D01*
X61448311Y-24631811D01*
X61422094Y-24612763D01*
X61422093Y-24612762D01*
X61416752Y-24608882D01*
X61410724Y-24606198D01*
X61410722Y-24606197D01*
X61248319Y-24533891D01*
X61248318Y-24533891D01*
X61242288Y-24531206D01*
X61148887Y-24511353D01*
X61061944Y-24492872D01*
X61061939Y-24492872D01*
X61055487Y-24491500D01*
X60864513Y-24491500D01*
X60858061Y-24492872D01*
X60858056Y-24492872D01*
X60771113Y-24511353D01*
X60677712Y-24531206D01*
X60671682Y-24533891D01*
X60671681Y-24533891D01*
X60509278Y-24606197D01*
X60509276Y-24606198D01*
X60503248Y-24608882D01*
X60497907Y-24612762D01*
X60497906Y-24612763D01*
X60471689Y-24631811D01*
X60348747Y-24721134D01*
X60344326Y-24726044D01*
X60344325Y-24726045D01*
X60248854Y-24832077D01*
X60220960Y-24863056D01*
X60125473Y-25028444D01*
X60066458Y-25210072D01*
X60065768Y-25216633D01*
X60065768Y-25216635D01*
X60052812Y-25339909D01*
X60046496Y-25400000D01*
X60047186Y-25406565D01*
X60060381Y-25532104D01*
X60066458Y-25589928D01*
X60125473Y-25771556D01*
X60128776Y-25777278D01*
X60128777Y-25777279D01*
X60148903Y-25812138D01*
X60220960Y-25936944D01*
X60294137Y-26018215D01*
X60324853Y-26082221D01*
X60326500Y-26102524D01*
X60326500Y-35495319D01*
X60306498Y-35563440D01*
X60258679Y-35607083D01*
X60211463Y-35631662D01*
X60206872Y-35634052D01*
X60202734Y-35637159D01*
X60141287Y-35683295D01*
X60021655Y-35773117D01*
X60012586Y-35782607D01*
X60004170Y-35791414D01*
X59942646Y-35826844D01*
X59871733Y-35823387D01*
X59813947Y-35782141D01*
X59795094Y-35748592D01*
X59773768Y-35691705D01*
X59773767Y-35691703D01*
X59770615Y-35683295D01*
X59683261Y-35566739D01*
X59566705Y-35479385D01*
X59430316Y-35428255D01*
X59368134Y-35421500D01*
X57471866Y-35421500D01*
X57409684Y-35428255D01*
X57273295Y-35479385D01*
X57156739Y-35566739D01*
X57069385Y-35683295D01*
X57018255Y-35819684D01*
X57011500Y-35881866D01*
X57011500Y-37778134D01*
X54384062Y-37778134D01*
X54416303Y-37746005D01*
X54551458Y-37557917D01*
X54603066Y-37453497D01*
X54651784Y-37354922D01*
X54651785Y-37354920D01*
X54654078Y-37350280D01*
X54721408Y-37128671D01*
X54751640Y-36899041D01*
X54753327Y-36830000D01*
X54747032Y-36753434D01*
X54734773Y-36604318D01*
X54734772Y-36604312D01*
X54734349Y-36599167D01*
X54683247Y-36395720D01*
X54679184Y-36379544D01*
X54679183Y-36379540D01*
X54677925Y-36374533D01*
X54675866Y-36369797D01*
X54587630Y-36166868D01*
X54587628Y-36166865D01*
X54585570Y-36162131D01*
X54459764Y-35967665D01*
X54303887Y-35796358D01*
X54299836Y-35793159D01*
X54299832Y-35793155D01*
X54126178Y-35656012D01*
X54126175Y-35656010D01*
X54122123Y-35652810D01*
X54038607Y-35606707D01*
X53988636Y-35556274D01*
X53973500Y-35496398D01*
X53973500Y-23562524D01*
X53993502Y-23494403D01*
X54005858Y-23478221D01*
X54079040Y-23396944D01*
X54151097Y-23272138D01*
X54171223Y-23237279D01*
X54171224Y-23237278D01*
X54174527Y-23231556D01*
X54233542Y-23049928D01*
X54239620Y-22992104D01*
X54252814Y-22866565D01*
X54253504Y-22860000D01*
X54247188Y-22799909D01*
X54234232Y-22676635D01*
X54234232Y-22676633D01*
X54233542Y-22670072D01*
X54174527Y-22488444D01*
X54079040Y-22323056D01*
X54051147Y-22292077D01*
X53955675Y-22186045D01*
X53955674Y-22186044D01*
X53951253Y-22181134D01*
X53828311Y-22091811D01*
X53802094Y-22072763D01*
X53802093Y-22072762D01*
X53796752Y-22068882D01*
X53790724Y-22066198D01*
X53790722Y-22066197D01*
X53628319Y-21993891D01*
X53628318Y-21993891D01*
X53622288Y-21991206D01*
X53528887Y-21971353D01*
X53441944Y-21952872D01*
X53441939Y-21952872D01*
X53435487Y-21951500D01*
X53244513Y-21951500D01*
X53238061Y-21952872D01*
X53238056Y-21952872D01*
X53151112Y-21971353D01*
X53057712Y-21991206D01*
X53051682Y-21993891D01*
X53051681Y-21993891D01*
X52889278Y-22066197D01*
X52889276Y-22066198D01*
X52883248Y-22068882D01*
X52877907Y-22072762D01*
X52877906Y-22072763D01*
X52851689Y-22091811D01*
X52728747Y-22181134D01*
X52724326Y-22186044D01*
X52724325Y-22186045D01*
X52669136Y-22247339D01*
X52608690Y-22284579D01*
X52537707Y-22283227D01*
X52478722Y-22243714D01*
X52450464Y-22178583D01*
X52449500Y-22163029D01*
X52449500Y-17466524D01*
X52469502Y-17398403D01*
X52481858Y-17382221D01*
X52555040Y-17300944D01*
X52630723Y-17169857D01*
X52647223Y-17141279D01*
X52647224Y-17141278D01*
X52650527Y-17135556D01*
X52709542Y-16953928D01*
X52710275Y-16946959D01*
X52728814Y-16770565D01*
X52729504Y-16764000D01*
X52723278Y-16704767D01*
X52710232Y-16580635D01*
X52710232Y-16580633D01*
X52709542Y-16574072D01*
X52707503Y-16567797D01*
X52707502Y-16567792D01*
X52700563Y-16546438D01*
X52698534Y-16475471D01*
X52735195Y-16414672D01*
X52798907Y-16383346D01*
X52820395Y-16381500D01*
X56985500Y-16381500D01*
X57053621Y-16401502D01*
X57100114Y-16455158D01*
X57111500Y-16507500D01*
X57111500Y-16967127D01*
X57111738Y-16969844D01*
X57111738Y-16969851D01*
X57114173Y-16997680D01*
X57126457Y-17138087D01*
X57127881Y-17143400D01*
X57127881Y-17143402D01*
X57173885Y-17315088D01*
X57185716Y-17359243D01*
X57188039Y-17364224D01*
X57188039Y-17364225D01*
X57280151Y-17561762D01*
X57280154Y-17561767D01*
X57282477Y-17566749D01*
X57322482Y-17623882D01*
X57404521Y-17741045D01*
X57413802Y-17754300D01*
X57575700Y-17916198D01*
X57580208Y-17919355D01*
X57580211Y-17919357D01*
X57658389Y-17974098D01*
X57763251Y-18047523D01*
X57768233Y-18049846D01*
X57768238Y-18049849D01*
X57892814Y-18107939D01*
X57970757Y-18144284D01*
X57976065Y-18145706D01*
X57976067Y-18145707D01*
X58186598Y-18202119D01*
X58186600Y-18202119D01*
X58191913Y-18203543D01*
X58420000Y-18223498D01*
X58648087Y-18203543D01*
X58653400Y-18202119D01*
X58653402Y-18202119D01*
X58863933Y-18145707D01*
X58863935Y-18145706D01*
X58869243Y-18144284D01*
X58986472Y-18089620D01*
X59056662Y-18078959D01*
X59121474Y-18107939D01*
X59128815Y-18114720D01*
X59441358Y-18427263D01*
X59448898Y-18435549D01*
X59453010Y-18442028D01*
X59458787Y-18447453D01*
X59502661Y-18488653D01*
X59505503Y-18491408D01*
X59525240Y-18511145D01*
X59528437Y-18513625D01*
X59537457Y-18521328D01*
X59569689Y-18551596D01*
X59576635Y-18555415D01*
X59576638Y-18555417D01*
X59587444Y-18561358D01*
X59603963Y-18572209D01*
X59619969Y-18584624D01*
X59627238Y-18587769D01*
X59627242Y-18587772D01*
X59660547Y-18602184D01*
X59671197Y-18607401D01*
X59709950Y-18628705D01*
X59728996Y-18633595D01*
X59729572Y-18633743D01*
X59748277Y-18640147D01*
X59766865Y-18648191D01*
X59774688Y-18649430D01*
X59774698Y-18649433D01*
X59810534Y-18655109D01*
X59822154Y-18657515D01*
X59853969Y-18665683D01*
X59864980Y-18668510D01*
X59885234Y-18668510D01*
X59904944Y-18670061D01*
X59924953Y-18673230D01*
X59932845Y-18672484D01*
X59968971Y-18669069D01*
X59980829Y-18668510D01*
X60059617Y-18668510D01*
X60127738Y-18688512D01*
X60174231Y-18742168D01*
X60184335Y-18812442D01*
X60168736Y-18857510D01*
X60125473Y-18932444D01*
X60066458Y-19114072D01*
X60065768Y-19120633D01*
X60065768Y-19120635D01*
X60052722Y-19244767D01*
X60046496Y-19304000D01*
X60047186Y-19310565D01*
X60064133Y-19471803D01*
X60066458Y-19493928D01*
X60125473Y-19675556D01*
X60128776Y-19681278D01*
X60128777Y-19681279D01*
X60145277Y-19709857D01*
X60220960Y-19840944D01*
X60225378Y-19845851D01*
X60225379Y-19845852D01*
X60307452Y-19937003D01*
X60348747Y-19982866D01*
X60416633Y-20032188D01*
X60492803Y-20087529D01*
X60503248Y-20095118D01*
X60509276Y-20097802D01*
X60509278Y-20097803D01*
X60669734Y-20169242D01*
X60677712Y-20172794D01*
X60771113Y-20192647D01*
X60858056Y-20211128D01*
X60858061Y-20211128D01*
X60864513Y-20212500D01*
X61055487Y-20212500D01*
X61061939Y-20211128D01*
X61061944Y-20211128D01*
X61148888Y-20192647D01*
X61242288Y-20172794D01*
X61250266Y-20169242D01*
X61410722Y-20097803D01*
X61410724Y-20097802D01*
X61416752Y-20095118D01*
X61427198Y-20087529D01*
X61549671Y-19998546D01*
X61571253Y-19982866D01*
X61575668Y-19977963D01*
X61580580Y-19973540D01*
X61581705Y-19974789D01*
X61635014Y-19941949D01*
X61668200Y-19937500D01*
X102537233Y-19937500D01*
X102548416Y-19938027D01*
X102555909Y-19939702D01*
X102563835Y-19939453D01*
X102563836Y-19939453D01*
X102623986Y-19937562D01*
X102627945Y-19937500D01*
X102655856Y-19937500D01*
X102659791Y-19937003D01*
X102659856Y-19936995D01*
X102671693Y-19936062D01*
X102703951Y-19935048D01*
X102707970Y-19934922D01*
X102715889Y-19934673D01*
X102735343Y-19929021D01*
X102754700Y-19925013D01*
X102766930Y-19923468D01*
X102766931Y-19923468D01*
X102774797Y-19922474D01*
X102782168Y-19919555D01*
X102782170Y-19919555D01*
X102815912Y-19906196D01*
X102827142Y-19902351D01*
X102861983Y-19892229D01*
X102861984Y-19892229D01*
X102869593Y-19890018D01*
X102876412Y-19885985D01*
X102876417Y-19885983D01*
X102887028Y-19879707D01*
X102904776Y-19871012D01*
X102923617Y-19863552D01*
X102959387Y-19837564D01*
X102969307Y-19831048D01*
X103000535Y-19812580D01*
X103000538Y-19812578D01*
X103007362Y-19808542D01*
X103021683Y-19794221D01*
X103036717Y-19781380D01*
X103046694Y-19774131D01*
X103053107Y-19769472D01*
X103081298Y-19735395D01*
X103089288Y-19726616D01*
X104701184Y-18114720D01*
X104763496Y-18080694D01*
X104834311Y-18085759D01*
X104843528Y-18089620D01*
X104955768Y-18141958D01*
X104955772Y-18141959D01*
X104960757Y-18144284D01*
X105071335Y-18173914D01*
X105176598Y-18202119D01*
X105176600Y-18202119D01*
X105181913Y-18203543D01*
X105410000Y-18223498D01*
X105638087Y-18203543D01*
X105643400Y-18202119D01*
X105643402Y-18202119D01*
X105853933Y-18145707D01*
X105853935Y-18145706D01*
X105859243Y-18144284D01*
X105937186Y-18107939D01*
X106061762Y-18049849D01*
X106061767Y-18049846D01*
X106066749Y-18047523D01*
X106171611Y-17974098D01*
X106249789Y-17919357D01*
X106249792Y-17919355D01*
X106254300Y-17916198D01*
X106416198Y-17754300D01*
X106425480Y-17741045D01*
X106507518Y-17623882D01*
X106547523Y-17566749D01*
X106549846Y-17561767D01*
X106549849Y-17561762D01*
X106565805Y-17527543D01*
X106612722Y-17474258D01*
X106680999Y-17454797D01*
X106748959Y-17475339D01*
X106794195Y-17527543D01*
X106810151Y-17561762D01*
X106810154Y-17561767D01*
X106812477Y-17566749D01*
X106852482Y-17623882D01*
X106934521Y-17741045D01*
X106943802Y-17754300D01*
X107105700Y-17916198D01*
X107110208Y-17919355D01*
X107110211Y-17919357D01*
X107188389Y-17974098D01*
X107293251Y-18047523D01*
X107298233Y-18049846D01*
X107298238Y-18049849D01*
X107422814Y-18107939D01*
X107500757Y-18144284D01*
X107506065Y-18145706D01*
X107506067Y-18145707D01*
X107716598Y-18202119D01*
X107716600Y-18202119D01*
X107721913Y-18203543D01*
X107950000Y-18223498D01*
X108178087Y-18203543D01*
X108183400Y-18202119D01*
X108183402Y-18202119D01*
X108393933Y-18145707D01*
X108393935Y-18145706D01*
X108399243Y-18144284D01*
X108477186Y-18107939D01*
X108601762Y-18049849D01*
X108601767Y-18049846D01*
X108606749Y-18047523D01*
X108711611Y-17974098D01*
X108789789Y-17919357D01*
X108789792Y-17919355D01*
X108794300Y-17916198D01*
X108956198Y-17754300D01*
X108965480Y-17741045D01*
X109047518Y-17623882D01*
X109087523Y-17566749D01*
X109089846Y-17561767D01*
X109089849Y-17561762D01*
X109181961Y-17364225D01*
X109181961Y-17364224D01*
X109184284Y-17359243D01*
X109196116Y-17315088D01*
X109242119Y-17143402D01*
X109242119Y-17143400D01*
X109243543Y-17138087D01*
X109255827Y-16997680D01*
X109258262Y-16969851D01*
X109258262Y-16969844D01*
X109258500Y-16967127D01*
X109258500Y-16052873D01*
X109257356Y-16039789D01*
X109248993Y-15944206D01*
X109243543Y-15881913D01*
X109230045Y-15831538D01*
X109185707Y-15666067D01*
X109185706Y-15666065D01*
X109184284Y-15660757D01*
X109115408Y-15513051D01*
X109089849Y-15458238D01*
X109089846Y-15458233D01*
X109087523Y-15453251D01*
X108956198Y-15265700D01*
X108890498Y-15200000D01*
X110446502Y-15200000D01*
X110466457Y-15428087D01*
X110467881Y-15433400D01*
X110467881Y-15433402D01*
X110501287Y-15558072D01*
X110525716Y-15649243D01*
X110528039Y-15654224D01*
X110528039Y-15654225D01*
X110620151Y-15851762D01*
X110620154Y-15851767D01*
X110622477Y-15856749D01*
X110753802Y-16044300D01*
X110915700Y-16206198D01*
X110920208Y-16209355D01*
X110920211Y-16209357D01*
X110977667Y-16249588D01*
X111103251Y-16337523D01*
X111108233Y-16339846D01*
X111108238Y-16339849D01*
X111303176Y-16430749D01*
X111310757Y-16434284D01*
X111316065Y-16435706D01*
X111316067Y-16435707D01*
X111526598Y-16492119D01*
X111526600Y-16492119D01*
X111531913Y-16493543D01*
X111760000Y-16513498D01*
X111988087Y-16493543D01*
X111993400Y-16492119D01*
X111993402Y-16492119D01*
X112203933Y-16435707D01*
X112203935Y-16435706D01*
X112209243Y-16434284D01*
X112216824Y-16430749D01*
X112411762Y-16339849D01*
X112411767Y-16339846D01*
X112416749Y-16337523D01*
X112542333Y-16249588D01*
X112599789Y-16209357D01*
X112599792Y-16209355D01*
X112604300Y-16206198D01*
X112766198Y-16044300D01*
X112897523Y-15856749D01*
X112899846Y-15851767D01*
X112899849Y-15851762D01*
X112991961Y-15654225D01*
X112991961Y-15654224D01*
X112994284Y-15649243D01*
X113018714Y-15558072D01*
X113052119Y-15433402D01*
X113052119Y-15433400D01*
X113053543Y-15428087D01*
X113073498Y-15200000D01*
X113053543Y-14971913D01*
X113052119Y-14966598D01*
X112995707Y-14756067D01*
X112995706Y-14756065D01*
X112994284Y-14750757D01*
X112955432Y-14667438D01*
X112899849Y-14548238D01*
X112899846Y-14548233D01*
X112897523Y-14543251D01*
X112766198Y-14355700D01*
X112604300Y-14193802D01*
X112599792Y-14190645D01*
X112599789Y-14190643D01*
X112488092Y-14112432D01*
X112416749Y-14062477D01*
X112411767Y-14060154D01*
X112411762Y-14060151D01*
X112214225Y-13968039D01*
X112214224Y-13968039D01*
X112209243Y-13965716D01*
X112203935Y-13964294D01*
X112203933Y-13964293D01*
X111993402Y-13907881D01*
X111993400Y-13907881D01*
X111988087Y-13906457D01*
X111760000Y-13886502D01*
X111531913Y-13906457D01*
X111526600Y-13907881D01*
X111526598Y-13907881D01*
X111316067Y-13964293D01*
X111316065Y-13964294D01*
X111310757Y-13965716D01*
X111305776Y-13968039D01*
X111305775Y-13968039D01*
X111108238Y-14060151D01*
X111108233Y-14060154D01*
X111103251Y-14062477D01*
X111031908Y-14112432D01*
X110920211Y-14190643D01*
X110920208Y-14190645D01*
X110915700Y-14193802D01*
X110753802Y-14355700D01*
X110622477Y-14543251D01*
X110620154Y-14548233D01*
X110620151Y-14548238D01*
X110564568Y-14667438D01*
X110525716Y-14750757D01*
X110524294Y-14756065D01*
X110524293Y-14756067D01*
X110467881Y-14966598D01*
X110466457Y-14971913D01*
X110446502Y-15200000D01*
X108890498Y-15200000D01*
X108794300Y-15103802D01*
X108789792Y-15100645D01*
X108789789Y-15100643D01*
X108656808Y-15007529D01*
X108606749Y-14972477D01*
X108601767Y-14970154D01*
X108601762Y-14970151D01*
X108404225Y-14878039D01*
X108404224Y-14878039D01*
X108399243Y-14875716D01*
X108393935Y-14874294D01*
X108393933Y-14874293D01*
X108183402Y-14817881D01*
X108183400Y-14817881D01*
X108178087Y-14816457D01*
X107950000Y-14796502D01*
X107721913Y-14816457D01*
X107716600Y-14817881D01*
X107716598Y-14817881D01*
X107506067Y-14874293D01*
X107506065Y-14874294D01*
X107500757Y-14875716D01*
X107495776Y-14878039D01*
X107495775Y-14878039D01*
X107298238Y-14970151D01*
X107298233Y-14970154D01*
X107293251Y-14972477D01*
X107243192Y-15007529D01*
X107110211Y-15100643D01*
X107110208Y-15100645D01*
X107105700Y-15103802D01*
X106943802Y-15265700D01*
X106812477Y-15453251D01*
X106810154Y-15458233D01*
X106810151Y-15458238D01*
X106794195Y-15492457D01*
X106747278Y-15545742D01*
X106679001Y-15565203D01*
X106611041Y-15544661D01*
X106565805Y-15492457D01*
X106549849Y-15458238D01*
X106549846Y-15458233D01*
X106547523Y-15453251D01*
X106416198Y-15265700D01*
X106254300Y-15103802D01*
X106249792Y-15100645D01*
X106249789Y-15100643D01*
X106116808Y-15007529D01*
X106066749Y-14972477D01*
X106061767Y-14970154D01*
X106061762Y-14970151D01*
X105864225Y-14878039D01*
X105864224Y-14878039D01*
X105859243Y-14875716D01*
X105853935Y-14874294D01*
X105853933Y-14874293D01*
X105643402Y-14817881D01*
X105643400Y-14817881D01*
X105638087Y-14816457D01*
X105410000Y-14796502D01*
X105181913Y-14816457D01*
X105176600Y-14817881D01*
X105176598Y-14817881D01*
X104966067Y-14874293D01*
X104966065Y-14874294D01*
X104960757Y-14875716D01*
X104955776Y-14878039D01*
X104955775Y-14878039D01*
X104758238Y-14970151D01*
X104758233Y-14970154D01*
X104753251Y-14972477D01*
X104703192Y-15007529D01*
X104570211Y-15100643D01*
X104570208Y-15100645D01*
X104565700Y-15103802D01*
X104403802Y-15265700D01*
X104272477Y-15453251D01*
X104270154Y-15458233D01*
X104270151Y-15458238D01*
X104254195Y-15492457D01*
X104207278Y-15545742D01*
X104139001Y-15565203D01*
X104071041Y-15544661D01*
X104025805Y-15492457D01*
X104009849Y-15458238D01*
X104009846Y-15458233D01*
X104007523Y-15453251D01*
X103876198Y-15265700D01*
X103714300Y-15103802D01*
X103709792Y-15100645D01*
X103709789Y-15100643D01*
X103576808Y-15007529D01*
X103526749Y-14972477D01*
X103521767Y-14970154D01*
X103521762Y-14970151D01*
X103324225Y-14878039D01*
X103324224Y-14878039D01*
X103319243Y-14875716D01*
X103313935Y-14874294D01*
X103313933Y-14874293D01*
X103103402Y-14817881D01*
X103103400Y-14817881D01*
X103098087Y-14816457D01*
X102870000Y-14796502D01*
X102641913Y-14816457D01*
X102636600Y-14817881D01*
X102636598Y-14817881D01*
X102426067Y-14874293D01*
X102426065Y-14874294D01*
X102420757Y-14875716D01*
X102415776Y-14878039D01*
X102415775Y-14878039D01*
X102218238Y-14970151D01*
X102218233Y-14970154D01*
X102213251Y-14972477D01*
X102163192Y-15007529D01*
X102030211Y-15100643D01*
X102030208Y-15100645D01*
X102025700Y-15103802D01*
X101863802Y-15265700D01*
X101732477Y-15453251D01*
X101730154Y-15458233D01*
X101730151Y-15458238D01*
X101714195Y-15492457D01*
X101667278Y-15545742D01*
X101599001Y-15565203D01*
X101531041Y-15544661D01*
X101485805Y-15492457D01*
X101469849Y-15458238D01*
X101469846Y-15458233D01*
X101467523Y-15453251D01*
X101336198Y-15265700D01*
X101174300Y-15103802D01*
X101169792Y-15100645D01*
X101169789Y-15100643D01*
X101036808Y-15007529D01*
X100986749Y-14972477D01*
X100981767Y-14970154D01*
X100981762Y-14970151D01*
X100784225Y-14878039D01*
X100784224Y-14878039D01*
X100779243Y-14875716D01*
X100773935Y-14874294D01*
X100773933Y-14874293D01*
X100563402Y-14817881D01*
X100563400Y-14817881D01*
X100558087Y-14816457D01*
X100330000Y-14796502D01*
X100101913Y-14816457D01*
X100096600Y-14817881D01*
X100096598Y-14817881D01*
X99886067Y-14874293D01*
X99886065Y-14874294D01*
X99880757Y-14875716D01*
X99875776Y-14878039D01*
X99875775Y-14878039D01*
X99678238Y-14970151D01*
X99678233Y-14970154D01*
X99673251Y-14972477D01*
X99623192Y-15007529D01*
X99490211Y-15100643D01*
X99490208Y-15100645D01*
X99485700Y-15103802D01*
X99323802Y-15265700D01*
X99192477Y-15453251D01*
X99190154Y-15458233D01*
X99190151Y-15458238D01*
X99174195Y-15492457D01*
X99127278Y-15545742D01*
X99059001Y-15565203D01*
X98991041Y-15544661D01*
X98945805Y-15492457D01*
X98929849Y-15458238D01*
X98929846Y-15458233D01*
X98927523Y-15453251D01*
X98796198Y-15265700D01*
X98634300Y-15103802D01*
X98629792Y-15100645D01*
X98629789Y-15100643D01*
X98496808Y-15007529D01*
X98446749Y-14972477D01*
X98441767Y-14970154D01*
X98441762Y-14970151D01*
X98244225Y-14878039D01*
X98244224Y-14878039D01*
X98239243Y-14875716D01*
X98233935Y-14874294D01*
X98233933Y-14874293D01*
X98023402Y-14817881D01*
X98023400Y-14817881D01*
X98018087Y-14816457D01*
X97790000Y-14796502D01*
X97561913Y-14816457D01*
X97556600Y-14817881D01*
X97556598Y-14817881D01*
X97346067Y-14874293D01*
X97346065Y-14874294D01*
X97340757Y-14875716D01*
X97335776Y-14878039D01*
X97335775Y-14878039D01*
X97138238Y-14970151D01*
X97138233Y-14970154D01*
X97133251Y-14972477D01*
X97083192Y-15007529D01*
X96950211Y-15100643D01*
X96950208Y-15100645D01*
X96945700Y-15103802D01*
X96783802Y-15265700D01*
X96652477Y-15453251D01*
X96650154Y-15458233D01*
X96650151Y-15458238D01*
X96634195Y-15492457D01*
X96587278Y-15545742D01*
X96519001Y-15565203D01*
X96451041Y-15544661D01*
X96405805Y-15492457D01*
X96389849Y-15458238D01*
X96389846Y-15458233D01*
X96387523Y-15453251D01*
X96256198Y-15265700D01*
X96094300Y-15103802D01*
X96089792Y-15100645D01*
X96089789Y-15100643D01*
X95956808Y-15007529D01*
X95906749Y-14972477D01*
X95901767Y-14970154D01*
X95901762Y-14970151D01*
X95704225Y-14878039D01*
X95704224Y-14878039D01*
X95699243Y-14875716D01*
X95693935Y-14874294D01*
X95693933Y-14874293D01*
X95483402Y-14817881D01*
X95483400Y-14817881D01*
X95478087Y-14816457D01*
X95250000Y-14796502D01*
X95021913Y-14816457D01*
X95016600Y-14817881D01*
X95016598Y-14817881D01*
X94806067Y-14874293D01*
X94806065Y-14874294D01*
X94800757Y-14875716D01*
X94795776Y-14878039D01*
X94795775Y-14878039D01*
X94598238Y-14970151D01*
X94598233Y-14970154D01*
X94593251Y-14972477D01*
X94543192Y-15007529D01*
X94410211Y-15100643D01*
X94410208Y-15100645D01*
X94405700Y-15103802D01*
X94243802Y-15265700D01*
X94112477Y-15453251D01*
X94110154Y-15458233D01*
X94110151Y-15458238D01*
X94094195Y-15492457D01*
X94047278Y-15545742D01*
X93979001Y-15565203D01*
X93911041Y-15544661D01*
X93865805Y-15492457D01*
X93849849Y-15458238D01*
X93849846Y-15458233D01*
X93847523Y-15453251D01*
X93716198Y-15265700D01*
X93554300Y-15103802D01*
X93549792Y-15100645D01*
X93549789Y-15100643D01*
X93416808Y-15007529D01*
X93366749Y-14972477D01*
X93361767Y-14970154D01*
X93361762Y-14970151D01*
X93164225Y-14878039D01*
X93164224Y-14878039D01*
X93159243Y-14875716D01*
X93153935Y-14874294D01*
X93153933Y-14874293D01*
X92943402Y-14817881D01*
X92943400Y-14817881D01*
X92938087Y-14816457D01*
X92710000Y-14796502D01*
X92481913Y-14816457D01*
X92476600Y-14817881D01*
X92476598Y-14817881D01*
X92266067Y-14874293D01*
X92266065Y-14874294D01*
X92260757Y-14875716D01*
X92255776Y-14878039D01*
X92255775Y-14878039D01*
X92237338Y-14886636D01*
X92143528Y-14930380D01*
X92073338Y-14941041D01*
X92008526Y-14912061D01*
X92001185Y-14905280D01*
X90353502Y-13257597D01*
X90319476Y-13195285D01*
X90324541Y-13124470D01*
X90367088Y-13067634D01*
X90433608Y-13042823D01*
X90442597Y-13042502D01*
X103262231Y-13042502D01*
X103273414Y-13043029D01*
X103280907Y-13044704D01*
X103288833Y-13044455D01*
X103288834Y-13044455D01*
X103348984Y-13042564D01*
X103352943Y-13042502D01*
X103380854Y-13042502D01*
X103384789Y-13042005D01*
X103384854Y-13041997D01*
X103396691Y-13041064D01*
X103428949Y-13040050D01*
X103432968Y-13039924D01*
X103440887Y-13039675D01*
X103460341Y-13034023D01*
X103479698Y-13030015D01*
X103491928Y-13028470D01*
X103491929Y-13028470D01*
X103499795Y-13027476D01*
X103507166Y-13024557D01*
X103507168Y-13024557D01*
X103540910Y-13011198D01*
X103552140Y-13007353D01*
X103586981Y-12997231D01*
X103586982Y-12997231D01*
X103594591Y-12995020D01*
X103601410Y-12990987D01*
X103601415Y-12990985D01*
X103612026Y-12984709D01*
X103629774Y-12976014D01*
X103648615Y-12968554D01*
X103684385Y-12942566D01*
X103694305Y-12936050D01*
X103725533Y-12917582D01*
X103725536Y-12917580D01*
X103732360Y-12913544D01*
X103746681Y-12899223D01*
X103761715Y-12886382D01*
X103771692Y-12879133D01*
X103778105Y-12874474D01*
X103806296Y-12840397D01*
X103814286Y-12831618D01*
X105802247Y-10843657D01*
X105810537Y-10836113D01*
X105817018Y-10832000D01*
X105832789Y-10815206D01*
X105863658Y-10782333D01*
X105866413Y-10779491D01*
X105886135Y-10759769D01*
X105888619Y-10756567D01*
X105896317Y-10747555D01*
X105921161Y-10721098D01*
X105926586Y-10715321D01*
X105936347Y-10697566D01*
X105947198Y-10681047D01*
X105959614Y-10665041D01*
X105977174Y-10624463D01*
X105982391Y-10613813D01*
X106003695Y-10575060D01*
X106008733Y-10555437D01*
X106015137Y-10536734D01*
X106020033Y-10525420D01*
X106020033Y-10525419D01*
X106023181Y-10518145D01*
X106024422Y-10510313D01*
X106025525Y-10503352D01*
X106055939Y-10439200D01*
X106077702Y-10419854D01*
X106249789Y-10299357D01*
X106249792Y-10299355D01*
X106254300Y-10296198D01*
X106416198Y-10134300D01*
X106419357Y-10129789D01*
X106422892Y-10125576D01*
X106424026Y-10126527D01*
X106474071Y-10086529D01*
X106544690Y-10079224D01*
X106608049Y-10111258D01*
X106644030Y-10172462D01*
X106647082Y-10189517D01*
X106648255Y-10200316D01*
X106699385Y-10336705D01*
X106786739Y-10453261D01*
X106903295Y-10540615D01*
X107039684Y-10591745D01*
X107101866Y-10598500D01*
X108798134Y-10598500D01*
X108860316Y-10591745D01*
X108996705Y-10540615D01*
X109113261Y-10453261D01*
X109200615Y-10336705D01*
X109251745Y-10200316D01*
X109258500Y-10138134D01*
X109258500Y-7641866D01*
X109251745Y-7579684D01*
X109200615Y-7443295D01*
X109113261Y-7326739D01*
X108996705Y-7239385D01*
X108860316Y-7188255D01*
X108798134Y-7181500D01*
X107101866Y-7181500D01*
X107039684Y-7188255D01*
X106903295Y-7239385D01*
X106786739Y-7326739D01*
X106699385Y-7443295D01*
X106648255Y-7579684D01*
X106647083Y-7590474D01*
X106646197Y-7592606D01*
X106645575Y-7595222D01*
X106645152Y-7595121D01*
X106619845Y-7656035D01*
X106561483Y-7696463D01*
X106490529Y-7698922D01*
X106429510Y-7662629D01*
X106422511Y-7653969D01*
X106419354Y-7650207D01*
X106416198Y-7645700D01*
X106254300Y-7483802D01*
X106249792Y-7480645D01*
X106249789Y-7480643D01*
X106116808Y-7387529D01*
X106066749Y-7352477D01*
X106061767Y-7350154D01*
X106061762Y-7350151D01*
X105864225Y-7258039D01*
X105864224Y-7258039D01*
X105859243Y-7255716D01*
X105853935Y-7254294D01*
X105853933Y-7254293D01*
X105643402Y-7197881D01*
X105643400Y-7197881D01*
X105638087Y-7196457D01*
X105410000Y-7176502D01*
X105181913Y-7196457D01*
X105176600Y-7197881D01*
X105176598Y-7197881D01*
X104966067Y-7254293D01*
X104966065Y-7254294D01*
X104960757Y-7255716D01*
X104955776Y-7258039D01*
X104955775Y-7258039D01*
X104758238Y-7350151D01*
X104758233Y-7350154D01*
X104753251Y-7352477D01*
X104703192Y-7387529D01*
X104570211Y-7480643D01*
X104570208Y-7480645D01*
X104565700Y-7483802D01*
X104403802Y-7645700D01*
X104272477Y-7833251D01*
X104270154Y-7838233D01*
X104270151Y-7838238D01*
X104254195Y-7872457D01*
X104207278Y-7925742D01*
X104139001Y-7945203D01*
X104071041Y-7924661D01*
X104025805Y-7872457D01*
X104009849Y-7838238D01*
X104009846Y-7838233D01*
X104007523Y-7833251D01*
X103876198Y-7645700D01*
X103714300Y-7483802D01*
X103709792Y-7480645D01*
X103709789Y-7480643D01*
X103576808Y-7387529D01*
X103526749Y-7352477D01*
X103521767Y-7350154D01*
X103521762Y-7350151D01*
X103324225Y-7258039D01*
X103324224Y-7258039D01*
X103319243Y-7255716D01*
X103313935Y-7254294D01*
X103313933Y-7254293D01*
X103103402Y-7197881D01*
X103103400Y-7197881D01*
X103098087Y-7196457D01*
X102870000Y-7176502D01*
X102641913Y-7196457D01*
X102636600Y-7197881D01*
X102636598Y-7197881D01*
X102426067Y-7254293D01*
X102426065Y-7254294D01*
X102420757Y-7255716D01*
X102415776Y-7258039D01*
X102415775Y-7258039D01*
X102218238Y-7350151D01*
X102218233Y-7350154D01*
X102213251Y-7352477D01*
X102163192Y-7387529D01*
X102030211Y-7480643D01*
X102030208Y-7480645D01*
X102025700Y-7483802D01*
X101863802Y-7645700D01*
X101732477Y-7833251D01*
X101730154Y-7838233D01*
X101730151Y-7838238D01*
X101714195Y-7872457D01*
X101667278Y-7925742D01*
X101599001Y-7945203D01*
X101531041Y-7924661D01*
X101485805Y-7872457D01*
X101469849Y-7838238D01*
X101469846Y-7838233D01*
X101467523Y-7833251D01*
X101336198Y-7645700D01*
X101174300Y-7483802D01*
X101169792Y-7480645D01*
X101169789Y-7480643D01*
X101036808Y-7387529D01*
X100986749Y-7352477D01*
X100981767Y-7350154D01*
X100981762Y-7350151D01*
X100784225Y-7258039D01*
X100784224Y-7258039D01*
X100779243Y-7255716D01*
X100773935Y-7254294D01*
X100773933Y-7254293D01*
X100563402Y-7197881D01*
X100563400Y-7197881D01*
X100558087Y-7196457D01*
X100330000Y-7176502D01*
X100101913Y-7196457D01*
X100096600Y-7197881D01*
X100096598Y-7197881D01*
X99886067Y-7254293D01*
X99886065Y-7254294D01*
X99880757Y-7255716D01*
X99875776Y-7258039D01*
X99875775Y-7258039D01*
X99678238Y-7350151D01*
X99678233Y-7350154D01*
X99673251Y-7352477D01*
X99623192Y-7387529D01*
X99490211Y-7480643D01*
X99490208Y-7480645D01*
X99485700Y-7483802D01*
X99323802Y-7645700D01*
X99192477Y-7833251D01*
X99190154Y-7838233D01*
X99190151Y-7838238D01*
X99174195Y-7872457D01*
X99127278Y-7925742D01*
X99059001Y-7945203D01*
X98991041Y-7924661D01*
X98945805Y-7872457D01*
X98929849Y-7838238D01*
X98929846Y-7838233D01*
X98927523Y-7833251D01*
X98796198Y-7645700D01*
X98634300Y-7483802D01*
X98629792Y-7480645D01*
X98629789Y-7480643D01*
X98496808Y-7387529D01*
X98446749Y-7352477D01*
X98441767Y-7350154D01*
X98441762Y-7350151D01*
X98244225Y-7258039D01*
X98244224Y-7258039D01*
X98239243Y-7255716D01*
X98233935Y-7254294D01*
X98233933Y-7254293D01*
X98023402Y-7197881D01*
X98023400Y-7197881D01*
X98018087Y-7196457D01*
X97790000Y-7176502D01*
X97561913Y-7196457D01*
X97556600Y-7197881D01*
X97556598Y-7197881D01*
X97346067Y-7254293D01*
X97346065Y-7254294D01*
X97340757Y-7255716D01*
X97335776Y-7258039D01*
X97335775Y-7258039D01*
X97138238Y-7350151D01*
X97138233Y-7350154D01*
X97133251Y-7352477D01*
X97083192Y-7387529D01*
X96950211Y-7480643D01*
X96950208Y-7480645D01*
X96945700Y-7483802D01*
X96783802Y-7645700D01*
X96652477Y-7833251D01*
X96650154Y-7838233D01*
X96650151Y-7838238D01*
X96634195Y-7872457D01*
X96587278Y-7925742D01*
X96519001Y-7945203D01*
X96451041Y-7924661D01*
X96405805Y-7872457D01*
X96389849Y-7838238D01*
X96389846Y-7838233D01*
X96387523Y-7833251D01*
X96256198Y-7645700D01*
X96094300Y-7483802D01*
X96089792Y-7480645D01*
X96089789Y-7480643D01*
X95956808Y-7387529D01*
X95906749Y-7352477D01*
X95901767Y-7350154D01*
X95901762Y-7350151D01*
X95704225Y-7258039D01*
X95704224Y-7258039D01*
X95699243Y-7255716D01*
X95693935Y-7254294D01*
X95693933Y-7254293D01*
X95483402Y-7197881D01*
X95483400Y-7197881D01*
X95478087Y-7196457D01*
X95250000Y-7176502D01*
X95021913Y-7196457D01*
X95016600Y-7197881D01*
X95016598Y-7197881D01*
X94806067Y-7254293D01*
X94806065Y-7254294D01*
X94800757Y-7255716D01*
X94795776Y-7258039D01*
X94795775Y-7258039D01*
X94598238Y-7350151D01*
X94598233Y-7350154D01*
X94593251Y-7352477D01*
X94543192Y-7387529D01*
X94410211Y-7480643D01*
X94410208Y-7480645D01*
X94405700Y-7483802D01*
X94243802Y-7645700D01*
X94112477Y-7833251D01*
X94110154Y-7838233D01*
X94110151Y-7838238D01*
X94094195Y-7872457D01*
X94047278Y-7925742D01*
X93979001Y-7945203D01*
X93911041Y-7924661D01*
X93865805Y-7872457D01*
X93849849Y-7838238D01*
X93849846Y-7838233D01*
X93847523Y-7833251D01*
X93716198Y-7645700D01*
X93554300Y-7483802D01*
X93549792Y-7480645D01*
X93549789Y-7480643D01*
X93416808Y-7387529D01*
X93366749Y-7352477D01*
X93361767Y-7350154D01*
X93361762Y-7350151D01*
X93164225Y-7258039D01*
X93164224Y-7258039D01*
X93159243Y-7255716D01*
X93153935Y-7254294D01*
X93153933Y-7254293D01*
X92943402Y-7197881D01*
X92943400Y-7197881D01*
X92938087Y-7196457D01*
X92710000Y-7176502D01*
X92481913Y-7196457D01*
X92476600Y-7197881D01*
X92476598Y-7197881D01*
X92266067Y-7254293D01*
X92266065Y-7254294D01*
X92260757Y-7255716D01*
X92255776Y-7258039D01*
X92255775Y-7258039D01*
X92058238Y-7350151D01*
X92058233Y-7350154D01*
X92053251Y-7352477D01*
X92003192Y-7387529D01*
X91870211Y-7480643D01*
X91870208Y-7480645D01*
X91865700Y-7483802D01*
X91703802Y-7645700D01*
X91572477Y-7833251D01*
X91570154Y-7838233D01*
X91570151Y-7838238D01*
X91544592Y-7893051D01*
X91475716Y-8040757D01*
X91474294Y-8046065D01*
X91474293Y-8046067D01*
X91429955Y-8211538D01*
X91416457Y-8261913D01*
X91401500Y-8432873D01*
X91401500Y-9347127D01*
X91416457Y-9518087D01*
X91417881Y-9523400D01*
X91417881Y-9523402D01*
X91463885Y-9695088D01*
X91475716Y-9739243D01*
X91478039Y-9744224D01*
X91478039Y-9744225D01*
X91570151Y-9941762D01*
X91570154Y-9941767D01*
X91572477Y-9946749D01*
X91614408Y-10006632D01*
X91651013Y-10058909D01*
X91703802Y-10134300D01*
X91865700Y-10296198D01*
X91870208Y-10299355D01*
X91870211Y-10299357D01*
X91911542Y-10328297D01*
X92053251Y-10427523D01*
X92058233Y-10429846D01*
X92058238Y-10429849D01*
X92255769Y-10521958D01*
X92260757Y-10524284D01*
X92266065Y-10525706D01*
X92266067Y-10525707D01*
X92476598Y-10582119D01*
X92476600Y-10582119D01*
X92481913Y-10583543D01*
X92710000Y-10603498D01*
X92938087Y-10583543D01*
X92943400Y-10582119D01*
X92943402Y-10582119D01*
X93153933Y-10525707D01*
X93153935Y-10525706D01*
X93159243Y-10524284D01*
X93164231Y-10521958D01*
X93361762Y-10429849D01*
X93361767Y-10429846D01*
X93366749Y-10427523D01*
X93508458Y-10328297D01*
X93549789Y-10299357D01*
X93549792Y-10299355D01*
X93554300Y-10296198D01*
X93716198Y-10134300D01*
X93768988Y-10058909D01*
X93805592Y-10006632D01*
X93847523Y-9946749D01*
X93849846Y-9941767D01*
X93849849Y-9941762D01*
X93865805Y-9907543D01*
X93912722Y-9854258D01*
X93980999Y-9834797D01*
X94048959Y-9855339D01*
X94094195Y-9907543D01*
X94110151Y-9941762D01*
X94110154Y-9941767D01*
X94112477Y-9946749D01*
X94154408Y-10006632D01*
X94191013Y-10058909D01*
X94243802Y-10134300D01*
X94405700Y-10296198D01*
X94410208Y-10299355D01*
X94410211Y-10299357D01*
X94451542Y-10328297D01*
X94593251Y-10427523D01*
X94598233Y-10429846D01*
X94598238Y-10429849D01*
X94795769Y-10521958D01*
X94800757Y-10524284D01*
X94806065Y-10525706D01*
X94806067Y-10525707D01*
X95016598Y-10582119D01*
X95016600Y-10582119D01*
X95021913Y-10583543D01*
X95250000Y-10603498D01*
X95478087Y-10583543D01*
X95483400Y-10582119D01*
X95483402Y-10582119D01*
X95693933Y-10525707D01*
X95693935Y-10525706D01*
X95699243Y-10524284D01*
X95704231Y-10521958D01*
X95901762Y-10429849D01*
X95901767Y-10429846D01*
X95906749Y-10427523D01*
X96048458Y-10328297D01*
X96089789Y-10299357D01*
X96089792Y-10299355D01*
X96094300Y-10296198D01*
X96256198Y-10134300D01*
X96308988Y-10058909D01*
X96345592Y-10006632D01*
X96387523Y-9946749D01*
X96389846Y-9941767D01*
X96389849Y-9941762D01*
X96405805Y-9907543D01*
X96452722Y-9854258D01*
X96520999Y-9834797D01*
X96588959Y-9855339D01*
X96634195Y-9907543D01*
X96650151Y-9941762D01*
X96650154Y-9941767D01*
X96652477Y-9946749D01*
X96694408Y-10006632D01*
X96731013Y-10058909D01*
X96783802Y-10134300D01*
X96945700Y-10296198D01*
X96950208Y-10299355D01*
X96950211Y-10299357D01*
X96991542Y-10328297D01*
X97133251Y-10427523D01*
X97138233Y-10429846D01*
X97138238Y-10429849D01*
X97335769Y-10521958D01*
X97340757Y-10524284D01*
X97346065Y-10525706D01*
X97346067Y-10525707D01*
X97556598Y-10582119D01*
X97556600Y-10582119D01*
X97561913Y-10583543D01*
X97790000Y-10603498D01*
X98018087Y-10583543D01*
X98023400Y-10582119D01*
X98023402Y-10582119D01*
X98233933Y-10525707D01*
X98233935Y-10525706D01*
X98239243Y-10524284D01*
X98244231Y-10521958D01*
X98441762Y-10429849D01*
X98441767Y-10429846D01*
X98446749Y-10427523D01*
X98588458Y-10328297D01*
X98629789Y-10299357D01*
X98629792Y-10299355D01*
X98634300Y-10296198D01*
X98796198Y-10134300D01*
X98848988Y-10058909D01*
X98885592Y-10006632D01*
X98927523Y-9946749D01*
X98929846Y-9941767D01*
X98929849Y-9941762D01*
X98945805Y-9907543D01*
X98992722Y-9854258D01*
X99060999Y-9834797D01*
X99128959Y-9855339D01*
X99174195Y-9907543D01*
X99190151Y-9941762D01*
X99190154Y-9941767D01*
X99192477Y-9946749D01*
X99234408Y-10006632D01*
X99271013Y-10058909D01*
X99323802Y-10134300D01*
X99485700Y-10296198D01*
X99490208Y-10299355D01*
X99490211Y-10299357D01*
X99531542Y-10328297D01*
X99673251Y-10427523D01*
X99678233Y-10429846D01*
X99678238Y-10429849D01*
X99875769Y-10521958D01*
X99880757Y-10524284D01*
X99886065Y-10525706D01*
X99886067Y-10525707D01*
X100096598Y-10582119D01*
X100096600Y-10582119D01*
X100101913Y-10583543D01*
X100330000Y-10603498D01*
X100558087Y-10583543D01*
X100563400Y-10582119D01*
X100563402Y-10582119D01*
X100773933Y-10525707D01*
X100773935Y-10525706D01*
X100779243Y-10524284D01*
X100784231Y-10521958D01*
X100981762Y-10429849D01*
X100981767Y-10429846D01*
X100986749Y-10427523D01*
X101128458Y-10328297D01*
X101169789Y-10299357D01*
X101169792Y-10299355D01*
X101174300Y-10296198D01*
X101336198Y-10134300D01*
X101388988Y-10058909D01*
X101425592Y-10006632D01*
X101467523Y-9946749D01*
X101469846Y-9941767D01*
X101469849Y-9941762D01*
X101485805Y-9907543D01*
X101532722Y-9854258D01*
X101600999Y-9834797D01*
X101668959Y-9855339D01*
X101714195Y-9907543D01*
X101730151Y-9941762D01*
X101730154Y-9941767D01*
X101732477Y-9946749D01*
X101774408Y-10006632D01*
X101811013Y-10058909D01*
X101863802Y-10134300D01*
X102025700Y-10296198D01*
X102030208Y-10299355D01*
X102030211Y-10299357D01*
X102071542Y-10328297D01*
X102213251Y-10427523D01*
X102218233Y-10429846D01*
X102218238Y-10429849D01*
X102415769Y-10521958D01*
X102420757Y-10524284D01*
X102426065Y-10525706D01*
X102426067Y-10525707D01*
X102636598Y-10582119D01*
X102636600Y-10582119D01*
X102641913Y-10583543D01*
X102870000Y-10603498D01*
X103098087Y-10583543D01*
X103103400Y-10582119D01*
X103103402Y-10582119D01*
X103313933Y-10525707D01*
X103313935Y-10525706D01*
X103319243Y-10524284D01*
X103324231Y-10521958D01*
X103521762Y-10429849D01*
X103521767Y-10429846D01*
X103526749Y-10427523D01*
X103668458Y-10328297D01*
X103709789Y-10299357D01*
X103709792Y-10299355D01*
X103714300Y-10296198D01*
X103876198Y-10134300D01*
X103928988Y-10058909D01*
X103965592Y-10006632D01*
X104007523Y-9946749D01*
X104009846Y-9941767D01*
X104009849Y-9941762D01*
X104025805Y-9907543D01*
X104072722Y-9854258D01*
X104140999Y-9834797D01*
X104208959Y-9855339D01*
X104254195Y-9907543D01*
X104270151Y-9941762D01*
X104270154Y-9941767D01*
X104272477Y-9946749D01*
X104314408Y-10006632D01*
X104351013Y-10058909D01*
X104403802Y-10134300D01*
X104472704Y-10203202D01*
X104506730Y-10265514D01*
X104501665Y-10336329D01*
X104472704Y-10381392D01*
X103748037Y-11106058D01*
X103115498Y-11738597D01*
X103053186Y-11772623D01*
X103026403Y-11775502D01*
X97048572Y-11775502D01*
X96980451Y-11755500D01*
X96933958Y-11701844D01*
X96923262Y-11662672D01*
X96906232Y-11500635D01*
X96906232Y-11500633D01*
X96905542Y-11494072D01*
X96846527Y-11312444D01*
X96751040Y-11147056D01*
X96623253Y-11005134D01*
X96468752Y-10892882D01*
X96462724Y-10890198D01*
X96462722Y-10890197D01*
X96300319Y-10817891D01*
X96300318Y-10817891D01*
X96294288Y-10815206D01*
X96200888Y-10795353D01*
X96113944Y-10776872D01*
X96113939Y-10776872D01*
X96107487Y-10775500D01*
X95916513Y-10775500D01*
X95910061Y-10776872D01*
X95910056Y-10776872D01*
X95823112Y-10795353D01*
X95729712Y-10815206D01*
X95723682Y-10817891D01*
X95723681Y-10817891D01*
X95561278Y-10890197D01*
X95561276Y-10890198D01*
X95555248Y-10892882D01*
X95400747Y-11005134D01*
X95396332Y-11010037D01*
X95391420Y-11014460D01*
X95390295Y-11013211D01*
X95336986Y-11046051D01*
X95303800Y-11050500D01*
X77022595Y-11050500D01*
X76954474Y-11030498D01*
X76933500Y-11013595D01*
X76870405Y-10950500D01*
X76836379Y-10888188D01*
X76833500Y-10861405D01*
X76833500Y-10724500D01*
X76853502Y-10656379D01*
X76907158Y-10609886D01*
X76959500Y-10598500D01*
X77048134Y-10598500D01*
X77110316Y-10591745D01*
X77246705Y-10540615D01*
X77363261Y-10453261D01*
X77450615Y-10336705D01*
X77501745Y-10200316D01*
X77508500Y-10138134D01*
X77508500Y-7641866D01*
X77501745Y-7579684D01*
X77450615Y-7443295D01*
X77363261Y-7326739D01*
X77246705Y-7239385D01*
X77110316Y-7188255D01*
X77048134Y-7181500D01*
X75439595Y-7181500D01*
X75371474Y-7161498D01*
X75350500Y-7144595D01*
X74163652Y-5957747D01*
X74156112Y-5949461D01*
X74152000Y-5942982D01*
X74102348Y-5896356D01*
X74099507Y-5893602D01*
X74079770Y-5873865D01*
X74076573Y-5871385D01*
X74067551Y-5863680D01*
X74035321Y-5833414D01*
X74028375Y-5829595D01*
X74028372Y-5829593D01*
X74017566Y-5823652D01*
X74001047Y-5812801D01*
X73995048Y-5808148D01*
X73985041Y-5800386D01*
X73977772Y-5797241D01*
X73977768Y-5797238D01*
X73944463Y-5782826D01*
X73933813Y-5777609D01*
X73895060Y-5756305D01*
X73875437Y-5751267D01*
X73856734Y-5744863D01*
X73845420Y-5739967D01*
X73845419Y-5739967D01*
X73838145Y-5736819D01*
X73830322Y-5735580D01*
X73830312Y-5735577D01*
X73794476Y-5729901D01*
X73782856Y-5727495D01*
X73747711Y-5718472D01*
X73747710Y-5718472D01*
X73740030Y-5716500D01*
X73719776Y-5716500D01*
X73700065Y-5714949D01*
X73687886Y-5713020D01*
X73680057Y-5711780D01*
X73672165Y-5712526D01*
X73636039Y-5715941D01*
X73624181Y-5716500D01*
X21028200Y-5716500D01*
X20960079Y-5696498D01*
X20940853Y-5680157D01*
X20940580Y-5680460D01*
X20935668Y-5676037D01*
X20931253Y-5671134D01*
X20776752Y-5558882D01*
X20770724Y-5556198D01*
X20770722Y-5556197D01*
X20608319Y-5483891D01*
X20608318Y-5483891D01*
X20602288Y-5481206D01*
X20508888Y-5461353D01*
X20421944Y-5442872D01*
X20421939Y-5442872D01*
X20415487Y-5441500D01*
X20224513Y-5441500D01*
X20218061Y-5442872D01*
X20218056Y-5442872D01*
X20131113Y-5461353D01*
X20037712Y-5481206D01*
X20031682Y-5483891D01*
X20031681Y-5483891D01*
X19869278Y-5556197D01*
X19869276Y-5556198D01*
X19863248Y-5558882D01*
X19708747Y-5671134D01*
X19704326Y-5676044D01*
X19704325Y-5676045D01*
X19595203Y-5797238D01*
X19580960Y-5813056D01*
X19485473Y-5978444D01*
X19426458Y-6160072D01*
X19406496Y-6350000D01*
X19407186Y-6356565D01*
X19413844Y-6419908D01*
X19426458Y-6539928D01*
X19435110Y-6566555D01*
X19437136Y-6637523D01*
X19400473Y-6698320D01*
X19336760Y-6729645D01*
X19315276Y-6731490D01*
X16589778Y-6731490D01*
X16578595Y-6730963D01*
X16571102Y-6729288D01*
X16563176Y-6729537D01*
X16563175Y-6729537D01*
X16503012Y-6731428D01*
X16499054Y-6731490D01*
X16471154Y-6731490D01*
X16467164Y-6731994D01*
X16455330Y-6732926D01*
X16411121Y-6734316D01*
X16403505Y-6736529D01*
X16403503Y-6736529D01*
X16391662Y-6739969D01*
X16372303Y-6743978D01*
X16370993Y-6744144D01*
X16352213Y-6746516D01*
X16344847Y-6749432D01*
X16344841Y-6749434D01*
X16311108Y-6762790D01*
X16299878Y-6766635D01*
X16265027Y-6776760D01*
X16257417Y-6778971D01*
X16250594Y-6783006D01*
X16239976Y-6789285D01*
X16222223Y-6797982D01*
X16214578Y-6801009D01*
X16203393Y-6805438D01*
X16196978Y-6810099D01*
X16167622Y-6831427D01*
X16157705Y-6837941D01*
X16119648Y-6860448D01*
X16105327Y-6874769D01*
X16090294Y-6887609D01*
X16073903Y-6899518D01*
X16068852Y-6905624D01*
X16045712Y-6933595D01*
X16037722Y-6942374D01*
X13257500Y-9722595D01*
X13195188Y-9756621D01*
X13168405Y-9759500D01*
X13112513Y-9759500D01*
X13106061Y-9760872D01*
X13106056Y-9760872D01*
X13046700Y-9773489D01*
X12925712Y-9799206D01*
X12919682Y-9801891D01*
X12919681Y-9801891D01*
X12757278Y-9874197D01*
X12757276Y-9874198D01*
X12751248Y-9876882D01*
X12596747Y-9989134D01*
X12592326Y-9994044D01*
X12592325Y-9994045D01*
X12583968Y-10003327D01*
X12468960Y-10131056D01*
X12373473Y-10296444D01*
X12314458Y-10478072D01*
X12313768Y-10484633D01*
X12313768Y-10484635D01*
X12305341Y-10564811D01*
X12294496Y-10668000D01*
X12295186Y-10674565D01*
X12309824Y-10813834D01*
X12314458Y-10857928D01*
X12373473Y-11039556D01*
X12376776Y-11045278D01*
X12376777Y-11045279D01*
X12410686Y-11104010D01*
X12468960Y-11204944D01*
X12473378Y-11209851D01*
X12473379Y-11209852D01*
X12560600Y-11306721D01*
X12596747Y-11346866D01*
X12751248Y-11459118D01*
X12757276Y-11461802D01*
X12757278Y-11461803D01*
X12842864Y-11499908D01*
X12925712Y-11536794D01*
X13019112Y-11556647D01*
X13106056Y-11575128D01*
X13106061Y-11575128D01*
X13112513Y-11576500D01*
X13303487Y-11576500D01*
X13309939Y-11575128D01*
X13309944Y-11575128D01*
X13396888Y-11556647D01*
X13490288Y-11536794D01*
X13573136Y-11499908D01*
X13658722Y-11461803D01*
X13658724Y-11461802D01*
X13664752Y-11459118D01*
X13819253Y-11346866D01*
X13855400Y-11306721D01*
X13942621Y-11209852D01*
X13942622Y-11209851D01*
X13947040Y-11204944D01*
X14005314Y-11104010D01*
X14039223Y-11045279D01*
X14039224Y-11045278D01*
X14042527Y-11039556D01*
X14101542Y-10857928D01*
X14106177Y-10813834D01*
X14112633Y-10752401D01*
X14118907Y-10692706D01*
X14145920Y-10627050D01*
X14155122Y-10616782D01*
X16736509Y-8035395D01*
X16798821Y-8001369D01*
X16825604Y-7998490D01*
X59120396Y-7998490D01*
X59188517Y-8018492D01*
X59209491Y-8035395D01*
X59614595Y-8440499D01*
X59648621Y-8502811D01*
X59651500Y-8529594D01*
X59651500Y-9347127D01*
X59666457Y-9518087D01*
X59667881Y-9523400D01*
X59667881Y-9523402D01*
X59713885Y-9695088D01*
X59725716Y-9739243D01*
X59728039Y-9744224D01*
X59728039Y-9744225D01*
X59820151Y-9941762D01*
X59820154Y-9941767D01*
X59822477Y-9946749D01*
X59864408Y-10006632D01*
X59901013Y-10058909D01*
X59953802Y-10134300D01*
X60115700Y-10296198D01*
X60120208Y-10299355D01*
X60120211Y-10299357D01*
X60161542Y-10328297D01*
X60303251Y-10427523D01*
X60308233Y-10429846D01*
X60308238Y-10429849D01*
X60505769Y-10521958D01*
X60510757Y-10524284D01*
X60516065Y-10525706D01*
X60516067Y-10525707D01*
X60726598Y-10582119D01*
X60726600Y-10582119D01*
X60731913Y-10583543D01*
X60960000Y-10603498D01*
X61188087Y-10583543D01*
X61193400Y-10582119D01*
X61193402Y-10582119D01*
X61403921Y-10525710D01*
X61409243Y-10524284D01*
X61414228Y-10521959D01*
X61414232Y-10521958D01*
X61526472Y-10469620D01*
X61596663Y-10458959D01*
X61661476Y-10487939D01*
X61668816Y-10494720D01*
X64901343Y-13727247D01*
X64908887Y-13735537D01*
X64913000Y-13742018D01*
X64918777Y-13747443D01*
X64962667Y-13788658D01*
X64965509Y-13791413D01*
X64985230Y-13811134D01*
X64988425Y-13813612D01*
X64997447Y-13821318D01*
X65029679Y-13851586D01*
X65036628Y-13855406D01*
X65047432Y-13861346D01*
X65063956Y-13872199D01*
X65079959Y-13884613D01*
X65120543Y-13902176D01*
X65131173Y-13907383D01*
X65169940Y-13928695D01*
X65177617Y-13930666D01*
X65177622Y-13930668D01*
X65189558Y-13933732D01*
X65208266Y-13940137D01*
X65226855Y-13948181D01*
X65234683Y-13949421D01*
X65234690Y-13949423D01*
X65270524Y-13955099D01*
X65282144Y-13957505D01*
X65317289Y-13966528D01*
X65324970Y-13968500D01*
X65345224Y-13968500D01*
X65364934Y-13970051D01*
X65384943Y-13973220D01*
X65392835Y-13972474D01*
X65428961Y-13969059D01*
X65440819Y-13968500D01*
X79088768Y-13968500D01*
X79156889Y-13988502D01*
X79203382Y-14042158D01*
X79213486Y-14112432D01*
X79183992Y-14177012D01*
X79169981Y-14190804D01*
X79165700Y-14193802D01*
X79003802Y-14355700D01*
X78872477Y-14543251D01*
X78870154Y-14548233D01*
X78870151Y-14548238D01*
X78814568Y-14667438D01*
X78775716Y-14750757D01*
X78774294Y-14756065D01*
X78774293Y-14756067D01*
X78717881Y-14966598D01*
X78716457Y-14971913D01*
X78696502Y-15200000D01*
X78716457Y-15428087D01*
X78717881Y-15433400D01*
X78717881Y-15433402D01*
X78751287Y-15558072D01*
X78775716Y-15649243D01*
X78778039Y-15654224D01*
X78778039Y-15654225D01*
X78870151Y-15851762D01*
X78870154Y-15851767D01*
X78872477Y-15856749D01*
X79003802Y-16044300D01*
X79165700Y-16206198D01*
X79170208Y-16209355D01*
X79170211Y-16209357D01*
X79227667Y-16249588D01*
X79353251Y-16337523D01*
X79358233Y-16339846D01*
X79358238Y-16339849D01*
X79553176Y-16430749D01*
X79560757Y-16434284D01*
X79566065Y-16435706D01*
X79566067Y-16435707D01*
X79776598Y-16492119D01*
X79776600Y-16492119D01*
X79781913Y-16493543D01*
X80010000Y-16513498D01*
X80238087Y-16493543D01*
X80243400Y-16492119D01*
X80243402Y-16492119D01*
X80453933Y-16435707D01*
X80453935Y-16435706D01*
X80459243Y-16434284D01*
X80466824Y-16430749D01*
X80661762Y-16339849D01*
X80661767Y-16339846D01*
X80666749Y-16337523D01*
X80792333Y-16249588D01*
X80849789Y-16209357D01*
X80849792Y-16209355D01*
X80854300Y-16206198D01*
X81016198Y-16044300D01*
X81147523Y-15856749D01*
X81149846Y-15851767D01*
X81149849Y-15851762D01*
X81241961Y-15654225D01*
X81241961Y-15654224D01*
X81244284Y-15649243D01*
X81268714Y-15558072D01*
X81302119Y-15433402D01*
X81302119Y-15433400D01*
X81303543Y-15428087D01*
X81323498Y-15200000D01*
X81303543Y-14971913D01*
X81302119Y-14966598D01*
X81245707Y-14756067D01*
X81245706Y-14756065D01*
X81244284Y-14750757D01*
X81205432Y-14667438D01*
X81149849Y-14548238D01*
X81149846Y-14548233D01*
X81147523Y-14543251D01*
X81016198Y-14355700D01*
X80854300Y-14193802D01*
X80850159Y-14190903D01*
X80810912Y-14131906D01*
X80809790Y-14060918D01*
X80847224Y-14000592D01*
X80911330Y-13970082D01*
X80931232Y-13968500D01*
X89220406Y-13968500D01*
X89288527Y-13988502D01*
X89309501Y-14005405D01*
X89928484Y-14624388D01*
X89962510Y-14686700D01*
X89957445Y-14757515D01*
X89914898Y-14814351D01*
X89872001Y-14835190D01*
X89720757Y-14875716D01*
X89715776Y-14878039D01*
X89715775Y-14878039D01*
X89518238Y-14970151D01*
X89518233Y-14970154D01*
X89513251Y-14972477D01*
X89463192Y-15007529D01*
X89330211Y-15100643D01*
X89330208Y-15100645D01*
X89325700Y-15103802D01*
X89163802Y-15265700D01*
X89032477Y-15453251D01*
X89030154Y-15458233D01*
X89030151Y-15458238D01*
X89004592Y-15513051D01*
X88935716Y-15660757D01*
X88934294Y-15666065D01*
X88934293Y-15666067D01*
X88889955Y-15831538D01*
X88876457Y-15881913D01*
X88871007Y-15944206D01*
X88862645Y-16039789D01*
X88861500Y-16052873D01*
X88861500Y-16870405D01*
X88841498Y-16938526D01*
X88824595Y-16959500D01*
X88419490Y-17364605D01*
X88357178Y-17398631D01*
X88330395Y-17401510D01*
X77587166Y-17401510D01*
X77519045Y-17381508D01*
X77472552Y-17327852D01*
X77462448Y-17257578D01*
X77465459Y-17242899D01*
X77492119Y-17143402D01*
X77492119Y-17143400D01*
X77493543Y-17138087D01*
X77505827Y-16997680D01*
X77508262Y-16969851D01*
X77508262Y-16969844D01*
X77508500Y-16967127D01*
X77508500Y-16052873D01*
X77507356Y-16039789D01*
X77498993Y-15944206D01*
X77493543Y-15881913D01*
X77480045Y-15831538D01*
X77435707Y-15666067D01*
X77435706Y-15666065D01*
X77434284Y-15660757D01*
X77365408Y-15513051D01*
X77339849Y-15458238D01*
X77339846Y-15458233D01*
X77337523Y-15453251D01*
X77206198Y-15265700D01*
X77044300Y-15103802D01*
X77039792Y-15100645D01*
X77039789Y-15100643D01*
X76906808Y-15007529D01*
X76856749Y-14972477D01*
X76851767Y-14970154D01*
X76851762Y-14970151D01*
X76654225Y-14878039D01*
X76654224Y-14878039D01*
X76649243Y-14875716D01*
X76643935Y-14874294D01*
X76643933Y-14874293D01*
X76433402Y-14817881D01*
X76433400Y-14817881D01*
X76428087Y-14816457D01*
X76200000Y-14796502D01*
X75971913Y-14816457D01*
X75966600Y-14817881D01*
X75966598Y-14817881D01*
X75756067Y-14874293D01*
X75756065Y-14874294D01*
X75750757Y-14875716D01*
X75745776Y-14878039D01*
X75745775Y-14878039D01*
X75548238Y-14970151D01*
X75548233Y-14970154D01*
X75543251Y-14972477D01*
X75493192Y-15007529D01*
X75360211Y-15100643D01*
X75360208Y-15100645D01*
X75355700Y-15103802D01*
X75193802Y-15265700D01*
X75062477Y-15453251D01*
X75060154Y-15458233D01*
X75060151Y-15458238D01*
X75044195Y-15492457D01*
X74997278Y-15545742D01*
X74929001Y-15565203D01*
X74861041Y-15544661D01*
X74815805Y-15492457D01*
X74799849Y-15458238D01*
X74799846Y-15458233D01*
X74797523Y-15453251D01*
X74666198Y-15265700D01*
X74504300Y-15103802D01*
X74499792Y-15100645D01*
X74499789Y-15100643D01*
X74366808Y-15007529D01*
X74316749Y-14972477D01*
X74311767Y-14970154D01*
X74311762Y-14970151D01*
X74114225Y-14878039D01*
X74114224Y-14878039D01*
X74109243Y-14875716D01*
X74103935Y-14874294D01*
X74103933Y-14874293D01*
X73893402Y-14817881D01*
X73893400Y-14817881D01*
X73888087Y-14816457D01*
X73660000Y-14796502D01*
X73431913Y-14816457D01*
X73426600Y-14817881D01*
X73426598Y-14817881D01*
X73216067Y-14874293D01*
X73216065Y-14874294D01*
X73210757Y-14875716D01*
X73205776Y-14878039D01*
X73205775Y-14878039D01*
X73008238Y-14970151D01*
X73008233Y-14970154D01*
X73003251Y-14972477D01*
X72953192Y-15007529D01*
X72820211Y-15100643D01*
X72820208Y-15100645D01*
X72815700Y-15103802D01*
X72653802Y-15265700D01*
X72522477Y-15453251D01*
X72520154Y-15458233D01*
X72520151Y-15458238D01*
X72504195Y-15492457D01*
X72457278Y-15545742D01*
X72389001Y-15565203D01*
X72321041Y-15544661D01*
X72275805Y-15492457D01*
X72259849Y-15458238D01*
X72259846Y-15458233D01*
X72257523Y-15453251D01*
X72126198Y-15265700D01*
X71964300Y-15103802D01*
X71959792Y-15100645D01*
X71959789Y-15100643D01*
X71826808Y-15007529D01*
X71776749Y-14972477D01*
X71771767Y-14970154D01*
X71771762Y-14970151D01*
X71574225Y-14878039D01*
X71574224Y-14878039D01*
X71569243Y-14875716D01*
X71563935Y-14874294D01*
X71563933Y-14874293D01*
X71353402Y-14817881D01*
X71353400Y-14817881D01*
X71348087Y-14816457D01*
X71120000Y-14796502D01*
X70891913Y-14816457D01*
X70886600Y-14817881D01*
X70886598Y-14817881D01*
X70676067Y-14874293D01*
X70676065Y-14874294D01*
X70670757Y-14875716D01*
X70665776Y-14878039D01*
X70665775Y-14878039D01*
X70468238Y-14970151D01*
X70468233Y-14970154D01*
X70463251Y-14972477D01*
X70413192Y-15007529D01*
X70280211Y-15100643D01*
X70280208Y-15100645D01*
X70275700Y-15103802D01*
X70113802Y-15265700D01*
X69982477Y-15453251D01*
X69980154Y-15458233D01*
X69980151Y-15458238D01*
X69964195Y-15492457D01*
X69917278Y-15545742D01*
X69849001Y-15565203D01*
X69781041Y-15544661D01*
X69735805Y-15492457D01*
X69719849Y-15458238D01*
X69719846Y-15458233D01*
X69717523Y-15453251D01*
X69586198Y-15265700D01*
X69424300Y-15103802D01*
X69419792Y-15100645D01*
X69419789Y-15100643D01*
X69286808Y-15007529D01*
X69236749Y-14972477D01*
X69231767Y-14970154D01*
X69231762Y-14970151D01*
X69034225Y-14878039D01*
X69034224Y-14878039D01*
X69029243Y-14875716D01*
X69023935Y-14874294D01*
X69023933Y-14874293D01*
X68813402Y-14817881D01*
X68813400Y-14817881D01*
X68808087Y-14816457D01*
X68580000Y-14796502D01*
X68351913Y-14816457D01*
X68346600Y-14817881D01*
X68346598Y-14817881D01*
X68136067Y-14874293D01*
X68136065Y-14874294D01*
X68130757Y-14875716D01*
X68125776Y-14878039D01*
X68125775Y-14878039D01*
X67928238Y-14970151D01*
X67928233Y-14970154D01*
X67923251Y-14972477D01*
X67873192Y-15007529D01*
X67740211Y-15100643D01*
X67740208Y-15100645D01*
X67735700Y-15103802D01*
X67573802Y-15265700D01*
X67442477Y-15453251D01*
X67440154Y-15458233D01*
X67440151Y-15458238D01*
X67424195Y-15492457D01*
X67377278Y-15545742D01*
X67309001Y-15565203D01*
X67241041Y-15544661D01*
X67195805Y-15492457D01*
X67179849Y-15458238D01*
X67179846Y-15458233D01*
X67177523Y-15453251D01*
X67046198Y-15265700D01*
X66884300Y-15103802D01*
X66879792Y-15100645D01*
X66879789Y-15100643D01*
X66746808Y-15007529D01*
X66696749Y-14972477D01*
X66691767Y-14970154D01*
X66691762Y-14970151D01*
X66494225Y-14878039D01*
X66494224Y-14878039D01*
X66489243Y-14875716D01*
X66483935Y-14874294D01*
X66483933Y-14874293D01*
X66273402Y-14817881D01*
X66273400Y-14817881D01*
X66268087Y-14816457D01*
X66040000Y-14796502D01*
X65811913Y-14816457D01*
X65806600Y-14817881D01*
X65806598Y-14817881D01*
X65596067Y-14874293D01*
X65596065Y-14874294D01*
X65590757Y-14875716D01*
X65585776Y-14878039D01*
X65585775Y-14878039D01*
X65388238Y-14970151D01*
X65388233Y-14970154D01*
X65383251Y-14972477D01*
X65333192Y-15007529D01*
X65200211Y-15100643D01*
X65200208Y-15100645D01*
X65195700Y-15103802D01*
X65033802Y-15265700D01*
X64902477Y-15453251D01*
X64900154Y-15458233D01*
X64900151Y-15458238D01*
X64884195Y-15492457D01*
X64837278Y-15545742D01*
X64769001Y-15565203D01*
X64701041Y-15544661D01*
X64655805Y-15492457D01*
X64639849Y-15458238D01*
X64639846Y-15458233D01*
X64637523Y-15453251D01*
X64506198Y-15265700D01*
X64344300Y-15103802D01*
X64339792Y-15100645D01*
X64339789Y-15100643D01*
X64206808Y-15007529D01*
X64156749Y-14972477D01*
X64151767Y-14970154D01*
X64151762Y-14970151D01*
X63954225Y-14878039D01*
X63954224Y-14878039D01*
X63949243Y-14875716D01*
X63943935Y-14874294D01*
X63943933Y-14874293D01*
X63733402Y-14817881D01*
X63733400Y-14817881D01*
X63728087Y-14816457D01*
X63500000Y-14796502D01*
X63271913Y-14816457D01*
X63266600Y-14817881D01*
X63266598Y-14817881D01*
X63056067Y-14874293D01*
X63056065Y-14874294D01*
X63050757Y-14875716D01*
X63045776Y-14878039D01*
X63045775Y-14878039D01*
X62848238Y-14970151D01*
X62848233Y-14970154D01*
X62843251Y-14972477D01*
X62793192Y-15007529D01*
X62660211Y-15100643D01*
X62660208Y-15100645D01*
X62655700Y-15103802D01*
X62493802Y-15265700D01*
X62362477Y-15453251D01*
X62360154Y-15458233D01*
X62360151Y-15458238D01*
X62344195Y-15492457D01*
X62297278Y-15545742D01*
X62229001Y-15565203D01*
X62161041Y-15544661D01*
X62115805Y-15492457D01*
X62099849Y-15458238D01*
X62099846Y-15458233D01*
X62097523Y-15453251D01*
X61966198Y-15265700D01*
X61804300Y-15103802D01*
X61799792Y-15100645D01*
X61799789Y-15100643D01*
X61666808Y-15007529D01*
X61616749Y-14972477D01*
X61611767Y-14970154D01*
X61611762Y-14970151D01*
X61414225Y-14878039D01*
X61414224Y-14878039D01*
X61409243Y-14875716D01*
X61403935Y-14874294D01*
X61403933Y-14874293D01*
X61193402Y-14817881D01*
X61193400Y-14817881D01*
X61188087Y-14816457D01*
X60960000Y-14796502D01*
X60731913Y-14816457D01*
X60726600Y-14817881D01*
X60726598Y-14817881D01*
X60516067Y-14874293D01*
X60516065Y-14874294D01*
X60510757Y-14875716D01*
X60505776Y-14878039D01*
X60505775Y-14878039D01*
X60308238Y-14970151D01*
X60308233Y-14970154D01*
X60303251Y-14972477D01*
X60253192Y-15007529D01*
X60120211Y-15100643D01*
X60120208Y-15100645D01*
X60115700Y-15103802D01*
X59953802Y-15265700D01*
X59822477Y-15453251D01*
X59820154Y-15458233D01*
X59820151Y-15458238D01*
X59804195Y-15492457D01*
X59757278Y-15545742D01*
X59689001Y-15565203D01*
X59621041Y-15544661D01*
X59575805Y-15492457D01*
X59559849Y-15458238D01*
X59559846Y-15458233D01*
X59557523Y-15453251D01*
X59426198Y-15265700D01*
X59264300Y-15103802D01*
X59259792Y-15100645D01*
X59259789Y-15100643D01*
X59126808Y-15007529D01*
X59076749Y-14972477D01*
X59071767Y-14970154D01*
X59071762Y-14970151D01*
X58874225Y-14878039D01*
X58874224Y-14878039D01*
X58869243Y-14875716D01*
X58863935Y-14874294D01*
X58863933Y-14874293D01*
X58653402Y-14817881D01*
X58653400Y-14817881D01*
X58648087Y-14816457D01*
X58420000Y-14796502D01*
X58191913Y-14816457D01*
X58186600Y-14817881D01*
X58186598Y-14817881D01*
X57976067Y-14874293D01*
X57976065Y-14874294D01*
X57970757Y-14875716D01*
X57965776Y-14878039D01*
X57965775Y-14878039D01*
X57768238Y-14970151D01*
X57768233Y-14970154D01*
X57763251Y-14972477D01*
X57613676Y-15077211D01*
X57592965Y-15091713D01*
X57520694Y-15114500D01*
X50492200Y-15114500D01*
X50424079Y-15094498D01*
X50404853Y-15078157D01*
X50404580Y-15078460D01*
X50399668Y-15074037D01*
X50395253Y-15069134D01*
X50262217Y-14972477D01*
X50246094Y-14960763D01*
X50246093Y-14960762D01*
X50240752Y-14956882D01*
X50234724Y-14954198D01*
X50234722Y-14954197D01*
X50072319Y-14881891D01*
X50072318Y-14881891D01*
X50066288Y-14879206D01*
X49945300Y-14853489D01*
X49885944Y-14840872D01*
X49885939Y-14840872D01*
X49879487Y-14839500D01*
X49688513Y-14839500D01*
X49682061Y-14840872D01*
X49682056Y-14840872D01*
X49622700Y-14853489D01*
X49501712Y-14879206D01*
X49495682Y-14881891D01*
X49495681Y-14881891D01*
X49333278Y-14954197D01*
X49333276Y-14954198D01*
X49327248Y-14956882D01*
X49321907Y-14960762D01*
X49321906Y-14960763D01*
X49305783Y-14972477D01*
X49172747Y-15069134D01*
X49168326Y-15074044D01*
X49168325Y-15074045D01*
X49059845Y-15194525D01*
X49044960Y-15211056D01*
X48949473Y-15376444D01*
X48890458Y-15558072D01*
X48889768Y-15564633D01*
X48889768Y-15564635D01*
X48881434Y-15643933D01*
X48870496Y-15748000D01*
X48871186Y-15754565D01*
X48885147Y-15887393D01*
X48890458Y-15937928D01*
X48949473Y-16119556D01*
X49044960Y-16284944D01*
X49049378Y-16289851D01*
X49049379Y-16289852D01*
X49135905Y-16385949D01*
X49172747Y-16426866D01*
X49327248Y-16539118D01*
X49333276Y-16541802D01*
X49333278Y-16541803D01*
X49418864Y-16579908D01*
X49501712Y-16616794D01*
X49595113Y-16636647D01*
X49682056Y-16655128D01*
X49682061Y-16655128D01*
X49688513Y-16656500D01*
X49879487Y-16656500D01*
X49885939Y-16655128D01*
X49885944Y-16655128D01*
X49972887Y-16636647D01*
X50066288Y-16616794D01*
X50149136Y-16579908D01*
X50234722Y-16541803D01*
X50234724Y-16541802D01*
X50240752Y-16539118D01*
X50280830Y-16510000D01*
X50388240Y-16431961D01*
X50395253Y-16426866D01*
X50399668Y-16421963D01*
X50404580Y-16417540D01*
X50405705Y-16418789D01*
X50459014Y-16385949D01*
X50492200Y-16381500D01*
X50811605Y-16381500D01*
X50879726Y-16401502D01*
X50926219Y-16455158D01*
X50936323Y-16525432D01*
X50931437Y-16546438D01*
X50924498Y-16567792D01*
X50924497Y-16567797D01*
X50922458Y-16574072D01*
X50921768Y-16580633D01*
X50921768Y-16580635D01*
X50908722Y-16704767D01*
X50902496Y-16764000D01*
X50903186Y-16770565D01*
X50921726Y-16946959D01*
X50922458Y-16953928D01*
X50981473Y-17135556D01*
X50984776Y-17141278D01*
X50984777Y-17141279D01*
X51001277Y-17169857D01*
X51076960Y-17300944D01*
X51150137Y-17382215D01*
X51180853Y-17446221D01*
X51182500Y-17466524D01*
X51182500Y-25593406D01*
X51162498Y-25661527D01*
X51145595Y-25682501D01*
X31633501Y-45194594D01*
X31571189Y-45228620D01*
X31544406Y-45231499D01*
X7912021Y-45231499D01*
X7843900Y-45211497D01*
X7797407Y-45157841D01*
X7787303Y-45087567D01*
X7799064Y-45049672D01*
X7845136Y-44956452D01*
X7847430Y-44951811D01*
X7912370Y-44738069D01*
X7941529Y-44516590D01*
X7941611Y-44513240D01*
X7943074Y-44453365D01*
X7943074Y-44453361D01*
X7943156Y-44450000D01*
X7924852Y-44227361D01*
X7870431Y-44010702D01*
X7781354Y-43805840D01*
X7741906Y-43744862D01*
X7662822Y-43622617D01*
X7662820Y-43622614D01*
X7660014Y-43618277D01*
X7509670Y-43453051D01*
X7505619Y-43449852D01*
X7505615Y-43449848D01*
X7338414Y-43317800D01*
X7338410Y-43317798D01*
X7334359Y-43314598D01*
X7293053Y-43291796D01*
X7243084Y-43241364D01*
X7228312Y-43171921D01*
X7253428Y-43105516D01*
X7280780Y-43078909D01*
X7329207Y-43044366D01*
X7459860Y-42951173D01*
X7491788Y-42919357D01*
X7614435Y-42797137D01*
X7618096Y-42793489D01*
X7649498Y-42749789D01*
X7745435Y-42616277D01*
X7748453Y-42612077D01*
X7768628Y-42571257D01*
X7845136Y-42416453D01*
X7845137Y-42416451D01*
X7847430Y-42411811D01*
X7912370Y-42198069D01*
X7941529Y-41976590D01*
X7941611Y-41973240D01*
X7943074Y-41913365D01*
X7943074Y-41913361D01*
X7943156Y-41910000D01*
X7924852Y-41687361D01*
X7870431Y-41470702D01*
X7781354Y-41265840D01*
X7741906Y-41204862D01*
X7662822Y-41082617D01*
X7662820Y-41082614D01*
X7660014Y-41078277D01*
X7509670Y-40913051D01*
X7505619Y-40909852D01*
X7505615Y-40909848D01*
X7338414Y-40777800D01*
X7338410Y-40777798D01*
X7334359Y-40774598D01*
X7293053Y-40751796D01*
X7243084Y-40701364D01*
X7228312Y-40631921D01*
X7253428Y-40565516D01*
X7280780Y-40538909D01*
X7324603Y-40507650D01*
X7459860Y-40411173D01*
X7618096Y-40253489D01*
X7677594Y-40170689D01*
X7745435Y-40076277D01*
X7748453Y-40072077D01*
X7769320Y-40029857D01*
X7845136Y-39876453D01*
X7845137Y-39876451D01*
X7847430Y-39871811D01*
X7912370Y-39658069D01*
X7941529Y-39436590D01*
X7941611Y-39433240D01*
X7943074Y-39373365D01*
X7943074Y-39373361D01*
X7943156Y-39370000D01*
X7924852Y-39147361D01*
X7870431Y-38930702D01*
X7781354Y-38725840D01*
X7741906Y-38664862D01*
X7662822Y-38542617D01*
X7662820Y-38542614D01*
X7660014Y-38538277D01*
X7509670Y-38373051D01*
X7505619Y-38369852D01*
X7505615Y-38369848D01*
X7338414Y-38237800D01*
X7338410Y-38237798D01*
X7334359Y-38234598D01*
X7293053Y-38211796D01*
X7243084Y-38161364D01*
X7228312Y-38091921D01*
X7253428Y-38025516D01*
X7280780Y-37998909D01*
X7324603Y-37967650D01*
X7459860Y-37871173D01*
X7472614Y-37858464D01*
X7614435Y-37717137D01*
X7618096Y-37713489D01*
X7645676Y-37675108D01*
X7745435Y-37536277D01*
X7748453Y-37532077D01*
X7769320Y-37489857D01*
X7845136Y-37336453D01*
X7845137Y-37336451D01*
X7847430Y-37331811D01*
X7912370Y-37118069D01*
X7941529Y-36896590D01*
X7941611Y-36893240D01*
X7943074Y-36833365D01*
X7943074Y-36833361D01*
X7943156Y-36830000D01*
X7924852Y-36607361D01*
X7870431Y-36390702D01*
X7781354Y-36185840D01*
X7741906Y-36124862D01*
X7662822Y-36002617D01*
X7662820Y-36002614D01*
X7660014Y-35998277D01*
X7509670Y-35833051D01*
X7505619Y-35829852D01*
X7505615Y-35829848D01*
X7338414Y-35697800D01*
X7338410Y-35697798D01*
X7334359Y-35694598D01*
X7293053Y-35671796D01*
X7243084Y-35621364D01*
X7228312Y-35551921D01*
X7253428Y-35485516D01*
X7280780Y-35458909D01*
X7333225Y-35421500D01*
X7459860Y-35331173D01*
X7472594Y-35318484D01*
X7614435Y-35177137D01*
X7618096Y-35173489D01*
X7677594Y-35090689D01*
X7745435Y-34996277D01*
X7748453Y-34992077D01*
X7769320Y-34949857D01*
X7845136Y-34796453D01*
X7845137Y-34796451D01*
X7847430Y-34791811D01*
X7912370Y-34578069D01*
X7941529Y-34356590D01*
X7941611Y-34353240D01*
X7943074Y-34293365D01*
X7943074Y-34293361D01*
X7943156Y-34290000D01*
X7924852Y-34067361D01*
X7870431Y-33850702D01*
X7781354Y-33645840D01*
X7741906Y-33584862D01*
X7662822Y-33462617D01*
X7662820Y-33462614D01*
X7660014Y-33458277D01*
X7509670Y-33293051D01*
X7505619Y-33289852D01*
X7505615Y-33289848D01*
X7338414Y-33157800D01*
X7338410Y-33157798D01*
X7334359Y-33154598D01*
X7293053Y-33131796D01*
X7243084Y-33081364D01*
X7228312Y-33011921D01*
X7253428Y-32945516D01*
X7280780Y-32918909D01*
X7324603Y-32887650D01*
X7459860Y-32791173D01*
X7472594Y-32778484D01*
X7541209Y-32710107D01*
X7618096Y-32633489D01*
X7677594Y-32550689D01*
X7745435Y-32456277D01*
X7748453Y-32452077D01*
X7769320Y-32409857D01*
X7845136Y-32256453D01*
X7845137Y-32256451D01*
X7847430Y-32251811D01*
X7912370Y-32038069D01*
X7941529Y-31816590D01*
X7941744Y-31807794D01*
X7943074Y-31753365D01*
X7943074Y-31753361D01*
X7943156Y-31750000D01*
X7924852Y-31527361D01*
X7870431Y-31310702D01*
X7781354Y-31105840D01*
X7700873Y-30981435D01*
X7662822Y-30922617D01*
X7662820Y-30922614D01*
X7660014Y-30918277D01*
X7509670Y-30753051D01*
X7505619Y-30749852D01*
X7505615Y-30749848D01*
X7338414Y-30617800D01*
X7338410Y-30617798D01*
X7334359Y-30614598D01*
X7293053Y-30591796D01*
X7243084Y-30541364D01*
X7228312Y-30471921D01*
X7253428Y-30405516D01*
X7280780Y-30378909D01*
X7339154Y-30337271D01*
X7459860Y-30251173D01*
X7472594Y-30238484D01*
X7587796Y-30123683D01*
X7618096Y-30093489D01*
X7641164Y-30061387D01*
X7745435Y-29916277D01*
X7748453Y-29912077D01*
X7762246Y-29884170D01*
X7845136Y-29716453D01*
X7845137Y-29716451D01*
X7847430Y-29711811D01*
X7912370Y-29498069D01*
X7941529Y-29276590D01*
X7942109Y-29252868D01*
X7942676Y-29229654D01*
X7964336Y-29162042D01*
X8019111Y-29116874D01*
X8089611Y-29108490D01*
X8157733Y-29143637D01*
X19877808Y-40863712D01*
X19910420Y-40920196D01*
X19953941Y-41082617D01*
X19955716Y-41089243D01*
X19958039Y-41094224D01*
X19958039Y-41094225D01*
X20050151Y-41291762D01*
X20050154Y-41291767D01*
X20052477Y-41296749D01*
X20055634Y-41301257D01*
X20174281Y-41470702D01*
X20183802Y-41484300D01*
X20345700Y-41646198D01*
X20350208Y-41649355D01*
X20350211Y-41649357D01*
X20396706Y-41681913D01*
X20533251Y-41777523D01*
X20538233Y-41779846D01*
X20538238Y-41779849D01*
X20572457Y-41795805D01*
X20625742Y-41842722D01*
X20645203Y-41910999D01*
X20624661Y-41978959D01*
X20572457Y-42024195D01*
X20538238Y-42040151D01*
X20538233Y-42040154D01*
X20533251Y-42042477D01*
X20458888Y-42094547D01*
X20350211Y-42170643D01*
X20350208Y-42170645D01*
X20345700Y-42173802D01*
X20183802Y-42335700D01*
X20180645Y-42340208D01*
X20180643Y-42340211D01*
X20140403Y-42397680D01*
X20052477Y-42523251D01*
X20050154Y-42528233D01*
X20050151Y-42528238D01*
X19961203Y-42718990D01*
X19955716Y-42730757D01*
X19954294Y-42736065D01*
X19954293Y-42736067D01*
X19948363Y-42758197D01*
X19896457Y-42951913D01*
X19876502Y-43180000D01*
X19896457Y-43408087D01*
X19897881Y-43413400D01*
X19897881Y-43413402D01*
X19953941Y-43622617D01*
X19955716Y-43629243D01*
X19958039Y-43634224D01*
X19958039Y-43634225D01*
X20050151Y-43831762D01*
X20050154Y-43831767D01*
X20052477Y-43836749D01*
X20055634Y-43841257D01*
X20174281Y-44010702D01*
X20183802Y-44024300D01*
X20345700Y-44186198D01*
X20350208Y-44189355D01*
X20350211Y-44189357D01*
X20391542Y-44218297D01*
X20533251Y-44317523D01*
X20538233Y-44319846D01*
X20538238Y-44319849D01*
X20735775Y-44411961D01*
X20740757Y-44414284D01*
X20746065Y-44415706D01*
X20746067Y-44415707D01*
X20956598Y-44472119D01*
X20956600Y-44472119D01*
X20961913Y-44473543D01*
X21055663Y-44481745D01*
X21130149Y-44488262D01*
X21130156Y-44488262D01*
X21132873Y-44488500D01*
X22047127Y-44488500D01*
X22049844Y-44488262D01*
X22049851Y-44488262D01*
X22124337Y-44481745D01*
X22218087Y-44473543D01*
X22223400Y-44472119D01*
X22223402Y-44472119D01*
X22433933Y-44415707D01*
X22433935Y-44415706D01*
X22439243Y-44414284D01*
X22444225Y-44411961D01*
X22641762Y-44319849D01*
X22641767Y-44319846D01*
X22646749Y-44317523D01*
X22788458Y-44218297D01*
X22829789Y-44189357D01*
X22829792Y-44189355D01*
X22834300Y-44186198D01*
X22996198Y-44024300D01*
X23005720Y-44010702D01*
X23124366Y-43841257D01*
X23127523Y-43836749D01*
X23129846Y-43831767D01*
X23129849Y-43831762D01*
X23221961Y-43634225D01*
X23221961Y-43634224D01*
X23224284Y-43629243D01*
X23226060Y-43622617D01*
X23282119Y-43413402D01*
X23282119Y-43413400D01*
X23283543Y-43408087D01*
X23303498Y-43180000D01*
X23283543Y-42951913D01*
X23231637Y-42758197D01*
X23225707Y-42736067D01*
X23225706Y-42736065D01*
X23224284Y-42730757D01*
X23218797Y-42718990D01*
X23129849Y-42528238D01*
X23129846Y-42528233D01*
X23127523Y-42523251D01*
X23039597Y-42397680D01*
X22999357Y-42340211D01*
X22999355Y-42340208D01*
X22996198Y-42335700D01*
X22834300Y-42173802D01*
X22829792Y-42170645D01*
X22829789Y-42170643D01*
X22721112Y-42094547D01*
X22646749Y-42042477D01*
X22641767Y-42040154D01*
X22641762Y-42040151D01*
X22607543Y-42024195D01*
X22554258Y-41977278D01*
X22534797Y-41909001D01*
X22555339Y-41841041D01*
X22607543Y-41795805D01*
X22641762Y-41779849D01*
X22641767Y-41779846D01*
X22646749Y-41777523D01*
X22783294Y-41681913D01*
X22829789Y-41649357D01*
X22829792Y-41649355D01*
X22834300Y-41646198D01*
X22996198Y-41484300D01*
X23005720Y-41470702D01*
X23124366Y-41301257D01*
X23127523Y-41296749D01*
X23129846Y-41291767D01*
X23129849Y-41291762D01*
X23221961Y-41094225D01*
X23221961Y-41094224D01*
X23224284Y-41089243D01*
X23226060Y-41082617D01*
X23282119Y-40873402D01*
X23282119Y-40873400D01*
X23283543Y-40868087D01*
X23303498Y-40640000D01*
X27496502Y-40640000D01*
X27516457Y-40868087D01*
X27517881Y-40873400D01*
X27517881Y-40873402D01*
X27573941Y-41082617D01*
X27575716Y-41089243D01*
X27578039Y-41094224D01*
X27578039Y-41094225D01*
X27670151Y-41291762D01*
X27670154Y-41291767D01*
X27672477Y-41296749D01*
X27675634Y-41301257D01*
X27794281Y-41470702D01*
X27803802Y-41484300D01*
X27965700Y-41646198D01*
X27970211Y-41649357D01*
X27974424Y-41652892D01*
X27973473Y-41654026D01*
X28013471Y-41704071D01*
X28020776Y-41774690D01*
X27988742Y-41838049D01*
X27927538Y-41874030D01*
X27910483Y-41877082D01*
X27899684Y-41878255D01*
X27763295Y-41929385D01*
X27646739Y-42016739D01*
X27559385Y-42133295D01*
X27508255Y-42269684D01*
X27501500Y-42331866D01*
X27501500Y-44028134D01*
X27508255Y-44090316D01*
X27559385Y-44226705D01*
X27646739Y-44343261D01*
X27763295Y-44430615D01*
X27899684Y-44481745D01*
X27961866Y-44488500D01*
X30458134Y-44488500D01*
X30520316Y-44481745D01*
X30656705Y-44430615D01*
X30773261Y-44343261D01*
X30860615Y-44226705D01*
X30911745Y-44090316D01*
X30918500Y-44028134D01*
X30918500Y-42331866D01*
X30911745Y-42269684D01*
X30860615Y-42133295D01*
X30773261Y-42016739D01*
X30656705Y-41929385D01*
X30520316Y-41878255D01*
X30509526Y-41877083D01*
X30507394Y-41876197D01*
X30504778Y-41875575D01*
X30504879Y-41875152D01*
X30443965Y-41849845D01*
X30403537Y-41791483D01*
X30401078Y-41720529D01*
X30437371Y-41659510D01*
X30446031Y-41652511D01*
X30449793Y-41649354D01*
X30454300Y-41646198D01*
X30616198Y-41484300D01*
X30625720Y-41470702D01*
X30744366Y-41301257D01*
X30747523Y-41296749D01*
X30749846Y-41291767D01*
X30749849Y-41291762D01*
X30841961Y-41094225D01*
X30841961Y-41094224D01*
X30844284Y-41089243D01*
X30846060Y-41082617D01*
X30902119Y-40873402D01*
X30902119Y-40873400D01*
X30903543Y-40868087D01*
X30923498Y-40640000D01*
X30903543Y-40411913D01*
X30844284Y-40190757D01*
X30838797Y-40178990D01*
X30749849Y-39988238D01*
X30749846Y-39988233D01*
X30747523Y-39983251D01*
X30616198Y-39795700D01*
X30454300Y-39633802D01*
X30449792Y-39630645D01*
X30449789Y-39630643D01*
X30312404Y-39534445D01*
X30266749Y-39502477D01*
X30261767Y-39500154D01*
X30261762Y-39500151D01*
X30227543Y-39484195D01*
X30174258Y-39437278D01*
X30154797Y-39369001D01*
X30175339Y-39301041D01*
X30227543Y-39255805D01*
X30261762Y-39239849D01*
X30261767Y-39239846D01*
X30266749Y-39237523D01*
X30402681Y-39142342D01*
X30449789Y-39109357D01*
X30449792Y-39109355D01*
X30454300Y-39106198D01*
X30616198Y-38944300D01*
X30625720Y-38930702D01*
X30744366Y-38761257D01*
X30747523Y-38756749D01*
X30749846Y-38751767D01*
X30749849Y-38751762D01*
X30841961Y-38554225D01*
X30841961Y-38554224D01*
X30844284Y-38549243D01*
X30846060Y-38542617D01*
X30902119Y-38333402D01*
X30902119Y-38333400D01*
X30903543Y-38328087D01*
X30923498Y-38100000D01*
X30903543Y-37871913D01*
X30897059Y-37847715D01*
X30845707Y-37656067D01*
X30845706Y-37656065D01*
X30844284Y-37650757D01*
X30838797Y-37638990D01*
X30749849Y-37448238D01*
X30749846Y-37448233D01*
X30747523Y-37443251D01*
X30616198Y-37255700D01*
X30454300Y-37093802D01*
X30449792Y-37090645D01*
X30449789Y-37090643D01*
X30341112Y-37014547D01*
X30266749Y-36962477D01*
X30261767Y-36960154D01*
X30261762Y-36960151D01*
X30227543Y-36944195D01*
X30174258Y-36897278D01*
X30154797Y-36829001D01*
X30175339Y-36761041D01*
X30227543Y-36715805D01*
X30261762Y-36699849D01*
X30261767Y-36699846D01*
X30266749Y-36697523D01*
X30414372Y-36594156D01*
X30449789Y-36569357D01*
X30449792Y-36569355D01*
X30454300Y-36566198D01*
X30616198Y-36404300D01*
X30625720Y-36390702D01*
X30744366Y-36221257D01*
X30747523Y-36216749D01*
X30749846Y-36211767D01*
X30749849Y-36211762D01*
X30841961Y-36014225D01*
X30841961Y-36014224D01*
X30844284Y-36009243D01*
X30846060Y-36002617D01*
X30902119Y-35793402D01*
X30902119Y-35793400D01*
X30903543Y-35788087D01*
X30923498Y-35560000D01*
X30903543Y-35331913D01*
X30884282Y-35260031D01*
X30845707Y-35116067D01*
X30845706Y-35116064D01*
X30844284Y-35110757D01*
X30838797Y-35098990D01*
X30749849Y-34908238D01*
X30749846Y-34908233D01*
X30747523Y-34903251D01*
X30616198Y-34715700D01*
X30454300Y-34553802D01*
X30449792Y-34550645D01*
X30449789Y-34550643D01*
X30341112Y-34474547D01*
X30266749Y-34422477D01*
X30261767Y-34420154D01*
X30261762Y-34420151D01*
X30227543Y-34404195D01*
X30174258Y-34357278D01*
X30154797Y-34289001D01*
X30175339Y-34221041D01*
X30227543Y-34175805D01*
X30261762Y-34159849D01*
X30261767Y-34159846D01*
X30266749Y-34157523D01*
X30402681Y-34062342D01*
X30449789Y-34029357D01*
X30449792Y-34029355D01*
X30454300Y-34026198D01*
X30616198Y-33864300D01*
X30625720Y-33850702D01*
X30744366Y-33681257D01*
X30747523Y-33676749D01*
X30749846Y-33671767D01*
X30749849Y-33671762D01*
X30841961Y-33474225D01*
X30841961Y-33474224D01*
X30844284Y-33469243D01*
X30846060Y-33462617D01*
X30902119Y-33253402D01*
X30902119Y-33253400D01*
X30903543Y-33248087D01*
X30923498Y-33020000D01*
X30903543Y-32791913D01*
X30859969Y-32629292D01*
X30845707Y-32576067D01*
X30845706Y-32576065D01*
X30844284Y-32570757D01*
X30838797Y-32558990D01*
X30749849Y-32368238D01*
X30749846Y-32368233D01*
X30747523Y-32363251D01*
X30659597Y-32237680D01*
X30619357Y-32180211D01*
X30619355Y-32180208D01*
X30616198Y-32175700D01*
X30454300Y-32013802D01*
X30449792Y-32010645D01*
X30449789Y-32010643D01*
X30341112Y-31934547D01*
X30266749Y-31882477D01*
X30261767Y-31880154D01*
X30261762Y-31880151D01*
X30227543Y-31864195D01*
X30174258Y-31817278D01*
X30154797Y-31749001D01*
X30175339Y-31681041D01*
X30227543Y-31635805D01*
X30261762Y-31619849D01*
X30261767Y-31619846D01*
X30266749Y-31617523D01*
X30407131Y-31519226D01*
X30449789Y-31489357D01*
X30449792Y-31489355D01*
X30454300Y-31486198D01*
X30616198Y-31324300D01*
X30625720Y-31310702D01*
X30718689Y-31177928D01*
X30747523Y-31136749D01*
X30749846Y-31131767D01*
X30749849Y-31131762D01*
X30841961Y-30934225D01*
X30841961Y-30934224D01*
X30844284Y-30929243D01*
X30846060Y-30922617D01*
X30902119Y-30713402D01*
X30902119Y-30713400D01*
X30903543Y-30708087D01*
X30923498Y-30480000D01*
X30903543Y-30251913D01*
X30889837Y-30200763D01*
X30845707Y-30036067D01*
X30845706Y-30036065D01*
X30844284Y-30030757D01*
X30838450Y-30018246D01*
X30749849Y-29828238D01*
X30749846Y-29828233D01*
X30747523Y-29823251D01*
X30653869Y-29689499D01*
X30619357Y-29640211D01*
X30619355Y-29640208D01*
X30616198Y-29635700D01*
X30454300Y-29473802D01*
X30449792Y-29470645D01*
X30449789Y-29470643D01*
X30341112Y-29394547D01*
X30266749Y-29342477D01*
X30261767Y-29340154D01*
X30261762Y-29340151D01*
X30227543Y-29324195D01*
X30174258Y-29277278D01*
X30154797Y-29209001D01*
X30175339Y-29141041D01*
X30227543Y-29095805D01*
X30261762Y-29079849D01*
X30261767Y-29079846D01*
X30266749Y-29077523D01*
X30430926Y-28962565D01*
X30449789Y-28949357D01*
X30449792Y-28949355D01*
X30454300Y-28946198D01*
X30616198Y-28784300D01*
X30628962Y-28766072D01*
X30744366Y-28601257D01*
X30747523Y-28596749D01*
X30749846Y-28591767D01*
X30749849Y-28591762D01*
X30841961Y-28394225D01*
X30841961Y-28394224D01*
X30844284Y-28389243D01*
X30846060Y-28382617D01*
X30902119Y-28173402D01*
X30902119Y-28173400D01*
X30903543Y-28168087D01*
X30923498Y-27940000D01*
X30903543Y-27711913D01*
X30902119Y-27706598D01*
X30845707Y-27496067D01*
X30845706Y-27496065D01*
X30844284Y-27490757D01*
X30838797Y-27478990D01*
X30749849Y-27288238D01*
X30749846Y-27288233D01*
X30747523Y-27283251D01*
X30653437Y-27148882D01*
X30619357Y-27100211D01*
X30619355Y-27100208D01*
X30616198Y-27095700D01*
X30454300Y-26933802D01*
X30449792Y-26930645D01*
X30449789Y-26930643D01*
X30314867Y-26836170D01*
X30266749Y-26802477D01*
X30261767Y-26800154D01*
X30261762Y-26800151D01*
X30227543Y-26784195D01*
X30174258Y-26737278D01*
X30154797Y-26669001D01*
X30175339Y-26601041D01*
X30227543Y-26555805D01*
X30261762Y-26539849D01*
X30261767Y-26539846D01*
X30266749Y-26537523D01*
X30404259Y-26441237D01*
X30449789Y-26409357D01*
X30449792Y-26409355D01*
X30454300Y-26406198D01*
X30616198Y-26244300D01*
X30624083Y-26233040D01*
X30700827Y-26123438D01*
X30747523Y-26056749D01*
X30749846Y-26051767D01*
X30749849Y-26051762D01*
X30841961Y-25854225D01*
X30841961Y-25854224D01*
X30844284Y-25849243D01*
X30846060Y-25842617D01*
X30902119Y-25633402D01*
X30902119Y-25633400D01*
X30903543Y-25628087D01*
X30923498Y-25400000D01*
X30903543Y-25171913D01*
X30899945Y-25158484D01*
X30845707Y-24956067D01*
X30845706Y-24956064D01*
X30844284Y-24950757D01*
X30838797Y-24938990D01*
X30749849Y-24748238D01*
X30749846Y-24748233D01*
X30747523Y-24743251D01*
X30653437Y-24608882D01*
X30619357Y-24560211D01*
X30619355Y-24560208D01*
X30616198Y-24555700D01*
X30454300Y-24393802D01*
X30449792Y-24390645D01*
X30449789Y-24390643D01*
X30341112Y-24314547D01*
X30266749Y-24262477D01*
X30261767Y-24260154D01*
X30261762Y-24260151D01*
X30227543Y-24244195D01*
X30174258Y-24197278D01*
X30154797Y-24129001D01*
X30175339Y-24061041D01*
X30227543Y-24015805D01*
X30261762Y-23999849D01*
X30261767Y-23999846D01*
X30266749Y-23997523D01*
X30402681Y-23902342D01*
X30449789Y-23869357D01*
X30449792Y-23869355D01*
X30454300Y-23866198D01*
X30616198Y-23704300D01*
X30644209Y-23664297D01*
X30744366Y-23521257D01*
X30747523Y-23516749D01*
X30749846Y-23511767D01*
X30749849Y-23511762D01*
X30841961Y-23314225D01*
X30841961Y-23314224D01*
X30844284Y-23309243D01*
X30846060Y-23302617D01*
X30902119Y-23093402D01*
X30902119Y-23093400D01*
X30903543Y-23088087D01*
X30923498Y-22860000D01*
X30903543Y-22631913D01*
X30899945Y-22618484D01*
X30845707Y-22416067D01*
X30845706Y-22416065D01*
X30844284Y-22410757D01*
X30838797Y-22398990D01*
X30749849Y-22208238D01*
X30749846Y-22208233D01*
X30747523Y-22203251D01*
X30653437Y-22068882D01*
X30619357Y-22020211D01*
X30619355Y-22020208D01*
X30616198Y-22015700D01*
X30454300Y-21853802D01*
X30449792Y-21850645D01*
X30449789Y-21850643D01*
X30341112Y-21774547D01*
X30266749Y-21722477D01*
X30261767Y-21720154D01*
X30261762Y-21720151D01*
X30064225Y-21628039D01*
X30064224Y-21628039D01*
X30059243Y-21625716D01*
X30053935Y-21624294D01*
X30053933Y-21624293D01*
X29843402Y-21567881D01*
X29843400Y-21567881D01*
X29838087Y-21566457D01*
X29738520Y-21557746D01*
X29669851Y-21551738D01*
X29669844Y-21551738D01*
X29667127Y-21551500D01*
X28752873Y-21551500D01*
X28750156Y-21551738D01*
X28750149Y-21551738D01*
X28681480Y-21557746D01*
X28581913Y-21566457D01*
X28576600Y-21567881D01*
X28576598Y-21567881D01*
X28366067Y-21624293D01*
X28366065Y-21624294D01*
X28360757Y-21625716D01*
X28355776Y-21628039D01*
X28355775Y-21628039D01*
X28158238Y-21720151D01*
X28158233Y-21720154D01*
X28153251Y-21722477D01*
X28078888Y-21774547D01*
X27970211Y-21850643D01*
X27970208Y-21850645D01*
X27965700Y-21853802D01*
X27803802Y-22015700D01*
X27800645Y-22020208D01*
X27800643Y-22020211D01*
X27766563Y-22068882D01*
X27672477Y-22203251D01*
X27670154Y-22208233D01*
X27670151Y-22208238D01*
X27581203Y-22398990D01*
X27575716Y-22410757D01*
X27574294Y-22416065D01*
X27574293Y-22416067D01*
X27520055Y-22618484D01*
X27516457Y-22631913D01*
X27496502Y-22860000D01*
X27516457Y-23088087D01*
X27517881Y-23093400D01*
X27517881Y-23093402D01*
X27573941Y-23302617D01*
X27575716Y-23309243D01*
X27578039Y-23314224D01*
X27578039Y-23314225D01*
X27670151Y-23511762D01*
X27670154Y-23511767D01*
X27672477Y-23516749D01*
X27675634Y-23521257D01*
X27775792Y-23664297D01*
X27803802Y-23704300D01*
X27965700Y-23866198D01*
X27970208Y-23869355D01*
X27970211Y-23869357D01*
X28017319Y-23902342D01*
X28153251Y-23997523D01*
X28158233Y-23999846D01*
X28158238Y-23999849D01*
X28192457Y-24015805D01*
X28245742Y-24062722D01*
X28265203Y-24130999D01*
X28244661Y-24198959D01*
X28192457Y-24244195D01*
X28158238Y-24260151D01*
X28158233Y-24260154D01*
X28153251Y-24262477D01*
X28078888Y-24314547D01*
X27970211Y-24390643D01*
X27970208Y-24390645D01*
X27965700Y-24393802D01*
X27803802Y-24555700D01*
X27800645Y-24560208D01*
X27800643Y-24560211D01*
X27766563Y-24608882D01*
X27672477Y-24743251D01*
X27670154Y-24748233D01*
X27670151Y-24748238D01*
X27581203Y-24938990D01*
X27575716Y-24950757D01*
X27574294Y-24956064D01*
X27574293Y-24956067D01*
X27520055Y-25158484D01*
X27516457Y-25171913D01*
X27496502Y-25400000D01*
X27516457Y-25628087D01*
X27517881Y-25633400D01*
X27517881Y-25633402D01*
X27573941Y-25842617D01*
X27575716Y-25849243D01*
X27578039Y-25854224D01*
X27578039Y-25854225D01*
X27670151Y-26051762D01*
X27670154Y-26051767D01*
X27672477Y-26056749D01*
X27719173Y-26123438D01*
X27795918Y-26233040D01*
X27803802Y-26244300D01*
X27965700Y-26406198D01*
X27970208Y-26409355D01*
X27970211Y-26409357D01*
X28015741Y-26441237D01*
X28153251Y-26537523D01*
X28158233Y-26539846D01*
X28158238Y-26539849D01*
X28192457Y-26555805D01*
X28245742Y-26602722D01*
X28265203Y-26670999D01*
X28244661Y-26738959D01*
X28192457Y-26784195D01*
X28158238Y-26800151D01*
X28158233Y-26800154D01*
X28153251Y-26802477D01*
X28105133Y-26836170D01*
X27970211Y-26930643D01*
X27970208Y-26930645D01*
X27965700Y-26933802D01*
X27803802Y-27095700D01*
X27800645Y-27100208D01*
X27800643Y-27100211D01*
X27766563Y-27148882D01*
X27672477Y-27283251D01*
X27670154Y-27288233D01*
X27670151Y-27288238D01*
X27581203Y-27478990D01*
X27575716Y-27490757D01*
X27574294Y-27496065D01*
X27574293Y-27496067D01*
X27517881Y-27706598D01*
X27516457Y-27711913D01*
X27496502Y-27940000D01*
X27516457Y-28168087D01*
X27517881Y-28173400D01*
X27517881Y-28173402D01*
X27573941Y-28382617D01*
X27575716Y-28389243D01*
X27578039Y-28394224D01*
X27578039Y-28394225D01*
X27670151Y-28591762D01*
X27670154Y-28591767D01*
X27672477Y-28596749D01*
X27675634Y-28601257D01*
X27791039Y-28766072D01*
X27803802Y-28784300D01*
X27965700Y-28946198D01*
X27970208Y-28949355D01*
X27970211Y-28949357D01*
X27989074Y-28962565D01*
X28153251Y-29077523D01*
X28158233Y-29079846D01*
X28158238Y-29079849D01*
X28192457Y-29095805D01*
X28245742Y-29142722D01*
X28265203Y-29210999D01*
X28244661Y-29278959D01*
X28192457Y-29324195D01*
X28158238Y-29340151D01*
X28158233Y-29340154D01*
X28153251Y-29342477D01*
X28078888Y-29394547D01*
X27970211Y-29470643D01*
X27970208Y-29470645D01*
X27965700Y-29473802D01*
X27803802Y-29635700D01*
X27800645Y-29640208D01*
X27800643Y-29640211D01*
X27766131Y-29689499D01*
X27672477Y-29823251D01*
X27670154Y-29828233D01*
X27670151Y-29828238D01*
X27581550Y-30018246D01*
X27575716Y-30030757D01*
X27574294Y-30036065D01*
X27574293Y-30036067D01*
X27530163Y-30200763D01*
X27516457Y-30251913D01*
X27496502Y-30480000D01*
X27516457Y-30708087D01*
X27517881Y-30713400D01*
X27517881Y-30713402D01*
X27573941Y-30922617D01*
X27575716Y-30929243D01*
X27578039Y-30934224D01*
X27578039Y-30934225D01*
X27670151Y-31131762D01*
X27670154Y-31131767D01*
X27672477Y-31136749D01*
X27701311Y-31177928D01*
X27794281Y-31310702D01*
X27803802Y-31324300D01*
X27965700Y-31486198D01*
X27970208Y-31489355D01*
X27970211Y-31489357D01*
X28012869Y-31519226D01*
X28153251Y-31617523D01*
X28158233Y-31619846D01*
X28158238Y-31619849D01*
X28192457Y-31635805D01*
X28245742Y-31682722D01*
X28265203Y-31750999D01*
X28244661Y-31818959D01*
X28192457Y-31864195D01*
X28158238Y-31880151D01*
X28158233Y-31880154D01*
X28153251Y-31882477D01*
X28078888Y-31934547D01*
X27970211Y-32010643D01*
X27970208Y-32010645D01*
X27965700Y-32013802D01*
X27803802Y-32175700D01*
X27800645Y-32180208D01*
X27800643Y-32180211D01*
X27760403Y-32237680D01*
X27672477Y-32363251D01*
X27670154Y-32368233D01*
X27670151Y-32368238D01*
X27581203Y-32558990D01*
X27575716Y-32570757D01*
X27574294Y-32576065D01*
X27574293Y-32576067D01*
X27560031Y-32629292D01*
X27516457Y-32791913D01*
X27496502Y-33020000D01*
X27516457Y-33248087D01*
X27517881Y-33253400D01*
X27517881Y-33253402D01*
X27573941Y-33462617D01*
X27575716Y-33469243D01*
X27578039Y-33474224D01*
X27578039Y-33474225D01*
X27670151Y-33671762D01*
X27670154Y-33671767D01*
X27672477Y-33676749D01*
X27675634Y-33681257D01*
X27794281Y-33850702D01*
X27803802Y-33864300D01*
X27965700Y-34026198D01*
X27970208Y-34029355D01*
X27970211Y-34029357D01*
X28017319Y-34062342D01*
X28153251Y-34157523D01*
X28158233Y-34159846D01*
X28158238Y-34159849D01*
X28192457Y-34175805D01*
X28245742Y-34222722D01*
X28265203Y-34290999D01*
X28244661Y-34358959D01*
X28192457Y-34404195D01*
X28158238Y-34420151D01*
X28158233Y-34420154D01*
X28153251Y-34422477D01*
X28078888Y-34474547D01*
X27970211Y-34550643D01*
X27970208Y-34550645D01*
X27965700Y-34553802D01*
X27803802Y-34715700D01*
X27672477Y-34903251D01*
X27670154Y-34908233D01*
X27670151Y-34908238D01*
X27581203Y-35098990D01*
X27575716Y-35110757D01*
X27574294Y-35116064D01*
X27574293Y-35116067D01*
X27535718Y-35260031D01*
X27516457Y-35331913D01*
X27496502Y-35560000D01*
X27516457Y-35788087D01*
X27517881Y-35793400D01*
X27517881Y-35793402D01*
X27573941Y-36002617D01*
X27575716Y-36009243D01*
X27578039Y-36014224D01*
X27578039Y-36014225D01*
X27670151Y-36211762D01*
X27670154Y-36211767D01*
X27672477Y-36216749D01*
X27675634Y-36221257D01*
X27794281Y-36390702D01*
X27803802Y-36404300D01*
X27965700Y-36566198D01*
X27970208Y-36569355D01*
X27970211Y-36569357D01*
X28005628Y-36594156D01*
X28153251Y-36697523D01*
X28158233Y-36699846D01*
X28158238Y-36699849D01*
X28192457Y-36715805D01*
X28245742Y-36762722D01*
X28265203Y-36830999D01*
X28244661Y-36898959D01*
X28192457Y-36944195D01*
X28158238Y-36960151D01*
X28158233Y-36960154D01*
X28153251Y-36962477D01*
X28078888Y-37014547D01*
X27970211Y-37090643D01*
X27970208Y-37090645D01*
X27965700Y-37093802D01*
X27803802Y-37255700D01*
X27672477Y-37443251D01*
X27670154Y-37448233D01*
X27670151Y-37448238D01*
X27581203Y-37638990D01*
X27575716Y-37650757D01*
X27574294Y-37656065D01*
X27574293Y-37656067D01*
X27522941Y-37847715D01*
X27516457Y-37871913D01*
X27496502Y-38100000D01*
X27516457Y-38328087D01*
X27517881Y-38333400D01*
X27517881Y-38333402D01*
X27573941Y-38542617D01*
X27575716Y-38549243D01*
X27578039Y-38554224D01*
X27578039Y-38554225D01*
X27670151Y-38751762D01*
X27670154Y-38751767D01*
X27672477Y-38756749D01*
X27675634Y-38761257D01*
X27794281Y-38930702D01*
X27803802Y-38944300D01*
X27965700Y-39106198D01*
X27970208Y-39109355D01*
X27970211Y-39109357D01*
X28017319Y-39142342D01*
X28153251Y-39237523D01*
X28158233Y-39239846D01*
X28158238Y-39239849D01*
X28192457Y-39255805D01*
X28245742Y-39302722D01*
X28265203Y-39370999D01*
X28244661Y-39438959D01*
X28192457Y-39484195D01*
X28158238Y-39500151D01*
X28158233Y-39500154D01*
X28153251Y-39502477D01*
X28107596Y-39534445D01*
X27970211Y-39630643D01*
X27970208Y-39630645D01*
X27965700Y-39633802D01*
X27803802Y-39795700D01*
X27672477Y-39983251D01*
X27670154Y-39988233D01*
X27670151Y-39988238D01*
X27581203Y-40178990D01*
X27575716Y-40190757D01*
X27516457Y-40411913D01*
X27496502Y-40640000D01*
X23303498Y-40640000D01*
X23283543Y-40411913D01*
X23224284Y-40190757D01*
X23218797Y-40178990D01*
X23129849Y-39988238D01*
X23129846Y-39988233D01*
X23127523Y-39983251D01*
X22996198Y-39795700D01*
X22834300Y-39633802D01*
X22829792Y-39630645D01*
X22829789Y-39630643D01*
X22692404Y-39534445D01*
X22646749Y-39502477D01*
X22641767Y-39500154D01*
X22641762Y-39500151D01*
X22607543Y-39484195D01*
X22554258Y-39437278D01*
X22534797Y-39369001D01*
X22555339Y-39301041D01*
X22607543Y-39255805D01*
X22641762Y-39239849D01*
X22641767Y-39239846D01*
X22646749Y-39237523D01*
X22782681Y-39142342D01*
X22829789Y-39109357D01*
X22829792Y-39109355D01*
X22834300Y-39106198D01*
X22996198Y-38944300D01*
X23005720Y-38930702D01*
X23124366Y-38761257D01*
X23127523Y-38756749D01*
X23129846Y-38751767D01*
X23129849Y-38751762D01*
X23221961Y-38554225D01*
X23221961Y-38554224D01*
X23224284Y-38549243D01*
X23226060Y-38542617D01*
X23282119Y-38333402D01*
X23282119Y-38333400D01*
X23283543Y-38328087D01*
X23303498Y-38100000D01*
X23283543Y-37871913D01*
X23277059Y-37847715D01*
X23225707Y-37656067D01*
X23225706Y-37656065D01*
X23224284Y-37650757D01*
X23218797Y-37638990D01*
X23129849Y-37448238D01*
X23129846Y-37448233D01*
X23127523Y-37443251D01*
X22996198Y-37255700D01*
X22834300Y-37093802D01*
X22829792Y-37090645D01*
X22829789Y-37090643D01*
X22721112Y-37014547D01*
X22646749Y-36962477D01*
X22641767Y-36960154D01*
X22641762Y-36960151D01*
X22607543Y-36944195D01*
X22554258Y-36897278D01*
X22534797Y-36829001D01*
X22555339Y-36761041D01*
X22607543Y-36715805D01*
X22641762Y-36699849D01*
X22641767Y-36699846D01*
X22646749Y-36697523D01*
X22794372Y-36594156D01*
X22829789Y-36569357D01*
X22829792Y-36569355D01*
X22834300Y-36566198D01*
X22996198Y-36404300D01*
X23005720Y-36390702D01*
X23124366Y-36221257D01*
X23127523Y-36216749D01*
X23129846Y-36211767D01*
X23129849Y-36211762D01*
X23221961Y-36014225D01*
X23221961Y-36014224D01*
X23224284Y-36009243D01*
X23226060Y-36002617D01*
X23282119Y-35793402D01*
X23282119Y-35793400D01*
X23283543Y-35788087D01*
X23303498Y-35560000D01*
X23283543Y-35331913D01*
X23264282Y-35260031D01*
X23225707Y-35116067D01*
X23225706Y-35116064D01*
X23224284Y-35110757D01*
X23218797Y-35098990D01*
X23129849Y-34908238D01*
X23129846Y-34908233D01*
X23127523Y-34903251D01*
X22996198Y-34715700D01*
X22834300Y-34553802D01*
X22829792Y-34550645D01*
X22829789Y-34550643D01*
X22721112Y-34474547D01*
X22646749Y-34422477D01*
X22641767Y-34420154D01*
X22641762Y-34420151D01*
X22607543Y-34404195D01*
X22554258Y-34357278D01*
X22534797Y-34289001D01*
X22555339Y-34221041D01*
X22607543Y-34175805D01*
X22641762Y-34159849D01*
X22641767Y-34159846D01*
X22646749Y-34157523D01*
X22782681Y-34062342D01*
X22829789Y-34029357D01*
X22829792Y-34029355D01*
X22834300Y-34026198D01*
X22996198Y-33864300D01*
X23005720Y-33850702D01*
X23124366Y-33681257D01*
X23127523Y-33676749D01*
X23129846Y-33671767D01*
X23129849Y-33671762D01*
X23221961Y-33474225D01*
X23221961Y-33474224D01*
X23224284Y-33469243D01*
X23226060Y-33462617D01*
X23282119Y-33253402D01*
X23282119Y-33253400D01*
X23283543Y-33248087D01*
X23303498Y-33020000D01*
X23283543Y-32791913D01*
X23239969Y-32629292D01*
X23225707Y-32576067D01*
X23225706Y-32576065D01*
X23224284Y-32570757D01*
X23218797Y-32558990D01*
X23129849Y-32368238D01*
X23129846Y-32368233D01*
X23127523Y-32363251D01*
X23039597Y-32237680D01*
X22999357Y-32180211D01*
X22999355Y-32180208D01*
X22996198Y-32175700D01*
X22834300Y-32013802D01*
X22829792Y-32010645D01*
X22829789Y-32010643D01*
X22721112Y-31934547D01*
X22646749Y-31882477D01*
X22641767Y-31880154D01*
X22641762Y-31880151D01*
X22607543Y-31864195D01*
X22554258Y-31817278D01*
X22534797Y-31749001D01*
X22555339Y-31681041D01*
X22607543Y-31635805D01*
X22641762Y-31619849D01*
X22641767Y-31619846D01*
X22646749Y-31617523D01*
X22787131Y-31519226D01*
X22829789Y-31489357D01*
X22829792Y-31489355D01*
X22834300Y-31486198D01*
X22996198Y-31324300D01*
X23005720Y-31310702D01*
X23098689Y-31177928D01*
X23127523Y-31136749D01*
X23129846Y-31131767D01*
X23129849Y-31131762D01*
X23221961Y-30934225D01*
X23221961Y-30934224D01*
X23224284Y-30929243D01*
X23226060Y-30922617D01*
X23282119Y-30713402D01*
X23282119Y-30713400D01*
X23283543Y-30708087D01*
X23303498Y-30480000D01*
X23283543Y-30251913D01*
X23269837Y-30200763D01*
X23225707Y-30036067D01*
X23225706Y-30036065D01*
X23224284Y-30030757D01*
X23218450Y-30018246D01*
X23129849Y-29828238D01*
X23129846Y-29828233D01*
X23127523Y-29823251D01*
X23033869Y-29689499D01*
X22999357Y-29640211D01*
X22999355Y-29640208D01*
X22996198Y-29635700D01*
X22834300Y-29473802D01*
X22829792Y-29470645D01*
X22829789Y-29470643D01*
X22721112Y-29394547D01*
X22646749Y-29342477D01*
X22641767Y-29340154D01*
X22641762Y-29340151D01*
X22607543Y-29324195D01*
X22554258Y-29277278D01*
X22534797Y-29209001D01*
X22555339Y-29141041D01*
X22607543Y-29095805D01*
X22641762Y-29079849D01*
X22641767Y-29079846D01*
X22646749Y-29077523D01*
X22810926Y-28962565D01*
X22829789Y-28949357D01*
X22829792Y-28949355D01*
X22834300Y-28946198D01*
X22996198Y-28784300D01*
X23008962Y-28766072D01*
X23124366Y-28601257D01*
X23127523Y-28596749D01*
X23129846Y-28591767D01*
X23129849Y-28591762D01*
X23221961Y-28394225D01*
X23221961Y-28394224D01*
X23224284Y-28389243D01*
X23226060Y-28382617D01*
X23282119Y-28173402D01*
X23282119Y-28173400D01*
X23283543Y-28168087D01*
X23303498Y-27940000D01*
X23283543Y-27711913D01*
X23282119Y-27706598D01*
X23225707Y-27496067D01*
X23225706Y-27496065D01*
X23224284Y-27490757D01*
X23218797Y-27478990D01*
X23129849Y-27288238D01*
X23129846Y-27288233D01*
X23127523Y-27283251D01*
X23033437Y-27148882D01*
X22999357Y-27100211D01*
X22999355Y-27100208D01*
X22996198Y-27095700D01*
X22834300Y-26933802D01*
X22829792Y-26930645D01*
X22829789Y-26930643D01*
X22694867Y-26836170D01*
X22646749Y-26802477D01*
X22641767Y-26800154D01*
X22641762Y-26800151D01*
X22607543Y-26784195D01*
X22554258Y-26737278D01*
X22534797Y-26669001D01*
X22555339Y-26601041D01*
X22607543Y-26555805D01*
X22641762Y-26539849D01*
X22641767Y-26539846D01*
X22646749Y-26537523D01*
X22784259Y-26441237D01*
X22829789Y-26409357D01*
X22829792Y-26409355D01*
X22834300Y-26406198D01*
X22996198Y-26244300D01*
X23004083Y-26233040D01*
X23080827Y-26123438D01*
X23127523Y-26056749D01*
X23129846Y-26051767D01*
X23129849Y-26051762D01*
X23221961Y-25854225D01*
X23221961Y-25854224D01*
X23224284Y-25849243D01*
X23226060Y-25842617D01*
X23282119Y-25633402D01*
X23282119Y-25633400D01*
X23283543Y-25628087D01*
X23303498Y-25400000D01*
X23283543Y-25171913D01*
X23279945Y-25158484D01*
X23225707Y-24956067D01*
X23225706Y-24956064D01*
X23224284Y-24950757D01*
X23218797Y-24938990D01*
X23129849Y-24748238D01*
X23129846Y-24748233D01*
X23127523Y-24743251D01*
X23033437Y-24608882D01*
X22999357Y-24560211D01*
X22999355Y-24560208D01*
X22996198Y-24555700D01*
X22834300Y-24393802D01*
X22829792Y-24390645D01*
X22829789Y-24390643D01*
X22721112Y-24314547D01*
X22646749Y-24262477D01*
X22641767Y-24260154D01*
X22641762Y-24260151D01*
X22607543Y-24244195D01*
X22554258Y-24197278D01*
X22534797Y-24129001D01*
X22555339Y-24061041D01*
X22607543Y-24015805D01*
X22641762Y-23999849D01*
X22641767Y-23999846D01*
X22646749Y-23997523D01*
X22782681Y-23902342D01*
X22829789Y-23869357D01*
X22829792Y-23869355D01*
X22834300Y-23866198D01*
X22996198Y-23704300D01*
X23024209Y-23664297D01*
X23124366Y-23521257D01*
X23127523Y-23516749D01*
X23129846Y-23511767D01*
X23129849Y-23511762D01*
X23221961Y-23314225D01*
X23221961Y-23314224D01*
X23224284Y-23309243D01*
X23226060Y-23302617D01*
X23282119Y-23093402D01*
X23282119Y-23093400D01*
X23283543Y-23088087D01*
X23303498Y-22860000D01*
X23283543Y-22631913D01*
X23279945Y-22618484D01*
X23225707Y-22416067D01*
X23225706Y-22416065D01*
X23224284Y-22410757D01*
X23218797Y-22398990D01*
X23129849Y-22208238D01*
X23129846Y-22208233D01*
X23127523Y-22203251D01*
X23033437Y-22068882D01*
X22999357Y-22020211D01*
X22999355Y-22020208D01*
X22996198Y-22015700D01*
X22834300Y-21853802D01*
X22829792Y-21850645D01*
X22829789Y-21850643D01*
X22721112Y-21774547D01*
X22646749Y-21722477D01*
X22641767Y-21720154D01*
X22641762Y-21720151D01*
X22607543Y-21704195D01*
X22554258Y-21657278D01*
X22534797Y-21589001D01*
X22555339Y-21521041D01*
X22607543Y-21475805D01*
X22641762Y-21459849D01*
X22641767Y-21459846D01*
X22646749Y-21457523D01*
X22782681Y-21362342D01*
X22829789Y-21329357D01*
X22829792Y-21329355D01*
X22834300Y-21326198D01*
X22996198Y-21164300D01*
X23005720Y-21150702D01*
X23124366Y-20981257D01*
X23127523Y-20976749D01*
X23129846Y-20971767D01*
X23129849Y-20971762D01*
X23221961Y-20774225D01*
X23221961Y-20774224D01*
X23224284Y-20769243D01*
X23226060Y-20762617D01*
X23282119Y-20553402D01*
X23282119Y-20553400D01*
X23283543Y-20548087D01*
X23303498Y-20320000D01*
X23283543Y-20091913D01*
X23282119Y-20086598D01*
X23225707Y-19876067D01*
X23225706Y-19876065D01*
X23224284Y-19870757D01*
X23218797Y-19858990D01*
X23129849Y-19668238D01*
X23129846Y-19668233D01*
X23127523Y-19663251D01*
X23026076Y-19518370D01*
X22999357Y-19480211D01*
X22999355Y-19480208D01*
X22996198Y-19475700D01*
X22834300Y-19313802D01*
X22829792Y-19310645D01*
X22829789Y-19310643D01*
X22721112Y-19234547D01*
X22646749Y-19182477D01*
X22641767Y-19180154D01*
X22641762Y-19180151D01*
X22444225Y-19088039D01*
X22444224Y-19088039D01*
X22439243Y-19085716D01*
X22433935Y-19084294D01*
X22433933Y-19084293D01*
X22223402Y-19027881D01*
X22223400Y-19027881D01*
X22218087Y-19026457D01*
X22118520Y-19017746D01*
X22049851Y-19011738D01*
X22049844Y-19011738D01*
X22047127Y-19011500D01*
X21132873Y-19011500D01*
X21130156Y-19011738D01*
X21130149Y-19011738D01*
X21061480Y-19017746D01*
X20961913Y-19026457D01*
X20956600Y-19027881D01*
X20956598Y-19027881D01*
X20746067Y-19084293D01*
X20746065Y-19084294D01*
X20740757Y-19085716D01*
X20735775Y-19088039D01*
X20730602Y-19089922D01*
X20730194Y-19088801D01*
X20665851Y-19098566D01*
X20601042Y-19069579D01*
X20593712Y-19062807D01*
X19997122Y-18466217D01*
X19963096Y-18403905D01*
X19960907Y-18390292D01*
X19944232Y-18231635D01*
X19944232Y-18231633D01*
X19943542Y-18225072D01*
X19884527Y-18043444D01*
X19789040Y-17878056D01*
X19756003Y-17841364D01*
X19665675Y-17741045D01*
X19665674Y-17741044D01*
X19661253Y-17736134D01*
X19562157Y-17664136D01*
X19512094Y-17627763D01*
X19512093Y-17627762D01*
X19506752Y-17623882D01*
X19500724Y-17621198D01*
X19500722Y-17621197D01*
X19338319Y-17548891D01*
X19338318Y-17548891D01*
X19332288Y-17546206D01*
X19238887Y-17526353D01*
X19151944Y-17507872D01*
X19151939Y-17507872D01*
X19145487Y-17506500D01*
X18954513Y-17506500D01*
X18948061Y-17507872D01*
X18948056Y-17507872D01*
X18861113Y-17526353D01*
X18767712Y-17546206D01*
X18761682Y-17548891D01*
X18761681Y-17548891D01*
X18599278Y-17621197D01*
X18599276Y-17621198D01*
X18593248Y-17623882D01*
X18587907Y-17627762D01*
X18587906Y-17627763D01*
X18554773Y-17651836D01*
X18489060Y-17699579D01*
X18422194Y-17723437D01*
X18353042Y-17707357D01*
X18340944Y-17699582D01*
X18275227Y-17651836D01*
X18242094Y-17627763D01*
X18242093Y-17627762D01*
X18236752Y-17623882D01*
X18230724Y-17621198D01*
X18230722Y-17621197D01*
X18068319Y-17548891D01*
X18068318Y-17548891D01*
X18062288Y-17546206D01*
X17968887Y-17526353D01*
X17881944Y-17507872D01*
X17881939Y-17507872D01*
X17875487Y-17506500D01*
X17684513Y-17506500D01*
X17678061Y-17507872D01*
X17678056Y-17507872D01*
X17591113Y-17526353D01*
X17497712Y-17546206D01*
X17491682Y-17548891D01*
X17491681Y-17548891D01*
X17329278Y-17621197D01*
X17329276Y-17621198D01*
X17323248Y-17623882D01*
X17317907Y-17627762D01*
X17317906Y-17627763D01*
X17284773Y-17651836D01*
X17219060Y-17699579D01*
X17152194Y-17723437D01*
X17083042Y-17707357D01*
X17070944Y-17699582D01*
X17005227Y-17651836D01*
X16972094Y-17627763D01*
X16972093Y-17627762D01*
X16966752Y-17623882D01*
X16960724Y-17621198D01*
X16960722Y-17621197D01*
X16798319Y-17548891D01*
X16798318Y-17548891D01*
X16792288Y-17546206D01*
X16698887Y-17526353D01*
X16611944Y-17507872D01*
X16611939Y-17507872D01*
X16605487Y-17506500D01*
X16414513Y-17506500D01*
X16408061Y-17507872D01*
X16408056Y-17507872D01*
X16321113Y-17526353D01*
X16227712Y-17546206D01*
X16221682Y-17548891D01*
X16221681Y-17548891D01*
X16059278Y-17621197D01*
X16059276Y-17621198D01*
X16053248Y-17623882D01*
X16047907Y-17627762D01*
X16047906Y-17627763D01*
X16014773Y-17651836D01*
X15949060Y-17699579D01*
X15882194Y-17723437D01*
X15813042Y-17707357D01*
X15800944Y-17699582D01*
X15735227Y-17651836D01*
X15702094Y-17627763D01*
X15702093Y-17627762D01*
X15696752Y-17623882D01*
X15690724Y-17621198D01*
X15690722Y-17621197D01*
X15528319Y-17548891D01*
X15528318Y-17548891D01*
X15522288Y-17546206D01*
X15428887Y-17526353D01*
X15341944Y-17507872D01*
X15341939Y-17507872D01*
X15335487Y-17506500D01*
X15144513Y-17506500D01*
X15138061Y-17507872D01*
X15138056Y-17507872D01*
X15051113Y-17526353D01*
X14957712Y-17546206D01*
X14951682Y-17548891D01*
X14951681Y-17548891D01*
X14789278Y-17621197D01*
X14789276Y-17621198D01*
X14783248Y-17623882D01*
X14777907Y-17627762D01*
X14777906Y-17627763D01*
X14744773Y-17651836D01*
X14679060Y-17699579D01*
X14612194Y-17723437D01*
X14543042Y-17707357D01*
X14530944Y-17699582D01*
X14465227Y-17651836D01*
X14432094Y-17627763D01*
X14432093Y-17627762D01*
X14426752Y-17623882D01*
X14420724Y-17621198D01*
X14420722Y-17621197D01*
X14258319Y-17548891D01*
X14258318Y-17548891D01*
X14252288Y-17546206D01*
X14158887Y-17526353D01*
X14071944Y-17507872D01*
X14071939Y-17507872D01*
X14065487Y-17506500D01*
X13874513Y-17506500D01*
X13868061Y-17507872D01*
X13868056Y-17507872D01*
X13781113Y-17526353D01*
X13687712Y-17546206D01*
X13681682Y-17548891D01*
X13681681Y-17548891D01*
X13519278Y-17621197D01*
X13519276Y-17621198D01*
X13513248Y-17623882D01*
X13507907Y-17627762D01*
X13507906Y-17627763D01*
X13474773Y-17651836D01*
X13409060Y-17699579D01*
X13342194Y-17723437D01*
X13273042Y-17707357D01*
X13260944Y-17699582D01*
X13195227Y-17651836D01*
X13162094Y-17627763D01*
X13162093Y-17627762D01*
X13156752Y-17623882D01*
X13150724Y-17621198D01*
X13150722Y-17621197D01*
X12988319Y-17548891D01*
X12988318Y-17548891D01*
X12982288Y-17546206D01*
X12888887Y-17526353D01*
X12801944Y-17507872D01*
X12801939Y-17507872D01*
X12795487Y-17506500D01*
X12604513Y-17506500D01*
X12598061Y-17507872D01*
X12598056Y-17507872D01*
X12511113Y-17526353D01*
X12417712Y-17546206D01*
X12411682Y-17548891D01*
X12411681Y-17548891D01*
X12249278Y-17621197D01*
X12249276Y-17621198D01*
X12243248Y-17623882D01*
X12237907Y-17627762D01*
X12237906Y-17627763D01*
X12204773Y-17651836D01*
X12139060Y-17699579D01*
X12072194Y-17723437D01*
X12003042Y-17707357D01*
X11990944Y-17699582D01*
X11925227Y-17651836D01*
X11892094Y-17627763D01*
X11892093Y-17627762D01*
X11886752Y-17623882D01*
X11880724Y-17621198D01*
X11880722Y-17621197D01*
X11718319Y-17548891D01*
X11718318Y-17548891D01*
X11712288Y-17546206D01*
X11618887Y-17526353D01*
X11531944Y-17507872D01*
X11531939Y-17507872D01*
X11525487Y-17506500D01*
X11334513Y-17506500D01*
X11328061Y-17507872D01*
X11328056Y-17507872D01*
X11241113Y-17526353D01*
X11147712Y-17546206D01*
X11141682Y-17548891D01*
X11141681Y-17548891D01*
X10979278Y-17621197D01*
X10979276Y-17621198D01*
X10973248Y-17623882D01*
X10967907Y-17627762D01*
X10967906Y-17627763D01*
X10934773Y-17651836D01*
X10869060Y-17699579D01*
X10802194Y-17723437D01*
X10733042Y-17707357D01*
X10720944Y-17699582D01*
X10655227Y-17651836D01*
X10622094Y-17627763D01*
X10622093Y-17627762D01*
X10616752Y-17623882D01*
X10610724Y-17621198D01*
X10610722Y-17621197D01*
X10448319Y-17548891D01*
X10448318Y-17548891D01*
X10442288Y-17546206D01*
X10348887Y-17526353D01*
X10261944Y-17507872D01*
X10261939Y-17507872D01*
X10255487Y-17506500D01*
X10109594Y-17506500D01*
X10041473Y-17486498D01*
X9994980Y-17432842D01*
X9984876Y-17362568D01*
X10014370Y-17297988D01*
X10020499Y-17291405D01*
X10893499Y-16418405D01*
X10955811Y-16384379D01*
X10982594Y-16381500D01*
X23167800Y-16381500D01*
X23235921Y-16401502D01*
X23255147Y-16417843D01*
X23255420Y-16417540D01*
X23260332Y-16421963D01*
X23264747Y-16426866D01*
X23271760Y-16431961D01*
X23379171Y-16510000D01*
X23419248Y-16539118D01*
X23425276Y-16541802D01*
X23425278Y-16541803D01*
X23510864Y-16579908D01*
X23593712Y-16616794D01*
X23687113Y-16636647D01*
X23774056Y-16655128D01*
X23774061Y-16655128D01*
X23780513Y-16656500D01*
X23971487Y-16656500D01*
X23977939Y-16655128D01*
X23977944Y-16655128D01*
X24064887Y-16636647D01*
X24158288Y-16616794D01*
X24241136Y-16579908D01*
X24326722Y-16541803D01*
X24326724Y-16541802D01*
X24332752Y-16539118D01*
X24487253Y-16426866D01*
X24524095Y-16385949D01*
X24610621Y-16289852D01*
X24610622Y-16289851D01*
X24615040Y-16284944D01*
X24710527Y-16119556D01*
X24769542Y-15937928D01*
X24774854Y-15887393D01*
X24788814Y-15754565D01*
X24789504Y-15748000D01*
X24778566Y-15643933D01*
X24770232Y-15564635D01*
X24770232Y-15564633D01*
X24769542Y-15558072D01*
X24710527Y-15376444D01*
X24615040Y-15211056D01*
X24600156Y-15194525D01*
X24491675Y-15074045D01*
X24491674Y-15074044D01*
X24487253Y-15069134D01*
X24354217Y-14972477D01*
X24338094Y-14960763D01*
X24338093Y-14960762D01*
X24332752Y-14956882D01*
X24326724Y-14954198D01*
X24326722Y-14954197D01*
X24164319Y-14881891D01*
X24164318Y-14881891D01*
X24158288Y-14879206D01*
X24037300Y-14853489D01*
X23977944Y-14840872D01*
X23977939Y-14840872D01*
X23971487Y-14839500D01*
X23780513Y-14839500D01*
X23774061Y-14840872D01*
X23774056Y-14840872D01*
X23714700Y-14853489D01*
X23593712Y-14879206D01*
X23587682Y-14881891D01*
X23587681Y-14881891D01*
X23425278Y-14954197D01*
X23425276Y-14954198D01*
X23419248Y-14956882D01*
X23413907Y-14960762D01*
X23413906Y-14960763D01*
X23397783Y-14972477D01*
X23264747Y-15069134D01*
X23260332Y-15074037D01*
X23255420Y-15078460D01*
X23254295Y-15077211D01*
X23200986Y-15110051D01*
X23167800Y-15114500D01*
X10746763Y-15114500D01*
X10735579Y-15113973D01*
X10728091Y-15112299D01*
X10720168Y-15112548D01*
X10660033Y-15114438D01*
X10656075Y-15114500D01*
X10628144Y-15114500D01*
X10624229Y-15114995D01*
X10624225Y-15114995D01*
X10624167Y-15115003D01*
X10624138Y-15115006D01*
X10612296Y-15115939D01*
X10568110Y-15117327D01*
X10550744Y-15122372D01*
X10548658Y-15122978D01*
X10529306Y-15126986D01*
X10517068Y-15128532D01*
X10517066Y-15128533D01*
X10509203Y-15129526D01*
X10468086Y-15145806D01*
X10456885Y-15149641D01*
X10414406Y-15161982D01*
X10407587Y-15166015D01*
X10407582Y-15166017D01*
X10396971Y-15172293D01*
X10379221Y-15180990D01*
X10360383Y-15188448D01*
X10353967Y-15193109D01*
X10353966Y-15193110D01*
X10324625Y-15214428D01*
X10314701Y-15220947D01*
X10283460Y-15239422D01*
X10283455Y-15239426D01*
X10276637Y-15243458D01*
X10262313Y-15257782D01*
X10247281Y-15270621D01*
X10230893Y-15282528D01*
X10202712Y-15316593D01*
X10194722Y-15325373D01*
X8751747Y-16768348D01*
X8743461Y-16775888D01*
X8736982Y-16780000D01*
X8731557Y-16785777D01*
X8690357Y-16829651D01*
X8687602Y-16832493D01*
X8667865Y-16852230D01*
X8665385Y-16855427D01*
X8657682Y-16864447D01*
X8627414Y-16896679D01*
X8623595Y-16903625D01*
X8623593Y-16903628D01*
X8617652Y-16914434D01*
X8606801Y-16930953D01*
X8594386Y-16946959D01*
X8591241Y-16954228D01*
X8591238Y-16954232D01*
X8576826Y-16987537D01*
X8571609Y-16998187D01*
X8550305Y-17036940D01*
X8548334Y-17044615D01*
X8548334Y-17044616D01*
X8545267Y-17056562D01*
X8538863Y-17075266D01*
X8530819Y-17093855D01*
X8529580Y-17101678D01*
X8529577Y-17101688D01*
X8523901Y-17137524D01*
X8521495Y-17149144D01*
X8510500Y-17191970D01*
X8510500Y-17212224D01*
X8508949Y-17231934D01*
X8505780Y-17251943D01*
X8509872Y-17295226D01*
X8509941Y-17295961D01*
X8510500Y-17307819D01*
X8510500Y-21251406D01*
X8490498Y-21319527D01*
X8473595Y-21340501D01*
X8156877Y-21657219D01*
X8094565Y-21691245D01*
X8023750Y-21686180D01*
X7966914Y-21643633D01*
X7942206Y-21578448D01*
X7924852Y-21367361D01*
X7870431Y-21150702D01*
X7781354Y-20945840D01*
X7683447Y-20794499D01*
X7662822Y-20762617D01*
X7662820Y-20762614D01*
X7660014Y-20758277D01*
X7509670Y-20593051D01*
X7505619Y-20589852D01*
X7505615Y-20589848D01*
X7338414Y-20457800D01*
X7338410Y-20457798D01*
X7334359Y-20454598D01*
X7293053Y-20431796D01*
X7243084Y-20381364D01*
X7228312Y-20311921D01*
X7253428Y-20245516D01*
X7280780Y-20218909D01*
X7349195Y-20170109D01*
X7459860Y-20091173D01*
X7519052Y-20032188D01*
X7545928Y-20005405D01*
X7618096Y-19933489D01*
X7623294Y-19926256D01*
X7745435Y-19756277D01*
X7748453Y-19752077D01*
X7758956Y-19730827D01*
X7845136Y-19556453D01*
X7845137Y-19556451D01*
X7847430Y-19551811D01*
X7912370Y-19338069D01*
X7941529Y-19116590D01*
X7941940Y-19099760D01*
X7943074Y-19053365D01*
X7943074Y-19053361D01*
X7943156Y-19050000D01*
X7924852Y-18827361D01*
X7870431Y-18610702D01*
X7781354Y-18405840D01*
X7660014Y-18218277D01*
X7509670Y-18053051D01*
X7505616Y-18049849D01*
X7505615Y-18049848D01*
X7338414Y-17917800D01*
X7338410Y-17917798D01*
X7334359Y-17914598D01*
X7293053Y-17891796D01*
X7243084Y-17841364D01*
X7228312Y-17771921D01*
X7253428Y-17705516D01*
X7280780Y-17678909D01*
X7324603Y-17647650D01*
X7459860Y-17551173D01*
X7464845Y-17546206D01*
X7578605Y-17432842D01*
X7618096Y-17393489D01*
X7677594Y-17310689D01*
X7745435Y-17216277D01*
X7748453Y-17212077D01*
X7758391Y-17191970D01*
X7845136Y-17016453D01*
X7845137Y-17016451D01*
X7847430Y-17011811D01*
X7895915Y-16852230D01*
X7910865Y-16803023D01*
X7910865Y-16803021D01*
X7912370Y-16798069D01*
X7941529Y-16576590D01*
X7942445Y-16539118D01*
X7943074Y-16513365D01*
X7943074Y-16513361D01*
X7943156Y-16510000D01*
X7924852Y-16287361D01*
X7870431Y-16070702D01*
X7781354Y-15865840D01*
X7660014Y-15678277D01*
X7509670Y-15513051D01*
X7505619Y-15509852D01*
X7505615Y-15509848D01*
X7338414Y-15377800D01*
X7338410Y-15377798D01*
X7334359Y-15374598D01*
X7293053Y-15351796D01*
X7243084Y-15301364D01*
X7228312Y-15231921D01*
X7253428Y-15165516D01*
X7280780Y-15138909D01*
X7346946Y-15091713D01*
X7459860Y-15011173D01*
X7495524Y-14975634D01*
X7566124Y-14905280D01*
X7618096Y-14853489D01*
X7677594Y-14770689D01*
X7745435Y-14676277D01*
X7748453Y-14672077D01*
X7769320Y-14629857D01*
X7845136Y-14476453D01*
X7845137Y-14476451D01*
X7847430Y-14471811D01*
X7912370Y-14258069D01*
X7941529Y-14036590D01*
X7943156Y-13970000D01*
X7924852Y-13747361D01*
X7870431Y-13530702D01*
X7781354Y-13325840D01*
X7660014Y-13138277D01*
X7509670Y-12973051D01*
X7505619Y-12969852D01*
X7505615Y-12969848D01*
X7338414Y-12837800D01*
X7338410Y-12837798D01*
X7334359Y-12834598D01*
X7293053Y-12811796D01*
X7243084Y-12761364D01*
X7228312Y-12691921D01*
X7253428Y-12625516D01*
X7280780Y-12598909D01*
X7324603Y-12567650D01*
X7459860Y-12471173D01*
X7618096Y-12313489D01*
X7677594Y-12230689D01*
X7745435Y-12136277D01*
X7748453Y-12132077D01*
X7769320Y-12089857D01*
X7845136Y-11936453D01*
X7845137Y-11936451D01*
X7847430Y-11931811D01*
X7879900Y-11824940D01*
X7910865Y-11723023D01*
X7910865Y-11723021D01*
X7912370Y-11718069D01*
X7941529Y-11496590D01*
X7942445Y-11459118D01*
X7943074Y-11433365D01*
X7943074Y-11433361D01*
X7943156Y-11430000D01*
X7924852Y-11207361D01*
X7870431Y-10990702D01*
X7781354Y-10785840D01*
X7694817Y-10652074D01*
X7662822Y-10602617D01*
X7662820Y-10602614D01*
X7660014Y-10598277D01*
X7509670Y-10433051D01*
X7505616Y-10429849D01*
X7505615Y-10429848D01*
X7338414Y-10297800D01*
X7338410Y-10297798D01*
X7334359Y-10294598D01*
X7293053Y-10271796D01*
X7243084Y-10221364D01*
X7228312Y-10151921D01*
X7253428Y-10085516D01*
X7280780Y-10058909D01*
X7324603Y-10027650D01*
X7459860Y-9931173D01*
X7510447Y-9880763D01*
X7556573Y-9834797D01*
X7618096Y-9773489D01*
X7677594Y-9690689D01*
X7745435Y-9596277D01*
X7748453Y-9592077D01*
X7769320Y-9549857D01*
X7845136Y-9396453D01*
X7845137Y-9396451D01*
X7847430Y-9391811D01*
X7912370Y-9178069D01*
X7941529Y-8956590D01*
X7943156Y-8890000D01*
X7924852Y-8667361D01*
X7870431Y-8450702D01*
X7781354Y-8245840D01*
X7660014Y-8058277D01*
X7509670Y-7893051D01*
X7505619Y-7889852D01*
X7505615Y-7889848D01*
X7338414Y-7757800D01*
X7338410Y-7757798D01*
X7334359Y-7754598D01*
X7293053Y-7731796D01*
X7243084Y-7681364D01*
X7228312Y-7611921D01*
X7253428Y-7545516D01*
X7280780Y-7518909D01*
X7334427Y-7480643D01*
X7459860Y-7391173D01*
X7495524Y-7355634D01*
X7597219Y-7254293D01*
X7618096Y-7233489D01*
X7648607Y-7191029D01*
X7745435Y-7056277D01*
X7748453Y-7052077D01*
X7769320Y-7009857D01*
X7845136Y-6856453D01*
X7845137Y-6856451D01*
X7847430Y-6851811D01*
X7912370Y-6638069D01*
X7941529Y-6416590D01*
X7943156Y-6350000D01*
X7924852Y-6127361D01*
X7870431Y-5910702D01*
X7781354Y-5705840D01*
X7741906Y-5644862D01*
X7662822Y-5522617D01*
X7662820Y-5522614D01*
X7660014Y-5518277D01*
X7509670Y-5353051D01*
X7505619Y-5349852D01*
X7505615Y-5349848D01*
X7338414Y-5217800D01*
X7338410Y-5217798D01*
X7334359Y-5214598D01*
X7293053Y-5191796D01*
X7243084Y-5141364D01*
X7228312Y-5071921D01*
X7253428Y-5005516D01*
X7280780Y-4978909D01*
X7324603Y-4947650D01*
X7459860Y-4851173D01*
X7618096Y-4693489D01*
X7677594Y-4610689D01*
X7745435Y-4516277D01*
X7748453Y-4512077D01*
X7769320Y-4469857D01*
X7845136Y-4316453D01*
X7845137Y-4316451D01*
X7847430Y-4311811D01*
X7912370Y-4098069D01*
X7941529Y-3876590D01*
X7943156Y-3810000D01*
X7924852Y-3587361D01*
X7870431Y-3370702D01*
X7781354Y-3165840D01*
X7660014Y-2978277D01*
X7509670Y-2813051D01*
X7505619Y-2809852D01*
X7505615Y-2809848D01*
X7338414Y-2677800D01*
X7338410Y-2677798D01*
X7334359Y-2674598D01*
X7138789Y-2566638D01*
X7133920Y-2564914D01*
X7133916Y-2564912D01*
X6933087Y-2493795D01*
X6933083Y-2493794D01*
X6928212Y-2492069D01*
X6923119Y-2491162D01*
X6923116Y-2491161D01*
X6713373Y-2453800D01*
X6713367Y-2453799D01*
X6708284Y-2452894D01*
X6634452Y-2451992D01*
X6490081Y-2450228D01*
X6490079Y-2450228D01*
X6484911Y-2450165D01*
X6264091Y-2483955D01*
X6051756Y-2553357D01*
X5853607Y-2656507D01*
X5849474Y-2659610D01*
X5849471Y-2659612D01*
X5825247Y-2677800D01*
X5674965Y-2790635D01*
X5520629Y-2952138D01*
X5413201Y-3109621D01*
X5358293Y-3154621D01*
X5287768Y-3162792D01*
X5224021Y-3131538D01*
X5203324Y-3107054D01*
X5122822Y-2982617D01*
X5122820Y-2982614D01*
X5120014Y-2978277D01*
X4969670Y-2813051D01*
X4965619Y-2809852D01*
X4965615Y-2809848D01*
X4798414Y-2677800D01*
X4798410Y-2677798D01*
X4794359Y-2674598D01*
X4753053Y-2651796D01*
X4703084Y-2601364D01*
X4688312Y-2531921D01*
X4713428Y-2465516D01*
X4740780Y-2438909D01*
X4784603Y-2407650D01*
X4919860Y-2311173D01*
X4956390Y-2274771D01*
X5074435Y-2157137D01*
X5078096Y-2153489D01*
X5137594Y-2070689D01*
X5205435Y-1976277D01*
X5208453Y-1972077D01*
X5307430Y-1771811D01*
X5372370Y-1558069D01*
X5401529Y-1336590D01*
X5402458Y-1298565D01*
X5403074Y-1273365D01*
X5403074Y-1273361D01*
X5403156Y-1270000D01*
X5384852Y-1047361D01*
X5330431Y-830702D01*
X5266748Y-684241D01*
X5257927Y-613796D01*
X5288594Y-549764D01*
X5349010Y-512476D01*
X5382297Y-508000D01*
X149810672Y-508000D01*
X149830057Y-509500D01*
G37*
%TD.AperFunction*%
%TD*%
M02*
