%TF.GenerationSoftware,KiCad,Pcbnew,(6.0.1)*%
%TF.CreationDate,2022-02-21T18:17:07+01:00*%
%TF.ProjectId,ProgrammCounter,50726f67-7261-46d6-9d43-6f756e746572,rev?*%
%TF.SameCoordinates,Original*%
%TF.FileFunction,Legend,Top*%
%TF.FilePolarity,Positive*%
%FSLAX46Y46*%
G04 Gerber Fmt 4.6, Leading zero omitted, Abs format (unit mm)*
G04 Created by KiCad (PCBNEW (6.0.1)) date 2022-02-21 18:17:07*
%MOMM*%
%LPD*%
G01*
G04 APERTURE LIST*
%ADD10C,0.450000*%
%ADD11C,0.300000*%
%ADD12C,0.150000*%
%ADD13C,0.120000*%
%ADD14C,0.010000*%
G04 APERTURE END LIST*
D10*
X129842857Y-11642142D02*
X129842857Y-8642142D01*
X130985714Y-8642142D01*
X131271428Y-8785000D01*
X131414285Y-8927857D01*
X131557142Y-9213571D01*
X131557142Y-9642142D01*
X131414285Y-9927857D01*
X131271428Y-10070714D01*
X130985714Y-10213571D01*
X129842857Y-10213571D01*
X134557142Y-11642142D02*
X133557142Y-10213571D01*
X132842857Y-11642142D02*
X132842857Y-8642142D01*
X133985714Y-8642142D01*
X134271428Y-8785000D01*
X134414285Y-8927857D01*
X134557142Y-9213571D01*
X134557142Y-9642142D01*
X134414285Y-9927857D01*
X134271428Y-10070714D01*
X133985714Y-10213571D01*
X132842857Y-10213571D01*
X136414285Y-8642142D02*
X136985714Y-8642142D01*
X137271428Y-8785000D01*
X137557142Y-9070714D01*
X137700000Y-9642142D01*
X137700000Y-10642142D01*
X137557142Y-11213571D01*
X137271428Y-11499285D01*
X136985714Y-11642142D01*
X136414285Y-11642142D01*
X136128571Y-11499285D01*
X135842857Y-11213571D01*
X135700000Y-10642142D01*
X135700000Y-9642142D01*
X135842857Y-9070714D01*
X136128571Y-8785000D01*
X136414285Y-8642142D01*
X140557142Y-8785000D02*
X140271428Y-8642142D01*
X139842857Y-8642142D01*
X139414285Y-8785000D01*
X139128571Y-9070714D01*
X138985714Y-9356428D01*
X138842857Y-9927857D01*
X138842857Y-10356428D01*
X138985714Y-10927857D01*
X139128571Y-11213571D01*
X139414285Y-11499285D01*
X139842857Y-11642142D01*
X140128571Y-11642142D01*
X140557142Y-11499285D01*
X140700000Y-11356428D01*
X140700000Y-10356428D01*
X140128571Y-10356428D01*
X143700000Y-11642142D02*
X142700000Y-10213571D01*
X141985714Y-11642142D02*
X141985714Y-8642142D01*
X143128571Y-8642142D01*
X143414285Y-8785000D01*
X143557142Y-8927857D01*
X143700000Y-9213571D01*
X143700000Y-9642142D01*
X143557142Y-9927857D01*
X143414285Y-10070714D01*
X143128571Y-10213571D01*
X141985714Y-10213571D01*
X144842857Y-10785000D02*
X146271428Y-10785000D01*
X144557142Y-11642142D02*
X145557142Y-8642142D01*
X146557142Y-11642142D01*
X147557142Y-11642142D02*
X147557142Y-8642142D01*
X148557142Y-10785000D01*
X149557142Y-8642142D01*
X149557142Y-11642142D01*
X131914285Y-16186428D02*
X131771428Y-16329285D01*
X131342857Y-16472142D01*
X131057142Y-16472142D01*
X130628571Y-16329285D01*
X130342857Y-16043571D01*
X130200000Y-15757857D01*
X130057142Y-15186428D01*
X130057142Y-14757857D01*
X130200000Y-14186428D01*
X130342857Y-13900714D01*
X130628571Y-13615000D01*
X131057142Y-13472142D01*
X131342857Y-13472142D01*
X131771428Y-13615000D01*
X131914285Y-13757857D01*
X133771428Y-13472142D02*
X134342857Y-13472142D01*
X134628571Y-13615000D01*
X134914285Y-13900714D01*
X135057142Y-14472142D01*
X135057142Y-15472142D01*
X134914285Y-16043571D01*
X134628571Y-16329285D01*
X134342857Y-16472142D01*
X133771428Y-16472142D01*
X133485714Y-16329285D01*
X133200000Y-16043571D01*
X133057142Y-15472142D01*
X133057142Y-14472142D01*
X133200000Y-13900714D01*
X133485714Y-13615000D01*
X133771428Y-13472142D01*
X136342857Y-13472142D02*
X136342857Y-15900714D01*
X136485714Y-16186428D01*
X136628571Y-16329285D01*
X136914285Y-16472142D01*
X137485714Y-16472142D01*
X137771428Y-16329285D01*
X137914285Y-16186428D01*
X138057142Y-15900714D01*
X138057142Y-13472142D01*
X139485714Y-16472142D02*
X139485714Y-13472142D01*
X141200000Y-16472142D01*
X141200000Y-13472142D01*
X142200000Y-13472142D02*
X143914285Y-13472142D01*
X143057142Y-16472142D02*
X143057142Y-13472142D01*
X144914285Y-14900714D02*
X145914285Y-14900714D01*
X146342857Y-16472142D02*
X144914285Y-16472142D01*
X144914285Y-13472142D01*
X146342857Y-13472142D01*
X149342857Y-16472142D02*
X148342857Y-15043571D01*
X147628571Y-16472142D02*
X147628571Y-13472142D01*
X148771428Y-13472142D01*
X149057142Y-13615000D01*
X149200000Y-13757857D01*
X149342857Y-14043571D01*
X149342857Y-14472142D01*
X149200000Y-14757857D01*
X149057142Y-14900714D01*
X148771428Y-15043571D01*
X147628571Y-15043571D01*
D11*
X74549047Y-32654761D02*
X73406190Y-32654761D01*
X73977619Y-32654761D02*
X73977619Y-30654761D01*
X73787142Y-30940476D01*
X73596666Y-31130952D01*
X73406190Y-31226190D01*
X76263333Y-30654761D02*
X75882380Y-30654761D01*
X75691904Y-30750000D01*
X75596666Y-30845238D01*
X75406190Y-31130952D01*
X75310952Y-31511904D01*
X75310952Y-32273809D01*
X75406190Y-32464285D01*
X75501428Y-32559523D01*
X75691904Y-32654761D01*
X76072857Y-32654761D01*
X76263333Y-32559523D01*
X76358571Y-32464285D01*
X76453809Y-32273809D01*
X76453809Y-31797619D01*
X76358571Y-31607142D01*
X76263333Y-31511904D01*
X76072857Y-31416666D01*
X75691904Y-31416666D01*
X75501428Y-31511904D01*
X75406190Y-31607142D01*
X75310952Y-31797619D01*
X90550952Y-31321428D02*
X90550952Y-32654761D01*
X90074761Y-30559523D02*
X89598571Y-31988095D01*
X90836666Y-31988095D01*
X59118571Y-30654761D02*
X58737619Y-30654761D01*
X58547142Y-30750000D01*
X58451904Y-30845238D01*
X58261428Y-31130952D01*
X58166190Y-31511904D01*
X58166190Y-32273809D01*
X58261428Y-32464285D01*
X58356666Y-32559523D01*
X58547142Y-32654761D01*
X58928095Y-32654761D01*
X59118571Y-32559523D01*
X59213809Y-32464285D01*
X59309047Y-32273809D01*
X59309047Y-31797619D01*
X59213809Y-31607142D01*
X59118571Y-31511904D01*
X58928095Y-31416666D01*
X58547142Y-31416666D01*
X58356666Y-31511904D01*
X58261428Y-31607142D01*
X58166190Y-31797619D01*
X61023333Y-31321428D02*
X61023333Y-32654761D01*
X60547142Y-30559523D02*
X60070952Y-31988095D01*
X61309047Y-31988095D01*
X82359523Y-31511904D02*
X82169047Y-31416666D01*
X82073809Y-31321428D01*
X81978571Y-31130952D01*
X81978571Y-31035714D01*
X82073809Y-30845238D01*
X82169047Y-30750000D01*
X82359523Y-30654761D01*
X82740476Y-30654761D01*
X82930952Y-30750000D01*
X83026190Y-30845238D01*
X83121428Y-31035714D01*
X83121428Y-31130952D01*
X83026190Y-31321428D01*
X82930952Y-31416666D01*
X82740476Y-31511904D01*
X82359523Y-31511904D01*
X82169047Y-31607142D01*
X82073809Y-31702380D01*
X81978571Y-31892857D01*
X81978571Y-32273809D01*
X82073809Y-32464285D01*
X82169047Y-32559523D01*
X82359523Y-32654761D01*
X82740476Y-32654761D01*
X82930952Y-32559523D01*
X83026190Y-32464285D01*
X83121428Y-32273809D01*
X83121428Y-31892857D01*
X83026190Y-31702380D01*
X82930952Y-31607142D01*
X82740476Y-31511904D01*
X65690952Y-30654761D02*
X66929047Y-30654761D01*
X66262380Y-31416666D01*
X66548095Y-31416666D01*
X66738571Y-31511904D01*
X66833809Y-31607142D01*
X66929047Y-31797619D01*
X66929047Y-32273809D01*
X66833809Y-32464285D01*
X66738571Y-32559523D01*
X66548095Y-32654761D01*
X65976666Y-32654761D01*
X65786190Y-32559523D01*
X65690952Y-32464285D01*
X67690952Y-30845238D02*
X67786190Y-30750000D01*
X67976666Y-30654761D01*
X68452857Y-30654761D01*
X68643333Y-30750000D01*
X68738571Y-30845238D01*
X68833809Y-31035714D01*
X68833809Y-31226190D01*
X68738571Y-31511904D01*
X67595714Y-32654761D01*
X68833809Y-32654761D01*
X97218571Y-30845238D02*
X97313809Y-30750000D01*
X97504285Y-30654761D01*
X97980476Y-30654761D01*
X98170952Y-30750000D01*
X98266190Y-30845238D01*
X98361428Y-31035714D01*
X98361428Y-31226190D01*
X98266190Y-31511904D01*
X97123333Y-32654761D01*
X98361428Y-32654761D01*
X50736666Y-32654761D02*
X49593809Y-32654761D01*
X50165238Y-32654761D02*
X50165238Y-30654761D01*
X49974761Y-30940476D01*
X49784285Y-31130952D01*
X49593809Y-31226190D01*
X51498571Y-30845238D02*
X51593809Y-30750000D01*
X51784285Y-30654761D01*
X52260476Y-30654761D01*
X52450952Y-30750000D01*
X52546190Y-30845238D01*
X52641428Y-31035714D01*
X52641428Y-31226190D01*
X52546190Y-31511904D01*
X51403333Y-32654761D01*
X52641428Y-32654761D01*
X53784285Y-31511904D02*
X53593809Y-31416666D01*
X53498571Y-31321428D01*
X53403333Y-31130952D01*
X53403333Y-31035714D01*
X53498571Y-30845238D01*
X53593809Y-30750000D01*
X53784285Y-30654761D01*
X54165238Y-30654761D01*
X54355714Y-30750000D01*
X54450952Y-30845238D01*
X54546190Y-31035714D01*
X54546190Y-31130952D01*
X54450952Y-31321428D01*
X54355714Y-31416666D01*
X54165238Y-31511904D01*
X53784285Y-31511904D01*
X53593809Y-31607142D01*
X53498571Y-31702380D01*
X53403333Y-31892857D01*
X53403333Y-32273809D01*
X53498571Y-32464285D01*
X53593809Y-32559523D01*
X53784285Y-32654761D01*
X54165238Y-32654761D01*
X54355714Y-32559523D01*
X54450952Y-32464285D01*
X54546190Y-32273809D01*
X54546190Y-31892857D01*
X54450952Y-31702380D01*
X54355714Y-31607142D01*
X54165238Y-31511904D01*
X105981428Y-32654761D02*
X104838571Y-32654761D01*
X105410000Y-32654761D02*
X105410000Y-30654761D01*
X105219523Y-30940476D01*
X105029047Y-31130952D01*
X104838571Y-31226190D01*
D12*
%TO.C,C1*%
X20153333Y-47347142D02*
X20105714Y-47394761D01*
X19962857Y-47442380D01*
X19867619Y-47442380D01*
X19724761Y-47394761D01*
X19629523Y-47299523D01*
X19581904Y-47204285D01*
X19534285Y-47013809D01*
X19534285Y-46870952D01*
X19581904Y-46680476D01*
X19629523Y-46585238D01*
X19724761Y-46490000D01*
X19867619Y-46442380D01*
X19962857Y-46442380D01*
X20105714Y-46490000D01*
X20153333Y-46537619D01*
X21105714Y-47442380D02*
X20534285Y-47442380D01*
X20820000Y-47442380D02*
X20820000Y-46442380D01*
X20724761Y-46585238D01*
X20629523Y-46680476D01*
X20534285Y-46728095D01*
%TO.C,C2*%
X79843333Y-18137142D02*
X79795714Y-18184761D01*
X79652857Y-18232380D01*
X79557619Y-18232380D01*
X79414761Y-18184761D01*
X79319523Y-18089523D01*
X79271904Y-17994285D01*
X79224285Y-17803809D01*
X79224285Y-17660952D01*
X79271904Y-17470476D01*
X79319523Y-17375238D01*
X79414761Y-17280000D01*
X79557619Y-17232380D01*
X79652857Y-17232380D01*
X79795714Y-17280000D01*
X79843333Y-17327619D01*
X80224285Y-17327619D02*
X80271904Y-17280000D01*
X80367142Y-17232380D01*
X80605238Y-17232380D01*
X80700476Y-17280000D01*
X80748095Y-17327619D01*
X80795714Y-17422857D01*
X80795714Y-17518095D01*
X80748095Y-17660952D01*
X80176666Y-18232380D01*
X80795714Y-18232380D01*
%TO.C,C3*%
X111593333Y-18137142D02*
X111545714Y-18184761D01*
X111402857Y-18232380D01*
X111307619Y-18232380D01*
X111164761Y-18184761D01*
X111069523Y-18089523D01*
X111021904Y-17994285D01*
X110974285Y-17803809D01*
X110974285Y-17660952D01*
X111021904Y-17470476D01*
X111069523Y-17375238D01*
X111164761Y-17280000D01*
X111307619Y-17232380D01*
X111402857Y-17232380D01*
X111545714Y-17280000D01*
X111593333Y-17327619D01*
X111926666Y-17232380D02*
X112545714Y-17232380D01*
X112212380Y-17613333D01*
X112355238Y-17613333D01*
X112450476Y-17660952D01*
X112498095Y-17708571D01*
X112545714Y-17803809D01*
X112545714Y-18041904D01*
X112498095Y-18137142D01*
X112450476Y-18184761D01*
X112355238Y-18232380D01*
X112069523Y-18232380D01*
X111974285Y-18184761D01*
X111926666Y-18137142D01*
%TO.C,D1*%
X49347380Y-37568095D02*
X48347380Y-37568095D01*
X48347380Y-37330000D01*
X48395000Y-37187142D01*
X48490238Y-37091904D01*
X48585476Y-37044285D01*
X48775952Y-36996666D01*
X48918809Y-36996666D01*
X49109285Y-37044285D01*
X49204523Y-37091904D01*
X49299761Y-37187142D01*
X49347380Y-37330000D01*
X49347380Y-37568095D01*
X49347380Y-36044285D02*
X49347380Y-36615714D01*
X49347380Y-36330000D02*
X48347380Y-36330000D01*
X48490238Y-36425238D01*
X48585476Y-36520476D01*
X48633095Y-36615714D01*
%TO.C,D2*%
X56967380Y-37568095D02*
X55967380Y-37568095D01*
X55967380Y-37330000D01*
X56015000Y-37187142D01*
X56110238Y-37091904D01*
X56205476Y-37044285D01*
X56395952Y-36996666D01*
X56538809Y-36996666D01*
X56729285Y-37044285D01*
X56824523Y-37091904D01*
X56919761Y-37187142D01*
X56967380Y-37330000D01*
X56967380Y-37568095D01*
X56062619Y-36615714D02*
X56015000Y-36568095D01*
X55967380Y-36472857D01*
X55967380Y-36234761D01*
X56015000Y-36139523D01*
X56062619Y-36091904D01*
X56157857Y-36044285D01*
X56253095Y-36044285D01*
X56395952Y-36091904D01*
X56967380Y-36663333D01*
X56967380Y-36044285D01*
%TO.C,D3*%
X64587380Y-37568095D02*
X63587380Y-37568095D01*
X63587380Y-37330000D01*
X63635000Y-37187142D01*
X63730238Y-37091904D01*
X63825476Y-37044285D01*
X64015952Y-36996666D01*
X64158809Y-36996666D01*
X64349285Y-37044285D01*
X64444523Y-37091904D01*
X64539761Y-37187142D01*
X64587380Y-37330000D01*
X64587380Y-37568095D01*
X63587380Y-36663333D02*
X63587380Y-36044285D01*
X63968333Y-36377619D01*
X63968333Y-36234761D01*
X64015952Y-36139523D01*
X64063571Y-36091904D01*
X64158809Y-36044285D01*
X64396904Y-36044285D01*
X64492142Y-36091904D01*
X64539761Y-36139523D01*
X64587380Y-36234761D01*
X64587380Y-36520476D01*
X64539761Y-36615714D01*
X64492142Y-36663333D01*
%TO.C,D4*%
X72207380Y-37568095D02*
X71207380Y-37568095D01*
X71207380Y-37330000D01*
X71255000Y-37187142D01*
X71350238Y-37091904D01*
X71445476Y-37044285D01*
X71635952Y-36996666D01*
X71778809Y-36996666D01*
X71969285Y-37044285D01*
X72064523Y-37091904D01*
X72159761Y-37187142D01*
X72207380Y-37330000D01*
X72207380Y-37568095D01*
X71540714Y-36139523D02*
X72207380Y-36139523D01*
X71159761Y-36377619D02*
X71874047Y-36615714D01*
X71874047Y-35996666D01*
%TO.C,D5*%
X79827380Y-37568095D02*
X78827380Y-37568095D01*
X78827380Y-37330000D01*
X78875000Y-37187142D01*
X78970238Y-37091904D01*
X79065476Y-37044285D01*
X79255952Y-36996666D01*
X79398809Y-36996666D01*
X79589285Y-37044285D01*
X79684523Y-37091904D01*
X79779761Y-37187142D01*
X79827380Y-37330000D01*
X79827380Y-37568095D01*
X78827380Y-36091904D02*
X78827380Y-36568095D01*
X79303571Y-36615714D01*
X79255952Y-36568095D01*
X79208333Y-36472857D01*
X79208333Y-36234761D01*
X79255952Y-36139523D01*
X79303571Y-36091904D01*
X79398809Y-36044285D01*
X79636904Y-36044285D01*
X79732142Y-36091904D01*
X79779761Y-36139523D01*
X79827380Y-36234761D01*
X79827380Y-36472857D01*
X79779761Y-36568095D01*
X79732142Y-36615714D01*
%TO.C,D6*%
X87447380Y-37568095D02*
X86447380Y-37568095D01*
X86447380Y-37330000D01*
X86495000Y-37187142D01*
X86590238Y-37091904D01*
X86685476Y-37044285D01*
X86875952Y-36996666D01*
X87018809Y-36996666D01*
X87209285Y-37044285D01*
X87304523Y-37091904D01*
X87399761Y-37187142D01*
X87447380Y-37330000D01*
X87447380Y-37568095D01*
X86447380Y-36139523D02*
X86447380Y-36330000D01*
X86495000Y-36425238D01*
X86542619Y-36472857D01*
X86685476Y-36568095D01*
X86875952Y-36615714D01*
X87256904Y-36615714D01*
X87352142Y-36568095D01*
X87399761Y-36520476D01*
X87447380Y-36425238D01*
X87447380Y-36234761D01*
X87399761Y-36139523D01*
X87352142Y-36091904D01*
X87256904Y-36044285D01*
X87018809Y-36044285D01*
X86923571Y-36091904D01*
X86875952Y-36139523D01*
X86828333Y-36234761D01*
X86828333Y-36425238D01*
X86875952Y-36520476D01*
X86923571Y-36568095D01*
X87018809Y-36615714D01*
%TO.C,D7*%
X95067380Y-37568095D02*
X94067380Y-37568095D01*
X94067380Y-37330000D01*
X94115000Y-37187142D01*
X94210238Y-37091904D01*
X94305476Y-37044285D01*
X94495952Y-36996666D01*
X94638809Y-36996666D01*
X94829285Y-37044285D01*
X94924523Y-37091904D01*
X95019761Y-37187142D01*
X95067380Y-37330000D01*
X95067380Y-37568095D01*
X94067380Y-36663333D02*
X94067380Y-35996666D01*
X95067380Y-36425238D01*
%TO.C,D8*%
X102687380Y-37568095D02*
X101687380Y-37568095D01*
X101687380Y-37330000D01*
X101735000Y-37187142D01*
X101830238Y-37091904D01*
X101925476Y-37044285D01*
X102115952Y-36996666D01*
X102258809Y-36996666D01*
X102449285Y-37044285D01*
X102544523Y-37091904D01*
X102639761Y-37187142D01*
X102687380Y-37330000D01*
X102687380Y-37568095D01*
X102115952Y-36425238D02*
X102068333Y-36520476D01*
X102020714Y-36568095D01*
X101925476Y-36615714D01*
X101877857Y-36615714D01*
X101782619Y-36568095D01*
X101735000Y-36520476D01*
X101687380Y-36425238D01*
X101687380Y-36234761D01*
X101735000Y-36139523D01*
X101782619Y-36091904D01*
X101877857Y-36044285D01*
X101925476Y-36044285D01*
X102020714Y-36091904D01*
X102068333Y-36139523D01*
X102115952Y-36234761D01*
X102115952Y-36425238D01*
X102163571Y-36520476D01*
X102211190Y-36568095D01*
X102306428Y-36615714D01*
X102496904Y-36615714D01*
X102592142Y-36568095D01*
X102639761Y-36520476D01*
X102687380Y-36425238D01*
X102687380Y-36234761D01*
X102639761Y-36139523D01*
X102592142Y-36091904D01*
X102496904Y-36044285D01*
X102306428Y-36044285D01*
X102211190Y-36091904D01*
X102163571Y-36139523D01*
X102115952Y-36234761D01*
%TO.C,J1*%
X591666Y-51252380D02*
X591666Y-51966666D01*
X544047Y-52109523D01*
X448809Y-52204761D01*
X305952Y-52252380D01*
X210714Y-52252380D01*
X1591666Y-52252380D02*
X1020238Y-52252380D01*
X1305952Y-52252380D02*
X1305952Y-51252380D01*
X1210714Y-51395238D01*
X1115476Y-51490476D01*
X1020238Y-51538095D01*
%TO.C,R1*%
X53622380Y-45886666D02*
X53146190Y-46220000D01*
X53622380Y-46458095D02*
X52622380Y-46458095D01*
X52622380Y-46077142D01*
X52670000Y-45981904D01*
X52717619Y-45934285D01*
X52812857Y-45886666D01*
X52955714Y-45886666D01*
X53050952Y-45934285D01*
X53098571Y-45981904D01*
X53146190Y-46077142D01*
X53146190Y-46458095D01*
X53622380Y-44934285D02*
X53622380Y-45505714D01*
X53622380Y-45220000D02*
X52622380Y-45220000D01*
X52765238Y-45315238D01*
X52860476Y-45410476D01*
X52908095Y-45505714D01*
%TO.C,R2*%
X61242380Y-45886666D02*
X60766190Y-46220000D01*
X61242380Y-46458095D02*
X60242380Y-46458095D01*
X60242380Y-46077142D01*
X60290000Y-45981904D01*
X60337619Y-45934285D01*
X60432857Y-45886666D01*
X60575714Y-45886666D01*
X60670952Y-45934285D01*
X60718571Y-45981904D01*
X60766190Y-46077142D01*
X60766190Y-46458095D01*
X60337619Y-45505714D02*
X60290000Y-45458095D01*
X60242380Y-45362857D01*
X60242380Y-45124761D01*
X60290000Y-45029523D01*
X60337619Y-44981904D01*
X60432857Y-44934285D01*
X60528095Y-44934285D01*
X60670952Y-44981904D01*
X61242380Y-45553333D01*
X61242380Y-44934285D01*
%TO.C,R3*%
X68862380Y-45886666D02*
X68386190Y-46220000D01*
X68862380Y-46458095D02*
X67862380Y-46458095D01*
X67862380Y-46077142D01*
X67910000Y-45981904D01*
X67957619Y-45934285D01*
X68052857Y-45886666D01*
X68195714Y-45886666D01*
X68290952Y-45934285D01*
X68338571Y-45981904D01*
X68386190Y-46077142D01*
X68386190Y-46458095D01*
X67862380Y-45553333D02*
X67862380Y-44934285D01*
X68243333Y-45267619D01*
X68243333Y-45124761D01*
X68290952Y-45029523D01*
X68338571Y-44981904D01*
X68433809Y-44934285D01*
X68671904Y-44934285D01*
X68767142Y-44981904D01*
X68814761Y-45029523D01*
X68862380Y-45124761D01*
X68862380Y-45410476D01*
X68814761Y-45505714D01*
X68767142Y-45553333D01*
%TO.C,R4*%
X76482380Y-45886666D02*
X76006190Y-46220000D01*
X76482380Y-46458095D02*
X75482380Y-46458095D01*
X75482380Y-46077142D01*
X75530000Y-45981904D01*
X75577619Y-45934285D01*
X75672857Y-45886666D01*
X75815714Y-45886666D01*
X75910952Y-45934285D01*
X75958571Y-45981904D01*
X76006190Y-46077142D01*
X76006190Y-46458095D01*
X75815714Y-45029523D02*
X76482380Y-45029523D01*
X75434761Y-45267619D02*
X76149047Y-45505714D01*
X76149047Y-44886666D01*
%TO.C,R5*%
X84102380Y-45886666D02*
X83626190Y-46220000D01*
X84102380Y-46458095D02*
X83102380Y-46458095D01*
X83102380Y-46077142D01*
X83150000Y-45981904D01*
X83197619Y-45934285D01*
X83292857Y-45886666D01*
X83435714Y-45886666D01*
X83530952Y-45934285D01*
X83578571Y-45981904D01*
X83626190Y-46077142D01*
X83626190Y-46458095D01*
X83102380Y-44981904D02*
X83102380Y-45458095D01*
X83578571Y-45505714D01*
X83530952Y-45458095D01*
X83483333Y-45362857D01*
X83483333Y-45124761D01*
X83530952Y-45029523D01*
X83578571Y-44981904D01*
X83673809Y-44934285D01*
X83911904Y-44934285D01*
X84007142Y-44981904D01*
X84054761Y-45029523D01*
X84102380Y-45124761D01*
X84102380Y-45362857D01*
X84054761Y-45458095D01*
X84007142Y-45505714D01*
%TO.C,R6*%
X91722380Y-45886666D02*
X91246190Y-46220000D01*
X91722380Y-46458095D02*
X90722380Y-46458095D01*
X90722380Y-46077142D01*
X90770000Y-45981904D01*
X90817619Y-45934285D01*
X90912857Y-45886666D01*
X91055714Y-45886666D01*
X91150952Y-45934285D01*
X91198571Y-45981904D01*
X91246190Y-46077142D01*
X91246190Y-46458095D01*
X90722380Y-45029523D02*
X90722380Y-45220000D01*
X90770000Y-45315238D01*
X90817619Y-45362857D01*
X90960476Y-45458095D01*
X91150952Y-45505714D01*
X91531904Y-45505714D01*
X91627142Y-45458095D01*
X91674761Y-45410476D01*
X91722380Y-45315238D01*
X91722380Y-45124761D01*
X91674761Y-45029523D01*
X91627142Y-44981904D01*
X91531904Y-44934285D01*
X91293809Y-44934285D01*
X91198571Y-44981904D01*
X91150952Y-45029523D01*
X91103333Y-45124761D01*
X91103333Y-45315238D01*
X91150952Y-45410476D01*
X91198571Y-45458095D01*
X91293809Y-45505714D01*
%TO.C,R7*%
X99342380Y-45886666D02*
X98866190Y-46220000D01*
X99342380Y-46458095D02*
X98342380Y-46458095D01*
X98342380Y-46077142D01*
X98390000Y-45981904D01*
X98437619Y-45934285D01*
X98532857Y-45886666D01*
X98675714Y-45886666D01*
X98770952Y-45934285D01*
X98818571Y-45981904D01*
X98866190Y-46077142D01*
X98866190Y-46458095D01*
X98342380Y-45553333D02*
X98342380Y-44886666D01*
X99342380Y-45315238D01*
%TO.C,R8*%
X106962380Y-45886666D02*
X106486190Y-46220000D01*
X106962380Y-46458095D02*
X105962380Y-46458095D01*
X105962380Y-46077142D01*
X106010000Y-45981904D01*
X106057619Y-45934285D01*
X106152857Y-45886666D01*
X106295714Y-45886666D01*
X106390952Y-45934285D01*
X106438571Y-45981904D01*
X106486190Y-46077142D01*
X106486190Y-46458095D01*
X106390952Y-45315238D02*
X106343333Y-45410476D01*
X106295714Y-45458095D01*
X106200476Y-45505714D01*
X106152857Y-45505714D01*
X106057619Y-45458095D01*
X106010000Y-45410476D01*
X105962380Y-45315238D01*
X105962380Y-45124761D01*
X106010000Y-45029523D01*
X106057619Y-44981904D01*
X106152857Y-44934285D01*
X106200476Y-44934285D01*
X106295714Y-44981904D01*
X106343333Y-45029523D01*
X106390952Y-45124761D01*
X106390952Y-45315238D01*
X106438571Y-45410476D01*
X106486190Y-45458095D01*
X106581428Y-45505714D01*
X106771904Y-45505714D01*
X106867142Y-45458095D01*
X106914761Y-45410476D01*
X106962380Y-45315238D01*
X106962380Y-45124761D01*
X106914761Y-45029523D01*
X106867142Y-44981904D01*
X106771904Y-44934285D01*
X106581428Y-44934285D01*
X106486190Y-44981904D01*
X106438571Y-45029523D01*
X106390952Y-45124761D01*
%TO.C,U2*%
X30988095Y-42632380D02*
X30988095Y-43441904D01*
X31035714Y-43537142D01*
X31083333Y-43584761D01*
X31178571Y-43632380D01*
X31369047Y-43632380D01*
X31464285Y-43584761D01*
X31511904Y-43537142D01*
X31559523Y-43441904D01*
X31559523Y-42632380D01*
X31988095Y-42727619D02*
X32035714Y-42680000D01*
X32130952Y-42632380D01*
X32369047Y-42632380D01*
X32464285Y-42680000D01*
X32511904Y-42727619D01*
X32559523Y-42822857D01*
X32559523Y-42918095D01*
X32511904Y-43060952D01*
X31940476Y-43632380D01*
X32559523Y-43632380D01*
%TO.C,U3*%
X75438095Y-5802380D02*
X75438095Y-6611904D01*
X75485714Y-6707142D01*
X75533333Y-6754761D01*
X75628571Y-6802380D01*
X75819047Y-6802380D01*
X75914285Y-6754761D01*
X75961904Y-6707142D01*
X76009523Y-6611904D01*
X76009523Y-5802380D01*
X76390476Y-5802380D02*
X77009523Y-5802380D01*
X76676190Y-6183333D01*
X76819047Y-6183333D01*
X76914285Y-6230952D01*
X76961904Y-6278571D01*
X77009523Y-6373809D01*
X77009523Y-6611904D01*
X76961904Y-6707142D01*
X76914285Y-6754761D01*
X76819047Y-6802380D01*
X76533333Y-6802380D01*
X76438095Y-6754761D01*
X76390476Y-6707142D01*
%TO.C,U4*%
X107188095Y-5802380D02*
X107188095Y-6611904D01*
X107235714Y-6707142D01*
X107283333Y-6754761D01*
X107378571Y-6802380D01*
X107569047Y-6802380D01*
X107664285Y-6754761D01*
X107711904Y-6707142D01*
X107759523Y-6611904D01*
X107759523Y-5802380D01*
X108664285Y-6135714D02*
X108664285Y-6802380D01*
X108426190Y-5754761D02*
X108188095Y-6469047D01*
X108807142Y-6469047D01*
D13*
%TO.C,C1*%
X22740000Y-45620000D02*
X27980000Y-45620000D01*
X22740000Y-48045000D02*
X22740000Y-48360000D01*
X22740000Y-45620000D02*
X22740000Y-45935000D01*
X27980000Y-45620000D02*
X27980000Y-45935000D01*
X22740000Y-48360000D02*
X27980000Y-48360000D01*
X27980000Y-48045000D02*
X27980000Y-48360000D01*
%TO.C,C2*%
X81065000Y-10080000D02*
X81380000Y-10080000D01*
X78640000Y-10080000D02*
X78955000Y-10080000D01*
X78640000Y-15320000D02*
X78640000Y-10080000D01*
X81065000Y-15320000D02*
X81380000Y-15320000D01*
X81380000Y-15320000D02*
X81380000Y-10080000D01*
X78640000Y-15320000D02*
X78955000Y-15320000D01*
%TO.C,C3*%
X110390000Y-15320000D02*
X110390000Y-10080000D01*
X110390000Y-15320000D02*
X110705000Y-15320000D01*
X112815000Y-10080000D02*
X113130000Y-10080000D01*
X110390000Y-10080000D02*
X110705000Y-10080000D01*
X113130000Y-15320000D02*
X113130000Y-10080000D01*
X112815000Y-15320000D02*
X113130000Y-15320000D01*
%TO.C,D1*%
X49510000Y-35285000D02*
X49510000Y-38375000D01*
X55060000Y-36830462D02*
G75*
G03*
X49510000Y-35285170I-2990000J462D01*
G01*
X49510000Y-38374830D02*
G75*
G03*
X55060000Y-36829538I2560000J1544830D01*
G01*
X54570000Y-36830000D02*
G75*
G03*
X54570000Y-36830000I-2500000J0D01*
G01*
%TO.C,D2*%
X57130000Y-35285000D02*
X57130000Y-38375000D01*
X62680000Y-36830462D02*
G75*
G03*
X57130000Y-35285170I-2990000J462D01*
G01*
X57130000Y-38374830D02*
G75*
G03*
X62680000Y-36829538I2560000J1544830D01*
G01*
X62190000Y-36830000D02*
G75*
G03*
X62190000Y-36830000I-2500000J0D01*
G01*
%TO.C,D3*%
X64750000Y-35285000D02*
X64750000Y-38375000D01*
X64750000Y-38374830D02*
G75*
G03*
X70300000Y-36829538I2560000J1544830D01*
G01*
X70300000Y-36830462D02*
G75*
G03*
X64750000Y-35285170I-2990000J462D01*
G01*
X69810000Y-36830000D02*
G75*
G03*
X69810000Y-36830000I-2500000J0D01*
G01*
%TO.C,D4*%
X72370000Y-35285000D02*
X72370000Y-38375000D01*
X72370000Y-38374830D02*
G75*
G03*
X77920000Y-36829538I2560000J1544830D01*
G01*
X77920000Y-36830462D02*
G75*
G03*
X72370000Y-35285170I-2990000J462D01*
G01*
X77430000Y-36830000D02*
G75*
G03*
X77430000Y-36830000I-2500000J0D01*
G01*
%TO.C,D5*%
X79990000Y-35285000D02*
X79990000Y-38375000D01*
X85540000Y-36830462D02*
G75*
G03*
X79990000Y-35285170I-2990000J462D01*
G01*
X79990000Y-38374830D02*
G75*
G03*
X85540000Y-36829538I2560000J1544830D01*
G01*
X85050000Y-36830000D02*
G75*
G03*
X85050000Y-36830000I-2500000J0D01*
G01*
%TO.C,D6*%
X87610000Y-35285000D02*
X87610000Y-38375000D01*
X87610000Y-38374830D02*
G75*
G03*
X93160000Y-36829538I2560000J1544830D01*
G01*
X93160000Y-36830462D02*
G75*
G03*
X87610000Y-35285170I-2990000J462D01*
G01*
X92670000Y-36830000D02*
G75*
G03*
X92670000Y-36830000I-2500000J0D01*
G01*
%TO.C,D7*%
X95230000Y-35285000D02*
X95230000Y-38375000D01*
X95230000Y-38374830D02*
G75*
G03*
X100780000Y-36829538I2560000J1544830D01*
G01*
X100780000Y-36830462D02*
G75*
G03*
X95230000Y-35285170I-2990000J462D01*
G01*
X100290000Y-36830000D02*
G75*
G03*
X100290000Y-36830000I-2500000J0D01*
G01*
%TO.C,D8*%
X102850000Y-35285000D02*
X102850000Y-38375000D01*
X102850000Y-38374830D02*
G75*
G03*
X108400000Y-36829538I2560000J1544830D01*
G01*
X108400000Y-36830462D02*
G75*
G03*
X102850000Y-35285170I-2990000J462D01*
G01*
X107910000Y-36830000D02*
G75*
G03*
X107910000Y-36830000I-2500000J0D01*
G01*
%TO.C,J1*%
X5537071Y-33910000D02*
X5082929Y-33910000D01*
X2997071Y-19430000D02*
X2600000Y-19430000D01*
X-60000Y-47370000D02*
X-6060000Y-47370000D01*
X5537071Y-19430000D02*
X5082929Y-19430000D01*
X-6060000Y-37210000D02*
X-6060000Y-36450000D01*
X2997071Y-29590000D02*
X2600000Y-29590000D01*
X2997071Y-49910000D02*
X2600000Y-49910000D01*
X2997071Y-44830000D02*
X2600000Y-44830000D01*
X2997071Y-13590000D02*
X2600000Y-13590000D01*
X5537071Y-13590000D02*
X5082929Y-13590000D01*
X2600000Y-40640000D02*
X-60000Y-40640000D01*
X-60000Y-49730000D02*
X-6060000Y-49730000D01*
X2997071Y-49150000D02*
X2600000Y-49150000D01*
X2997071Y-3430000D02*
X2600000Y-3430000D01*
X-60000Y-42290000D02*
X-6060000Y-42290000D01*
X2997071Y-6730000D02*
X2600000Y-6730000D01*
X-60000Y-16890000D02*
X-6060000Y-16890000D01*
X-60000Y-39750000D02*
X-6060000Y-39750000D01*
X-6060000Y-42290000D02*
X-6060000Y-41530000D01*
X-60000Y-49850000D02*
X-6060000Y-49850000D01*
X7850000Y-49530000D02*
X7850000Y-50800000D01*
X2600000Y-45720000D02*
X-60000Y-45720000D01*
X-6060000Y-8510000D02*
X-60000Y-8510000D01*
X5537071Y-27050000D02*
X5082929Y-27050000D01*
X2600000Y60000D02*
X-60000Y60000D01*
X2600000Y-22860000D02*
X-60000Y-22860000D01*
X-6060000Y-24510000D02*
X-6060000Y-23750000D01*
X2997071Y-36450000D02*
X2600000Y-36450000D01*
X5537071Y-21210000D02*
X5082929Y-21210000D01*
X5537071Y-11050000D02*
X5082929Y-11050000D01*
X-6060000Y-28830000D02*
X-60000Y-28830000D01*
X2997071Y-14350000D02*
X2600000Y-14350000D01*
X-6060000Y-11050000D02*
X-60000Y-11050000D01*
X-6060000Y-23750000D02*
X-60000Y-23750000D01*
X2997071Y-33910000D02*
X2600000Y-33910000D01*
X-6060000Y-16890000D02*
X-6060000Y-16130000D01*
X2997071Y-16890000D02*
X2600000Y-16890000D01*
X2600000Y-43180000D02*
X-60000Y-43180000D01*
X2600000Y-5080000D02*
X-60000Y-5080000D01*
X-60000Y-32130000D02*
X-6060000Y-32130000D01*
X2600000Y-12700000D02*
X-60000Y-12700000D01*
X2997071Y-890000D02*
X2600000Y-890000D01*
X2997071Y-11810000D02*
X2600000Y-11810000D01*
X2997071Y-23750000D02*
X2600000Y-23750000D01*
X5470000Y-49910000D02*
X5082929Y-49910000D01*
X5537071Y-1650000D02*
X5082929Y-1650000D01*
X2600000Y-17780000D02*
X-60000Y-17780000D01*
X-6060000Y-44830000D02*
X-6060000Y-44070000D01*
X-6060000Y-49150000D02*
X-60000Y-49150000D01*
X2997071Y-28830000D02*
X2600000Y-28830000D01*
X-6060000Y-29590000D02*
X-6060000Y-28830000D01*
X-60000Y-24510000D02*
X-6060000Y-24510000D01*
X2997071Y-26290000D02*
X2600000Y-26290000D01*
X-6060000Y-19430000D02*
X-6060000Y-18670000D01*
X2600000Y-25400000D02*
X-60000Y-25400000D01*
X-6060000Y-27050000D02*
X-6060000Y-26290000D01*
X2600000Y-27940000D02*
X-60000Y-27940000D01*
X-60000Y-4190000D02*
X-6060000Y-4190000D01*
X-6060000Y-11810000D02*
X-6060000Y-11050000D01*
X2997071Y-21970000D02*
X2600000Y-21970000D01*
X-6060000Y-39750000D02*
X-6060000Y-38990000D01*
X-60000Y-34670000D02*
X-6060000Y-34670000D01*
X5537071Y-890000D02*
X5082929Y-890000D01*
X-60000Y-1650000D02*
X-6060000Y-1650000D01*
X5537071Y-24510000D02*
X5082929Y-24510000D01*
X-6060000Y-3430000D02*
X-60000Y-3430000D01*
X5537071Y-29590000D02*
X5082929Y-29590000D01*
X-6060000Y-44070000D02*
X-60000Y-44070000D01*
X5537071Y-37210000D02*
X5082929Y-37210000D01*
X5537071Y-39750000D02*
X5082929Y-39750000D01*
X5537071Y-23750000D02*
X5082929Y-23750000D01*
X2997071Y-11050000D02*
X2600000Y-11050000D01*
X5537071Y-46610000D02*
X5082929Y-46610000D01*
X-6060000Y-33910000D02*
X-60000Y-33910000D01*
X2997071Y-21210000D02*
X2600000Y-21210000D01*
X-60000Y-50860000D02*
X2600000Y-50860000D01*
X2997071Y-46610000D02*
X2600000Y-46610000D01*
X2997071Y-9270000D02*
X2600000Y-9270000D01*
X-6060000Y-34670000D02*
X-6060000Y-33910000D01*
X-6060000Y-18670000D02*
X-60000Y-18670000D01*
X2997071Y-42290000D02*
X2600000Y-42290000D01*
X-6060000Y-9270000D02*
X-6060000Y-8510000D01*
X2600000Y-2540000D02*
X-60000Y-2540000D01*
X5537071Y-4190000D02*
X5082929Y-4190000D01*
X-6060000Y-890000D02*
X-60000Y-890000D01*
X-6060000Y-5970000D02*
X-60000Y-5970000D01*
X-60000Y-49370000D02*
X-6060000Y-49370000D01*
X-6060000Y-21970000D02*
X-6060000Y-21210000D01*
X-60000Y-6730000D02*
X-6060000Y-6730000D01*
X-6060000Y-32130000D02*
X-6060000Y-31370000D01*
X-60000Y-19430000D02*
X-6060000Y-19430000D01*
X2600000Y-30480000D02*
X-60000Y-30480000D01*
X-6060000Y-16130000D02*
X-60000Y-16130000D01*
X5537071Y-44070000D02*
X5082929Y-44070000D01*
X5537071Y-11810000D02*
X5082929Y-11810000D01*
X2600000Y-10160000D02*
X-60000Y-10160000D01*
X2600000Y-33020000D02*
X-60000Y-33020000D01*
X-60000Y-27050000D02*
X-6060000Y-27050000D01*
X2997071Y-18670000D02*
X2600000Y-18670000D01*
X2600000Y-38100000D02*
X-60000Y-38100000D01*
X-6060000Y-1650000D02*
X-6060000Y-890000D01*
X5537071Y-41530000D02*
X5082929Y-41530000D01*
X5537071Y-6730000D02*
X5082929Y-6730000D01*
X-60000Y-29590000D02*
X-6060000Y-29590000D01*
X-60000Y60000D02*
X-60000Y-50860000D01*
X2997071Y-37210000D02*
X2600000Y-37210000D01*
X2997071Y-27050000D02*
X2600000Y-27050000D01*
X-60000Y-21970000D02*
X-6060000Y-21970000D01*
X-6060000Y-38990000D02*
X-60000Y-38990000D01*
X2600000Y-20320000D02*
X-60000Y-20320000D01*
X5537071Y-9270000D02*
X5082929Y-9270000D01*
X-6060000Y-36450000D02*
X-60000Y-36450000D01*
X5537071Y-3430000D02*
X5082929Y-3430000D01*
X2997071Y-8510000D02*
X2600000Y-8510000D01*
X5537071Y-14350000D02*
X5082929Y-14350000D01*
X5537071Y-31370000D02*
X5082929Y-31370000D01*
X5537071Y-47370000D02*
X5082929Y-47370000D01*
X-6060000Y-49910000D02*
X-6060000Y-49150000D01*
X5537071Y-38990000D02*
X5082929Y-38990000D01*
X5537071Y-36450000D02*
X5082929Y-36450000D01*
X-6060000Y-47370000D02*
X-6060000Y-46610000D01*
X5470000Y-49150000D02*
X5082929Y-49150000D01*
X2997071Y-16130000D02*
X2600000Y-16130000D01*
X5537071Y-16890000D02*
X5082929Y-16890000D01*
X2600000Y-48260000D02*
X-60000Y-48260000D01*
X5537071Y-5970000D02*
X5082929Y-5970000D01*
X2997071Y-24510000D02*
X2600000Y-24510000D01*
X2997071Y-32130000D02*
X2600000Y-32130000D01*
X5537071Y-21970000D02*
X5082929Y-21970000D01*
X-6060000Y-31370000D02*
X-60000Y-31370000D01*
X-6060000Y-4190000D02*
X-6060000Y-3430000D01*
X2997071Y-47370000D02*
X2600000Y-47370000D01*
X2997071Y-4190000D02*
X2600000Y-4190000D01*
X2600000Y-15240000D02*
X-60000Y-15240000D01*
X-60000Y-49910000D02*
X-6060000Y-49910000D01*
X5537071Y-18670000D02*
X5082929Y-18670000D01*
X5537071Y-26290000D02*
X5082929Y-26290000D01*
X5537071Y-34670000D02*
X5082929Y-34670000D01*
X-6060000Y-14350000D02*
X-6060000Y-13590000D01*
X-6060000Y-13590000D02*
X-60000Y-13590000D01*
X-60000Y-49610000D02*
X-6060000Y-49610000D01*
X5537071Y-28830000D02*
X5082929Y-28830000D01*
X-60000Y-14350000D02*
X-6060000Y-14350000D01*
X-60000Y-9270000D02*
X-6060000Y-9270000D01*
X5537071Y-8510000D02*
X5082929Y-8510000D01*
X-60000Y-37210000D02*
X-6060000Y-37210000D01*
X-60000Y-49250000D02*
X-6060000Y-49250000D01*
X2600000Y-7620000D02*
X-60000Y-7620000D01*
X-6060000Y-26290000D02*
X-60000Y-26290000D01*
X2997071Y-5970000D02*
X2600000Y-5970000D01*
X2997071Y-38990000D02*
X2600000Y-38990000D01*
X5537071Y-42290000D02*
X5082929Y-42290000D01*
X2997071Y-41530000D02*
X2600000Y-41530000D01*
X-60000Y-44830000D02*
X-6060000Y-44830000D01*
X2600000Y-35560000D02*
X-60000Y-35560000D01*
X-6060000Y-6730000D02*
X-6060000Y-5970000D01*
X-6060000Y-41530000D02*
X-60000Y-41530000D01*
X-60000Y-49490000D02*
X-6060000Y-49490000D01*
X2997071Y-34670000D02*
X2600000Y-34670000D01*
X5537071Y-16130000D02*
X5082929Y-16130000D01*
X-6060000Y-21210000D02*
X-60000Y-21210000D01*
X7850000Y-50800000D02*
X6580000Y-50800000D01*
X5537071Y-32130000D02*
X5082929Y-32130000D01*
X5537071Y-44830000D02*
X5082929Y-44830000D01*
X2997071Y-31370000D02*
X2600000Y-31370000D01*
X2997071Y-1650000D02*
X2600000Y-1650000D01*
X2997071Y-44070000D02*
X2600000Y-44070000D01*
X-6060000Y-46610000D02*
X-60000Y-46610000D01*
X2997071Y-39750000D02*
X2600000Y-39750000D01*
X-60000Y-11810000D02*
X-6060000Y-11810000D01*
X2600000Y-50860000D02*
X2600000Y60000D01*
%TO.C,R1*%
X52170000Y-48990000D02*
X51840000Y-48990000D01*
X52170000Y-42450000D02*
X52170000Y-48990000D01*
X49430000Y-48990000D02*
X49760000Y-48990000D01*
X51840000Y-42450000D02*
X52170000Y-42450000D01*
X49430000Y-42450000D02*
X49430000Y-48990000D01*
X49760000Y-42450000D02*
X49430000Y-42450000D01*
%TO.C,R2*%
X57380000Y-42450000D02*
X57050000Y-42450000D01*
X59460000Y-42450000D02*
X59790000Y-42450000D01*
X59790000Y-42450000D02*
X59790000Y-48990000D01*
X57050000Y-48990000D02*
X57380000Y-48990000D01*
X57050000Y-42450000D02*
X57050000Y-48990000D01*
X59790000Y-48990000D02*
X59460000Y-48990000D01*
%TO.C,R3*%
X67410000Y-48990000D02*
X67080000Y-48990000D01*
X67410000Y-42450000D02*
X67410000Y-48990000D01*
X65000000Y-42450000D02*
X64670000Y-42450000D01*
X64670000Y-42450000D02*
X64670000Y-48990000D01*
X64670000Y-48990000D02*
X65000000Y-48990000D01*
X67080000Y-42450000D02*
X67410000Y-42450000D01*
%TO.C,R4*%
X72620000Y-42450000D02*
X72290000Y-42450000D01*
X72290000Y-42450000D02*
X72290000Y-48990000D01*
X74700000Y-42450000D02*
X75030000Y-42450000D01*
X72290000Y-48990000D02*
X72620000Y-48990000D01*
X75030000Y-42450000D02*
X75030000Y-48990000D01*
X75030000Y-48990000D02*
X74700000Y-48990000D01*
%TO.C,R5*%
X79910000Y-48990000D02*
X80240000Y-48990000D01*
X80240000Y-42450000D02*
X79910000Y-42450000D01*
X79910000Y-42450000D02*
X79910000Y-48990000D01*
X82650000Y-48990000D02*
X82320000Y-48990000D01*
X82320000Y-42450000D02*
X82650000Y-42450000D01*
X82650000Y-42450000D02*
X82650000Y-48990000D01*
%TO.C,R6*%
X90270000Y-48990000D02*
X89940000Y-48990000D01*
X89940000Y-42450000D02*
X90270000Y-42450000D01*
X87860000Y-42450000D02*
X87530000Y-42450000D01*
X90270000Y-42450000D02*
X90270000Y-48990000D01*
X87530000Y-42450000D02*
X87530000Y-48990000D01*
X87530000Y-48990000D02*
X87860000Y-48990000D01*
%TO.C,R7*%
X95480000Y-42450000D02*
X95150000Y-42450000D01*
X97560000Y-42450000D02*
X97890000Y-42450000D01*
X95150000Y-48990000D02*
X95480000Y-48990000D01*
X97890000Y-48990000D02*
X97560000Y-48990000D01*
X97890000Y-42450000D02*
X97890000Y-48990000D01*
X95150000Y-42450000D02*
X95150000Y-48990000D01*
%TO.C,R8*%
X103100000Y-42450000D02*
X102770000Y-42450000D01*
X105510000Y-42450000D02*
X105510000Y-48990000D01*
X105510000Y-48990000D02*
X105180000Y-48990000D01*
X105180000Y-42450000D02*
X105510000Y-42450000D01*
X102770000Y-48990000D02*
X103100000Y-48990000D01*
X102770000Y-42450000D02*
X102770000Y-48990000D01*
%TO.C,U2*%
X23150000Y-44510000D02*
X24400000Y-44510000D01*
X27650000Y-18990000D02*
X23150000Y-18990000D01*
X23150000Y-18990000D02*
X23150000Y-44510000D01*
X27650000Y-44510000D02*
X27650000Y-18990000D01*
X26400000Y-44510000D02*
X27650000Y-44510000D01*
X26400000Y-44510000D02*
G75*
G03*
X24400000Y-44510000I-1000000J0D01*
G01*
%TO.C,U3*%
X77530000Y-11700000D02*
X77530000Y-10450000D01*
X57090000Y-14950000D02*
X77530000Y-14950000D01*
X57090000Y-10450000D02*
X57090000Y-14950000D01*
X77530000Y-10450000D02*
X57090000Y-10450000D01*
X77530000Y-14950000D02*
X77530000Y-13700000D01*
X77530000Y-11700000D02*
G75*
G03*
X77530000Y-13700000I0J-1000000D01*
G01*
%TO.C,U4*%
X109280000Y-14950000D02*
X109280000Y-13700000D01*
X88840000Y-10450000D02*
X88840000Y-14950000D01*
X109280000Y-11700000D02*
X109280000Y-10450000D01*
X109280000Y-10450000D02*
X88840000Y-10450000D01*
X88840000Y-14950000D02*
X109280000Y-14950000D01*
X109280000Y-11700000D02*
G75*
G03*
X109280000Y-13700000I0J-1000000D01*
G01*
D14*
%TO.C,G\u002A\u002A\u002A*%
X138246609Y-46103619D02*
X138373178Y-46143363D01*
X138373178Y-46143363D02*
X138483879Y-46208490D01*
X138483879Y-46208490D02*
X138552681Y-46265219D01*
X138552681Y-46265219D02*
X138629540Y-46349535D01*
X138629540Y-46349535D02*
X138684578Y-46448244D01*
X138684578Y-46448244D02*
X138720533Y-46570343D01*
X138720533Y-46570343D02*
X138740139Y-46724827D01*
X138740139Y-46724827D02*
X138746080Y-46901100D01*
X138746080Y-46901100D02*
X138747500Y-47180500D01*
X138747500Y-47180500D02*
X138347450Y-47187494D01*
X138347450Y-47187494D02*
X137947400Y-47194489D01*
X137947400Y-47194489D02*
X137947400Y-47471167D01*
X137947400Y-47471167D02*
X137948761Y-47588092D01*
X137948761Y-47588092D02*
X137952445Y-47688581D01*
X137952445Y-47688581D02*
X137957848Y-47760242D01*
X137957848Y-47760242D02*
X137962817Y-47788022D01*
X137962817Y-47788022D02*
X137998604Y-47818929D01*
X137998604Y-47818929D02*
X138049000Y-47828200D01*
X138049000Y-47828200D02*
X138092788Y-47823274D01*
X138092788Y-47823274D02*
X138121945Y-47802914D01*
X138121945Y-47802914D02*
X138139360Y-47758746D01*
X138139360Y-47758746D02*
X138147927Y-47682397D01*
X138147927Y-47682397D02*
X138150537Y-47565494D01*
X138150537Y-47565494D02*
X138150600Y-47534022D01*
X138150600Y-47534022D02*
X138150600Y-47320200D01*
X138150600Y-47320200D02*
X138767246Y-47320200D01*
X138767246Y-47320200D02*
X138754526Y-47543286D01*
X138754526Y-47543286D02*
X138727872Y-47739202D01*
X138727872Y-47739202D02*
X138670770Y-47897410D01*
X138670770Y-47897410D02*
X138580492Y-48022769D01*
X138580492Y-48022769D02*
X138454312Y-48120142D01*
X138454312Y-48120142D02*
X138420454Y-48138815D01*
X138420454Y-48138815D02*
X138322576Y-48172605D01*
X138322576Y-48172605D02*
X138192275Y-48194562D01*
X138192275Y-48194562D02*
X138046720Y-48203855D01*
X138046720Y-48203855D02*
X137903083Y-48199650D01*
X137903083Y-48199650D02*
X137778535Y-48181115D01*
X137778535Y-48181115D02*
X137744200Y-48171599D01*
X137744200Y-48171599D02*
X137599113Y-48100984D01*
X137599113Y-48100984D02*
X137471797Y-47994159D01*
X137471797Y-47994159D02*
X137381512Y-47870193D01*
X137381512Y-47870193D02*
X137363562Y-47834237D01*
X137363562Y-47834237D02*
X137349880Y-47797414D01*
X137349880Y-47797414D02*
X137339890Y-47752532D01*
X137339890Y-47752532D02*
X137333015Y-47692401D01*
X137333015Y-47692401D02*
X137328675Y-47609829D01*
X137328675Y-47609829D02*
X137326295Y-47497624D01*
X137326295Y-47497624D02*
X137325295Y-47348594D01*
X137325295Y-47348594D02*
X137325100Y-47167800D01*
X137325100Y-47167800D02*
X137325562Y-46971780D01*
X137325562Y-46971780D02*
X137327056Y-46837600D01*
X137327056Y-46837600D02*
X137945174Y-46837600D01*
X137945174Y-46837600D02*
X138125200Y-46837600D01*
X138125200Y-46837600D02*
X138124853Y-46704250D01*
X138124853Y-46704250D02*
X138121007Y-46586374D01*
X138121007Y-46586374D02*
X138108187Y-46511456D01*
X138108187Y-46511456D02*
X138083358Y-46472004D01*
X138083358Y-46472004D02*
X138043489Y-46460523D01*
X138043489Y-46460523D02*
X138026630Y-46461583D01*
X138026630Y-46461583D02*
X137992195Y-46468361D01*
X137992195Y-46468361D02*
X137971682Y-46486318D01*
X137971682Y-46486318D02*
X137960715Y-46526801D01*
X137960715Y-46526801D02*
X137954918Y-46601154D01*
X137954918Y-46601154D02*
X137952637Y-46653450D01*
X137952637Y-46653450D02*
X137945174Y-46837600D01*
X137945174Y-46837600D02*
X137327056Y-46837600D01*
X137327056Y-46837600D02*
X137327261Y-46819239D01*
X137327261Y-46819239D02*
X137330668Y-46702857D01*
X137330668Y-46702857D02*
X137336251Y-46615318D01*
X137336251Y-46615318D02*
X137344480Y-46549306D01*
X137344480Y-46549306D02*
X137355824Y-46497503D01*
X137355824Y-46497503D02*
X137370753Y-46452592D01*
X137370753Y-46452592D02*
X137371034Y-46451864D01*
X137371034Y-46451864D02*
X137450993Y-46311835D01*
X137450993Y-46311835D02*
X137568373Y-46202472D01*
X137568373Y-46202472D02*
X137718313Y-46126278D01*
X137718313Y-46126278D02*
X137895953Y-46085758D01*
X137895953Y-46085758D02*
X138087459Y-46082702D01*
X138087459Y-46082702D02*
X138246609Y-46103619D01*
X138246609Y-46103619D02*
X138246609Y-46103619D01*
G36*
X137330668Y-46702857D02*
G01*
X137336251Y-46615318D01*
X137344480Y-46549306D01*
X137355824Y-46497503D01*
X137370753Y-46452592D01*
X137371034Y-46451864D01*
X137450993Y-46311835D01*
X137568373Y-46202472D01*
X137718313Y-46126278D01*
X137895953Y-46085758D01*
X138087459Y-46082702D01*
X138246609Y-46103619D01*
X138373178Y-46143363D01*
X138483879Y-46208490D01*
X138552681Y-46265219D01*
X138629540Y-46349535D01*
X138684578Y-46448244D01*
X138720533Y-46570343D01*
X138740139Y-46724827D01*
X138746080Y-46901100D01*
X138747500Y-47180500D01*
X138347450Y-47187494D01*
X137947400Y-47194489D01*
X137947400Y-47471167D01*
X137948761Y-47588092D01*
X137952445Y-47688581D01*
X137957848Y-47760242D01*
X137962817Y-47788022D01*
X137998604Y-47818929D01*
X138049000Y-47828200D01*
X138092788Y-47823274D01*
X138121945Y-47802914D01*
X138139360Y-47758746D01*
X138147927Y-47682397D01*
X138150537Y-47565494D01*
X138150600Y-47534022D01*
X138150600Y-47320200D01*
X138767246Y-47320200D01*
X138754526Y-47543286D01*
X138727872Y-47739202D01*
X138670770Y-47897410D01*
X138580492Y-48022769D01*
X138454312Y-48120142D01*
X138420454Y-48138815D01*
X138322576Y-48172605D01*
X138192275Y-48194562D01*
X138046720Y-48203855D01*
X137903083Y-48199650D01*
X137778535Y-48181115D01*
X137744200Y-48171599D01*
X137599113Y-48100984D01*
X137471797Y-47994159D01*
X137381512Y-47870193D01*
X137363562Y-47834237D01*
X137349880Y-47797414D01*
X137339890Y-47752532D01*
X137333015Y-47692401D01*
X137328675Y-47609829D01*
X137326295Y-47497624D01*
X137325295Y-47348594D01*
X137325100Y-47167800D01*
X137325562Y-46971780D01*
X137327056Y-46837600D01*
X137945174Y-46837600D01*
X138125200Y-46837600D01*
X138124853Y-46704250D01*
X138121007Y-46586374D01*
X138108187Y-46511456D01*
X138083358Y-46472004D01*
X138043489Y-46460523D01*
X138026630Y-46461583D01*
X137992195Y-46468361D01*
X137971682Y-46486318D01*
X137960715Y-46526801D01*
X137954918Y-46601154D01*
X137952637Y-46653450D01*
X137945174Y-46837600D01*
X137327056Y-46837600D01*
X137327261Y-46819239D01*
X137330668Y-46702857D01*
G37*
X137330668Y-46702857D02*
X137336251Y-46615318D01*
X137344480Y-46549306D01*
X137355824Y-46497503D01*
X137370753Y-46452592D01*
X137371034Y-46451864D01*
X137450993Y-46311835D01*
X137568373Y-46202472D01*
X137718313Y-46126278D01*
X137895953Y-46085758D01*
X138087459Y-46082702D01*
X138246609Y-46103619D01*
X138373178Y-46143363D01*
X138483879Y-46208490D01*
X138552681Y-46265219D01*
X138629540Y-46349535D01*
X138684578Y-46448244D01*
X138720533Y-46570343D01*
X138740139Y-46724827D01*
X138746080Y-46901100D01*
X138747500Y-47180500D01*
X138347450Y-47187494D01*
X137947400Y-47194489D01*
X137947400Y-47471167D01*
X137948761Y-47588092D01*
X137952445Y-47688581D01*
X137957848Y-47760242D01*
X137962817Y-47788022D01*
X137998604Y-47818929D01*
X138049000Y-47828200D01*
X138092788Y-47823274D01*
X138121945Y-47802914D01*
X138139360Y-47758746D01*
X138147927Y-47682397D01*
X138150537Y-47565494D01*
X138150600Y-47534022D01*
X138150600Y-47320200D01*
X138767246Y-47320200D01*
X138754526Y-47543286D01*
X138727872Y-47739202D01*
X138670770Y-47897410D01*
X138580492Y-48022769D01*
X138454312Y-48120142D01*
X138420454Y-48138815D01*
X138322576Y-48172605D01*
X138192275Y-48194562D01*
X138046720Y-48203855D01*
X137903083Y-48199650D01*
X137778535Y-48181115D01*
X137744200Y-48171599D01*
X137599113Y-48100984D01*
X137471797Y-47994159D01*
X137381512Y-47870193D01*
X137363562Y-47834237D01*
X137349880Y-47797414D01*
X137339890Y-47752532D01*
X137333015Y-47692401D01*
X137328675Y-47609829D01*
X137326295Y-47497624D01*
X137325295Y-47348594D01*
X137325100Y-47167800D01*
X137325562Y-46971780D01*
X137327056Y-46837600D01*
X137945174Y-46837600D01*
X138125200Y-46837600D01*
X138124853Y-46704250D01*
X138121007Y-46586374D01*
X138108187Y-46511456D01*
X138083358Y-46472004D01*
X138043489Y-46460523D01*
X138026630Y-46461583D01*
X137992195Y-46468361D01*
X137971682Y-46486318D01*
X137960715Y-46526801D01*
X137954918Y-46601154D01*
X137952637Y-46653450D01*
X137945174Y-46837600D01*
X137327056Y-46837600D01*
X137327261Y-46819239D01*
X137330668Y-46702857D01*
X139802998Y-46092499D02*
X139918224Y-46121963D01*
X139918224Y-46121963D02*
X140077175Y-46195553D01*
X140077175Y-46195553D02*
X140194815Y-46294391D01*
X140194815Y-46294391D02*
X140274395Y-46422965D01*
X140274395Y-46422965D02*
X140319165Y-46585760D01*
X140319165Y-46585760D02*
X140330059Y-46690308D01*
X140330059Y-46690308D02*
X140341527Y-46888400D01*
X140341527Y-46888400D02*
X139750800Y-46888400D01*
X139750800Y-46888400D02*
X139750411Y-46704250D01*
X139750411Y-46704250D02*
X139746792Y-46585991D01*
X139746792Y-46585991D02*
X139734394Y-46510701D01*
X139734394Y-46510701D02*
X139709999Y-46470856D01*
X139709999Y-46470856D02*
X139670391Y-46458931D01*
X139670391Y-46458931D02*
X139646327Y-46460727D01*
X139646327Y-46460727D02*
X139585700Y-46469300D01*
X139585700Y-46469300D02*
X139578904Y-47098787D01*
X139578904Y-47098787D02*
X139577647Y-47322645D01*
X139577647Y-47322645D02*
X139579097Y-47504828D01*
X139579097Y-47504828D02*
X139583188Y-47643060D01*
X139583188Y-47643060D02*
X139589854Y-47735063D01*
X139589854Y-47735063D02*
X139598848Y-47778237D01*
X139598848Y-47778237D02*
X139640363Y-47815957D01*
X139640363Y-47815957D02*
X139696269Y-47826982D01*
X139696269Y-47826982D02*
X139744899Y-47810003D01*
X139744899Y-47810003D02*
X139760782Y-47788022D01*
X139760782Y-47788022D02*
X139767915Y-47745012D01*
X139767915Y-47745012D02*
X139773299Y-47666048D01*
X139773299Y-47666048D02*
X139776031Y-47565970D01*
X139776031Y-47565970D02*
X139776200Y-47534022D01*
X139776200Y-47534022D02*
X139776200Y-47320200D01*
X139776200Y-47320200D02*
X140335000Y-47320200D01*
X140335000Y-47320200D02*
X140334858Y-47504350D01*
X140334858Y-47504350D02*
X140328700Y-47656808D01*
X140328700Y-47656808D02*
X140307047Y-47774936D01*
X140307047Y-47774936D02*
X140264725Y-47874147D01*
X140264725Y-47874147D02*
X140196560Y-47969850D01*
X140196560Y-47969850D02*
X140167267Y-48003562D01*
X140167267Y-48003562D02*
X140080418Y-48088984D01*
X140080418Y-48088984D02*
X139997084Y-48142519D01*
X139997084Y-48142519D02*
X139921985Y-48170711D01*
X139921985Y-48170711D02*
X139771266Y-48199007D01*
X139771266Y-48199007D02*
X139599984Y-48205500D01*
X139599984Y-48205500D02*
X139433126Y-48190297D01*
X139433126Y-48190297D02*
X139336965Y-48168245D01*
X139336965Y-48168245D02*
X139199807Y-48101070D01*
X139199807Y-48101070D02*
X139085477Y-47996228D01*
X139085477Y-47996228D02*
X139005364Y-47865259D01*
X139005364Y-47865259D02*
X138987034Y-47813734D01*
X138987034Y-47813734D02*
X138974024Y-47752736D01*
X138974024Y-47752736D02*
X138964202Y-47667201D01*
X138964202Y-47667201D02*
X138957276Y-47551294D01*
X138957276Y-47551294D02*
X138952951Y-47399180D01*
X138952951Y-47399180D02*
X138950934Y-47205023D01*
X138950934Y-47205023D02*
X138950700Y-47091600D01*
X138950700Y-47091600D02*
X138950875Y-46901922D01*
X138950875Y-46901922D02*
X138951808Y-46755920D01*
X138951808Y-46755920D02*
X138954106Y-46646470D01*
X138954106Y-46646470D02*
X138958375Y-46566446D01*
X138958375Y-46566446D02*
X138965224Y-46508725D01*
X138965224Y-46508725D02*
X138975260Y-46466182D01*
X138975260Y-46466182D02*
X138989091Y-46431694D01*
X138989091Y-46431694D02*
X139007324Y-46398135D01*
X139007324Y-46398135D02*
X139010266Y-46393100D01*
X139010266Y-46393100D02*
X139066225Y-46313898D01*
X139066225Y-46313898D02*
X139131370Y-46243165D01*
X139131370Y-46243165D02*
X139147642Y-46229083D01*
X139147642Y-46229083D02*
X139283033Y-46149602D01*
X139283033Y-46149602D02*
X139447049Y-46099001D01*
X139447049Y-46099001D02*
X139625200Y-46079296D01*
X139625200Y-46079296D02*
X139802998Y-46092499D01*
X139802998Y-46092499D02*
X139802998Y-46092499D01*
G36*
X139802998Y-46092499D02*
G01*
X139918224Y-46121963D01*
X140077175Y-46195553D01*
X140194815Y-46294391D01*
X140274395Y-46422965D01*
X140319165Y-46585760D01*
X140330059Y-46690308D01*
X140341527Y-46888400D01*
X139750800Y-46888400D01*
X139750411Y-46704250D01*
X139746792Y-46585991D01*
X139734394Y-46510701D01*
X139709999Y-46470856D01*
X139670391Y-46458931D01*
X139646327Y-46460727D01*
X139585700Y-46469300D01*
X139578904Y-47098787D01*
X139577647Y-47322645D01*
X139579097Y-47504828D01*
X139583188Y-47643060D01*
X139589854Y-47735063D01*
X139598848Y-47778237D01*
X139640363Y-47815957D01*
X139696269Y-47826982D01*
X139744899Y-47810003D01*
X139760782Y-47788022D01*
X139767915Y-47745012D01*
X139773299Y-47666048D01*
X139776031Y-47565970D01*
X139776200Y-47534022D01*
X139776200Y-47320200D01*
X140335000Y-47320200D01*
X140334858Y-47504350D01*
X140328700Y-47656808D01*
X140307047Y-47774936D01*
X140264725Y-47874147D01*
X140196560Y-47969850D01*
X140167267Y-48003562D01*
X140080418Y-48088984D01*
X139997084Y-48142519D01*
X139921985Y-48170711D01*
X139771266Y-48199007D01*
X139599984Y-48205500D01*
X139433126Y-48190297D01*
X139336965Y-48168245D01*
X139199807Y-48101070D01*
X139085477Y-47996228D01*
X139005364Y-47865259D01*
X138987034Y-47813734D01*
X138974024Y-47752736D01*
X138964202Y-47667201D01*
X138957276Y-47551294D01*
X138952951Y-47399180D01*
X138950934Y-47205023D01*
X138950700Y-47091600D01*
X138950875Y-46901922D01*
X138951808Y-46755920D01*
X138954106Y-46646470D01*
X138958375Y-46566446D01*
X138965224Y-46508725D01*
X138975260Y-46466182D01*
X138989091Y-46431694D01*
X139007324Y-46398135D01*
X139010266Y-46393100D01*
X139066225Y-46313898D01*
X139131370Y-46243165D01*
X139147642Y-46229083D01*
X139283033Y-46149602D01*
X139447049Y-46099001D01*
X139625200Y-46079296D01*
X139802998Y-46092499D01*
G37*
X139802998Y-46092499D02*
X139918224Y-46121963D01*
X140077175Y-46195553D01*
X140194815Y-46294391D01*
X140274395Y-46422965D01*
X140319165Y-46585760D01*
X140330059Y-46690308D01*
X140341527Y-46888400D01*
X139750800Y-46888400D01*
X139750411Y-46704250D01*
X139746792Y-46585991D01*
X139734394Y-46510701D01*
X139709999Y-46470856D01*
X139670391Y-46458931D01*
X139646327Y-46460727D01*
X139585700Y-46469300D01*
X139578904Y-47098787D01*
X139577647Y-47322645D01*
X139579097Y-47504828D01*
X139583188Y-47643060D01*
X139589854Y-47735063D01*
X139598848Y-47778237D01*
X139640363Y-47815957D01*
X139696269Y-47826982D01*
X139744899Y-47810003D01*
X139760782Y-47788022D01*
X139767915Y-47745012D01*
X139773299Y-47666048D01*
X139776031Y-47565970D01*
X139776200Y-47534022D01*
X139776200Y-47320200D01*
X140335000Y-47320200D01*
X140334858Y-47504350D01*
X140328700Y-47656808D01*
X140307047Y-47774936D01*
X140264725Y-47874147D01*
X140196560Y-47969850D01*
X140167267Y-48003562D01*
X140080418Y-48088984D01*
X139997084Y-48142519D01*
X139921985Y-48170711D01*
X139771266Y-48199007D01*
X139599984Y-48205500D01*
X139433126Y-48190297D01*
X139336965Y-48168245D01*
X139199807Y-48101070D01*
X139085477Y-47996228D01*
X139005364Y-47865259D01*
X138987034Y-47813734D01*
X138974024Y-47752736D01*
X138964202Y-47667201D01*
X138957276Y-47551294D01*
X138952951Y-47399180D01*
X138950934Y-47205023D01*
X138950700Y-47091600D01*
X138950875Y-46901922D01*
X138951808Y-46755920D01*
X138954106Y-46646470D01*
X138958375Y-46566446D01*
X138965224Y-46508725D01*
X138975260Y-46466182D01*
X138989091Y-46431694D01*
X139007324Y-46398135D01*
X139010266Y-46393100D01*
X139066225Y-46313898D01*
X139131370Y-46243165D01*
X139147642Y-46229083D01*
X139283033Y-46149602D01*
X139447049Y-46099001D01*
X139625200Y-46079296D01*
X139802998Y-46092499D01*
X143458467Y-46092455D02*
X143550118Y-46101623D01*
X143550118Y-46101623D02*
X143623213Y-46119671D01*
X143623213Y-46119671D02*
X143693812Y-46149271D01*
X143693812Y-46149271D02*
X143694844Y-46149772D01*
X143694844Y-46149772D02*
X143810035Y-46224281D01*
X143810035Y-46224281D02*
X143912372Y-46323885D01*
X143912372Y-46323885D02*
X143988421Y-46433785D01*
X143988421Y-46433785D02*
X144017959Y-46505740D01*
X144017959Y-46505740D02*
X144028886Y-46574155D01*
X144028886Y-46574155D02*
X144036863Y-46683106D01*
X144036863Y-46683106D02*
X144041984Y-46822416D01*
X144041984Y-46822416D02*
X144044343Y-46981911D01*
X144044343Y-46981911D02*
X144044033Y-47151419D01*
X144044033Y-47151419D02*
X144041148Y-47320764D01*
X144041148Y-47320764D02*
X144035782Y-47479772D01*
X144035782Y-47479772D02*
X144028030Y-47618269D01*
X144028030Y-47618269D02*
X144017983Y-47726081D01*
X144017983Y-47726081D02*
X144006100Y-47791839D01*
X144006100Y-47791839D02*
X143936276Y-47940714D01*
X143936276Y-47940714D02*
X143823867Y-48062087D01*
X143823867Y-48062087D02*
X143710414Y-48135508D01*
X143710414Y-48135508D02*
X143599258Y-48174689D01*
X143599258Y-48174689D02*
X143456567Y-48198542D01*
X143456567Y-48198542D02*
X143299437Y-48206423D01*
X143299437Y-48206423D02*
X143144963Y-48197690D01*
X143144963Y-48197690D02*
X143010241Y-48171700D01*
X143010241Y-48171700D02*
X142982890Y-48162874D01*
X142982890Y-48162874D02*
X142863837Y-48111085D01*
X142863837Y-48111085D02*
X142778802Y-48047291D01*
X142778802Y-48047291D02*
X142711040Y-47957530D01*
X142711040Y-47957530D02*
X142688147Y-47917100D01*
X142688147Y-47917100D02*
X142670619Y-47881198D01*
X142670619Y-47881198D02*
X142657132Y-47842446D01*
X142657132Y-47842446D02*
X142647034Y-47793633D01*
X142647034Y-47793633D02*
X142639675Y-47727549D01*
X142639675Y-47727549D02*
X142634404Y-47636982D01*
X142634404Y-47636982D02*
X142630570Y-47514724D01*
X142630570Y-47514724D02*
X142627523Y-47353562D01*
X142627523Y-47353562D02*
X142625657Y-47224571D01*
X142625657Y-47224571D02*
X142624234Y-47059827D01*
X142624234Y-47059827D02*
X143234685Y-47059827D01*
X143234685Y-47059827D02*
X143235784Y-47214504D01*
X143235784Y-47214504D02*
X143238416Y-47367846D01*
X143238416Y-47367846D02*
X143242451Y-47510792D01*
X143242451Y-47510792D02*
X143247757Y-47634281D01*
X143247757Y-47634281D02*
X143254205Y-47729251D01*
X143254205Y-47729251D02*
X143261663Y-47786641D01*
X143261663Y-47786641D02*
X143265382Y-47797902D01*
X143265382Y-47797902D02*
X143304578Y-47821461D01*
X143304578Y-47821461D02*
X143340946Y-47823302D01*
X143340946Y-47823302D02*
X143357380Y-47819891D01*
X143357380Y-47819891D02*
X143370145Y-47811065D01*
X143370145Y-47811065D02*
X143379705Y-47791060D01*
X143379705Y-47791060D02*
X143386522Y-47754114D01*
X143386522Y-47754114D02*
X143391061Y-47694461D01*
X143391061Y-47694461D02*
X143393785Y-47606339D01*
X143393785Y-47606339D02*
X143395157Y-47483983D01*
X143395157Y-47483983D02*
X143395640Y-47321630D01*
X143395640Y-47321630D02*
X143395700Y-47142400D01*
X143395700Y-47142400D02*
X143395700Y-46469300D01*
X143395700Y-46469300D02*
X143332549Y-46469300D01*
X143332549Y-46469300D02*
X143295496Y-46474356D01*
X143295496Y-46474356D02*
X143273036Y-46497640D01*
X143273036Y-46497640D02*
X143257824Y-46551320D01*
X143257824Y-46551320D02*
X143248235Y-46609000D01*
X143248235Y-46609000D02*
X143241895Y-46678402D01*
X143241895Y-46678402D02*
X143237610Y-46782715D01*
X143237610Y-46782715D02*
X143235250Y-46912877D01*
X143235250Y-46912877D02*
X143234685Y-47059827D01*
X143234685Y-47059827D02*
X142624234Y-47059827D01*
X142624234Y-47059827D02*
X142623695Y-46997436D01*
X142623695Y-46997436D02*
X142625445Y-46814447D01*
X142625445Y-46814447D02*
X142632102Y-46669011D01*
X142632102Y-46669011D02*
X142644859Y-46554536D01*
X142644859Y-46554536D02*
X142664909Y-46464431D01*
X142664909Y-46464431D02*
X142693445Y-46392103D01*
X142693445Y-46392103D02*
X142731660Y-46330960D01*
X142731660Y-46330960D02*
X142780747Y-46274410D01*
X142780747Y-46274410D02*
X142801365Y-46253854D01*
X142801365Y-46253854D02*
X142886961Y-46181693D01*
X142886961Y-46181693D02*
X142976405Y-46133122D01*
X142976405Y-46133122D02*
X143082205Y-46104270D01*
X143082205Y-46104270D02*
X143216868Y-46091264D01*
X143216868Y-46091264D02*
X143332200Y-46089499D01*
X143332200Y-46089499D02*
X143458467Y-46092455D01*
X143458467Y-46092455D02*
X143458467Y-46092455D01*
G36*
X142625445Y-46814447D02*
G01*
X142632102Y-46669011D01*
X142644859Y-46554536D01*
X142664909Y-46464431D01*
X142693445Y-46392103D01*
X142731660Y-46330960D01*
X142780747Y-46274410D01*
X142801365Y-46253854D01*
X142886961Y-46181693D01*
X142976405Y-46133122D01*
X143082205Y-46104270D01*
X143216868Y-46091264D01*
X143332200Y-46089499D01*
X143458467Y-46092455D01*
X143550118Y-46101623D01*
X143623213Y-46119671D01*
X143693812Y-46149271D01*
X143694844Y-46149772D01*
X143810035Y-46224281D01*
X143912372Y-46323885D01*
X143988421Y-46433785D01*
X144017959Y-46505740D01*
X144028886Y-46574155D01*
X144036863Y-46683106D01*
X144041984Y-46822416D01*
X144044343Y-46981911D01*
X144044033Y-47151419D01*
X144041148Y-47320764D01*
X144035782Y-47479772D01*
X144028030Y-47618269D01*
X144017983Y-47726081D01*
X144006100Y-47791839D01*
X143936276Y-47940714D01*
X143823867Y-48062087D01*
X143710414Y-48135508D01*
X143599258Y-48174689D01*
X143456567Y-48198542D01*
X143299437Y-48206423D01*
X143144963Y-48197690D01*
X143010241Y-48171700D01*
X142982890Y-48162874D01*
X142863837Y-48111085D01*
X142778802Y-48047291D01*
X142711040Y-47957530D01*
X142688147Y-47917100D01*
X142670619Y-47881198D01*
X142657132Y-47842446D01*
X142647034Y-47793633D01*
X142639675Y-47727549D01*
X142634404Y-47636982D01*
X142630570Y-47514724D01*
X142627523Y-47353562D01*
X142625657Y-47224571D01*
X142624234Y-47059827D01*
X143234685Y-47059827D01*
X143235784Y-47214504D01*
X143238416Y-47367846D01*
X143242451Y-47510792D01*
X143247757Y-47634281D01*
X143254205Y-47729251D01*
X143261663Y-47786641D01*
X143265382Y-47797902D01*
X143304578Y-47821461D01*
X143340946Y-47823302D01*
X143357380Y-47819891D01*
X143370145Y-47811065D01*
X143379705Y-47791060D01*
X143386522Y-47754114D01*
X143391061Y-47694461D01*
X143393785Y-47606339D01*
X143395157Y-47483983D01*
X143395640Y-47321630D01*
X143395700Y-47142400D01*
X143395700Y-46469300D01*
X143332549Y-46469300D01*
X143295496Y-46474356D01*
X143273036Y-46497640D01*
X143257824Y-46551320D01*
X143248235Y-46609000D01*
X143241895Y-46678402D01*
X143237610Y-46782715D01*
X143235250Y-46912877D01*
X143234685Y-47059827D01*
X142624234Y-47059827D01*
X142623695Y-46997436D01*
X142625445Y-46814447D01*
G37*
X142625445Y-46814447D02*
X142632102Y-46669011D01*
X142644859Y-46554536D01*
X142664909Y-46464431D01*
X142693445Y-46392103D01*
X142731660Y-46330960D01*
X142780747Y-46274410D01*
X142801365Y-46253854D01*
X142886961Y-46181693D01*
X142976405Y-46133122D01*
X143082205Y-46104270D01*
X143216868Y-46091264D01*
X143332200Y-46089499D01*
X143458467Y-46092455D01*
X143550118Y-46101623D01*
X143623213Y-46119671D01*
X143693812Y-46149271D01*
X143694844Y-46149772D01*
X143810035Y-46224281D01*
X143912372Y-46323885D01*
X143988421Y-46433785D01*
X144017959Y-46505740D01*
X144028886Y-46574155D01*
X144036863Y-46683106D01*
X144041984Y-46822416D01*
X144044343Y-46981911D01*
X144044033Y-47151419D01*
X144041148Y-47320764D01*
X144035782Y-47479772D01*
X144028030Y-47618269D01*
X144017983Y-47726081D01*
X144006100Y-47791839D01*
X143936276Y-47940714D01*
X143823867Y-48062087D01*
X143710414Y-48135508D01*
X143599258Y-48174689D01*
X143456567Y-48198542D01*
X143299437Y-48206423D01*
X143144963Y-48197690D01*
X143010241Y-48171700D01*
X142982890Y-48162874D01*
X142863837Y-48111085D01*
X142778802Y-48047291D01*
X142711040Y-47957530D01*
X142688147Y-47917100D01*
X142670619Y-47881198D01*
X142657132Y-47842446D01*
X142647034Y-47793633D01*
X142639675Y-47727549D01*
X142634404Y-47636982D01*
X142630570Y-47514724D01*
X142627523Y-47353562D01*
X142625657Y-47224571D01*
X142624234Y-47059827D01*
X143234685Y-47059827D01*
X143235784Y-47214504D01*
X143238416Y-47367846D01*
X143242451Y-47510792D01*
X143247757Y-47634281D01*
X143254205Y-47729251D01*
X143261663Y-47786641D01*
X143265382Y-47797902D01*
X143304578Y-47821461D01*
X143340946Y-47823302D01*
X143357380Y-47819891D01*
X143370145Y-47811065D01*
X143379705Y-47791060D01*
X143386522Y-47754114D01*
X143391061Y-47694461D01*
X143393785Y-47606339D01*
X143395157Y-47483983D01*
X143395640Y-47321630D01*
X143395700Y-47142400D01*
X143395700Y-46469300D01*
X143332549Y-46469300D01*
X143295496Y-46474356D01*
X143273036Y-46497640D01*
X143257824Y-46551320D01*
X143248235Y-46609000D01*
X143241895Y-46678402D01*
X143237610Y-46782715D01*
X143235250Y-46912877D01*
X143234685Y-47059827D01*
X142624234Y-47059827D01*
X142623695Y-46997436D01*
X142625445Y-46814447D01*
X146558000Y-48183800D02*
X145923000Y-48183800D01*
X145923000Y-48183800D02*
X145923000Y-46101000D01*
X145923000Y-46101000D02*
X146558000Y-46101000D01*
X146558000Y-46101000D02*
X146558000Y-48183800D01*
X146558000Y-48183800D02*
X146558000Y-48183800D01*
G36*
X146558000Y-48183800D02*
G01*
X145923000Y-48183800D01*
X145923000Y-46101000D01*
X146558000Y-46101000D01*
X146558000Y-48183800D01*
G37*
X146558000Y-48183800D02*
X145923000Y-48183800D01*
X145923000Y-46101000D01*
X146558000Y-46101000D01*
X146558000Y-48183800D01*
X135534400Y-46089499D02*
X135715803Y-46100439D01*
X135715803Y-46100439D02*
X135860600Y-46133996D01*
X135860600Y-46133996D02*
X135979504Y-46194305D01*
X135979504Y-46194305D02*
X136083227Y-46285500D01*
X136083227Y-46285500D02*
X136104598Y-46309563D01*
X136104598Y-46309563D02*
X136168415Y-46402826D01*
X136168415Y-46402826D02*
X136213280Y-46515508D01*
X136213280Y-46515508D02*
X136241343Y-46656340D01*
X136241343Y-46656340D02*
X136254755Y-46834055D01*
X136254755Y-46834055D02*
X136256572Y-46926500D01*
X136256572Y-46926500D02*
X136258300Y-47180500D01*
X136258300Y-47180500D02*
X135857473Y-47187498D01*
X135857473Y-47187498D02*
X135456646Y-47194497D01*
X135456646Y-47194497D02*
X135463773Y-47504998D01*
X135463773Y-47504998D02*
X135467079Y-47634869D01*
X135467079Y-47634869D02*
X135471182Y-47722577D01*
X135471182Y-47722577D02*
X135477952Y-47776744D01*
X135477952Y-47776744D02*
X135489258Y-47805997D01*
X135489258Y-47805997D02*
X135506969Y-47818961D01*
X135506969Y-47818961D02*
X135532955Y-47824259D01*
X135532955Y-47824259D02*
X135532976Y-47824262D01*
X135532976Y-47824262D02*
X135588788Y-47820219D01*
X135588788Y-47820219D02*
X135626959Y-47785860D01*
X135626959Y-47785860D02*
X135649956Y-47715553D01*
X135649956Y-47715553D02*
X135660247Y-47603668D01*
X135660247Y-47603668D02*
X135661400Y-47531245D01*
X135661400Y-47531245D02*
X135661400Y-47320200D01*
X135661400Y-47320200D02*
X136278545Y-47320200D01*
X136278545Y-47320200D02*
X136263491Y-47533521D01*
X136263491Y-47533521D02*
X136236297Y-47730188D01*
X136236297Y-47730188D02*
X136183358Y-47887278D01*
X136183358Y-47887278D02*
X136101388Y-48010775D01*
X136101388Y-48010775D02*
X135987100Y-48106667D01*
X135987100Y-48106667D02*
X135931254Y-48138815D01*
X135931254Y-48138815D02*
X135820060Y-48177515D01*
X135820060Y-48177515D02*
X135677799Y-48199876D01*
X135677799Y-48199876D02*
X135521686Y-48205356D01*
X135521686Y-48205356D02*
X135368937Y-48193408D01*
X135368937Y-48193408D02*
X135236768Y-48163488D01*
X135236768Y-48163488D02*
X135229600Y-48161014D01*
X135229600Y-48161014D02*
X135084155Y-48085466D01*
X135084155Y-48085466D02*
X134964467Y-47975368D01*
X134964467Y-47975368D02*
X134879754Y-47840765D01*
X134879754Y-47840765D02*
X134847850Y-47745058D01*
X134847850Y-47745058D02*
X134836202Y-47658316D01*
X134836202Y-47658316D02*
X134828799Y-47523256D01*
X134828799Y-47523256D02*
X134825710Y-47342191D01*
X134825710Y-47342191D02*
X134827003Y-47117430D01*
X134827003Y-47117430D02*
X134827815Y-47066200D01*
X134827815Y-47066200D02*
X134832090Y-46865402D01*
X134832090Y-46865402D02*
X134833151Y-46837600D01*
X134833151Y-46837600D02*
X135455974Y-46837600D01*
X135455974Y-46837600D02*
X135545987Y-46837600D01*
X135545987Y-46837600D02*
X135601845Y-46835078D01*
X135601845Y-46835078D02*
X135627911Y-46818166D01*
X135627911Y-46818166D02*
X135635544Y-46772844D01*
X135635544Y-46772844D02*
X135636000Y-46726475D01*
X135636000Y-46726475D02*
X135632114Y-46634938D01*
X135632114Y-46634938D02*
X135622506Y-46549389D01*
X135622506Y-46549389D02*
X135619854Y-46534620D01*
X135619854Y-46534620D02*
X135602242Y-46478914D01*
X135602242Y-46478914D02*
X135570682Y-46460380D01*
X135570682Y-46460380D02*
X135537304Y-46461595D01*
X135537304Y-46461595D02*
X135502933Y-46468382D01*
X135502933Y-46468382D02*
X135482455Y-46486381D01*
X135482455Y-46486381D02*
X135471502Y-46526936D01*
X135471502Y-46526936D02*
X135465707Y-46601392D01*
X135465707Y-46601392D02*
X135463437Y-46653450D01*
X135463437Y-46653450D02*
X135455974Y-46837600D01*
X135455974Y-46837600D02*
X134833151Y-46837600D01*
X134833151Y-46837600D02*
X134838100Y-46708056D01*
X134838100Y-46708056D02*
X134847347Y-46586814D01*
X134847347Y-46586814D02*
X134861337Y-46494330D01*
X134861337Y-46494330D02*
X134881573Y-46423254D01*
X134881573Y-46423254D02*
X134909561Y-46366240D01*
X134909561Y-46366240D02*
X134946804Y-46315940D01*
X134946804Y-46315940D02*
X134991093Y-46268718D01*
X134991093Y-46268718D02*
X135093341Y-46184601D01*
X135093341Y-46184601D02*
X135208700Y-46129185D01*
X135208700Y-46129185D02*
X135348531Y-46098724D01*
X135348531Y-46098724D02*
X135524193Y-46089470D01*
X135524193Y-46089470D02*
X135534400Y-46089499D01*
X135534400Y-46089499D02*
X135534400Y-46089499D01*
G36*
X134847347Y-46586814D02*
G01*
X134861337Y-46494330D01*
X134881573Y-46423254D01*
X134909561Y-46366240D01*
X134946804Y-46315940D01*
X134991093Y-46268718D01*
X135093341Y-46184601D01*
X135208700Y-46129185D01*
X135348531Y-46098724D01*
X135524193Y-46089470D01*
X135534400Y-46089499D01*
X135715803Y-46100439D01*
X135860600Y-46133996D01*
X135979504Y-46194305D01*
X136083227Y-46285500D01*
X136104598Y-46309563D01*
X136168415Y-46402826D01*
X136213280Y-46515508D01*
X136241343Y-46656340D01*
X136254755Y-46834055D01*
X136256572Y-46926500D01*
X136258300Y-47180500D01*
X135857473Y-47187498D01*
X135456646Y-47194497D01*
X135463773Y-47504998D01*
X135467079Y-47634869D01*
X135471182Y-47722577D01*
X135477952Y-47776744D01*
X135489258Y-47805997D01*
X135506969Y-47818961D01*
X135532955Y-47824259D01*
X135532976Y-47824262D01*
X135588788Y-47820219D01*
X135626959Y-47785860D01*
X135649956Y-47715553D01*
X135660247Y-47603668D01*
X135661400Y-47531245D01*
X135661400Y-47320200D01*
X136278545Y-47320200D01*
X136263491Y-47533521D01*
X136236297Y-47730188D01*
X136183358Y-47887278D01*
X136101388Y-48010775D01*
X135987100Y-48106667D01*
X135931254Y-48138815D01*
X135820060Y-48177515D01*
X135677799Y-48199876D01*
X135521686Y-48205356D01*
X135368937Y-48193408D01*
X135236768Y-48163488D01*
X135229600Y-48161014D01*
X135084155Y-48085466D01*
X134964467Y-47975368D01*
X134879754Y-47840765D01*
X134847850Y-47745058D01*
X134836202Y-47658316D01*
X134828799Y-47523256D01*
X134825710Y-47342191D01*
X134827003Y-47117430D01*
X134827815Y-47066200D01*
X134832090Y-46865402D01*
X134833151Y-46837600D01*
X135455974Y-46837600D01*
X135545987Y-46837600D01*
X135601845Y-46835078D01*
X135627911Y-46818166D01*
X135635544Y-46772844D01*
X135636000Y-46726475D01*
X135632114Y-46634938D01*
X135622506Y-46549389D01*
X135619854Y-46534620D01*
X135602242Y-46478914D01*
X135570682Y-46460380D01*
X135537304Y-46461595D01*
X135502933Y-46468382D01*
X135482455Y-46486381D01*
X135471502Y-46526936D01*
X135465707Y-46601392D01*
X135463437Y-46653450D01*
X135455974Y-46837600D01*
X134833151Y-46837600D01*
X134838100Y-46708056D01*
X134847347Y-46586814D01*
G37*
X134847347Y-46586814D02*
X134861337Y-46494330D01*
X134881573Y-46423254D01*
X134909561Y-46366240D01*
X134946804Y-46315940D01*
X134991093Y-46268718D01*
X135093341Y-46184601D01*
X135208700Y-46129185D01*
X135348531Y-46098724D01*
X135524193Y-46089470D01*
X135534400Y-46089499D01*
X135715803Y-46100439D01*
X135860600Y-46133996D01*
X135979504Y-46194305D01*
X136083227Y-46285500D01*
X136104598Y-46309563D01*
X136168415Y-46402826D01*
X136213280Y-46515508D01*
X136241343Y-46656340D01*
X136254755Y-46834055D01*
X136256572Y-46926500D01*
X136258300Y-47180500D01*
X135857473Y-47187498D01*
X135456646Y-47194497D01*
X135463773Y-47504998D01*
X135467079Y-47634869D01*
X135471182Y-47722577D01*
X135477952Y-47776744D01*
X135489258Y-47805997D01*
X135506969Y-47818961D01*
X135532955Y-47824259D01*
X135532976Y-47824262D01*
X135588788Y-47820219D01*
X135626959Y-47785860D01*
X135649956Y-47715553D01*
X135660247Y-47603668D01*
X135661400Y-47531245D01*
X135661400Y-47320200D01*
X136278545Y-47320200D01*
X136263491Y-47533521D01*
X136236297Y-47730188D01*
X136183358Y-47887278D01*
X136101388Y-48010775D01*
X135987100Y-48106667D01*
X135931254Y-48138815D01*
X135820060Y-48177515D01*
X135677799Y-48199876D01*
X135521686Y-48205356D01*
X135368937Y-48193408D01*
X135236768Y-48163488D01*
X135229600Y-48161014D01*
X135084155Y-48085466D01*
X134964467Y-47975368D01*
X134879754Y-47840765D01*
X134847850Y-47745058D01*
X134836202Y-47658316D01*
X134828799Y-47523256D01*
X134825710Y-47342191D01*
X134827003Y-47117430D01*
X134827815Y-47066200D01*
X134832090Y-46865402D01*
X134833151Y-46837600D01*
X135455974Y-46837600D01*
X135545987Y-46837600D01*
X135601845Y-46835078D01*
X135627911Y-46818166D01*
X135635544Y-46772844D01*
X135636000Y-46726475D01*
X135632114Y-46634938D01*
X135622506Y-46549389D01*
X135619854Y-46534620D01*
X135602242Y-46478914D01*
X135570682Y-46460380D01*
X135537304Y-46461595D01*
X135502933Y-46468382D01*
X135482455Y-46486381D01*
X135471502Y-46526936D01*
X135465707Y-46601392D01*
X135463437Y-46653450D01*
X135455974Y-46837600D01*
X134833151Y-46837600D01*
X134838100Y-46708056D01*
X134847347Y-46586814D01*
X146262402Y-38601650D02*
X146279555Y-38714009D01*
X146279555Y-38714009D02*
X146302697Y-38869574D01*
X146302697Y-38869574D02*
X146330800Y-39061239D01*
X146330800Y-39061239D02*
X146362835Y-39281897D01*
X146362835Y-39281897D02*
X146397776Y-39524441D01*
X146397776Y-39524441D02*
X146434594Y-39781764D01*
X146434594Y-39781764D02*
X146472262Y-40046760D01*
X146472262Y-40046760D02*
X146507610Y-40297100D01*
X146507610Y-40297100D02*
X146550000Y-40597823D01*
X146550000Y-40597823D02*
X146585971Y-40851604D01*
X146585971Y-40851604D02*
X146616054Y-41061823D01*
X146616054Y-41061823D02*
X146640776Y-41231861D01*
X146640776Y-41231861D02*
X146660669Y-41365098D01*
X146660669Y-41365098D02*
X146676261Y-41464915D01*
X146676261Y-41464915D02*
X146688083Y-41534691D01*
X146688083Y-41534691D02*
X146696664Y-41577808D01*
X146696664Y-41577808D02*
X146702533Y-41597645D01*
X146702533Y-41597645D02*
X146706221Y-41597583D01*
X146706221Y-41597583D02*
X146708258Y-41581003D01*
X146708258Y-41581003D02*
X146708394Y-41578502D01*
X146708394Y-41578502D02*
X146712011Y-41544532D01*
X146712011Y-41544532D02*
X146721439Y-41465392D01*
X146721439Y-41465392D02*
X146736014Y-41346298D01*
X146736014Y-41346298D02*
X146755076Y-41192465D01*
X146755076Y-41192465D02*
X146777962Y-41009111D01*
X146777962Y-41009111D02*
X146804010Y-40801450D01*
X146804010Y-40801450D02*
X146832557Y-40574699D01*
X146832557Y-40574699D02*
X146862942Y-40334074D01*
X146862942Y-40334074D02*
X146894503Y-40084790D01*
X146894503Y-40084790D02*
X146926577Y-39832063D01*
X146926577Y-39832063D02*
X146958502Y-39581110D01*
X146958502Y-39581110D02*
X146989616Y-39337147D01*
X146989616Y-39337147D02*
X147019257Y-39105388D01*
X147019257Y-39105388D02*
X147046763Y-38891051D01*
X147046763Y-38891051D02*
X147071471Y-38699351D01*
X147071471Y-38699351D02*
X147092720Y-38535504D01*
X147092720Y-38535504D02*
X147109847Y-38404727D01*
X147109847Y-38404727D02*
X147122191Y-38312234D01*
X147122191Y-38312234D02*
X147129088Y-38263242D01*
X147129088Y-38263242D02*
X147129822Y-38258749D01*
X147129822Y-38258749D02*
X147144501Y-38176200D01*
X147144501Y-38176200D02*
X149682200Y-38176200D01*
X149682200Y-38176200D02*
X149682200Y-45669200D01*
X149682200Y-45669200D02*
X147980400Y-45669200D01*
X147980400Y-45669200D02*
X147976940Y-43199050D01*
X147976940Y-43199050D02*
X147976334Y-42851168D01*
X147976334Y-42851168D02*
X147975524Y-42519142D01*
X147975524Y-42519142D02*
X147974529Y-42206300D01*
X147974529Y-42206300D02*
X147973373Y-41915976D01*
X147973373Y-41915976D02*
X147972075Y-41651498D01*
X147972075Y-41651498D02*
X147970657Y-41416200D01*
X147970657Y-41416200D02*
X147969139Y-41213411D01*
X147969139Y-41213411D02*
X147967545Y-41046464D01*
X147967545Y-41046464D02*
X147965893Y-40918688D01*
X147965893Y-40918688D02*
X147964206Y-40833415D01*
X147964206Y-40833415D02*
X147962504Y-40793976D01*
X147962504Y-40793976D02*
X147961670Y-40792400D01*
X147961670Y-40792400D02*
X147956649Y-40826240D01*
X147956649Y-40826240D02*
X147945356Y-40906855D01*
X147945356Y-40906855D02*
X147928277Y-41030670D01*
X147928277Y-41030670D02*
X147905896Y-41194110D01*
X147905896Y-41194110D02*
X147878700Y-41393601D01*
X147878700Y-41393601D02*
X147847174Y-41625568D01*
X147847174Y-41625568D02*
X147811804Y-41886438D01*
X147811804Y-41886438D02*
X147773075Y-42172635D01*
X147773075Y-42172635D02*
X147731473Y-42480586D01*
X147731473Y-42480586D02*
X147687484Y-42806716D01*
X147687484Y-42806716D02*
X147641593Y-43147451D01*
X147641593Y-43147451D02*
X147626960Y-43256200D01*
X147626960Y-43256200D02*
X147304062Y-45656500D01*
X147304062Y-45656500D02*
X146558000Y-45670558D01*
X146558000Y-45670558D02*
X146558000Y-45999400D01*
X146558000Y-45999400D02*
X145923000Y-45999400D01*
X145923000Y-45999400D02*
X145923000Y-45669200D01*
X145923000Y-45669200D02*
X145999200Y-45669200D01*
X145999200Y-45669200D02*
X146054525Y-45659863D01*
X146054525Y-45659863D02*
X146076289Y-45637450D01*
X146076289Y-45637450D02*
X146072853Y-45608217D01*
X146072853Y-45608217D02*
X146062619Y-45532271D01*
X146062619Y-45532271D02*
X146046095Y-45413170D01*
X146046095Y-45413170D02*
X146023787Y-45254472D01*
X146023787Y-45254472D02*
X145996203Y-45059735D01*
X145996203Y-45059735D02*
X145963848Y-44832518D01*
X145963848Y-44832518D02*
X145927231Y-44576380D01*
X145927231Y-44576380D02*
X145886858Y-44294878D01*
X145886858Y-44294878D02*
X145843235Y-43991572D01*
X145843235Y-43991572D02*
X145796871Y-43670019D01*
X145796871Y-43670019D02*
X145748270Y-43333779D01*
X145748270Y-43333779D02*
X145739739Y-43274837D01*
X145739739Y-43274837D02*
X145402300Y-40943974D01*
X145402300Y-40943974D02*
X145376900Y-45656500D01*
X145376900Y-45656500D02*
X144519650Y-45663187D01*
X144519650Y-45663187D02*
X143662400Y-45669875D01*
X143662400Y-45669875D02*
X143662400Y-38176200D01*
X143662400Y-38176200D02*
X146195897Y-38176200D01*
X146195897Y-38176200D02*
X146262402Y-38601650D01*
X146262402Y-38601650D02*
X146262402Y-38601650D01*
G36*
X146262402Y-38601650D02*
G01*
X146279555Y-38714009D01*
X146302697Y-38869574D01*
X146330800Y-39061239D01*
X146362835Y-39281897D01*
X146397776Y-39524441D01*
X146434594Y-39781764D01*
X146472262Y-40046760D01*
X146507610Y-40297100D01*
X146550000Y-40597823D01*
X146585971Y-40851604D01*
X146616054Y-41061823D01*
X146640776Y-41231861D01*
X146660669Y-41365098D01*
X146676261Y-41464915D01*
X146688083Y-41534691D01*
X146696664Y-41577808D01*
X146702533Y-41597645D01*
X146706221Y-41597583D01*
X146708258Y-41581003D01*
X146708394Y-41578502D01*
X146712011Y-41544532D01*
X146721439Y-41465392D01*
X146736014Y-41346298D01*
X146755076Y-41192465D01*
X146777962Y-41009111D01*
X146804010Y-40801450D01*
X146832557Y-40574699D01*
X146862942Y-40334074D01*
X146894503Y-40084790D01*
X146926577Y-39832063D01*
X146958502Y-39581110D01*
X146989616Y-39337147D01*
X147019257Y-39105388D01*
X147046763Y-38891051D01*
X147071471Y-38699351D01*
X147092720Y-38535504D01*
X147109847Y-38404727D01*
X147122191Y-38312234D01*
X147129088Y-38263242D01*
X147129822Y-38258749D01*
X147144501Y-38176200D01*
X149682200Y-38176200D01*
X149682200Y-45669200D01*
X147980400Y-45669200D01*
X147976940Y-43199050D01*
X147976334Y-42851168D01*
X147975524Y-42519142D01*
X147974529Y-42206300D01*
X147973373Y-41915976D01*
X147972075Y-41651498D01*
X147970657Y-41416200D01*
X147969139Y-41213411D01*
X147967545Y-41046464D01*
X147965893Y-40918688D01*
X147964206Y-40833415D01*
X147962504Y-40793976D01*
X147961670Y-40792400D01*
X147956649Y-40826240D01*
X147945356Y-40906855D01*
X147928277Y-41030670D01*
X147905896Y-41194110D01*
X147878700Y-41393601D01*
X147847174Y-41625568D01*
X147811804Y-41886438D01*
X147773075Y-42172635D01*
X147731473Y-42480586D01*
X147687484Y-42806716D01*
X147641593Y-43147451D01*
X147626960Y-43256200D01*
X147304062Y-45656500D01*
X146558000Y-45670558D01*
X146558000Y-45999400D01*
X145923000Y-45999400D01*
X145923000Y-45669200D01*
X145999200Y-45669200D01*
X146054525Y-45659863D01*
X146076289Y-45637450D01*
X146072853Y-45608217D01*
X146062619Y-45532271D01*
X146046095Y-45413170D01*
X146023787Y-45254472D01*
X145996203Y-45059735D01*
X145963848Y-44832518D01*
X145927231Y-44576380D01*
X145886858Y-44294878D01*
X145843235Y-43991572D01*
X145796871Y-43670019D01*
X145748270Y-43333779D01*
X145739739Y-43274837D01*
X145402300Y-40943974D01*
X145376900Y-45656500D01*
X144519650Y-45663187D01*
X143662400Y-45669875D01*
X143662400Y-38176200D01*
X146195897Y-38176200D01*
X146262402Y-38601650D01*
G37*
X146262402Y-38601650D02*
X146279555Y-38714009D01*
X146302697Y-38869574D01*
X146330800Y-39061239D01*
X146362835Y-39281897D01*
X146397776Y-39524441D01*
X146434594Y-39781764D01*
X146472262Y-40046760D01*
X146507610Y-40297100D01*
X146550000Y-40597823D01*
X146585971Y-40851604D01*
X146616054Y-41061823D01*
X146640776Y-41231861D01*
X146660669Y-41365098D01*
X146676261Y-41464915D01*
X146688083Y-41534691D01*
X146696664Y-41577808D01*
X146702533Y-41597645D01*
X146706221Y-41597583D01*
X146708258Y-41581003D01*
X146708394Y-41578502D01*
X146712011Y-41544532D01*
X146721439Y-41465392D01*
X146736014Y-41346298D01*
X146755076Y-41192465D01*
X146777962Y-41009111D01*
X146804010Y-40801450D01*
X146832557Y-40574699D01*
X146862942Y-40334074D01*
X146894503Y-40084790D01*
X146926577Y-39832063D01*
X146958502Y-39581110D01*
X146989616Y-39337147D01*
X147019257Y-39105388D01*
X147046763Y-38891051D01*
X147071471Y-38699351D01*
X147092720Y-38535504D01*
X147109847Y-38404727D01*
X147122191Y-38312234D01*
X147129088Y-38263242D01*
X147129822Y-38258749D01*
X147144501Y-38176200D01*
X149682200Y-38176200D01*
X149682200Y-45669200D01*
X147980400Y-45669200D01*
X147976940Y-43199050D01*
X147976334Y-42851168D01*
X147975524Y-42519142D01*
X147974529Y-42206300D01*
X147973373Y-41915976D01*
X147972075Y-41651498D01*
X147970657Y-41416200D01*
X147969139Y-41213411D01*
X147967545Y-41046464D01*
X147965893Y-40918688D01*
X147964206Y-40833415D01*
X147962504Y-40793976D01*
X147961670Y-40792400D01*
X147956649Y-40826240D01*
X147945356Y-40906855D01*
X147928277Y-41030670D01*
X147905896Y-41194110D01*
X147878700Y-41393601D01*
X147847174Y-41625568D01*
X147811804Y-41886438D01*
X147773075Y-42172635D01*
X147731473Y-42480586D01*
X147687484Y-42806716D01*
X147641593Y-43147451D01*
X147626960Y-43256200D01*
X147304062Y-45656500D01*
X146558000Y-45670558D01*
X146558000Y-45999400D01*
X145923000Y-45999400D01*
X145923000Y-45669200D01*
X145999200Y-45669200D01*
X146054525Y-45659863D01*
X146076289Y-45637450D01*
X146072853Y-45608217D01*
X146062619Y-45532271D01*
X146046095Y-45413170D01*
X146023787Y-45254472D01*
X145996203Y-45059735D01*
X145963848Y-44832518D01*
X145927231Y-44576380D01*
X145886858Y-44294878D01*
X145843235Y-43991572D01*
X145796871Y-43670019D01*
X145748270Y-43333779D01*
X145739739Y-43274837D01*
X145402300Y-40943974D01*
X145376900Y-45656500D01*
X144519650Y-45663187D01*
X143662400Y-45669875D01*
X143662400Y-38176200D01*
X146195897Y-38176200D01*
X146262402Y-38601650D01*
X145371303Y-46087104D02*
X145485707Y-46126100D01*
X145485707Y-46126100D02*
X145571307Y-46178329D01*
X145571307Y-46178329D02*
X145628119Y-46252265D01*
X145628119Y-46252265D02*
X145643899Y-46284292D01*
X145643899Y-46284292D02*
X145657049Y-46316204D01*
X145657049Y-46316204D02*
X145667649Y-46351689D01*
X145667649Y-46351689D02*
X145675978Y-46396314D01*
X145675978Y-46396314D02*
X145682311Y-46455645D01*
X145682311Y-46455645D02*
X145686926Y-46535249D01*
X145686926Y-46535249D02*
X145690099Y-46640694D01*
X145690099Y-46640694D02*
X145692107Y-46777547D01*
X145692107Y-46777547D02*
X145693226Y-46951375D01*
X145693226Y-46951375D02*
X145693734Y-47167744D01*
X145693734Y-47167744D02*
X145693842Y-47289231D01*
X145693842Y-47289231D02*
X145694400Y-48185363D01*
X145694400Y-48185363D02*
X145383250Y-48178231D01*
X145383250Y-48178231D02*
X145072100Y-48171100D01*
X145072100Y-48171100D02*
X145046700Y-46469300D01*
X145046700Y-46469300D02*
X144980295Y-46461595D01*
X144980295Y-46461595D02*
X144932334Y-46463897D01*
X144932334Y-46463897D02*
X144907872Y-46494920D01*
X144907872Y-46494920D02*
X144897745Y-46534620D01*
X144897745Y-46534620D02*
X144893712Y-46579727D01*
X144893712Y-46579727D02*
X144890046Y-46668646D01*
X144890046Y-46668646D02*
X144886879Y-46794387D01*
X144886879Y-46794387D02*
X144884342Y-46949963D01*
X144884342Y-46949963D02*
X144882564Y-47128385D01*
X144882564Y-47128385D02*
X144881676Y-47322666D01*
X144881676Y-47322666D02*
X144881600Y-47399575D01*
X144881600Y-47399575D02*
X144881600Y-48183800D01*
X144881600Y-48183800D02*
X144576002Y-48183800D01*
X144576002Y-48183800D02*
X144433553Y-48182049D01*
X144433553Y-48182049D02*
X144336566Y-48176449D01*
X144336566Y-48176449D02*
X144279811Y-48166475D01*
X144279811Y-48166475D02*
X144258202Y-48151998D01*
X144258202Y-48151998D02*
X144255678Y-48120328D01*
X144255678Y-48120328D02*
X144253663Y-48043502D01*
X144253663Y-48043502D02*
X144252185Y-47927162D01*
X144252185Y-47927162D02*
X144251275Y-47776948D01*
X144251275Y-47776948D02*
X144250964Y-47598502D01*
X144250964Y-47598502D02*
X144251282Y-47397466D01*
X144251282Y-47397466D02*
X144252258Y-47179481D01*
X144252258Y-47179481D02*
X144252649Y-47116948D01*
X144252649Y-47116948D02*
X144259300Y-46113700D01*
X144259300Y-46113700D02*
X144894300Y-46113700D01*
X144894300Y-46113700D02*
X144877208Y-46291500D01*
X144877208Y-46291500D02*
X144961954Y-46210507D01*
X144961954Y-46210507D02*
X145088452Y-46119624D01*
X145088452Y-46119624D02*
X145225223Y-46078438D01*
X145225223Y-46078438D02*
X145371303Y-46087104D01*
X145371303Y-46087104D02*
X145371303Y-46087104D01*
G36*
X145371303Y-46087104D02*
G01*
X145485707Y-46126100D01*
X145571307Y-46178329D01*
X145628119Y-46252265D01*
X145643899Y-46284292D01*
X145657049Y-46316204D01*
X145667649Y-46351689D01*
X145675978Y-46396314D01*
X145682311Y-46455645D01*
X145686926Y-46535249D01*
X145690099Y-46640694D01*
X145692107Y-46777547D01*
X145693226Y-46951375D01*
X145693734Y-47167744D01*
X145693842Y-47289231D01*
X145694400Y-48185363D01*
X145383250Y-48178231D01*
X145072100Y-48171100D01*
X145046700Y-46469300D01*
X144980295Y-46461595D01*
X144932334Y-46463897D01*
X144907872Y-46494920D01*
X144897745Y-46534620D01*
X144893712Y-46579727D01*
X144890046Y-46668646D01*
X144886879Y-46794387D01*
X144884342Y-46949963D01*
X144882564Y-47128385D01*
X144881676Y-47322666D01*
X144881600Y-47399575D01*
X144881600Y-48183800D01*
X144576002Y-48183800D01*
X144433553Y-48182049D01*
X144336566Y-48176449D01*
X144279811Y-48166475D01*
X144258202Y-48151998D01*
X144255678Y-48120328D01*
X144253663Y-48043502D01*
X144252185Y-47927162D01*
X144251275Y-47776948D01*
X144250964Y-47598502D01*
X144251282Y-47397466D01*
X144252258Y-47179481D01*
X144252649Y-47116948D01*
X144259300Y-46113700D01*
X144894300Y-46113700D01*
X144877208Y-46291500D01*
X144961954Y-46210507D01*
X145088452Y-46119624D01*
X145225223Y-46078438D01*
X145371303Y-46087104D01*
G37*
X145371303Y-46087104D02*
X145485707Y-46126100D01*
X145571307Y-46178329D01*
X145628119Y-46252265D01*
X145643899Y-46284292D01*
X145657049Y-46316204D01*
X145667649Y-46351689D01*
X145675978Y-46396314D01*
X145682311Y-46455645D01*
X145686926Y-46535249D01*
X145690099Y-46640694D01*
X145692107Y-46777547D01*
X145693226Y-46951375D01*
X145693734Y-47167744D01*
X145693842Y-47289231D01*
X145694400Y-48185363D01*
X145383250Y-48178231D01*
X145072100Y-48171100D01*
X145046700Y-46469300D01*
X144980295Y-46461595D01*
X144932334Y-46463897D01*
X144907872Y-46494920D01*
X144897745Y-46534620D01*
X144893712Y-46579727D01*
X144890046Y-46668646D01*
X144886879Y-46794387D01*
X144884342Y-46949963D01*
X144882564Y-47128385D01*
X144881676Y-47322666D01*
X144881600Y-47399575D01*
X144881600Y-48183800D01*
X144576002Y-48183800D01*
X144433553Y-48182049D01*
X144336566Y-48176449D01*
X144279811Y-48166475D01*
X144258202Y-48151998D01*
X144255678Y-48120328D01*
X144253663Y-48043502D01*
X144252185Y-47927162D01*
X144251275Y-47776948D01*
X144250964Y-47598502D01*
X144251282Y-47397466D01*
X144252258Y-47179481D01*
X144252649Y-47116948D01*
X144259300Y-46113700D01*
X144894300Y-46113700D01*
X144877208Y-46291500D01*
X144961954Y-46210507D01*
X145088452Y-46119624D01*
X145225223Y-46078438D01*
X145371303Y-46087104D01*
X136201150Y-38184344D02*
X136519635Y-38187397D01*
X136519635Y-38187397D02*
X136792224Y-38190619D01*
X136792224Y-38190619D02*
X137023817Y-38194294D01*
X137023817Y-38194294D02*
X137219319Y-38198705D01*
X137219319Y-38198705D02*
X137383632Y-38204133D01*
X137383632Y-38204133D02*
X137521658Y-38210863D01*
X137521658Y-38210863D02*
X137638301Y-38219176D01*
X137638301Y-38219176D02*
X137738462Y-38229357D01*
X137738462Y-38229357D02*
X137827044Y-38241687D01*
X137827044Y-38241687D02*
X137908951Y-38256450D01*
X137908951Y-38256450D02*
X137989084Y-38273928D01*
X137989084Y-38273928D02*
X138061700Y-38291697D01*
X138061700Y-38291697D02*
X138314905Y-38381077D01*
X138314905Y-38381077D02*
X138547407Y-38513547D01*
X138547407Y-38513547D02*
X138751972Y-38684111D01*
X138751972Y-38684111D02*
X138917924Y-38882764D01*
X138917924Y-38882764D02*
X139013452Y-39056025D01*
X139013452Y-39056025D02*
X139092152Y-39271955D01*
X139092152Y-39271955D02*
X139152798Y-39524876D01*
X139152798Y-39524876D02*
X139194165Y-39809114D01*
X139194165Y-39809114D02*
X139215026Y-40118992D01*
X139215026Y-40118992D02*
X139217399Y-40269680D01*
X139217399Y-40269680D02*
X139208638Y-40550569D01*
X139208638Y-40550569D02*
X139180349Y-40788069D01*
X139180349Y-40788069D02*
X139129528Y-40986830D01*
X139129528Y-40986830D02*
X139053171Y-41151499D01*
X139053171Y-41151499D02*
X138948271Y-41286726D01*
X138948271Y-41286726D02*
X138811825Y-41397161D01*
X138811825Y-41397161D02*
X138640827Y-41487452D01*
X138640827Y-41487452D02*
X138432272Y-41562249D01*
X138432272Y-41562249D02*
X138370442Y-41580031D01*
X138370442Y-41580031D02*
X138221984Y-41620932D01*
X138221984Y-41620932D02*
X138378680Y-41664497D01*
X138378680Y-41664497D02*
X138542985Y-41721397D01*
X138542985Y-41721397D02*
X138711929Y-41799116D01*
X138711929Y-41799116D02*
X138866770Y-41888081D01*
X138866770Y-41888081D02*
X138981740Y-41972563D01*
X138981740Y-41972563D02*
X139073605Y-42075224D01*
X139073605Y-42075224D02*
X139161096Y-42216146D01*
X139161096Y-42216146D02*
X139237849Y-42382828D01*
X139237849Y-42382828D02*
X139297499Y-42562770D01*
X139297499Y-42562770D02*
X139311956Y-42621200D01*
X139311956Y-42621200D02*
X139327463Y-42720483D01*
X139327463Y-42720483D02*
X139339913Y-42861727D01*
X139339913Y-42861727D02*
X139349311Y-43036184D01*
X139349311Y-43036184D02*
X139355661Y-43235105D01*
X139355661Y-43235105D02*
X139358967Y-43449744D01*
X139358967Y-43449744D02*
X139359235Y-43671353D01*
X139359235Y-43671353D02*
X139356468Y-43891183D01*
X139356468Y-43891183D02*
X139350671Y-44100489D01*
X139350671Y-44100489D02*
X139341849Y-44290521D01*
X139341849Y-44290521D02*
X139330006Y-44452533D01*
X139330006Y-44452533D02*
X139315147Y-44577776D01*
X139315147Y-44577776D02*
X139310946Y-44602400D01*
X139310946Y-44602400D02*
X139245341Y-44862341D01*
X139245341Y-44862341D02*
X139151790Y-45080657D01*
X139151790Y-45080657D02*
X139028496Y-45259273D01*
X139028496Y-45259273D02*
X138873667Y-45400114D01*
X138873667Y-45400114D02*
X138685505Y-45505105D01*
X138685505Y-45505105D02*
X138462218Y-45576172D01*
X138462218Y-45576172D02*
X138389497Y-45590916D01*
X138389497Y-45590916D02*
X138286325Y-45605772D01*
X138286325Y-45605772D02*
X138145241Y-45620957D01*
X138145241Y-45620957D02*
X137979120Y-45635532D01*
X137979120Y-45635532D02*
X137800834Y-45648560D01*
X137800834Y-45648560D02*
X137623258Y-45659102D01*
X137623258Y-45659102D02*
X137459264Y-45666218D01*
X137459264Y-45666218D02*
X137321725Y-45668972D01*
X137321725Y-45668972D02*
X137318750Y-45668977D01*
X137318750Y-45668977D02*
X137109200Y-45669200D01*
X137109200Y-45669200D02*
X137109200Y-48183800D01*
X137109200Y-48183800D02*
X136474200Y-48183800D01*
X136474200Y-48183800D02*
X136474200Y-45669200D01*
X136474200Y-45669200D02*
X134823200Y-45669200D01*
X134823200Y-45669200D02*
X134823200Y-44381036D01*
X134823200Y-44381036D02*
X136779000Y-44381036D01*
X136779000Y-44381036D02*
X136933765Y-44364860D01*
X136933765Y-44364860D02*
X137040060Y-44347313D01*
X137040060Y-44347313D02*
X137145034Y-44319840D01*
X137145034Y-44319840D02*
X137197281Y-44300578D01*
X137197281Y-44300578D02*
X137269410Y-44261094D01*
X137269410Y-44261094D02*
X137315729Y-44210188D01*
X137315729Y-44210188D02*
X137353665Y-44128986D01*
X137353665Y-44128986D02*
X137368133Y-44086818D01*
X137368133Y-44086818D02*
X137379375Y-44039880D01*
X137379375Y-44039880D02*
X137387788Y-43981440D01*
X137387788Y-43981440D02*
X137393769Y-43904768D01*
X137393769Y-43904768D02*
X137397714Y-43803131D01*
X137397714Y-43803131D02*
X137400019Y-43669797D01*
X137400019Y-43669797D02*
X137401080Y-43498037D01*
X137401080Y-43498037D02*
X137401300Y-43319700D01*
X137401300Y-43319700D02*
X137400943Y-43109551D01*
X137400943Y-43109551D02*
X137399622Y-42943549D01*
X137399622Y-42943549D02*
X137396958Y-42815040D01*
X137396958Y-42815040D02*
X137392573Y-42717375D01*
X137392573Y-42717375D02*
X137386090Y-42643901D01*
X137386090Y-42643901D02*
X137377131Y-42587967D01*
X137377131Y-42587967D02*
X137365317Y-42542923D01*
X137365317Y-42542923D02*
X137355613Y-42515513D01*
X137355613Y-42515513D02*
X137315614Y-42438352D01*
X137315614Y-42438352D02*
X137258651Y-42382786D01*
X137258651Y-42382786D02*
X137175596Y-42344039D01*
X137175596Y-42344039D02*
X137057326Y-42317337D01*
X137057326Y-42317337D02*
X136950297Y-42303426D01*
X136950297Y-42303426D02*
X136779000Y-42285081D01*
X136779000Y-42285081D02*
X136779000Y-44381036D01*
X136779000Y-44381036D02*
X134823200Y-44381036D01*
X134823200Y-44381036D02*
X134823200Y-41129932D01*
X134823200Y-41129932D02*
X136779000Y-41129932D01*
X136779000Y-41129932D02*
X136966540Y-41115748D01*
X136966540Y-41115748D02*
X137070631Y-41103431D01*
X137070631Y-41103431D02*
X137164343Y-41084681D01*
X137164343Y-41084681D02*
X137227640Y-41063523D01*
X137227640Y-41063523D02*
X137228295Y-41063187D01*
X137228295Y-41063187D02*
X137276982Y-41030703D01*
X137276982Y-41030703D02*
X137314168Y-40985279D01*
X137314168Y-40985279D02*
X137342256Y-40919260D01*
X137342256Y-40919260D02*
X137363650Y-40824992D01*
X137363650Y-40824992D02*
X137380751Y-40694822D01*
X137380751Y-40694822D02*
X137395154Y-40531665D01*
X137395154Y-40531665D02*
X137406245Y-40306953D01*
X137406245Y-40306953D02*
X137404407Y-40099494D01*
X137404407Y-40099494D02*
X137390303Y-39917014D01*
X137390303Y-39917014D02*
X137364594Y-39767242D01*
X137364594Y-39767242D02*
X137327939Y-39657905D01*
X137327939Y-39657905D02*
X137318964Y-39640892D01*
X137318964Y-39640892D02*
X137239409Y-39550922D01*
X137239409Y-39550922D02*
X137123582Y-39494865D01*
X137123582Y-39494865D02*
X136970326Y-39472210D01*
X136970326Y-39472210D02*
X136937750Y-39471639D01*
X136937750Y-39471639D02*
X136779000Y-39471600D01*
X136779000Y-39471600D02*
X136779000Y-41129932D01*
X136779000Y-41129932D02*
X134823200Y-41129932D01*
X134823200Y-41129932D02*
X134823200Y-38172044D01*
X134823200Y-38172044D02*
X136201150Y-38184344D01*
X136201150Y-38184344D02*
X136201150Y-38184344D01*
G36*
X136201150Y-38184344D02*
G01*
X136519635Y-38187397D01*
X136792224Y-38190619D01*
X137023817Y-38194294D01*
X137219319Y-38198705D01*
X137383632Y-38204133D01*
X137521658Y-38210863D01*
X137638301Y-38219176D01*
X137738462Y-38229357D01*
X137827044Y-38241687D01*
X137908951Y-38256450D01*
X137989084Y-38273928D01*
X138061700Y-38291697D01*
X138314905Y-38381077D01*
X138547407Y-38513547D01*
X138751972Y-38684111D01*
X138917924Y-38882764D01*
X139013452Y-39056025D01*
X139092152Y-39271955D01*
X139152798Y-39524876D01*
X139194165Y-39809114D01*
X139215026Y-40118992D01*
X139217399Y-40269680D01*
X139208638Y-40550569D01*
X139180349Y-40788069D01*
X139129528Y-40986830D01*
X139053171Y-41151499D01*
X138948271Y-41286726D01*
X138811825Y-41397161D01*
X138640827Y-41487452D01*
X138432272Y-41562249D01*
X138370442Y-41580031D01*
X138221984Y-41620932D01*
X138378680Y-41664497D01*
X138542985Y-41721397D01*
X138711929Y-41799116D01*
X138866770Y-41888081D01*
X138981740Y-41972563D01*
X139073605Y-42075224D01*
X139161096Y-42216146D01*
X139237849Y-42382828D01*
X139297499Y-42562770D01*
X139311956Y-42621200D01*
X139327463Y-42720483D01*
X139339913Y-42861727D01*
X139349311Y-43036184D01*
X139355661Y-43235105D01*
X139358967Y-43449744D01*
X139359235Y-43671353D01*
X139356468Y-43891183D01*
X139350671Y-44100489D01*
X139341849Y-44290521D01*
X139330006Y-44452533D01*
X139315147Y-44577776D01*
X139310946Y-44602400D01*
X139245341Y-44862341D01*
X139151790Y-45080657D01*
X139028496Y-45259273D01*
X138873667Y-45400114D01*
X138685505Y-45505105D01*
X138462218Y-45576172D01*
X138389497Y-45590916D01*
X138286325Y-45605772D01*
X138145241Y-45620957D01*
X137979120Y-45635532D01*
X137800834Y-45648560D01*
X137623258Y-45659102D01*
X137459264Y-45666218D01*
X137321725Y-45668972D01*
X137318750Y-45668977D01*
X137109200Y-45669200D01*
X137109200Y-48183800D01*
X136474200Y-48183800D01*
X136474200Y-45669200D01*
X134823200Y-45669200D01*
X134823200Y-44381036D01*
X136779000Y-44381036D01*
X136933765Y-44364860D01*
X137040060Y-44347313D01*
X137145034Y-44319840D01*
X137197281Y-44300578D01*
X137269410Y-44261094D01*
X137315729Y-44210188D01*
X137353665Y-44128986D01*
X137368133Y-44086818D01*
X137379375Y-44039880D01*
X137387788Y-43981440D01*
X137393769Y-43904768D01*
X137397714Y-43803131D01*
X137400019Y-43669797D01*
X137401080Y-43498037D01*
X137401300Y-43319700D01*
X137400943Y-43109551D01*
X137399622Y-42943549D01*
X137396958Y-42815040D01*
X137392573Y-42717375D01*
X137386090Y-42643901D01*
X137377131Y-42587967D01*
X137365317Y-42542923D01*
X137355613Y-42515513D01*
X137315614Y-42438352D01*
X137258651Y-42382786D01*
X137175596Y-42344039D01*
X137057326Y-42317337D01*
X136950297Y-42303426D01*
X136779000Y-42285081D01*
X136779000Y-44381036D01*
X134823200Y-44381036D01*
X134823200Y-41129932D01*
X136779000Y-41129932D01*
X136966540Y-41115748D01*
X137070631Y-41103431D01*
X137164343Y-41084681D01*
X137227640Y-41063523D01*
X137228295Y-41063187D01*
X137276982Y-41030703D01*
X137314168Y-40985279D01*
X137342256Y-40919260D01*
X137363650Y-40824992D01*
X137380751Y-40694822D01*
X137395154Y-40531665D01*
X137406245Y-40306953D01*
X137404407Y-40099494D01*
X137390303Y-39917014D01*
X137364594Y-39767242D01*
X137327939Y-39657905D01*
X137318964Y-39640892D01*
X137239409Y-39550922D01*
X137123582Y-39494865D01*
X136970326Y-39472210D01*
X136937750Y-39471639D01*
X136779000Y-39471600D01*
X136779000Y-41129932D01*
X134823200Y-41129932D01*
X134823200Y-38172044D01*
X136201150Y-38184344D01*
G37*
X136201150Y-38184344D02*
X136519635Y-38187397D01*
X136792224Y-38190619D01*
X137023817Y-38194294D01*
X137219319Y-38198705D01*
X137383632Y-38204133D01*
X137521658Y-38210863D01*
X137638301Y-38219176D01*
X137738462Y-38229357D01*
X137827044Y-38241687D01*
X137908951Y-38256450D01*
X137989084Y-38273928D01*
X138061700Y-38291697D01*
X138314905Y-38381077D01*
X138547407Y-38513547D01*
X138751972Y-38684111D01*
X138917924Y-38882764D01*
X139013452Y-39056025D01*
X139092152Y-39271955D01*
X139152798Y-39524876D01*
X139194165Y-39809114D01*
X139215026Y-40118992D01*
X139217399Y-40269680D01*
X139208638Y-40550569D01*
X139180349Y-40788069D01*
X139129528Y-40986830D01*
X139053171Y-41151499D01*
X138948271Y-41286726D01*
X138811825Y-41397161D01*
X138640827Y-41487452D01*
X138432272Y-41562249D01*
X138370442Y-41580031D01*
X138221984Y-41620932D01*
X138378680Y-41664497D01*
X138542985Y-41721397D01*
X138711929Y-41799116D01*
X138866770Y-41888081D01*
X138981740Y-41972563D01*
X139073605Y-42075224D01*
X139161096Y-42216146D01*
X139237849Y-42382828D01*
X139297499Y-42562770D01*
X139311956Y-42621200D01*
X139327463Y-42720483D01*
X139339913Y-42861727D01*
X139349311Y-43036184D01*
X139355661Y-43235105D01*
X139358967Y-43449744D01*
X139359235Y-43671353D01*
X139356468Y-43891183D01*
X139350671Y-44100489D01*
X139341849Y-44290521D01*
X139330006Y-44452533D01*
X139315147Y-44577776D01*
X139310946Y-44602400D01*
X139245341Y-44862341D01*
X139151790Y-45080657D01*
X139028496Y-45259273D01*
X138873667Y-45400114D01*
X138685505Y-45505105D01*
X138462218Y-45576172D01*
X138389497Y-45590916D01*
X138286325Y-45605772D01*
X138145241Y-45620957D01*
X137979120Y-45635532D01*
X137800834Y-45648560D01*
X137623258Y-45659102D01*
X137459264Y-45666218D01*
X137321725Y-45668972D01*
X137318750Y-45668977D01*
X137109200Y-45669200D01*
X137109200Y-48183800D01*
X136474200Y-48183800D01*
X136474200Y-45669200D01*
X134823200Y-45669200D01*
X134823200Y-44381036D01*
X136779000Y-44381036D01*
X136933765Y-44364860D01*
X137040060Y-44347313D01*
X137145034Y-44319840D01*
X137197281Y-44300578D01*
X137269410Y-44261094D01*
X137315729Y-44210188D01*
X137353665Y-44128986D01*
X137368133Y-44086818D01*
X137379375Y-44039880D01*
X137387788Y-43981440D01*
X137393769Y-43904768D01*
X137397714Y-43803131D01*
X137400019Y-43669797D01*
X137401080Y-43498037D01*
X137401300Y-43319700D01*
X137400943Y-43109551D01*
X137399622Y-42943549D01*
X137396958Y-42815040D01*
X137392573Y-42717375D01*
X137386090Y-42643901D01*
X137377131Y-42587967D01*
X137365317Y-42542923D01*
X137355613Y-42515513D01*
X137315614Y-42438352D01*
X137258651Y-42382786D01*
X137175596Y-42344039D01*
X137057326Y-42317337D01*
X136950297Y-42303426D01*
X136779000Y-42285081D01*
X136779000Y-44381036D01*
X134823200Y-44381036D01*
X134823200Y-41129932D01*
X136779000Y-41129932D01*
X136966540Y-41115748D01*
X137070631Y-41103431D01*
X137164343Y-41084681D01*
X137227640Y-41063523D01*
X137228295Y-41063187D01*
X137276982Y-41030703D01*
X137314168Y-40985279D01*
X137342256Y-40919260D01*
X137363650Y-40824992D01*
X137380751Y-40694822D01*
X137395154Y-40531665D01*
X137406245Y-40306953D01*
X137404407Y-40099494D01*
X137390303Y-39917014D01*
X137364594Y-39767242D01*
X137327939Y-39657905D01*
X137318964Y-39640892D01*
X137239409Y-39550922D01*
X137123582Y-39494865D01*
X136970326Y-39472210D01*
X136937750Y-39471639D01*
X136779000Y-39471600D01*
X136779000Y-41129932D01*
X134823200Y-41129932D01*
X134823200Y-38172044D01*
X136201150Y-38184344D01*
X141198600Y-46151800D02*
X141351000Y-46151800D01*
X141351000Y-46151800D02*
X141351000Y-46482000D01*
X141351000Y-46482000D02*
X141197756Y-46482000D01*
X141197756Y-46482000D02*
X141211300Y-47815500D01*
X141211300Y-47815500D02*
X141376400Y-47831418D01*
X141376400Y-47831418D02*
X141376400Y-48183800D01*
X141376400Y-48183800D02*
X141166850Y-48181017D01*
X141166850Y-48181017D02*
X141050868Y-48176858D01*
X141050868Y-48176858D02*
X140938577Y-48168457D01*
X140938577Y-48168457D02*
X140852089Y-48157528D01*
X140852089Y-48157528D02*
X140843878Y-48156007D01*
X140843878Y-48156007D02*
X140722459Y-48109710D01*
X140722459Y-48109710D02*
X140653378Y-48056746D01*
X140653378Y-48056746D02*
X140576300Y-47979712D01*
X140576300Y-47979712D02*
X140550900Y-46494700D01*
X140550900Y-46494700D02*
X140479884Y-46486550D01*
X140479884Y-46486550D02*
X140441122Y-46479812D01*
X140441122Y-46479812D02*
X140420590Y-46462687D01*
X140420590Y-46462687D02*
X140413522Y-46422783D01*
X140413522Y-46422783D02*
X140415151Y-46347704D01*
X140415151Y-46347704D02*
X140416384Y-46321450D01*
X140416384Y-46321450D02*
X140421916Y-46235190D01*
X140421916Y-46235190D02*
X140431893Y-46187311D01*
X140431893Y-46187311D02*
X140452130Y-46165412D01*
X140452130Y-46165412D02*
X140488444Y-46157090D01*
X140488444Y-46157090D02*
X140493750Y-46156462D01*
X140493750Y-46156462D02*
X140532631Y-46149041D01*
X140532631Y-46149041D02*
X140553509Y-46129763D01*
X140553509Y-46129763D02*
X140561970Y-46085937D01*
X140561970Y-46085937D02*
X140563597Y-46004871D01*
X140563597Y-46004871D02*
X140563600Y-45997712D01*
X140563600Y-45997712D02*
X140563600Y-45847000D01*
X140563600Y-45847000D02*
X141198600Y-45847000D01*
X141198600Y-45847000D02*
X141198600Y-46151800D01*
X141198600Y-46151800D02*
X141198600Y-46151800D01*
G36*
X141198600Y-46151800D02*
G01*
X141351000Y-46151800D01*
X141351000Y-46482000D01*
X141197756Y-46482000D01*
X141211300Y-47815500D01*
X141376400Y-47831418D01*
X141376400Y-48183800D01*
X141166850Y-48181017D01*
X141050868Y-48176858D01*
X140938577Y-48168457D01*
X140852089Y-48157528D01*
X140843878Y-48156007D01*
X140722459Y-48109710D01*
X140653378Y-48056746D01*
X140576300Y-47979712D01*
X140550900Y-46494700D01*
X140479884Y-46486550D01*
X140441122Y-46479812D01*
X140420590Y-46462687D01*
X140413522Y-46422783D01*
X140415151Y-46347704D01*
X140416384Y-46321450D01*
X140421916Y-46235190D01*
X140431893Y-46187311D01*
X140452130Y-46165412D01*
X140488444Y-46157090D01*
X140493750Y-46156462D01*
X140532631Y-46149041D01*
X140553509Y-46129763D01*
X140561970Y-46085937D01*
X140563597Y-46004871D01*
X140563600Y-45997712D01*
X140563600Y-45847000D01*
X141198600Y-45847000D01*
X141198600Y-46151800D01*
G37*
X141198600Y-46151800D02*
X141351000Y-46151800D01*
X141351000Y-46482000D01*
X141197756Y-46482000D01*
X141211300Y-47815500D01*
X141376400Y-47831418D01*
X141376400Y-48183800D01*
X141166850Y-48181017D01*
X141050868Y-48176858D01*
X140938577Y-48168457D01*
X140852089Y-48157528D01*
X140843878Y-48156007D01*
X140722459Y-48109710D01*
X140653378Y-48056746D01*
X140576300Y-47979712D01*
X140550900Y-46494700D01*
X140479884Y-46486550D01*
X140441122Y-46479812D01*
X140420590Y-46462687D01*
X140413522Y-46422783D01*
X140415151Y-46347704D01*
X140416384Y-46321450D01*
X140421916Y-46235190D01*
X140431893Y-46187311D01*
X140452130Y-46165412D01*
X140488444Y-46157090D01*
X140493750Y-46156462D01*
X140532631Y-46149041D01*
X140553509Y-46129763D01*
X140561970Y-46085937D01*
X140563597Y-46004871D01*
X140563600Y-45997712D01*
X140563600Y-45847000D01*
X141198600Y-45847000D01*
X141198600Y-46151800D01*
X142479125Y-46100499D02*
X142487405Y-46173357D01*
X142487405Y-46173357D02*
X142492427Y-46291411D01*
X142492427Y-46291411D02*
X142494000Y-46440596D01*
X142494000Y-46440596D02*
X142494000Y-46805593D01*
X142494000Y-46805593D02*
X142376854Y-46818797D01*
X142376854Y-46818797D02*
X142275836Y-46843354D01*
X142275836Y-46843354D02*
X142205404Y-46886252D01*
X142205404Y-46886252D02*
X142188342Y-46905594D01*
X142188342Y-46905594D02*
X142175077Y-46929635D01*
X142175077Y-46929635D02*
X142164959Y-46964878D01*
X142164959Y-46964878D02*
X142157337Y-47017826D01*
X142157337Y-47017826D02*
X142151560Y-47094981D01*
X142151560Y-47094981D02*
X142146978Y-47202845D01*
X142146978Y-47202845D02*
X142142940Y-47347920D01*
X142142940Y-47347920D02*
X142138795Y-47536709D01*
X142138795Y-47536709D02*
X142138400Y-47555801D01*
X142138400Y-47555801D02*
X142125700Y-48171100D01*
X142125700Y-48171100D02*
X141814550Y-48178231D01*
X141814550Y-48178231D02*
X141503400Y-48185363D01*
X141503400Y-48185363D02*
X141503400Y-46101000D01*
X141503400Y-46101000D02*
X142113000Y-46101000D01*
X142113000Y-46101000D02*
X142113000Y-46331367D01*
X142113000Y-46331367D02*
X142195153Y-46237800D01*
X142195153Y-46237800D02*
X142271526Y-46167310D01*
X142271526Y-46167310D02*
X142358873Y-46110917D01*
X142358873Y-46110917D02*
X142439566Y-46079107D01*
X142439566Y-46079107D02*
X142467784Y-46075600D01*
X142467784Y-46075600D02*
X142479125Y-46100499D01*
X142479125Y-46100499D02*
X142479125Y-46100499D01*
G36*
X142479125Y-46100499D02*
G01*
X142487405Y-46173357D01*
X142492427Y-46291411D01*
X142494000Y-46440596D01*
X142494000Y-46805593D01*
X142376854Y-46818797D01*
X142275836Y-46843354D01*
X142205404Y-46886252D01*
X142188342Y-46905594D01*
X142175077Y-46929635D01*
X142164959Y-46964878D01*
X142157337Y-47017826D01*
X142151560Y-47094981D01*
X142146978Y-47202845D01*
X142142940Y-47347920D01*
X142138795Y-47536709D01*
X142138400Y-47555801D01*
X142125700Y-48171100D01*
X141814550Y-48178231D01*
X141503400Y-48185363D01*
X141503400Y-46101000D01*
X142113000Y-46101000D01*
X142113000Y-46331367D01*
X142195153Y-46237800D01*
X142271526Y-46167310D01*
X142358873Y-46110917D01*
X142439566Y-46079107D01*
X142467784Y-46075600D01*
X142479125Y-46100499D01*
G37*
X142479125Y-46100499D02*
X142487405Y-46173357D01*
X142492427Y-46291411D01*
X142494000Y-46440596D01*
X142494000Y-46805593D01*
X142376854Y-46818797D01*
X142275836Y-46843354D01*
X142205404Y-46886252D01*
X142188342Y-46905594D01*
X142175077Y-46929635D01*
X142164959Y-46964878D01*
X142157337Y-47017826D01*
X142151560Y-47094981D01*
X142146978Y-47202845D01*
X142142940Y-47347920D01*
X142138795Y-47536709D01*
X142138400Y-47555801D01*
X142125700Y-48171100D01*
X141814550Y-48178231D01*
X141503400Y-48185363D01*
X141503400Y-46101000D01*
X142113000Y-46101000D01*
X142113000Y-46331367D01*
X142195153Y-46237800D01*
X142271526Y-46167310D01*
X142358873Y-46110917D01*
X142439566Y-46079107D01*
X142467784Y-46075600D01*
X142479125Y-46100499D01*
X147623263Y-46090604D02*
X147807193Y-46148618D01*
X147807193Y-46148618D02*
X147847782Y-46168025D01*
X147847782Y-46168025D02*
X147958140Y-46235904D01*
X147958140Y-46235904D02*
X148040243Y-46316583D01*
X148040243Y-46316583D02*
X148099259Y-46419262D01*
X148099259Y-46419262D02*
X148140358Y-46553141D01*
X148140358Y-46553141D02*
X148168708Y-46727420D01*
X148168708Y-46727420D02*
X148170461Y-46742350D01*
X148170461Y-46742350D02*
X148187255Y-46888400D01*
X148187255Y-46888400D02*
X147574000Y-46888400D01*
X147574000Y-46888400D02*
X147574000Y-46712677D01*
X147574000Y-46712677D02*
X147571857Y-46617997D01*
X147571857Y-46617997D02*
X147566245Y-46540146D01*
X147566245Y-46540146D02*
X147558582Y-46496777D01*
X147558582Y-46496777D02*
X147523661Y-46464674D01*
X147523661Y-46464674D02*
X147470343Y-46458663D01*
X147470343Y-46458663D02*
X147423816Y-46478744D01*
X147423816Y-46478744D02*
X147411617Y-46496777D01*
X147411617Y-46496777D02*
X147405335Y-46538838D01*
X147405335Y-46538838D02*
X147400675Y-46622050D01*
X147400675Y-46622050D02*
X147397562Y-46737600D01*
X147397562Y-46737600D02*
X147395922Y-46876672D01*
X147395922Y-46876672D02*
X147395678Y-47030454D01*
X147395678Y-47030454D02*
X147396758Y-47190133D01*
X147396758Y-47190133D02*
X147399085Y-47346893D01*
X147399085Y-47346893D02*
X147402586Y-47491922D01*
X147402586Y-47491922D02*
X147407185Y-47616406D01*
X147407185Y-47616406D02*
X147412808Y-47711532D01*
X147412808Y-47711532D02*
X147419380Y-47768484D01*
X147419380Y-47768484D02*
X147422493Y-47779069D01*
X147422493Y-47779069D02*
X147463854Y-47816254D01*
X147463854Y-47816254D02*
X147519763Y-47826873D01*
X147519763Y-47826873D02*
X147568334Y-47809712D01*
X147568334Y-47809712D02*
X147583982Y-47788022D01*
X147583982Y-47788022D02*
X147591115Y-47745012D01*
X147591115Y-47745012D02*
X147596499Y-47666048D01*
X147596499Y-47666048D02*
X147599231Y-47565970D01*
X147599231Y-47565970D02*
X147599400Y-47534022D01*
X147599400Y-47534022D02*
X147599400Y-47320200D01*
X147599400Y-47320200D02*
X148184788Y-47320200D01*
X148184788Y-47320200D02*
X148168483Y-47529750D01*
X148168483Y-47529750D02*
X148155050Y-47643835D01*
X148155050Y-47643835D02*
X148134564Y-47752446D01*
X148134564Y-47752446D02*
X148111119Y-47834506D01*
X148111119Y-47834506D02*
X148107622Y-47843170D01*
X148107622Y-47843170D02*
X148023399Y-47980979D01*
X148023399Y-47980979D02*
X147905462Y-48091587D01*
X147905462Y-48091587D02*
X147765682Y-48164220D01*
X147765682Y-48164220D02*
X147747385Y-48170057D01*
X147747385Y-48170057D02*
X147609145Y-48197021D01*
X147609145Y-48197021D02*
X147451272Y-48206101D01*
X147451272Y-48206101D02*
X147296676Y-48197188D01*
X147296676Y-48197188D02*
X147176229Y-48172753D01*
X147176229Y-48172753D02*
X147039060Y-48112989D01*
X147039060Y-48112989D02*
X146935356Y-48025398D01*
X146935356Y-48025398D02*
X146852858Y-47899305D01*
X146852858Y-47899305D02*
X146845618Y-47884813D01*
X146845618Y-47884813D02*
X146821669Y-47834281D01*
X146821669Y-47834281D02*
X146803652Y-47788524D01*
X146803652Y-47788524D02*
X146790561Y-47739206D01*
X146790561Y-47739206D02*
X146781391Y-47677991D01*
X146781391Y-47677991D02*
X146775135Y-47596543D01*
X146775135Y-47596543D02*
X146770789Y-47486528D01*
X146770789Y-47486528D02*
X146767346Y-47339608D01*
X146767346Y-47339608D02*
X146765057Y-47217103D01*
X146765057Y-47217103D02*
X146762204Y-46994809D01*
X146762204Y-46994809D02*
X146763402Y-46816433D01*
X146763402Y-46816433D02*
X146769915Y-46675168D01*
X146769915Y-46675168D02*
X146783010Y-46564207D01*
X146783010Y-46564207D02*
X146803951Y-46476745D01*
X146803951Y-46476745D02*
X146834004Y-46405976D01*
X146834004Y-46405976D02*
X146874434Y-46345092D01*
X146874434Y-46345092D02*
X146926507Y-46287289D01*
X146926507Y-46287289D02*
X146940484Y-46273501D01*
X146940484Y-46273501D02*
X147084458Y-46167716D01*
X147084458Y-46167716D02*
X147252506Y-46101244D01*
X147252506Y-46101244D02*
X147435238Y-46075176D01*
X147435238Y-46075176D02*
X147623263Y-46090604D01*
X147623263Y-46090604D02*
X147623263Y-46090604D01*
G36*
X147623263Y-46090604D02*
G01*
X147807193Y-46148618D01*
X147847782Y-46168025D01*
X147958140Y-46235904D01*
X148040243Y-46316583D01*
X148099259Y-46419262D01*
X148140358Y-46553141D01*
X148168708Y-46727420D01*
X148170461Y-46742350D01*
X148187255Y-46888400D01*
X147574000Y-46888400D01*
X147574000Y-46712677D01*
X147571857Y-46617997D01*
X147566245Y-46540146D01*
X147558582Y-46496777D01*
X147523661Y-46464674D01*
X147470343Y-46458663D01*
X147423816Y-46478744D01*
X147411617Y-46496777D01*
X147405335Y-46538838D01*
X147400675Y-46622050D01*
X147397562Y-46737600D01*
X147395922Y-46876672D01*
X147395678Y-47030454D01*
X147396758Y-47190133D01*
X147399085Y-47346893D01*
X147402586Y-47491922D01*
X147407185Y-47616406D01*
X147412808Y-47711532D01*
X147419380Y-47768484D01*
X147422493Y-47779069D01*
X147463854Y-47816254D01*
X147519763Y-47826873D01*
X147568334Y-47809712D01*
X147583982Y-47788022D01*
X147591115Y-47745012D01*
X147596499Y-47666048D01*
X147599231Y-47565970D01*
X147599400Y-47534022D01*
X147599400Y-47320200D01*
X148184788Y-47320200D01*
X148168483Y-47529750D01*
X148155050Y-47643835D01*
X148134564Y-47752446D01*
X148111119Y-47834506D01*
X148107622Y-47843170D01*
X148023399Y-47980979D01*
X147905462Y-48091587D01*
X147765682Y-48164220D01*
X147747385Y-48170057D01*
X147609145Y-48197021D01*
X147451272Y-48206101D01*
X147296676Y-48197188D01*
X147176229Y-48172753D01*
X147039060Y-48112989D01*
X146935356Y-48025398D01*
X146852858Y-47899305D01*
X146845618Y-47884813D01*
X146821669Y-47834281D01*
X146803652Y-47788524D01*
X146790561Y-47739206D01*
X146781391Y-47677991D01*
X146775135Y-47596543D01*
X146770789Y-47486528D01*
X146767346Y-47339608D01*
X146765057Y-47217103D01*
X146762204Y-46994809D01*
X146763402Y-46816433D01*
X146769915Y-46675168D01*
X146783010Y-46564207D01*
X146803951Y-46476745D01*
X146834004Y-46405976D01*
X146874434Y-46345092D01*
X146926507Y-46287289D01*
X146940484Y-46273501D01*
X147084458Y-46167716D01*
X147252506Y-46101244D01*
X147435238Y-46075176D01*
X147623263Y-46090604D01*
G37*
X147623263Y-46090604D02*
X147807193Y-46148618D01*
X147847782Y-46168025D01*
X147958140Y-46235904D01*
X148040243Y-46316583D01*
X148099259Y-46419262D01*
X148140358Y-46553141D01*
X148168708Y-46727420D01*
X148170461Y-46742350D01*
X148187255Y-46888400D01*
X147574000Y-46888400D01*
X147574000Y-46712677D01*
X147571857Y-46617997D01*
X147566245Y-46540146D01*
X147558582Y-46496777D01*
X147523661Y-46464674D01*
X147470343Y-46458663D01*
X147423816Y-46478744D01*
X147411617Y-46496777D01*
X147405335Y-46538838D01*
X147400675Y-46622050D01*
X147397562Y-46737600D01*
X147395922Y-46876672D01*
X147395678Y-47030454D01*
X147396758Y-47190133D01*
X147399085Y-47346893D01*
X147402586Y-47491922D01*
X147407185Y-47616406D01*
X147412808Y-47711532D01*
X147419380Y-47768484D01*
X147422493Y-47779069D01*
X147463854Y-47816254D01*
X147519763Y-47826873D01*
X147568334Y-47809712D01*
X147583982Y-47788022D01*
X147591115Y-47745012D01*
X147596499Y-47666048D01*
X147599231Y-47565970D01*
X147599400Y-47534022D01*
X147599400Y-47320200D01*
X148184788Y-47320200D01*
X148168483Y-47529750D01*
X148155050Y-47643835D01*
X148134564Y-47752446D01*
X148111119Y-47834506D01*
X148107622Y-47843170D01*
X148023399Y-47980979D01*
X147905462Y-48091587D01*
X147765682Y-48164220D01*
X147747385Y-48170057D01*
X147609145Y-48197021D01*
X147451272Y-48206101D01*
X147296676Y-48197188D01*
X147176229Y-48172753D01*
X147039060Y-48112989D01*
X146935356Y-48025398D01*
X146852858Y-47899305D01*
X146845618Y-47884813D01*
X146821669Y-47834281D01*
X146803652Y-47788524D01*
X146790561Y-47739206D01*
X146781391Y-47677991D01*
X146775135Y-47596543D01*
X146770789Y-47486528D01*
X146767346Y-47339608D01*
X146765057Y-47217103D01*
X146762204Y-46994809D01*
X146763402Y-46816433D01*
X146769915Y-46675168D01*
X146783010Y-46564207D01*
X146803951Y-46476745D01*
X146834004Y-46405976D01*
X146874434Y-46345092D01*
X146926507Y-46287289D01*
X146940484Y-46273501D01*
X147084458Y-46167716D01*
X147252506Y-46101244D01*
X147435238Y-46075176D01*
X147623263Y-46090604D01*
X149088609Y-46087173D02*
X149254320Y-46121262D01*
X149254320Y-46121262D02*
X149399116Y-46178583D01*
X149399116Y-46178583D02*
X149512349Y-46256437D01*
X149512349Y-46256437D02*
X149557499Y-46307290D01*
X149557499Y-46307290D02*
X149591785Y-46366116D01*
X149591785Y-46366116D02*
X149612679Y-46434814D01*
X149612679Y-46434814D02*
X149624267Y-46529829D01*
X149624267Y-46529829D02*
X149627739Y-46589950D01*
X149627739Y-46589950D02*
X149636778Y-46786800D01*
X149636778Y-46786800D02*
X149075024Y-46786800D01*
X149075024Y-46786800D02*
X149067462Y-46628050D01*
X149067462Y-46628050D02*
X149061962Y-46541191D01*
X149061962Y-46541191D02*
X149052151Y-46492788D01*
X149052151Y-46492788D02*
X149032307Y-46470519D01*
X149032307Y-46470519D02*
X148996712Y-46462057D01*
X148996712Y-46462057D02*
X148990062Y-46461264D01*
X148990062Y-46461264D02*
X148932917Y-46466127D01*
X148932917Y-46466127D02*
X148900226Y-46506646D01*
X148900226Y-46506646D02*
X148895445Y-46518403D01*
X148895445Y-46518403D02*
X148882679Y-46598470D01*
X148882679Y-46598470D02*
X148891558Y-46690675D01*
X148891558Y-46690675D02*
X148918729Y-46767957D01*
X148918729Y-46767957D02*
X148928066Y-46781875D01*
X148928066Y-46781875D02*
X148960267Y-46807064D01*
X148960267Y-46807064D02*
X149026968Y-46849297D01*
X149026968Y-46849297D02*
X149117622Y-46902139D01*
X149117622Y-46902139D02*
X149197027Y-46945962D01*
X149197027Y-46945962D02*
X149363691Y-47040727D01*
X149363691Y-47040727D02*
X149488322Y-47125611D01*
X149488322Y-47125611D02*
X149576629Y-47208098D01*
X149576629Y-47208098D02*
X149634320Y-47295673D01*
X149634320Y-47295673D02*
X149667103Y-47395821D01*
X149667103Y-47395821D02*
X149680684Y-47516026D01*
X149680684Y-47516026D02*
X149682058Y-47582002D01*
X149682058Y-47582002D02*
X149666847Y-47773986D01*
X149666847Y-47773986D02*
X149619821Y-47927642D01*
X149619821Y-47927642D02*
X149539497Y-48045392D01*
X149539497Y-48045392D02*
X149424393Y-48129656D01*
X149424393Y-48129656D02*
X149322185Y-48170057D01*
X149322185Y-48170057D02*
X149192092Y-48195599D01*
X149192092Y-48195599D02*
X149039426Y-48205908D01*
X149039426Y-48205908D02*
X148885956Y-48200890D01*
X148885956Y-48200890D02*
X148753448Y-48180451D01*
X148753448Y-48180451D02*
X148725234Y-48172636D01*
X148725234Y-48172636D02*
X148580282Y-48114656D01*
X148580282Y-48114656D02*
X148473505Y-48039312D01*
X148473505Y-48039312D02*
X148399141Y-47938819D01*
X148399141Y-47938819D02*
X148351431Y-47805397D01*
X148351431Y-47805397D02*
X148324622Y-47631350D01*
X148324622Y-47631350D02*
X148307523Y-47447200D01*
X148307523Y-47447200D02*
X148892574Y-47447200D01*
X148892574Y-47447200D02*
X148900037Y-47631350D01*
X148900037Y-47631350D02*
X148904715Y-47726318D01*
X148904715Y-47726318D02*
X148912339Y-47781904D01*
X148912339Y-47781904D02*
X148927691Y-47809491D01*
X148927691Y-47809491D02*
X148955555Y-47820463D01*
X148955555Y-47820463D02*
X148980943Y-47823883D01*
X148980943Y-47823883D02*
X149042626Y-47819269D01*
X149042626Y-47819269D02*
X149075804Y-47798483D01*
X149075804Y-47798483D02*
X149089701Y-47749674D01*
X149089701Y-47749674D02*
X149096201Y-47673299D01*
X149096201Y-47673299D02*
X149095094Y-47591504D01*
X149095094Y-47591504D02*
X149086172Y-47526435D01*
X149086172Y-47526435D02*
X149078561Y-47506849D01*
X149078561Y-47506849D02*
X149050396Y-47483193D01*
X149050396Y-47483193D02*
X148987448Y-47440336D01*
X148987448Y-47440336D02*
X148899008Y-47384340D01*
X148899008Y-47384340D02*
X148794363Y-47321270D01*
X148794363Y-47321270D02*
X148793200Y-47320585D01*
X148793200Y-47320585D02*
X148683211Y-47254252D01*
X148683211Y-47254252D02*
X148584262Y-47191706D01*
X148584262Y-47191706D02*
X148507608Y-47140239D01*
X148507608Y-47140239D02*
X148465999Y-47108535D01*
X148465999Y-47108535D02*
X148382105Y-47001200D01*
X148382105Y-47001200D02*
X148330960Y-46860108D01*
X148330960Y-46860108D02*
X148311428Y-46681956D01*
X148311428Y-46681956D02*
X148311157Y-46658831D01*
X148311157Y-46658831D02*
X148326713Y-46478191D01*
X148326713Y-46478191D02*
X148375974Y-46334540D01*
X148375974Y-46334540D02*
X148461085Y-46225064D01*
X148461085Y-46225064D02*
X148584188Y-46146947D01*
X148584188Y-46146947D02*
X148737041Y-46099475D01*
X148737041Y-46099475D02*
X148912633Y-46079011D01*
X148912633Y-46079011D02*
X149088609Y-46087173D01*
X149088609Y-46087173D02*
X149088609Y-46087173D01*
G36*
X149088609Y-46087173D02*
G01*
X149254320Y-46121262D01*
X149399116Y-46178583D01*
X149512349Y-46256437D01*
X149557499Y-46307290D01*
X149591785Y-46366116D01*
X149612679Y-46434814D01*
X149624267Y-46529829D01*
X149627739Y-46589950D01*
X149636778Y-46786800D01*
X149075024Y-46786800D01*
X149067462Y-46628050D01*
X149061962Y-46541191D01*
X149052151Y-46492788D01*
X149032307Y-46470519D01*
X148996712Y-46462057D01*
X148990062Y-46461264D01*
X148932917Y-46466127D01*
X148900226Y-46506646D01*
X148895445Y-46518403D01*
X148882679Y-46598470D01*
X148891558Y-46690675D01*
X148918729Y-46767957D01*
X148928066Y-46781875D01*
X148960267Y-46807064D01*
X149026968Y-46849297D01*
X149117622Y-46902139D01*
X149197027Y-46945962D01*
X149363691Y-47040727D01*
X149488322Y-47125611D01*
X149576629Y-47208098D01*
X149634320Y-47295673D01*
X149667103Y-47395821D01*
X149680684Y-47516026D01*
X149682058Y-47582002D01*
X149666847Y-47773986D01*
X149619821Y-47927642D01*
X149539497Y-48045392D01*
X149424393Y-48129656D01*
X149322185Y-48170057D01*
X149192092Y-48195599D01*
X149039426Y-48205908D01*
X148885956Y-48200890D01*
X148753448Y-48180451D01*
X148725234Y-48172636D01*
X148580282Y-48114656D01*
X148473505Y-48039312D01*
X148399141Y-47938819D01*
X148351431Y-47805397D01*
X148324622Y-47631350D01*
X148307523Y-47447200D01*
X148892574Y-47447200D01*
X148900037Y-47631350D01*
X148904715Y-47726318D01*
X148912339Y-47781904D01*
X148927691Y-47809491D01*
X148955555Y-47820463D01*
X148980943Y-47823883D01*
X149042626Y-47819269D01*
X149075804Y-47798483D01*
X149089701Y-47749674D01*
X149096201Y-47673299D01*
X149095094Y-47591504D01*
X149086172Y-47526435D01*
X149078561Y-47506849D01*
X149050396Y-47483193D01*
X148987448Y-47440336D01*
X148899008Y-47384340D01*
X148794363Y-47321270D01*
X148793200Y-47320585D01*
X148683211Y-47254252D01*
X148584262Y-47191706D01*
X148507608Y-47140239D01*
X148465999Y-47108535D01*
X148382105Y-47001200D01*
X148330960Y-46860108D01*
X148311428Y-46681956D01*
X148311157Y-46658831D01*
X148326713Y-46478191D01*
X148375974Y-46334540D01*
X148461085Y-46225064D01*
X148584188Y-46146947D01*
X148737041Y-46099475D01*
X148912633Y-46079011D01*
X149088609Y-46087173D01*
G37*
X149088609Y-46087173D02*
X149254320Y-46121262D01*
X149399116Y-46178583D01*
X149512349Y-46256437D01*
X149557499Y-46307290D01*
X149591785Y-46366116D01*
X149612679Y-46434814D01*
X149624267Y-46529829D01*
X149627739Y-46589950D01*
X149636778Y-46786800D01*
X149075024Y-46786800D01*
X149067462Y-46628050D01*
X149061962Y-46541191D01*
X149052151Y-46492788D01*
X149032307Y-46470519D01*
X148996712Y-46462057D01*
X148990062Y-46461264D01*
X148932917Y-46466127D01*
X148900226Y-46506646D01*
X148895445Y-46518403D01*
X148882679Y-46598470D01*
X148891558Y-46690675D01*
X148918729Y-46767957D01*
X148928066Y-46781875D01*
X148960267Y-46807064D01*
X149026968Y-46849297D01*
X149117622Y-46902139D01*
X149197027Y-46945962D01*
X149363691Y-47040727D01*
X149488322Y-47125611D01*
X149576629Y-47208098D01*
X149634320Y-47295673D01*
X149667103Y-47395821D01*
X149680684Y-47516026D01*
X149682058Y-47582002D01*
X149666847Y-47773986D01*
X149619821Y-47927642D01*
X149539497Y-48045392D01*
X149424393Y-48129656D01*
X149322185Y-48170057D01*
X149192092Y-48195599D01*
X149039426Y-48205908D01*
X148885956Y-48200890D01*
X148753448Y-48180451D01*
X148725234Y-48172636D01*
X148580282Y-48114656D01*
X148473505Y-48039312D01*
X148399141Y-47938819D01*
X148351431Y-47805397D01*
X148324622Y-47631350D01*
X148307523Y-47447200D01*
X148892574Y-47447200D01*
X148900037Y-47631350D01*
X148904715Y-47726318D01*
X148912339Y-47781904D01*
X148927691Y-47809491D01*
X148955555Y-47820463D01*
X148980943Y-47823883D01*
X149042626Y-47819269D01*
X149075804Y-47798483D01*
X149089701Y-47749674D01*
X149096201Y-47673299D01*
X149095094Y-47591504D01*
X149086172Y-47526435D01*
X149078561Y-47506849D01*
X149050396Y-47483193D01*
X148987448Y-47440336D01*
X148899008Y-47384340D01*
X148794363Y-47321270D01*
X148793200Y-47320585D01*
X148683211Y-47254252D01*
X148584262Y-47191706D01*
X148507608Y-47140239D01*
X148465999Y-47108535D01*
X148382105Y-47001200D01*
X148330960Y-46860108D01*
X148311428Y-46681956D01*
X148311157Y-46658831D01*
X148326713Y-46478191D01*
X148375974Y-46334540D01*
X148461085Y-46225064D01*
X148584188Y-46146947D01*
X148737041Y-46099475D01*
X148912633Y-46079011D01*
X149088609Y-46087173D01*
X142011400Y-44170600D02*
X143205200Y-44170600D01*
X143205200Y-44170600D02*
X143205200Y-45669200D01*
X143205200Y-45669200D02*
X140055600Y-45669200D01*
X140055600Y-45669200D02*
X140055600Y-38176200D01*
X140055600Y-38176200D02*
X142011400Y-38176200D01*
X142011400Y-38176200D02*
X142011400Y-44170600D01*
X142011400Y-44170600D02*
X142011400Y-44170600D01*
G36*
X142011400Y-44170600D02*
G01*
X143205200Y-44170600D01*
X143205200Y-45669200D01*
X140055600Y-45669200D01*
X140055600Y-38176200D01*
X142011400Y-38176200D01*
X142011400Y-44170600D01*
G37*
X142011400Y-44170600D02*
X143205200Y-44170600D01*
X143205200Y-45669200D01*
X140055600Y-45669200D01*
X140055600Y-38176200D01*
X142011400Y-38176200D01*
X142011400Y-44170600D01*
%TD*%
M02*
