%TF.GenerationSoftware,KiCad,Pcbnew,(6.0.1)*%
%TF.CreationDate,2022-02-21T18:17:07+01:00*%
%TF.ProjectId,ProgrammCounter,50726f67-7261-46d6-9d43-6f756e746572,rev?*%
%TF.SameCoordinates,Original*%
%TF.FileFunction,Copper,L1,Top*%
%TF.FilePolarity,Positive*%
%FSLAX46Y46*%
G04 Gerber Fmt 4.6, Leading zero omitted, Abs format (unit mm)*
G04 Created by KiCad (PCBNEW (6.0.1)) date 2022-02-21 18:17:07*
%MOMM*%
%LPD*%
G01*
G04 APERTURE LIST*
%TA.AperFunction,ComponentPad*%
%ADD10C,1.600000*%
%TD*%
%TA.AperFunction,ComponentPad*%
%ADD11R,1.800000X1.800000*%
%TD*%
%TA.AperFunction,ComponentPad*%
%ADD12C,1.800000*%
%TD*%
%TA.AperFunction,ComponentPad*%
%ADD13R,1.700000X1.700000*%
%TD*%
%TA.AperFunction,ComponentPad*%
%ADD14O,1.700000X1.700000*%
%TD*%
%TA.AperFunction,ComponentPad*%
%ADD15O,1.600000X1.600000*%
%TD*%
%TA.AperFunction,ComponentPad*%
%ADD16R,2.400000X1.600000*%
%TD*%
%TA.AperFunction,ComponentPad*%
%ADD17O,2.400000X1.600000*%
%TD*%
%TA.AperFunction,ComponentPad*%
%ADD18R,1.600000X2.400000*%
%TD*%
%TA.AperFunction,ComponentPad*%
%ADD19O,1.600000X2.400000*%
%TD*%
%TA.AperFunction,ViaPad*%
%ADD20C,0.800000*%
%TD*%
%TA.AperFunction,Conductor*%
%ADD21C,0.250000*%
%TD*%
G04 APERTURE END LIST*
D10*
%TO.P,C1,1*%
%TO.N,/VCC*%
X22860000Y-46990000D03*
%TO.P,C1,2*%
%TO.N,/GND*%
X27860000Y-46990000D03*
%TD*%
%TO.P,C2,1*%
%TO.N,/VCC*%
X80010000Y-15200000D03*
%TO.P,C2,2*%
%TO.N,/GND*%
X80010000Y-10200000D03*
%TD*%
%TO.P,C3,1*%
%TO.N,/VCC*%
X111760000Y-15200000D03*
%TO.P,C3,2*%
%TO.N,/GND*%
X111760000Y-10200000D03*
%TD*%
D11*
%TO.P,D1,1*%
%TO.N,Net-(D1-Pad1)*%
X50800000Y-36830000D03*
D12*
%TO.P,D1,2*%
%TO.N,Net-(D1-Pad2)*%
X53340000Y-36830000D03*
%TD*%
D11*
%TO.P,D2,1*%
%TO.N,Net-(D2-Pad1)*%
X58420000Y-36830000D03*
D12*
%TO.P,D2,2*%
%TO.N,Net-(D2-Pad2)*%
X60960000Y-36830000D03*
%TD*%
D11*
%TO.P,D3,1*%
%TO.N,Net-(D3-Pad1)*%
X66040000Y-36830000D03*
D12*
%TO.P,D3,2*%
%TO.N,Net-(D3-Pad2)*%
X68580000Y-36830000D03*
%TD*%
D11*
%TO.P,D4,1*%
%TO.N,Net-(D4-Pad1)*%
X73660000Y-36830000D03*
D12*
%TO.P,D4,2*%
%TO.N,Net-(D4-Pad2)*%
X76200000Y-36830000D03*
%TD*%
D11*
%TO.P,D5,1*%
%TO.N,Net-(D5-Pad1)*%
X81280000Y-36830000D03*
D12*
%TO.P,D5,2*%
%TO.N,Net-(D5-Pad2)*%
X83820000Y-36830000D03*
%TD*%
D11*
%TO.P,D6,1*%
%TO.N,Net-(D6-Pad1)*%
X88900000Y-36830000D03*
D12*
%TO.P,D6,2*%
%TO.N,Net-(D6-Pad2)*%
X91440000Y-36830000D03*
%TD*%
D11*
%TO.P,D7,1*%
%TO.N,Net-(D7-Pad1)*%
X96520000Y-36830000D03*
D12*
%TO.P,D7,2*%
%TO.N,Net-(D7-Pad2)*%
X99060000Y-36830000D03*
%TD*%
D11*
%TO.P,D8,1*%
%TO.N,Net-(D8-Pad1)*%
X104140000Y-36830000D03*
D12*
%TO.P,D8,2*%
%TO.N,Net-(D8-Pad2)*%
X106680000Y-36830000D03*
%TD*%
D13*
%TO.P,J1,1*%
%TO.N,/VCC*%
X6580000Y-49530000D03*
D14*
%TO.P,J1,2*%
%TO.N,/BUS_0*%
X4040000Y-49530000D03*
%TO.P,J1,3*%
%TO.N,/CLK*%
X6580000Y-46990000D03*
%TO.P,J1,4*%
%TO.N,/BUS_1*%
X4040000Y-46990000D03*
%TO.P,J1,5*%
%TO.N,Net-(J1-Pad5)*%
X6580000Y-44450000D03*
%TO.P,J1,6*%
%TO.N,/BUS_2*%
X4040000Y-44450000D03*
%TO.P,J1,7*%
%TO.N,Net-(J1-Pad7)*%
X6580000Y-41910000D03*
%TO.P,J1,8*%
%TO.N,/BUS_3*%
X4040000Y-41910000D03*
%TO.P,J1,9*%
%TO.N,Net-(J1-Pad9)*%
X6580000Y-39370000D03*
%TO.P,J1,10*%
%TO.N,/BUS_4*%
X4040000Y-39370000D03*
%TO.P,J1,11*%
%TO.N,Net-(J1-Pad11)*%
X6580000Y-36830000D03*
%TO.P,J1,12*%
%TO.N,/BUS_5*%
X4040000Y-36830000D03*
%TO.P,J1,13*%
%TO.N,Net-(J1-Pad13)*%
X6580000Y-34290000D03*
%TO.P,J1,14*%
%TO.N,/BUS_6*%
X4040000Y-34290000D03*
%TO.P,J1,15*%
%TO.N,Net-(J1-Pad15)*%
X6580000Y-31750000D03*
%TO.P,J1,16*%
%TO.N,/BUS_7*%
X4040000Y-31750000D03*
%TO.P,J1,17*%
%TO.N,/PCUP*%
X6580000Y-29210000D03*
%TO.P,J1,18*%
%TO.N,Net-(J1-Pad18)*%
X4040000Y-29210000D03*
%TO.P,J1,19*%
%TO.N,/~{PCOUT}*%
X6580000Y-26670000D03*
%TO.P,J1,20*%
%TO.N,Net-(J1-Pad20)*%
X4040000Y-26670000D03*
%TO.P,J1,21*%
%TO.N,/~{PCIN}*%
X6580000Y-24130000D03*
%TO.P,J1,22*%
%TO.N,Net-(J1-Pad22)*%
X4040000Y-24130000D03*
%TO.P,J1,23*%
%TO.N,Net-(J1-Pad23)*%
X6580000Y-21590000D03*
%TO.P,J1,24*%
%TO.N,Net-(J1-Pad24)*%
X4040000Y-21590000D03*
%TO.P,J1,25*%
%TO.N,Net-(J1-Pad25)*%
X6580000Y-19050000D03*
%TO.P,J1,26*%
%TO.N,Net-(J1-Pad26)*%
X4040000Y-19050000D03*
%TO.P,J1,27*%
%TO.N,Net-(J1-Pad27)*%
X6580000Y-16510000D03*
%TO.P,J1,28*%
%TO.N,Net-(J1-Pad28)*%
X4040000Y-16510000D03*
%TO.P,J1,29*%
%TO.N,Net-(J1-Pad29)*%
X6580000Y-13970000D03*
%TO.P,J1,30*%
%TO.N,Net-(J1-Pad30)*%
X4040000Y-13970000D03*
%TO.P,J1,31*%
%TO.N,Net-(J1-Pad31)*%
X6580000Y-11430000D03*
%TO.P,J1,32*%
%TO.N,Net-(J1-Pad32)*%
X4040000Y-11430000D03*
%TO.P,J1,33*%
%TO.N,Net-(J1-Pad33)*%
X6580000Y-8890000D03*
%TO.P,J1,34*%
%TO.N,Net-(J1-Pad34)*%
X4040000Y-8890000D03*
%TO.P,J1,35*%
%TO.N,/~{CLR}*%
X6580000Y-6350000D03*
%TO.P,J1,36*%
%TO.N,Net-(J1-Pad36)*%
X4040000Y-6350000D03*
%TO.P,J1,37*%
%TO.N,Net-(J1-Pad37)*%
X6580000Y-3810000D03*
%TO.P,J1,38*%
%TO.N,Net-(J1-Pad38)*%
X4040000Y-3810000D03*
%TO.P,J1,39*%
%TO.N,/GND*%
X6580000Y-1270000D03*
%TO.P,J1,40*%
%TO.N,Net-(J1-Pad40)*%
X4040000Y-1270000D03*
%TD*%
D10*
%TO.P,R1,1*%
%TO.N,Net-(D1-Pad1)*%
X50800000Y-41910000D03*
D15*
%TO.P,R1,2*%
%TO.N,/GND*%
X50800000Y-49530000D03*
%TD*%
D10*
%TO.P,R2,1*%
%TO.N,Net-(D2-Pad1)*%
X58420000Y-41910000D03*
D15*
%TO.P,R2,2*%
%TO.N,/GND*%
X58420000Y-49530000D03*
%TD*%
D10*
%TO.P,R3,1*%
%TO.N,Net-(D3-Pad1)*%
X66040000Y-41910000D03*
D15*
%TO.P,R3,2*%
%TO.N,/GND*%
X66040000Y-49530000D03*
%TD*%
D10*
%TO.P,R4,1*%
%TO.N,Net-(D4-Pad1)*%
X73660000Y-41910000D03*
D15*
%TO.P,R4,2*%
%TO.N,/GND*%
X73660000Y-49530000D03*
%TD*%
D10*
%TO.P,R5,1*%
%TO.N,Net-(D5-Pad1)*%
X81280000Y-41910000D03*
D15*
%TO.P,R5,2*%
%TO.N,/GND*%
X81280000Y-49530000D03*
%TD*%
D10*
%TO.P,R6,1*%
%TO.N,Net-(D6-Pad1)*%
X88900000Y-41910000D03*
D15*
%TO.P,R6,2*%
%TO.N,/GND*%
X88900000Y-49530000D03*
%TD*%
D10*
%TO.P,R7,1*%
%TO.N,Net-(D7-Pad1)*%
X96520000Y-41910000D03*
D15*
%TO.P,R7,2*%
%TO.N,/GND*%
X96520000Y-49530000D03*
%TD*%
D10*
%TO.P,R8,1*%
%TO.N,Net-(D8-Pad1)*%
X104140000Y-41910000D03*
D15*
%TO.P,R8,2*%
%TO.N,/GND*%
X104140000Y-49530000D03*
%TD*%
D16*
%TO.P,U2,1*%
%TO.N,/VCC*%
X29210000Y-43180000D03*
D17*
%TO.P,U2,2*%
%TO.N,Net-(D8-Pad2)*%
X29210000Y-40640000D03*
%TO.P,U2,3*%
%TO.N,Net-(D7-Pad2)*%
X29210000Y-38100000D03*
%TO.P,U2,4*%
%TO.N,Net-(D6-Pad2)*%
X29210000Y-35560000D03*
%TO.P,U2,5*%
%TO.N,Net-(D5-Pad2)*%
X29210000Y-33020000D03*
%TO.P,U2,6*%
%TO.N,Net-(D4-Pad2)*%
X29210000Y-30480000D03*
%TO.P,U2,7*%
%TO.N,Net-(D3-Pad2)*%
X29210000Y-27940000D03*
%TO.P,U2,8*%
%TO.N,Net-(D2-Pad2)*%
X29210000Y-25400000D03*
%TO.P,U2,9*%
%TO.N,Net-(D1-Pad2)*%
X29210000Y-22860000D03*
%TO.P,U2,10*%
%TO.N,/GND*%
X29210000Y-20320000D03*
%TO.P,U2,11*%
%TO.N,/BUS_7*%
X21590000Y-20320000D03*
%TO.P,U2,12*%
%TO.N,/BUS_6*%
X21590000Y-22860000D03*
%TO.P,U2,13*%
%TO.N,/BUS_5*%
X21590000Y-25400000D03*
%TO.P,U2,14*%
%TO.N,/BUS_4*%
X21590000Y-27940000D03*
%TO.P,U2,15*%
%TO.N,/BUS_3*%
X21590000Y-30480000D03*
%TO.P,U2,16*%
%TO.N,/BUS_2*%
X21590000Y-33020000D03*
%TO.P,U2,17*%
%TO.N,/BUS_1*%
X21590000Y-35560000D03*
%TO.P,U2,18*%
%TO.N,/BUS_0*%
X21590000Y-38100000D03*
%TO.P,U2,19*%
%TO.N,/~{PCOUT}*%
X21590000Y-40640000D03*
%TO.P,U2,20*%
%TO.N,/VCC*%
X21590000Y-43180000D03*
%TD*%
D18*
%TO.P,U3,1*%
%TO.N,/~{CLR}*%
X76200000Y-8890000D03*
D19*
%TO.P,U3,2*%
%TO.N,/CLK*%
X73660000Y-8890000D03*
%TO.P,U3,3*%
%TO.N,/BUS_4*%
X71120000Y-8890000D03*
%TO.P,U3,4*%
%TO.N,/BUS_5*%
X68580000Y-8890000D03*
%TO.P,U3,5*%
%TO.N,/BUS_6*%
X66040000Y-8890000D03*
%TO.P,U3,6*%
%TO.N,/BUS_7*%
X63500000Y-8890000D03*
%TO.P,U3,7*%
%TO.N,/PCUP*%
X60960000Y-8890000D03*
%TO.P,U3,8*%
%TO.N,/GND*%
X58420000Y-8890000D03*
%TO.P,U3,9*%
%TO.N,/~{PCIN}*%
X58420000Y-16510000D03*
%TO.P,U3,10*%
%TO.N,Net-(U3-Pad10)*%
X60960000Y-16510000D03*
%TO.P,U3,11*%
%TO.N,Net-(D1-Pad2)*%
X63500000Y-16510000D03*
%TO.P,U3,12*%
%TO.N,Net-(D2-Pad2)*%
X66040000Y-16510000D03*
%TO.P,U3,13*%
%TO.N,Net-(D3-Pad2)*%
X68580000Y-16510000D03*
%TO.P,U3,14*%
%TO.N,Net-(D4-Pad2)*%
X71120000Y-16510000D03*
%TO.P,U3,15*%
%TO.N,Net-(U3-Pad15)*%
X73660000Y-16510000D03*
%TO.P,U3,16*%
%TO.N,/VCC*%
X76200000Y-16510000D03*
%TD*%
D18*
%TO.P,U4,1*%
%TO.N,/~{CLR}*%
X107950000Y-8890000D03*
D19*
%TO.P,U4,2*%
%TO.N,/CLK*%
X105410000Y-8890000D03*
%TO.P,U4,3*%
%TO.N,/BUS_0*%
X102870000Y-8890000D03*
%TO.P,U4,4*%
%TO.N,/BUS_1*%
X100330000Y-8890000D03*
%TO.P,U4,5*%
%TO.N,/BUS_2*%
X97790000Y-8890000D03*
%TO.P,U4,6*%
%TO.N,/BUS_3*%
X95250000Y-8890000D03*
%TO.P,U4,7*%
%TO.N,/PCUP*%
X92710000Y-8890000D03*
%TO.P,U4,8*%
%TO.N,/GND*%
X90170000Y-8890000D03*
%TO.P,U4,9*%
%TO.N,/~{PCIN}*%
X90170000Y-16510000D03*
%TO.P,U4,10*%
%TO.N,/PCUP*%
X92710000Y-16510000D03*
%TO.P,U4,11*%
%TO.N,Net-(D5-Pad2)*%
X95250000Y-16510000D03*
%TO.P,U4,12*%
%TO.N,Net-(D6-Pad2)*%
X97790000Y-16510000D03*
%TO.P,U4,13*%
%TO.N,Net-(D7-Pad2)*%
X100330000Y-16510000D03*
%TO.P,U4,14*%
%TO.N,Net-(D8-Pad2)*%
X102870000Y-16510000D03*
%TO.P,U4,15*%
%TO.N,Net-(U3-Pad10)*%
X105410000Y-16510000D03*
%TO.P,U4,16*%
%TO.N,/VCC*%
X107950000Y-16510000D03*
%TD*%
D20*
%TO.N,Net-(D1-Pad2)*%
X53340000Y-22860000D03*
%TO.N,Net-(D2-Pad2)*%
X60960000Y-25400000D03*
%TO.N,Net-(D3-Pad2)*%
X67056000Y-27940000D03*
%TO.N,Net-(D4-Pad2)*%
X69088000Y-28956000D03*
%TO.N,Net-(D5-Pad2)*%
X83820000Y-29972000D03*
%TO.N,Net-(D6-Pad2)*%
X91440000Y-30988000D03*
%TO.N,Net-(D7-Pad2)*%
X93980000Y-32004000D03*
%TO.N,Net-(D8-Pad2)*%
X102870000Y-25654000D03*
%TO.N,/~{CLR}*%
X96012000Y-11684000D03*
X20320000Y-6350000D03*
%TO.N,/~{PCIN}*%
X49784000Y-15748000D03*
X23876000Y-15748000D03*
%TO.N,/PCUP*%
X13208000Y-10668000D03*
%TO.N,/BUS_7*%
X19050000Y-18415000D03*
%TO.N,/BUS_6*%
X17780000Y-18415000D03*
%TO.N,/BUS_5*%
X16510000Y-18415000D03*
%TO.N,/BUS_4*%
X15240000Y-18415000D03*
%TO.N,/BUS_3*%
X13970000Y-18415000D03*
%TO.N,/BUS_2*%
X12700000Y-18415000D03*
%TO.N,/BUS_1*%
X11430000Y-18415000D03*
%TO.N,/CLK*%
X51816000Y-16764000D03*
%TO.N,/BUS_0*%
X10160000Y-18415000D03*
%TO.N,Net-(U3-Pad10)*%
X60960000Y-19304000D03*
%TD*%
D21*
%TO.N,Net-(D1-Pad2)*%
X29210000Y-22860000D02*
X62484000Y-22860000D01*
X62484000Y-22860000D02*
X63500000Y-21844000D01*
X63500000Y-21844000D02*
X63500000Y-16510000D01*
%TO.N,Net-(D1-Pad1)*%
X50800000Y-36830000D02*
X50800000Y-41910000D01*
%TO.N,Net-(D2-Pad2)*%
X66040000Y-24384000D02*
X66040000Y-16510000D01*
X65024000Y-25400000D02*
X66040000Y-24384000D01*
X29210000Y-25400000D02*
X65024000Y-25400000D01*
%TO.N,Net-(D2-Pad1)*%
X58420000Y-36830000D02*
X58420000Y-41910000D01*
%TO.N,Net-(D3-Pad2)*%
X68580000Y-26416000D02*
X68580000Y-16510000D01*
X67056000Y-27940000D02*
X68580000Y-26416000D01*
X29210000Y-27940000D02*
X67056000Y-27940000D01*
%TO.N,Net-(D3-Pad1)*%
X66040000Y-36830000D02*
X66040000Y-41910000D01*
%TO.N,Net-(D4-Pad2)*%
X45212000Y-28956000D02*
X69088000Y-28956000D01*
X29210000Y-30480000D02*
X43688000Y-30480000D01*
X71120000Y-26924000D02*
X71120000Y-16510000D01*
X43688000Y-30480000D02*
X45212000Y-28956000D01*
X69088000Y-28956000D02*
X71120000Y-26924000D01*
%TO.N,Net-(D4-Pad1)*%
X73660000Y-36830000D02*
X73660000Y-41910000D01*
%TO.N,Net-(D5-Pad2)*%
X29210000Y-33020000D02*
X42672000Y-33020000D01*
X42672000Y-33020000D02*
X45720000Y-29972000D01*
X95250000Y-25654000D02*
X95250000Y-16510000D01*
X90932000Y-29972000D02*
X95250000Y-25654000D01*
X45720000Y-29972000D02*
X90932000Y-29972000D01*
%TO.N,Net-(D5-Pad1)*%
X81280000Y-36830000D02*
X81280000Y-41910000D01*
%TO.N,Net-(D6-Pad2)*%
X91948000Y-30988000D02*
X97790000Y-25146000D01*
X29210000Y-35560000D02*
X41656000Y-35560000D01*
X97790000Y-25146000D02*
X97790000Y-16510000D01*
X41656000Y-35560000D02*
X46228000Y-30988000D01*
X46228000Y-30988000D02*
X91948000Y-30988000D01*
%TO.N,Net-(D6-Pad1)*%
X88900000Y-36830000D02*
X88900000Y-41910000D01*
%TO.N,Net-(D7-Pad2)*%
X93980000Y-32004000D02*
X100330000Y-25654000D01*
X100330000Y-25654000D02*
X100330000Y-16510000D01*
X29210000Y-38100000D02*
X40640000Y-38100000D01*
X46736000Y-32004000D02*
X93980000Y-32004000D01*
X40640000Y-38100000D02*
X46736000Y-32004000D01*
%TO.N,Net-(D7-Pad1)*%
X96520000Y-36830000D02*
X96520000Y-41910000D01*
%TO.N,Net-(D8-Pad2)*%
X95504000Y-33020000D02*
X102870000Y-25654000D01*
X39624000Y-40640000D02*
X47244000Y-33020000D01*
X29210000Y-40640000D02*
X39624000Y-40640000D01*
X102870000Y-25654000D02*
X102870000Y-16510000D01*
X47244000Y-33020000D02*
X95504000Y-33020000D01*
%TO.N,Net-(D8-Pad1)*%
X104140000Y-36830000D02*
X104140000Y-41910000D01*
%TO.N,/~{CLR}*%
X96012000Y-11684000D02*
X105156000Y-11684000D01*
X6580000Y-6350000D02*
X20320000Y-6350000D01*
X105156000Y-11684000D02*
X107950000Y-8890000D01*
%TO.N,/~{PCIN}*%
X49784000Y-15748000D02*
X23876000Y-15748000D01*
%TO.N,/PCUP*%
X92710000Y-8890000D02*
X92710000Y-16510000D01*
X7755001Y-28034999D02*
X7755001Y-16120999D01*
X7755001Y-16120999D02*
X13208000Y-10668000D01*
X6580000Y-29210000D02*
X7755001Y-28034999D01*
%TO.N,/BUS_7*%
X17780000Y-20320000D02*
X7525001Y-30574999D01*
X5215001Y-30574999D02*
X4040000Y-31750000D01*
X30100010Y-7364990D02*
X61974990Y-7364990D01*
X61974990Y-7364990D02*
X63500000Y-8890000D01*
X21590000Y-20320000D02*
X17780000Y-20320000D01*
X7525001Y-30574999D02*
X5215001Y-30574999D01*
X19050000Y-18415000D02*
X30100010Y-7364990D01*
%TO.N,/BUS_6*%
X5310000Y-33020000D02*
X4040000Y-34290000D01*
X17780000Y-22860000D02*
X7620000Y-33020000D01*
X7620000Y-33020000D02*
X5310000Y-33020000D01*
X17780000Y-18415000D02*
X29845000Y-6350000D01*
X21590000Y-22860000D02*
X17780000Y-22860000D01*
X63500000Y-6350000D02*
X66040000Y-8890000D01*
X29845000Y-6350000D02*
X63500000Y-6350000D01*
%TO.N,/BUS_5*%
X65405000Y-5715000D02*
X68580000Y-8890000D01*
X5310000Y-35560000D02*
X4040000Y-36830000D01*
X7620000Y-35560000D02*
X5310000Y-35560000D01*
X21590000Y-25400000D02*
X17780000Y-25400000D01*
X29210000Y-5715000D02*
X65405000Y-5715000D01*
X16510000Y-18415000D02*
X29210000Y-5715000D01*
X17780000Y-25400000D02*
X7620000Y-35560000D01*
%TO.N,/BUS_4*%
X7620000Y-38100000D02*
X5310000Y-38100000D01*
X17780000Y-27940000D02*
X7620000Y-38100000D01*
X15240000Y-18415000D02*
X28575000Y-5080000D01*
X67310000Y-5080000D02*
X71120000Y-8890000D01*
X21590000Y-27940000D02*
X17780000Y-27940000D01*
X28575000Y-5080000D02*
X67310000Y-5080000D01*
X5310000Y-38100000D02*
X4040000Y-39370000D01*
%TO.N,/BUS_3*%
X90805000Y-4445000D02*
X95250000Y-8890000D01*
X13970000Y-18415000D02*
X27940000Y-4445000D01*
X17780000Y-30480000D02*
X7620000Y-40640000D01*
X21590000Y-30480000D02*
X17780000Y-30480000D01*
X5310000Y-40640000D02*
X4040000Y-41910000D01*
X27940000Y-4445000D02*
X90805000Y-4445000D01*
X7620000Y-40640000D02*
X5310000Y-40640000D01*
%TO.N,/BUS_2*%
X7620000Y-43180000D02*
X5310000Y-43180000D01*
X92710000Y-3810000D02*
X97790000Y-8890000D01*
X17780000Y-33020000D02*
X7620000Y-43180000D01*
X21590000Y-33020000D02*
X17780000Y-33020000D01*
X5310000Y-43180000D02*
X4040000Y-44450000D01*
X12700000Y-18415000D02*
X27305000Y-3810000D01*
X27305000Y-3810000D02*
X92710000Y-3810000D01*
%TO.N,/BUS_1*%
X26670000Y-3175000D02*
X94615000Y-3175000D01*
X17780000Y-35560000D02*
X7620000Y-45720000D01*
X11430000Y-18415000D02*
X26670000Y-3175000D01*
X5310000Y-45720000D02*
X4040000Y-46990000D01*
X7620000Y-45720000D02*
X5310000Y-45720000D01*
X21590000Y-35560000D02*
X17780000Y-35560000D01*
X94615000Y-3175000D02*
X100330000Y-8890000D01*
%TO.N,/CLK*%
X53706998Y-13208000D02*
X51816000Y-15098998D01*
X51816000Y-15098998D02*
X51816000Y-16764000D01*
X73111004Y-8890000D02*
X68793004Y-13208000D01*
X68793004Y-13208000D02*
X53706998Y-13208000D01*
X73660000Y-8890000D02*
X73111004Y-8890000D01*
%TO.N,/BUS_0*%
X21590000Y-38100000D02*
X17780000Y-38100000D01*
X10160000Y-18415000D02*
X26035000Y-2540000D01*
X26035000Y-2540000D02*
X96520000Y-2540000D01*
X96520000Y-2540000D02*
X102870000Y-8890000D01*
X17780000Y-38100000D02*
X7620000Y-48260000D01*
X7620000Y-48260000D02*
X5310000Y-48260000D01*
X5310000Y-48260000D02*
X4040000Y-49530000D01*
%TO.N,Net-(U3-Pad10)*%
X60960000Y-16510000D02*
X60960000Y-19304000D01*
%TD*%
%TA.AperFunction,Conductor*%
%TO.N,/VCC*%
G36*
X149830057Y-509500D02*
G01*
X149844858Y-511805D01*
X149844861Y-511805D01*
X149853730Y-513186D01*
X149869999Y-511059D01*
X149894567Y-510266D01*
X150116985Y-524844D01*
X150133326Y-526995D01*
X150377824Y-575629D01*
X150393743Y-579895D01*
X150629790Y-660022D01*
X150645017Y-666329D01*
X150868592Y-776584D01*
X150882865Y-784825D01*
X151090133Y-923316D01*
X151103206Y-933346D01*
X151239100Y-1052522D01*
X151290632Y-1097714D01*
X151302286Y-1109368D01*
X151446108Y-1273365D01*
X151466651Y-1296790D01*
X151476684Y-1309867D01*
X151615175Y-1517135D01*
X151623416Y-1531408D01*
X151733671Y-1754983D01*
X151739978Y-1770210D01*
X151820105Y-2006257D01*
X151824371Y-2022176D01*
X151873005Y-2266673D01*
X151875156Y-2283014D01*
X151889264Y-2498268D01*
X151888239Y-2521304D01*
X151888196Y-2524854D01*
X151886814Y-2533730D01*
X151888454Y-2546270D01*
X151890936Y-2565251D01*
X151892000Y-2581589D01*
X151892000Y-48210672D01*
X151890500Y-48230056D01*
X151886814Y-48253730D01*
X151888941Y-48269999D01*
X151889734Y-48294567D01*
X151875156Y-48516985D01*
X151873005Y-48533326D01*
X151824371Y-48777824D01*
X151820105Y-48793743D01*
X151739978Y-49029790D01*
X151733671Y-49045017D01*
X151623416Y-49268592D01*
X151615175Y-49282865D01*
X151476684Y-49490133D01*
X151466654Y-49503206D01*
X151438355Y-49535475D01*
X151302286Y-49690632D01*
X151290632Y-49702286D01*
X151164457Y-49812939D01*
X151103210Y-49866651D01*
X151090133Y-49876684D01*
X150882865Y-50015175D01*
X150868592Y-50023416D01*
X150645017Y-50133671D01*
X150629790Y-50139978D01*
X150393743Y-50220105D01*
X150377824Y-50224371D01*
X150133327Y-50273005D01*
X150116986Y-50275156D01*
X149901732Y-50289264D01*
X149878696Y-50288239D01*
X149875146Y-50288196D01*
X149866270Y-50286814D01*
X149837762Y-50290542D01*
X149834749Y-50290936D01*
X149818411Y-50292000D01*
X105426224Y-50292000D01*
X105358103Y-50271998D01*
X105311610Y-50218342D01*
X105301506Y-50148068D01*
X105312029Y-50112750D01*
X105371961Y-49984225D01*
X105371961Y-49984224D01*
X105374284Y-49979243D01*
X105384150Y-49942425D01*
X105432119Y-49763402D01*
X105432119Y-49763400D01*
X105433543Y-49758087D01*
X105453498Y-49530000D01*
X105433543Y-49301913D01*
X105426600Y-49276000D01*
X105375707Y-49086067D01*
X105375706Y-49086065D01*
X105374284Y-49080757D01*
X105350518Y-49029790D01*
X105279849Y-48878238D01*
X105279846Y-48878233D01*
X105277523Y-48873251D01*
X105146198Y-48685700D01*
X104984300Y-48523802D01*
X104979792Y-48520645D01*
X104979789Y-48520643D01*
X104901611Y-48465902D01*
X104796749Y-48392477D01*
X104791767Y-48390154D01*
X104791762Y-48390151D01*
X104594225Y-48298039D01*
X104594224Y-48298039D01*
X104589243Y-48295716D01*
X104583935Y-48294294D01*
X104583933Y-48294293D01*
X104373402Y-48237881D01*
X104373400Y-48237881D01*
X104368087Y-48236457D01*
X104140000Y-48216502D01*
X103911913Y-48236457D01*
X103906600Y-48237881D01*
X103906598Y-48237881D01*
X103696067Y-48294293D01*
X103696065Y-48294294D01*
X103690757Y-48295716D01*
X103685776Y-48298039D01*
X103685775Y-48298039D01*
X103488238Y-48390151D01*
X103488233Y-48390154D01*
X103483251Y-48392477D01*
X103378389Y-48465902D01*
X103300211Y-48520643D01*
X103300208Y-48520645D01*
X103295700Y-48523802D01*
X103133802Y-48685700D01*
X103002477Y-48873251D01*
X103000154Y-48878233D01*
X103000151Y-48878238D01*
X102929482Y-49029790D01*
X102905716Y-49080757D01*
X102904294Y-49086065D01*
X102904293Y-49086067D01*
X102853400Y-49276000D01*
X102846457Y-49301913D01*
X102826502Y-49530000D01*
X102846457Y-49758087D01*
X102847881Y-49763400D01*
X102847881Y-49763402D01*
X102895851Y-49942425D01*
X102905716Y-49979243D01*
X102908039Y-49984224D01*
X102908039Y-49984225D01*
X102967971Y-50112750D01*
X102978632Y-50182942D01*
X102949652Y-50247755D01*
X102890232Y-50286611D01*
X102853776Y-50292000D01*
X97806224Y-50292000D01*
X97738103Y-50271998D01*
X97691610Y-50218342D01*
X97681506Y-50148068D01*
X97692029Y-50112750D01*
X97751961Y-49984225D01*
X97751961Y-49984224D01*
X97754284Y-49979243D01*
X97764150Y-49942425D01*
X97812119Y-49763402D01*
X97812119Y-49763400D01*
X97813543Y-49758087D01*
X97833498Y-49530000D01*
X97813543Y-49301913D01*
X97806600Y-49276000D01*
X97755707Y-49086067D01*
X97755706Y-49086065D01*
X97754284Y-49080757D01*
X97730518Y-49029790D01*
X97659849Y-48878238D01*
X97659846Y-48878233D01*
X97657523Y-48873251D01*
X97526198Y-48685700D01*
X97364300Y-48523802D01*
X97359792Y-48520645D01*
X97359789Y-48520643D01*
X97281611Y-48465902D01*
X97176749Y-48392477D01*
X97171767Y-48390154D01*
X97171762Y-48390151D01*
X96974225Y-48298039D01*
X96974224Y-48298039D01*
X96969243Y-48295716D01*
X96963935Y-48294294D01*
X96963933Y-48294293D01*
X96753402Y-48237881D01*
X96753400Y-48237881D01*
X96748087Y-48236457D01*
X96520000Y-48216502D01*
X96291913Y-48236457D01*
X96286600Y-48237881D01*
X96286598Y-48237881D01*
X96076067Y-48294293D01*
X96076065Y-48294294D01*
X96070757Y-48295716D01*
X96065776Y-48298039D01*
X96065775Y-48298039D01*
X95868238Y-48390151D01*
X95868233Y-48390154D01*
X95863251Y-48392477D01*
X95758389Y-48465902D01*
X95680211Y-48520643D01*
X95680208Y-48520645D01*
X95675700Y-48523802D01*
X95513802Y-48685700D01*
X95382477Y-48873251D01*
X95380154Y-48878233D01*
X95380151Y-48878238D01*
X95309482Y-49029790D01*
X95285716Y-49080757D01*
X95284294Y-49086065D01*
X95284293Y-49086067D01*
X95233400Y-49276000D01*
X95226457Y-49301913D01*
X95206502Y-49530000D01*
X95226457Y-49758087D01*
X95227881Y-49763400D01*
X95227881Y-49763402D01*
X95275851Y-49942425D01*
X95285716Y-49979243D01*
X95288039Y-49984224D01*
X95288039Y-49984225D01*
X95347971Y-50112750D01*
X95358632Y-50182942D01*
X95329652Y-50247755D01*
X95270232Y-50286611D01*
X95233776Y-50292000D01*
X90186224Y-50292000D01*
X90118103Y-50271998D01*
X90071610Y-50218342D01*
X90061506Y-50148068D01*
X90072029Y-50112750D01*
X90131961Y-49984225D01*
X90131961Y-49984224D01*
X90134284Y-49979243D01*
X90144150Y-49942425D01*
X90192119Y-49763402D01*
X90192119Y-49763400D01*
X90193543Y-49758087D01*
X90213498Y-49530000D01*
X90193543Y-49301913D01*
X90186600Y-49276000D01*
X90135707Y-49086067D01*
X90135706Y-49086065D01*
X90134284Y-49080757D01*
X90110518Y-49029790D01*
X90039849Y-48878238D01*
X90039846Y-48878233D01*
X90037523Y-48873251D01*
X89906198Y-48685700D01*
X89744300Y-48523802D01*
X89739792Y-48520645D01*
X89739789Y-48520643D01*
X89661611Y-48465902D01*
X89556749Y-48392477D01*
X89551767Y-48390154D01*
X89551762Y-48390151D01*
X89354225Y-48298039D01*
X89354224Y-48298039D01*
X89349243Y-48295716D01*
X89343935Y-48294294D01*
X89343933Y-48294293D01*
X89133402Y-48237881D01*
X89133400Y-48237881D01*
X89128087Y-48236457D01*
X88900000Y-48216502D01*
X88671913Y-48236457D01*
X88666600Y-48237881D01*
X88666598Y-48237881D01*
X88456067Y-48294293D01*
X88456065Y-48294294D01*
X88450757Y-48295716D01*
X88445776Y-48298039D01*
X88445775Y-48298039D01*
X88248238Y-48390151D01*
X88248233Y-48390154D01*
X88243251Y-48392477D01*
X88138389Y-48465902D01*
X88060211Y-48520643D01*
X88060208Y-48520645D01*
X88055700Y-48523802D01*
X87893802Y-48685700D01*
X87762477Y-48873251D01*
X87760154Y-48878233D01*
X87760151Y-48878238D01*
X87689482Y-49029790D01*
X87665716Y-49080757D01*
X87664294Y-49086065D01*
X87664293Y-49086067D01*
X87613400Y-49276000D01*
X87606457Y-49301913D01*
X87586502Y-49530000D01*
X87606457Y-49758087D01*
X87607881Y-49763400D01*
X87607881Y-49763402D01*
X87655851Y-49942425D01*
X87665716Y-49979243D01*
X87668039Y-49984224D01*
X87668039Y-49984225D01*
X87727971Y-50112750D01*
X87738632Y-50182942D01*
X87709652Y-50247755D01*
X87650232Y-50286611D01*
X87613776Y-50292000D01*
X82566224Y-50292000D01*
X82498103Y-50271998D01*
X82451610Y-50218342D01*
X82441506Y-50148068D01*
X82452029Y-50112750D01*
X82511961Y-49984225D01*
X82511961Y-49984224D01*
X82514284Y-49979243D01*
X82524150Y-49942425D01*
X82572119Y-49763402D01*
X82572119Y-49763400D01*
X82573543Y-49758087D01*
X82593498Y-49530000D01*
X82573543Y-49301913D01*
X82566600Y-49276000D01*
X82515707Y-49086067D01*
X82515706Y-49086065D01*
X82514284Y-49080757D01*
X82490518Y-49029790D01*
X82419849Y-48878238D01*
X82419846Y-48878233D01*
X82417523Y-48873251D01*
X82286198Y-48685700D01*
X82124300Y-48523802D01*
X82119792Y-48520645D01*
X82119789Y-48520643D01*
X82041611Y-48465902D01*
X81936749Y-48392477D01*
X81931767Y-48390154D01*
X81931762Y-48390151D01*
X81734225Y-48298039D01*
X81734224Y-48298039D01*
X81729243Y-48295716D01*
X81723935Y-48294294D01*
X81723933Y-48294293D01*
X81513402Y-48237881D01*
X81513400Y-48237881D01*
X81508087Y-48236457D01*
X81280000Y-48216502D01*
X81051913Y-48236457D01*
X81046600Y-48237881D01*
X81046598Y-48237881D01*
X80836067Y-48294293D01*
X80836065Y-48294294D01*
X80830757Y-48295716D01*
X80825776Y-48298039D01*
X80825775Y-48298039D01*
X80628238Y-48390151D01*
X80628233Y-48390154D01*
X80623251Y-48392477D01*
X80518389Y-48465902D01*
X80440211Y-48520643D01*
X80440208Y-48520645D01*
X80435700Y-48523802D01*
X80273802Y-48685700D01*
X80142477Y-48873251D01*
X80140154Y-48878233D01*
X80140151Y-48878238D01*
X80069482Y-49029790D01*
X80045716Y-49080757D01*
X80044294Y-49086065D01*
X80044293Y-49086067D01*
X79993400Y-49276000D01*
X79986457Y-49301913D01*
X79966502Y-49530000D01*
X79986457Y-49758087D01*
X79987881Y-49763400D01*
X79987881Y-49763402D01*
X80035851Y-49942425D01*
X80045716Y-49979243D01*
X80048039Y-49984224D01*
X80048039Y-49984225D01*
X80107971Y-50112750D01*
X80118632Y-50182942D01*
X80089652Y-50247755D01*
X80030232Y-50286611D01*
X79993776Y-50292000D01*
X74946224Y-50292000D01*
X74878103Y-50271998D01*
X74831610Y-50218342D01*
X74821506Y-50148068D01*
X74832029Y-50112750D01*
X74891961Y-49984225D01*
X74891961Y-49984224D01*
X74894284Y-49979243D01*
X74904150Y-49942425D01*
X74952119Y-49763402D01*
X74952119Y-49763400D01*
X74953543Y-49758087D01*
X74973498Y-49530000D01*
X74953543Y-49301913D01*
X74946600Y-49276000D01*
X74895707Y-49086067D01*
X74895706Y-49086065D01*
X74894284Y-49080757D01*
X74870518Y-49029790D01*
X74799849Y-48878238D01*
X74799846Y-48878233D01*
X74797523Y-48873251D01*
X74666198Y-48685700D01*
X74504300Y-48523802D01*
X74499792Y-48520645D01*
X74499789Y-48520643D01*
X74421611Y-48465902D01*
X74316749Y-48392477D01*
X74311767Y-48390154D01*
X74311762Y-48390151D01*
X74114225Y-48298039D01*
X74114224Y-48298039D01*
X74109243Y-48295716D01*
X74103935Y-48294294D01*
X74103933Y-48294293D01*
X73893402Y-48237881D01*
X73893400Y-48237881D01*
X73888087Y-48236457D01*
X73660000Y-48216502D01*
X73431913Y-48236457D01*
X73426600Y-48237881D01*
X73426598Y-48237881D01*
X73216067Y-48294293D01*
X73216065Y-48294294D01*
X73210757Y-48295716D01*
X73205776Y-48298039D01*
X73205775Y-48298039D01*
X73008238Y-48390151D01*
X73008233Y-48390154D01*
X73003251Y-48392477D01*
X72898389Y-48465902D01*
X72820211Y-48520643D01*
X72820208Y-48520645D01*
X72815700Y-48523802D01*
X72653802Y-48685700D01*
X72522477Y-48873251D01*
X72520154Y-48878233D01*
X72520151Y-48878238D01*
X72449482Y-49029790D01*
X72425716Y-49080757D01*
X72424294Y-49086065D01*
X72424293Y-49086067D01*
X72373400Y-49276000D01*
X72366457Y-49301913D01*
X72346502Y-49530000D01*
X72366457Y-49758087D01*
X72367881Y-49763400D01*
X72367881Y-49763402D01*
X72415851Y-49942425D01*
X72425716Y-49979243D01*
X72428039Y-49984224D01*
X72428039Y-49984225D01*
X72487971Y-50112750D01*
X72498632Y-50182942D01*
X72469652Y-50247755D01*
X72410232Y-50286611D01*
X72373776Y-50292000D01*
X67326224Y-50292000D01*
X67258103Y-50271998D01*
X67211610Y-50218342D01*
X67201506Y-50148068D01*
X67212029Y-50112750D01*
X67271961Y-49984225D01*
X67271961Y-49984224D01*
X67274284Y-49979243D01*
X67284150Y-49942425D01*
X67332119Y-49763402D01*
X67332119Y-49763400D01*
X67333543Y-49758087D01*
X67353498Y-49530000D01*
X67333543Y-49301913D01*
X67326600Y-49276000D01*
X67275707Y-49086067D01*
X67275706Y-49086065D01*
X67274284Y-49080757D01*
X67250518Y-49029790D01*
X67179849Y-48878238D01*
X67179846Y-48878233D01*
X67177523Y-48873251D01*
X67046198Y-48685700D01*
X66884300Y-48523802D01*
X66879792Y-48520645D01*
X66879789Y-48520643D01*
X66801611Y-48465902D01*
X66696749Y-48392477D01*
X66691767Y-48390154D01*
X66691762Y-48390151D01*
X66494225Y-48298039D01*
X66494224Y-48298039D01*
X66489243Y-48295716D01*
X66483935Y-48294294D01*
X66483933Y-48294293D01*
X66273402Y-48237881D01*
X66273400Y-48237881D01*
X66268087Y-48236457D01*
X66040000Y-48216502D01*
X65811913Y-48236457D01*
X65806600Y-48237881D01*
X65806598Y-48237881D01*
X65596067Y-48294293D01*
X65596065Y-48294294D01*
X65590757Y-48295716D01*
X65585776Y-48298039D01*
X65585775Y-48298039D01*
X65388238Y-48390151D01*
X65388233Y-48390154D01*
X65383251Y-48392477D01*
X65278389Y-48465902D01*
X65200211Y-48520643D01*
X65200208Y-48520645D01*
X65195700Y-48523802D01*
X65033802Y-48685700D01*
X64902477Y-48873251D01*
X64900154Y-48878233D01*
X64900151Y-48878238D01*
X64829482Y-49029790D01*
X64805716Y-49080757D01*
X64804294Y-49086065D01*
X64804293Y-49086067D01*
X64753400Y-49276000D01*
X64746457Y-49301913D01*
X64726502Y-49530000D01*
X64746457Y-49758087D01*
X64747881Y-49763400D01*
X64747881Y-49763402D01*
X64795851Y-49942425D01*
X64805716Y-49979243D01*
X64808039Y-49984224D01*
X64808039Y-49984225D01*
X64867971Y-50112750D01*
X64878632Y-50182942D01*
X64849652Y-50247755D01*
X64790232Y-50286611D01*
X64753776Y-50292000D01*
X59706224Y-50292000D01*
X59638103Y-50271998D01*
X59591610Y-50218342D01*
X59581506Y-50148068D01*
X59592029Y-50112750D01*
X59651961Y-49984225D01*
X59651961Y-49984224D01*
X59654284Y-49979243D01*
X59664150Y-49942425D01*
X59712119Y-49763402D01*
X59712119Y-49763400D01*
X59713543Y-49758087D01*
X59733498Y-49530000D01*
X59713543Y-49301913D01*
X59706600Y-49276000D01*
X59655707Y-49086067D01*
X59655706Y-49086065D01*
X59654284Y-49080757D01*
X59630518Y-49029790D01*
X59559849Y-48878238D01*
X59559846Y-48878233D01*
X59557523Y-48873251D01*
X59426198Y-48685700D01*
X59264300Y-48523802D01*
X59259792Y-48520645D01*
X59259789Y-48520643D01*
X59181611Y-48465902D01*
X59076749Y-48392477D01*
X59071767Y-48390154D01*
X59071762Y-48390151D01*
X58874225Y-48298039D01*
X58874224Y-48298039D01*
X58869243Y-48295716D01*
X58863935Y-48294294D01*
X58863933Y-48294293D01*
X58653402Y-48237881D01*
X58653400Y-48237881D01*
X58648087Y-48236457D01*
X58420000Y-48216502D01*
X58191913Y-48236457D01*
X58186600Y-48237881D01*
X58186598Y-48237881D01*
X57976067Y-48294293D01*
X57976065Y-48294294D01*
X57970757Y-48295716D01*
X57965776Y-48298039D01*
X57965775Y-48298039D01*
X57768238Y-48390151D01*
X57768233Y-48390154D01*
X57763251Y-48392477D01*
X57658389Y-48465902D01*
X57580211Y-48520643D01*
X57580208Y-48520645D01*
X57575700Y-48523802D01*
X57413802Y-48685700D01*
X57282477Y-48873251D01*
X57280154Y-48878233D01*
X57280151Y-48878238D01*
X57209482Y-49029790D01*
X57185716Y-49080757D01*
X57184294Y-49086065D01*
X57184293Y-49086067D01*
X57133400Y-49276000D01*
X57126457Y-49301913D01*
X57106502Y-49530000D01*
X57126457Y-49758087D01*
X57127881Y-49763400D01*
X57127881Y-49763402D01*
X57175851Y-49942425D01*
X57185716Y-49979243D01*
X57188039Y-49984224D01*
X57188039Y-49984225D01*
X57247971Y-50112750D01*
X57258632Y-50182942D01*
X57229652Y-50247755D01*
X57170232Y-50286611D01*
X57133776Y-50292000D01*
X52086224Y-50292000D01*
X52018103Y-50271998D01*
X51971610Y-50218342D01*
X51961506Y-50148068D01*
X51972029Y-50112750D01*
X52031961Y-49984225D01*
X52031961Y-49984224D01*
X52034284Y-49979243D01*
X52044150Y-49942425D01*
X52092119Y-49763402D01*
X52092119Y-49763400D01*
X52093543Y-49758087D01*
X52113498Y-49530000D01*
X52093543Y-49301913D01*
X52086600Y-49276000D01*
X52035707Y-49086067D01*
X52035706Y-49086065D01*
X52034284Y-49080757D01*
X52010518Y-49029790D01*
X51939849Y-48878238D01*
X51939846Y-48878233D01*
X51937523Y-48873251D01*
X51806198Y-48685700D01*
X51644300Y-48523802D01*
X51639792Y-48520645D01*
X51639789Y-48520643D01*
X51561611Y-48465902D01*
X51456749Y-48392477D01*
X51451767Y-48390154D01*
X51451762Y-48390151D01*
X51254225Y-48298039D01*
X51254224Y-48298039D01*
X51249243Y-48295716D01*
X51243935Y-48294294D01*
X51243933Y-48294293D01*
X51033402Y-48237881D01*
X51033400Y-48237881D01*
X51028087Y-48236457D01*
X50800000Y-48216502D01*
X50571913Y-48236457D01*
X50566600Y-48237881D01*
X50566598Y-48237881D01*
X50356067Y-48294293D01*
X50356065Y-48294294D01*
X50350757Y-48295716D01*
X50345776Y-48298039D01*
X50345775Y-48298039D01*
X50148238Y-48390151D01*
X50148233Y-48390154D01*
X50143251Y-48392477D01*
X50038389Y-48465902D01*
X49960211Y-48520643D01*
X49960208Y-48520645D01*
X49955700Y-48523802D01*
X49793802Y-48685700D01*
X49662477Y-48873251D01*
X49660154Y-48878233D01*
X49660151Y-48878238D01*
X49589482Y-49029790D01*
X49565716Y-49080757D01*
X49564294Y-49086065D01*
X49564293Y-49086067D01*
X49513400Y-49276000D01*
X49506457Y-49301913D01*
X49486502Y-49530000D01*
X49506457Y-49758087D01*
X49507881Y-49763400D01*
X49507881Y-49763402D01*
X49555851Y-49942425D01*
X49565716Y-49979243D01*
X49568039Y-49984224D01*
X49568039Y-49984225D01*
X49627971Y-50112750D01*
X49638632Y-50182942D01*
X49609652Y-50247755D01*
X49550232Y-50286611D01*
X49513776Y-50292000D01*
X5381658Y-50292000D01*
X5313537Y-50271998D01*
X5267044Y-50218342D01*
X5256940Y-50148068D01*
X5268701Y-50110173D01*
X5296450Y-50054028D01*
X5307430Y-50031811D01*
X5372370Y-49818069D01*
X5401529Y-49596590D01*
X5403156Y-49530000D01*
X5384852Y-49307361D01*
X5356821Y-49195765D01*
X5359625Y-49124823D01*
X5389930Y-49075974D01*
X5535499Y-48930405D01*
X5597811Y-48896379D01*
X5624594Y-48893500D01*
X7541233Y-48893500D01*
X7552416Y-48894027D01*
X7559909Y-48895702D01*
X7567835Y-48895453D01*
X7567836Y-48895453D01*
X7627986Y-48893562D01*
X7631945Y-48893500D01*
X7659856Y-48893500D01*
X7663791Y-48893003D01*
X7663856Y-48892995D01*
X7675693Y-48892062D01*
X7707951Y-48891048D01*
X7711970Y-48890922D01*
X7719889Y-48890673D01*
X7739343Y-48885021D01*
X7758700Y-48881013D01*
X7770930Y-48879468D01*
X7770931Y-48879468D01*
X7778797Y-48878474D01*
X7786168Y-48875555D01*
X7786170Y-48875555D01*
X7819912Y-48862196D01*
X7831142Y-48858351D01*
X7865983Y-48848229D01*
X7865984Y-48848229D01*
X7873593Y-48846018D01*
X7880412Y-48841985D01*
X7880417Y-48841983D01*
X7891028Y-48835707D01*
X7908776Y-48827012D01*
X7927617Y-48819552D01*
X7963387Y-48793564D01*
X7973307Y-48787048D01*
X8004535Y-48768580D01*
X8004538Y-48768578D01*
X8011362Y-48764542D01*
X8025683Y-48750221D01*
X8040717Y-48737380D01*
X8050694Y-48730131D01*
X8057107Y-48725472D01*
X8085298Y-48691395D01*
X8093288Y-48682616D01*
X9785904Y-46990000D01*
X26546502Y-46990000D01*
X26566457Y-47218087D01*
X26567881Y-47223400D01*
X26567881Y-47223402D01*
X26615851Y-47402425D01*
X26625716Y-47439243D01*
X26628039Y-47444224D01*
X26628039Y-47444225D01*
X26720151Y-47641762D01*
X26720154Y-47641767D01*
X26722477Y-47646749D01*
X26725634Y-47651257D01*
X26829078Y-47798990D01*
X26853802Y-47834300D01*
X27015700Y-47996198D01*
X27020208Y-47999355D01*
X27020211Y-47999357D01*
X27098389Y-48054098D01*
X27203251Y-48127523D01*
X27208233Y-48129846D01*
X27208238Y-48129849D01*
X27395820Y-48217319D01*
X27410757Y-48224284D01*
X27416065Y-48225706D01*
X27416067Y-48225707D01*
X27626598Y-48282119D01*
X27626600Y-48282119D01*
X27631913Y-48283543D01*
X27860000Y-48303498D01*
X28088087Y-48283543D01*
X28093400Y-48282119D01*
X28093402Y-48282119D01*
X28303933Y-48225707D01*
X28303935Y-48225706D01*
X28309243Y-48224284D01*
X28324180Y-48217319D01*
X28511762Y-48129849D01*
X28511767Y-48129846D01*
X28516749Y-48127523D01*
X28621611Y-48054098D01*
X28699789Y-47999357D01*
X28699792Y-47999355D01*
X28704300Y-47996198D01*
X28866198Y-47834300D01*
X28890923Y-47798990D01*
X28994366Y-47651257D01*
X28997523Y-47646749D01*
X28999846Y-47641767D01*
X28999849Y-47641762D01*
X29091961Y-47444225D01*
X29091961Y-47444224D01*
X29094284Y-47439243D01*
X29104150Y-47402425D01*
X29152119Y-47223402D01*
X29152119Y-47223400D01*
X29153543Y-47218087D01*
X29173498Y-46990000D01*
X29153543Y-46761913D01*
X29147593Y-46739707D01*
X29095707Y-46546067D01*
X29095706Y-46546065D01*
X29094284Y-46540757D01*
X29056443Y-46459606D01*
X28999849Y-46338238D01*
X28999846Y-46338233D01*
X28997523Y-46333251D01*
X28866198Y-46145700D01*
X28704300Y-45983802D01*
X28699792Y-45980645D01*
X28699789Y-45980643D01*
X28621611Y-45925902D01*
X28516749Y-45852477D01*
X28511767Y-45850154D01*
X28511762Y-45850151D01*
X28314225Y-45758039D01*
X28314224Y-45758039D01*
X28309243Y-45755716D01*
X28303935Y-45754294D01*
X28303933Y-45754293D01*
X28093402Y-45697881D01*
X28093400Y-45697881D01*
X28088087Y-45696457D01*
X27860000Y-45676502D01*
X27631913Y-45696457D01*
X27626600Y-45697881D01*
X27626598Y-45697881D01*
X27416067Y-45754293D01*
X27416065Y-45754294D01*
X27410757Y-45755716D01*
X27405776Y-45758039D01*
X27405775Y-45758039D01*
X27208238Y-45850151D01*
X27208233Y-45850154D01*
X27203251Y-45852477D01*
X27098389Y-45925902D01*
X27020211Y-45980643D01*
X27020208Y-45980645D01*
X27015700Y-45983802D01*
X26853802Y-46145700D01*
X26722477Y-46333251D01*
X26720154Y-46338233D01*
X26720151Y-46338238D01*
X26663557Y-46459606D01*
X26625716Y-46540757D01*
X26624294Y-46546065D01*
X26624293Y-46546067D01*
X26572407Y-46739707D01*
X26566457Y-46761913D01*
X26546502Y-46990000D01*
X9785904Y-46990000D01*
X18005500Y-38770405D01*
X18067812Y-38736379D01*
X18094595Y-38733500D01*
X19970606Y-38733500D01*
X20038727Y-38753502D01*
X20073819Y-38787229D01*
X20177794Y-38935720D01*
X20183802Y-38944300D01*
X20345700Y-39106198D01*
X20350208Y-39109355D01*
X20350211Y-39109357D01*
X20397327Y-39142348D01*
X20533251Y-39237523D01*
X20538233Y-39239846D01*
X20538238Y-39239849D01*
X20572457Y-39255805D01*
X20625742Y-39302722D01*
X20645203Y-39370999D01*
X20624661Y-39438959D01*
X20572457Y-39484195D01*
X20538238Y-39500151D01*
X20538233Y-39500154D01*
X20533251Y-39502477D01*
X20458888Y-39554547D01*
X20350211Y-39630643D01*
X20350208Y-39630645D01*
X20345700Y-39633802D01*
X20183802Y-39795700D01*
X20052477Y-39983251D01*
X20050154Y-39988233D01*
X20050151Y-39988238D01*
X19961203Y-40178990D01*
X19955716Y-40190757D01*
X19896457Y-40411913D01*
X19876502Y-40640000D01*
X19896457Y-40868087D01*
X19897881Y-40873400D01*
X19897881Y-40873402D01*
X19950934Y-41071395D01*
X19955716Y-41089243D01*
X19958039Y-41094224D01*
X19958039Y-41094225D01*
X20050151Y-41291762D01*
X20050154Y-41291767D01*
X20052477Y-41296749D01*
X20110494Y-41379606D01*
X20174281Y-41470702D01*
X20183802Y-41484300D01*
X20345700Y-41646198D01*
X20350208Y-41649355D01*
X20350211Y-41649357D01*
X20396706Y-41681913D01*
X20533251Y-41777523D01*
X20538233Y-41779846D01*
X20538238Y-41779849D01*
X20735775Y-41871961D01*
X20740757Y-41874284D01*
X20746065Y-41875706D01*
X20746067Y-41875707D01*
X20956598Y-41932119D01*
X20956600Y-41932119D01*
X20961913Y-41933543D01*
X21061480Y-41942254D01*
X21130149Y-41948262D01*
X21130156Y-41948262D01*
X21132873Y-41948500D01*
X22047127Y-41948500D01*
X22049844Y-41948262D01*
X22049851Y-41948262D01*
X22118520Y-41942254D01*
X22218087Y-41933543D01*
X22223400Y-41932119D01*
X22223402Y-41932119D01*
X22433933Y-41875707D01*
X22433935Y-41875706D01*
X22439243Y-41874284D01*
X22444225Y-41871961D01*
X22641762Y-41779849D01*
X22641767Y-41779846D01*
X22646749Y-41777523D01*
X22783294Y-41681913D01*
X22829789Y-41649357D01*
X22829792Y-41649355D01*
X22834300Y-41646198D01*
X22996198Y-41484300D01*
X23005720Y-41470702D01*
X23069506Y-41379606D01*
X23127523Y-41296749D01*
X23129846Y-41291767D01*
X23129849Y-41291762D01*
X23221961Y-41094225D01*
X23221961Y-41094224D01*
X23224284Y-41089243D01*
X23229067Y-41071395D01*
X23282119Y-40873402D01*
X23282119Y-40873400D01*
X23283543Y-40868087D01*
X23303498Y-40640000D01*
X23283543Y-40411913D01*
X23224284Y-40190757D01*
X23218797Y-40178990D01*
X23129849Y-39988238D01*
X23129846Y-39988233D01*
X23127523Y-39983251D01*
X22996198Y-39795700D01*
X22834300Y-39633802D01*
X22829792Y-39630645D01*
X22829789Y-39630643D01*
X22721112Y-39554547D01*
X22646749Y-39502477D01*
X22641767Y-39500154D01*
X22641762Y-39500151D01*
X22607543Y-39484195D01*
X22554258Y-39437278D01*
X22534797Y-39369001D01*
X22555339Y-39301041D01*
X22607543Y-39255805D01*
X22641762Y-39239849D01*
X22641767Y-39239846D01*
X22646749Y-39237523D01*
X22782673Y-39142348D01*
X22829789Y-39109357D01*
X22829792Y-39109355D01*
X22834300Y-39106198D01*
X22996198Y-38944300D01*
X23005720Y-38930702D01*
X23092226Y-38807158D01*
X23127523Y-38756749D01*
X23129846Y-38751767D01*
X23129849Y-38751762D01*
X23221961Y-38554225D01*
X23221961Y-38554224D01*
X23224284Y-38549243D01*
X23229067Y-38531395D01*
X23282119Y-38333402D01*
X23282119Y-38333400D01*
X23283543Y-38328087D01*
X23303498Y-38100000D01*
X23283543Y-37871913D01*
X23277059Y-37847715D01*
X23225707Y-37656067D01*
X23225706Y-37656065D01*
X23224284Y-37650757D01*
X23218797Y-37638990D01*
X23129849Y-37448238D01*
X23129846Y-37448233D01*
X23127523Y-37443251D01*
X22996198Y-37255700D01*
X22834300Y-37093802D01*
X22829792Y-37090645D01*
X22829789Y-37090643D01*
X22721112Y-37014547D01*
X22646749Y-36962477D01*
X22641767Y-36960154D01*
X22641762Y-36960151D01*
X22607543Y-36944195D01*
X22554258Y-36897278D01*
X22534797Y-36829001D01*
X22555339Y-36761041D01*
X22607543Y-36715805D01*
X22641762Y-36699849D01*
X22641767Y-36699846D01*
X22646749Y-36697523D01*
X22794372Y-36594156D01*
X22829789Y-36569357D01*
X22829792Y-36569355D01*
X22834300Y-36566198D01*
X22996198Y-36404300D01*
X23005720Y-36390702D01*
X23092226Y-36267158D01*
X23127523Y-36216749D01*
X23129846Y-36211767D01*
X23129849Y-36211762D01*
X23221961Y-36014225D01*
X23221961Y-36014224D01*
X23224284Y-36009243D01*
X23229067Y-35991395D01*
X23282119Y-35793402D01*
X23282119Y-35793400D01*
X23283543Y-35788087D01*
X23303498Y-35560000D01*
X23283543Y-35331913D01*
X23231419Y-35137384D01*
X23225707Y-35116067D01*
X23225706Y-35116065D01*
X23224284Y-35110757D01*
X23218797Y-35098990D01*
X23129849Y-34908238D01*
X23129846Y-34908233D01*
X23127523Y-34903251D01*
X22996198Y-34715700D01*
X22834300Y-34553802D01*
X22829792Y-34550645D01*
X22829789Y-34550643D01*
X22721112Y-34474547D01*
X22646749Y-34422477D01*
X22641767Y-34420154D01*
X22641762Y-34420151D01*
X22607543Y-34404195D01*
X22554258Y-34357278D01*
X22534797Y-34289001D01*
X22555339Y-34221041D01*
X22607543Y-34175805D01*
X22641762Y-34159849D01*
X22641767Y-34159846D01*
X22646749Y-34157523D01*
X22782673Y-34062348D01*
X22829789Y-34029357D01*
X22829792Y-34029355D01*
X22834300Y-34026198D01*
X22996198Y-33864300D01*
X23005720Y-33850702D01*
X23092226Y-33727158D01*
X23127523Y-33676749D01*
X23129846Y-33671767D01*
X23129849Y-33671762D01*
X23221961Y-33474225D01*
X23221961Y-33474224D01*
X23224284Y-33469243D01*
X23229067Y-33451395D01*
X23282119Y-33253402D01*
X23282119Y-33253400D01*
X23283543Y-33248087D01*
X23303498Y-33020000D01*
X23283543Y-32791913D01*
X23231419Y-32597384D01*
X23225707Y-32576067D01*
X23225706Y-32576065D01*
X23224284Y-32570757D01*
X23218797Y-32558990D01*
X23129849Y-32368238D01*
X23129846Y-32368233D01*
X23127523Y-32363251D01*
X23013359Y-32200208D01*
X22999357Y-32180211D01*
X22999355Y-32180208D01*
X22996198Y-32175700D01*
X22834300Y-32013802D01*
X22829792Y-32010645D01*
X22829789Y-32010643D01*
X22721112Y-31934547D01*
X22646749Y-31882477D01*
X22641767Y-31880154D01*
X22641762Y-31880151D01*
X22607543Y-31864195D01*
X22554258Y-31817278D01*
X22534797Y-31749001D01*
X22555339Y-31681041D01*
X22607543Y-31635805D01*
X22641762Y-31619849D01*
X22641767Y-31619846D01*
X22646749Y-31617523D01*
X22782673Y-31522348D01*
X22829789Y-31489357D01*
X22829792Y-31489355D01*
X22834300Y-31486198D01*
X22996198Y-31324300D01*
X23005720Y-31310702D01*
X23092226Y-31187158D01*
X23127523Y-31136749D01*
X23129846Y-31131767D01*
X23129849Y-31131762D01*
X23221961Y-30934225D01*
X23221961Y-30934224D01*
X23224284Y-30929243D01*
X23233082Y-30896411D01*
X23282119Y-30713402D01*
X23282119Y-30713400D01*
X23283543Y-30708087D01*
X23303498Y-30480000D01*
X23283543Y-30251913D01*
X23247984Y-30119206D01*
X23225707Y-30036067D01*
X23225706Y-30036065D01*
X23224284Y-30030757D01*
X23218797Y-30018990D01*
X23129849Y-29828238D01*
X23129846Y-29828233D01*
X23127523Y-29823251D01*
X22996198Y-29635700D01*
X22834300Y-29473802D01*
X22829792Y-29470645D01*
X22829789Y-29470643D01*
X22721112Y-29394547D01*
X22646749Y-29342477D01*
X22641767Y-29340154D01*
X22641762Y-29340151D01*
X22607543Y-29324195D01*
X22554258Y-29277278D01*
X22534797Y-29209001D01*
X22555339Y-29141041D01*
X22607543Y-29095805D01*
X22641762Y-29079849D01*
X22641767Y-29079846D01*
X22646749Y-29077523D01*
X22785016Y-28980707D01*
X22829789Y-28949357D01*
X22829792Y-28949355D01*
X22834300Y-28946198D01*
X22996198Y-28784300D01*
X23024209Y-28744297D01*
X23092226Y-28647158D01*
X23127523Y-28596749D01*
X23129846Y-28591767D01*
X23129849Y-28591762D01*
X23221961Y-28394225D01*
X23221961Y-28394224D01*
X23224284Y-28389243D01*
X23226060Y-28382617D01*
X23282119Y-28173402D01*
X23282119Y-28173400D01*
X23283543Y-28168087D01*
X23303498Y-27940000D01*
X23283543Y-27711913D01*
X23231419Y-27517384D01*
X23225707Y-27496067D01*
X23225706Y-27496065D01*
X23224284Y-27490757D01*
X23218797Y-27478990D01*
X23129849Y-27288238D01*
X23129846Y-27288233D01*
X23127523Y-27283251D01*
X23036154Y-27152763D01*
X22999357Y-27100211D01*
X22999355Y-27100208D01*
X22996198Y-27095700D01*
X22834300Y-26933802D01*
X22829792Y-26930645D01*
X22829789Y-26930643D01*
X22724480Y-26856905D01*
X22646749Y-26802477D01*
X22641767Y-26800154D01*
X22641762Y-26800151D01*
X22607543Y-26784195D01*
X22554258Y-26737278D01*
X22534797Y-26669001D01*
X22555339Y-26601041D01*
X22607543Y-26555805D01*
X22641762Y-26539849D01*
X22641767Y-26539846D01*
X22646749Y-26537523D01*
X22802928Y-26428165D01*
X22829789Y-26409357D01*
X22829792Y-26409355D01*
X22834300Y-26406198D01*
X22996198Y-26244300D01*
X23024209Y-26204297D01*
X23056870Y-26157652D01*
X23127523Y-26056749D01*
X23129846Y-26051767D01*
X23129849Y-26051762D01*
X23221961Y-25854225D01*
X23221961Y-25854224D01*
X23224284Y-25849243D01*
X23226060Y-25842617D01*
X23282119Y-25633402D01*
X23282119Y-25633400D01*
X23283543Y-25628087D01*
X23303498Y-25400000D01*
X23283543Y-25171913D01*
X23239969Y-25009292D01*
X23225707Y-24956067D01*
X23225706Y-24956065D01*
X23224284Y-24950757D01*
X23218797Y-24938990D01*
X23129849Y-24748238D01*
X23129846Y-24748233D01*
X23127523Y-24743251D01*
X23036154Y-24612763D01*
X22999357Y-24560211D01*
X22999355Y-24560208D01*
X22996198Y-24555700D01*
X22834300Y-24393802D01*
X22829792Y-24390645D01*
X22829789Y-24390643D01*
X22721112Y-24314547D01*
X22646749Y-24262477D01*
X22641767Y-24260154D01*
X22641762Y-24260151D01*
X22607543Y-24244195D01*
X22554258Y-24197278D01*
X22534797Y-24129001D01*
X22555339Y-24061041D01*
X22607543Y-24015805D01*
X22641762Y-23999849D01*
X22641767Y-23999846D01*
X22646749Y-23997523D01*
X22751611Y-23924098D01*
X22829789Y-23869357D01*
X22829792Y-23869355D01*
X22834300Y-23866198D01*
X22996198Y-23704300D01*
X23024209Y-23664297D01*
X23054098Y-23621611D01*
X23127523Y-23516749D01*
X23129846Y-23511767D01*
X23129849Y-23511762D01*
X23221961Y-23314225D01*
X23221961Y-23314224D01*
X23224284Y-23309243D01*
X23226060Y-23302617D01*
X23282119Y-23093402D01*
X23282119Y-23093400D01*
X23283543Y-23088087D01*
X23303498Y-22860000D01*
X23283543Y-22631913D01*
X23231419Y-22437384D01*
X23225707Y-22416067D01*
X23225706Y-22416065D01*
X23224284Y-22410757D01*
X23218797Y-22398990D01*
X23129849Y-22208238D01*
X23129846Y-22208233D01*
X23127523Y-22203251D01*
X23036154Y-22072763D01*
X22999357Y-22020211D01*
X22999355Y-22020208D01*
X22996198Y-22015700D01*
X22834300Y-21853802D01*
X22829792Y-21850645D01*
X22829789Y-21850643D01*
X22721112Y-21774547D01*
X22646749Y-21722477D01*
X22641767Y-21720154D01*
X22641762Y-21720151D01*
X22607543Y-21704195D01*
X22554258Y-21657278D01*
X22534797Y-21589001D01*
X22555339Y-21521041D01*
X22607543Y-21475805D01*
X22641762Y-21459849D01*
X22641767Y-21459846D01*
X22646749Y-21457523D01*
X22751611Y-21384098D01*
X22829789Y-21329357D01*
X22829792Y-21329355D01*
X22834300Y-21326198D01*
X22996198Y-21164300D01*
X23024209Y-21124297D01*
X23054098Y-21081611D01*
X23127523Y-20976749D01*
X23129846Y-20971767D01*
X23129849Y-20971762D01*
X23221961Y-20774225D01*
X23221961Y-20774224D01*
X23224284Y-20769243D01*
X23226060Y-20762617D01*
X23282119Y-20553402D01*
X23282119Y-20553400D01*
X23283543Y-20548087D01*
X23303498Y-20320000D01*
X23283543Y-20091913D01*
X23231419Y-19897384D01*
X23225707Y-19876067D01*
X23225706Y-19876065D01*
X23224284Y-19870757D01*
X23218797Y-19858990D01*
X23129849Y-19668238D01*
X23129846Y-19668233D01*
X23127523Y-19663251D01*
X23039597Y-19537680D01*
X22999357Y-19480211D01*
X22999355Y-19480208D01*
X22996198Y-19475700D01*
X22834300Y-19313802D01*
X22829792Y-19310645D01*
X22829789Y-19310643D01*
X22684346Y-19208803D01*
X22646749Y-19182477D01*
X22641767Y-19180154D01*
X22641762Y-19180151D01*
X22444225Y-19088039D01*
X22444224Y-19088039D01*
X22439243Y-19085716D01*
X22433935Y-19084294D01*
X22433933Y-19084293D01*
X22223402Y-19027881D01*
X22223400Y-19027881D01*
X22218087Y-19026457D01*
X22118520Y-19017746D01*
X22049851Y-19011738D01*
X22049844Y-19011738D01*
X22047127Y-19011500D01*
X21132873Y-19011500D01*
X21130156Y-19011738D01*
X21130149Y-19011738D01*
X21061480Y-19017746D01*
X20961913Y-19026457D01*
X20956600Y-19027881D01*
X20956598Y-19027881D01*
X20746067Y-19084293D01*
X20746065Y-19084294D01*
X20740757Y-19085716D01*
X20735776Y-19088039D01*
X20735775Y-19088039D01*
X20538238Y-19180151D01*
X20538233Y-19180154D01*
X20533251Y-19182477D01*
X20495654Y-19208803D01*
X20350211Y-19310643D01*
X20350208Y-19310645D01*
X20345700Y-19313802D01*
X20183802Y-19475700D01*
X20180645Y-19480208D01*
X20180643Y-19480211D01*
X20073819Y-19632771D01*
X20018362Y-19677099D01*
X19970606Y-19686500D01*
X17858768Y-19686500D01*
X17847585Y-19685973D01*
X17840092Y-19684298D01*
X17832166Y-19684547D01*
X17832165Y-19684547D01*
X17772002Y-19686438D01*
X17768044Y-19686500D01*
X17740144Y-19686500D01*
X17736154Y-19687004D01*
X17724320Y-19687936D01*
X17680111Y-19689326D01*
X17672495Y-19691539D01*
X17672493Y-19691539D01*
X17660652Y-19694979D01*
X17641293Y-19698988D01*
X17639983Y-19699154D01*
X17621203Y-19701526D01*
X17613837Y-19704442D01*
X17613831Y-19704444D01*
X17580098Y-19717800D01*
X17568868Y-19721645D01*
X17534017Y-19731770D01*
X17526407Y-19733981D01*
X17519584Y-19738016D01*
X17508966Y-19744295D01*
X17491213Y-19752992D01*
X17483568Y-19756019D01*
X17472383Y-19760448D01*
X17465968Y-19765109D01*
X17436612Y-19786437D01*
X17426695Y-19792951D01*
X17388638Y-19815458D01*
X17374317Y-19829779D01*
X17359284Y-19842619D01*
X17342893Y-19854528D01*
X17314702Y-19888605D01*
X17306712Y-19897384D01*
X8139301Y-29064794D01*
X8076989Y-29098820D01*
X8006174Y-29093755D01*
X7949338Y-29051208D01*
X7925897Y-28996271D01*
X7925276Y-28992518D01*
X7924852Y-28987361D01*
X7916616Y-28954570D01*
X7896821Y-28875765D01*
X7899625Y-28804823D01*
X7929930Y-28755974D01*
X8147248Y-28538656D01*
X8155538Y-28531112D01*
X8162019Y-28526999D01*
X8208660Y-28477331D01*
X8211414Y-28474490D01*
X8231135Y-28454769D01*
X8233613Y-28451574D01*
X8241319Y-28442552D01*
X8266159Y-28416100D01*
X8271587Y-28410320D01*
X8281347Y-28392567D01*
X8292200Y-28376044D01*
X8299754Y-28366305D01*
X8304614Y-28360040D01*
X8322177Y-28319456D01*
X8327384Y-28308826D01*
X8348696Y-28270059D01*
X8350667Y-28262382D01*
X8350669Y-28262377D01*
X8353733Y-28250441D01*
X8360139Y-28231729D01*
X8365035Y-28220416D01*
X8368182Y-28213144D01*
X8373659Y-28178568D01*
X8375098Y-28169480D01*
X8377505Y-28157859D01*
X8386529Y-28122710D01*
X8386529Y-28122709D01*
X8388501Y-28115029D01*
X8388501Y-28094768D01*
X8390052Y-28075057D01*
X8391980Y-28062884D01*
X8393220Y-28055056D01*
X8389060Y-28011045D01*
X8388501Y-27999188D01*
X8388501Y-16435593D01*
X8408503Y-16367472D01*
X8425406Y-16346498D01*
X13158499Y-11613405D01*
X13220811Y-11579379D01*
X13247594Y-11576500D01*
X13303487Y-11576500D01*
X13309939Y-11575128D01*
X13309944Y-11575128D01*
X13396888Y-11556647D01*
X13490288Y-11536794D01*
X13573136Y-11499908D01*
X13658722Y-11461803D01*
X13658724Y-11461802D01*
X13664752Y-11459118D01*
X13819253Y-11346866D01*
X13825571Y-11339849D01*
X13942621Y-11209852D01*
X13942622Y-11209851D01*
X13947040Y-11204944D01*
X14005314Y-11104010D01*
X14039223Y-11045279D01*
X14039224Y-11045278D01*
X14042527Y-11039556D01*
X14101542Y-10857928D01*
X14106177Y-10813834D01*
X14120814Y-10674565D01*
X14121504Y-10668000D01*
X14119533Y-10649243D01*
X14102232Y-10484635D01*
X14102232Y-10484633D01*
X14101542Y-10478072D01*
X14042527Y-10296444D01*
X13947040Y-10131056D01*
X13832033Y-10003327D01*
X13823675Y-9994045D01*
X13823674Y-9994044D01*
X13819253Y-9989134D01*
X13664752Y-9876882D01*
X13658724Y-9874198D01*
X13658722Y-9874197D01*
X13496319Y-9801891D01*
X13496318Y-9801891D01*
X13490288Y-9799206D01*
X13369300Y-9773489D01*
X13309944Y-9760872D01*
X13309939Y-9760872D01*
X13303487Y-9759500D01*
X13112513Y-9759500D01*
X13106061Y-9760872D01*
X13106056Y-9760872D01*
X13046700Y-9773489D01*
X12925712Y-9799206D01*
X12919682Y-9801891D01*
X12919681Y-9801891D01*
X12757278Y-9874197D01*
X12757276Y-9874198D01*
X12751248Y-9876882D01*
X12596747Y-9989134D01*
X12592326Y-9994044D01*
X12592325Y-9994045D01*
X12583968Y-10003327D01*
X12468960Y-10131056D01*
X12373473Y-10296444D01*
X12314458Y-10478072D01*
X12313768Y-10484633D01*
X12313768Y-10484635D01*
X12307553Y-10543767D01*
X12301840Y-10598131D01*
X12297093Y-10643293D01*
X12270080Y-10708950D01*
X12260878Y-10719218D01*
X7565095Y-15415000D01*
X7502783Y-15449026D01*
X7431968Y-15443961D01*
X7397907Y-15424786D01*
X7383733Y-15413592D01*
X7334359Y-15374598D01*
X7293053Y-15351796D01*
X7243084Y-15301364D01*
X7228312Y-15231921D01*
X7253428Y-15165516D01*
X7280780Y-15138909D01*
X7343042Y-15094498D01*
X7459860Y-15011173D01*
X7473747Y-14997335D01*
X7587920Y-14883560D01*
X7618096Y-14853489D01*
X7638427Y-14825196D01*
X7745435Y-14676277D01*
X7748453Y-14672077D01*
X7754674Y-14659491D01*
X7845136Y-14476453D01*
X7845137Y-14476451D01*
X7847430Y-14471811D01*
X7912370Y-14258069D01*
X7941529Y-14036590D01*
X7943156Y-13970000D01*
X7924852Y-13747361D01*
X7870431Y-13530702D01*
X7781354Y-13325840D01*
X7660014Y-13138277D01*
X7509670Y-12973051D01*
X7505619Y-12969852D01*
X7505615Y-12969848D01*
X7338414Y-12837800D01*
X7338410Y-12837798D01*
X7334359Y-12834598D01*
X7293053Y-12811796D01*
X7243084Y-12761364D01*
X7228312Y-12691921D01*
X7253428Y-12625516D01*
X7280780Y-12598909D01*
X7349195Y-12550109D01*
X7459860Y-12471173D01*
X7618096Y-12313489D01*
X7623294Y-12306256D01*
X7745435Y-12136277D01*
X7748453Y-12132077D01*
X7758956Y-12110827D01*
X7845136Y-11936453D01*
X7845137Y-11936451D01*
X7847430Y-11931811D01*
X7912370Y-11718069D01*
X7941529Y-11496590D01*
X7942445Y-11459118D01*
X7943074Y-11433365D01*
X7943074Y-11433361D01*
X7943156Y-11430000D01*
X7924852Y-11207361D01*
X7870431Y-10990702D01*
X7781354Y-10785840D01*
X7700873Y-10661435D01*
X7662822Y-10602617D01*
X7662820Y-10602614D01*
X7660014Y-10598277D01*
X7509670Y-10433051D01*
X7505616Y-10429849D01*
X7505615Y-10429848D01*
X7338414Y-10297800D01*
X7338410Y-10297798D01*
X7334359Y-10294598D01*
X7293053Y-10271796D01*
X7243084Y-10221364D01*
X7228312Y-10151921D01*
X7253428Y-10085516D01*
X7280780Y-10058909D01*
X7324603Y-10027650D01*
X7459860Y-9931173D01*
X7510447Y-9880763D01*
X7556573Y-9834797D01*
X7618096Y-9773489D01*
X7638011Y-9745775D01*
X7745435Y-9596277D01*
X7748453Y-9592077D01*
X7769320Y-9549857D01*
X7845136Y-9396453D01*
X7845137Y-9396451D01*
X7847430Y-9391811D01*
X7912370Y-9178069D01*
X7941529Y-8956590D01*
X7943156Y-8890000D01*
X7924852Y-8667361D01*
X7870431Y-8450702D01*
X7781354Y-8245840D01*
X7660014Y-8058277D01*
X7509670Y-7893051D01*
X7505619Y-7889852D01*
X7505615Y-7889848D01*
X7338414Y-7757800D01*
X7338410Y-7757798D01*
X7334359Y-7754598D01*
X7293053Y-7731796D01*
X7243084Y-7681364D01*
X7228312Y-7611921D01*
X7253428Y-7545516D01*
X7280780Y-7518909D01*
X7334427Y-7480643D01*
X7459860Y-7391173D01*
X7495524Y-7355634D01*
X7597219Y-7254293D01*
X7618096Y-7233489D01*
X7627670Y-7220166D01*
X7745435Y-7056277D01*
X7748453Y-7052077D01*
X7750746Y-7047437D01*
X7752446Y-7044608D01*
X7804674Y-6996518D01*
X7860451Y-6983500D01*
X19611800Y-6983500D01*
X19679921Y-7003502D01*
X19699147Y-7019843D01*
X19699420Y-7019540D01*
X19704332Y-7023963D01*
X19708747Y-7028866D01*
X19863248Y-7141118D01*
X19869276Y-7143802D01*
X19869278Y-7143803D01*
X19986466Y-7195978D01*
X20037712Y-7218794D01*
X20119756Y-7236233D01*
X20159231Y-7244624D01*
X20221705Y-7278353D01*
X20256026Y-7340502D01*
X20251298Y-7411341D01*
X20222129Y-7456966D01*
X10209500Y-17469595D01*
X10147188Y-17503621D01*
X10120405Y-17506500D01*
X10064513Y-17506500D01*
X10058061Y-17507872D01*
X10058056Y-17507872D01*
X9971113Y-17526353D01*
X9877712Y-17546206D01*
X9871682Y-17548891D01*
X9871681Y-17548891D01*
X9709278Y-17621197D01*
X9709276Y-17621198D01*
X9703248Y-17623882D01*
X9697907Y-17627762D01*
X9697906Y-17627763D01*
X9689093Y-17634166D01*
X9548747Y-17736134D01*
X9544326Y-17741044D01*
X9544325Y-17741045D01*
X9453998Y-17841364D01*
X9420960Y-17878056D01*
X9325473Y-18043444D01*
X9266458Y-18225072D01*
X9246496Y-18415000D01*
X9247186Y-18421565D01*
X9264290Y-18584297D01*
X9266458Y-18604928D01*
X9325473Y-18786556D01*
X9420960Y-18951944D01*
X9548747Y-19093866D01*
X9703248Y-19206118D01*
X9709276Y-19208802D01*
X9709278Y-19208803D01*
X9778708Y-19239715D01*
X9877712Y-19283794D01*
X9941888Y-19297435D01*
X10058056Y-19322128D01*
X10058061Y-19322128D01*
X10064513Y-19323500D01*
X10255487Y-19323500D01*
X10261939Y-19322128D01*
X10261944Y-19322128D01*
X10378112Y-19297435D01*
X10442288Y-19283794D01*
X10541292Y-19239715D01*
X10610722Y-19208803D01*
X10610724Y-19208802D01*
X10616752Y-19206118D01*
X10720940Y-19130421D01*
X10787806Y-19106563D01*
X10856958Y-19122643D01*
X10869056Y-19130418D01*
X10973248Y-19206118D01*
X10979276Y-19208802D01*
X10979278Y-19208803D01*
X11048708Y-19239715D01*
X11147712Y-19283794D01*
X11211888Y-19297435D01*
X11328056Y-19322128D01*
X11328061Y-19322128D01*
X11334513Y-19323500D01*
X11525487Y-19323500D01*
X11531939Y-19322128D01*
X11531944Y-19322128D01*
X11648112Y-19297435D01*
X11712288Y-19283794D01*
X11811292Y-19239715D01*
X11880722Y-19208803D01*
X11880724Y-19208802D01*
X11886752Y-19206118D01*
X11990940Y-19130421D01*
X12057806Y-19106563D01*
X12126958Y-19122643D01*
X12139056Y-19130418D01*
X12243248Y-19206118D01*
X12249276Y-19208802D01*
X12249278Y-19208803D01*
X12318708Y-19239715D01*
X12417712Y-19283794D01*
X12481888Y-19297435D01*
X12598056Y-19322128D01*
X12598061Y-19322128D01*
X12604513Y-19323500D01*
X12795487Y-19323500D01*
X12801939Y-19322128D01*
X12801944Y-19322128D01*
X12918112Y-19297435D01*
X12982288Y-19283794D01*
X13081292Y-19239715D01*
X13150722Y-19208803D01*
X13150724Y-19208802D01*
X13156752Y-19206118D01*
X13260940Y-19130421D01*
X13327806Y-19106563D01*
X13396958Y-19122643D01*
X13409056Y-19130418D01*
X13513248Y-19206118D01*
X13519276Y-19208802D01*
X13519278Y-19208803D01*
X13588708Y-19239715D01*
X13687712Y-19283794D01*
X13751888Y-19297435D01*
X13868056Y-19322128D01*
X13868061Y-19322128D01*
X13874513Y-19323500D01*
X14065487Y-19323500D01*
X14071939Y-19322128D01*
X14071944Y-19322128D01*
X14188112Y-19297435D01*
X14252288Y-19283794D01*
X14351292Y-19239715D01*
X14420722Y-19208803D01*
X14420724Y-19208802D01*
X14426752Y-19206118D01*
X14530940Y-19130421D01*
X14597806Y-19106563D01*
X14666958Y-19122643D01*
X14679056Y-19130418D01*
X14783248Y-19206118D01*
X14789276Y-19208802D01*
X14789278Y-19208803D01*
X14858708Y-19239715D01*
X14957712Y-19283794D01*
X15021888Y-19297435D01*
X15138056Y-19322128D01*
X15138061Y-19322128D01*
X15144513Y-19323500D01*
X15335487Y-19323500D01*
X15341939Y-19322128D01*
X15341944Y-19322128D01*
X15458112Y-19297435D01*
X15522288Y-19283794D01*
X15621292Y-19239715D01*
X15690722Y-19208803D01*
X15690724Y-19208802D01*
X15696752Y-19206118D01*
X15800940Y-19130421D01*
X15867806Y-19106563D01*
X15936958Y-19122643D01*
X15949056Y-19130418D01*
X16053248Y-19206118D01*
X16059276Y-19208802D01*
X16059278Y-19208803D01*
X16128708Y-19239715D01*
X16227712Y-19283794D01*
X16291888Y-19297435D01*
X16408056Y-19322128D01*
X16408061Y-19322128D01*
X16414513Y-19323500D01*
X16605487Y-19323500D01*
X16611939Y-19322128D01*
X16611944Y-19322128D01*
X16728112Y-19297435D01*
X16792288Y-19283794D01*
X16891292Y-19239715D01*
X16960722Y-19208803D01*
X16960724Y-19208802D01*
X16966752Y-19206118D01*
X17070940Y-19130421D01*
X17137806Y-19106563D01*
X17206958Y-19122643D01*
X17219056Y-19130418D01*
X17323248Y-19206118D01*
X17329276Y-19208802D01*
X17329278Y-19208803D01*
X17398708Y-19239715D01*
X17497712Y-19283794D01*
X17561888Y-19297435D01*
X17678056Y-19322128D01*
X17678061Y-19322128D01*
X17684513Y-19323500D01*
X17875487Y-19323500D01*
X17881939Y-19322128D01*
X17881944Y-19322128D01*
X17998112Y-19297435D01*
X18062288Y-19283794D01*
X18161292Y-19239715D01*
X18230722Y-19208803D01*
X18230724Y-19208802D01*
X18236752Y-19206118D01*
X18340940Y-19130421D01*
X18407806Y-19106563D01*
X18476958Y-19122643D01*
X18489056Y-19130418D01*
X18593248Y-19206118D01*
X18599276Y-19208802D01*
X18599278Y-19208803D01*
X18668708Y-19239715D01*
X18767712Y-19283794D01*
X18831888Y-19297435D01*
X18948056Y-19322128D01*
X18948061Y-19322128D01*
X18954513Y-19323500D01*
X19145487Y-19323500D01*
X19151939Y-19322128D01*
X19151944Y-19322128D01*
X19268112Y-19297435D01*
X19332288Y-19283794D01*
X19431292Y-19239715D01*
X19500722Y-19208803D01*
X19500724Y-19208802D01*
X19506752Y-19206118D01*
X19661253Y-19093866D01*
X19789040Y-18951944D01*
X19884527Y-18786556D01*
X19943542Y-18604928D01*
X19945711Y-18584297D01*
X19960907Y-18439707D01*
X19987920Y-18374050D01*
X19997122Y-18363782D01*
X22751958Y-15608946D01*
X22814270Y-15574920D01*
X22885085Y-15579985D01*
X22941921Y-15622532D01*
X22966732Y-15689052D01*
X22966363Y-15711206D01*
X22962496Y-15748000D01*
X22963186Y-15754565D01*
X22977147Y-15887393D01*
X22982458Y-15937928D01*
X23041473Y-16119556D01*
X23044776Y-16125278D01*
X23044777Y-16125279D01*
X23078686Y-16184010D01*
X23136960Y-16284944D01*
X23264747Y-16426866D01*
X23419248Y-16539118D01*
X23425276Y-16541802D01*
X23425278Y-16541803D01*
X23497756Y-16574072D01*
X23593712Y-16616794D01*
X23687113Y-16636647D01*
X23774056Y-16655128D01*
X23774061Y-16655128D01*
X23780513Y-16656500D01*
X23971487Y-16656500D01*
X23977939Y-16655128D01*
X23977944Y-16655128D01*
X24064887Y-16636647D01*
X24158288Y-16616794D01*
X24254244Y-16574072D01*
X24326722Y-16541803D01*
X24326724Y-16541802D01*
X24332752Y-16539118D01*
X24425735Y-16471562D01*
X24475241Y-16435593D01*
X24487253Y-16426866D01*
X24491668Y-16421963D01*
X24496580Y-16417540D01*
X24497705Y-16418789D01*
X24551014Y-16385949D01*
X24584200Y-16381500D01*
X49075800Y-16381500D01*
X49143921Y-16401502D01*
X49163147Y-16417843D01*
X49163420Y-16417540D01*
X49168332Y-16421963D01*
X49172747Y-16426866D01*
X49184759Y-16435593D01*
X49234266Y-16471562D01*
X49327248Y-16539118D01*
X49333276Y-16541802D01*
X49333278Y-16541803D01*
X49405756Y-16574072D01*
X49501712Y-16616794D01*
X49595113Y-16636647D01*
X49682056Y-16655128D01*
X49682061Y-16655128D01*
X49688513Y-16656500D01*
X49879487Y-16656500D01*
X49885939Y-16655128D01*
X49885944Y-16655128D01*
X49972887Y-16636647D01*
X50066288Y-16616794D01*
X50162244Y-16574072D01*
X50234722Y-16541803D01*
X50234724Y-16541802D01*
X50240752Y-16539118D01*
X50395253Y-16426866D01*
X50523040Y-16284944D01*
X50581314Y-16184010D01*
X50615223Y-16125279D01*
X50615224Y-16125278D01*
X50618527Y-16119556D01*
X50677542Y-15937928D01*
X50682854Y-15887393D01*
X50696814Y-15754565D01*
X50697504Y-15748000D01*
X50679313Y-15574920D01*
X50678232Y-15564635D01*
X50678232Y-15564633D01*
X50677542Y-15558072D01*
X50618527Y-15376444D01*
X50609843Y-15361402D01*
X50552339Y-15261803D01*
X50523040Y-15211056D01*
X50408033Y-15083327D01*
X50399675Y-15074045D01*
X50399674Y-15074044D01*
X50395253Y-15069134D01*
X50251268Y-14964522D01*
X50246094Y-14960763D01*
X50246093Y-14960762D01*
X50240752Y-14956882D01*
X50234724Y-14954198D01*
X50234722Y-14954197D01*
X50072319Y-14881891D01*
X50072318Y-14881891D01*
X50066288Y-14879206D01*
X49962462Y-14857137D01*
X49885944Y-14840872D01*
X49885939Y-14840872D01*
X49879487Y-14839500D01*
X49688513Y-14839500D01*
X49682061Y-14840872D01*
X49682056Y-14840872D01*
X49605538Y-14857137D01*
X49501712Y-14879206D01*
X49495682Y-14881891D01*
X49495681Y-14881891D01*
X49333278Y-14954197D01*
X49333276Y-14954198D01*
X49327248Y-14956882D01*
X49321907Y-14960762D01*
X49321906Y-14960763D01*
X49316732Y-14964522D01*
X49172747Y-15069134D01*
X49168332Y-15074037D01*
X49163420Y-15078460D01*
X49162295Y-15077211D01*
X49108986Y-15110051D01*
X49075800Y-15114500D01*
X24584200Y-15114500D01*
X24516079Y-15094498D01*
X24496853Y-15078157D01*
X24496580Y-15078460D01*
X24491668Y-15074037D01*
X24487253Y-15069134D01*
X24343268Y-14964522D01*
X24338094Y-14960763D01*
X24338093Y-14960762D01*
X24332752Y-14956882D01*
X24326724Y-14954198D01*
X24326722Y-14954197D01*
X24164319Y-14881891D01*
X24164318Y-14881891D01*
X24158288Y-14879206D01*
X24054462Y-14857137D01*
X23977944Y-14840872D01*
X23977939Y-14840872D01*
X23971487Y-14839500D01*
X23825594Y-14839500D01*
X23757473Y-14819498D01*
X23710980Y-14765842D01*
X23700876Y-14695568D01*
X23730370Y-14630988D01*
X23736499Y-14624405D01*
X26864315Y-11496590D01*
X30325510Y-8035395D01*
X30387822Y-8001369D01*
X30414605Y-7998490D01*
X57032834Y-7998490D01*
X57100955Y-8018492D01*
X57147448Y-8072148D01*
X57157552Y-8142422D01*
X57154541Y-8157101D01*
X57138577Y-8216680D01*
X57126457Y-8261913D01*
X57111500Y-8432873D01*
X57111500Y-9347127D01*
X57111738Y-9349844D01*
X57111738Y-9349851D01*
X57114173Y-9377680D01*
X57126457Y-9518087D01*
X57127881Y-9523400D01*
X57127881Y-9523402D01*
X57173885Y-9695088D01*
X57185716Y-9739243D01*
X57188039Y-9744224D01*
X57188039Y-9744225D01*
X57280151Y-9941762D01*
X57280154Y-9941767D01*
X57282477Y-9946749D01*
X57324408Y-10006632D01*
X57361013Y-10058909D01*
X57413802Y-10134300D01*
X57575700Y-10296198D01*
X57580208Y-10299355D01*
X57580211Y-10299357D01*
X57585027Y-10302729D01*
X57763251Y-10427523D01*
X57768233Y-10429846D01*
X57768238Y-10429849D01*
X57909417Y-10495681D01*
X57970757Y-10524284D01*
X57976065Y-10525706D01*
X57976067Y-10525707D01*
X58186598Y-10582119D01*
X58186600Y-10582119D01*
X58191913Y-10583543D01*
X58420000Y-10603498D01*
X58648087Y-10583543D01*
X58653400Y-10582119D01*
X58653402Y-10582119D01*
X58863933Y-10525707D01*
X58863935Y-10525706D01*
X58869243Y-10524284D01*
X58930583Y-10495681D01*
X59071762Y-10429849D01*
X59071767Y-10429846D01*
X59076749Y-10427523D01*
X59254973Y-10302729D01*
X59259789Y-10299357D01*
X59259792Y-10299355D01*
X59264300Y-10296198D01*
X59426198Y-10134300D01*
X59478988Y-10058909D01*
X59515592Y-10006632D01*
X59557523Y-9946749D01*
X59559846Y-9941767D01*
X59559849Y-9941762D01*
X59575805Y-9907543D01*
X59622722Y-9854258D01*
X59690999Y-9834797D01*
X59758959Y-9855339D01*
X59804195Y-9907543D01*
X59820151Y-9941762D01*
X59820154Y-9941767D01*
X59822477Y-9946749D01*
X59864408Y-10006632D01*
X59901013Y-10058909D01*
X59953802Y-10134300D01*
X60115700Y-10296198D01*
X60120208Y-10299355D01*
X60120211Y-10299357D01*
X60125027Y-10302729D01*
X60303251Y-10427523D01*
X60308233Y-10429846D01*
X60308238Y-10429849D01*
X60449417Y-10495681D01*
X60510757Y-10524284D01*
X60516065Y-10525706D01*
X60516067Y-10525707D01*
X60726598Y-10582119D01*
X60726600Y-10582119D01*
X60731913Y-10583543D01*
X60960000Y-10603498D01*
X61188087Y-10583543D01*
X61193400Y-10582119D01*
X61193402Y-10582119D01*
X61403933Y-10525707D01*
X61403935Y-10525706D01*
X61409243Y-10524284D01*
X61470583Y-10495681D01*
X61611762Y-10429849D01*
X61611767Y-10429846D01*
X61616749Y-10427523D01*
X61794973Y-10302729D01*
X61799789Y-10299357D01*
X61799792Y-10299355D01*
X61804300Y-10296198D01*
X61966198Y-10134300D01*
X62018988Y-10058909D01*
X62055592Y-10006632D01*
X62097523Y-9946749D01*
X62099846Y-9941767D01*
X62099849Y-9941762D01*
X62115805Y-9907543D01*
X62162722Y-9854258D01*
X62230999Y-9834797D01*
X62298959Y-9855339D01*
X62344195Y-9907543D01*
X62360151Y-9941762D01*
X62360154Y-9941767D01*
X62362477Y-9946749D01*
X62404408Y-10006632D01*
X62441013Y-10058909D01*
X62493802Y-10134300D01*
X62655700Y-10296198D01*
X62660208Y-10299355D01*
X62660211Y-10299357D01*
X62665027Y-10302729D01*
X62843251Y-10427523D01*
X62848233Y-10429846D01*
X62848238Y-10429849D01*
X62989417Y-10495681D01*
X63050757Y-10524284D01*
X63056065Y-10525706D01*
X63056067Y-10525707D01*
X63266598Y-10582119D01*
X63266600Y-10582119D01*
X63271913Y-10583543D01*
X63500000Y-10603498D01*
X63728087Y-10583543D01*
X63733400Y-10582119D01*
X63733402Y-10582119D01*
X63943933Y-10525707D01*
X63943935Y-10525706D01*
X63949243Y-10524284D01*
X64010583Y-10495681D01*
X64151762Y-10429849D01*
X64151767Y-10429846D01*
X64156749Y-10427523D01*
X64334973Y-10302729D01*
X64339789Y-10299357D01*
X64339792Y-10299355D01*
X64344300Y-10296198D01*
X64506198Y-10134300D01*
X64558988Y-10058909D01*
X64595592Y-10006632D01*
X64637523Y-9946749D01*
X64639846Y-9941767D01*
X64639849Y-9941762D01*
X64655805Y-9907543D01*
X64702722Y-9854258D01*
X64770999Y-9834797D01*
X64838959Y-9855339D01*
X64884195Y-9907543D01*
X64900151Y-9941762D01*
X64900154Y-9941767D01*
X64902477Y-9946749D01*
X64944408Y-10006632D01*
X64981013Y-10058909D01*
X65033802Y-10134300D01*
X65195700Y-10296198D01*
X65200208Y-10299355D01*
X65200211Y-10299357D01*
X65205027Y-10302729D01*
X65383251Y-10427523D01*
X65388233Y-10429846D01*
X65388238Y-10429849D01*
X65529417Y-10495681D01*
X65590757Y-10524284D01*
X65596065Y-10525706D01*
X65596067Y-10525707D01*
X65806598Y-10582119D01*
X65806600Y-10582119D01*
X65811913Y-10583543D01*
X66040000Y-10603498D01*
X66268087Y-10583543D01*
X66273400Y-10582119D01*
X66273402Y-10582119D01*
X66483933Y-10525707D01*
X66483935Y-10525706D01*
X66489243Y-10524284D01*
X66550583Y-10495681D01*
X66691762Y-10429849D01*
X66691767Y-10429846D01*
X66696749Y-10427523D01*
X66874973Y-10302729D01*
X66879789Y-10299357D01*
X66879792Y-10299355D01*
X66884300Y-10296198D01*
X67046198Y-10134300D01*
X67098988Y-10058909D01*
X67135592Y-10006632D01*
X67177523Y-9946749D01*
X67179846Y-9941767D01*
X67179849Y-9941762D01*
X67195805Y-9907543D01*
X67242722Y-9854258D01*
X67310999Y-9834797D01*
X67378959Y-9855339D01*
X67424195Y-9907543D01*
X67440151Y-9941762D01*
X67440154Y-9941767D01*
X67442477Y-9946749D01*
X67484408Y-10006632D01*
X67521013Y-10058909D01*
X67573802Y-10134300D01*
X67735700Y-10296198D01*
X67740208Y-10299355D01*
X67740211Y-10299357D01*
X67745027Y-10302729D01*
X67923251Y-10427523D01*
X67928233Y-10429846D01*
X67928238Y-10429849D01*
X68069417Y-10495681D01*
X68130757Y-10524284D01*
X68136065Y-10525706D01*
X68136067Y-10525707D01*
X68346598Y-10582119D01*
X68346600Y-10582119D01*
X68351913Y-10583543D01*
X68580000Y-10603498D01*
X68808087Y-10583543D01*
X68813400Y-10582119D01*
X68813402Y-10582119D01*
X69023933Y-10525707D01*
X69023935Y-10525706D01*
X69029243Y-10524284D01*
X69090583Y-10495681D01*
X69231762Y-10429849D01*
X69231767Y-10429846D01*
X69236749Y-10427523D01*
X69414973Y-10302729D01*
X69419789Y-10299357D01*
X69419792Y-10299355D01*
X69424300Y-10296198D01*
X69586198Y-10134300D01*
X69638988Y-10058909D01*
X69675592Y-10006632D01*
X69717523Y-9946749D01*
X69719846Y-9941767D01*
X69719849Y-9941762D01*
X69735805Y-9907543D01*
X69782722Y-9854258D01*
X69850999Y-9834797D01*
X69918959Y-9855339D01*
X69964195Y-9907543D01*
X69980151Y-9941762D01*
X69980154Y-9941767D01*
X69982477Y-9946749D01*
X70024408Y-10006632D01*
X70061013Y-10058909D01*
X70113802Y-10134300D01*
X70275700Y-10296198D01*
X70280208Y-10299355D01*
X70280211Y-10299357D01*
X70463251Y-10427523D01*
X70462338Y-10428827D01*
X70506270Y-10474910D01*
X70519700Y-10544624D01*
X70493308Y-10610533D01*
X70483367Y-10621732D01*
X68567504Y-12537595D01*
X68505192Y-12571621D01*
X68478409Y-12574500D01*
X53785765Y-12574500D01*
X53774582Y-12573973D01*
X53767089Y-12572298D01*
X53759163Y-12572547D01*
X53759162Y-12572547D01*
X53699012Y-12574438D01*
X53695053Y-12574500D01*
X53667142Y-12574500D01*
X53663208Y-12574997D01*
X53663207Y-12574997D01*
X53663142Y-12575005D01*
X53651305Y-12575938D01*
X53619047Y-12576952D01*
X53615028Y-12577078D01*
X53607109Y-12577327D01*
X53587655Y-12582979D01*
X53568298Y-12586987D01*
X53556068Y-12588532D01*
X53556067Y-12588532D01*
X53548201Y-12589526D01*
X53540830Y-12592445D01*
X53540828Y-12592445D01*
X53507086Y-12605804D01*
X53495856Y-12609649D01*
X53461015Y-12619771D01*
X53461014Y-12619771D01*
X53453405Y-12621982D01*
X53446586Y-12626015D01*
X53446581Y-12626017D01*
X53435970Y-12632293D01*
X53418222Y-12640988D01*
X53399381Y-12648448D01*
X53392965Y-12653110D01*
X53392964Y-12653110D01*
X53363611Y-12674436D01*
X53353691Y-12680952D01*
X53322463Y-12699420D01*
X53322460Y-12699422D01*
X53315636Y-12703458D01*
X53301315Y-12717779D01*
X53286282Y-12730619D01*
X53269891Y-12742528D01*
X53241700Y-12776605D01*
X53233710Y-12785384D01*
X51423747Y-14595346D01*
X51415461Y-14602886D01*
X51408982Y-14606998D01*
X51403557Y-14612775D01*
X51362357Y-14656649D01*
X51359602Y-14659491D01*
X51339865Y-14679228D01*
X51337385Y-14682425D01*
X51329682Y-14691445D01*
X51299414Y-14723677D01*
X51295595Y-14730623D01*
X51295593Y-14730626D01*
X51289652Y-14741432D01*
X51278801Y-14757951D01*
X51266386Y-14773957D01*
X51263241Y-14781226D01*
X51263238Y-14781230D01*
X51248826Y-14814535D01*
X51243609Y-14825185D01*
X51222305Y-14863938D01*
X51220334Y-14871613D01*
X51220334Y-14871614D01*
X51217267Y-14883560D01*
X51210863Y-14902264D01*
X51202819Y-14920853D01*
X51201580Y-14928676D01*
X51201577Y-14928686D01*
X51195901Y-14964522D01*
X51193495Y-14976142D01*
X51182500Y-15018968D01*
X51182500Y-15039222D01*
X51180949Y-15058932D01*
X51177780Y-15078941D01*
X51178526Y-15086833D01*
X51181941Y-15122959D01*
X51182500Y-15134817D01*
X51182500Y-16061476D01*
X51162498Y-16129597D01*
X51150142Y-16145779D01*
X51076960Y-16227056D01*
X51073659Y-16232774D01*
X50987792Y-16381500D01*
X50981473Y-16392444D01*
X50922458Y-16574072D01*
X50921768Y-16580633D01*
X50921768Y-16580635D01*
X50908722Y-16704767D01*
X50902496Y-16764000D01*
X50922458Y-16953928D01*
X50981473Y-17135556D01*
X50984776Y-17141278D01*
X50984777Y-17141279D01*
X51001277Y-17169857D01*
X51076960Y-17300944D01*
X51081378Y-17305851D01*
X51081379Y-17305852D01*
X51133938Y-17364225D01*
X51204747Y-17442866D01*
X51288369Y-17503621D01*
X51348803Y-17547529D01*
X51359248Y-17555118D01*
X51365276Y-17557802D01*
X51365278Y-17557803D01*
X51522412Y-17627763D01*
X51533712Y-17632794D01*
X51627113Y-17652647D01*
X51714056Y-17671128D01*
X51714061Y-17671128D01*
X51720513Y-17672500D01*
X51911487Y-17672500D01*
X51917939Y-17671128D01*
X51917944Y-17671128D01*
X52004887Y-17652647D01*
X52098288Y-17632794D01*
X52109588Y-17627763D01*
X52266722Y-17557803D01*
X52266724Y-17557802D01*
X52272752Y-17555118D01*
X52283198Y-17547529D01*
X52343631Y-17503621D01*
X52427253Y-17442866D01*
X52498062Y-17364225D01*
X52550621Y-17305852D01*
X52550622Y-17305851D01*
X52555040Y-17300944D01*
X52630723Y-17169857D01*
X52647223Y-17141279D01*
X52647224Y-17141278D01*
X52650527Y-17135556D01*
X52709542Y-16953928D01*
X52729504Y-16764000D01*
X52723278Y-16704767D01*
X52710232Y-16580635D01*
X52710232Y-16580633D01*
X52709542Y-16574072D01*
X52650527Y-16392444D01*
X52644209Y-16381500D01*
X52558341Y-16232774D01*
X52555040Y-16227056D01*
X52481863Y-16145785D01*
X52451147Y-16081779D01*
X52449500Y-16061476D01*
X52449500Y-15413592D01*
X52469502Y-15345471D01*
X52486405Y-15324497D01*
X53932498Y-13878405D01*
X53994810Y-13844379D01*
X54021593Y-13841500D01*
X68714237Y-13841500D01*
X68725420Y-13842027D01*
X68732913Y-13843702D01*
X68740839Y-13843453D01*
X68740840Y-13843453D01*
X68800990Y-13841562D01*
X68804949Y-13841500D01*
X68832860Y-13841500D01*
X68836795Y-13841003D01*
X68836860Y-13840995D01*
X68848697Y-13840062D01*
X68880955Y-13839048D01*
X68884974Y-13838922D01*
X68892893Y-13838673D01*
X68912347Y-13833021D01*
X68931704Y-13829013D01*
X68943934Y-13827468D01*
X68943935Y-13827468D01*
X68951801Y-13826474D01*
X68959172Y-13823555D01*
X68959174Y-13823555D01*
X68992916Y-13810196D01*
X69004146Y-13806351D01*
X69038987Y-13796229D01*
X69038988Y-13796229D01*
X69046597Y-13794018D01*
X69053416Y-13789985D01*
X69053421Y-13789983D01*
X69064032Y-13783707D01*
X69081780Y-13775012D01*
X69100621Y-13767552D01*
X69136391Y-13741564D01*
X69146311Y-13735048D01*
X69177539Y-13716580D01*
X69177542Y-13716578D01*
X69184366Y-13712542D01*
X69198687Y-13698221D01*
X69213721Y-13685380D01*
X69223698Y-13678131D01*
X69230111Y-13673472D01*
X69258302Y-13639395D01*
X69266292Y-13630616D01*
X72619110Y-10277798D01*
X72681422Y-10243772D01*
X72752237Y-10248837D01*
X72797300Y-10277798D01*
X72815700Y-10296198D01*
X72820208Y-10299355D01*
X72820211Y-10299357D01*
X72825027Y-10302729D01*
X73003251Y-10427523D01*
X73008233Y-10429846D01*
X73008238Y-10429849D01*
X73149417Y-10495681D01*
X73210757Y-10524284D01*
X73216065Y-10525706D01*
X73216067Y-10525707D01*
X73426598Y-10582119D01*
X73426600Y-10582119D01*
X73431913Y-10583543D01*
X73660000Y-10603498D01*
X73888087Y-10583543D01*
X73893400Y-10582119D01*
X73893402Y-10582119D01*
X74103933Y-10525707D01*
X74103935Y-10525706D01*
X74109243Y-10524284D01*
X74170583Y-10495681D01*
X74311762Y-10429849D01*
X74311767Y-10429846D01*
X74316749Y-10427523D01*
X74494973Y-10302729D01*
X74499789Y-10299357D01*
X74499792Y-10299355D01*
X74504300Y-10296198D01*
X74666198Y-10134300D01*
X74669357Y-10129789D01*
X74672892Y-10125576D01*
X74674026Y-10126527D01*
X74724071Y-10086529D01*
X74794690Y-10079224D01*
X74858049Y-10111258D01*
X74894030Y-10172462D01*
X74897082Y-10189517D01*
X74898255Y-10200316D01*
X74949385Y-10336705D01*
X75036739Y-10453261D01*
X75153295Y-10540615D01*
X75289684Y-10591745D01*
X75351866Y-10598500D01*
X77048134Y-10598500D01*
X77110316Y-10591745D01*
X77246705Y-10540615D01*
X77363261Y-10453261D01*
X77450615Y-10336705D01*
X77501745Y-10200316D01*
X77501779Y-10200000D01*
X78696502Y-10200000D01*
X78716457Y-10428087D01*
X78717881Y-10433400D01*
X78717881Y-10433402D01*
X78765344Y-10610533D01*
X78775716Y-10649243D01*
X78778039Y-10654224D01*
X78778039Y-10654225D01*
X78870151Y-10851762D01*
X78870154Y-10851767D01*
X78872477Y-10856749D01*
X78895898Y-10890197D01*
X78994138Y-11030498D01*
X79003802Y-11044300D01*
X79165700Y-11206198D01*
X79170208Y-11209355D01*
X79170211Y-11209357D01*
X79248389Y-11264098D01*
X79353251Y-11337523D01*
X79358233Y-11339846D01*
X79358238Y-11339849D01*
X79544377Y-11426646D01*
X79560757Y-11434284D01*
X79566065Y-11435706D01*
X79566067Y-11435707D01*
X79776598Y-11492119D01*
X79776600Y-11492119D01*
X79781913Y-11493543D01*
X80010000Y-11513498D01*
X80238087Y-11493543D01*
X80243400Y-11492119D01*
X80243402Y-11492119D01*
X80453933Y-11435707D01*
X80453935Y-11435706D01*
X80459243Y-11434284D01*
X80475623Y-11426646D01*
X80661762Y-11339849D01*
X80661767Y-11339846D01*
X80666749Y-11337523D01*
X80771611Y-11264098D01*
X80849789Y-11209357D01*
X80849792Y-11209355D01*
X80854300Y-11206198D01*
X81016198Y-11044300D01*
X81025863Y-11030498D01*
X81124102Y-10890197D01*
X81147523Y-10856749D01*
X81149846Y-10851767D01*
X81149849Y-10851762D01*
X81241961Y-10654225D01*
X81241961Y-10654224D01*
X81244284Y-10649243D01*
X81254657Y-10610533D01*
X81302119Y-10433402D01*
X81302119Y-10433400D01*
X81303543Y-10428087D01*
X81323498Y-10200000D01*
X81303543Y-9971913D01*
X81279119Y-9880763D01*
X81245707Y-9756067D01*
X81245706Y-9756065D01*
X81244284Y-9750757D01*
X81220145Y-9698990D01*
X81149849Y-9548238D01*
X81149846Y-9548233D01*
X81147523Y-9543251D01*
X81041483Y-9391811D01*
X81019357Y-9360211D01*
X81019355Y-9360208D01*
X81016198Y-9355700D01*
X80854300Y-9193802D01*
X80849792Y-9190645D01*
X80849789Y-9190643D01*
X80691367Y-9079715D01*
X80666749Y-9062477D01*
X80661767Y-9060154D01*
X80661762Y-9060151D01*
X80464225Y-8968039D01*
X80464224Y-8968039D01*
X80459243Y-8965716D01*
X80453935Y-8964294D01*
X80453933Y-8964293D01*
X80243402Y-8907881D01*
X80243400Y-8907881D01*
X80238087Y-8906457D01*
X80010000Y-8886502D01*
X79781913Y-8906457D01*
X79776600Y-8907881D01*
X79776598Y-8907881D01*
X79566067Y-8964293D01*
X79566065Y-8964294D01*
X79560757Y-8965716D01*
X79555776Y-8968039D01*
X79555775Y-8968039D01*
X79358238Y-9060151D01*
X79358233Y-9060154D01*
X79353251Y-9062477D01*
X79328633Y-9079715D01*
X79170211Y-9190643D01*
X79170208Y-9190645D01*
X79165700Y-9193802D01*
X79003802Y-9355700D01*
X79000645Y-9360208D01*
X79000643Y-9360211D01*
X78978517Y-9391811D01*
X78872477Y-9543251D01*
X78870154Y-9548233D01*
X78870151Y-9548238D01*
X78799855Y-9698990D01*
X78775716Y-9750757D01*
X78774294Y-9756065D01*
X78774293Y-9756067D01*
X78740881Y-9880763D01*
X78716457Y-9971913D01*
X78696502Y-10200000D01*
X77501779Y-10200000D01*
X77508500Y-10138134D01*
X77508500Y-7641866D01*
X77501745Y-7579684D01*
X77450615Y-7443295D01*
X77363261Y-7326739D01*
X77246705Y-7239385D01*
X77110316Y-7188255D01*
X77048134Y-7181500D01*
X75351866Y-7181500D01*
X75289684Y-7188255D01*
X75153295Y-7239385D01*
X75036739Y-7326739D01*
X74949385Y-7443295D01*
X74898255Y-7579684D01*
X74897083Y-7590474D01*
X74896197Y-7592606D01*
X74895575Y-7595222D01*
X74895152Y-7595121D01*
X74869845Y-7656035D01*
X74811483Y-7696463D01*
X74740529Y-7698922D01*
X74679510Y-7662629D01*
X74672511Y-7653969D01*
X74669354Y-7650207D01*
X74666198Y-7645700D01*
X74504300Y-7483802D01*
X74499792Y-7480645D01*
X74499789Y-7480643D01*
X74366808Y-7387529D01*
X74316749Y-7352477D01*
X74311767Y-7350154D01*
X74311762Y-7350151D01*
X74114225Y-7258039D01*
X74114224Y-7258039D01*
X74109243Y-7255716D01*
X74103935Y-7254294D01*
X74103933Y-7254293D01*
X73893402Y-7197881D01*
X73893400Y-7197881D01*
X73888087Y-7196457D01*
X73660000Y-7176502D01*
X73431913Y-7196457D01*
X73426600Y-7197881D01*
X73426598Y-7197881D01*
X73216067Y-7254293D01*
X73216065Y-7254294D01*
X73210757Y-7255716D01*
X73205776Y-7258039D01*
X73205775Y-7258039D01*
X73008238Y-7350151D01*
X73008233Y-7350154D01*
X73003251Y-7352477D01*
X72953192Y-7387529D01*
X72820211Y-7480643D01*
X72820208Y-7480645D01*
X72815700Y-7483802D01*
X72653802Y-7645700D01*
X72522477Y-7833251D01*
X72520154Y-7838233D01*
X72520151Y-7838238D01*
X72504195Y-7872457D01*
X72457278Y-7925742D01*
X72389001Y-7945203D01*
X72321041Y-7924661D01*
X72275805Y-7872457D01*
X72259849Y-7838238D01*
X72259846Y-7838233D01*
X72257523Y-7833251D01*
X72126198Y-7645700D01*
X71964300Y-7483802D01*
X71959792Y-7480645D01*
X71959789Y-7480643D01*
X71826808Y-7387529D01*
X71776749Y-7352477D01*
X71771767Y-7350154D01*
X71771762Y-7350151D01*
X71574225Y-7258039D01*
X71574224Y-7258039D01*
X71569243Y-7255716D01*
X71563935Y-7254294D01*
X71563933Y-7254293D01*
X71353402Y-7197881D01*
X71353400Y-7197881D01*
X71348087Y-7196457D01*
X71120000Y-7176502D01*
X70891913Y-7196457D01*
X70886600Y-7197881D01*
X70886598Y-7197881D01*
X70676067Y-7254293D01*
X70676065Y-7254294D01*
X70670757Y-7255716D01*
X70665776Y-7258039D01*
X70665775Y-7258039D01*
X70647338Y-7266636D01*
X70553528Y-7310380D01*
X70483338Y-7321041D01*
X70418526Y-7292061D01*
X70411185Y-7285280D01*
X68419500Y-5293595D01*
X68385474Y-5231283D01*
X68390539Y-5160468D01*
X68433086Y-5103632D01*
X68499606Y-5078821D01*
X68508595Y-5078500D01*
X90490406Y-5078500D01*
X90558527Y-5098502D01*
X90579501Y-5115405D01*
X92468484Y-7004388D01*
X92502510Y-7066700D01*
X92497445Y-7137515D01*
X92454898Y-7194351D01*
X92412001Y-7215190D01*
X92260757Y-7255716D01*
X92255776Y-7258039D01*
X92255775Y-7258039D01*
X92058238Y-7350151D01*
X92058233Y-7350154D01*
X92053251Y-7352477D01*
X92003192Y-7387529D01*
X91870211Y-7480643D01*
X91870208Y-7480645D01*
X91865700Y-7483802D01*
X91703802Y-7645700D01*
X91572477Y-7833251D01*
X91570154Y-7838233D01*
X91570151Y-7838238D01*
X91554195Y-7872457D01*
X91507278Y-7925742D01*
X91439001Y-7945203D01*
X91371041Y-7924661D01*
X91325805Y-7872457D01*
X91309849Y-7838238D01*
X91309846Y-7838233D01*
X91307523Y-7833251D01*
X91176198Y-7645700D01*
X91014300Y-7483802D01*
X91009792Y-7480645D01*
X91009789Y-7480643D01*
X90876808Y-7387529D01*
X90826749Y-7352477D01*
X90821767Y-7350154D01*
X90821762Y-7350151D01*
X90624225Y-7258039D01*
X90624224Y-7258039D01*
X90619243Y-7255716D01*
X90613935Y-7254294D01*
X90613933Y-7254293D01*
X90403402Y-7197881D01*
X90403400Y-7197881D01*
X90398087Y-7196457D01*
X90170000Y-7176502D01*
X89941913Y-7196457D01*
X89936600Y-7197881D01*
X89936598Y-7197881D01*
X89726067Y-7254293D01*
X89726065Y-7254294D01*
X89720757Y-7255716D01*
X89715776Y-7258039D01*
X89715775Y-7258039D01*
X89518238Y-7350151D01*
X89518233Y-7350154D01*
X89513251Y-7352477D01*
X89463192Y-7387529D01*
X89330211Y-7480643D01*
X89330208Y-7480645D01*
X89325700Y-7483802D01*
X89163802Y-7645700D01*
X89032477Y-7833251D01*
X89030154Y-7838233D01*
X89030151Y-7838238D01*
X89004592Y-7893051D01*
X88935716Y-8040757D01*
X88934294Y-8046065D01*
X88934293Y-8046067D01*
X88889955Y-8211538D01*
X88876457Y-8261913D01*
X88861500Y-8432873D01*
X88861500Y-9347127D01*
X88861738Y-9349844D01*
X88861738Y-9349851D01*
X88864173Y-9377680D01*
X88876457Y-9518087D01*
X88877881Y-9523400D01*
X88877881Y-9523402D01*
X88923885Y-9695088D01*
X88935716Y-9739243D01*
X88938039Y-9744224D01*
X88938039Y-9744225D01*
X89030151Y-9941762D01*
X89030154Y-9941767D01*
X89032477Y-9946749D01*
X89074408Y-10006632D01*
X89111013Y-10058909D01*
X89163802Y-10134300D01*
X89325700Y-10296198D01*
X89330208Y-10299355D01*
X89330211Y-10299357D01*
X89335027Y-10302729D01*
X89513251Y-10427523D01*
X89518233Y-10429846D01*
X89518238Y-10429849D01*
X89659417Y-10495681D01*
X89720757Y-10524284D01*
X89726065Y-10525706D01*
X89726067Y-10525707D01*
X89936598Y-10582119D01*
X89936600Y-10582119D01*
X89941913Y-10583543D01*
X90170000Y-10603498D01*
X90398087Y-10583543D01*
X90403400Y-10582119D01*
X90403402Y-10582119D01*
X90613933Y-10525707D01*
X90613935Y-10525706D01*
X90619243Y-10524284D01*
X90680583Y-10495681D01*
X90821762Y-10429849D01*
X90821767Y-10429846D01*
X90826749Y-10427523D01*
X91004973Y-10302729D01*
X91009789Y-10299357D01*
X91009792Y-10299355D01*
X91014300Y-10296198D01*
X91176198Y-10134300D01*
X91228988Y-10058909D01*
X91265592Y-10006632D01*
X91307523Y-9946749D01*
X91309846Y-9941767D01*
X91309849Y-9941762D01*
X91325805Y-9907543D01*
X91372722Y-9854258D01*
X91440999Y-9834797D01*
X91508959Y-9855339D01*
X91554195Y-9907543D01*
X91570151Y-9941762D01*
X91570154Y-9941767D01*
X91572477Y-9946749D01*
X91614408Y-10006632D01*
X91651013Y-10058909D01*
X91703802Y-10134300D01*
X91865700Y-10296198D01*
X91870208Y-10299355D01*
X91870211Y-10299357D01*
X92022771Y-10406181D01*
X92067099Y-10461638D01*
X92076500Y-10509394D01*
X92076500Y-14890606D01*
X92056498Y-14958727D01*
X92022771Y-14993819D01*
X91870211Y-15100643D01*
X91870208Y-15100645D01*
X91865700Y-15103802D01*
X91703802Y-15265700D01*
X91572477Y-15453251D01*
X91570154Y-15458233D01*
X91570151Y-15458238D01*
X91554195Y-15492457D01*
X91507278Y-15545742D01*
X91439001Y-15565203D01*
X91371041Y-15544661D01*
X91325805Y-15492457D01*
X91309849Y-15458238D01*
X91309846Y-15458233D01*
X91307523Y-15453251D01*
X91176198Y-15265700D01*
X91014300Y-15103802D01*
X91009792Y-15100645D01*
X91009789Y-15100643D01*
X90922070Y-15039222D01*
X90826749Y-14972477D01*
X90821767Y-14970154D01*
X90821762Y-14970151D01*
X90624225Y-14878039D01*
X90624224Y-14878039D01*
X90619243Y-14875716D01*
X90613935Y-14874294D01*
X90613933Y-14874293D01*
X90403402Y-14817881D01*
X90403400Y-14817881D01*
X90398087Y-14816457D01*
X90170000Y-14796502D01*
X89941913Y-14816457D01*
X89936600Y-14817881D01*
X89936598Y-14817881D01*
X89726067Y-14874293D01*
X89726065Y-14874294D01*
X89720757Y-14875716D01*
X89715776Y-14878039D01*
X89715775Y-14878039D01*
X89518238Y-14970151D01*
X89518233Y-14970154D01*
X89513251Y-14972477D01*
X89417930Y-15039222D01*
X89330211Y-15100643D01*
X89330208Y-15100645D01*
X89325700Y-15103802D01*
X89163802Y-15265700D01*
X89032477Y-15453251D01*
X89030154Y-15458233D01*
X89030151Y-15458238D01*
X88953540Y-15622532D01*
X88935716Y-15660757D01*
X88934294Y-15666065D01*
X88934293Y-15666067D01*
X88889955Y-15831538D01*
X88876457Y-15881913D01*
X88861500Y-16052873D01*
X88861500Y-16967127D01*
X88876457Y-17138087D01*
X88877881Y-17143400D01*
X88877881Y-17143402D01*
X88923885Y-17315088D01*
X88935716Y-17359243D01*
X88938039Y-17364224D01*
X88938039Y-17364225D01*
X89030151Y-17561762D01*
X89030154Y-17561767D01*
X89032477Y-17566749D01*
X89079683Y-17634166D01*
X89154521Y-17741045D01*
X89163802Y-17754300D01*
X89325700Y-17916198D01*
X89330208Y-17919355D01*
X89330211Y-17919357D01*
X89408389Y-17974098D01*
X89513251Y-18047523D01*
X89518233Y-18049846D01*
X89518238Y-18049849D01*
X89688825Y-18129394D01*
X89720757Y-18144284D01*
X89726065Y-18145706D01*
X89726067Y-18145707D01*
X89936598Y-18202119D01*
X89936600Y-18202119D01*
X89941913Y-18203543D01*
X90170000Y-18223498D01*
X90398087Y-18203543D01*
X90403400Y-18202119D01*
X90403402Y-18202119D01*
X90613933Y-18145707D01*
X90613935Y-18145706D01*
X90619243Y-18144284D01*
X90651175Y-18129394D01*
X90821762Y-18049849D01*
X90821767Y-18049846D01*
X90826749Y-18047523D01*
X90931611Y-17974098D01*
X91009789Y-17919357D01*
X91009792Y-17919355D01*
X91014300Y-17916198D01*
X91176198Y-17754300D01*
X91185480Y-17741045D01*
X91260317Y-17634166D01*
X91307523Y-17566749D01*
X91309846Y-17561767D01*
X91309849Y-17561762D01*
X91325805Y-17527543D01*
X91372722Y-17474258D01*
X91440999Y-17454797D01*
X91508959Y-17475339D01*
X91554195Y-17527543D01*
X91570151Y-17561762D01*
X91570154Y-17561767D01*
X91572477Y-17566749D01*
X91619683Y-17634166D01*
X91694521Y-17741045D01*
X91703802Y-17754300D01*
X91865700Y-17916198D01*
X91870208Y-17919355D01*
X91870211Y-17919357D01*
X91948389Y-17974098D01*
X92053251Y-18047523D01*
X92058233Y-18049846D01*
X92058238Y-18049849D01*
X92228825Y-18129394D01*
X92260757Y-18144284D01*
X92266065Y-18145706D01*
X92266067Y-18145707D01*
X92476598Y-18202119D01*
X92476600Y-18202119D01*
X92481913Y-18203543D01*
X92710000Y-18223498D01*
X92938087Y-18203543D01*
X92943400Y-18202119D01*
X92943402Y-18202119D01*
X93153933Y-18145707D01*
X93153935Y-18145706D01*
X93159243Y-18144284D01*
X93191175Y-18129394D01*
X93361762Y-18049849D01*
X93361767Y-18049846D01*
X93366749Y-18047523D01*
X93471611Y-17974098D01*
X93549789Y-17919357D01*
X93549792Y-17919355D01*
X93554300Y-17916198D01*
X93716198Y-17754300D01*
X93725480Y-17741045D01*
X93800317Y-17634166D01*
X93847523Y-17566749D01*
X93849846Y-17561767D01*
X93849849Y-17561762D01*
X93865805Y-17527543D01*
X93912722Y-17474258D01*
X93980999Y-17454797D01*
X94048959Y-17475339D01*
X94094195Y-17527543D01*
X94110151Y-17561762D01*
X94110154Y-17561767D01*
X94112477Y-17566749D01*
X94159683Y-17634166D01*
X94234521Y-17741045D01*
X94243802Y-17754300D01*
X94405700Y-17916198D01*
X94410208Y-17919355D01*
X94410211Y-17919357D01*
X94562771Y-18026181D01*
X94607099Y-18081638D01*
X94616500Y-18129394D01*
X94616500Y-25339405D01*
X94596498Y-25407526D01*
X94579595Y-25428500D01*
X90706500Y-29301595D01*
X90644188Y-29335621D01*
X90617405Y-29338500D01*
X84528200Y-29338500D01*
X84460079Y-29318498D01*
X84440853Y-29302157D01*
X84440580Y-29302460D01*
X84435668Y-29298037D01*
X84431253Y-29293134D01*
X84365988Y-29245716D01*
X84282094Y-29184763D01*
X84282093Y-29184762D01*
X84276752Y-29180882D01*
X84270724Y-29178198D01*
X84270722Y-29178197D01*
X84108319Y-29105891D01*
X84108318Y-29105891D01*
X84102288Y-29103206D01*
X83981460Y-29077523D01*
X83921944Y-29064872D01*
X83921939Y-29064872D01*
X83915487Y-29063500D01*
X83724513Y-29063500D01*
X83718061Y-29064872D01*
X83718056Y-29064872D01*
X83658540Y-29077523D01*
X83537712Y-29103206D01*
X83531682Y-29105891D01*
X83531681Y-29105891D01*
X83369278Y-29178197D01*
X83369276Y-29178198D01*
X83363248Y-29180882D01*
X83357907Y-29184762D01*
X83357906Y-29184763D01*
X83274012Y-29245716D01*
X83208747Y-29293134D01*
X83204332Y-29298037D01*
X83199420Y-29302460D01*
X83198295Y-29301211D01*
X83144986Y-29334051D01*
X83111800Y-29338500D01*
X70092395Y-29338500D01*
X70024274Y-29318498D01*
X69977781Y-29264842D01*
X69967677Y-29194568D01*
X69972563Y-29173562D01*
X69979502Y-29152208D01*
X69979503Y-29152203D01*
X69981542Y-29145928D01*
X69986177Y-29101834D01*
X69998907Y-28980707D01*
X70025920Y-28915050D01*
X70035122Y-28904782D01*
X70761337Y-28178568D01*
X71512253Y-27427652D01*
X71520539Y-27420112D01*
X71527018Y-27416000D01*
X71573644Y-27366348D01*
X71576398Y-27363507D01*
X71596135Y-27343770D01*
X71598615Y-27340573D01*
X71606320Y-27331551D01*
X71616667Y-27320533D01*
X71636586Y-27299321D01*
X71640405Y-27292375D01*
X71640407Y-27292372D01*
X71646348Y-27281566D01*
X71657199Y-27265047D01*
X71660234Y-27261134D01*
X71669614Y-27249041D01*
X71672759Y-27241772D01*
X71672762Y-27241768D01*
X71687174Y-27208463D01*
X71692391Y-27197813D01*
X71713695Y-27159060D01*
X71718733Y-27139437D01*
X71725137Y-27120734D01*
X71730033Y-27109420D01*
X71730033Y-27109419D01*
X71733181Y-27102145D01*
X71734420Y-27094322D01*
X71734423Y-27094312D01*
X71740099Y-27058476D01*
X71742505Y-27046856D01*
X71751528Y-27011711D01*
X71751528Y-27011710D01*
X71753500Y-27004030D01*
X71753500Y-26983776D01*
X71755051Y-26964065D01*
X71756980Y-26951886D01*
X71758220Y-26944057D01*
X71754059Y-26900038D01*
X71753500Y-26888181D01*
X71753500Y-18129394D01*
X71773502Y-18061273D01*
X71807229Y-18026181D01*
X71959789Y-17919357D01*
X71959792Y-17919355D01*
X71964300Y-17916198D01*
X72126198Y-17754300D01*
X72135480Y-17741045D01*
X72210317Y-17634166D01*
X72257523Y-17566749D01*
X72259846Y-17561767D01*
X72259849Y-17561762D01*
X72275805Y-17527543D01*
X72322722Y-17474258D01*
X72390999Y-17454797D01*
X72458959Y-17475339D01*
X72504195Y-17527543D01*
X72520151Y-17561762D01*
X72520154Y-17561767D01*
X72522477Y-17566749D01*
X72569683Y-17634166D01*
X72644521Y-17741045D01*
X72653802Y-17754300D01*
X72815700Y-17916198D01*
X72820208Y-17919355D01*
X72820211Y-17919357D01*
X72898389Y-17974098D01*
X73003251Y-18047523D01*
X73008233Y-18049846D01*
X73008238Y-18049849D01*
X73178825Y-18129394D01*
X73210757Y-18144284D01*
X73216065Y-18145706D01*
X73216067Y-18145707D01*
X73426598Y-18202119D01*
X73426600Y-18202119D01*
X73431913Y-18203543D01*
X73660000Y-18223498D01*
X73888087Y-18203543D01*
X73893400Y-18202119D01*
X73893402Y-18202119D01*
X74103933Y-18145707D01*
X74103935Y-18145706D01*
X74109243Y-18144284D01*
X74141175Y-18129394D01*
X74311762Y-18049849D01*
X74311767Y-18049846D01*
X74316749Y-18047523D01*
X74421611Y-17974098D01*
X74499789Y-17919357D01*
X74499792Y-17919355D01*
X74504300Y-17916198D01*
X74666198Y-17754300D01*
X74675480Y-17741045D01*
X74750317Y-17634166D01*
X74797523Y-17566749D01*
X74799846Y-17561767D01*
X74799849Y-17561762D01*
X74891961Y-17364225D01*
X74891961Y-17364224D01*
X74894284Y-17359243D01*
X74906116Y-17315088D01*
X74952119Y-17143402D01*
X74952119Y-17143400D01*
X74953543Y-17138087D01*
X74968500Y-16967127D01*
X74968500Y-16052873D01*
X74953543Y-15881913D01*
X74940045Y-15831538D01*
X74895707Y-15666067D01*
X74895706Y-15666065D01*
X74894284Y-15660757D01*
X74876460Y-15622532D01*
X74799849Y-15458238D01*
X74799846Y-15458233D01*
X74797523Y-15453251D01*
X74666198Y-15265700D01*
X74504300Y-15103802D01*
X74499792Y-15100645D01*
X74499789Y-15100643D01*
X74412070Y-15039222D01*
X74316749Y-14972477D01*
X74311767Y-14970154D01*
X74311762Y-14970151D01*
X74114225Y-14878039D01*
X74114224Y-14878039D01*
X74109243Y-14875716D01*
X74103935Y-14874294D01*
X74103933Y-14874293D01*
X73893402Y-14817881D01*
X73893400Y-14817881D01*
X73888087Y-14816457D01*
X73660000Y-14796502D01*
X73431913Y-14816457D01*
X73426600Y-14817881D01*
X73426598Y-14817881D01*
X73216067Y-14874293D01*
X73216065Y-14874294D01*
X73210757Y-14875716D01*
X73205776Y-14878039D01*
X73205775Y-14878039D01*
X73008238Y-14970151D01*
X73008233Y-14970154D01*
X73003251Y-14972477D01*
X72907930Y-15039222D01*
X72820211Y-15100643D01*
X72820208Y-15100645D01*
X72815700Y-15103802D01*
X72653802Y-15265700D01*
X72522477Y-15453251D01*
X72520154Y-15458233D01*
X72520151Y-15458238D01*
X72504195Y-15492457D01*
X72457278Y-15545742D01*
X72389001Y-15565203D01*
X72321041Y-15544661D01*
X72275805Y-15492457D01*
X72259849Y-15458238D01*
X72259846Y-15458233D01*
X72257523Y-15453251D01*
X72126198Y-15265700D01*
X71964300Y-15103802D01*
X71959792Y-15100645D01*
X71959789Y-15100643D01*
X71872070Y-15039222D01*
X71776749Y-14972477D01*
X71771767Y-14970154D01*
X71771762Y-14970151D01*
X71574225Y-14878039D01*
X71574224Y-14878039D01*
X71569243Y-14875716D01*
X71563935Y-14874294D01*
X71563933Y-14874293D01*
X71353402Y-14817881D01*
X71353400Y-14817881D01*
X71348087Y-14816457D01*
X71120000Y-14796502D01*
X70891913Y-14816457D01*
X70886600Y-14817881D01*
X70886598Y-14817881D01*
X70676067Y-14874293D01*
X70676065Y-14874294D01*
X70670757Y-14875716D01*
X70665776Y-14878039D01*
X70665775Y-14878039D01*
X70468238Y-14970151D01*
X70468233Y-14970154D01*
X70463251Y-14972477D01*
X70367930Y-15039222D01*
X70280211Y-15100643D01*
X70280208Y-15100645D01*
X70275700Y-15103802D01*
X70113802Y-15265700D01*
X69982477Y-15453251D01*
X69980154Y-15458233D01*
X69980151Y-15458238D01*
X69964195Y-15492457D01*
X69917278Y-15545742D01*
X69849001Y-15565203D01*
X69781041Y-15544661D01*
X69735805Y-15492457D01*
X69719849Y-15458238D01*
X69719846Y-15458233D01*
X69717523Y-15453251D01*
X69586198Y-15265700D01*
X69424300Y-15103802D01*
X69419792Y-15100645D01*
X69419789Y-15100643D01*
X69332070Y-15039222D01*
X69236749Y-14972477D01*
X69231767Y-14970154D01*
X69231762Y-14970151D01*
X69034225Y-14878039D01*
X69034224Y-14878039D01*
X69029243Y-14875716D01*
X69023935Y-14874294D01*
X69023933Y-14874293D01*
X68813402Y-14817881D01*
X68813400Y-14817881D01*
X68808087Y-14816457D01*
X68580000Y-14796502D01*
X68351913Y-14816457D01*
X68346600Y-14817881D01*
X68346598Y-14817881D01*
X68136067Y-14874293D01*
X68136065Y-14874294D01*
X68130757Y-14875716D01*
X68125776Y-14878039D01*
X68125775Y-14878039D01*
X67928238Y-14970151D01*
X67928233Y-14970154D01*
X67923251Y-14972477D01*
X67827930Y-15039222D01*
X67740211Y-15100643D01*
X67740208Y-15100645D01*
X67735700Y-15103802D01*
X67573802Y-15265700D01*
X67442477Y-15453251D01*
X67440154Y-15458233D01*
X67440151Y-15458238D01*
X67424195Y-15492457D01*
X67377278Y-15545742D01*
X67309001Y-15565203D01*
X67241041Y-15544661D01*
X67195805Y-15492457D01*
X67179849Y-15458238D01*
X67179846Y-15458233D01*
X67177523Y-15453251D01*
X67046198Y-15265700D01*
X66884300Y-15103802D01*
X66879792Y-15100645D01*
X66879789Y-15100643D01*
X66792070Y-15039222D01*
X66696749Y-14972477D01*
X66691767Y-14970154D01*
X66691762Y-14970151D01*
X66494225Y-14878039D01*
X66494224Y-14878039D01*
X66489243Y-14875716D01*
X66483935Y-14874294D01*
X66483933Y-14874293D01*
X66273402Y-14817881D01*
X66273400Y-14817881D01*
X66268087Y-14816457D01*
X66040000Y-14796502D01*
X65811913Y-14816457D01*
X65806600Y-14817881D01*
X65806598Y-14817881D01*
X65596067Y-14874293D01*
X65596065Y-14874294D01*
X65590757Y-14875716D01*
X65585776Y-14878039D01*
X65585775Y-14878039D01*
X65388238Y-14970151D01*
X65388233Y-14970154D01*
X65383251Y-14972477D01*
X65287930Y-15039222D01*
X65200211Y-15100643D01*
X65200208Y-15100645D01*
X65195700Y-15103802D01*
X65033802Y-15265700D01*
X64902477Y-15453251D01*
X64900154Y-15458233D01*
X64900151Y-15458238D01*
X64884195Y-15492457D01*
X64837278Y-15545742D01*
X64769001Y-15565203D01*
X64701041Y-15544661D01*
X64655805Y-15492457D01*
X64639849Y-15458238D01*
X64639846Y-15458233D01*
X64637523Y-15453251D01*
X64506198Y-15265700D01*
X64344300Y-15103802D01*
X64339792Y-15100645D01*
X64339789Y-15100643D01*
X64252070Y-15039222D01*
X64156749Y-14972477D01*
X64151767Y-14970154D01*
X64151762Y-14970151D01*
X63954225Y-14878039D01*
X63954224Y-14878039D01*
X63949243Y-14875716D01*
X63943935Y-14874294D01*
X63943933Y-14874293D01*
X63733402Y-14817881D01*
X63733400Y-14817881D01*
X63728087Y-14816457D01*
X63500000Y-14796502D01*
X63271913Y-14816457D01*
X63266600Y-14817881D01*
X63266598Y-14817881D01*
X63056067Y-14874293D01*
X63056065Y-14874294D01*
X63050757Y-14875716D01*
X63045776Y-14878039D01*
X63045775Y-14878039D01*
X62848238Y-14970151D01*
X62848233Y-14970154D01*
X62843251Y-14972477D01*
X62747930Y-15039222D01*
X62660211Y-15100643D01*
X62660208Y-15100645D01*
X62655700Y-15103802D01*
X62493802Y-15265700D01*
X62362477Y-15453251D01*
X62360154Y-15458233D01*
X62360151Y-15458238D01*
X62344195Y-15492457D01*
X62297278Y-15545742D01*
X62229001Y-15565203D01*
X62161041Y-15544661D01*
X62115805Y-15492457D01*
X62099849Y-15458238D01*
X62099846Y-15458233D01*
X62097523Y-15453251D01*
X61966198Y-15265700D01*
X61804300Y-15103802D01*
X61799792Y-15100645D01*
X61799789Y-15100643D01*
X61712070Y-15039222D01*
X61616749Y-14972477D01*
X61611767Y-14970154D01*
X61611762Y-14970151D01*
X61414225Y-14878039D01*
X61414224Y-14878039D01*
X61409243Y-14875716D01*
X61403935Y-14874294D01*
X61403933Y-14874293D01*
X61193402Y-14817881D01*
X61193400Y-14817881D01*
X61188087Y-14816457D01*
X60960000Y-14796502D01*
X60731913Y-14816457D01*
X60726600Y-14817881D01*
X60726598Y-14817881D01*
X60516067Y-14874293D01*
X60516065Y-14874294D01*
X60510757Y-14875716D01*
X60505776Y-14878039D01*
X60505775Y-14878039D01*
X60308238Y-14970151D01*
X60308233Y-14970154D01*
X60303251Y-14972477D01*
X60207930Y-15039222D01*
X60120211Y-15100643D01*
X60120208Y-15100645D01*
X60115700Y-15103802D01*
X59953802Y-15265700D01*
X59822477Y-15453251D01*
X59820154Y-15458233D01*
X59820151Y-15458238D01*
X59804195Y-15492457D01*
X59757278Y-15545742D01*
X59689001Y-15565203D01*
X59621041Y-15544661D01*
X59575805Y-15492457D01*
X59559849Y-15458238D01*
X59559846Y-15458233D01*
X59557523Y-15453251D01*
X59426198Y-15265700D01*
X59264300Y-15103802D01*
X59259792Y-15100645D01*
X59259789Y-15100643D01*
X59172070Y-15039222D01*
X59076749Y-14972477D01*
X59071767Y-14970154D01*
X59071762Y-14970151D01*
X58874225Y-14878039D01*
X58874224Y-14878039D01*
X58869243Y-14875716D01*
X58863935Y-14874294D01*
X58863933Y-14874293D01*
X58653402Y-14817881D01*
X58653400Y-14817881D01*
X58648087Y-14816457D01*
X58420000Y-14796502D01*
X58191913Y-14816457D01*
X58186600Y-14817881D01*
X58186598Y-14817881D01*
X57976067Y-14874293D01*
X57976065Y-14874294D01*
X57970757Y-14875716D01*
X57965776Y-14878039D01*
X57965775Y-14878039D01*
X57768238Y-14970151D01*
X57768233Y-14970154D01*
X57763251Y-14972477D01*
X57667930Y-15039222D01*
X57580211Y-15100643D01*
X57580208Y-15100645D01*
X57575700Y-15103802D01*
X57413802Y-15265700D01*
X57282477Y-15453251D01*
X57280154Y-15458233D01*
X57280151Y-15458238D01*
X57203540Y-15622532D01*
X57185716Y-15660757D01*
X57184294Y-15666065D01*
X57184293Y-15666067D01*
X57139955Y-15831538D01*
X57126457Y-15881913D01*
X57111500Y-16052873D01*
X57111500Y-16967127D01*
X57126457Y-17138087D01*
X57127881Y-17143400D01*
X57127881Y-17143402D01*
X57173885Y-17315088D01*
X57185716Y-17359243D01*
X57188039Y-17364224D01*
X57188039Y-17364225D01*
X57280151Y-17561762D01*
X57280154Y-17561767D01*
X57282477Y-17566749D01*
X57329683Y-17634166D01*
X57404521Y-17741045D01*
X57413802Y-17754300D01*
X57575700Y-17916198D01*
X57580208Y-17919355D01*
X57580211Y-17919357D01*
X57658389Y-17974098D01*
X57763251Y-18047523D01*
X57768233Y-18049846D01*
X57768238Y-18049849D01*
X57938825Y-18129394D01*
X57970757Y-18144284D01*
X57976065Y-18145706D01*
X57976067Y-18145707D01*
X58186598Y-18202119D01*
X58186600Y-18202119D01*
X58191913Y-18203543D01*
X58420000Y-18223498D01*
X58648087Y-18203543D01*
X58653400Y-18202119D01*
X58653402Y-18202119D01*
X58863933Y-18145707D01*
X58863935Y-18145706D01*
X58869243Y-18144284D01*
X58901175Y-18129394D01*
X59071762Y-18049849D01*
X59071767Y-18049846D01*
X59076749Y-18047523D01*
X59181611Y-17974098D01*
X59259789Y-17919357D01*
X59259792Y-17919355D01*
X59264300Y-17916198D01*
X59426198Y-17754300D01*
X59435480Y-17741045D01*
X59510317Y-17634166D01*
X59557523Y-17566749D01*
X59559846Y-17561767D01*
X59559849Y-17561762D01*
X59575805Y-17527543D01*
X59622722Y-17474258D01*
X59690999Y-17454797D01*
X59758959Y-17475339D01*
X59804195Y-17527543D01*
X59820151Y-17561762D01*
X59820154Y-17561767D01*
X59822477Y-17566749D01*
X59869683Y-17634166D01*
X59944521Y-17741045D01*
X59953802Y-17754300D01*
X60115700Y-17916198D01*
X60120208Y-17919355D01*
X60120211Y-17919357D01*
X60272771Y-18026181D01*
X60317099Y-18081638D01*
X60326500Y-18129394D01*
X60326500Y-18601476D01*
X60306498Y-18669597D01*
X60294142Y-18685779D01*
X60220960Y-18767056D01*
X60125473Y-18932444D01*
X60066458Y-19114072D01*
X60065768Y-19120633D01*
X60065768Y-19120635D01*
X60047186Y-19297435D01*
X60046496Y-19304000D01*
X60047186Y-19310565D01*
X60064133Y-19471803D01*
X60066458Y-19493928D01*
X60125473Y-19675556D01*
X60128776Y-19681278D01*
X60128777Y-19681279D01*
X60154103Y-19725144D01*
X60220960Y-19840944D01*
X60225378Y-19845851D01*
X60225379Y-19845852D01*
X60229734Y-19850689D01*
X60348747Y-19982866D01*
X60447843Y-20054864D01*
X60492803Y-20087529D01*
X60503248Y-20095118D01*
X60509276Y-20097802D01*
X60509278Y-20097803D01*
X60669734Y-20169242D01*
X60677712Y-20172794D01*
X60771113Y-20192647D01*
X60858056Y-20211128D01*
X60858061Y-20211128D01*
X60864513Y-20212500D01*
X61055487Y-20212500D01*
X61061939Y-20211128D01*
X61061944Y-20211128D01*
X61148888Y-20192647D01*
X61242288Y-20172794D01*
X61250266Y-20169242D01*
X61410722Y-20097803D01*
X61410724Y-20097802D01*
X61416752Y-20095118D01*
X61427198Y-20087529D01*
X61472157Y-20054864D01*
X61571253Y-19982866D01*
X61690266Y-19850689D01*
X61694621Y-19845852D01*
X61694622Y-19845851D01*
X61699040Y-19840944D01*
X61765897Y-19725144D01*
X61791223Y-19681279D01*
X61791224Y-19681278D01*
X61794527Y-19675556D01*
X61853542Y-19493928D01*
X61855868Y-19471803D01*
X61872814Y-19310565D01*
X61873504Y-19304000D01*
X61872814Y-19297435D01*
X61854232Y-19120635D01*
X61854232Y-19120633D01*
X61853542Y-19114072D01*
X61794527Y-18932444D01*
X61699040Y-18767056D01*
X61625863Y-18685785D01*
X61595147Y-18621779D01*
X61593500Y-18601476D01*
X61593500Y-18129394D01*
X61613502Y-18061273D01*
X61647229Y-18026181D01*
X61799789Y-17919357D01*
X61799792Y-17919355D01*
X61804300Y-17916198D01*
X61966198Y-17754300D01*
X61975480Y-17741045D01*
X62050317Y-17634166D01*
X62097523Y-17566749D01*
X62099846Y-17561767D01*
X62099849Y-17561762D01*
X62115805Y-17527543D01*
X62162722Y-17474258D01*
X62230999Y-17454797D01*
X62298959Y-17475339D01*
X62344195Y-17527543D01*
X62360151Y-17561762D01*
X62360154Y-17561767D01*
X62362477Y-17566749D01*
X62409683Y-17634166D01*
X62484521Y-17741045D01*
X62493802Y-17754300D01*
X62655700Y-17916198D01*
X62660208Y-17919355D01*
X62660211Y-17919357D01*
X62812771Y-18026181D01*
X62857099Y-18081638D01*
X62866500Y-18129394D01*
X62866500Y-21529405D01*
X62846498Y-21597526D01*
X62829595Y-21618501D01*
X62258499Y-22189596D01*
X62196187Y-22223621D01*
X62169404Y-22226500D01*
X54048200Y-22226500D01*
X53980079Y-22206498D01*
X53960853Y-22190157D01*
X53960580Y-22190460D01*
X53955668Y-22186037D01*
X53951253Y-22181134D01*
X53810761Y-22079060D01*
X53802094Y-22072763D01*
X53802093Y-22072762D01*
X53796752Y-22068882D01*
X53790724Y-22066198D01*
X53790722Y-22066197D01*
X53628319Y-21993891D01*
X53628318Y-21993891D01*
X53622288Y-21991206D01*
X53507731Y-21966856D01*
X53441944Y-21952872D01*
X53441939Y-21952872D01*
X53435487Y-21951500D01*
X53244513Y-21951500D01*
X53238061Y-21952872D01*
X53238056Y-21952872D01*
X53172269Y-21966856D01*
X53057712Y-21991206D01*
X53051682Y-21993891D01*
X53051681Y-21993891D01*
X52889278Y-22066197D01*
X52889276Y-22066198D01*
X52883248Y-22068882D01*
X52877907Y-22072762D01*
X52877906Y-22072763D01*
X52869239Y-22079060D01*
X52728747Y-22181134D01*
X52724332Y-22186037D01*
X52719420Y-22190460D01*
X52718295Y-22189211D01*
X52664986Y-22222051D01*
X52631800Y-22226500D01*
X30829394Y-22226500D01*
X30761273Y-22206498D01*
X30726181Y-22172771D01*
X30619357Y-22020211D01*
X30619355Y-22020208D01*
X30616198Y-22015700D01*
X30454300Y-21853802D01*
X30449792Y-21850645D01*
X30449789Y-21850643D01*
X30341112Y-21774547D01*
X30266749Y-21722477D01*
X30261767Y-21720154D01*
X30261762Y-21720151D01*
X30227543Y-21704195D01*
X30174258Y-21657278D01*
X30154797Y-21589001D01*
X30175339Y-21521041D01*
X30227543Y-21475805D01*
X30261762Y-21459849D01*
X30261767Y-21459846D01*
X30266749Y-21457523D01*
X30371611Y-21384098D01*
X30449789Y-21329357D01*
X30449792Y-21329355D01*
X30454300Y-21326198D01*
X30616198Y-21164300D01*
X30644209Y-21124297D01*
X30674098Y-21081611D01*
X30747523Y-20976749D01*
X30749846Y-20971767D01*
X30749849Y-20971762D01*
X30841961Y-20774225D01*
X30841961Y-20774224D01*
X30844284Y-20769243D01*
X30846060Y-20762617D01*
X30902119Y-20553402D01*
X30902119Y-20553400D01*
X30903543Y-20548087D01*
X30923498Y-20320000D01*
X30903543Y-20091913D01*
X30851419Y-19897384D01*
X30845707Y-19876067D01*
X30845706Y-19876065D01*
X30844284Y-19870757D01*
X30838797Y-19858990D01*
X30749849Y-19668238D01*
X30749846Y-19668233D01*
X30747523Y-19663251D01*
X30659597Y-19537680D01*
X30619357Y-19480211D01*
X30619355Y-19480208D01*
X30616198Y-19475700D01*
X30454300Y-19313802D01*
X30449792Y-19310645D01*
X30449789Y-19310643D01*
X30304346Y-19208803D01*
X30266749Y-19182477D01*
X30261767Y-19180154D01*
X30261762Y-19180151D01*
X30064225Y-19088039D01*
X30064224Y-19088039D01*
X30059243Y-19085716D01*
X30053935Y-19084294D01*
X30053933Y-19084293D01*
X29843402Y-19027881D01*
X29843400Y-19027881D01*
X29838087Y-19026457D01*
X29738520Y-19017746D01*
X29669851Y-19011738D01*
X29669844Y-19011738D01*
X29667127Y-19011500D01*
X28752873Y-19011500D01*
X28750156Y-19011738D01*
X28750149Y-19011738D01*
X28681480Y-19017746D01*
X28581913Y-19026457D01*
X28576600Y-19027881D01*
X28576598Y-19027881D01*
X28366067Y-19084293D01*
X28366065Y-19084294D01*
X28360757Y-19085716D01*
X28355776Y-19088039D01*
X28355775Y-19088039D01*
X28158238Y-19180151D01*
X28158233Y-19180154D01*
X28153251Y-19182477D01*
X28115654Y-19208803D01*
X27970211Y-19310643D01*
X27970208Y-19310645D01*
X27965700Y-19313802D01*
X27803802Y-19475700D01*
X27800645Y-19480208D01*
X27800643Y-19480211D01*
X27760403Y-19537680D01*
X27672477Y-19663251D01*
X27670154Y-19668233D01*
X27670151Y-19668238D01*
X27581203Y-19858990D01*
X27575716Y-19870757D01*
X27574294Y-19876065D01*
X27574293Y-19876067D01*
X27568581Y-19897384D01*
X27516457Y-20091913D01*
X27496502Y-20320000D01*
X27516457Y-20548087D01*
X27517881Y-20553400D01*
X27517881Y-20553402D01*
X27573941Y-20762617D01*
X27575716Y-20769243D01*
X27578039Y-20774224D01*
X27578039Y-20774225D01*
X27670151Y-20971762D01*
X27670154Y-20971767D01*
X27672477Y-20976749D01*
X27745902Y-21081611D01*
X27775792Y-21124297D01*
X27803802Y-21164300D01*
X27965700Y-21326198D01*
X27970208Y-21329355D01*
X27970211Y-21329357D01*
X28048389Y-21384098D01*
X28153251Y-21457523D01*
X28158233Y-21459846D01*
X28158238Y-21459849D01*
X28192457Y-21475805D01*
X28245742Y-21522722D01*
X28265203Y-21590999D01*
X28244661Y-21658959D01*
X28192457Y-21704195D01*
X28158238Y-21720151D01*
X28158233Y-21720154D01*
X28153251Y-21722477D01*
X28078888Y-21774547D01*
X27970211Y-21850643D01*
X27970208Y-21850645D01*
X27965700Y-21853802D01*
X27803802Y-22015700D01*
X27800645Y-22020208D01*
X27800643Y-22020211D01*
X27763846Y-22072763D01*
X27672477Y-22203251D01*
X27670154Y-22208233D01*
X27670151Y-22208238D01*
X27581203Y-22398990D01*
X27575716Y-22410757D01*
X27574294Y-22416065D01*
X27574293Y-22416067D01*
X27568581Y-22437384D01*
X27516457Y-22631913D01*
X27496502Y-22860000D01*
X27516457Y-23088087D01*
X27517881Y-23093400D01*
X27517881Y-23093402D01*
X27573941Y-23302617D01*
X27575716Y-23309243D01*
X27578039Y-23314224D01*
X27578039Y-23314225D01*
X27670151Y-23511762D01*
X27670154Y-23511767D01*
X27672477Y-23516749D01*
X27745902Y-23621611D01*
X27775792Y-23664297D01*
X27803802Y-23704300D01*
X27965700Y-23866198D01*
X27970208Y-23869355D01*
X27970211Y-23869357D01*
X28048389Y-23924098D01*
X28153251Y-23997523D01*
X28158233Y-23999846D01*
X28158238Y-23999849D01*
X28192457Y-24015805D01*
X28245742Y-24062722D01*
X28265203Y-24130999D01*
X28244661Y-24198959D01*
X28192457Y-24244195D01*
X28158238Y-24260151D01*
X28158233Y-24260154D01*
X28153251Y-24262477D01*
X28078888Y-24314547D01*
X27970211Y-24390643D01*
X27970208Y-24390645D01*
X27965700Y-24393802D01*
X27803802Y-24555700D01*
X27800645Y-24560208D01*
X27800643Y-24560211D01*
X27763846Y-24612763D01*
X27672477Y-24743251D01*
X27670154Y-24748233D01*
X27670151Y-24748238D01*
X27581203Y-24938990D01*
X27575716Y-24950757D01*
X27574294Y-24956065D01*
X27574293Y-24956067D01*
X27560031Y-25009292D01*
X27516457Y-25171913D01*
X27496502Y-25400000D01*
X27516457Y-25628087D01*
X27517881Y-25633400D01*
X27517881Y-25633402D01*
X27573941Y-25842617D01*
X27575716Y-25849243D01*
X27578039Y-25854224D01*
X27578039Y-25854225D01*
X27670151Y-26051762D01*
X27670154Y-26051767D01*
X27672477Y-26056749D01*
X27743130Y-26157652D01*
X27775792Y-26204297D01*
X27803802Y-26244300D01*
X27965700Y-26406198D01*
X27970208Y-26409355D01*
X27970211Y-26409357D01*
X27997072Y-26428165D01*
X28153251Y-26537523D01*
X28158233Y-26539846D01*
X28158238Y-26539849D01*
X28192457Y-26555805D01*
X28245742Y-26602722D01*
X28265203Y-26670999D01*
X28244661Y-26738959D01*
X28192457Y-26784195D01*
X28158238Y-26800151D01*
X28158233Y-26800154D01*
X28153251Y-26802477D01*
X28075520Y-26856905D01*
X27970211Y-26930643D01*
X27970208Y-26930645D01*
X27965700Y-26933802D01*
X27803802Y-27095700D01*
X27800645Y-27100208D01*
X27800643Y-27100211D01*
X27763846Y-27152763D01*
X27672477Y-27283251D01*
X27670154Y-27288233D01*
X27670151Y-27288238D01*
X27581203Y-27478990D01*
X27575716Y-27490757D01*
X27574294Y-27496065D01*
X27574293Y-27496067D01*
X27568581Y-27517384D01*
X27516457Y-27711913D01*
X27496502Y-27940000D01*
X27516457Y-28168087D01*
X27517881Y-28173400D01*
X27517881Y-28173402D01*
X27573941Y-28382617D01*
X27575716Y-28389243D01*
X27578039Y-28394224D01*
X27578039Y-28394225D01*
X27670151Y-28591762D01*
X27670154Y-28591767D01*
X27672477Y-28596749D01*
X27707774Y-28647158D01*
X27775792Y-28744297D01*
X27803802Y-28784300D01*
X27965700Y-28946198D01*
X27970208Y-28949355D01*
X27970211Y-28949357D01*
X28014984Y-28980707D01*
X28153251Y-29077523D01*
X28158233Y-29079846D01*
X28158238Y-29079849D01*
X28192457Y-29095805D01*
X28245742Y-29142722D01*
X28265203Y-29210999D01*
X28244661Y-29278959D01*
X28192457Y-29324195D01*
X28158238Y-29340151D01*
X28158233Y-29340154D01*
X28153251Y-29342477D01*
X28078888Y-29394547D01*
X27970211Y-29470643D01*
X27970208Y-29470645D01*
X27965700Y-29473802D01*
X27803802Y-29635700D01*
X27672477Y-29823251D01*
X27670154Y-29828233D01*
X27670151Y-29828238D01*
X27581203Y-30018990D01*
X27575716Y-30030757D01*
X27574294Y-30036065D01*
X27574293Y-30036067D01*
X27552016Y-30119206D01*
X27516457Y-30251913D01*
X27496502Y-30480000D01*
X27516457Y-30708087D01*
X27517881Y-30713400D01*
X27517881Y-30713402D01*
X27566919Y-30896411D01*
X27575716Y-30929243D01*
X27578039Y-30934224D01*
X27578039Y-30934225D01*
X27670151Y-31131762D01*
X27670154Y-31131767D01*
X27672477Y-31136749D01*
X27707774Y-31187158D01*
X27794281Y-31310702D01*
X27803802Y-31324300D01*
X27965700Y-31486198D01*
X27970208Y-31489355D01*
X27970211Y-31489357D01*
X28017327Y-31522348D01*
X28153251Y-31617523D01*
X28158233Y-31619846D01*
X28158238Y-31619849D01*
X28192457Y-31635805D01*
X28245742Y-31682722D01*
X28265203Y-31750999D01*
X28244661Y-31818959D01*
X28192457Y-31864195D01*
X28158238Y-31880151D01*
X28158233Y-31880154D01*
X28153251Y-31882477D01*
X28078888Y-31934547D01*
X27970211Y-32010643D01*
X27970208Y-32010645D01*
X27965700Y-32013802D01*
X27803802Y-32175700D01*
X27800645Y-32180208D01*
X27800643Y-32180211D01*
X27786641Y-32200208D01*
X27672477Y-32363251D01*
X27670154Y-32368233D01*
X27670151Y-32368238D01*
X27581203Y-32558990D01*
X27575716Y-32570757D01*
X27574294Y-32576065D01*
X27574293Y-32576067D01*
X27568581Y-32597384D01*
X27516457Y-32791913D01*
X27496502Y-33020000D01*
X27516457Y-33248087D01*
X27517881Y-33253400D01*
X27517881Y-33253402D01*
X27570934Y-33451395D01*
X27575716Y-33469243D01*
X27578039Y-33474224D01*
X27578039Y-33474225D01*
X27670151Y-33671762D01*
X27670154Y-33671767D01*
X27672477Y-33676749D01*
X27707774Y-33727158D01*
X27794281Y-33850702D01*
X27803802Y-33864300D01*
X27965700Y-34026198D01*
X27970208Y-34029355D01*
X27970211Y-34029357D01*
X28017327Y-34062348D01*
X28153251Y-34157523D01*
X28158233Y-34159846D01*
X28158238Y-34159849D01*
X28192457Y-34175805D01*
X28245742Y-34222722D01*
X28265203Y-34290999D01*
X28244661Y-34358959D01*
X28192457Y-34404195D01*
X28158238Y-34420151D01*
X28158233Y-34420154D01*
X28153251Y-34422477D01*
X28078888Y-34474547D01*
X27970211Y-34550643D01*
X27970208Y-34550645D01*
X27965700Y-34553802D01*
X27803802Y-34715700D01*
X27672477Y-34903251D01*
X27670154Y-34908233D01*
X27670151Y-34908238D01*
X27581203Y-35098990D01*
X27575716Y-35110757D01*
X27574294Y-35116065D01*
X27574293Y-35116067D01*
X27568581Y-35137384D01*
X27516457Y-35331913D01*
X27496502Y-35560000D01*
X27516457Y-35788087D01*
X27517881Y-35793400D01*
X27517881Y-35793402D01*
X27570934Y-35991395D01*
X27575716Y-36009243D01*
X27578039Y-36014224D01*
X27578039Y-36014225D01*
X27670151Y-36211762D01*
X27670154Y-36211767D01*
X27672477Y-36216749D01*
X27707774Y-36267158D01*
X27794281Y-36390702D01*
X27803802Y-36404300D01*
X27965700Y-36566198D01*
X27970208Y-36569355D01*
X27970211Y-36569357D01*
X28005628Y-36594156D01*
X28153251Y-36697523D01*
X28158233Y-36699846D01*
X28158238Y-36699849D01*
X28192457Y-36715805D01*
X28245742Y-36762722D01*
X28265203Y-36830999D01*
X28244661Y-36898959D01*
X28192457Y-36944195D01*
X28158238Y-36960151D01*
X28158233Y-36960154D01*
X28153251Y-36962477D01*
X28078888Y-37014547D01*
X27970211Y-37090643D01*
X27970208Y-37090645D01*
X27965700Y-37093802D01*
X27803802Y-37255700D01*
X27672477Y-37443251D01*
X27670154Y-37448233D01*
X27670151Y-37448238D01*
X27581203Y-37638990D01*
X27575716Y-37650757D01*
X27574294Y-37656065D01*
X27574293Y-37656067D01*
X27522941Y-37847715D01*
X27516457Y-37871913D01*
X27496502Y-38100000D01*
X27516457Y-38328087D01*
X27517881Y-38333400D01*
X27517881Y-38333402D01*
X27570934Y-38531395D01*
X27575716Y-38549243D01*
X27578039Y-38554224D01*
X27578039Y-38554225D01*
X27670151Y-38751762D01*
X27670154Y-38751767D01*
X27672477Y-38756749D01*
X27707774Y-38807158D01*
X27794281Y-38930702D01*
X27803802Y-38944300D01*
X27965700Y-39106198D01*
X27970208Y-39109355D01*
X27970211Y-39109357D01*
X28017327Y-39142348D01*
X28153251Y-39237523D01*
X28158233Y-39239846D01*
X28158238Y-39239849D01*
X28192457Y-39255805D01*
X28245742Y-39302722D01*
X28265203Y-39370999D01*
X28244661Y-39438959D01*
X28192457Y-39484195D01*
X28158238Y-39500151D01*
X28158233Y-39500154D01*
X28153251Y-39502477D01*
X28078888Y-39554547D01*
X27970211Y-39630643D01*
X27970208Y-39630645D01*
X27965700Y-39633802D01*
X27803802Y-39795700D01*
X27672477Y-39983251D01*
X27670154Y-39988233D01*
X27670151Y-39988238D01*
X27581203Y-40178990D01*
X27575716Y-40190757D01*
X27516457Y-40411913D01*
X27496502Y-40640000D01*
X27516457Y-40868087D01*
X27517881Y-40873400D01*
X27517881Y-40873402D01*
X27570934Y-41071395D01*
X27575716Y-41089243D01*
X27578039Y-41094224D01*
X27578039Y-41094225D01*
X27670151Y-41291762D01*
X27670154Y-41291767D01*
X27672477Y-41296749D01*
X27730494Y-41379606D01*
X27794281Y-41470702D01*
X27803802Y-41484300D01*
X27965700Y-41646198D01*
X27970208Y-41649355D01*
X27970211Y-41649357D01*
X28016706Y-41681913D01*
X28153251Y-41777523D01*
X28158233Y-41779846D01*
X28158238Y-41779849D01*
X28355775Y-41871961D01*
X28360757Y-41874284D01*
X28366065Y-41875706D01*
X28366067Y-41875707D01*
X28576598Y-41932119D01*
X28576600Y-41932119D01*
X28581913Y-41933543D01*
X28681480Y-41942254D01*
X28750149Y-41948262D01*
X28750156Y-41948262D01*
X28752873Y-41948500D01*
X29667127Y-41948500D01*
X29669844Y-41948262D01*
X29669851Y-41948262D01*
X29738520Y-41942254D01*
X29838087Y-41933543D01*
X29843400Y-41932119D01*
X29843402Y-41932119D01*
X30053933Y-41875707D01*
X30053935Y-41875706D01*
X30059243Y-41874284D01*
X30064225Y-41871961D01*
X30261762Y-41779849D01*
X30261767Y-41779846D01*
X30266749Y-41777523D01*
X30403294Y-41681913D01*
X30449789Y-41649357D01*
X30449792Y-41649355D01*
X30454300Y-41646198D01*
X30616198Y-41484300D01*
X30622206Y-41475720D01*
X30726181Y-41327229D01*
X30781638Y-41282901D01*
X30829394Y-41273500D01*
X39545233Y-41273500D01*
X39556416Y-41274027D01*
X39563909Y-41275702D01*
X39571835Y-41275453D01*
X39571836Y-41275453D01*
X39631986Y-41273562D01*
X39635945Y-41273500D01*
X39663856Y-41273500D01*
X39667791Y-41273003D01*
X39667856Y-41272995D01*
X39679693Y-41272062D01*
X39711951Y-41271048D01*
X39715970Y-41270922D01*
X39723889Y-41270673D01*
X39743343Y-41265021D01*
X39762700Y-41261013D01*
X39774930Y-41259468D01*
X39774931Y-41259468D01*
X39782797Y-41258474D01*
X39790168Y-41255555D01*
X39790170Y-41255555D01*
X39823912Y-41242196D01*
X39835142Y-41238351D01*
X39869983Y-41228229D01*
X39869984Y-41228229D01*
X39877593Y-41226018D01*
X39884412Y-41221985D01*
X39884417Y-41221983D01*
X39895028Y-41215707D01*
X39912776Y-41207012D01*
X39931617Y-41199552D01*
X39967387Y-41173564D01*
X39977307Y-41167048D01*
X40008535Y-41148580D01*
X40008538Y-41148578D01*
X40015362Y-41144542D01*
X40029683Y-41130221D01*
X40044717Y-41117380D01*
X40054694Y-41110131D01*
X40061107Y-41105472D01*
X40089298Y-41071395D01*
X40097288Y-41062616D01*
X43381770Y-37778134D01*
X49391500Y-37778134D01*
X49398255Y-37840316D01*
X49449385Y-37976705D01*
X49536739Y-38093261D01*
X49653295Y-38180615D01*
X49789684Y-38231745D01*
X49851866Y-38238500D01*
X50040500Y-38238500D01*
X50108621Y-38258502D01*
X50155114Y-38312158D01*
X50166500Y-38364500D01*
X50166500Y-40690606D01*
X50146498Y-40758727D01*
X50112771Y-40793819D01*
X49960211Y-40900643D01*
X49960208Y-40900645D01*
X49955700Y-40903802D01*
X49793802Y-41065700D01*
X49790645Y-41070208D01*
X49790643Y-41070211D01*
X49770229Y-41099366D01*
X49662477Y-41253251D01*
X49660154Y-41258233D01*
X49660151Y-41258238D01*
X49603557Y-41379606D01*
X49565716Y-41460757D01*
X49564294Y-41466065D01*
X49564293Y-41466067D01*
X49512407Y-41659707D01*
X49506457Y-41681913D01*
X49486502Y-41910000D01*
X49506457Y-42138087D01*
X49507881Y-42143400D01*
X49507881Y-42143402D01*
X49555851Y-42322425D01*
X49565716Y-42359243D01*
X49568039Y-42364224D01*
X49568039Y-42364225D01*
X49660151Y-42561762D01*
X49660154Y-42561767D01*
X49662477Y-42566749D01*
X49665634Y-42571257D01*
X49769078Y-42718990D01*
X49793802Y-42754300D01*
X49955700Y-42916198D01*
X49960208Y-42919355D01*
X49960211Y-42919357D01*
X50038389Y-42974098D01*
X50143251Y-43047523D01*
X50148233Y-43049846D01*
X50148238Y-43049849D01*
X50301068Y-43121114D01*
X50350757Y-43144284D01*
X50356065Y-43145706D01*
X50356067Y-43145707D01*
X50566598Y-43202119D01*
X50566600Y-43202119D01*
X50571913Y-43203543D01*
X50800000Y-43223498D01*
X51028087Y-43203543D01*
X51033400Y-43202119D01*
X51033402Y-43202119D01*
X51243933Y-43145707D01*
X51243935Y-43145706D01*
X51249243Y-43144284D01*
X51298932Y-43121114D01*
X51451762Y-43049849D01*
X51451767Y-43049846D01*
X51456749Y-43047523D01*
X51561611Y-42974098D01*
X51639789Y-42919357D01*
X51639792Y-42919355D01*
X51644300Y-42916198D01*
X51806198Y-42754300D01*
X51830923Y-42718990D01*
X51934366Y-42571257D01*
X51937523Y-42566749D01*
X51939846Y-42561767D01*
X51939849Y-42561762D01*
X52031961Y-42364225D01*
X52031961Y-42364224D01*
X52034284Y-42359243D01*
X52044150Y-42322425D01*
X52092119Y-42143402D01*
X52092119Y-42143400D01*
X52093543Y-42138087D01*
X52113498Y-41910000D01*
X52093543Y-41681913D01*
X52087593Y-41659707D01*
X52035707Y-41466067D01*
X52035706Y-41466065D01*
X52034284Y-41460757D01*
X51996443Y-41379606D01*
X51939849Y-41258238D01*
X51939846Y-41258233D01*
X51937523Y-41253251D01*
X51829771Y-41099366D01*
X51809357Y-41070211D01*
X51809355Y-41070208D01*
X51806198Y-41065700D01*
X51644300Y-40903802D01*
X51639792Y-40900645D01*
X51639789Y-40900643D01*
X51487229Y-40793819D01*
X51442901Y-40738362D01*
X51433500Y-40690606D01*
X51433500Y-38364500D01*
X51453502Y-38296379D01*
X51507158Y-38249886D01*
X51559500Y-38238500D01*
X51748134Y-38238500D01*
X51810316Y-38231745D01*
X51946705Y-38180615D01*
X52063261Y-38093261D01*
X52150615Y-37976705D01*
X52175180Y-37911178D01*
X52217822Y-37854414D01*
X52284383Y-37829714D01*
X52353732Y-37844921D01*
X52373647Y-37858464D01*
X52438724Y-37912492D01*
X52529349Y-37987730D01*
X52729322Y-38104584D01*
X52945694Y-38187209D01*
X52950760Y-38188240D01*
X52950761Y-38188240D01*
X53003846Y-38199040D01*
X53172656Y-38233385D01*
X53302089Y-38238131D01*
X53398949Y-38241683D01*
X53398953Y-38241683D01*
X53404113Y-38241872D01*
X53409233Y-38241216D01*
X53409235Y-38241216D01*
X53483166Y-38231745D01*
X53633847Y-38212442D01*
X53638795Y-38210957D01*
X53638802Y-38210956D01*
X53850747Y-38147369D01*
X53855690Y-38145886D01*
X53860324Y-38143616D01*
X54059049Y-38046262D01*
X54059052Y-38046260D01*
X54063684Y-38043991D01*
X54252243Y-37909494D01*
X54384062Y-37778134D01*
X57011500Y-37778134D01*
X57018255Y-37840316D01*
X57069385Y-37976705D01*
X57156739Y-38093261D01*
X57273295Y-38180615D01*
X57409684Y-38231745D01*
X57471866Y-38238500D01*
X57660500Y-38238500D01*
X57728621Y-38258502D01*
X57775114Y-38312158D01*
X57786500Y-38364500D01*
X57786500Y-40690606D01*
X57766498Y-40758727D01*
X57732771Y-40793819D01*
X57580211Y-40900643D01*
X57580208Y-40900645D01*
X57575700Y-40903802D01*
X57413802Y-41065700D01*
X57410645Y-41070208D01*
X57410643Y-41070211D01*
X57390229Y-41099366D01*
X57282477Y-41253251D01*
X57280154Y-41258233D01*
X57280151Y-41258238D01*
X57223557Y-41379606D01*
X57185716Y-41460757D01*
X57184294Y-41466065D01*
X57184293Y-41466067D01*
X57132407Y-41659707D01*
X57126457Y-41681913D01*
X57106502Y-41910000D01*
X57126457Y-42138087D01*
X57127881Y-42143400D01*
X57127881Y-42143402D01*
X57175851Y-42322425D01*
X57185716Y-42359243D01*
X57188039Y-42364224D01*
X57188039Y-42364225D01*
X57280151Y-42561762D01*
X57280154Y-42561767D01*
X57282477Y-42566749D01*
X57285634Y-42571257D01*
X57389078Y-42718990D01*
X57413802Y-42754300D01*
X57575700Y-42916198D01*
X57580208Y-42919355D01*
X57580211Y-42919357D01*
X57658389Y-42974098D01*
X57763251Y-43047523D01*
X57768233Y-43049846D01*
X57768238Y-43049849D01*
X57921068Y-43121114D01*
X57970757Y-43144284D01*
X57976065Y-43145706D01*
X57976067Y-43145707D01*
X58186598Y-43202119D01*
X58186600Y-43202119D01*
X58191913Y-43203543D01*
X58420000Y-43223498D01*
X58648087Y-43203543D01*
X58653400Y-43202119D01*
X58653402Y-43202119D01*
X58863933Y-43145707D01*
X58863935Y-43145706D01*
X58869243Y-43144284D01*
X58918932Y-43121114D01*
X59071762Y-43049849D01*
X59071767Y-43049846D01*
X59076749Y-43047523D01*
X59181611Y-42974098D01*
X59259789Y-42919357D01*
X59259792Y-42919355D01*
X59264300Y-42916198D01*
X59426198Y-42754300D01*
X59450923Y-42718990D01*
X59554366Y-42571257D01*
X59557523Y-42566749D01*
X59559846Y-42561767D01*
X59559849Y-42561762D01*
X59651961Y-42364225D01*
X59651961Y-42364224D01*
X59654284Y-42359243D01*
X59664150Y-42322425D01*
X59712119Y-42143402D01*
X59712119Y-42143400D01*
X59713543Y-42138087D01*
X59733498Y-41910000D01*
X59713543Y-41681913D01*
X59707593Y-41659707D01*
X59655707Y-41466067D01*
X59655706Y-41466065D01*
X59654284Y-41460757D01*
X59616443Y-41379606D01*
X59559849Y-41258238D01*
X59559846Y-41258233D01*
X59557523Y-41253251D01*
X59449771Y-41099366D01*
X59429357Y-41070211D01*
X59429355Y-41070208D01*
X59426198Y-41065700D01*
X59264300Y-40903802D01*
X59259792Y-40900645D01*
X59259789Y-40900643D01*
X59107229Y-40793819D01*
X59062901Y-40738362D01*
X59053500Y-40690606D01*
X59053500Y-38364500D01*
X59073502Y-38296379D01*
X59127158Y-38249886D01*
X59179500Y-38238500D01*
X59368134Y-38238500D01*
X59430316Y-38231745D01*
X59566705Y-38180615D01*
X59683261Y-38093261D01*
X59770615Y-37976705D01*
X59795180Y-37911178D01*
X59837822Y-37854414D01*
X59904383Y-37829714D01*
X59973732Y-37844921D01*
X59993647Y-37858464D01*
X60058724Y-37912492D01*
X60149349Y-37987730D01*
X60349322Y-38104584D01*
X60565694Y-38187209D01*
X60570760Y-38188240D01*
X60570761Y-38188240D01*
X60623846Y-38199040D01*
X60792656Y-38233385D01*
X60922089Y-38238131D01*
X61018949Y-38241683D01*
X61018953Y-38241683D01*
X61024113Y-38241872D01*
X61029233Y-38241216D01*
X61029235Y-38241216D01*
X61103166Y-38231745D01*
X61253847Y-38212442D01*
X61258795Y-38210957D01*
X61258802Y-38210956D01*
X61470747Y-38147369D01*
X61475690Y-38145886D01*
X61480324Y-38143616D01*
X61679049Y-38046262D01*
X61679052Y-38046260D01*
X61683684Y-38043991D01*
X61872243Y-37909494D01*
X62004062Y-37778134D01*
X64631500Y-37778134D01*
X64638255Y-37840316D01*
X64689385Y-37976705D01*
X64776739Y-38093261D01*
X64893295Y-38180615D01*
X65029684Y-38231745D01*
X65091866Y-38238500D01*
X65280500Y-38238500D01*
X65348621Y-38258502D01*
X65395114Y-38312158D01*
X65406500Y-38364500D01*
X65406500Y-40690606D01*
X65386498Y-40758727D01*
X65352771Y-40793819D01*
X65200211Y-40900643D01*
X65200208Y-40900645D01*
X65195700Y-40903802D01*
X65033802Y-41065700D01*
X65030645Y-41070208D01*
X65030643Y-41070211D01*
X65010229Y-41099366D01*
X64902477Y-41253251D01*
X64900154Y-41258233D01*
X64900151Y-41258238D01*
X64843557Y-41379606D01*
X64805716Y-41460757D01*
X64804294Y-41466065D01*
X64804293Y-41466067D01*
X64752407Y-41659707D01*
X64746457Y-41681913D01*
X64726502Y-41910000D01*
X64746457Y-42138087D01*
X64747881Y-42143400D01*
X64747881Y-42143402D01*
X64795851Y-42322425D01*
X64805716Y-42359243D01*
X64808039Y-42364224D01*
X64808039Y-42364225D01*
X64900151Y-42561762D01*
X64900154Y-42561767D01*
X64902477Y-42566749D01*
X64905634Y-42571257D01*
X65009078Y-42718990D01*
X65033802Y-42754300D01*
X65195700Y-42916198D01*
X65200208Y-42919355D01*
X65200211Y-42919357D01*
X65278389Y-42974098D01*
X65383251Y-43047523D01*
X65388233Y-43049846D01*
X65388238Y-43049849D01*
X65541068Y-43121114D01*
X65590757Y-43144284D01*
X65596065Y-43145706D01*
X65596067Y-43145707D01*
X65806598Y-43202119D01*
X65806600Y-43202119D01*
X65811913Y-43203543D01*
X66040000Y-43223498D01*
X66268087Y-43203543D01*
X66273400Y-43202119D01*
X66273402Y-43202119D01*
X66483933Y-43145707D01*
X66483935Y-43145706D01*
X66489243Y-43144284D01*
X66538932Y-43121114D01*
X66691762Y-43049849D01*
X66691767Y-43049846D01*
X66696749Y-43047523D01*
X66801611Y-42974098D01*
X66879789Y-42919357D01*
X66879792Y-42919355D01*
X66884300Y-42916198D01*
X67046198Y-42754300D01*
X67070923Y-42718990D01*
X67174366Y-42571257D01*
X67177523Y-42566749D01*
X67179846Y-42561767D01*
X67179849Y-42561762D01*
X67271961Y-42364225D01*
X67271961Y-42364224D01*
X67274284Y-42359243D01*
X67284150Y-42322425D01*
X67332119Y-42143402D01*
X67332119Y-42143400D01*
X67333543Y-42138087D01*
X67353498Y-41910000D01*
X67333543Y-41681913D01*
X67327593Y-41659707D01*
X67275707Y-41466067D01*
X67275706Y-41466065D01*
X67274284Y-41460757D01*
X67236443Y-41379606D01*
X67179849Y-41258238D01*
X67179846Y-41258233D01*
X67177523Y-41253251D01*
X67069771Y-41099366D01*
X67049357Y-41070211D01*
X67049355Y-41070208D01*
X67046198Y-41065700D01*
X66884300Y-40903802D01*
X66879792Y-40900645D01*
X66879789Y-40900643D01*
X66727229Y-40793819D01*
X66682901Y-40738362D01*
X66673500Y-40690606D01*
X66673500Y-38364500D01*
X66693502Y-38296379D01*
X66747158Y-38249886D01*
X66799500Y-38238500D01*
X66988134Y-38238500D01*
X67050316Y-38231745D01*
X67186705Y-38180615D01*
X67303261Y-38093261D01*
X67390615Y-37976705D01*
X67415180Y-37911178D01*
X67457822Y-37854414D01*
X67524383Y-37829714D01*
X67593732Y-37844921D01*
X67613647Y-37858464D01*
X67678724Y-37912492D01*
X67769349Y-37987730D01*
X67969322Y-38104584D01*
X68185694Y-38187209D01*
X68190760Y-38188240D01*
X68190761Y-38188240D01*
X68243846Y-38199040D01*
X68412656Y-38233385D01*
X68542089Y-38238131D01*
X68638949Y-38241683D01*
X68638953Y-38241683D01*
X68644113Y-38241872D01*
X68649233Y-38241216D01*
X68649235Y-38241216D01*
X68723166Y-38231745D01*
X68873847Y-38212442D01*
X68878795Y-38210957D01*
X68878802Y-38210956D01*
X69090747Y-38147369D01*
X69095690Y-38145886D01*
X69100324Y-38143616D01*
X69299049Y-38046262D01*
X69299052Y-38046260D01*
X69303684Y-38043991D01*
X69492243Y-37909494D01*
X69624062Y-37778134D01*
X72251500Y-37778134D01*
X72258255Y-37840316D01*
X72309385Y-37976705D01*
X72396739Y-38093261D01*
X72513295Y-38180615D01*
X72649684Y-38231745D01*
X72711866Y-38238500D01*
X72900500Y-38238500D01*
X72968621Y-38258502D01*
X73015114Y-38312158D01*
X73026500Y-38364500D01*
X73026500Y-40690606D01*
X73006498Y-40758727D01*
X72972771Y-40793819D01*
X72820211Y-40900643D01*
X72820208Y-40900645D01*
X72815700Y-40903802D01*
X72653802Y-41065700D01*
X72650645Y-41070208D01*
X72650643Y-41070211D01*
X72630229Y-41099366D01*
X72522477Y-41253251D01*
X72520154Y-41258233D01*
X72520151Y-41258238D01*
X72463557Y-41379606D01*
X72425716Y-41460757D01*
X72424294Y-41466065D01*
X72424293Y-41466067D01*
X72372407Y-41659707D01*
X72366457Y-41681913D01*
X72346502Y-41910000D01*
X72366457Y-42138087D01*
X72367881Y-42143400D01*
X72367881Y-42143402D01*
X72415851Y-42322425D01*
X72425716Y-42359243D01*
X72428039Y-42364224D01*
X72428039Y-42364225D01*
X72520151Y-42561762D01*
X72520154Y-42561767D01*
X72522477Y-42566749D01*
X72525634Y-42571257D01*
X72629078Y-42718990D01*
X72653802Y-42754300D01*
X72815700Y-42916198D01*
X72820208Y-42919355D01*
X72820211Y-42919357D01*
X72898389Y-42974098D01*
X73003251Y-43047523D01*
X73008233Y-43049846D01*
X73008238Y-43049849D01*
X73161068Y-43121114D01*
X73210757Y-43144284D01*
X73216065Y-43145706D01*
X73216067Y-43145707D01*
X73426598Y-43202119D01*
X73426600Y-43202119D01*
X73431913Y-43203543D01*
X73660000Y-43223498D01*
X73888087Y-43203543D01*
X73893400Y-43202119D01*
X73893402Y-43202119D01*
X74103933Y-43145707D01*
X74103935Y-43145706D01*
X74109243Y-43144284D01*
X74158932Y-43121114D01*
X74311762Y-43049849D01*
X74311767Y-43049846D01*
X74316749Y-43047523D01*
X74421611Y-42974098D01*
X74499789Y-42919357D01*
X74499792Y-42919355D01*
X74504300Y-42916198D01*
X74666198Y-42754300D01*
X74690923Y-42718990D01*
X74794366Y-42571257D01*
X74797523Y-42566749D01*
X74799846Y-42561767D01*
X74799849Y-42561762D01*
X74891961Y-42364225D01*
X74891961Y-42364224D01*
X74894284Y-42359243D01*
X74904150Y-42322425D01*
X74952119Y-42143402D01*
X74952119Y-42143400D01*
X74953543Y-42138087D01*
X74973498Y-41910000D01*
X74953543Y-41681913D01*
X74947593Y-41659707D01*
X74895707Y-41466067D01*
X74895706Y-41466065D01*
X74894284Y-41460757D01*
X74856443Y-41379606D01*
X74799849Y-41258238D01*
X74799846Y-41258233D01*
X74797523Y-41253251D01*
X74689771Y-41099366D01*
X74669357Y-41070211D01*
X74669355Y-41070208D01*
X74666198Y-41065700D01*
X74504300Y-40903802D01*
X74499792Y-40900645D01*
X74499789Y-40900643D01*
X74347229Y-40793819D01*
X74302901Y-40738362D01*
X74293500Y-40690606D01*
X74293500Y-38364500D01*
X74313502Y-38296379D01*
X74367158Y-38249886D01*
X74419500Y-38238500D01*
X74608134Y-38238500D01*
X74670316Y-38231745D01*
X74806705Y-38180615D01*
X74923261Y-38093261D01*
X75010615Y-37976705D01*
X75035180Y-37911178D01*
X75077822Y-37854414D01*
X75144383Y-37829714D01*
X75213732Y-37844921D01*
X75233647Y-37858464D01*
X75298724Y-37912492D01*
X75389349Y-37987730D01*
X75589322Y-38104584D01*
X75805694Y-38187209D01*
X75810760Y-38188240D01*
X75810761Y-38188240D01*
X75863846Y-38199040D01*
X76032656Y-38233385D01*
X76162089Y-38238131D01*
X76258949Y-38241683D01*
X76258953Y-38241683D01*
X76264113Y-38241872D01*
X76269233Y-38241216D01*
X76269235Y-38241216D01*
X76343166Y-38231745D01*
X76493847Y-38212442D01*
X76498795Y-38210957D01*
X76498802Y-38210956D01*
X76710747Y-38147369D01*
X76715690Y-38145886D01*
X76720324Y-38143616D01*
X76919049Y-38046262D01*
X76919052Y-38046260D01*
X76923684Y-38043991D01*
X77112243Y-37909494D01*
X77244062Y-37778134D01*
X79871500Y-37778134D01*
X79878255Y-37840316D01*
X79929385Y-37976705D01*
X80016739Y-38093261D01*
X80133295Y-38180615D01*
X80269684Y-38231745D01*
X80331866Y-38238500D01*
X80520500Y-38238500D01*
X80588621Y-38258502D01*
X80635114Y-38312158D01*
X80646500Y-38364500D01*
X80646500Y-40690606D01*
X80626498Y-40758727D01*
X80592771Y-40793819D01*
X80440211Y-40900643D01*
X80440208Y-40900645D01*
X80435700Y-40903802D01*
X80273802Y-41065700D01*
X80270645Y-41070208D01*
X80270643Y-41070211D01*
X80250229Y-41099366D01*
X80142477Y-41253251D01*
X80140154Y-41258233D01*
X80140151Y-41258238D01*
X80083557Y-41379606D01*
X80045716Y-41460757D01*
X80044294Y-41466065D01*
X80044293Y-41466067D01*
X79992407Y-41659707D01*
X79986457Y-41681913D01*
X79966502Y-41910000D01*
X79986457Y-42138087D01*
X79987881Y-42143400D01*
X79987881Y-42143402D01*
X80035851Y-42322425D01*
X80045716Y-42359243D01*
X80048039Y-42364224D01*
X80048039Y-42364225D01*
X80140151Y-42561762D01*
X80140154Y-42561767D01*
X80142477Y-42566749D01*
X80145634Y-42571257D01*
X80249078Y-42718990D01*
X80273802Y-42754300D01*
X80435700Y-42916198D01*
X80440208Y-42919355D01*
X80440211Y-42919357D01*
X80518389Y-42974098D01*
X80623251Y-43047523D01*
X80628233Y-43049846D01*
X80628238Y-43049849D01*
X80781068Y-43121114D01*
X80830757Y-43144284D01*
X80836065Y-43145706D01*
X80836067Y-43145707D01*
X81046598Y-43202119D01*
X81046600Y-43202119D01*
X81051913Y-43203543D01*
X81280000Y-43223498D01*
X81508087Y-43203543D01*
X81513400Y-43202119D01*
X81513402Y-43202119D01*
X81723933Y-43145707D01*
X81723935Y-43145706D01*
X81729243Y-43144284D01*
X81778932Y-43121114D01*
X81931762Y-43049849D01*
X81931767Y-43049846D01*
X81936749Y-43047523D01*
X82041611Y-42974098D01*
X82119789Y-42919357D01*
X82119792Y-42919355D01*
X82124300Y-42916198D01*
X82286198Y-42754300D01*
X82310923Y-42718990D01*
X82414366Y-42571257D01*
X82417523Y-42566749D01*
X82419846Y-42561767D01*
X82419849Y-42561762D01*
X82511961Y-42364225D01*
X82511961Y-42364224D01*
X82514284Y-42359243D01*
X82524150Y-42322425D01*
X82572119Y-42143402D01*
X82572119Y-42143400D01*
X82573543Y-42138087D01*
X82593498Y-41910000D01*
X82573543Y-41681913D01*
X82567593Y-41659707D01*
X82515707Y-41466067D01*
X82515706Y-41466065D01*
X82514284Y-41460757D01*
X82476443Y-41379606D01*
X82419849Y-41258238D01*
X82419846Y-41258233D01*
X82417523Y-41253251D01*
X82309771Y-41099366D01*
X82289357Y-41070211D01*
X82289355Y-41070208D01*
X82286198Y-41065700D01*
X82124300Y-40903802D01*
X82119792Y-40900645D01*
X82119789Y-40900643D01*
X81967229Y-40793819D01*
X81922901Y-40738362D01*
X81913500Y-40690606D01*
X81913500Y-38364500D01*
X81933502Y-38296379D01*
X81987158Y-38249886D01*
X82039500Y-38238500D01*
X82228134Y-38238500D01*
X82290316Y-38231745D01*
X82426705Y-38180615D01*
X82543261Y-38093261D01*
X82630615Y-37976705D01*
X82655180Y-37911178D01*
X82697822Y-37854414D01*
X82764383Y-37829714D01*
X82833732Y-37844921D01*
X82853647Y-37858464D01*
X82918724Y-37912492D01*
X83009349Y-37987730D01*
X83209322Y-38104584D01*
X83425694Y-38187209D01*
X83430760Y-38188240D01*
X83430761Y-38188240D01*
X83483846Y-38199040D01*
X83652656Y-38233385D01*
X83782089Y-38238131D01*
X83878949Y-38241683D01*
X83878953Y-38241683D01*
X83884113Y-38241872D01*
X83889233Y-38241216D01*
X83889235Y-38241216D01*
X83963166Y-38231745D01*
X84113847Y-38212442D01*
X84118795Y-38210957D01*
X84118802Y-38210956D01*
X84330747Y-38147369D01*
X84335690Y-38145886D01*
X84340324Y-38143616D01*
X84539049Y-38046262D01*
X84539052Y-38046260D01*
X84543684Y-38043991D01*
X84732243Y-37909494D01*
X84864062Y-37778134D01*
X87491500Y-37778134D01*
X87498255Y-37840316D01*
X87549385Y-37976705D01*
X87636739Y-38093261D01*
X87753295Y-38180615D01*
X87889684Y-38231745D01*
X87951866Y-38238500D01*
X88140500Y-38238500D01*
X88208621Y-38258502D01*
X88255114Y-38312158D01*
X88266500Y-38364500D01*
X88266500Y-40690606D01*
X88246498Y-40758727D01*
X88212771Y-40793819D01*
X88060211Y-40900643D01*
X88060208Y-40900645D01*
X88055700Y-40903802D01*
X87893802Y-41065700D01*
X87890645Y-41070208D01*
X87890643Y-41070211D01*
X87870229Y-41099366D01*
X87762477Y-41253251D01*
X87760154Y-41258233D01*
X87760151Y-41258238D01*
X87703557Y-41379606D01*
X87665716Y-41460757D01*
X87664294Y-41466065D01*
X87664293Y-41466067D01*
X87612407Y-41659707D01*
X87606457Y-41681913D01*
X87586502Y-41910000D01*
X87606457Y-42138087D01*
X87607881Y-42143400D01*
X87607881Y-42143402D01*
X87655851Y-42322425D01*
X87665716Y-42359243D01*
X87668039Y-42364224D01*
X87668039Y-42364225D01*
X87760151Y-42561762D01*
X87760154Y-42561767D01*
X87762477Y-42566749D01*
X87765634Y-42571257D01*
X87869078Y-42718990D01*
X87893802Y-42754300D01*
X88055700Y-42916198D01*
X88060208Y-42919355D01*
X88060211Y-42919357D01*
X88138389Y-42974098D01*
X88243251Y-43047523D01*
X88248233Y-43049846D01*
X88248238Y-43049849D01*
X88401068Y-43121114D01*
X88450757Y-43144284D01*
X88456065Y-43145706D01*
X88456067Y-43145707D01*
X88666598Y-43202119D01*
X88666600Y-43202119D01*
X88671913Y-43203543D01*
X88900000Y-43223498D01*
X89128087Y-43203543D01*
X89133400Y-43202119D01*
X89133402Y-43202119D01*
X89343933Y-43145707D01*
X89343935Y-43145706D01*
X89349243Y-43144284D01*
X89398932Y-43121114D01*
X89551762Y-43049849D01*
X89551767Y-43049846D01*
X89556749Y-43047523D01*
X89661611Y-42974098D01*
X89739789Y-42919357D01*
X89739792Y-42919355D01*
X89744300Y-42916198D01*
X89906198Y-42754300D01*
X89930923Y-42718990D01*
X90034366Y-42571257D01*
X90037523Y-42566749D01*
X90039846Y-42561767D01*
X90039849Y-42561762D01*
X90131961Y-42364225D01*
X90131961Y-42364224D01*
X90134284Y-42359243D01*
X90144150Y-42322425D01*
X90192119Y-42143402D01*
X90192119Y-42143400D01*
X90193543Y-42138087D01*
X90213498Y-41910000D01*
X90193543Y-41681913D01*
X90187593Y-41659707D01*
X90135707Y-41466067D01*
X90135706Y-41466065D01*
X90134284Y-41460757D01*
X90096443Y-41379606D01*
X90039849Y-41258238D01*
X90039846Y-41258233D01*
X90037523Y-41253251D01*
X89929771Y-41099366D01*
X89909357Y-41070211D01*
X89909355Y-41070208D01*
X89906198Y-41065700D01*
X89744300Y-40903802D01*
X89739792Y-40900645D01*
X89739789Y-40900643D01*
X89587229Y-40793819D01*
X89542901Y-40738362D01*
X89533500Y-40690606D01*
X89533500Y-38364500D01*
X89553502Y-38296379D01*
X89607158Y-38249886D01*
X89659500Y-38238500D01*
X89848134Y-38238500D01*
X89910316Y-38231745D01*
X90046705Y-38180615D01*
X90163261Y-38093261D01*
X90250615Y-37976705D01*
X90275180Y-37911178D01*
X90317822Y-37854414D01*
X90384383Y-37829714D01*
X90453732Y-37844921D01*
X90473647Y-37858464D01*
X90538724Y-37912492D01*
X90629349Y-37987730D01*
X90829322Y-38104584D01*
X91045694Y-38187209D01*
X91050760Y-38188240D01*
X91050761Y-38188240D01*
X91103846Y-38199040D01*
X91272656Y-38233385D01*
X91402089Y-38238131D01*
X91498949Y-38241683D01*
X91498953Y-38241683D01*
X91504113Y-38241872D01*
X91509233Y-38241216D01*
X91509235Y-38241216D01*
X91583166Y-38231745D01*
X91733847Y-38212442D01*
X91738795Y-38210957D01*
X91738802Y-38210956D01*
X91950747Y-38147369D01*
X91955690Y-38145886D01*
X91960324Y-38143616D01*
X92159049Y-38046262D01*
X92159052Y-38046260D01*
X92163684Y-38043991D01*
X92352243Y-37909494D01*
X92484062Y-37778134D01*
X95111500Y-37778134D01*
X95118255Y-37840316D01*
X95169385Y-37976705D01*
X95256739Y-38093261D01*
X95373295Y-38180615D01*
X95509684Y-38231745D01*
X95571866Y-38238500D01*
X95760500Y-38238500D01*
X95828621Y-38258502D01*
X95875114Y-38312158D01*
X95886500Y-38364500D01*
X95886500Y-40690606D01*
X95866498Y-40758727D01*
X95832771Y-40793819D01*
X95680211Y-40900643D01*
X95680208Y-40900645D01*
X95675700Y-40903802D01*
X95513802Y-41065700D01*
X95510645Y-41070208D01*
X95510643Y-41070211D01*
X95490229Y-41099366D01*
X95382477Y-41253251D01*
X95380154Y-41258233D01*
X95380151Y-41258238D01*
X95323557Y-41379606D01*
X95285716Y-41460757D01*
X95284294Y-41466065D01*
X95284293Y-41466067D01*
X95232407Y-41659707D01*
X95226457Y-41681913D01*
X95206502Y-41910000D01*
X95226457Y-42138087D01*
X95227881Y-42143400D01*
X95227881Y-42143402D01*
X95275851Y-42322425D01*
X95285716Y-42359243D01*
X95288039Y-42364224D01*
X95288039Y-42364225D01*
X95380151Y-42561762D01*
X95380154Y-42561767D01*
X95382477Y-42566749D01*
X95385634Y-42571257D01*
X95489078Y-42718990D01*
X95513802Y-42754300D01*
X95675700Y-42916198D01*
X95680208Y-42919355D01*
X95680211Y-42919357D01*
X95758389Y-42974098D01*
X95863251Y-43047523D01*
X95868233Y-43049846D01*
X95868238Y-43049849D01*
X96021068Y-43121114D01*
X96070757Y-43144284D01*
X96076065Y-43145706D01*
X96076067Y-43145707D01*
X96286598Y-43202119D01*
X96286600Y-43202119D01*
X96291913Y-43203543D01*
X96520000Y-43223498D01*
X96748087Y-43203543D01*
X96753400Y-43202119D01*
X96753402Y-43202119D01*
X96963933Y-43145707D01*
X96963935Y-43145706D01*
X96969243Y-43144284D01*
X97018932Y-43121114D01*
X97171762Y-43049849D01*
X97171767Y-43049846D01*
X97176749Y-43047523D01*
X97281611Y-42974098D01*
X97359789Y-42919357D01*
X97359792Y-42919355D01*
X97364300Y-42916198D01*
X97526198Y-42754300D01*
X97550923Y-42718990D01*
X97654366Y-42571257D01*
X97657523Y-42566749D01*
X97659846Y-42561767D01*
X97659849Y-42561762D01*
X97751961Y-42364225D01*
X97751961Y-42364224D01*
X97754284Y-42359243D01*
X97764150Y-42322425D01*
X97812119Y-42143402D01*
X97812119Y-42143400D01*
X97813543Y-42138087D01*
X97833498Y-41910000D01*
X97813543Y-41681913D01*
X97807593Y-41659707D01*
X97755707Y-41466067D01*
X97755706Y-41466065D01*
X97754284Y-41460757D01*
X97716443Y-41379606D01*
X97659849Y-41258238D01*
X97659846Y-41258233D01*
X97657523Y-41253251D01*
X97549771Y-41099366D01*
X97529357Y-41070211D01*
X97529355Y-41070208D01*
X97526198Y-41065700D01*
X97364300Y-40903802D01*
X97359792Y-40900645D01*
X97359789Y-40900643D01*
X97207229Y-40793819D01*
X97162901Y-40738362D01*
X97153500Y-40690606D01*
X97153500Y-38364500D01*
X97173502Y-38296379D01*
X97227158Y-38249886D01*
X97279500Y-38238500D01*
X97468134Y-38238500D01*
X97530316Y-38231745D01*
X97666705Y-38180615D01*
X97783261Y-38093261D01*
X97870615Y-37976705D01*
X97895180Y-37911178D01*
X97937822Y-37854414D01*
X98004383Y-37829714D01*
X98073732Y-37844921D01*
X98093647Y-37858464D01*
X98158724Y-37912492D01*
X98249349Y-37987730D01*
X98449322Y-38104584D01*
X98665694Y-38187209D01*
X98670760Y-38188240D01*
X98670761Y-38188240D01*
X98723846Y-38199040D01*
X98892656Y-38233385D01*
X99022089Y-38238131D01*
X99118949Y-38241683D01*
X99118953Y-38241683D01*
X99124113Y-38241872D01*
X99129233Y-38241216D01*
X99129235Y-38241216D01*
X99203166Y-38231745D01*
X99353847Y-38212442D01*
X99358795Y-38210957D01*
X99358802Y-38210956D01*
X99570747Y-38147369D01*
X99575690Y-38145886D01*
X99580324Y-38143616D01*
X99779049Y-38046262D01*
X99779052Y-38046260D01*
X99783684Y-38043991D01*
X99972243Y-37909494D01*
X100104062Y-37778134D01*
X102731500Y-37778134D01*
X102738255Y-37840316D01*
X102789385Y-37976705D01*
X102876739Y-38093261D01*
X102993295Y-38180615D01*
X103129684Y-38231745D01*
X103191866Y-38238500D01*
X103380500Y-38238500D01*
X103448621Y-38258502D01*
X103495114Y-38312158D01*
X103506500Y-38364500D01*
X103506500Y-40690606D01*
X103486498Y-40758727D01*
X103452771Y-40793819D01*
X103300211Y-40900643D01*
X103300208Y-40900645D01*
X103295700Y-40903802D01*
X103133802Y-41065700D01*
X103130645Y-41070208D01*
X103130643Y-41070211D01*
X103110229Y-41099366D01*
X103002477Y-41253251D01*
X103000154Y-41258233D01*
X103000151Y-41258238D01*
X102943557Y-41379606D01*
X102905716Y-41460757D01*
X102904294Y-41466065D01*
X102904293Y-41466067D01*
X102852407Y-41659707D01*
X102846457Y-41681913D01*
X102826502Y-41910000D01*
X102846457Y-42138087D01*
X102847881Y-42143400D01*
X102847881Y-42143402D01*
X102895851Y-42322425D01*
X102905716Y-42359243D01*
X102908039Y-42364224D01*
X102908039Y-42364225D01*
X103000151Y-42561762D01*
X103000154Y-42561767D01*
X103002477Y-42566749D01*
X103005634Y-42571257D01*
X103109078Y-42718990D01*
X103133802Y-42754300D01*
X103295700Y-42916198D01*
X103300208Y-42919355D01*
X103300211Y-42919357D01*
X103378389Y-42974098D01*
X103483251Y-43047523D01*
X103488233Y-43049846D01*
X103488238Y-43049849D01*
X103641068Y-43121114D01*
X103690757Y-43144284D01*
X103696065Y-43145706D01*
X103696067Y-43145707D01*
X103906598Y-43202119D01*
X103906600Y-43202119D01*
X103911913Y-43203543D01*
X104140000Y-43223498D01*
X104368087Y-43203543D01*
X104373400Y-43202119D01*
X104373402Y-43202119D01*
X104583933Y-43145707D01*
X104583935Y-43145706D01*
X104589243Y-43144284D01*
X104638932Y-43121114D01*
X104791762Y-43049849D01*
X104791767Y-43049846D01*
X104796749Y-43047523D01*
X104901611Y-42974098D01*
X104979789Y-42919357D01*
X104979792Y-42919355D01*
X104984300Y-42916198D01*
X105146198Y-42754300D01*
X105170923Y-42718990D01*
X105274366Y-42571257D01*
X105277523Y-42566749D01*
X105279846Y-42561767D01*
X105279849Y-42561762D01*
X105371961Y-42364225D01*
X105371961Y-42364224D01*
X105374284Y-42359243D01*
X105384150Y-42322425D01*
X105432119Y-42143402D01*
X105432119Y-42143400D01*
X105433543Y-42138087D01*
X105453498Y-41910000D01*
X105433543Y-41681913D01*
X105427593Y-41659707D01*
X105375707Y-41466067D01*
X105375706Y-41466065D01*
X105374284Y-41460757D01*
X105336443Y-41379606D01*
X105279849Y-41258238D01*
X105279846Y-41258233D01*
X105277523Y-41253251D01*
X105169771Y-41099366D01*
X105149357Y-41070211D01*
X105149355Y-41070208D01*
X105146198Y-41065700D01*
X104984300Y-40903802D01*
X104979792Y-40900645D01*
X104979789Y-40900643D01*
X104827229Y-40793819D01*
X104782901Y-40738362D01*
X104773500Y-40690606D01*
X104773500Y-38364500D01*
X104793502Y-38296379D01*
X104847158Y-38249886D01*
X104899500Y-38238500D01*
X105088134Y-38238500D01*
X105150316Y-38231745D01*
X105286705Y-38180615D01*
X105403261Y-38093261D01*
X105490615Y-37976705D01*
X105515180Y-37911178D01*
X105557822Y-37854414D01*
X105624383Y-37829714D01*
X105693732Y-37844921D01*
X105713647Y-37858464D01*
X105778724Y-37912492D01*
X105869349Y-37987730D01*
X106069322Y-38104584D01*
X106285694Y-38187209D01*
X106290760Y-38188240D01*
X106290761Y-38188240D01*
X106343846Y-38199040D01*
X106512656Y-38233385D01*
X106642089Y-38238131D01*
X106738949Y-38241683D01*
X106738953Y-38241683D01*
X106744113Y-38241872D01*
X106749233Y-38241216D01*
X106749235Y-38241216D01*
X106823166Y-38231745D01*
X106973847Y-38212442D01*
X106978795Y-38210957D01*
X106978802Y-38210956D01*
X107190747Y-38147369D01*
X107195690Y-38145886D01*
X107200324Y-38143616D01*
X107399049Y-38046262D01*
X107399052Y-38046260D01*
X107403684Y-38043991D01*
X107592243Y-37909494D01*
X107756303Y-37746005D01*
X107891458Y-37557917D01*
X107901534Y-37537531D01*
X107991784Y-37354922D01*
X107991785Y-37354920D01*
X107994078Y-37350280D01*
X108061408Y-37128671D01*
X108091640Y-36899041D01*
X108093327Y-36830000D01*
X108084186Y-36718820D01*
X108074773Y-36604318D01*
X108074772Y-36604312D01*
X108074349Y-36599167D01*
X108023247Y-36395720D01*
X108019184Y-36379544D01*
X108019183Y-36379540D01*
X108017925Y-36374533D01*
X108015866Y-36369797D01*
X107927630Y-36166868D01*
X107927628Y-36166865D01*
X107925570Y-36162131D01*
X107799764Y-35967665D01*
X107643887Y-35796358D01*
X107639836Y-35793159D01*
X107639832Y-35793155D01*
X107466177Y-35656011D01*
X107466172Y-35656008D01*
X107462123Y-35652810D01*
X107457607Y-35650317D01*
X107457604Y-35650315D01*
X107263879Y-35543373D01*
X107263875Y-35543371D01*
X107259355Y-35540876D01*
X107254486Y-35539152D01*
X107254482Y-35539150D01*
X107045903Y-35465288D01*
X107045899Y-35465287D01*
X107041028Y-35463562D01*
X107035935Y-35462655D01*
X107035932Y-35462654D01*
X106818095Y-35423851D01*
X106818089Y-35423850D01*
X106813006Y-35422945D01*
X106740096Y-35422054D01*
X106586581Y-35420179D01*
X106586579Y-35420179D01*
X106581411Y-35420116D01*
X106352464Y-35455150D01*
X106132314Y-35527106D01*
X106127726Y-35529494D01*
X106127722Y-35529496D01*
X105931461Y-35631663D01*
X105926872Y-35634052D01*
X105922739Y-35637155D01*
X105922736Y-35637157D01*
X105850088Y-35691703D01*
X105741655Y-35773117D01*
X105732586Y-35782607D01*
X105724170Y-35791414D01*
X105662646Y-35826844D01*
X105591733Y-35823387D01*
X105533947Y-35782141D01*
X105515094Y-35748592D01*
X105493768Y-35691705D01*
X105493767Y-35691703D01*
X105490615Y-35683295D01*
X105403261Y-35566739D01*
X105286705Y-35479385D01*
X105150316Y-35428255D01*
X105088134Y-35421500D01*
X103191866Y-35421500D01*
X103129684Y-35428255D01*
X102993295Y-35479385D01*
X102876739Y-35566739D01*
X102789385Y-35683295D01*
X102738255Y-35819684D01*
X102731500Y-35881866D01*
X102731500Y-37778134D01*
X100104062Y-37778134D01*
X100136303Y-37746005D01*
X100271458Y-37557917D01*
X100281534Y-37537531D01*
X100371784Y-37354922D01*
X100371785Y-37354920D01*
X100374078Y-37350280D01*
X100441408Y-37128671D01*
X100471640Y-36899041D01*
X100473327Y-36830000D01*
X100464186Y-36718820D01*
X100454773Y-36604318D01*
X100454772Y-36604312D01*
X100454349Y-36599167D01*
X100403247Y-36395720D01*
X100399184Y-36379544D01*
X100399183Y-36379540D01*
X100397925Y-36374533D01*
X100395866Y-36369797D01*
X100307630Y-36166868D01*
X100307628Y-36166865D01*
X100305570Y-36162131D01*
X100179764Y-35967665D01*
X100023887Y-35796358D01*
X100019836Y-35793159D01*
X100019832Y-35793155D01*
X99846177Y-35656011D01*
X99846172Y-35656008D01*
X99842123Y-35652810D01*
X99837607Y-35650317D01*
X99837604Y-35650315D01*
X99643879Y-35543373D01*
X99643875Y-35543371D01*
X99639355Y-35540876D01*
X99634486Y-35539152D01*
X99634482Y-35539150D01*
X99425903Y-35465288D01*
X99425899Y-35465287D01*
X99421028Y-35463562D01*
X99415935Y-35462655D01*
X99415932Y-35462654D01*
X99198095Y-35423851D01*
X99198089Y-35423850D01*
X99193006Y-35422945D01*
X99120096Y-35422054D01*
X98966581Y-35420179D01*
X98966579Y-35420179D01*
X98961411Y-35420116D01*
X98732464Y-35455150D01*
X98512314Y-35527106D01*
X98507726Y-35529494D01*
X98507722Y-35529496D01*
X98311461Y-35631663D01*
X98306872Y-35634052D01*
X98302739Y-35637155D01*
X98302736Y-35637157D01*
X98230088Y-35691703D01*
X98121655Y-35773117D01*
X98112586Y-35782607D01*
X98104170Y-35791414D01*
X98042646Y-35826844D01*
X97971733Y-35823387D01*
X97913947Y-35782141D01*
X97895094Y-35748592D01*
X97873768Y-35691705D01*
X97873767Y-35691703D01*
X97870615Y-35683295D01*
X97783261Y-35566739D01*
X97666705Y-35479385D01*
X97530316Y-35428255D01*
X97468134Y-35421500D01*
X95571866Y-35421500D01*
X95509684Y-35428255D01*
X95373295Y-35479385D01*
X95256739Y-35566739D01*
X95169385Y-35683295D01*
X95118255Y-35819684D01*
X95111500Y-35881866D01*
X95111500Y-37778134D01*
X92484062Y-37778134D01*
X92516303Y-37746005D01*
X92651458Y-37557917D01*
X92661534Y-37537531D01*
X92751784Y-37354922D01*
X92751785Y-37354920D01*
X92754078Y-37350280D01*
X92821408Y-37128671D01*
X92851640Y-36899041D01*
X92853327Y-36830000D01*
X92844186Y-36718820D01*
X92834773Y-36604318D01*
X92834772Y-36604312D01*
X92834349Y-36599167D01*
X92783247Y-36395720D01*
X92779184Y-36379544D01*
X92779183Y-36379540D01*
X92777925Y-36374533D01*
X92775866Y-36369797D01*
X92687630Y-36166868D01*
X92687628Y-36166865D01*
X92685570Y-36162131D01*
X92559764Y-35967665D01*
X92403887Y-35796358D01*
X92399836Y-35793159D01*
X92399832Y-35793155D01*
X92226177Y-35656011D01*
X92226172Y-35656008D01*
X92222123Y-35652810D01*
X92217607Y-35650317D01*
X92217604Y-35650315D01*
X92023879Y-35543373D01*
X92023875Y-35543371D01*
X92019355Y-35540876D01*
X92014486Y-35539152D01*
X92014482Y-35539150D01*
X91805903Y-35465288D01*
X91805899Y-35465287D01*
X91801028Y-35463562D01*
X91795935Y-35462655D01*
X91795932Y-35462654D01*
X91578095Y-35423851D01*
X91578089Y-35423850D01*
X91573006Y-35422945D01*
X91500096Y-35422054D01*
X91346581Y-35420179D01*
X91346579Y-35420179D01*
X91341411Y-35420116D01*
X91112464Y-35455150D01*
X90892314Y-35527106D01*
X90887726Y-35529494D01*
X90887722Y-35529496D01*
X90691461Y-35631663D01*
X90686872Y-35634052D01*
X90682739Y-35637155D01*
X90682736Y-35637157D01*
X90610088Y-35691703D01*
X90501655Y-35773117D01*
X90492586Y-35782607D01*
X90484170Y-35791414D01*
X90422646Y-35826844D01*
X90351733Y-35823387D01*
X90293947Y-35782141D01*
X90275094Y-35748592D01*
X90253768Y-35691705D01*
X90253767Y-35691703D01*
X90250615Y-35683295D01*
X90163261Y-35566739D01*
X90046705Y-35479385D01*
X89910316Y-35428255D01*
X89848134Y-35421500D01*
X87951866Y-35421500D01*
X87889684Y-35428255D01*
X87753295Y-35479385D01*
X87636739Y-35566739D01*
X87549385Y-35683295D01*
X87498255Y-35819684D01*
X87491500Y-35881866D01*
X87491500Y-37778134D01*
X84864062Y-37778134D01*
X84896303Y-37746005D01*
X85031458Y-37557917D01*
X85041534Y-37537531D01*
X85131784Y-37354922D01*
X85131785Y-37354920D01*
X85134078Y-37350280D01*
X85201408Y-37128671D01*
X85231640Y-36899041D01*
X85233327Y-36830000D01*
X85224186Y-36718820D01*
X85214773Y-36604318D01*
X85214772Y-36604312D01*
X85214349Y-36599167D01*
X85163247Y-36395720D01*
X85159184Y-36379544D01*
X85159183Y-36379540D01*
X85157925Y-36374533D01*
X85155866Y-36369797D01*
X85067630Y-36166868D01*
X85067628Y-36166865D01*
X85065570Y-36162131D01*
X84939764Y-35967665D01*
X84783887Y-35796358D01*
X84779836Y-35793159D01*
X84779832Y-35793155D01*
X84606177Y-35656011D01*
X84606172Y-35656008D01*
X84602123Y-35652810D01*
X84597607Y-35650317D01*
X84597604Y-35650315D01*
X84403879Y-35543373D01*
X84403875Y-35543371D01*
X84399355Y-35540876D01*
X84394486Y-35539152D01*
X84394482Y-35539150D01*
X84185903Y-35465288D01*
X84185899Y-35465287D01*
X84181028Y-35463562D01*
X84175935Y-35462655D01*
X84175932Y-35462654D01*
X83958095Y-35423851D01*
X83958089Y-35423850D01*
X83953006Y-35422945D01*
X83880096Y-35422054D01*
X83726581Y-35420179D01*
X83726579Y-35420179D01*
X83721411Y-35420116D01*
X83492464Y-35455150D01*
X83272314Y-35527106D01*
X83267726Y-35529494D01*
X83267722Y-35529496D01*
X83071461Y-35631663D01*
X83066872Y-35634052D01*
X83062739Y-35637155D01*
X83062736Y-35637157D01*
X82990088Y-35691703D01*
X82881655Y-35773117D01*
X82872586Y-35782607D01*
X82864170Y-35791414D01*
X82802646Y-35826844D01*
X82731733Y-35823387D01*
X82673947Y-35782141D01*
X82655094Y-35748592D01*
X82633768Y-35691705D01*
X82633767Y-35691703D01*
X82630615Y-35683295D01*
X82543261Y-35566739D01*
X82426705Y-35479385D01*
X82290316Y-35428255D01*
X82228134Y-35421500D01*
X80331866Y-35421500D01*
X80269684Y-35428255D01*
X80133295Y-35479385D01*
X80016739Y-35566739D01*
X79929385Y-35683295D01*
X79878255Y-35819684D01*
X79871500Y-35881866D01*
X79871500Y-37778134D01*
X77244062Y-37778134D01*
X77276303Y-37746005D01*
X77411458Y-37557917D01*
X77421534Y-37537531D01*
X77511784Y-37354922D01*
X77511785Y-37354920D01*
X77514078Y-37350280D01*
X77581408Y-37128671D01*
X77611640Y-36899041D01*
X77613327Y-36830000D01*
X77604186Y-36718820D01*
X77594773Y-36604318D01*
X77594772Y-36604312D01*
X77594349Y-36599167D01*
X77543247Y-36395720D01*
X77539184Y-36379544D01*
X77539183Y-36379540D01*
X77537925Y-36374533D01*
X77535866Y-36369797D01*
X77447630Y-36166868D01*
X77447628Y-36166865D01*
X77445570Y-36162131D01*
X77319764Y-35967665D01*
X77163887Y-35796358D01*
X77159836Y-35793159D01*
X77159832Y-35793155D01*
X76986177Y-35656011D01*
X76986172Y-35656008D01*
X76982123Y-35652810D01*
X76977607Y-35650317D01*
X76977604Y-35650315D01*
X76783879Y-35543373D01*
X76783875Y-35543371D01*
X76779355Y-35540876D01*
X76774486Y-35539152D01*
X76774482Y-35539150D01*
X76565903Y-35465288D01*
X76565899Y-35465287D01*
X76561028Y-35463562D01*
X76555935Y-35462655D01*
X76555932Y-35462654D01*
X76338095Y-35423851D01*
X76338089Y-35423850D01*
X76333006Y-35422945D01*
X76260096Y-35422054D01*
X76106581Y-35420179D01*
X76106579Y-35420179D01*
X76101411Y-35420116D01*
X75872464Y-35455150D01*
X75652314Y-35527106D01*
X75647726Y-35529494D01*
X75647722Y-35529496D01*
X75451461Y-35631663D01*
X75446872Y-35634052D01*
X75442739Y-35637155D01*
X75442736Y-35637157D01*
X75370088Y-35691703D01*
X75261655Y-35773117D01*
X75252586Y-35782607D01*
X75244170Y-35791414D01*
X75182646Y-35826844D01*
X75111733Y-35823387D01*
X75053947Y-35782141D01*
X75035094Y-35748592D01*
X75013768Y-35691705D01*
X75013767Y-35691703D01*
X75010615Y-35683295D01*
X74923261Y-35566739D01*
X74806705Y-35479385D01*
X74670316Y-35428255D01*
X74608134Y-35421500D01*
X72711866Y-35421500D01*
X72649684Y-35428255D01*
X72513295Y-35479385D01*
X72396739Y-35566739D01*
X72309385Y-35683295D01*
X72258255Y-35819684D01*
X72251500Y-35881866D01*
X72251500Y-37778134D01*
X69624062Y-37778134D01*
X69656303Y-37746005D01*
X69791458Y-37557917D01*
X69801534Y-37537531D01*
X69891784Y-37354922D01*
X69891785Y-37354920D01*
X69894078Y-37350280D01*
X69961408Y-37128671D01*
X69991640Y-36899041D01*
X69993327Y-36830000D01*
X69984186Y-36718820D01*
X69974773Y-36604318D01*
X69974772Y-36604312D01*
X69974349Y-36599167D01*
X69923247Y-36395720D01*
X69919184Y-36379544D01*
X69919183Y-36379540D01*
X69917925Y-36374533D01*
X69915866Y-36369797D01*
X69827630Y-36166868D01*
X69827628Y-36166865D01*
X69825570Y-36162131D01*
X69699764Y-35967665D01*
X69543887Y-35796358D01*
X69539836Y-35793159D01*
X69539832Y-35793155D01*
X69366177Y-35656011D01*
X69366172Y-35656008D01*
X69362123Y-35652810D01*
X69357607Y-35650317D01*
X69357604Y-35650315D01*
X69163879Y-35543373D01*
X69163875Y-35543371D01*
X69159355Y-35540876D01*
X69154486Y-35539152D01*
X69154482Y-35539150D01*
X68945903Y-35465288D01*
X68945899Y-35465287D01*
X68941028Y-35463562D01*
X68935935Y-35462655D01*
X68935932Y-35462654D01*
X68718095Y-35423851D01*
X68718089Y-35423850D01*
X68713006Y-35422945D01*
X68640096Y-35422054D01*
X68486581Y-35420179D01*
X68486579Y-35420179D01*
X68481411Y-35420116D01*
X68252464Y-35455150D01*
X68032314Y-35527106D01*
X68027726Y-35529494D01*
X68027722Y-35529496D01*
X67831461Y-35631663D01*
X67826872Y-35634052D01*
X67822739Y-35637155D01*
X67822736Y-35637157D01*
X67750088Y-35691703D01*
X67641655Y-35773117D01*
X67632586Y-35782607D01*
X67624170Y-35791414D01*
X67562646Y-35826844D01*
X67491733Y-35823387D01*
X67433947Y-35782141D01*
X67415094Y-35748592D01*
X67393768Y-35691705D01*
X67393767Y-35691703D01*
X67390615Y-35683295D01*
X67303261Y-35566739D01*
X67186705Y-35479385D01*
X67050316Y-35428255D01*
X66988134Y-35421500D01*
X65091866Y-35421500D01*
X65029684Y-35428255D01*
X64893295Y-35479385D01*
X64776739Y-35566739D01*
X64689385Y-35683295D01*
X64638255Y-35819684D01*
X64631500Y-35881866D01*
X64631500Y-37778134D01*
X62004062Y-37778134D01*
X62036303Y-37746005D01*
X62171458Y-37557917D01*
X62181534Y-37537531D01*
X62271784Y-37354922D01*
X62271785Y-37354920D01*
X62274078Y-37350280D01*
X62341408Y-37128671D01*
X62371640Y-36899041D01*
X62373327Y-36830000D01*
X62364186Y-36718820D01*
X62354773Y-36604318D01*
X62354772Y-36604312D01*
X62354349Y-36599167D01*
X62303247Y-36395720D01*
X62299184Y-36379544D01*
X62299183Y-36379540D01*
X62297925Y-36374533D01*
X62295866Y-36369797D01*
X62207630Y-36166868D01*
X62207628Y-36166865D01*
X62205570Y-36162131D01*
X62079764Y-35967665D01*
X61923887Y-35796358D01*
X61919836Y-35793159D01*
X61919832Y-35793155D01*
X61746177Y-35656011D01*
X61746172Y-35656008D01*
X61742123Y-35652810D01*
X61737607Y-35650317D01*
X61737604Y-35650315D01*
X61543879Y-35543373D01*
X61543875Y-35543371D01*
X61539355Y-35540876D01*
X61534486Y-35539152D01*
X61534482Y-35539150D01*
X61325903Y-35465288D01*
X61325899Y-35465287D01*
X61321028Y-35463562D01*
X61315935Y-35462655D01*
X61315932Y-35462654D01*
X61098095Y-35423851D01*
X61098089Y-35423850D01*
X61093006Y-35422945D01*
X61020096Y-35422054D01*
X60866581Y-35420179D01*
X60866579Y-35420179D01*
X60861411Y-35420116D01*
X60632464Y-35455150D01*
X60412314Y-35527106D01*
X60407726Y-35529494D01*
X60407722Y-35529496D01*
X60211461Y-35631663D01*
X60206872Y-35634052D01*
X60202739Y-35637155D01*
X60202736Y-35637157D01*
X60130088Y-35691703D01*
X60021655Y-35773117D01*
X60012586Y-35782607D01*
X60004170Y-35791414D01*
X59942646Y-35826844D01*
X59871733Y-35823387D01*
X59813947Y-35782141D01*
X59795094Y-35748592D01*
X59773768Y-35691705D01*
X59773767Y-35691703D01*
X59770615Y-35683295D01*
X59683261Y-35566739D01*
X59566705Y-35479385D01*
X59430316Y-35428255D01*
X59368134Y-35421500D01*
X57471866Y-35421500D01*
X57409684Y-35428255D01*
X57273295Y-35479385D01*
X57156739Y-35566739D01*
X57069385Y-35683295D01*
X57018255Y-35819684D01*
X57011500Y-35881866D01*
X57011500Y-37778134D01*
X54384062Y-37778134D01*
X54416303Y-37746005D01*
X54551458Y-37557917D01*
X54561534Y-37537531D01*
X54651784Y-37354922D01*
X54651785Y-37354920D01*
X54654078Y-37350280D01*
X54721408Y-37128671D01*
X54751640Y-36899041D01*
X54753327Y-36830000D01*
X54744186Y-36718820D01*
X54734773Y-36604318D01*
X54734772Y-36604312D01*
X54734349Y-36599167D01*
X54683247Y-36395720D01*
X54679184Y-36379544D01*
X54679183Y-36379540D01*
X54677925Y-36374533D01*
X54675866Y-36369797D01*
X54587630Y-36166868D01*
X54587628Y-36166865D01*
X54585570Y-36162131D01*
X54459764Y-35967665D01*
X54303887Y-35796358D01*
X54299836Y-35793159D01*
X54299832Y-35793155D01*
X54126177Y-35656011D01*
X54126172Y-35656008D01*
X54122123Y-35652810D01*
X54117607Y-35650317D01*
X54117604Y-35650315D01*
X53923879Y-35543373D01*
X53923875Y-35543371D01*
X53919355Y-35540876D01*
X53914486Y-35539152D01*
X53914482Y-35539150D01*
X53705903Y-35465288D01*
X53705899Y-35465287D01*
X53701028Y-35463562D01*
X53695935Y-35462655D01*
X53695932Y-35462654D01*
X53478095Y-35423851D01*
X53478089Y-35423850D01*
X53473006Y-35422945D01*
X53400096Y-35422054D01*
X53246581Y-35420179D01*
X53246579Y-35420179D01*
X53241411Y-35420116D01*
X53012464Y-35455150D01*
X52792314Y-35527106D01*
X52787726Y-35529494D01*
X52787722Y-35529496D01*
X52591461Y-35631663D01*
X52586872Y-35634052D01*
X52582739Y-35637155D01*
X52582736Y-35637157D01*
X52510088Y-35691703D01*
X52401655Y-35773117D01*
X52392586Y-35782607D01*
X52384170Y-35791414D01*
X52322646Y-35826844D01*
X52251733Y-35823387D01*
X52193947Y-35782141D01*
X52175094Y-35748592D01*
X52153768Y-35691705D01*
X52153767Y-35691703D01*
X52150615Y-35683295D01*
X52063261Y-35566739D01*
X51946705Y-35479385D01*
X51810316Y-35428255D01*
X51748134Y-35421500D01*
X49851866Y-35421500D01*
X49789684Y-35428255D01*
X49653295Y-35479385D01*
X49536739Y-35566739D01*
X49449385Y-35683295D01*
X49398255Y-35819684D01*
X49391500Y-35881866D01*
X49391500Y-37778134D01*
X43381770Y-37778134D01*
X47469499Y-33690405D01*
X47531811Y-33656379D01*
X47558594Y-33653500D01*
X95425233Y-33653500D01*
X95436416Y-33654027D01*
X95443909Y-33655702D01*
X95451835Y-33655453D01*
X95451836Y-33655453D01*
X95511986Y-33653562D01*
X95515945Y-33653500D01*
X95543856Y-33653500D01*
X95547791Y-33653003D01*
X95547856Y-33652995D01*
X95559693Y-33652062D01*
X95591951Y-33651048D01*
X95595970Y-33650922D01*
X95603889Y-33650673D01*
X95623343Y-33645021D01*
X95642700Y-33641013D01*
X95654930Y-33639468D01*
X95654931Y-33639468D01*
X95662797Y-33638474D01*
X95670168Y-33635555D01*
X95670170Y-33635555D01*
X95703912Y-33622196D01*
X95715142Y-33618351D01*
X95749983Y-33608229D01*
X95749984Y-33608229D01*
X95757593Y-33606018D01*
X95764412Y-33601985D01*
X95764417Y-33601983D01*
X95775028Y-33595707D01*
X95792776Y-33587012D01*
X95811617Y-33579552D01*
X95847387Y-33553564D01*
X95857307Y-33547048D01*
X95888535Y-33528580D01*
X95888538Y-33528578D01*
X95895362Y-33524542D01*
X95909683Y-33510221D01*
X95924717Y-33497380D01*
X95934694Y-33490131D01*
X95941107Y-33485472D01*
X95969298Y-33451395D01*
X95977288Y-33442616D01*
X102820500Y-26599405D01*
X102882812Y-26565379D01*
X102909595Y-26562500D01*
X102965487Y-26562500D01*
X102971939Y-26561128D01*
X102971944Y-26561128D01*
X103072051Y-26539849D01*
X103152288Y-26522794D01*
X103158319Y-26520109D01*
X103320722Y-26447803D01*
X103320724Y-26447802D01*
X103326752Y-26445118D01*
X103339224Y-26436057D01*
X103416119Y-26380189D01*
X103481253Y-26332866D01*
X103609040Y-26190944D01*
X103699941Y-26033500D01*
X103701223Y-26031279D01*
X103701224Y-26031278D01*
X103704527Y-26025556D01*
X103763542Y-25843928D01*
X103764538Y-25834457D01*
X103782814Y-25660565D01*
X103783504Y-25654000D01*
X103776452Y-25586905D01*
X103764232Y-25470635D01*
X103764232Y-25470633D01*
X103763542Y-25464072D01*
X103704527Y-25282444D01*
X103609040Y-25117056D01*
X103535863Y-25035785D01*
X103505147Y-24971779D01*
X103503500Y-24951476D01*
X103503500Y-18129394D01*
X103523502Y-18061273D01*
X103557229Y-18026181D01*
X103709789Y-17919357D01*
X103709792Y-17919355D01*
X103714300Y-17916198D01*
X103876198Y-17754300D01*
X103885480Y-17741045D01*
X103960317Y-17634166D01*
X104007523Y-17566749D01*
X104009846Y-17561767D01*
X104009849Y-17561762D01*
X104025805Y-17527543D01*
X104072722Y-17474258D01*
X104140999Y-17454797D01*
X104208959Y-17475339D01*
X104254195Y-17527543D01*
X104270151Y-17561762D01*
X104270154Y-17561767D01*
X104272477Y-17566749D01*
X104319683Y-17634166D01*
X104394521Y-17741045D01*
X104403802Y-17754300D01*
X104565700Y-17916198D01*
X104570208Y-17919355D01*
X104570211Y-17919357D01*
X104648389Y-17974098D01*
X104753251Y-18047523D01*
X104758233Y-18049846D01*
X104758238Y-18049849D01*
X104928825Y-18129394D01*
X104960757Y-18144284D01*
X104966065Y-18145706D01*
X104966067Y-18145707D01*
X105176598Y-18202119D01*
X105176600Y-18202119D01*
X105181913Y-18203543D01*
X105410000Y-18223498D01*
X105638087Y-18203543D01*
X105643400Y-18202119D01*
X105643402Y-18202119D01*
X105853933Y-18145707D01*
X105853935Y-18145706D01*
X105859243Y-18144284D01*
X105891175Y-18129394D01*
X106061762Y-18049849D01*
X106061767Y-18049846D01*
X106066749Y-18047523D01*
X106171611Y-17974098D01*
X106249789Y-17919357D01*
X106249792Y-17919355D01*
X106254300Y-17916198D01*
X106416198Y-17754300D01*
X106425480Y-17741045D01*
X106500317Y-17634166D01*
X106547523Y-17566749D01*
X106549846Y-17561767D01*
X106549849Y-17561762D01*
X106641961Y-17364225D01*
X106641961Y-17364224D01*
X106644284Y-17359243D01*
X106656116Y-17315088D01*
X106702119Y-17143402D01*
X106702119Y-17143400D01*
X106703543Y-17138087D01*
X106718500Y-16967127D01*
X106718500Y-16052873D01*
X106703543Y-15881913D01*
X106690045Y-15831538D01*
X106645707Y-15666067D01*
X106645706Y-15666065D01*
X106644284Y-15660757D01*
X106626460Y-15622532D01*
X106549849Y-15458238D01*
X106549846Y-15458233D01*
X106547523Y-15453251D01*
X106416198Y-15265700D01*
X106254300Y-15103802D01*
X106249792Y-15100645D01*
X106249789Y-15100643D01*
X106162070Y-15039222D01*
X106066749Y-14972477D01*
X106061767Y-14970154D01*
X106061762Y-14970151D01*
X105864225Y-14878039D01*
X105864224Y-14878039D01*
X105859243Y-14875716D01*
X105853935Y-14874294D01*
X105853933Y-14874293D01*
X105643402Y-14817881D01*
X105643400Y-14817881D01*
X105638087Y-14816457D01*
X105410000Y-14796502D01*
X105181913Y-14816457D01*
X105176600Y-14817881D01*
X105176598Y-14817881D01*
X104966067Y-14874293D01*
X104966065Y-14874294D01*
X104960757Y-14875716D01*
X104955776Y-14878039D01*
X104955775Y-14878039D01*
X104758238Y-14970151D01*
X104758233Y-14970154D01*
X104753251Y-14972477D01*
X104657930Y-15039222D01*
X104570211Y-15100643D01*
X104570208Y-15100645D01*
X104565700Y-15103802D01*
X104403802Y-15265700D01*
X104272477Y-15453251D01*
X104270154Y-15458233D01*
X104270151Y-15458238D01*
X104254195Y-15492457D01*
X104207278Y-15545742D01*
X104139001Y-15565203D01*
X104071041Y-15544661D01*
X104025805Y-15492457D01*
X104009849Y-15458238D01*
X104009846Y-15458233D01*
X104007523Y-15453251D01*
X103876198Y-15265700D01*
X103714300Y-15103802D01*
X103709792Y-15100645D01*
X103709789Y-15100643D01*
X103622070Y-15039222D01*
X103526749Y-14972477D01*
X103521767Y-14970154D01*
X103521762Y-14970151D01*
X103324225Y-14878039D01*
X103324224Y-14878039D01*
X103319243Y-14875716D01*
X103313935Y-14874294D01*
X103313933Y-14874293D01*
X103103402Y-14817881D01*
X103103400Y-14817881D01*
X103098087Y-14816457D01*
X102870000Y-14796502D01*
X102641913Y-14816457D01*
X102636600Y-14817881D01*
X102636598Y-14817881D01*
X102426067Y-14874293D01*
X102426065Y-14874294D01*
X102420757Y-14875716D01*
X102415776Y-14878039D01*
X102415775Y-14878039D01*
X102218238Y-14970151D01*
X102218233Y-14970154D01*
X102213251Y-14972477D01*
X102117930Y-15039222D01*
X102030211Y-15100643D01*
X102030208Y-15100645D01*
X102025700Y-15103802D01*
X101863802Y-15265700D01*
X101732477Y-15453251D01*
X101730154Y-15458233D01*
X101730151Y-15458238D01*
X101714195Y-15492457D01*
X101667278Y-15545742D01*
X101599001Y-15565203D01*
X101531041Y-15544661D01*
X101485805Y-15492457D01*
X101469849Y-15458238D01*
X101469846Y-15458233D01*
X101467523Y-15453251D01*
X101336198Y-15265700D01*
X101174300Y-15103802D01*
X101169792Y-15100645D01*
X101169789Y-15100643D01*
X101082070Y-15039222D01*
X100986749Y-14972477D01*
X100981767Y-14970154D01*
X100981762Y-14970151D01*
X100784225Y-14878039D01*
X100784224Y-14878039D01*
X100779243Y-14875716D01*
X100773935Y-14874294D01*
X100773933Y-14874293D01*
X100563402Y-14817881D01*
X100563400Y-14817881D01*
X100558087Y-14816457D01*
X100330000Y-14796502D01*
X100101913Y-14816457D01*
X100096600Y-14817881D01*
X100096598Y-14817881D01*
X99886067Y-14874293D01*
X99886065Y-14874294D01*
X99880757Y-14875716D01*
X99875776Y-14878039D01*
X99875775Y-14878039D01*
X99678238Y-14970151D01*
X99678233Y-14970154D01*
X99673251Y-14972477D01*
X99577930Y-15039222D01*
X99490211Y-15100643D01*
X99490208Y-15100645D01*
X99485700Y-15103802D01*
X99323802Y-15265700D01*
X99192477Y-15453251D01*
X99190154Y-15458233D01*
X99190151Y-15458238D01*
X99174195Y-15492457D01*
X99127278Y-15545742D01*
X99059001Y-15565203D01*
X98991041Y-15544661D01*
X98945805Y-15492457D01*
X98929849Y-15458238D01*
X98929846Y-15458233D01*
X98927523Y-15453251D01*
X98796198Y-15265700D01*
X98634300Y-15103802D01*
X98629792Y-15100645D01*
X98629789Y-15100643D01*
X98542070Y-15039222D01*
X98446749Y-14972477D01*
X98441767Y-14970154D01*
X98441762Y-14970151D01*
X98244225Y-14878039D01*
X98244224Y-14878039D01*
X98239243Y-14875716D01*
X98233935Y-14874294D01*
X98233933Y-14874293D01*
X98023402Y-14817881D01*
X98023400Y-14817881D01*
X98018087Y-14816457D01*
X97790000Y-14796502D01*
X97561913Y-14816457D01*
X97556600Y-14817881D01*
X97556598Y-14817881D01*
X97346067Y-14874293D01*
X97346065Y-14874294D01*
X97340757Y-14875716D01*
X97335776Y-14878039D01*
X97335775Y-14878039D01*
X97138238Y-14970151D01*
X97138233Y-14970154D01*
X97133251Y-14972477D01*
X97037930Y-15039222D01*
X96950211Y-15100643D01*
X96950208Y-15100645D01*
X96945700Y-15103802D01*
X96783802Y-15265700D01*
X96652477Y-15453251D01*
X96650154Y-15458233D01*
X96650151Y-15458238D01*
X96634195Y-15492457D01*
X96587278Y-15545742D01*
X96519001Y-15565203D01*
X96451041Y-15544661D01*
X96405805Y-15492457D01*
X96389849Y-15458238D01*
X96389846Y-15458233D01*
X96387523Y-15453251D01*
X96256198Y-15265700D01*
X96094300Y-15103802D01*
X96089792Y-15100645D01*
X96089789Y-15100643D01*
X96002070Y-15039222D01*
X95906749Y-14972477D01*
X95901767Y-14970154D01*
X95901762Y-14970151D01*
X95704225Y-14878039D01*
X95704224Y-14878039D01*
X95699243Y-14875716D01*
X95693935Y-14874294D01*
X95693933Y-14874293D01*
X95483402Y-14817881D01*
X95483400Y-14817881D01*
X95478087Y-14816457D01*
X95250000Y-14796502D01*
X95021913Y-14816457D01*
X95016600Y-14817881D01*
X95016598Y-14817881D01*
X94806067Y-14874293D01*
X94806065Y-14874294D01*
X94800757Y-14875716D01*
X94795776Y-14878039D01*
X94795775Y-14878039D01*
X94598238Y-14970151D01*
X94598233Y-14970154D01*
X94593251Y-14972477D01*
X94497930Y-15039222D01*
X94410211Y-15100643D01*
X94410208Y-15100645D01*
X94405700Y-15103802D01*
X94243802Y-15265700D01*
X94112477Y-15453251D01*
X94110154Y-15458233D01*
X94110151Y-15458238D01*
X94094195Y-15492457D01*
X94047278Y-15545742D01*
X93979001Y-15565203D01*
X93911041Y-15544661D01*
X93865805Y-15492457D01*
X93849849Y-15458238D01*
X93849846Y-15458233D01*
X93847523Y-15453251D01*
X93716198Y-15265700D01*
X93554300Y-15103802D01*
X93549792Y-15100645D01*
X93549789Y-15100643D01*
X93397229Y-14993819D01*
X93352901Y-14938362D01*
X93343500Y-14890606D01*
X93343500Y-10509394D01*
X93363502Y-10441273D01*
X93397229Y-10406181D01*
X93549789Y-10299357D01*
X93549792Y-10299355D01*
X93554300Y-10296198D01*
X93716198Y-10134300D01*
X93768988Y-10058909D01*
X93805592Y-10006632D01*
X93847523Y-9946749D01*
X93849846Y-9941767D01*
X93849849Y-9941762D01*
X93865805Y-9907543D01*
X93912722Y-9854258D01*
X93980999Y-9834797D01*
X94048959Y-9855339D01*
X94094195Y-9907543D01*
X94110151Y-9941762D01*
X94110154Y-9941767D01*
X94112477Y-9946749D01*
X94154408Y-10006632D01*
X94191013Y-10058909D01*
X94243802Y-10134300D01*
X94405700Y-10296198D01*
X94410208Y-10299355D01*
X94410211Y-10299357D01*
X94415027Y-10302729D01*
X94593251Y-10427523D01*
X94598233Y-10429846D01*
X94598238Y-10429849D01*
X94739417Y-10495681D01*
X94800757Y-10524284D01*
X94806065Y-10525706D01*
X94806067Y-10525707D01*
X95016598Y-10582119D01*
X95016600Y-10582119D01*
X95021913Y-10583543D01*
X95250000Y-10603498D01*
X95478087Y-10583543D01*
X95483400Y-10582119D01*
X95483402Y-10582119D01*
X95693933Y-10525707D01*
X95693935Y-10525706D01*
X95699243Y-10524284D01*
X95760583Y-10495681D01*
X95901762Y-10429849D01*
X95901767Y-10429846D01*
X95906749Y-10427523D01*
X96084973Y-10302729D01*
X96089789Y-10299357D01*
X96089792Y-10299355D01*
X96094300Y-10296198D01*
X96256198Y-10134300D01*
X96308988Y-10058909D01*
X96345592Y-10006632D01*
X96387523Y-9946749D01*
X96389846Y-9941767D01*
X96389849Y-9941762D01*
X96405805Y-9907543D01*
X96452722Y-9854258D01*
X96520999Y-9834797D01*
X96588959Y-9855339D01*
X96634195Y-9907543D01*
X96650151Y-9941762D01*
X96650154Y-9941767D01*
X96652477Y-9946749D01*
X96694408Y-10006632D01*
X96731013Y-10058909D01*
X96783802Y-10134300D01*
X96945700Y-10296198D01*
X96950208Y-10299355D01*
X96950211Y-10299357D01*
X96955027Y-10302729D01*
X97133251Y-10427523D01*
X97138233Y-10429846D01*
X97138238Y-10429849D01*
X97279417Y-10495681D01*
X97340757Y-10524284D01*
X97346065Y-10525706D01*
X97346067Y-10525707D01*
X97556598Y-10582119D01*
X97556600Y-10582119D01*
X97561913Y-10583543D01*
X97790000Y-10603498D01*
X98018087Y-10583543D01*
X98023400Y-10582119D01*
X98023402Y-10582119D01*
X98233933Y-10525707D01*
X98233935Y-10525706D01*
X98239243Y-10524284D01*
X98300583Y-10495681D01*
X98441762Y-10429849D01*
X98441767Y-10429846D01*
X98446749Y-10427523D01*
X98624973Y-10302729D01*
X98629789Y-10299357D01*
X98629792Y-10299355D01*
X98634300Y-10296198D01*
X98796198Y-10134300D01*
X98848988Y-10058909D01*
X98885592Y-10006632D01*
X98927523Y-9946749D01*
X98929846Y-9941767D01*
X98929849Y-9941762D01*
X98945805Y-9907543D01*
X98992722Y-9854258D01*
X99060999Y-9834797D01*
X99128959Y-9855339D01*
X99174195Y-9907543D01*
X99190151Y-9941762D01*
X99190154Y-9941767D01*
X99192477Y-9946749D01*
X99234408Y-10006632D01*
X99271013Y-10058909D01*
X99323802Y-10134300D01*
X99485700Y-10296198D01*
X99490208Y-10299355D01*
X99490211Y-10299357D01*
X99495027Y-10302729D01*
X99673251Y-10427523D01*
X99678233Y-10429846D01*
X99678238Y-10429849D01*
X99819417Y-10495681D01*
X99880757Y-10524284D01*
X99886065Y-10525706D01*
X99886067Y-10525707D01*
X100096598Y-10582119D01*
X100096600Y-10582119D01*
X100101913Y-10583543D01*
X100330000Y-10603498D01*
X100558087Y-10583543D01*
X100563400Y-10582119D01*
X100563402Y-10582119D01*
X100773933Y-10525707D01*
X100773935Y-10525706D01*
X100779243Y-10524284D01*
X100840583Y-10495681D01*
X100981762Y-10429849D01*
X100981767Y-10429846D01*
X100986749Y-10427523D01*
X101164973Y-10302729D01*
X101169789Y-10299357D01*
X101169792Y-10299355D01*
X101174300Y-10296198D01*
X101336198Y-10134300D01*
X101388988Y-10058909D01*
X101425592Y-10006632D01*
X101467523Y-9946749D01*
X101469846Y-9941767D01*
X101469849Y-9941762D01*
X101485805Y-9907543D01*
X101532722Y-9854258D01*
X101600999Y-9834797D01*
X101668959Y-9855339D01*
X101714195Y-9907543D01*
X101730151Y-9941762D01*
X101730154Y-9941767D01*
X101732477Y-9946749D01*
X101774408Y-10006632D01*
X101811013Y-10058909D01*
X101863802Y-10134300D01*
X102025700Y-10296198D01*
X102030208Y-10299355D01*
X102030211Y-10299357D01*
X102035027Y-10302729D01*
X102213251Y-10427523D01*
X102218233Y-10429846D01*
X102218238Y-10429849D01*
X102359417Y-10495681D01*
X102420757Y-10524284D01*
X102426065Y-10525706D01*
X102426067Y-10525707D01*
X102636598Y-10582119D01*
X102636600Y-10582119D01*
X102641913Y-10583543D01*
X102870000Y-10603498D01*
X103098087Y-10583543D01*
X103103400Y-10582119D01*
X103103402Y-10582119D01*
X103313933Y-10525707D01*
X103313935Y-10525706D01*
X103319243Y-10524284D01*
X103380583Y-10495681D01*
X103521762Y-10429849D01*
X103521767Y-10429846D01*
X103526749Y-10427523D01*
X103704973Y-10302729D01*
X103709789Y-10299357D01*
X103709792Y-10299355D01*
X103714300Y-10296198D01*
X103876198Y-10134300D01*
X103928988Y-10058909D01*
X103965592Y-10006632D01*
X104007523Y-9946749D01*
X104009846Y-9941767D01*
X104009849Y-9941762D01*
X104025805Y-9907543D01*
X104072722Y-9854258D01*
X104140999Y-9834797D01*
X104208959Y-9855339D01*
X104254195Y-9907543D01*
X104270151Y-9941762D01*
X104270154Y-9941767D01*
X104272477Y-9946749D01*
X104314408Y-10006632D01*
X104351013Y-10058909D01*
X104403802Y-10134300D01*
X104565700Y-10296198D01*
X104570208Y-10299355D01*
X104570211Y-10299357D01*
X104575027Y-10302729D01*
X104753251Y-10427523D01*
X104758233Y-10429846D01*
X104758238Y-10429849D01*
X104899417Y-10495681D01*
X104960757Y-10524284D01*
X104966065Y-10525706D01*
X104966067Y-10525707D01*
X105001604Y-10535229D01*
X105112000Y-10564810D01*
X105172622Y-10601761D01*
X105203643Y-10665621D01*
X105195215Y-10736116D01*
X105168483Y-10775611D01*
X104930499Y-11013595D01*
X104868187Y-11047621D01*
X104841404Y-11050500D01*
X96720200Y-11050500D01*
X96652079Y-11030498D01*
X96632853Y-11014157D01*
X96632580Y-11014460D01*
X96627668Y-11010037D01*
X96623253Y-11005134D01*
X96468752Y-10892882D01*
X96462724Y-10890198D01*
X96462722Y-10890197D01*
X96300319Y-10817891D01*
X96300318Y-10817891D01*
X96294288Y-10815206D01*
X96200888Y-10795353D01*
X96113944Y-10776872D01*
X96113939Y-10776872D01*
X96107487Y-10775500D01*
X95916513Y-10775500D01*
X95910061Y-10776872D01*
X95910056Y-10776872D01*
X95823112Y-10795353D01*
X95729712Y-10815206D01*
X95723682Y-10817891D01*
X95723681Y-10817891D01*
X95561278Y-10890197D01*
X95561276Y-10890198D01*
X95555248Y-10892882D01*
X95400747Y-11005134D01*
X95396326Y-11010044D01*
X95396325Y-11010045D01*
X95362492Y-11047621D01*
X95272960Y-11147056D01*
X95177473Y-11312444D01*
X95118458Y-11494072D01*
X95117768Y-11500633D01*
X95117768Y-11500635D01*
X95104722Y-11624767D01*
X95098496Y-11684000D01*
X95118458Y-11873928D01*
X95177473Y-12055556D01*
X95180776Y-12061278D01*
X95180777Y-12061279D01*
X95197277Y-12089857D01*
X95272960Y-12220944D01*
X95277378Y-12225851D01*
X95277379Y-12225852D01*
X95359452Y-12317003D01*
X95400747Y-12362866D01*
X95499843Y-12434864D01*
X95544803Y-12467529D01*
X95555248Y-12475118D01*
X95561276Y-12477802D01*
X95561278Y-12477803D01*
X95721734Y-12549242D01*
X95729712Y-12552794D01*
X95818286Y-12571621D01*
X95910056Y-12591128D01*
X95910061Y-12591128D01*
X95916513Y-12592500D01*
X96107487Y-12592500D01*
X96113939Y-12591128D01*
X96113944Y-12591128D01*
X96205714Y-12571621D01*
X96294288Y-12552794D01*
X96302266Y-12549242D01*
X96462722Y-12477803D01*
X96462724Y-12477802D01*
X96468752Y-12475118D01*
X96479198Y-12467529D01*
X96601671Y-12378546D01*
X96623253Y-12362866D01*
X96627668Y-12357963D01*
X96632580Y-12353540D01*
X96633705Y-12354789D01*
X96687014Y-12321949D01*
X96720200Y-12317500D01*
X105077233Y-12317500D01*
X105088416Y-12318027D01*
X105095909Y-12319702D01*
X105103835Y-12319453D01*
X105103836Y-12319453D01*
X105163986Y-12317562D01*
X105167945Y-12317500D01*
X105195856Y-12317500D01*
X105199791Y-12317003D01*
X105199856Y-12316995D01*
X105211693Y-12316062D01*
X105243951Y-12315048D01*
X105247970Y-12314922D01*
X105255889Y-12314673D01*
X105275343Y-12309021D01*
X105294700Y-12305013D01*
X105306930Y-12303468D01*
X105306931Y-12303468D01*
X105314797Y-12302474D01*
X105322168Y-12299555D01*
X105322170Y-12299555D01*
X105355912Y-12286196D01*
X105367142Y-12282351D01*
X105401983Y-12272229D01*
X105401984Y-12272229D01*
X105409593Y-12270018D01*
X105416412Y-12265985D01*
X105416417Y-12265983D01*
X105427028Y-12259707D01*
X105444776Y-12251012D01*
X105463617Y-12243552D01*
X105499387Y-12217564D01*
X105509307Y-12211048D01*
X105540535Y-12192580D01*
X105540538Y-12192578D01*
X105547362Y-12188542D01*
X105561683Y-12174221D01*
X105576717Y-12161380D01*
X105586694Y-12154131D01*
X105593107Y-12149472D01*
X105621298Y-12115395D01*
X105629288Y-12106616D01*
X107100499Y-10635405D01*
X107162811Y-10601379D01*
X107189594Y-10598500D01*
X108798134Y-10598500D01*
X108860316Y-10591745D01*
X108996705Y-10540615D01*
X109113261Y-10453261D01*
X109200615Y-10336705D01*
X109251745Y-10200316D01*
X109251779Y-10200000D01*
X110446502Y-10200000D01*
X110466457Y-10428087D01*
X110467881Y-10433400D01*
X110467881Y-10433402D01*
X110515344Y-10610533D01*
X110525716Y-10649243D01*
X110528039Y-10654224D01*
X110528039Y-10654225D01*
X110620151Y-10851762D01*
X110620154Y-10851767D01*
X110622477Y-10856749D01*
X110645898Y-10890197D01*
X110744138Y-11030498D01*
X110753802Y-11044300D01*
X110915700Y-11206198D01*
X110920208Y-11209355D01*
X110920211Y-11209357D01*
X110998389Y-11264098D01*
X111103251Y-11337523D01*
X111108233Y-11339846D01*
X111108238Y-11339849D01*
X111294377Y-11426646D01*
X111310757Y-11434284D01*
X111316065Y-11435706D01*
X111316067Y-11435707D01*
X111526598Y-11492119D01*
X111526600Y-11492119D01*
X111531913Y-11493543D01*
X111760000Y-11513498D01*
X111988087Y-11493543D01*
X111993400Y-11492119D01*
X111993402Y-11492119D01*
X112203933Y-11435707D01*
X112203935Y-11435706D01*
X112209243Y-11434284D01*
X112225623Y-11426646D01*
X112411762Y-11339849D01*
X112411767Y-11339846D01*
X112416749Y-11337523D01*
X112521611Y-11264098D01*
X112599789Y-11209357D01*
X112599792Y-11209355D01*
X112604300Y-11206198D01*
X112766198Y-11044300D01*
X112775863Y-11030498D01*
X112874102Y-10890197D01*
X112897523Y-10856749D01*
X112899846Y-10851767D01*
X112899849Y-10851762D01*
X112991961Y-10654225D01*
X112991961Y-10654224D01*
X112994284Y-10649243D01*
X113004657Y-10610533D01*
X113052119Y-10433402D01*
X113052119Y-10433400D01*
X113053543Y-10428087D01*
X113073498Y-10200000D01*
X113053543Y-9971913D01*
X113029119Y-9880763D01*
X112995707Y-9756067D01*
X112995706Y-9756065D01*
X112994284Y-9750757D01*
X112970145Y-9698990D01*
X112899849Y-9548238D01*
X112899846Y-9548233D01*
X112897523Y-9543251D01*
X112791483Y-9391811D01*
X112769357Y-9360211D01*
X112769355Y-9360208D01*
X112766198Y-9355700D01*
X112604300Y-9193802D01*
X112599792Y-9190645D01*
X112599789Y-9190643D01*
X112441367Y-9079715D01*
X112416749Y-9062477D01*
X112411767Y-9060154D01*
X112411762Y-9060151D01*
X112214225Y-8968039D01*
X112214224Y-8968039D01*
X112209243Y-8965716D01*
X112203935Y-8964294D01*
X112203933Y-8964293D01*
X111993402Y-8907881D01*
X111993400Y-8907881D01*
X111988087Y-8906457D01*
X111760000Y-8886502D01*
X111531913Y-8906457D01*
X111526600Y-8907881D01*
X111526598Y-8907881D01*
X111316067Y-8964293D01*
X111316065Y-8964294D01*
X111310757Y-8965716D01*
X111305776Y-8968039D01*
X111305775Y-8968039D01*
X111108238Y-9060151D01*
X111108233Y-9060154D01*
X111103251Y-9062477D01*
X111078633Y-9079715D01*
X110920211Y-9190643D01*
X110920208Y-9190645D01*
X110915700Y-9193802D01*
X110753802Y-9355700D01*
X110750645Y-9360208D01*
X110750643Y-9360211D01*
X110728517Y-9391811D01*
X110622477Y-9543251D01*
X110620154Y-9548233D01*
X110620151Y-9548238D01*
X110549855Y-9698990D01*
X110525716Y-9750757D01*
X110524294Y-9756065D01*
X110524293Y-9756067D01*
X110490881Y-9880763D01*
X110466457Y-9971913D01*
X110446502Y-10200000D01*
X109251779Y-10200000D01*
X109258500Y-10138134D01*
X109258500Y-7641866D01*
X109251745Y-7579684D01*
X109200615Y-7443295D01*
X109113261Y-7326739D01*
X108996705Y-7239385D01*
X108860316Y-7188255D01*
X108798134Y-7181500D01*
X107101866Y-7181500D01*
X107039684Y-7188255D01*
X106903295Y-7239385D01*
X106786739Y-7326739D01*
X106699385Y-7443295D01*
X106648255Y-7579684D01*
X106647083Y-7590474D01*
X106646197Y-7592606D01*
X106645575Y-7595222D01*
X106645152Y-7595121D01*
X106619845Y-7656035D01*
X106561483Y-7696463D01*
X106490529Y-7698922D01*
X106429510Y-7662629D01*
X106422511Y-7653969D01*
X106419354Y-7650207D01*
X106416198Y-7645700D01*
X106254300Y-7483802D01*
X106249792Y-7480645D01*
X106249789Y-7480643D01*
X106116808Y-7387529D01*
X106066749Y-7352477D01*
X106061767Y-7350154D01*
X106061762Y-7350151D01*
X105864225Y-7258039D01*
X105864224Y-7258039D01*
X105859243Y-7255716D01*
X105853935Y-7254294D01*
X105853933Y-7254293D01*
X105643402Y-7197881D01*
X105643400Y-7197881D01*
X105638087Y-7196457D01*
X105410000Y-7176502D01*
X105181913Y-7196457D01*
X105176600Y-7197881D01*
X105176598Y-7197881D01*
X104966067Y-7254293D01*
X104966065Y-7254294D01*
X104960757Y-7255716D01*
X104955776Y-7258039D01*
X104955775Y-7258039D01*
X104758238Y-7350151D01*
X104758233Y-7350154D01*
X104753251Y-7352477D01*
X104703192Y-7387529D01*
X104570211Y-7480643D01*
X104570208Y-7480645D01*
X104565700Y-7483802D01*
X104403802Y-7645700D01*
X104272477Y-7833251D01*
X104270154Y-7838233D01*
X104270151Y-7838238D01*
X104254195Y-7872457D01*
X104207278Y-7925742D01*
X104139001Y-7945203D01*
X104071041Y-7924661D01*
X104025805Y-7872457D01*
X104009849Y-7838238D01*
X104009846Y-7838233D01*
X104007523Y-7833251D01*
X103876198Y-7645700D01*
X103714300Y-7483802D01*
X103709792Y-7480645D01*
X103709789Y-7480643D01*
X103576808Y-7387529D01*
X103526749Y-7352477D01*
X103521767Y-7350154D01*
X103521762Y-7350151D01*
X103324225Y-7258039D01*
X103324224Y-7258039D01*
X103319243Y-7255716D01*
X103313935Y-7254294D01*
X103313933Y-7254293D01*
X103103402Y-7197881D01*
X103103400Y-7197881D01*
X103098087Y-7196457D01*
X102870000Y-7176502D01*
X102641913Y-7196457D01*
X102636600Y-7197881D01*
X102636598Y-7197881D01*
X102426067Y-7254293D01*
X102426065Y-7254294D01*
X102420757Y-7255716D01*
X102415776Y-7258039D01*
X102415775Y-7258039D01*
X102397338Y-7266636D01*
X102303528Y-7310380D01*
X102233338Y-7321041D01*
X102168526Y-7292061D01*
X102161185Y-7285280D01*
X97023652Y-2147747D01*
X97016112Y-2139461D01*
X97012000Y-2132982D01*
X96962348Y-2086356D01*
X96959507Y-2083602D01*
X96939770Y-2063865D01*
X96936573Y-2061385D01*
X96927551Y-2053680D01*
X96914116Y-2041064D01*
X96895321Y-2023414D01*
X96888375Y-2019595D01*
X96888372Y-2019593D01*
X96877566Y-2013652D01*
X96861047Y-2002801D01*
X96860583Y-2002441D01*
X96845041Y-1990386D01*
X96837772Y-1987241D01*
X96837768Y-1987238D01*
X96804463Y-1972826D01*
X96793813Y-1967609D01*
X96755060Y-1946305D01*
X96735437Y-1941267D01*
X96716734Y-1934863D01*
X96705420Y-1929967D01*
X96705419Y-1929967D01*
X96698145Y-1926819D01*
X96690322Y-1925580D01*
X96690312Y-1925577D01*
X96654476Y-1919901D01*
X96642856Y-1917495D01*
X96607711Y-1908472D01*
X96607710Y-1908472D01*
X96600030Y-1906500D01*
X96579776Y-1906500D01*
X96560065Y-1904949D01*
X96547886Y-1903020D01*
X96540057Y-1901780D01*
X96510786Y-1904547D01*
X96496039Y-1905941D01*
X96484181Y-1906500D01*
X26113767Y-1906500D01*
X26102584Y-1905973D01*
X26095091Y-1904298D01*
X26087165Y-1904547D01*
X26087164Y-1904547D01*
X26027014Y-1906438D01*
X26023055Y-1906500D01*
X25995144Y-1906500D01*
X25991210Y-1906997D01*
X25991209Y-1906997D01*
X25991144Y-1907005D01*
X25979307Y-1907938D01*
X25947490Y-1908938D01*
X25943029Y-1909078D01*
X25935110Y-1909327D01*
X25917454Y-1914456D01*
X25915658Y-1914978D01*
X25896306Y-1918986D01*
X25889235Y-1919880D01*
X25876203Y-1921526D01*
X25868834Y-1924443D01*
X25868832Y-1924444D01*
X25835097Y-1937800D01*
X25823869Y-1941645D01*
X25781407Y-1953982D01*
X25774585Y-1958016D01*
X25774579Y-1958019D01*
X25763968Y-1964294D01*
X25746218Y-1972990D01*
X25734756Y-1977528D01*
X25734751Y-1977531D01*
X25727383Y-1980448D01*
X25709970Y-1993099D01*
X25691625Y-2006427D01*
X25681707Y-2012943D01*
X25679785Y-2014080D01*
X25643637Y-2035458D01*
X25629313Y-2049782D01*
X25614281Y-2062621D01*
X25597893Y-2074528D01*
X25569712Y-2108593D01*
X25561722Y-2117373D01*
X21429388Y-6249707D01*
X21367076Y-6283733D01*
X21296261Y-6278668D01*
X21239425Y-6236121D01*
X21214983Y-6173783D01*
X21214232Y-6166635D01*
X21214232Y-6166633D01*
X21213542Y-6160072D01*
X21154527Y-5978444D01*
X21059040Y-5813056D01*
X20992029Y-5738632D01*
X20935675Y-5676045D01*
X20935674Y-5676044D01*
X20931253Y-5671134D01*
X20776752Y-5558882D01*
X20770724Y-5556198D01*
X20770722Y-5556197D01*
X20608319Y-5483891D01*
X20608318Y-5483891D01*
X20602288Y-5481206D01*
X20508888Y-5461353D01*
X20421944Y-5442872D01*
X20421939Y-5442872D01*
X20415487Y-5441500D01*
X20224513Y-5441500D01*
X20218061Y-5442872D01*
X20218056Y-5442872D01*
X20131113Y-5461353D01*
X20037712Y-5481206D01*
X20031682Y-5483891D01*
X20031681Y-5483891D01*
X19869278Y-5556197D01*
X19869276Y-5556198D01*
X19863248Y-5558882D01*
X19708747Y-5671134D01*
X19704332Y-5676037D01*
X19699420Y-5680460D01*
X19698295Y-5679211D01*
X19644986Y-5712051D01*
X19611800Y-5716500D01*
X7856805Y-5716500D01*
X7788684Y-5696498D01*
X7751013Y-5658940D01*
X7662822Y-5522617D01*
X7662820Y-5522614D01*
X7660014Y-5518277D01*
X7509670Y-5353051D01*
X7505619Y-5349852D01*
X7505615Y-5349848D01*
X7338414Y-5217800D01*
X7338410Y-5217798D01*
X7334359Y-5214598D01*
X7293053Y-5191796D01*
X7243084Y-5141364D01*
X7228312Y-5071921D01*
X7253428Y-5005516D01*
X7280780Y-4978909D01*
X7324603Y-4947650D01*
X7459860Y-4851173D01*
X7618096Y-4693489D01*
X7677594Y-4610689D01*
X7745435Y-4516277D01*
X7748453Y-4512077D01*
X7769320Y-4469857D01*
X7845136Y-4316453D01*
X7845137Y-4316451D01*
X7847430Y-4311811D01*
X7912370Y-4098069D01*
X7941529Y-3876590D01*
X7943156Y-3810000D01*
X7924852Y-3587361D01*
X7870431Y-3370702D01*
X7781354Y-3165840D01*
X7660014Y-2978277D01*
X7509670Y-2813051D01*
X7505619Y-2809852D01*
X7505615Y-2809848D01*
X7338414Y-2677800D01*
X7338410Y-2677798D01*
X7334359Y-2674598D01*
X7293053Y-2651796D01*
X7243084Y-2601364D01*
X7228312Y-2531921D01*
X7253428Y-2465516D01*
X7280780Y-2438909D01*
X7324603Y-2407650D01*
X7459860Y-2311173D01*
X7496390Y-2274771D01*
X7614435Y-2157137D01*
X7618096Y-2153489D01*
X7626710Y-2141502D01*
X7745435Y-1976277D01*
X7748453Y-1972077D01*
X7758489Y-1951772D01*
X7845136Y-1776453D01*
X7845137Y-1776451D01*
X7847430Y-1771811D01*
X7912370Y-1558069D01*
X7941529Y-1336590D01*
X7942458Y-1298565D01*
X7943074Y-1273365D01*
X7943074Y-1273361D01*
X7943156Y-1270000D01*
X7924852Y-1047361D01*
X7870431Y-830702D01*
X7848997Y-781406D01*
X7806748Y-684243D01*
X7797927Y-613796D01*
X7828594Y-549764D01*
X7889010Y-512476D01*
X7922297Y-508000D01*
X149810672Y-508000D01*
X149830057Y-509500D01*
G37*
%TD.AperFunction*%
%TD*%
M02*
