%TF.GenerationSoftware,KiCad,Pcbnew,(6.0.1)*%
%TF.CreationDate,2022-07-04T18:11:20+02:00*%
%TF.ProjectId,bus,6275732e-6b69-4636-9164-5f7063625858,rev?*%
%TF.SameCoordinates,Original*%
%TF.FileFunction,Soldermask,Bot*%
%TF.FilePolarity,Negative*%
%FSLAX46Y46*%
G04 Gerber Fmt 4.6, Leading zero omitted, Abs format (unit mm)*
G04 Created by KiCad (PCBNEW (6.0.1)) date 2022-07-04 18:11:20*
%MOMM*%
%LPD*%
G01*
G04 APERTURE LIST*
%ADD10R,1.800000X1.800000*%
%ADD11C,1.800000*%
%ADD12R,1.700000X1.700000*%
%ADD13O,1.700000X1.700000*%
%ADD14C,1.600000*%
%ADD15O,1.600000X1.600000*%
G04 APERTURE END LIST*
D10*
%TO.C,D2*%
X68580000Y10160000D03*
D11*
X71120000Y10160000D03*
%TD*%
D12*
%TO.C,J3*%
X6580000Y-303530000D03*
D13*
X4040000Y-303530000D03*
X6580000Y-300990000D03*
X4040000Y-300990000D03*
X6580000Y-298450000D03*
X4040000Y-298450000D03*
X6580000Y-295910000D03*
X4040000Y-295910000D03*
X6580000Y-293370000D03*
X4040000Y-293370000D03*
X6580000Y-290830000D03*
X4040000Y-290830000D03*
X6580000Y-288290000D03*
X4040000Y-288290000D03*
X6580000Y-285750000D03*
X4040000Y-285750000D03*
X6580000Y-283210000D03*
X4040000Y-283210000D03*
X6580000Y-280670000D03*
X4040000Y-280670000D03*
X6580000Y-278130000D03*
X4040000Y-278130000D03*
X6580000Y-275590000D03*
X4040000Y-275590000D03*
X6580000Y-273050000D03*
X4040000Y-273050000D03*
X6580000Y-270510000D03*
X4040000Y-270510000D03*
X6580000Y-267970000D03*
X4040000Y-267970000D03*
X6580000Y-265430000D03*
X4040000Y-265430000D03*
X6580000Y-262890000D03*
X4040000Y-262890000D03*
X6580000Y-260350000D03*
X4040000Y-260350000D03*
X6580000Y-257810000D03*
X4040000Y-257810000D03*
X6580000Y-255270000D03*
X4040000Y-255270000D03*
%TD*%
D12*
%TO.C,J1*%
X6580000Y-49530000D03*
D13*
X4040000Y-49530000D03*
X6580000Y-46990000D03*
X4040000Y-46990000D03*
X6580000Y-44450000D03*
X4040000Y-44450000D03*
X6580000Y-41910000D03*
X4040000Y-41910000D03*
X6580000Y-39370000D03*
X4040000Y-39370000D03*
X6580000Y-36830000D03*
X4040000Y-36830000D03*
X6580000Y-34290000D03*
X4040000Y-34290000D03*
X6580000Y-31750000D03*
X4040000Y-31750000D03*
X6580000Y-29210000D03*
X4040000Y-29210000D03*
X6580000Y-26670000D03*
X4040000Y-26670000D03*
X6580000Y-24130000D03*
X4040000Y-24130000D03*
X6580000Y-21590000D03*
X4040000Y-21590000D03*
X6580000Y-19050000D03*
X4040000Y-19050000D03*
X6580000Y-16510000D03*
X4040000Y-16510000D03*
X6580000Y-13970000D03*
X4040000Y-13970000D03*
X6580000Y-11430000D03*
X4040000Y-11430000D03*
X6580000Y-8890000D03*
X4040000Y-8890000D03*
X6580000Y-6350000D03*
X4040000Y-6350000D03*
X6580000Y-3810000D03*
X4040000Y-3810000D03*
X6580000Y-1270000D03*
X4040000Y-1270000D03*
%TD*%
D14*
%TO.C,R3*%
X60960000Y15240000D03*
D15*
X60960000Y22860000D03*
%TD*%
D12*
%TO.C,J9*%
X89200000Y-151130000D03*
D13*
X91740000Y-151130000D03*
X89200000Y-148590000D03*
X91740000Y-148590000D03*
X89200000Y-146050000D03*
X91740000Y-146050000D03*
X89200000Y-143510000D03*
X91740000Y-143510000D03*
X89200000Y-140970000D03*
X91740000Y-140970000D03*
X89200000Y-138430000D03*
X91740000Y-138430000D03*
X89200000Y-135890000D03*
X91740000Y-135890000D03*
X89200000Y-133350000D03*
X91740000Y-133350000D03*
X89200000Y-130810000D03*
X91740000Y-130810000D03*
X89200000Y-128270000D03*
X91740000Y-128270000D03*
X89200000Y-125730000D03*
X91740000Y-125730000D03*
X89200000Y-123190000D03*
X91740000Y-123190000D03*
X89200000Y-120650000D03*
X91740000Y-120650000D03*
X89200000Y-118110000D03*
X91740000Y-118110000D03*
X89200000Y-115570000D03*
X91740000Y-115570000D03*
X89200000Y-113030000D03*
X91740000Y-113030000D03*
X89200000Y-110490000D03*
X91740000Y-110490000D03*
X89200000Y-107950000D03*
X91740000Y-107950000D03*
X89200000Y-105410000D03*
X91740000Y-105410000D03*
X89200000Y-102870000D03*
X91740000Y-102870000D03*
%TD*%
D12*
%TO.C,J7*%
X89200000Y-49530000D03*
D13*
X91740000Y-49530000D03*
X89200000Y-46990000D03*
X91740000Y-46990000D03*
X89200000Y-44450000D03*
X91740000Y-44450000D03*
X89200000Y-41910000D03*
X91740000Y-41910000D03*
X89200000Y-39370000D03*
X91740000Y-39370000D03*
X89200000Y-36830000D03*
X91740000Y-36830000D03*
X89200000Y-34290000D03*
X91740000Y-34290000D03*
X89200000Y-31750000D03*
X91740000Y-31750000D03*
X89200000Y-29210000D03*
X91740000Y-29210000D03*
X89200000Y-26670000D03*
X91740000Y-26670000D03*
X89200000Y-24130000D03*
X91740000Y-24130000D03*
X89200000Y-21590000D03*
X91740000Y-21590000D03*
X89200000Y-19050000D03*
X91740000Y-19050000D03*
X89200000Y-16510000D03*
X91740000Y-16510000D03*
X89200000Y-13970000D03*
X91740000Y-13970000D03*
X89200000Y-11430000D03*
X91740000Y-11430000D03*
X89200000Y-8890000D03*
X91740000Y-8890000D03*
X89200000Y-6350000D03*
X91740000Y-6350000D03*
X89200000Y-3810000D03*
X91740000Y-3810000D03*
X89200000Y-1270000D03*
X91740000Y-1270000D03*
%TD*%
D10*
%TO.C,D8*%
X22860000Y10160000D03*
D11*
X25400000Y10160000D03*
%TD*%
D12*
%TO.C,J8*%
X89200000Y-100330000D03*
D13*
X91740000Y-100330000D03*
X89200000Y-97790000D03*
X91740000Y-97790000D03*
X89200000Y-95250000D03*
X91740000Y-95250000D03*
X89200000Y-92710000D03*
X91740000Y-92710000D03*
X89200000Y-90170000D03*
X91740000Y-90170000D03*
X89200000Y-87630000D03*
X91740000Y-87630000D03*
X89200000Y-85090000D03*
X91740000Y-85090000D03*
X89200000Y-82550000D03*
X91740000Y-82550000D03*
X89200000Y-80010000D03*
X91740000Y-80010000D03*
X89200000Y-77470000D03*
X91740000Y-77470000D03*
X89200000Y-74930000D03*
X91740000Y-74930000D03*
X89200000Y-72390000D03*
X91740000Y-72390000D03*
X89200000Y-69850000D03*
X91740000Y-69850000D03*
X89200000Y-67310000D03*
X91740000Y-67310000D03*
X89200000Y-64770000D03*
X91740000Y-64770000D03*
X89200000Y-62230000D03*
X91740000Y-62230000D03*
X89200000Y-59690000D03*
X91740000Y-59690000D03*
X89200000Y-57150000D03*
X91740000Y-57150000D03*
X89200000Y-54610000D03*
X91740000Y-54610000D03*
X89200000Y-52070000D03*
X91740000Y-52070000D03*
%TD*%
D10*
%TO.C,D1*%
X76200000Y10160000D03*
D11*
X78740000Y10160000D03*
%TD*%
D14*
%TO.C,R8*%
X22860000Y15240000D03*
D15*
X22860000Y22860000D03*
%TD*%
D14*
%TO.C,R4*%
X53340000Y15240000D03*
D15*
X53340000Y22860000D03*
%TD*%
D12*
%TO.C,J6*%
X74930000Y-349020000D03*
D13*
X74930000Y-351560000D03*
X72390000Y-349020000D03*
X72390000Y-351560000D03*
X69850000Y-349020000D03*
X69850000Y-351560000D03*
X67310000Y-349020000D03*
X67310000Y-351560000D03*
X64770000Y-349020000D03*
X64770000Y-351560000D03*
X62230000Y-349020000D03*
X62230000Y-351560000D03*
X59690000Y-349020000D03*
X59690000Y-351560000D03*
X57150000Y-349020000D03*
X57150000Y-351560000D03*
X54610000Y-349020000D03*
X54610000Y-351560000D03*
X52070000Y-349020000D03*
X52070000Y-351560000D03*
X49530000Y-349020000D03*
X49530000Y-351560000D03*
X46990000Y-349020000D03*
X46990000Y-351560000D03*
X44450000Y-349020000D03*
X44450000Y-351560000D03*
X41910000Y-349020000D03*
X41910000Y-351560000D03*
X39370000Y-349020000D03*
X39370000Y-351560000D03*
X36830000Y-349020000D03*
X36830000Y-351560000D03*
X34290000Y-349020000D03*
X34290000Y-351560000D03*
X31750000Y-349020000D03*
X31750000Y-351560000D03*
X29210000Y-349020000D03*
X29210000Y-351560000D03*
X26670000Y-349020000D03*
X26670000Y-351560000D03*
%TD*%
D14*
%TO.C,R7*%
X30480000Y15240000D03*
D15*
X30480000Y22860000D03*
%TD*%
D14*
%TO.C,R2*%
X68580000Y15240000D03*
D15*
X68580000Y22860000D03*
%TD*%
D14*
%TO.C,R5*%
X45720000Y15240000D03*
D15*
X45720000Y22860000D03*
%TD*%
D12*
%TO.C,J11*%
X89200000Y-354330000D03*
D13*
X91740000Y-354330000D03*
X89200000Y-351790000D03*
X91740000Y-351790000D03*
X89200000Y-349250000D03*
X91740000Y-349250000D03*
X89200000Y-346710000D03*
X91740000Y-346710000D03*
X89200000Y-344170000D03*
X91740000Y-344170000D03*
X89200000Y-341630000D03*
X91740000Y-341630000D03*
X89200000Y-339090000D03*
X91740000Y-339090000D03*
X89200000Y-336550000D03*
X91740000Y-336550000D03*
X89200000Y-334010000D03*
X91740000Y-334010000D03*
X89200000Y-331470000D03*
X91740000Y-331470000D03*
X89200000Y-328930000D03*
X91740000Y-328930000D03*
X89200000Y-326390000D03*
X91740000Y-326390000D03*
X89200000Y-323850000D03*
X91740000Y-323850000D03*
X89200000Y-321310000D03*
X91740000Y-321310000D03*
X89200000Y-318770000D03*
X91740000Y-318770000D03*
X89200000Y-316230000D03*
X91740000Y-316230000D03*
X89200000Y-313690000D03*
X91740000Y-313690000D03*
X89200000Y-311150000D03*
X91740000Y-311150000D03*
X89200000Y-308610000D03*
X91740000Y-308610000D03*
X89200000Y-306070000D03*
X91740000Y-306070000D03*
%TD*%
D10*
%TO.C,D5*%
X45720000Y10160000D03*
D11*
X48260000Y10160000D03*
%TD*%
D10*
%TO.C,D4*%
X53340000Y10160000D03*
D11*
X55880000Y10160000D03*
%TD*%
D10*
%TO.C,D3*%
X60960000Y10160000D03*
D11*
X63500000Y10160000D03*
%TD*%
D12*
%TO.C,J5*%
X6580000Y-354330000D03*
D13*
X4040000Y-354330000D03*
X6580000Y-351790000D03*
X4040000Y-351790000D03*
X6580000Y-349250000D03*
X4040000Y-349250000D03*
X6580000Y-346710000D03*
X4040000Y-346710000D03*
X6580000Y-344170000D03*
X4040000Y-344170000D03*
X6580000Y-341630000D03*
X4040000Y-341630000D03*
X6580000Y-339090000D03*
X4040000Y-339090000D03*
X6580000Y-336550000D03*
X4040000Y-336550000D03*
X6580000Y-334010000D03*
X4040000Y-334010000D03*
X6580000Y-331470000D03*
X4040000Y-331470000D03*
X6580000Y-328930000D03*
X4040000Y-328930000D03*
X6580000Y-326390000D03*
X4040000Y-326390000D03*
X6580000Y-323850000D03*
X4040000Y-323850000D03*
X6580000Y-321310000D03*
X4040000Y-321310000D03*
X6580000Y-318770000D03*
X4040000Y-318770000D03*
X6580000Y-316230000D03*
X4040000Y-316230000D03*
X6580000Y-313690000D03*
X4040000Y-313690000D03*
X6580000Y-311150000D03*
X4040000Y-311150000D03*
X6580000Y-308610000D03*
X4040000Y-308610000D03*
X6580000Y-306070000D03*
X4040000Y-306070000D03*
%TD*%
D14*
%TO.C,R1*%
X76200000Y15240000D03*
D15*
X76200000Y22860000D03*
%TD*%
D10*
%TO.C,D6*%
X38100000Y10160000D03*
D11*
X40640000Y10160000D03*
%TD*%
D10*
%TO.C,D7*%
X30480000Y10160000D03*
D11*
X33020000Y10160000D03*
%TD*%
D14*
%TO.C,R6*%
X38100000Y15240000D03*
D15*
X38100000Y22860000D03*
%TD*%
D12*
%TO.C,J10*%
X89200000Y-252730000D03*
D13*
X91740000Y-252730000D03*
X89200000Y-250190000D03*
X91740000Y-250190000D03*
X89200000Y-247650000D03*
X91740000Y-247650000D03*
X89200000Y-245110000D03*
X91740000Y-245110000D03*
X89200000Y-242570000D03*
X91740000Y-242570000D03*
X89200000Y-240030000D03*
X91740000Y-240030000D03*
X89200000Y-237490000D03*
X91740000Y-237490000D03*
X89200000Y-234950000D03*
X91740000Y-234950000D03*
X89200000Y-232410000D03*
X91740000Y-232410000D03*
X89200000Y-229870000D03*
X91740000Y-229870000D03*
X89200000Y-227330000D03*
X91740000Y-227330000D03*
X89200000Y-224790000D03*
X91740000Y-224790000D03*
X89200000Y-222250000D03*
X91740000Y-222250000D03*
X89200000Y-219710000D03*
X91740000Y-219710000D03*
X89200000Y-217170000D03*
X91740000Y-217170000D03*
X89200000Y-214630000D03*
X91740000Y-214630000D03*
X89200000Y-212090000D03*
X91740000Y-212090000D03*
X89200000Y-209550000D03*
X91740000Y-209550000D03*
X89200000Y-207010000D03*
X91740000Y-207010000D03*
X89200000Y-204470000D03*
X91740000Y-204470000D03*
%TD*%
D12*
%TO.C,J2*%
X6580000Y-100330000D03*
D13*
X4040000Y-100330000D03*
X6580000Y-97790000D03*
X4040000Y-97790000D03*
X6580000Y-95250000D03*
X4040000Y-95250000D03*
X6580000Y-92710000D03*
X4040000Y-92710000D03*
X6580000Y-90170000D03*
X4040000Y-90170000D03*
X6580000Y-87630000D03*
X4040000Y-87630000D03*
X6580000Y-85090000D03*
X4040000Y-85090000D03*
X6580000Y-82550000D03*
X4040000Y-82550000D03*
X6580000Y-80010000D03*
X4040000Y-80010000D03*
X6580000Y-77470000D03*
X4040000Y-77470000D03*
X6580000Y-74930000D03*
X4040000Y-74930000D03*
X6580000Y-72390000D03*
X4040000Y-72390000D03*
X6580000Y-69850000D03*
X4040000Y-69850000D03*
X6580000Y-67310000D03*
X4040000Y-67310000D03*
X6580000Y-64770000D03*
X4040000Y-64770000D03*
X6580000Y-62230000D03*
X4040000Y-62230000D03*
X6580000Y-59690000D03*
X4040000Y-59690000D03*
X6580000Y-57150000D03*
X4040000Y-57150000D03*
X6580000Y-54610000D03*
X4040000Y-54610000D03*
X6580000Y-52070000D03*
X4040000Y-52070000D03*
%TD*%
D12*
%TO.C,J4*%
X6580000Y-201930000D03*
D13*
X4040000Y-201930000D03*
X6580000Y-199390000D03*
X4040000Y-199390000D03*
X6580000Y-196850000D03*
X4040000Y-196850000D03*
X6580000Y-194310000D03*
X4040000Y-194310000D03*
X6580000Y-191770000D03*
X4040000Y-191770000D03*
X6580000Y-189230000D03*
X4040000Y-189230000D03*
X6580000Y-186690000D03*
X4040000Y-186690000D03*
X6580000Y-184150000D03*
X4040000Y-184150000D03*
X6580000Y-181610000D03*
X4040000Y-181610000D03*
X6580000Y-179070000D03*
X4040000Y-179070000D03*
X6580000Y-176530000D03*
X4040000Y-176530000D03*
X6580000Y-173990000D03*
X4040000Y-173990000D03*
X6580000Y-171450000D03*
X4040000Y-171450000D03*
X6580000Y-168910000D03*
X4040000Y-168910000D03*
X6580000Y-166370000D03*
X4040000Y-166370000D03*
X6580000Y-163830000D03*
X4040000Y-163830000D03*
X6580000Y-161290000D03*
X4040000Y-161290000D03*
X6580000Y-158750000D03*
X4040000Y-158750000D03*
X6580000Y-156210000D03*
X4040000Y-156210000D03*
X6580000Y-153670000D03*
X4040000Y-153670000D03*
%TD*%
M02*
