M48
; DRILL file {KiCad (6.0.1)} date Mon Jul  4 18:11:23 2022
; FORMAT={-:-/ absolute / inch / decimal}
; #@! TF.CreationDate,2022-07-04T18:11:23+02:00
; #@! TF.GenerationSoftware,Kicad,Pcbnew,(6.0.1)
; #@! TF.FileFunction,MixedPlating,1,2
FMAT,2
INCH
; #@! TA.AperFunction,Plated,PTH,ViaDrill
T1C0.0157
; #@! TA.AperFunction,Plated,PTH,ComponentDrill
T2C0.0315
; #@! TA.AperFunction,Plated,PTH,ComponentDrill
T3C0.0354
; #@! TA.AperFunction,Plated,PTH,ComponentDrill
T4C0.0394
%
G90
G05
T1
X0.5Y-11.65
X0.5Y-13.65
X0.55Y0.075
X0.55Y-1.95
X0.55Y-3.95
X0.55Y-11.7
X0.55Y-13.7
X0.6Y0.075
X0.6Y-1.95
X0.6Y-3.95
X0.6Y-11.75
X0.6Y-13.75
X0.65Y0.075
X0.65Y-1.95
X0.65Y-3.95
X0.65Y-11.8
X0.65Y-13.8
X0.7Y0.075
X0.7Y-1.95
X0.7Y-3.95
X0.7Y-11.85
X0.7Y-13.85
X0.75Y0.075
X0.75Y-1.95
X0.75Y-3.95
X0.75Y-11.9
X0.75Y-13.9
X0.8Y0.075
X0.8Y-1.95
X0.8Y-3.95
X0.825Y-11.975
X0.825Y-13.675
X0.825Y-13.75
X0.85Y0.075
X0.85Y-1.95
X0.85Y-3.95
X0.875Y-11.975
X0.9Y-13.675
X0.9Y-13.75
X0.925Y-11.975
X0.975Y-11.975
X1.025Y-11.975
X1.1Y0.0
X1.1Y-2.0
X1.1Y-4.0
X1.1Y-6.0
X1.1Y-8.0
X1.1Y-10.0
X1.1Y-12.05
X1.15Y-0.15
X1.15Y-2.15
X1.15Y-4.15
X1.15Y-6.15
X1.15Y-8.15
X1.15Y-10.15
X1.15Y-12.15
X1.2Y-0.1
X1.2Y-2.1
X1.2Y-4.1
X1.2Y-6.1
X1.2Y-8.1
X1.2Y-10.1
X1.2Y-12.1
X1.25Y-0.25
X1.25Y-2.25
X1.25Y-4.25
X1.25Y-6.25
X1.25Y-8.25
X1.25Y-10.25
X1.25Y-12.25
X1.3Y-0.2
X1.3Y-2.2
X1.3Y-4.2
X1.3Y-6.2
X1.3Y-8.2
X1.3Y-10.2
X1.3Y-12.2
X1.35Y-0.35
X1.35Y-2.35
X1.35Y-4.35
X1.35Y-6.35
X1.35Y-8.35
X1.35Y-10.35
X1.35Y-12.35
X1.4Y-0.3
X1.4Y-2.3
X1.4Y-4.3
X1.4Y-6.3
X1.4Y-8.3
X1.4Y-10.3
X1.4Y-12.3
X1.45Y-0.45
X1.45Y-2.45
X1.45Y-4.45
X1.45Y-6.45
X1.45Y-8.45
X1.45Y-10.45
X1.45Y-12.45
X1.5Y-0.4
X1.5Y-2.4
X1.5Y-4.4
X1.5Y-6.4
X1.5Y-8.4
X1.5Y-10.4
X1.5Y-12.4
X1.55Y-0.55
X1.55Y-2.55
X1.55Y-4.55
X1.55Y-6.55
X1.55Y-8.55
X1.55Y-10.55
X1.55Y-12.55
X1.6Y-0.5
X1.6Y-2.5
X1.6Y-4.5
X1.6Y-6.5
X1.6Y-8.5
X1.6Y-10.5
X1.6Y-12.5
X1.65Y-0.65
X1.65Y-2.65
X1.65Y-4.65
X1.65Y-6.65
X1.65Y-8.65
X1.65Y-10.65
X1.65Y-12.65
X1.7Y-0.6
X1.7Y-2.6
X1.7Y-4.6
X1.7Y-6.6
X1.7Y-8.6
X1.7Y-10.6
X1.7Y-12.6
X1.75Y-0.75
X1.75Y-2.75
X1.75Y-4.75
X1.75Y-6.75
X1.75Y-8.75
X1.75Y-10.75
X1.75Y-12.75
X1.8Y-0.7
X1.8Y-2.7
X1.8Y-4.7
X1.8Y-6.7
X1.8Y-8.7
X1.8Y-10.7
X1.8Y-12.7
X1.85Y-0.85
X1.85Y-2.85
X1.85Y-4.85
X1.85Y-6.85
X1.85Y-8.85
X1.85Y-10.85
X1.85Y-12.85
X1.9Y-0.8
X1.9Y-2.8
X1.9Y-4.8
X1.9Y-6.8
X1.9Y-8.8
X1.9Y-10.8
X1.9Y-12.8
X1.95Y-0.95
X1.95Y-2.95
X1.95Y-4.95
X1.95Y-6.95
X1.95Y-8.95
X1.95Y-10.95
X1.95Y-12.95
X2.0Y-0.9
X2.0Y-2.9
X2.0Y-4.9
X2.0Y-6.9
X2.0Y-8.9
X2.0Y-10.9
X2.0Y-12.9
X2.05Y-1.05
X2.05Y-3.05
X2.05Y-5.05
X2.05Y-7.05
X2.05Y-9.05
X2.05Y-11.05
X2.05Y-13.05
X2.1Y-1.0
X2.1Y-3.0
X2.1Y-5.0
X2.1Y-7.0
X2.1Y-9.0
X2.1Y-11.0
X2.1Y-13.0
X2.15Y-1.15
X2.15Y-3.15
X2.15Y-5.15
X2.15Y-7.15
X2.15Y-9.15
X2.15Y-11.15
X2.15Y-13.15
X2.2Y-1.1
X2.2Y-3.1
X2.2Y-5.1
X2.2Y-7.1
X2.2Y-9.1
X2.2Y-11.1
X2.2Y-13.1
X2.25Y-1.25
X2.25Y-3.25
X2.25Y-5.25
X2.25Y-7.25
X2.25Y-9.25
X2.25Y-11.25
X2.25Y-13.25
X2.3Y-1.2
X2.3Y-3.2
X2.3Y-5.2
X2.3Y-7.2
X2.3Y-9.2
X2.3Y-11.2
X2.3Y-13.2
X2.35Y-1.35
X2.35Y-3.35
X2.35Y-5.35
X2.35Y-7.35
X2.35Y-9.35
X2.35Y-11.35
X2.35Y-13.35
X2.4Y-1.3
X2.4Y-3.3
X2.4Y-5.3
X2.4Y-7.3
X2.4Y-9.3
X2.4Y-11.3
X2.4Y-13.3
X2.45Y-1.45
X2.45Y-3.45
X2.45Y-5.45
X2.45Y-7.45
X2.45Y-9.45
X2.45Y-11.45
X2.45Y-13.45
X2.5Y-1.4
X2.5Y-3.4
X2.5Y-5.4
X2.5Y-7.4
X2.5Y-9.4
X2.5Y-11.4
X2.5Y-13.4
X2.55Y-1.55
X2.55Y-3.55
X2.55Y-5.55
X2.55Y-7.55
X2.55Y-9.55
X2.55Y-11.55
X2.55Y-13.55
X2.6Y-1.5
X2.6Y-3.5
X2.6Y-5.5
X2.6Y-7.5
X2.6Y-9.5
X2.6Y-11.5
X2.6Y-13.5
X2.65Y-1.65
X2.65Y-3.65
X2.65Y-5.65
X2.65Y-7.65
X2.65Y-9.65
X2.65Y-11.65
X2.7Y-1.6
X2.7Y-3.6
X2.7Y-5.6
X2.7Y-7.6
X2.7Y-9.6
X2.7Y-11.6
X2.7Y-13.6
X2.75Y-1.75
X2.75Y-3.75
X2.75Y-5.75
X2.75Y-7.75
X2.75Y-9.75
X2.75Y-11.75
X2.8Y-1.7
X2.8Y-3.7
X2.8Y-5.7
X2.8Y-7.7
X2.8Y-9.7
X2.8Y-11.7
X2.85Y-1.85
X2.85Y-3.85
X2.85Y-5.85
X2.85Y-7.85
X2.85Y-9.85
X2.85Y-11.85
X2.9Y-1.8
X2.9Y-3.8
X2.9Y-5.8
X2.9Y-7.8
X2.9Y-9.8
X2.9Y-11.8
X3.0Y-1.9
X3.0Y-3.9
X3.0Y-5.9
X3.0Y-7.9
X3.0Y-9.9
X3.0Y-11.9
X3.1Y-11.85
X3.1Y-13.85
X3.15Y-11.8
X3.15Y-13.8
X3.2Y-11.75
X3.2Y-13.75
X3.25Y-11.7
X3.25Y-13.7
X3.3Y-11.65
X3.3Y-13.65
T2
X0.9Y0.9
X0.9Y0.6
X1.2Y0.9
X1.2Y0.6
X1.5Y0.9
X1.5Y0.6
X1.8Y0.9
X1.8Y0.6
X2.1Y0.9
X2.1Y0.6
X2.4Y0.9
X2.4Y0.6
X2.7Y0.9
X2.7Y0.6
X3.0Y0.9
X3.0Y0.6
T3
X0.9Y0.4
X1.0Y0.4
X1.2Y0.4
X1.3Y0.4
X1.5Y0.4
X1.6Y0.4
X1.8Y0.4
X1.9Y0.4
X2.1Y0.4
X2.2Y0.4
X2.4Y0.4
X2.5Y0.4
X2.7Y0.4
X2.8Y0.4
X3.0Y0.4
X3.1Y0.4
T4
X0.1591Y-0.05
X0.1591Y-0.15
X0.1591Y-0.25
X0.1591Y-0.35
X0.1591Y-0.45
X0.1591Y-0.55
X0.1591Y-0.65
X0.1591Y-0.75
X0.1591Y-0.85
X0.1591Y-0.95
X0.1591Y-1.05
X0.1591Y-1.15
X0.1591Y-1.25
X0.1591Y-1.35
X0.1591Y-1.45
X0.1591Y-1.55
X0.1591Y-1.65
X0.1591Y-1.75
X0.1591Y-1.85
X0.1591Y-1.95
X0.1591Y-2.05
X0.1591Y-2.15
X0.1591Y-2.25
X0.1591Y-2.35
X0.1591Y-2.45
X0.1591Y-2.55
X0.1591Y-2.65
X0.1591Y-2.75
X0.1591Y-2.85
X0.1591Y-2.95
X0.1591Y-3.05
X0.1591Y-3.15
X0.1591Y-3.25
X0.1591Y-3.35
X0.1591Y-3.45
X0.1591Y-3.55
X0.1591Y-3.65
X0.1591Y-3.75
X0.1591Y-3.85
X0.1591Y-3.95
X0.1591Y-6.05
X0.1591Y-6.15
X0.1591Y-6.25
X0.1591Y-6.35
X0.1591Y-6.45
X0.1591Y-6.55
X0.1591Y-6.65
X0.1591Y-6.75
X0.1591Y-6.85
X0.1591Y-6.95
X0.1591Y-7.05
X0.1591Y-7.15
X0.1591Y-7.25
X0.1591Y-7.35
X0.1591Y-7.45
X0.1591Y-7.55
X0.1591Y-7.65
X0.1591Y-7.75
X0.1591Y-7.85
X0.1591Y-7.95
X0.1591Y-10.05
X0.1591Y-10.15
X0.1591Y-10.25
X0.1591Y-10.35
X0.1591Y-10.45
X0.1591Y-10.55
X0.1591Y-10.65
X0.1591Y-10.75
X0.1591Y-10.85
X0.1591Y-10.95
X0.1591Y-11.05
X0.1591Y-11.15
X0.1591Y-11.25
X0.1591Y-11.35
X0.1591Y-11.45
X0.1591Y-11.55
X0.1591Y-11.65
X0.1591Y-11.75
X0.1591Y-11.85
X0.1591Y-11.95
X0.1591Y-12.05
X0.1591Y-12.15
X0.1591Y-12.25
X0.1591Y-12.35
X0.1591Y-12.45
X0.1591Y-12.55
X0.1591Y-12.65
X0.1591Y-12.75
X0.1591Y-12.85
X0.1591Y-12.95
X0.1591Y-13.05
X0.1591Y-13.15
X0.1591Y-13.25
X0.1591Y-13.35
X0.1591Y-13.45
X0.1591Y-13.55
X0.1591Y-13.65
X0.1591Y-13.75
X0.1591Y-13.85
X0.1591Y-13.95
X0.2591Y-0.05
X0.2591Y-0.15
X0.2591Y-0.25
X0.2591Y-0.35
X0.2591Y-0.45
X0.2591Y-0.55
X0.2591Y-0.65
X0.2591Y-0.75
X0.2591Y-0.85
X0.2591Y-0.95
X0.2591Y-1.05
X0.2591Y-1.15
X0.2591Y-1.25
X0.2591Y-1.35
X0.2591Y-1.45
X0.2591Y-1.55
X0.2591Y-1.65
X0.2591Y-1.75
X0.2591Y-1.85
X0.2591Y-1.95
X0.2591Y-2.05
X0.2591Y-2.15
X0.2591Y-2.25
X0.2591Y-2.35
X0.2591Y-2.45
X0.2591Y-2.55
X0.2591Y-2.65
X0.2591Y-2.75
X0.2591Y-2.85
X0.2591Y-2.95
X0.2591Y-3.05
X0.2591Y-3.15
X0.2591Y-3.25
X0.2591Y-3.35
X0.2591Y-3.45
X0.2591Y-3.55
X0.2591Y-3.65
X0.2591Y-3.75
X0.2591Y-3.85
X0.2591Y-3.95
X0.2591Y-6.05
X0.2591Y-6.15
X0.2591Y-6.25
X0.2591Y-6.35
X0.2591Y-6.45
X0.2591Y-6.55
X0.2591Y-6.65
X0.2591Y-6.75
X0.2591Y-6.85
X0.2591Y-6.95
X0.2591Y-7.05
X0.2591Y-7.15
X0.2591Y-7.25
X0.2591Y-7.35
X0.2591Y-7.45
X0.2591Y-7.55
X0.2591Y-7.65
X0.2591Y-7.75
X0.2591Y-7.85
X0.2591Y-7.95
X0.2591Y-10.05
X0.2591Y-10.15
X0.2591Y-10.25
X0.2591Y-10.35
X0.2591Y-10.45
X0.2591Y-10.55
X0.2591Y-10.65
X0.2591Y-10.75
X0.2591Y-10.85
X0.2591Y-10.95
X0.2591Y-11.05
X0.2591Y-11.15
X0.2591Y-11.25
X0.2591Y-11.35
X0.2591Y-11.45
X0.2591Y-11.55
X0.2591Y-11.65
X0.2591Y-11.75
X0.2591Y-11.85
X0.2591Y-11.95
X0.2591Y-12.05
X0.2591Y-12.15
X0.2591Y-12.25
X0.2591Y-12.35
X0.2591Y-12.45
X0.2591Y-12.55
X0.2591Y-12.65
X0.2591Y-12.75
X0.2591Y-12.85
X0.2591Y-12.95
X0.2591Y-13.05
X0.2591Y-13.15
X0.2591Y-13.25
X0.2591Y-13.35
X0.2591Y-13.45
X0.2591Y-13.55
X0.2591Y-13.65
X0.2591Y-13.75
X0.2591Y-13.85
X0.2591Y-13.95
X1.05Y-13.7409
X1.05Y-13.8409
X1.15Y-13.7409
X1.15Y-13.8409
X1.25Y-13.7409
X1.25Y-13.8409
X1.35Y-13.7409
X1.35Y-13.8409
X1.45Y-13.7409
X1.45Y-13.8409
X1.55Y-13.7409
X1.55Y-13.8409
X1.65Y-13.7409
X1.65Y-13.8409
X1.75Y-13.7409
X1.75Y-13.8409
X1.85Y-13.7409
X1.85Y-13.8409
X1.95Y-13.7409
X1.95Y-13.8409
X2.05Y-13.7409
X2.05Y-13.8409
X2.15Y-13.7409
X2.15Y-13.8409
X2.25Y-13.7409
X2.25Y-13.8409
X2.35Y-13.7409
X2.35Y-13.8409
X2.45Y-13.7409
X2.45Y-13.8409
X2.55Y-13.7409
X2.55Y-13.8409
X2.65Y-13.7409
X2.65Y-13.8409
X2.75Y-13.7409
X2.75Y-13.8409
X2.85Y-13.7409
X2.85Y-13.8409
X2.95Y-13.7409
X2.95Y-13.8409
X3.5118Y-0.05
X3.5118Y-0.15
X3.5118Y-0.25
X3.5118Y-0.35
X3.5118Y-0.45
X3.5118Y-0.55
X3.5118Y-0.65
X3.5118Y-0.75
X3.5118Y-0.85
X3.5118Y-0.95
X3.5118Y-1.05
X3.5118Y-1.15
X3.5118Y-1.25
X3.5118Y-1.35
X3.5118Y-1.45
X3.5118Y-1.55
X3.5118Y-1.65
X3.5118Y-1.75
X3.5118Y-1.85
X3.5118Y-1.95
X3.5118Y-2.05
X3.5118Y-2.15
X3.5118Y-2.25
X3.5118Y-2.35
X3.5118Y-2.45
X3.5118Y-2.55
X3.5118Y-2.65
X3.5118Y-2.75
X3.5118Y-2.85
X3.5118Y-2.95
X3.5118Y-3.05
X3.5118Y-3.15
X3.5118Y-3.25
X3.5118Y-3.35
X3.5118Y-3.45
X3.5118Y-3.55
X3.5118Y-3.65
X3.5118Y-3.75
X3.5118Y-3.85
X3.5118Y-3.95
X3.5118Y-4.05
X3.5118Y-4.15
X3.5118Y-4.25
X3.5118Y-4.35
X3.5118Y-4.45
X3.5118Y-4.55
X3.5118Y-4.65
X3.5118Y-4.75
X3.5118Y-4.85
X3.5118Y-4.95
X3.5118Y-5.05
X3.5118Y-5.15
X3.5118Y-5.25
X3.5118Y-5.35
X3.5118Y-5.45
X3.5118Y-5.55
X3.5118Y-5.65
X3.5118Y-5.75
X3.5118Y-5.85
X3.5118Y-5.95
X3.5118Y-8.05
X3.5118Y-8.15
X3.5118Y-8.25
X3.5118Y-8.35
X3.5118Y-8.45
X3.5118Y-8.55
X3.5118Y-8.65
X3.5118Y-8.75
X3.5118Y-8.85
X3.5118Y-8.95
X3.5118Y-9.05
X3.5118Y-9.15
X3.5118Y-9.25
X3.5118Y-9.35
X3.5118Y-9.45
X3.5118Y-9.55
X3.5118Y-9.65
X3.5118Y-9.75
X3.5118Y-9.85
X3.5118Y-9.95
X3.5118Y-12.05
X3.5118Y-12.15
X3.5118Y-12.25
X3.5118Y-12.35
X3.5118Y-12.45
X3.5118Y-12.55
X3.5118Y-12.65
X3.5118Y-12.75
X3.5118Y-12.85
X3.5118Y-12.95
X3.5118Y-13.05
X3.5118Y-13.15
X3.5118Y-13.25
X3.5118Y-13.35
X3.5118Y-13.45
X3.5118Y-13.55
X3.5118Y-13.65
X3.5118Y-13.75
X3.5118Y-13.85
X3.5118Y-13.95
X3.6118Y-0.05
X3.6118Y-0.15
X3.6118Y-0.25
X3.6118Y-0.35
X3.6118Y-0.45
X3.6118Y-0.55
X3.6118Y-0.65
X3.6118Y-0.75
X3.6118Y-0.85
X3.6118Y-0.95
X3.6118Y-1.05
X3.6118Y-1.15
X3.6118Y-1.25
X3.6118Y-1.35
X3.6118Y-1.45
X3.6118Y-1.55
X3.6118Y-1.65
X3.6118Y-1.75
X3.6118Y-1.85
X3.6118Y-1.95
X3.6118Y-2.05
X3.6118Y-2.15
X3.6118Y-2.25
X3.6118Y-2.35
X3.6118Y-2.45
X3.6118Y-2.55
X3.6118Y-2.65
X3.6118Y-2.75
X3.6118Y-2.85
X3.6118Y-2.95
X3.6118Y-3.05
X3.6118Y-3.15
X3.6118Y-3.25
X3.6118Y-3.35
X3.6118Y-3.45
X3.6118Y-3.55
X3.6118Y-3.65
X3.6118Y-3.75
X3.6118Y-3.85
X3.6118Y-3.95
X3.6118Y-4.05
X3.6118Y-4.15
X3.6118Y-4.25
X3.6118Y-4.35
X3.6118Y-4.45
X3.6118Y-4.55
X3.6118Y-4.65
X3.6118Y-4.75
X3.6118Y-4.85
X3.6118Y-4.95
X3.6118Y-5.05
X3.6118Y-5.15
X3.6118Y-5.25
X3.6118Y-5.35
X3.6118Y-5.45
X3.6118Y-5.55
X3.6118Y-5.65
X3.6118Y-5.75
X3.6118Y-5.85
X3.6118Y-5.95
X3.6118Y-8.05
X3.6118Y-8.15
X3.6118Y-8.25
X3.6118Y-8.35
X3.6118Y-8.45
X3.6118Y-8.55
X3.6118Y-8.65
X3.6118Y-8.75
X3.6118Y-8.85
X3.6118Y-8.95
X3.6118Y-9.05
X3.6118Y-9.15
X3.6118Y-9.25
X3.6118Y-9.35
X3.6118Y-9.45
X3.6118Y-9.55
X3.6118Y-9.65
X3.6118Y-9.75
X3.6118Y-9.85
X3.6118Y-9.95
X3.6118Y-12.05
X3.6118Y-12.15
X3.6118Y-12.25
X3.6118Y-12.35
X3.6118Y-12.45
X3.6118Y-12.55
X3.6118Y-12.65
X3.6118Y-12.75
X3.6118Y-12.85
X3.6118Y-12.95
X3.6118Y-13.05
X3.6118Y-13.15
X3.6118Y-13.25
X3.6118Y-13.35
X3.6118Y-13.45
X3.6118Y-13.55
X3.6118Y-13.65
X3.6118Y-13.75
X3.6118Y-13.85
X3.6118Y-13.95
T0
M30
